<?xml version="1.0" encoding="utf-8"?>
<!-- Generator: Adobe Illustrator 16.0.0, SVG Export Plug-In . SVG Version: 6.00 Build 0)  -->
<!DOCTYPE svg PUBLIC "-//W3C//DTD SVG 1.1//EN" "http://www.w3.org/Graphics/SVG/1.1/DTD/svg11.dtd">
<svg version="1.1" id="Layer_1" xmlns="http://www.w3.org/2000/svg" xmlns:xlink="http://www.w3.org/1999/xlink" x="0px" y="0px"
	 width="26px" height="9px" viewBox="0 0 26 9" enable-background="new 0 0 26 9" xml:space="preserve">
<path fill="#08104D" d="M0.038,4.691c-0.05-0.122-0.05-0.26,0-0.382c0.025-0.061,0.063-0.117,0.109-0.163l3.534-3.535
	c0.195-0.195,0.512-0.195,0.707,0s0.195,0.512,0,0.707L1.707,4h23.792c0.276,0,0.5,0.224,0.5,0.5S25.775,5,25.499,5H1.707
	l2.682,2.682c0.195,0.195,0.195,0.512,0,0.707C4.291,8.486,4.163,8.535,4.035,8.535S3.779,8.486,3.682,8.389L0.147,4.854
	C0.101,4.808,0.063,4.753,0.038,4.691"/>
</svg>
