<?xml version="1.0" encoding="utf-8"?>
<!-- Generator: Adobe Illustrator 21.0.2, SVG Export Plug-In . SVG Version: 6.00 Build 0)  -->
<svg version="1.1" id="Layer_1" xmlns="http://www.w3.org/2000/svg" xmlns:xlink="http://www.w3.org/1999/xlink" x="0px" y="0px"
  width="72px" height="21px" viewBox="0 0 72 21" enable-background="new 0 0 72 21" xml:space="preserve">
<path fill="#08104D" d="M0.184,10.691c-0.05-0.122-0.05-0.26,0-0.382c0.025-0.061,0.062-0.117,0.109-0.163l9.999-9.999
 c0.195-0.196,0.512-0.196,0.707,0c0.195,0.195,0.195,0.511,0,0.707L1.852,10h69.503c0.276,0,0.5,0.224,0.5,0.5s-0.224,0.5-0.5,0.5
 H1.852l9.147,9.146c0.195,0.195,0.195,0.512,0,0.707C10.9,20.951,10.772,21,10.645,21s-0.255-0.049-0.353-0.146l-9.999-10
 C0.246,10.808,0.208,10.753,0.184,10.691"/>
</svg>