<?xml version="1.0" encoding="utf-8"?>
<!-- Generator: Adobe Illustrator 21.0.2, SVG Export Plug-In . SVG Version: 6.00 Build 0)  -->
<svg version="1.1" id="Layer_1" xmlns="http://www.w3.org/2000/svg" xmlns:xlink="http://www.w3.org/1999/xlink" x="0px" y="0px"
  width="72px" height="21px" viewBox="0 0 72 21" enable-background="new 0 0 72 21" xml:space="preserve">
<path fill="#08104D" d="M71.816,10.691c0.051-0.122,0.051-0.26,0-0.382c-0.025-0.061-0.063-0.117-0.108-0.163l-10-9.999
 c-0.195-0.196-0.512-0.196-0.707,0c-0.195,0.195-0.195,0.511,0,0.707L70.147,10H0.646c-0.277,0-0.5,0.224-0.5,0.5S0.37,11,0.646,11
 h69.501l-9.146,9.146c-0.195,0.195-0.195,0.512,0,0.707C61.099,20.951,61.227,21,61.354,21s0.256-0.049,0.354-0.146l10-10
 C71.754,10.808,71.791,10.753,71.816,10.691"/>
</svg>