<?xml version="1.0" encoding="utf-8"?>
<!-- Generator: Adobe Illustrator 21.0.2, SVG Export Plug-In . SVG Version: 6.00 Build 0)  -->
<svg version="1.1" id="Layer_1" xmlns="http://www.w3.org/2000/svg" xmlns:xlink="http://www.w3.org/1999/xlink" x="0px" y="0px"
	 viewBox="0 0 14 18" style="enable-background:new 0 0 14 18;" xml:space="preserve">
<style type="text/css">
	.st0{fill:#FFFFFF;}
</style>
<path class="st0" d="M13.2,5.7c0-0.3-0.2-0.5-0.5-0.5h-1.8V3.9C10.9,1.7,9.1,0,7,0C4.9,0,3.1,1.7,3.1,3.9v1.4H1.3
	c-0.3,0-0.5,0.2-0.5,0.5L0.1,17.5c0,0.1,0,0.3,0.1,0.4C0.4,17.9,0.5,18,0.6,18h12.8c0.1,0,0.3-0.1,0.4-0.2c0.1-0.1,0.1-0.2,0.1-0.4
	L13.2,5.7z M9.9,5.2H4.1V3.9C4.1,2.3,5.4,1,7,1c1.6,0,2.9,1.3,2.9,2.9V5.2z M3.6,7.5c0.3,0,0.5-0.2,0.5-0.5V6.2h5.8V7
	c0,0.3,0.2,0.5,0.5,0.5c0.3,0,0.5-0.2,0.5-0.5V6.2h1.4L12.9,17H1.1L1.8,6.2h1.4V7C3.1,7.2,3.3,7.5,3.6,7.5z"/>
</svg>
