<svg xmlns="http://www.w3.org/2000/svg" width="200" height="80" viewBox="0 0 200 80"><defs><style>.a{fill:#bdbdbd;}</style></defs><title>AmazonWebServicesLogo</title><path class="a" d="M123.5,39.439a3.4,3.4,0,0,1-1.122-.918,2.978,2.978,0,0,1-.2-.918v-1.53c0-.714.2-1.02.714-1.02a1.294,1.294,0,0,1,.612.1,7.028,7.028,0,0,0,.816.306,13.791,13.791,0,0,0,3.468,1.122,15.017,15.017,0,0,0,3.672.408,8.281,8.281,0,0,0,4.59-1.02,3.325,3.325,0,0,0,1.632-2.958,2.838,2.838,0,0,0-.816-2.142,8.133,8.133,0,0,0-3.162-1.632l-4.488-1.428a9.052,9.052,0,0,1-5-3.163,7.242,7.242,0,0,1-1.53-4.488,6.473,6.473,0,0,1,.816-3.468,8.986,8.986,0,0,1,2.244-2.55,10.881,10.881,0,0,1,3.264-1.632,15.485,15.485,0,0,1,3.876-.51,7.637,7.637,0,0,1,2.142.2,12.237,12.237,0,0,1,2.04.306c.612.2,1.224.306,1.735.51a4,4,0,0,1,1.326.51,2.408,2.408,0,0,1,.918.816,1.523,1.523,0,0,1,.306,1.02V16.59c0,.714-.2,1.02-.714,1.02a4.229,4.229,0,0,1-1.224-.408,14.432,14.432,0,0,0-6.019-1.224,7.949,7.949,0,0,0-4.182.918,3.013,3.013,0,0,0-1.428,2.754,3,3,0,0,0,.918,2.244,9.006,9.006,0,0,0,3.468,1.734l4.386,1.428a9.452,9.452,0,0,1,4.795,2.959,7.511,7.511,0,0,1,1.428,4.386,8.453,8.453,0,0,1-.816,3.672,7.435,7.435,0,0,1-2.244,2.754,12.281,12.281,0,0,1-3.469,1.734,14.7,14.7,0,0,1-4.386.612,18.678,18.678,0,0,1-4.794-.51,11.1,11.1,0,0,1-3.57-1.224Zm-52.736-15.1c1.224.2,2.346.408,3.672.714V22.812c0-2.346-.408-4.08-1.428-5s-2.652-1.428-5.1-1.428a12.671,12.671,0,0,0-3.366.408,21.154,21.154,0,0,0-3.366,1.02c-.51.2-.918.306-1.122.408a1.109,1.109,0,0,1-.51.1c-.408,0-.612-.408-.612-1.02v-1.53c0-.51,0-.918.2-1.122a1.864,1.864,0,0,1,.816-.612,19.163,19.163,0,0,1,3.876-1.428,18.936,18.936,0,0,1,4.9-.612c3.774,0,6.426.816,8.16,2.55s2.55,4.284,2.55,7.65V32.4a10.265,10.265,0,0,0,.306,2.754,14.1,14.1,0,0,0,1.02,2.244,2.6,2.6,0,0,1,.2.714,1.234,1.234,0,0,1-.612.918l-1.938,1.326a1.628,1.628,0,0,1-.816.306,1.246,1.246,0,0,1-.918-.408,7.7,7.7,0,0,1-1.122-1.428,15.344,15.344,0,0,1-.918-1.836,11.6,11.6,0,0,1-9.18,4.284,8.327,8.327,0,0,1-6.222-2.244A8,8,0,0,1,57,33.013a7.951,7.951,0,0,1,2.856-6.426,11.473,11.473,0,0,1,7.65-2.449,18.1,18.1,0,0,1,3.264.2Zm3.57,5.509V28.525a23.719,23.719,0,0,0-2.856-.51c-1.02-.1-2.04-.2-2.958-.2a7.251,7.251,0,0,0-4.59,1.224A4.346,4.346,0,0,0,62.4,32.6a4.509,4.509,0,0,0,1.122,3.264,4.509,4.509,0,0,0,3.264,1.122,9.675,9.675,0,0,0,3.264-.612,6.259,6.259,0,0,0,2.958-1.938,4.438,4.438,0,0,0,1.02-1.938,9.976,9.976,0,0,0,.306-2.652Zm15.709,9.078a3.321,3.321,0,0,0,.612,1.224,1.772,1.772,0,0,0,1.224.306h2.652a1.772,1.772,0,0,0,1.224-.306,3.321,3.321,0,0,0,.612-1.224l4.794-20.1,4.9,20.1a1.744,1.744,0,0,0,.612,1.224,1.961,1.961,0,0,0,1.224.306h2.653a2.175,2.175,0,0,0,1.224-.306,2.265,2.265,0,0,0,.612-1.224l7.548-24.073a4.157,4.157,0,0,0,.2-.714c0-.2.1-.306.1-.51,0-.51-.2-.714-.714-.714H116.67a1.772,1.772,0,0,0-1.224.306,3.321,3.321,0,0,0-.612,1.224l-5.407,20.911-5-21.013a1.744,1.744,0,0,0-.612-1.224,1.961,1.961,0,0,0-1.224-.306h-2.55a1.772,1.772,0,0,0-1.224.306,3.321,3.321,0,0,0-.612,1.224l-4.9,20.605-5.2-20.6a3.321,3.321,0,0,0-.612-1.224,1.772,1.772,0,0,0-1.224-.306h-3.06c-.51,0-.715.2-.715.714a5.027,5.027,0,0,0,.307,1.224l7.242,24.175Zm46.207,15.1a91.45,91.45,0,0,1-35.293,7.242,92.281,92.281,0,0,1-46.31-12.343c-1.122-.714-2.04.51-1.02,1.428A68.687,68.687,0,0,0,99.941,68c12.751,0,27.643-3.978,37.945-11.628,1.531-1.224.1-3.061-1.632-2.346Zm-6.426-4.285c-.918.612-.714,1.53.2,1.428,3.264-.408,10.711-1.326,11.935.408,1.326,1.632-1.428,8.569-2.652,11.731-.408.918.408,1.326,1.326.612,5.508-4.59,6.936-14.281,5.814-15.607-1.122-1.53-10.813-2.652-16.627,1.428Z"/></svg>