<svg xmlns="http://www.w3.org/2000/svg" width="200" height="80" viewBox="0 0 200 80"><defs><style>.a{fill:#bdbdbd;}</style></defs><title>AMSLogo</title><path class="a" d="M92.259,24a9.923,9.923,0,0,0-8.782,4.721V24.934H76.726V55.067h7.19v-16.3a10.807,10.807,0,0,1,1.152-5.213,5.613,5.613,0,0,1,5.16-2.8,5.309,5.309,0,0,1,4.94,2.8,10.964,10.964,0,0,1,.934,4.993V55.067h7.189V38.545a9.52,9.52,0,0,1,1.044-5.048,5.642,5.642,0,0,1,5.213-2.745c2.524,0,3.952.988,4.721,2.47a10.25,10.25,0,0,1,1.207,5.6V55.067h7.19V38.545c0-6.2-.549-8.672-3.293-11.525a11.789,11.789,0,0,0-15.7-.056,12.494,12.494,0,0,0-2.195,2.854,13.967,13.967,0,0,0-1.811-2.744A9.789,9.789,0,0,0,92.259,24Zm35.571.94a1.054,1.054,0,1,0,1.053,1.054A1.053,1.053,0,0,0,127.83,24.94Zm2.384.032c-.435,0-.761.322-.966.967q.264,1.142,1.142,1.142c.643-.2.969-.527.969-.967v-.175c0-.542-.326-.864-.969-.967Zm2.547,0c-.458,0-.78.323-.97.967q0,.879,1.054,1.14c.615,0,.965-.379,1.054-1.14q0-.812-.966-.967Zm7.605,0q-.657,0-.965.967c.179.761.555,1.142,1.142,1.142.643-.2.969-.527.969-.967v-.175c0-.542-.326-.864-.969-.967Zm2.547,0q-.681,0-.966.967c0,.586.355.966,1.054,1.14.615,0,.969-.379,1.054-1.14q0-.812-.963-.967Zm2.543,0c-.439,0-.761.322-.962.967.171.761.552,1.142,1.137,1.142q.966-.307.966-.967v-.175q0-.813-.966-.967Zm2.546,0q-.659,0-.966.967.263,1.142,1.141,1.142c.648-.2.967-.527.967-.967v-.175c0-.542-.319-.864-.967-.967Zm2.454,0q-.657,0-.965.967.262,1.142,1.142,1.142c.647-.2.965-.527.965-.967v-.175c0-.542-.318-.864-.965-.967Zm2.544,0q-.683,0-.963.967,0,.879,1.05,1.14.923,0,1.054-1.14c0-.541-.323-.864-.962-.967Zm2.545,0q-.657,0-.965.967.262,1.142,1.142,1.142.965-.307.965-.967v-.175q0-.813-.965-.967Zm2.543,0q-.657,0-.966.967.264,1.142,1.142,1.142c.647-.2.966-.527.966-.967v-.175c0-.542-.319-.864-.966-.967Zm-30.421,2.547c-.434,0-.756.322-.957.966,0,.626.372,1.006,1.133,1.138q.966-.308.966-.966v-.172q0-.812-.966-.966Zm2.547,0c-.435,0-.761.322-.966.966.176.757.556,1.138,1.142,1.138.643-.205.969-.527.969-.966v-.172c0-.541-.326-.863-.969-.966Zm10.152,0q-.657,0-.965.966c.179.757.555,1.138,1.142,1.138.643-.205.969-.527.969-.966v-.172c0-.541-.326-.863-.969-.966Zm5.09,0c-.439,0-.761.322-.962.966,0,.626.376,1.006,1.137,1.138q.966-.308.966-.966v-.172q0-.812-.966-.966Zm2.546,0q-.659,0-.966.966c.175.757.556,1.138,1.141,1.138.648-.205.967-.527.967-.966v-.172c0-.541-.319-.863-.967-.966Zm2.454,0q-.657,0-.965.966c.175.757.555,1.138,1.142,1.138.647-.205.965-.527.965-.966v-.172c0-.541-.318-.863-.965-.966Zm5.089,0q-.657,0-.965.966,0,.939,1.142,1.138.965-.308.965-.966v-.172q0-.812-.965-.966Zm2.543,0q-.657,0-.966.966c.176.757.556,1.138,1.142,1.138.647-.205.966-.527.966-.966v-.172c0-.541-.319-.863-.966-.966Zm-25.327,0c-.443,0-.761.321-.97.966,0,.624.385,1,1.142,1.137.541,0,.864-.381.966-1.137q0-.813-.966-.966Zm10.152,0q-.659,0-.966.966c0,.624.38,1,1.145,1.137.538,0,.86-.381.963-1.137q0-.813-.963-.966h-.179Zm10.087,0c-.439,0-.762.321-.963.966,0,.624.378,1,1.142,1.137.538,0,.859-.381.962-1.137,0-.542-.323-.865-.962-.966H153Zm-25.157,2.541c-.761.1-1.133.425-1.133.967a1.164,1.164,0,0,0,.957,1.142q1.143-.176,1.142-.967v-.175C128.809,30.486,128.487,30.165,127.843,30.061Zm2.547,0c-.761.1-1.142.425-1.142.967a1.168,1.168,0,0,0,.966,1.142c.761-.117,1.145-.44,1.145-.967v-.175C131.359,30.486,131.033,30.165,130.39,30.061Zm10.153,0c-.762.1-1.142.425-1.142.967a1.168,1.168,0,0,0,.965,1.142c.761-.117,1.146-.44,1.146-.967v-.175C141.512,30.486,141.186,30.165,140.543,30.061Zm5.088,0c-.761.1-1.137.425-1.137.967a1.165,1.165,0,0,0,.962,1.142q1.142-.176,1.141-.967v-.175C146.6,30.486,146.275,30.165,145.631,30.061Zm2.546,0c-.76.1-1.141.425-1.141.967A1.169,1.169,0,0,0,148,32.17c.758-.117,1.142-.44,1.142-.967v-.175C149.144,30.486,148.825,30.165,148.177,30.061Zm2.456,0c-.762.1-1.142.425-1.142.967a1.168,1.168,0,0,0,.965,1.142c.758-.117,1.142-.44,1.142-.967v-.175C151.6,30.486,151.28,30.165,150.633,30.061Zm5.089,0c-.762.1-1.142.425-1.142.967a1.168,1.168,0,0,0,.965,1.142q1.143-.176,1.142-.967v-.175c0-.542-.322-.863-.965-.967Zm2.542,0c-.761.1-1.142.425-1.142.967a1.169,1.169,0,0,0,.966,1.142q1.143-.176,1.142-.967v-.175C159.23,30.486,158.911,30.165,158.264,30.061Zm-25.331,0c-.757.1-1.142.424-1.142.966.15.761.469,1.14.97,1.14.687,0,1.064-.379,1.138-1.14q0-.813-.966-.967Zm10.159,0c-.765.1-1.145.424-1.145.966q.22,1.142.966,1.141,1.03,0,1.142-1.141Q144.055,30.215,143.092,30.062Zm10.087,0c-.764.1-1.142.424-1.142.966q.215,1.142.963,1.141,1.031,0,1.141-1.141C154.141,30.486,153.818,30.164,153.179,30.062ZM65.363,24.934v4.391C64.047,26.91,60.7,24,55.21,24,46.756,24,39.9,30.478,39.9,39.974,39.9,48.481,45.549,56,55.21,56c4.226,0,8.232-1.756,10.153-5.269v4.336h7.191V24.934Zm-1.1,19.539A8.533,8.533,0,0,1,56.252,49.3a9.045,9.045,0,0,1-9.166-9.167v-.054c0-4.666,3.293-9.386,9.111-9.386a8.842,8.842,0,0,1,8.4,5.324,9.377,9.377,0,0,1,.823,4.226A10.347,10.347,0,0,1,64.266,44.473Zm63.577-11.865c-.761.1-1.133.424-1.133.966.113.757.46,1.138,1.045,1.138q1.055-.221,1.054-.966v-.172Q128.809,32.761,127.843,32.608Zm2.46,0q-.815,0-1.055,1.05.308,1.054,1.055,1.054c.7-.147,1.056-.468,1.056-.966v-.172c0-.542-.326-.863-.969-.966Zm2.63,0c-.757.1-1.142.424-1.142.967.121.756.469,1.136,1.054,1.136.615,0,.965-.38,1.054-1.136C133.9,33.032,133.577,32.711,132.933,32.608Zm7.521,0q-.811,0-1.053,1.05.307,1.054,1.053,1.054c.7-.147,1.058-.468,1.058-.966v-.172c0-.542-.326-.863-.969-.966Zm2.638,0c-.765.1-1.145.424-1.145.967.116.756.468,1.136,1.054,1.136.615,0,.969-.38,1.054-1.136C144.055,33.032,143.733,32.711,143.092,32.608Zm2.539,0c-.761.1-1.137.424-1.137.966.113.757.464,1.138,1.049,1.138q1.055-.221,1.054-.966v-.172Q146.6,32.761,145.631,32.608Zm7.548,0c-.764.1-1.142.424-1.142.967.114.756.465,1.136,1.05,1.136.615,0,.966-.38,1.054-1.136C154.141,33.032,153.818,32.711,153.179,32.608Zm2.543,0q-1.143.155-1.142.966c.117.757.472,1.138,1.058,1.138q1.048-.221,1.049-.966v-.172Q156.687,32.761,155.722,32.608Zm2.455,0c-.538,0-.893.351-1.055,1.05q.309,1.054,1.055,1.054,1.053-.221,1.053-.966v-.172c0-.542-.319-.863-.966-.966Zm-30.422,2.543c-.5,0-.844.321-1.045.966.113.76.46,1.141,1.045,1.141q1.055-.221,1.054-.966v-.175q0-.813-.966-.966Zm2.548,0q-.815,0-1.055,1.053c0,.543.352.893,1.055,1.054.7-.147,1.056-.468,1.056-.966v-.175c0-.542-.326-.863-.969-.966Zm2.629,0c-.757.1-1.141.424-1.141.966.121.76.468,1.141,1.053,1.141.706-.147,1.054-.468,1.054-.966v-.175Q133.658,35.15,132.932,35.151Zm7.522,0q-.811,0-1.053,1.053c0,.543.352.893,1.053,1.054.7-.147,1.058-.468,1.058-.966v-.175c0-.542-.326-.863-.969-.966Zm2.638,0q-1.146.154-1.145.966.175,1.14,1.053,1.141,1.055-.221,1.054-.966v-.175C143.894,35.472,143.572,35.151,143.092,35.151Zm2.451,0c-.5,0-.848.321-1.049.966.113.76.464,1.141,1.049,1.141q1.055-.221,1.054-.966v-.175q0-.813-.966-.966Zm7.637,0c-.766.1-1.143.424-1.143.966q.171,1.14,1.05,1.141,1.055-.221,1.054-.966v-.175c-.161-.645-.483-.966-.961-.966Zm2.458,0c-.5,0-.853.321-1.058.966.117.76.472,1.141,1.058,1.141q1.048-.221,1.049-.966v-.175q0-.813-.965-.966Zm2.539,0c-.538,0-.893.351-1.055,1.053,0,.543.352.893,1.055,1.054q1.053-.221,1.053-.966v-.175c0-.542-.319-.863-.966-.966ZM127.755,37.7c-.5,0-.844.321-1.045.962a1.162,1.162,0,0,0,.871,1.142c.822-.073,1.228-.4,1.228-.966v-.176C128.809,38.165,128.458,37.843,127.755,37.7Zm2.548,0q-.815,0-1.055,1.05c0,.454.294.8.878,1.054.82-.073,1.233-.4,1.233-.966v-.176C131.359,38.135,131.005,37.814,130.3,37.7Zm2.541,0c-.5,0-.844.321-1.053.962a1.169,1.169,0,0,0,.878,1.142q1.228-.109,1.229-.966v-.176C133.9,38.165,133.55,37.843,132.844,37.7Zm7.61,0q-.811,0-1.053,1.05,0,.681.878,1.054c.819-.073,1.233-.4,1.233-.966v-.176C141.512,38.135,141.157,37.814,140.454,37.7Zm2.546,0q-.746,0-1.053.962a1.169,1.169,0,0,0,.878,1.142q1.23-.109,1.229-.966v-.176C144.054,38.165,143.7,37.843,143,37.7Zm2.543,0c-.5,0-.848.321-1.049.962a1.169,1.169,0,0,0,.873,1.142q1.232-.109,1.23-.966v-.176C146.6,38.165,146.246,37.843,145.543,37.7Zm7.544,0q-.747,0-1.05.962a1.166,1.166,0,0,0,.874,1.142q1.23-.109,1.23-.966v-.176c0-.494-.351-.816-1.054-.962Zm2.551,0c-.5,0-.853.321-1.058.962a1.168,1.168,0,0,0,.877,1.142q1.231-.109,1.23-.966v-.176c0-.494-.35-.816-1.049-.962Zm2.539,0c-.538,0-.893.351-1.055,1.05q0,.681.878,1.054,1.231-.109,1.23-.966v-.176Q159.23,37.873,158.177,37.7ZM127.755,40.24c-.5,0-.844.322-1.045.965a1.163,1.163,0,0,0,.871,1.143c.822-.073,1.228-.395,1.228-.967v-.176Q128.809,40.46,127.755,40.24Zm2.548,0q-.815,0-1.055,1.053c0,.454.294.8.878,1.055.82,0,1.233-.323,1.233-.967v-.176C131.359,40.708,131.005,40.386,130.3,40.24Zm2.541,0c-.5,0-.844.322-1.053.965a1.171,1.171,0,0,0,.878,1.143q1.228-.109,1.229-.967v-.176C133.9,40.708,133.55,40.386,132.844,40.24Zm7.61,0q-.811,0-1.053,1.053,0,.681.878,1.055c.819,0,1.233-.323,1.233-.967v-.176C141.512,40.708,141.157,40.386,140.454,40.24Zm2.546,0q-.746,0-1.053.965a1.171,1.171,0,0,0,.878,1.143q1.23-.109,1.229-.967v-.176Q144.054,40.46,143,40.24Zm2.543,0c-.5,0-.848.322-1.049.965a1.17,1.17,0,0,0,.873,1.143q1.232-.109,1.23-.967v-.176Q146.6,40.46,145.543,40.24Zm7.544,0q-.747,0-1.05.965a1.167,1.167,0,0,0,.874,1.143q1.23-.109,1.23-.967v-.176q0-.745-1.054-.965Zm2.551,0c-.5,0-.853.322-1.058.965a1.17,1.17,0,0,0,.877,1.143q1.231-.109,1.23-.967v-.176q0-.745-1.049-.965Zm2.539,0c-.538,0-.893.351-1.055,1.053q0,.681.878,1.055,1.231,0,1.23-.967v-.176Q159.23,40.46,158.177,40.24Zm-30.334,2.546c-.761.146-1.133.468-1.133.962.113.761.46,1.142,1.045,1.142h.088q.813,0,.966-.966v-.176C128.809,43.3,128.487,42.976,127.843,42.786Zm2.547,0q-1.142.2-1.142,1.051c0,.554.352.907,1.055,1.053h.087c.541,0,.867-.321.969-.966v-.176C131.359,43.3,131.033,42.976,130.39,42.786Zm2.542,0c-.757.146-1.141.468-1.141.962,0,.688.384,1.068,1.141,1.142q.966-.242.966-.966v-.176C133.9,43.3,133.576,42.976,132.932,42.786Zm7.611,0q-1.143.2-1.142,1.051c0,.554.352.907,1.053,1.053h.089q.81,0,.969-.966v-.176C141.512,43.3,141.186,42.976,140.543,42.786Zm2.549,0c-.764.146-1.145.468-1.145.962q0,1.032,1.145,1.142c.64-.161.962-.484.962-.966v-.176C144.054,43.3,143.732,42.976,143.092,42.786Zm2.539,0c-.761.146-1.137.468-1.137.962.113.761.464,1.142,1.049,1.142h.088q.811,0,.966-.966v-.176C146.6,43.3,146.275,42.976,145.631,42.786Zm7.549,0c-.766.146-1.143.468-1.143.962,0,.688.377,1.068,1.143,1.142.639-.161.961-.484.961-.966v-.176C154.141,43.3,153.819,42.976,153.18,42.786Zm2.542,0c-.762.146-1.142.468-1.142.962.117.761.472,1.142,1.058,1.142h.084c.541,0,.858-.321.965-.966v-.176C156.687,43.3,156.365,42.976,155.722,42.786Zm2.542,0q-1.142.2-1.142,1.051c0,.554.352.907,1.055,1.053h.087q.811,0,.966-.966v-.176C159.23,43.3,158.911,42.976,158.264,42.786Zm-30.421,2.542c-.761.147-1.133.469-1.133.966,0,.688.372,1.069,1.133,1.143q.813,0,.966-.967v-.176Q128.809,45.615,127.843,45.328Zm2.547,0q-.879,0-1.142,1.055,0,.833,1.055,1.054h.087c.541,0,.867-.322.969-.967v-.176C131.359,45.841,131.033,45.519,130.39,45.328Zm2.631,0q-1.23.154-1.23.967c0,.687.384,1.068,1.141,1.14q.813,0,.966-.965A1.147,1.147,0,0,0,133.021,45.328Zm7.522,0c-.587,0-.963.351-1.142,1.055q0,.833,1.053,1.054h.089q.81,0,.969-.967v-.176C141.512,45.841,141.186,45.519,140.543,45.328Zm2.634,0q-1.228.154-1.23.967,0,1.03,1.145,1.14c.538,0,.861-.321.962-.965A1.146,1.146,0,0,0,143.177,45.328Zm2.454,0c-.761.147-1.137.469-1.137.966,0,.688.376,1.069,1.137,1.143q.811,0,.966-.967v-.176Q146.6,45.615,145.631,45.328Zm7.632,0c-.819.1-1.226.425-1.226.967,0,.687.377,1.068,1.143,1.14.536,0,.858-.321.961-.965a1.147,1.147,0,0,0-.878-1.142Zm2.459,0q-1.143.221-1.142.966,0,1.032,1.142,1.143c.541,0,.858-.322.965-.967v-.176Q156.687,45.615,155.722,45.328Zm2.542,0q-.879,0-1.142,1.055,0,.833,1.055,1.054h.087q.811,0,.966-.967v-.176C159.23,45.841,158.911,45.519,158.264,45.328Zm-30.421,2.546a1.154,1.154,0,0,0-1.133.963c0,.688.372,1.068,1.133,1.142q.813,0,.966-.966v-.176Q128.809,48.183,127.843,47.874Zm2.547,0c-.63,0-1.01.382-1.142,1.139q0,.813,1.142.966c.541,0,.867-.321.969-.966v-.176C131.359,48.4,131.033,48.081,130.39,47.874Zm10.153,0c-.63,0-1.007.382-1.142,1.139q0,.813,1.142.966.81,0,.969-.966v-.176C141.512,48.4,141.186,48.081,140.543,47.874Zm5.088,0a1.16,1.16,0,0,0-1.137.963c0,.688.376,1.068,1.137,1.142q.811,0,.966-.966v-.176Q146.6,48.183,145.631,47.874Zm10.091,0a1.165,1.165,0,0,0-1.142.963q0,1.032,1.142,1.142c.541,0,.858-.321.965-.966v-.176Q156.687,48.183,155.722,47.874Zm2.542,0c-.625,0-1.009.382-1.142,1.139q0,.813,1.142.966.811,0,.966-.966v-.176C159.23,48.4,158.911,48.081,158.264,47.874Zm-25.331,0c-.757.142-1.142.463-1.142.962,0,.688.385,1.067,1.142,1.14q.811,0,.966-.966c-.1-.756-.425-1.136-.966-1.136Zm2.545,0c-.76.142-1.137.463-1.137.962,0,.688.377,1.067,1.137,1.14q.814,0,.967-.966C136.343,48.256,136.021,47.876,135.478,47.876Zm2.456,0c-.761.142-1.139.463-1.139.962,0,.688.378,1.067,1.139,1.14q.813,0,.965-.966C138.8,48.256,138.476,47.876,137.934,47.876Zm5.158,0c-.765.142-1.145.463-1.145.962,0,.688.38,1.067,1.145,1.14q.807,0,.963-.966C143.952,48.256,143.63,47.876,143.092,47.876Zm10.087,0c-.764.142-1.142.463-1.142.962,0,.688.378,1.067,1.142,1.14q.807,0,.962-.966C154.038,48.256,153.717,47.876,153.179,47.876Zm-25.336,2.541c-.624,0-1.006.382-1.133,1.142.2.645.523.966.957.966h.176q.813,0,.966-.966v-.176Q128.809,50.725,127.843,50.417Zm2.547,0q-1.142.266-1.142,1.142c.205.645.531.966.966.966h.176c.541,0,.867-.321.969-.966v-.176C131.359,50.944,131.033,50.623,130.39,50.417Zm10.153,0q-1.143.266-1.142,1.142.307.968.965.966h.177q.81,0,.969-.966v-.176C141.512,50.944,141.186,50.623,140.543,50.417Zm5.088,0c-.628,0-1.01.382-1.137,1.142.2.645.523.966.962.966h.175q.811,0,.966-.966v-.176Q146.6,50.725,145.631,50.417Zm10.091,0c-.63,0-1.01.382-1.142,1.142q.307.968.965.966h.177c.541,0,.858-.321.965-.966v-.176Q156.687,50.725,155.722,50.417Zm2.542,0q-1.142.266-1.142,1.142.309.968.966.966h.176q.811,0,.966-.966v-.176C159.23,50.944,158.911,50.623,158.264,50.417Zm-25.331,0a1.172,1.172,0,0,0-1.142.966c.121.76.439,1.141.97,1.141h.172q.811,0,.966-.967Q133.746,50.418,132.933,50.418Zm2.545,0a1.164,1.164,0,0,0-1.137.966c.113.76.435,1.141.962,1.141h.175q.814,0,.967-.967Q136.292,50.418,135.478,50.418Zm2.456,0a1.165,1.165,0,0,0-1.139.966q.171,1.14.963,1.141h.176q.813,0,.965-.967Q138.746,50.418,137.934,50.418Zm5.158,0a1.169,1.169,0,0,0-1.145.966q.174,1.14.966,1.141h.179q.807,0,.963-.967Q143.9,50.418,143.092,50.418Zm10.087,0a1.162,1.162,0,0,0-1.142.966q.171,1.14.963,1.141h.179q.807,0,.962-.967Q153.987,50.418,153.179,50.418ZM130.39,52.963c-.509,0-.893.352-1.142,1.051q.242,1.053.966,1.054h.089a.934.934,0,0,0,1.056-1.054v-.088C131.359,53.487,131.033,53.166,130.39,52.963Zm10.153,0c-.509,0-.893.352-1.142,1.051.16.7.483,1.054.965,1.054h.088a.935.935,0,0,0,1.058-1.054v-.088C141.512,53.487,141.186,53.166,140.543,52.963Zm15.179,0c-.762.177-1.142.553-1.142,1.138q.307.966.965.967h.177c.541,0,.858-.323.965-.967v-.175Q156.687,53.268,155.722,52.963Zm2.542,0c-.512,0-.892.352-1.142,1.051q.243,1.053.966,1.054h.089a.931.931,0,0,0,1.053-1.054v-.088C159.23,53.487,158.911,53.166,158.264,52.963Zm-25.42,0c-.7.2-1.053.553-1.053,1.05.15.7.468,1.053.969,1.053h.172q.813,0,.966-.965C133.811,53.341,133.459,52.964,132.844,52.964Zm2.547,0c-.7.2-1.05.553-1.05,1.05.142.7.465,1.053.962,1.053h.176q.811,0,.966-.965C136.357,53.341,136.009,52.964,135.391,52.964Zm2.454,0c-.7.2-1.049.553-1.049,1.05.142.7.464,1.053.961,1.053h.177q.813,0,.966-.965C138.812,53.341,138.464,52.964,137.845,52.964Zm5.155,0c-.7.2-1.053.553-1.053,1.05q.219,1.054.966,1.053h.179c.538,0,.861-.321.962-.965C143.97,53.341,143.615,52.964,143,52.964Zm10.087,0c-.7.2-1.05.553-1.05,1.05.143.7.465,1.053.962,1.053h.181c.536,0,.858-.321.961-.965-.088-.761-.439-1.138-1.054-1.138Z"/></svg>