<svg xmlns="http://www.w3.org/2000/svg" width="200" height="80" viewBox="0 0 200 80"><defs><style>.a{fill:#bdbdbd;}</style></defs><title>ArduinoLogo</title><path class="a" d="M140.917,31.4c0-10.707-9.035-19.4-20.111-19.4a18.861,18.861,0,0,0-3.087.227c-8.611,1.218-14.39,7.421-17.619,12.18-3.229-4.759-9.008-10.962-17.619-12.18A22.566,22.566,0,0,0,79.394,12c-11.1,0-20.111,8.7-20.111,19.4s9.036,19.4,20.111,19.4a19.45,19.45,0,0,0,3.116-.226c8.611-1.247,14.389-7.45,17.618-12.209,3.229,4.759,9.008,10.962,17.619,12.209a22.833,22.833,0,0,0,3.116.226c11.019,0,20.054-8.7,20.054-19.4M81.49,43.781a13.3,13.3,0,0,1-2.124.142c-7.308,0-13.229-5.637-13.229-12.52,0-6.911,5.949-12.52,13.257-12.52a17.826,17.826,0,0,1,2.124.142C89.648,20.186,94.605,28.2,96.3,31.4,94.576,34.632,89.591,42.62,81.49,43.781M103.9,31.4c1.671-3.2,6.656-11.217,14.786-12.378a17.826,17.826,0,0,1,2.124-.142c7.308,0,13.228,5.637,13.228,12.52,0,6.912-5.948,12.52-13.228,12.52a17.826,17.826,0,0,1-2.124-.142C110.552,42.62,105.567,34.6,103.9,31.4m-30.082-1.9h12.1v3.881h-12.1Zm48.323,3.909h4.079V29.505h-4.079V25.426h-3.909v4.079H114.15v3.909h4.078v4.079h3.909ZM64.948,56.585,61.435,67.83h2.833l.566-2.294h3.23l.623,2.294h2.946L68.064,56.585Zm.425,6.77,1.019-4.108L67.5,63.355Zm16.882-3.031c0-2.153-1.162-3.768-4.277-3.768H73.445V67.8h2.776V64.233h1.417l1.7,3.569h3.286l-2.181-4.108a3.574,3.574,0,0,0,1.813-3.37m-4.561,1.7H76.221V58.851h1.417c1.3,0,1.643.51,1.643,1.5,0,1.246-.624,1.671-1.587,1.671m10.481-5.438H84.493V67.83h3.682c4.759,0,5.58-3.059,5.58-5.722.028-3.54-1.36-5.523-5.58-5.523m.17,8.922H87.3V58.851h.821c2.493,0,2.72,1.161,2.72,3.371-.029,1.9-.2,3.285-2.493,3.285m13.681-2.067c0,1.7-.481,2.266-1.728,2.266-1.048,0-1.7-.425-1.7-2.3V56.556H95.823v7.365c0,3.4,2.464,4.051,4.362,4.051,1.983,0,4.532-.708,4.532-4.023V56.556h-2.663l-.028,6.884Zm5.155-4.561h2.89v6.628h-2.89V67.83h8.611V65.507h-2.917V58.879h2.917V56.585h-8.611Zm17.591,4.447-3.654-6.741h-3.031V67.83h2.634l-.028-7.195,3.852,7.2h2.8V56.585h-2.577Zm9.149-6.883c-3.4,0-4.7,2.493-4.7,5.892,0,3.711,1.473,5.665,4.73,5.665,3.626,0,4.816-2.549,4.816-5.778-.029-4.306-1.672-5.779-4.844-5.779m0,9.291c-1.615,0-1.756-1.133-1.756-3.4,0-2.748.255-3.626,1.756-3.626,1.643,0,1.869.765,1.869,3.513-.028,2.577-.254,3.512-1.869,3.512m3.172-50.42a1.771,1.771,0,1,1,3.541,0,1.766,1.766,0,0,1-1.784,1.813A1.8,1.8,0,0,1,137.093,15.314Zm3.23,0a1.494,1.494,0,0,0-1.473-1.529,1.422,1.422,0,0,0-1.445,1.529,1.454,1.454,0,0,0,1.445,1.53A1.429,1.429,0,0,0,140.323,15.314ZM138,14.181h.878c.68,0,.935.283.935.765a.648.648,0,0,1-.425.651l.425.85h-.623l-.312-.765h-.312v.765H138V14.181Zm.821,1.105c.255,0,.4-.085.4-.368,0-.255-.085-.34-.4-.34h-.283v.736Z"/></svg>