<svg xmlns="http://www.w3.org/2000/svg" width="200" height="80" viewBox="0 0 200 80"><defs><style>.a{fill:#bdbdbd;}</style></defs><title>BoschLogo</title><path class="a" d="M29.807,20A20,20,0,1,0,49.813,40.006v-.012A20,20,0,0,0,29.807,20Zm.012,37.5a17.5,17.5,0,1,1,17.5-17.493A17.5,17.5,0,0,1,29.819,57.5Zm8.145-29.342-1.975-1.408v7.6H24.049v-7.47l-1.923,1.247c-.286.166-6.388,4.185-6.388,11.7s6.079,11.94,6.336,12.123l1.975,1.414V45.787h11.94v7.418l1.918-1.219C38.165,51.82,44.3,47.8,44.3,40.28S38.222,28.34,37.964,28.157Zm-16.416,19.9a12.591,12.591,0,0,1-3.32-8.226,11.476,11.476,0,0,1,3.32-7.95Zm14.441-4.763H24.049V36.84h11.94Zm2.5,4.94V32.072a12.59,12.59,0,0,1,3.32,8.208A11.479,11.479,0,0,1,38.485,48.231Zm62.1-8.254c0-4.636,2.261-7.636,5.758-7.636s5.8,2.994,5.8,7.636-2.29,7.67-5.8,7.67-5.758-3.028-5.758-7.67m-6.153,0c0,8.14,4.791,13.612,11.917,13.612s11.918-5.472,11.918-13.612-4.791-13.612-11.918-13.612S94.433,31.837,94.433,39.977m26.9-5.506c0-4.843,3.841-8.1,9.565-8.1a12.125,12.125,0,0,1,9.342,3.938L136.4,34.121a7.612,7.612,0,0,0-5.386-2.381c-1.655,0-3.372.824-3.372,2.622s2.044,2.375,4.144,2.816l.922.177c4.287.9,8.14,2.176,8.14,7.825,0,5.547-5.026,8.409-9.989,8.409-5.81,0-8.586-2.267-10.693-4.745l3.944-3.87a8.42,8.42,0,0,0,6.675,3.3c2.226,0,3.72-1.122,3.72-2.782,0-1.866-1.551-2.393-4.842-3.085l-.922-.195c-3.406-.71-7.413-2.633-7.413-7.75m22.33,5.283c0-6.68,3.732-13.417,12.072-13.417,4.259,0,7.31,1.7,9.88,5.489L160.6,35.152a5.242,5.242,0,0,0-4.825-2.862c-2.937,0-5.913,2.57-5.913,7.481,0,5.375,3.165,7.825,6.108,7.825,2.438,0,3.646-1.133,4.791-2.959l5.048,3.434c-2.5,3.555-4.882,5.489-10.143,5.489-7.086,0-12.02-5.632-12.02-13.737m40.3-12.8h6.577V52.965h-6.577V42.776a.177.177,0,0,0-.177-.177H175.8a.178.178,0,0,0-.178.177V52.965H169.08V27.023h6.56v9.5a.178.178,0,0,0,.178.177h7.951a.177.177,0,0,0,.177-.177v-9.5M91.845,45.8c0,4.431-4.081,7.339-8.2,7.339H70.2V26.875H82.515c4.74,0,8.168,2.369,8.168,7.223a5.725,5.725,0,0,1-3.589,5.37A6.507,6.507,0,0,1,91.868,45.8M84.015,34.808a2.37,2.37,0,0,0-2.243-2.49,2.238,2.238,0,0,0-.259,0H76.7v4.894H81.37a2.467,2.467,0,0,0,2.618-2.307c0-.032,0-.064,0-.1m.847,10.252c0-1.517-1.145-2.564-3.469-2.564h-4.7v5.151h4.814c1.963,0,3.348-.7,3.348-2.6"/></svg>