<svg xmlns="http://www.w3.org/2000/svg" width="200" height="80" viewBox="0 0 200 80"><defs><style>.a{fill:#bdbdbd;}</style></defs><title>Digi-KeyLogo</title><path class="a" d="M100,16.068a101.514,101.514,0,0,1,20.956,2.113,70.162,70.162,0,0,1,16.823,5.659,33.981,33.981,0,0,1,10.714,7.889A12.83,12.83,0,0,1,151.932,40a12.83,12.83,0,0,1-3.439,8.271,33.981,33.981,0,0,1-10.714,7.889,70.162,70.162,0,0,1-16.823,5.659A101.514,101.514,0,0,1,100,63.932a101.514,101.514,0,0,1-20.956-2.113A70.147,70.147,0,0,1,62.221,56.16a33.981,33.981,0,0,1-10.714-7.889A12.83,12.83,0,0,1,48.068,40a12.83,12.83,0,0,1,3.439-8.271A33.981,33.981,0,0,1,62.221,23.84a70.147,70.147,0,0,1,16.823-5.659A101.514,101.514,0,0,1,100,16.068M100,12C69.072,12,44,24.536,44,40s25.072,28,56,28,56-12.536,56-28-25.072-28-56-28ZM88.9,54.367l.95-4.481h2.408l-.185.9H90.721l-.179.824h1.314l-.191.9H90.35l-.2.968h1.428l-.191.9Zm2.934,0,.95-4.481h1.051l-.758,3.585h1.284l-.191.9Zm2.706,0,.95-4.481H97.9l-.185.9H96.361l-.18.824H97.5l-.192.9H95.99l-.2.968h1.428l-.191.9Zm5.329-2.916.06-.287c.084-.382-.012-.579-.209-.579-.329-.006-.448.173-.508.466l-.478,2.217c-.053.251.018.4.293.4.358,0,.466-.371.526-.645l.084-.406h1.051l-.113.549a1.633,1.633,0,0,1-1.8,1.308c-.968,0-1.237-.513-1.04-1.428l.389-1.84a1.579,1.579,0,0,1,1.714-1.428c.9,0,1.357.383,1.16,1.3l-.078.376Zm1.667-1.565h2.725l-.185.9h-.849l-.764,3.585h-1.052l.765-3.585h-.825Zm3.239,4.481h-1.052l.95-4.481h1.536c.86,0,1.218.346,1.027,1.237a1.247,1.247,0,0,1-.771,1.021v.012a.481.481,0,0,1,.4.58c-.048.358-.2,1.129-.2,1.416a.33.33,0,0,0,.066.155l-.013.06h-1.147a.917.917,0,0,1-.006-.257c.066-.394.167-.765.2-1.04s-.018-.453-.258-.472h-.346Zm.549-2.576h.358c.3,0,.437-.28.49-.555.115-.532-.1-.556-.615-.544Zm4.8,1.148c-.215,1.009-.681,1.535-1.745,1.535s-1.32-.526-1.105-1.535l.388-1.823a1.6,1.6,0,0,1,1.715-1.338c.92,0,1.315.478,1.135,1.338Zm-.681-1.751c.059-.275.107-.6-.239-.6s-.448.328-.508.6l-.389,1.841c-.06.256-.095.639.245.639s.442-.383.5-.639Zm2.312.669-.012.012-.436,2.5h-1l.95-4.481h1.081l.281,2.5h.018l.43-2.5h1l-.95,4.481h-1.076Zm1.894,2.51.949-4.481h1.052l-.95,4.481Zm3.973-2.916.06-.287c.083-.382-.012-.579-.21-.579-.328-.006-.448.173-.508.466l-.478,2.217c-.053.251.019.4.293.4.359,0,.466-.371.526-.645l.084-.406h1.051l-.113.549a1.632,1.632,0,0,1-1.8,1.308c-.967,0-1.237-.513-1.039-1.428l.388-1.84a1.58,1.58,0,0,1,1.715-1.428c.9,0,1.356.383,1.159,1.3l-.078.376Zm2.091,1.416-.066.317c-.054.257-.018.484.317.484a.5.5,0,0,0,.447-.448c.079-.377-.2-.52-.441-.687a2.255,2.255,0,0,1-.67-.586,1.138,1.138,0,0,1-.113-.9,1.51,1.51,0,0,1,1.589-1.273c.915,0,1.255.61,1.028,1.452h-.968c.042-.263.131-.621-.209-.645a.4.4,0,0,0-.43.3.439.439,0,0,0,.2.55,5.659,5.659,0,0,1,.849.634,1.133,1.133,0,0,1,.161,1.069,1.56,1.56,0,0,1-1.638,1.338c-.961,0-1.255-.537-1.129-1.129l.1-.478Zm-55.8-9.842,2.257-11.2H64.531l-2.258,11.2Zm1.05-10.659h.55L63.48,42.487h-.549Zm26.278-.119L88.388,46.42h4.227l2.861-14.173Zm-18.729,0L69.659,46.42h4.227l2.861-14.173ZM96.109,37.3l-.939,4.652H99.4l.939-4.652Zm40.2-5.049-2.282,11.318h-2.746l2.281-11.318h-4.227l-2.491,12.336a1.954,1.954,0,0,0-.039.377,1.47,1.47,0,0,0,.317.937,1.5,1.5,0,0,0,1.175.524h5.155L132.444,51.4H129.7l.678-3.368h-4.231l-.692,3.425a1.834,1.834,0,0,0-.038.377,1.455,1.455,0,0,0,.318.936,1.474,1.474,0,0,0,1.174.517h7.447a2.493,2.493,0,0,0,2.325-1.938l3.857-19.106ZM82.649,43.025l1.5-7.445H82.5L81,43.025Zm.294-6.906h.549l-1.284,6.368h-.549Zm-2.612-3.873a2.492,2.492,0,0,0-2.325,1.94l-2.1,10.4a1.954,1.954,0,0,0-.039.377,1.47,1.47,0,0,0,.317.937,1.5,1.5,0,0,0,1.175.524h5.153l-1,4.984H78.763l.679-3.369H75.211l-.692,3.425a1.834,1.834,0,0,0-.038.377,1.454,1.454,0,0,0,.317.936,1.477,1.477,0,0,0,1.174.517h7.446a2.493,2.493,0,0,0,2.325-1.938L89.6,32.246Zm2.758,11.318H80.343l1.718-8.522h2.746ZM135.424,31.17l-2.281,11.317h-.549l2.281-11.317H128.45l-.285,1.411a2.406,2.406,0,0,0-.314-.5h0a2.541,2.541,0,0,0-1.986-.91h-7.449a3.642,3.642,0,0,0-3.39,2.843l-2.046,10.13-2.389-6.622,8.691-10.163h-7.8l-2.844,3.412.689-3.412H102.9l-1.789,8.862H95.773l1.789-8.862H91.137l-.77,3.814H80.331a3.481,3.481,0,0,0-2.5,1.129l1-4.943H72.408l-.276,1.369a2.381,2.381,0,0,0-.293-.459v0a2.576,2.576,0,0,0-2.014-.908H59.558L55.493,47.5H66.082a3.5,3.5,0,0,0,2.493-1.152L68.343,47.5h5.878l-.755,3.739a2.83,2.83,0,0,0-.062.6,2.488,2.488,0,0,0,2.568,2.53h7.446a3.566,3.566,0,0,0,3.38-2.8L87.62,47.5H93.5l.9-4.473h5.335l-.9,4.473h6.424l.8-3.963,1.351,3.963h6.784l-.137-.378a2.683,2.683,0,0,0,1.389.378h7.445a3.555,3.555,0,0,0,2.961-1.736,2.383,2.383,0,0,0,.829,1.2h-1.414l-.864,4.279a2.834,2.834,0,0,0-.062.6,2.488,2.488,0,0,0,2.569,2.53h7.447a3.567,3.567,0,0,0,3.381-2.8l4.116-20.395ZM91.578,27.9H96.9l-.661,3.275H90.917Zm-18.729,0h5.326l-.661,3.275H72.188ZM66.082,46.959H56.151L60,27.9h9.825a2.011,2.011,0,0,1,1.6.71h0a1.963,1.963,0,0,1,.433,1.26,2.451,2.451,0,0,1-.05.482L68.937,44.565A3.069,3.069,0,0,1,66.082,46.959Zm2.919,0,3.078-15.25h5.326l-3.078,15.25ZM75.05,46.1a2.519,2.519,0,0,0,.306.485,2.426,2.426,0,0,0,.389.376h-.869Zm11.22,5.362a3.011,3.011,0,0,1-2.852,2.369H75.972a1.95,1.95,0,0,1-2.03-1.991,2.371,2.371,0,0,1,.05-.489L74.77,47.5H80.1l-.679,3.368h1.648l.788-3.906H77.361a2.043,2.043,0,0,1-1.59-.72,2.009,2.009,0,0,1-.441-1.28,2.491,2.491,0,0,1,.05-.482l2.1-10.4a3.016,3.016,0,0,1,2.853-2.372h9.927ZM80.649,47.5H81.2l-.57,2.83h-.55Zm12.407-.539H87.73l3.078-15.25h5.326Zm1.456-4.472,1.156-5.729H101l-1.157,5.729Zm13.28,4.472-1.869-5.484-1.108,5.484H99.49L103.338,27.9h5.326l-.98,4.851,4.045-4.851h6.384l-8.135,9.512,3.446,9.551Zm18.373-4.471h-6.971l-.109.539h6.973l-.316,1.561a3.013,3.013,0,0,1-2.854,2.372h-7.445a2.009,2.009,0,0,1-1.59-.713,2.075,2.075,0,0,1-.392-1.762l2.093-10.366a3.08,3.08,0,0,1,2.862-2.411h7.449a1.976,1.976,0,0,1,1.569.713h0a2.079,2.079,0,0,1,.451,1.316,2.393,2.393,0,0,1-.05.482s-1.331,6.571-1.584,7.837Zm11.042,8.972a3.013,3.013,0,0,1-2.853,2.369h-7.447a1.948,1.948,0,0,1-2.03-1.991,2.309,2.309,0,0,1,.05-.488l.778-3.852h5.329l-.679,3.367H132l.788-3.9h-4.5a2.044,2.044,0,0,1-1.59-.72,2.008,2.008,0,0,1-.44-1.28,2.487,2.487,0,0,1,.049-.482l2.578-12.769h5.326l-2.281,11.317h1.648l2.281-11.317h5.329ZM131.584,47.5h.549l-.571,2.829h-.549ZM92.018,28.433l-.443,2.2H95.8l.444-2.2Zm-18.729,0-.443,2.2h4.227l.444-2.2Zm52.576,3.812h-7.449a2.553,2.553,0,0,0-2.334,1.979l-2.093,10.365a1.549,1.549,0,0,0,.28,1.314,1.484,1.484,0,0,0,1.174.517h7.445a2.494,2.494,0,0,0,2.326-1.94l.186-.916h-6.973l.326-1.616h6.97c.253-1.266,1.584-7.836,1.584-7.836a1.962,1.962,0,0,0,.039-.377,1.532,1.532,0,0,0-.329-.976A1.449,1.449,0,0,0,125.865,32.245Zm-3.8,6.906h-2.747l.828-4.109h2.747Zm-.441-.539.611-3.032h-1.648l-.611,3.032Zm-.6-2.493h.549l-.394,1.955h-.549Zm-4.083-7.686h-4.963l-5.245,6.292,1.27-6.292h-4.228l-3.63,17.987h4.227l1.414-7.006,2.389,7.006h4.479L109.366,37.3Zm-47.12,0H60.44L56.809,46.42h9.273a2.541,2.541,0,0,0,2.327-1.961l2.868-14.218a1.884,1.884,0,0,0,.04-.375,1.432,1.432,0,0,0-.312-.92A1.49,1.49,0,0,0,69.824,28.433ZM64.362,43.564H61.615L64.09,31.289h2.746Zm79.157-11.082a.963.963,0,1,1,.964,1.023A.975.975,0,0,1,143.519,32.482Zm.964,1.227a1.224,1.224,0,1,0-1.2-1.227A1.2,1.2,0,0,0,144.483,33.709Zm-.25-1.13h.237l.361.612h.231l-.388-.622a.361.361,0,0,0,.354-.388c0-.278-.16-.4-.483-.4h-.519v1.412h.207Zm0-.181V31.96h.281c.144,0,.3.033.3.208,0,.217-.157.23-.332.23Z"/></svg>