<svg xmlns="http://www.w3.org/2000/svg" width="200" height="80" viewBox="0 0 200 80"><defs><style>.a{fill:#bdbdbd;}</style></defs><title>EspressifLogo</title><path class="a" d="M177.425,35.056a3.788,3.788,0,0,1,.3-1.382A5.04,5.04,0,0,1,178.74,32.3a6.146,6.146,0,0,1,4.452-1.641,8.294,8.294,0,0,1,5.769,2.56.5.5,0,1,1-.718.694,7.293,7.293,0,0,0-5.068-2.255,5.2,5.2,0,0,0-3.739,1.36,4.022,4.022,0,0,0-.8,1.077,2.866,2.866,0,0,0-.215,1.045v4.081h9.6a.5.5,0,1,1,0,1h-9.6v8.633a.5.5,0,0,1-1,0V40.215h-1.9a.5.5,0,1,1,0-1h1.9Zm-7.2,13.786V31.158a.505.505,0,1,0-1.01,0V48.842a.5.5,0,0,0,1.01,0Zm-13.655-9.511c-3.649-.469-5.826-1.933-5.826-3.933a2.91,2.91,0,0,1,.947-2.067,6.983,6.983,0,0,1,4.953-1.662,7.77,7.77,0,0,1,4.48,1.339.508.508,0,0,0,.607-.814,8.792,8.792,0,0,0-5.078-1.541,7.949,7.949,0,0,0-5.677,1.956,3.9,3.9,0,0,0-1.247,2.789c0,2.52,2.427,4.343,6.513,4.915l.027,0c4.626.547,6.328,1.655,6.284,4.06a3.416,3.416,0,0,1-1.232,2.422,6.764,6.764,0,0,1-5.107,1.5,9.81,9.81,0,0,1-5.532-1.931.508.508,0,1,0-.647.783,10.78,10.78,0,0,0,6.1,2.16c.261.022.521.032.778.032a7.559,7.559,0,0,0,5.093-1.8A4.409,4.409,0,0,0,163.57,44.4C163.637,40.75,160.269,39.786,156.572,39.331Zm-17.755,0c-3.649-.469-5.825-1.933-5.825-3.933a2.909,2.909,0,0,1,.946-2.067,6.985,6.985,0,0,1,4.953-1.662,7.765,7.765,0,0,1,4.48,1.339.508.508,0,1,0,.607-.814,8.792,8.792,0,0,0-5.078-1.541,7.949,7.949,0,0,0-5.677,1.956,3.9,3.9,0,0,0-1.247,2.789c0,2.52,2.427,4.343,6.513,4.915l.027,0c4.626.547,6.328,1.655,6.284,4.06a3.416,3.416,0,0,1-1.232,2.422,6.764,6.764,0,0,1-5.107,1.5,9.81,9.81,0,0,1-5.532-1.931.508.508,0,1,0-.646.783,10.774,10.774,0,0,0,6.095,2.16c.262.022.521.032.778.032a7.559,7.559,0,0,0,5.093-1.8,4.414,4.414,0,0,0,1.567-3.156C145.882,40.75,142.514,39.786,138.817,39.331ZM126.784,40a.511.511,0,0,0-.511-.511H115.7c.226-4.354,3.308-7.814,7.064-7.814a6.144,6.144,0,0,1,3.031.8.511.511,0,0,0,.5-.892,7.156,7.156,0,0,0-3.53-.931c-4.317,0-7.856,3.919-8.087,8.836H112.73a.511.511,0,0,0,0,1.022h1.951c.231,4.917,3.77,8.836,8.087,8.836a7.168,7.168,0,0,0,3.533-.932.511.511,0,0,0-.5-.892,6.15,6.15,0,0,1-3.033.8c-3.756,0-6.838-3.46-7.064-7.814h10.569A.511.511,0,0,0,126.784,40ZM97.1,40.192v7.4A1.833,1.833,0,0,1,96,49.312a.514.514,0,0,1-.686-.075.46.46,0,0,1,.011-.682,2.154,2.154,0,0,0,.767-1.8V30.592h7.326a4.935,4.935,0,0,1,4.938,4.8,4.832,4.832,0,0,1-2.476,4.138c-.635.449-.712.521-.073.989a6.182,6.182,0,0,1,2.372,4.936c.046.67,0,1.346.017,2.018.011.463.129.845.737.754.376-.056.7.046.7.494,0,.411-.344.56-.672.647a1.4,1.4,0,0,1-1.671-1.147,8.513,8.513,0,0,1-.07-1.508,12.959,12.959,0,0,0-.192-2.381,4.724,4.724,0,0,0-3.714-3.856,10.378,10.378,0,0,0-2.011-.284Zm0-1.011h6.316a3.791,3.791,0,1,0,0-7.578H97.1ZM77.665,30.653h8.084a4.82,4.82,0,1,1,0,9.637H78.675v8.552a.5.5,0,1,1-1.01,0Zm11.991,4.8a3.9,3.9,0,0,0-3.907-3.79H78.675V39.28h7.074A3.92,3.92,0,0,0,89.656,35.453ZM65.285,39.331c-3.65-.469-5.826-1.933-5.826-3.933a2.91,2.91,0,0,1,.947-2.067,6.983,6.983,0,0,1,4.953-1.662,7.77,7.77,0,0,1,4.48,1.339.508.508,0,0,0,.607-.814,8.792,8.792,0,0,0-5.078-1.541,7.949,7.949,0,0,0-5.677,1.956A3.9,3.9,0,0,0,58.444,35.4c0,2.52,2.427,4.343,6.513,4.915l.027,0c4.626.547,6.328,1.655,6.284,4.06A3.416,3.416,0,0,1,70.036,46.8a6.764,6.764,0,0,1-5.107,1.5A9.807,9.807,0,0,1,59.4,46.372a.508.508,0,1,0-.647.783,10.78,10.78,0,0,0,6.1,2.16c.261.022.521.032.778.032a7.561,7.561,0,0,0,5.093-1.8A4.409,4.409,0,0,0,72.283,44.4C72.35,40.75,68.982,39.786,65.285,39.331ZM53.228,40a.511.511,0,0,0-.511-.511H42.149c.225-4.354,3.307-7.814,7.063-7.814a6.144,6.144,0,0,1,3.031.8.511.511,0,0,0,.5-.892,7.156,7.156,0,0,0-3.53-.931c-4.317,0-7.856,3.919-8.087,8.836H39.174a.511.511,0,1,0,0,1.022h1.951c.231,4.917,3.77,8.836,8.087,8.836a7.165,7.165,0,0,0,3.533-.932.511.511,0,1,0-.5-.892,6.147,6.147,0,0,1-3.033.8c-3.756,0-6.838-3.46-7.063-7.814H52.717A.511.511,0,0,0,53.228,40ZM23.088,51.985a17.806,17.806,0,0,0,1.942-.028,13.009,13.009,0,0,0,7.449-3.2c.184-.161.389-.351.457-.421l.123-.128-.334-.335-.335-.335-.3.278a12.015,12.015,0,0,1-7.365,3.208,15.617,15.617,0,0,1-2.177-.043,12.076,12.076,0,0,1-10.536-9.948A10.324,10.324,0,0,1,11.851,39a10.827,10.827,0,0,1,.29-2.675,12.193,12.193,0,0,1,2.926-5.533,2.79,2.79,0,0,0,.266-.3,4.945,4.945,0,0,0-.658-.644,1.2,1.2,0,0,0-.251.227,13.031,13.031,0,0,0-3.485,7.77,16.3,16.3,0,0,0,0,2.318,13.174,13.174,0,0,0,1.68,5.336,15.332,15.332,0,0,0,1.132,1.653A15.654,15.654,0,0,0,15.4,48.852a13,13,0,0,0,7.69,3.133Zm-.662-2.1c.2.028.386.052.42.053.077,0,.145-.1.408-.617a7.221,7.221,0,0,0-5.9-10.441c-.489-.036-.636-.077-.78-.217a.565.565,0,0,1-.211-.511.536.536,0,0,1,.076-.351c.2-.339.479-.406,1.3-.311a8.664,8.664,0,0,1,7.635,7.556,11.879,11.879,0,0,1,.014,1.958,9.426,9.426,0,0,1-.414,1.862.777.777,0,0,0-.064.252c.011.01.351.143.756.3l.736.277.269-.069a10.378,10.378,0,0,0,1.849-.681,10.366,10.366,0,0,0,.311-1.77,16.34,16.34,0,0,0-.013-2.3,12.356,12.356,0,0,0-1.216-4.2,12.07,12.07,0,0,0-9.436-6.609,8.447,8.447,0,0,0-1.859,0,4.178,4.178,0,0,0-3.1,2.509A6.586,6.586,0,0,0,12.93,38.4a3.709,3.709,0,0,0,.448,1.666,4,4,0,0,0,1.8,1.781,4.066,4.066,0,0,0,1.743.454,4,4,0,0,1,1.15.222,3.816,3.816,0,0,1,2.454,2.923,4.514,4.514,0,0,1,0,1.261,4.056,4.056,0,0,1-.7,1.628c-.139.189-.169.246-.142.272l.537.473.5.441.311.085a11.828,11.828,0,0,0,1.384.279ZM16.483,47.96a2.627,2.627,0,0,0,.819-.044,1.925,1.925,0,0,0,1.182-.977,1.888,1.888,0,0,0-1.041-2.627,1.406,1.406,0,0,0-.554-.1,1.7,1.7,0,0,0-.949.191,1.945,1.945,0,0,0-.978,1.236,2.266,2.266,0,0,0,.011.917,1.891,1.891,0,0,0,1.51,1.4Zm14.346-1.681c.3.008.711.014.908.013h.356l.189-.219A8.691,8.691,0,0,0,33.6,44.053c0-.041-.032-.28-.071-.531A16.929,16.929,0,0,0,19.005,29.29l-.227-.03-.228.128c-.323.182-.762.461-1.073.683a7.963,7.963,0,0,0-.875.713c-.009.02-.01.434,0,.919l.014.883.633.03a13.247,13.247,0,0,1,2.216.261,13.485,13.485,0,0,1,10.69,11.479c.057.452.109,1.155.119,1.618l.006.29.551.015Zm3.264-6.215.025.061.325-.11c.179-.06.344-.121.367-.135s.041-.145.041-.834a10.1,10.1,0,0,0-.321-2.733,11.015,11.015,0,0,0-6.588-7.53,11.2,11.2,0,0,0-4.4-.775c-.587.025-.526-.009-.658.363a3.531,3.531,0,0,0-.113.353,1.246,1.246,0,0,0,.351.165,18.347,18.347,0,0,1,9.51,8,19.87,19.87,0,0,1,1.309,2.771c.07.19.138.372.152.405Z"/></svg>