<svg xmlns="http://www.w3.org/2000/svg" width="200" height="80" viewBox="0 0 200 80"><defs><style>.a{fill:#bdbdbd;}</style></defs><title>ExarLogo</title><path class="a" d="M109.624,28.485h8.413v23.03h-5.862V46.144h-9.459l4.113-5.326h5.346V32.234L99.369,48.7l2.2,2.815H94.1l-6.333-8.107-6.333,8.107H58.083V30.628a2.142,2.142,0,0,1,2.142-2.143H74.686v5.356H63.439v3.481h9.64v5.356h-9.64v3.481h14.71l5.883-7.53L76.107,28.485h7.468l4.191,5.365,4.191-5.365h7.468L91.5,38.629l4.25,5.44,10.907-14.126A3.751,3.751,0,0,1,109.624,28.485ZM142.8,51.515h-6.984l-4.463-8.034h-4.178v8.034H121.28V30.628a2.142,2.142,0,0,1,2.142-2.143h16.6v9.641a5.346,5.346,0,0,1-2.248,4.356Zm-8.127-17.674h-7.5v4.82h5.892a1.606,1.606,0,0,0,1.606-1.607Zm-2.494,32.611c9.638-1.794,19.2-4.367,27.988-8.8,4.905-2.473,9.41-5.5,12.638-10.082a20.921,20.921,0,0,0,1.216-1.939,16.069,16.069,0,0,0,2.111-8.093,14.25,14.25,0,0,0-2.535-7.676,26.7,26.7,0,0,0-7.013-6.524,39.077,39.077,0,0,0-9.112-4.469,109.642,109.642,0,0,0-21.185-5.354A149.233,149.233,0,0,0,114.314,12c-7.4,0-14.785.415-22.155,1-5.83.466-11.65,1.1-17.428,2.009a129.673,129.673,0,0,0-29.208,7.77,58.789,58.789,0,0,0-12.3,6.733c-3.518,2.567-6.846,5.647-8.472,9.785,5.9-7.591,14.06-11.822,22.816-14.788,31.014-10.506,63.537-10.592,87.154-6.828,8.674,1.382,24.3,6.439,31.181,12.243a16.275,16.275,0,0,1,4.848,6.439c1.667,4.339.273,8.835-2.722,12.217a34.336,34.336,0,0,1-6.255,5.295,62.5,62.5,0,0,1-7.267,4.279c-9.691,4.918-20.27,7.241-30.747,9.645C126.573,67.405,129.377,66.973,132.175,66.452ZM27.322,39.108a11.11,11.11,0,0,0-1.357,9.514c1.326,3.968,5.167,6.765,8.613,8.82,6.269,3.739,13.261,5.636,20.349,7.089,20.284,4.156,40.723,4.255,61.213,2,5.083-.56,11.537-1.856,16.591-2.673-2.053-.067-5.066.045-6.762.156-6.718.442-13.477.827-20.209.966a212.766,212.766,0,0,1-35.777-2.072A162.626,162.626,0,0,1,53.3,59.6a58.638,58.638,0,0,1-15.261-6.023c-8.266-4.884-10.609-11.433-4.182-20.537A26.977,26.977,0,0,0,27.322,39.108Z"/></svg>