<svg xmlns="http://www.w3.org/2000/svg" width="200" height="80" viewBox="0 0 200 80"><defs><style>.a{fill:#bdbdbd;}</style></defs><title>IntelLogo</title><path class="a" d="M97.876,61.927c-16.781,1.55-34.271-.9-36.725-14.007-1.2-6.465,1.753-13.338,5.662-17.58V28.08c-7.026,6.154-10.853,13.966-8.657,23.193,2.806,11.833,17.815,18.552,40.727,16.293,9.069-.881,20.934-3.8,29.184-8.328V52.823C120.58,57.282,108.2,60.969,97.876,61.927Zm44.207-34.018C138.1,8.48,100.37,7.242,76.044,22.035v1.636c24.3-12.475,58.746-12.4,61.909,5.489,1.053,5.924-2.282,12.091-8.241,15.643v4.658c7.156-2.63,14.512-11.133,12.375-21.552Zm-15.372,21.38c-3.289-.321-4.4-2.318-4.4-4.613V25.094h4.4Zm-52.389.362c-3.3-.312-4.41-2.309-4.41-4.613v-12.8h4.406Zm-4.41-23.974h4.4v4.17h-4.4Zm30.761,23.77a4.7,4.7,0,0,1-5.07-4.925V27.534h4.36v4.7h3.285v3.524H99.963v8.508c0,.994.452,1.55,1.509,1.55h1.776v3.614h-2.575m8.024-7.224a3.624,3.624,0,0,0,3.868,3.872,4.932,4.932,0,0,0,4.007-1.64L119.283,47a8.608,8.608,0,0,1-6.732,2.747c-4.175,0-8.173-2.259-8.173-8.919,0-5.679,3.5-8.887,8.078-8.887,4.659,0,7.333,3.759,7.333,8.688v1.573H108.72m3.546-6.656a3.348,3.348,0,0,0-3.126,1.807,4.521,4.521,0,0,0-.42,1.876h6.723c-.109-1.876-.958-3.683-3.2-3.683Zm-29.707.208V49.493H78.194V32.242h8.987c3.832,0,5.137,2.7,5.137,5.151v12.1H87.972V37.415c0-1.025-.529-1.658-1.808-1.658Zm48.888-7.175a1.746,1.746,0,1,1,.022,0Zm0-3.208a1.455,1.455,0,1,0,1.463,1.459,1.472,1.472,0,0,0-1.463-1.464Zm.777,2.508H131.9a.072.072,0,0,1-.067-.046l-.452-.75a.137.137,0,0,0-.063-.036h-.2v.755a.076.076,0,0,1-.072.081h-.294a.081.081,0,0,1-.072-.081v-1.9c0-.108.036-.158.135-.172s.385-.027.538-.027c.547,0,.868.163.868.669v.036a.528.528,0,0,1-.393.56l.451.787a.123.123,0,0,1,0,.054A.063.063,0,0,1,132.224,27.882Zm-.425-1.5c0-.213-.131-.281-.411-.281h-.28v.6h.28c.28,0,.411-.1.411-.293Z"/></svg>