<svg xmlns="http://www.w3.org/2000/svg" width="200" height="80" viewBox="0 0 200 80"><defs><style>.a{fill:#bdbdbd;}</style></defs><title>NXPSemiconductorsLogo</title><path class="a" d="M111.375,40l12.278,20-12.277,0H109.1l-8.29-13.3L92.523,60H77.974L90.253,40,77.974,20H92.523l8.291,13.3L109.1,20h14.55Zm47.341-6.328v4.7c0,5.954-2.607,12.79-11.316,12.79H126.653l0,8.836h0L114.375,40l12.279-20h17.528C155.887,20,158.716,25.843,158.716,33.672Zm-11.467.5c0-2.7-1.332-4.246-5.049-4.246H126.669V41.239h16.586c2.885,0,3.994-2.729,3.994-5.1ZM87.253,40,74.974,20h-.006V44.172L54.161,20h-12.3V60l12.306,0,0-24.169L74.974,60Z"/></svg>