<svg xmlns="http://www.w3.org/2000/svg" width="200" height="80" viewBox="0 0 200 80"><defs><style>.a{fill:#bdbdbd;}</style></defs><title>SeeedStudioLogo</title><path class="a" d="M74.426,47.391a10.084,10.084,0,0,0,6.639,2.753c2.55,0,3.846-.93,3.846-2.39,0-1.7-2.064-2.308-4.454-2.832-3.359-.729-7.368-1.622-7.368-5.993,0-3.2,2.753-5.951,7.693-5.951a11.181,11.181,0,0,1,7.612,2.753l-1.782,3a7.882,7.882,0,0,0-5.791-2.35c-2.225,0-3.643.811-3.643,2.189,0,1.5,1.944,2.024,4.252,2.548,3.4.729,7.57,1.7,7.57,6.317,0,3.441-2.874,6.072-8.138,6.072a11.891,11.891,0,0,1-8.38-3.036Zm27.582-14.413c5.871,0,9.636,4.493,9.636,10.648v1.012h-15.1a5.924,5.924,0,0,0,6.236,5.384,8.268,8.268,0,0,0,5.546-2.146l1.944,2.8a11.4,11.4,0,0,1-7.936,2.832A9.83,9.83,0,0,1,92.088,43.221C92.088,37.554,96.219,32.978,102.008,32.978ZM96.5,41.642h11.013a5.231,5.231,0,0,0-5.507-5.183A5.4,5.4,0,0,0,96.5,41.642Zm28.07-8.664c5.872,0,9.637,4.493,9.637,10.648v1.012h-15.1a5.925,5.925,0,0,0,6.236,5.384,8.273,8.273,0,0,0,5.547-2.146l1.943,2.8A11.394,11.394,0,0,1,124.9,53.5a9.83,9.83,0,0,1-10.245-10.282C114.652,37.554,118.783,32.978,124.572,32.978Zm-5.505,8.664h11.012a5.23,5.23,0,0,0-5.507-5.183A5.392,5.392,0,0,0,119.067,41.642Zm28.07-8.664c5.871,0,9.636,4.493,9.636,10.648v1.012h-15.1a5.924,5.924,0,0,0,6.236,5.384,8.268,8.268,0,0,0,5.546-2.146l1.944,2.8a11.4,11.4,0,0,1-7.936,2.832,9.83,9.83,0,0,1-10.244-10.282C137.217,37.554,141.348,32.978,147.137,32.978Zm-5.506,8.664h11.013a5.231,5.231,0,0,0-5.507-5.183A5.4,5.4,0,0,0,141.631,41.642Zm36.348-12.874v8.145a10.263,10.263,0,1,0,0,12.655V53.5h4.22V26.5Zm-8.017,20.147a5.675,5.675,0,1,1,5.674-5.675A5.675,5.675,0,0,1,169.962,48.915ZM27.027,38.132A49.978,49.978,0,0,1,31.845,16c-6.464,4.143-10.89,12.489-10.89,22.132s4.426,17.989,10.89,22.132A49.972,49.972,0,0,1,27.027,38.132Zm10.68,22.132C44.171,56.121,48.6,47.775,48.6,38.132S44.171,20.143,37.707,16a49.978,49.978,0,0,1,4.817,22.132A49.972,49.972,0,0,1,37.707,60.264Zm-21.1-13.022A49.969,49.969,0,0,1,9.712,25.666c-3.526,6.82-3.186,16.261,1.635,24.612S24.175,63.644,31.844,64A49.98,49.98,0,0,1,16.606,47.242ZM37.708,64c7.669-.356,15.675-5.371,20.5-13.722s5.161-17.792,1.635-24.612a50,50,0,0,1-6.894,21.576A49.98,49.98,0,0,1,37.708,64ZM187.143,26.979a2.5,2.5,0,0,0-.682,1.646c0,.633.23.954.592.954.421,0,.573-.512.7-1.1.18-.834.4-1.827,1.486-1.827.793,0,1.475.682,1.475,1.907a2.774,2.774,0,0,1-.682,1.887L189.292,30a1.955,1.955,0,0,0,.582-1.435c0-.552-.2-.9-.542-.9-.372,0-.5.482-.632,1.054-.181.844-.422,1.878-1.567,1.878-.853,0-1.505-.713-1.505-2.018a2.946,2.946,0,0,1,.753-2.078Zm-.271,4.891h2.8v-.8h.924v.8h1.325v1.055H190.6v.983h-.924v-.983h-2.54c-.331,0-.572.16-.572.461a.682.682,0,0,0,.171.473l-.794.25a1.393,1.393,0,0,1-.31-.994A1.118,1.118,0,0,1,186.872,31.87Zm-.482,6.267a2.325,2.325,0,0,1-.762-1.717,1.376,1.376,0,0,1,1.536-1.556H190.6v1.054h-3.052c-.753,0-.984.381-.984.974a1.611,1.611,0,0,0,.633,1.245h3.4v1.054h-4.849V38.137Zm.021,5.836a1.965,1.965,0,0,1-.783-1.557c0-1.245.943-2.158,2.54-2.158,1.566,0,2.549.9,2.549,2.158a1.947,1.947,0,0,1-.793,1.557h2.52v1.053h-6.7V43.973Zm2.72,0a1.592,1.592,0,0,0,.653-1.255,1.634,1.634,0,0,0-3.223,0,1.583,1.583,0,0,0,.643,1.255Zm2.861,2.291a.658.658,0,0,1,.653.653.653.653,0,1,1-1.305,0A.658.658,0,0,1,191.992,46.264ZM190.6,46.4v1.054h-4.849V46.4Zm-2.42,2.12A2.495,2.495,0,1,1,185.628,51,2.426,2.426,0,0,1,188.177,48.515Zm0,3.895A1.415,1.415,0,1,0,186.561,51,1.456,1.456,0,0,0,188.177,52.41Z"/></svg>