<svg xmlns="http://www.w3.org/2000/svg" width="200" height="80" viewBox="0 0 200 80"><defs><style>.a{fill:#bdbdbd;}</style></defs><title>SemtechLogo</title><path class="a" d="M14.282,26.255c.143-.57.713-1.994,4.131-5.127C20.122,19.561,24.68,17.139,25.82,16H37.926V38.22a7.636,7.636,0,0,0-5.7-6.125c-3.988-1.424-9.685-1.424-13.246-1.852-1.994-.142-5.555-.712-4.7-3.988M26.247,48.047c4.985-5.27,3.418-10.54-4.273-11.109-2.849-.285-6.694-.712-8.546-.855-.427,0-3.988,0-5.27-1.994V64H8.3c4.131-2.564,16.238-14.243,17.947-15.953M23.826,16H8.3V30.528a25.863,25.863,0,0,1,5.128-7.264A43.985,43.985,0,0,1,23.826,16M37.784,41.923a27.459,27.459,0,0,1-4.273,10.113A66.37,66.37,0,0,1,22.686,64H37.642Zm8.142.277c0,2.12,1.188,4.24,8.65,4.07,4.155,0,9.328-.593,9.328-3.9,0-2.29-2.714-3.053-6.106-3.477l-2.459-.339c-1.95-.255-3.646-.509-3.646-1.272,0-.679,1.017-1.188,3.392-1.188,1.611,0,3.137.17,3.307,1.357h5.173c-.17-2.374-2.12-3.731-8.819-3.731-4.24,0-8.4,1.1-8.4,3.986,0,2.289,3.138,3.052,6.191,3.392l2.629.339c2.119.339,3.391.593,3.391,1.357,0,.593-.508,1.272-3.646,1.272-2.544,0-3.561-.34-3.646-1.866ZM65.6,46.1H81.627V43.642H70.942V41.267h9.922V38.808H70.942V36.6h10.43V34.144H65.6Zm18.062,0h4.155V36.349H87.9L93.5,46.1h5.088l5.6-9.752h.085V46.1h4.579V34.144h-7.292l-5.258,8.9-5-8.9H83.662Zm34,0h5.343V36.6h7.038V34.144h-19.5V36.6h7.123ZM132,46.1h16.027V43.642H137.34V41.267h9.921V38.808H137.34V36.6h10.43V34.144H132Zm38.33-8.141c-.085-3.138-4.749-4.24-9.583-4.24-6.784,0-11.193,1.866-11.193,6.275s4.579,6.275,10.261,6.275,10.26-.848,10.515-4.324H164.56c-.169,1.526-2.035,1.95-4.155,1.95-3.731,0-5.173-1.781-5.173-3.9s1.781-3.731,5.343-3.731c2.035,0,3.816.424,4.07,1.781Zm1.441,8.141h5.343V41.352h9.073V46.1h5.342V34.144h-5.342v4.749h-9.073V34.144h-5.343Z"/></svg>