<svg xmlns="http://www.w3.org/2000/svg" width="200" height="80" viewBox="0 0 200 80"><defs><style>.a{fill:#bdbdbd;}</style></defs><title>SigfoxLogo</title><path class="a" d="M95.916,44.836a4.52,4.52,0,0,0,1.779-.243.948.948,0,0,0,.521-.952,1.165,1.165,0,0,0-.674-.963,12.879,12.879,0,0,0-2.051-.923,20.466,20.466,0,0,1-1.942-.827A5.709,5.709,0,0,1,92.065,39.9a4.129,4.129,0,0,1-.952-1.427,5.283,5.283,0,0,1-.34-1.994,4.3,4.3,0,0,1,1.7-3.585,7.361,7.361,0,0,1,4.628-1.32,14.791,14.791,0,0,1,2.832.261,13.142,13.142,0,0,1,2.146.566l-.8,3.551a16.84,16.84,0,0,0-1.733-.492,9.473,9.473,0,0,0-2.1-.216q-2.147,0-2.147,1.2a1.24,1.24,0,0,0,.091.493,1.036,1.036,0,0,0,.368.414,5.244,5.244,0,0,0,.753.43q.477.232,1.213.51a18.722,18.722,0,0,1,2.48,1.1,5.918,5.918,0,0,1,1.547,1.166,3.614,3.614,0,0,1,.8,1.394,6.135,6.135,0,0,1,.232,1.773A4.081,4.081,0,0,1,101,47.328a9.106,9.106,0,0,1-5.109,1.224,14.354,14.354,0,0,1-5.545-.98l.764-3.7a15.011,15.011,0,0,0,2.4.719A11.584,11.584,0,0,0,95.916,44.836Zm14.613-17.49a2.506,2.506,0,0,1-.81,1.949,2.908,2.908,0,0,1-3.829,0,2.818,2.818,0,0,1,0-3.954,2.905,2.905,0,0,1,3.829,0A2.508,2.508,0,0,1,110.529,27.346Zm-.43,20.77h-4.566V32H110.1Zm17.586-2.022q0,3.965-2,5.868t-6.23,1.914a16.843,16.843,0,0,1-2.94-.261,18.27,18.27,0,0,1-2.724-.691l.815-3.806a12.766,12.766,0,0,0,4.945.918,3.726,3.726,0,0,0,2.775-.855,3.08,3.08,0,0,0,.81-2.2v-.566a7.31,7.31,0,0,1-1.518.5,8.009,8.009,0,0,1-1.7.17,6.457,6.457,0,0,1-5.1-1.977,8.12,8.12,0,0,1-1.779-5.528,9.041,9.041,0,0,1,.567-3.234,6.865,6.865,0,0,1,1.563-2.52,7.187,7.187,0,0,1,2.588-1.609,9.946,9.946,0,0,1,3.461-.566q.826,0,1.7.079t1.733.2q.855.125,1.637.289t1.393.351Zm-10.019-6.559q0,3.828,3.092,3.829a4.573,4.573,0,0,0,1.32-.182,4.985,4.985,0,0,0,1.042-.43V35.463q-.341-.063-.8-.108t-1.059-.045a3.143,3.143,0,0,0-2.7,1.2A4.938,4.938,0,0,0,117.666,39.535Zm20.679-15.191a10,10,0,0,1,2.356.261,11.513,11.513,0,0,1,1.654.5l-.884,3.619a5.97,5.97,0,0,0-1.331-.413,7.079,7.079,0,0,0-1.331-.136,3.717,3.717,0,0,0-1.393.232,2.149,2.149,0,0,0-.89.629,2.415,2.415,0,0,0-.458.951,4.914,4.914,0,0,0-.136,1.2v.8H141.6v3.8h-5.664V48.116h-4.565V31.124a6.871,6.871,0,0,1,1.761-4.962A6.877,6.877,0,0,1,138.345,24.344ZM158.5,40.028a10.464,10.464,0,0,1-.566,3.477,7.541,7.541,0,0,1-1.558,2.7,7.168,7.168,0,0,1-2.5,1.734,8.358,8.358,0,0,1-3.28.617,8.259,8.259,0,0,1-3.234-.612,7.156,7.156,0,0,1-2.5-1.733,7.937,7.937,0,0,1-1.625-2.7,9.968,9.968,0,0,1-.567-3.478,9.63,9.63,0,0,1,.595-3.46,7.851,7.851,0,0,1,1.654-2.668,7.43,7.43,0,0,1,2.509-1.7,8.367,8.367,0,0,1,6.366-.034,7.258,7.258,0,0,1,2.5,1.7,7.807,7.807,0,0,1,1.626,2.668A9.844,9.844,0,0,1,158.5,40.028Zm-4.655,0a5.741,5.741,0,0,0-.867-3.325,2.753,2.753,0,0,0-2.407-1.212,2.792,2.792,0,0,0-2.419,1.212,5.663,5.663,0,0,0-.838,3.325,5.812,5.812,0,0,0,.855,3.353,2.769,2.769,0,0,0,2.419,1.24,2.734,2.734,0,0,0,2.39-1.24A5.9,5.9,0,0,0,153.847,40.028ZM169.672,40l2.888-4.106L175.3,32h-4.934L167.2,36.527,164.036,32H159.1l2.741,3.9L164.733,40l-2.889,4.107L159.1,47.985h4.933l3.166-4.531,3.166,4.531H175.3l-2.742-3.9ZM68.108,45.979C78,35.43,85.29,22.486,80.408,17.577l0-.006c-4.877-4.84-17.265,2.247-27.081,11.113-9.814-8.861-22.193-15.945-27.07-11.1-4.875,4.9,2.411,17.838,12.295,28.382-.758,1.232-1.436,2.442-2.025,3.619-3.022,6.044-3.364,10.493-.991,12.864A5.832,5.832,0,0,0,39.823,64c3.408,0,8.062-1.838,13.512-5.407,5.447,3.563,10.095,5.4,13.5,5.4a5.823,5.823,0,0,0,4.285-1.549c2.372-2.37,2.03-6.815-.99-12.856C69.54,48.414,68.864,47.207,68.108,45.979ZM28.064,19.4a3.443,3.443,0,0,1,2.5-.81c4.177,0,12.016,3.872,20.867,11.842q-.773.729-1.547,1.5h0a82.9,82.9,0,0,0-9.9,11.82C29.515,32.439,25.346,22.13,28.064,19.4ZM69.306,60.631c-1.64,1.637-6.8.926-14.686-4.259V33.412c.112.111.226.222.337.334C60.61,39.4,65.184,45.431,67.835,50.733,70.208,55.48,70.759,59.18,69.306,60.631Z"/></svg>