<svg xmlns="http://www.w3.org/2000/svg" width="200" height="80" viewBox="0 0 200 80"><defs><style>.a{fill:#bdbdbd;}</style></defs><title>STMicroelectronicsLogo</title><path class="a" d="M84.5,65.252a2.217,2.217,0,1,1,2.166-2.207,2.164,2.164,0,0,1-2.117,2.21H84.5m2.126-4.1A2.567,2.567,0,0,0,84.5,60.106a2.933,2.933,0,0,0-.111,5.865H84.5a2.587,2.587,0,0,0,2.126-1.038v.913h.787V60.258H86.63Zm6.439,2.057a1.939,1.939,0,0,1-.563,1.622,1.528,1.528,0,0,1-1.139.433,1.586,1.586,0,0,1-1.248-.51,2.226,2.226,0,0,1-.385-1.425V60.254h-.786v3.084a2.823,2.823,0,0,0,.492,1.8,2.367,2.367,0,0,0,1.927.842,1.9,1.9,0,0,0,1.742-.908v.772h.746V60.254h-.786Zm4.592,2.043a2.218,2.218,0,1,1,2.144-2.29c0,.027,0,.054,0,.08a2.174,2.174,0,0,1-2.138,2.21h-.007m2.1-4.084a2.551,2.551,0,0,0-2.1-1.065,2.933,2.933,0,0,0,0,5.865,2.456,2.456,0,0,0,2.1-1.064v.368a1.862,1.862,0,0,1-1.7,2.011,1.642,1.642,0,0,1-.253,0,2.1,2.1,0,0,1-2.028-1.368l-.01-.026h-.827l.014.053a2.972,2.972,0,0,0,5.08,1.02,3.168,3.168,0,0,0,.511-2.039V60.254h-.779Zm7.933-1.056a2.152,2.152,0,0,0-1.853,1.01,2.159,2.159,0,0,0-1.856-1.01,1.836,1.836,0,0,0-1.459.679v-.538h-.788v5.593h.788V62.611a2.081,2.081,0,0,1,.246-1.129,1.453,1.453,0,0,1,2.428,0,2.09,2.09,0,0,1,.246,1.129v3.234h.787V62.611a2.1,2.1,0,0,1,.246-1.129,1.454,1.454,0,0,1,2.015-.414,1.433,1.433,0,0,1,.414.414,2.1,2.1,0,0,1,.246,1.129v3.234h.787V62.529a2.211,2.211,0,0,0-1.989-2.411,2.473,2.473,0,0,0-.258-.01m3.985,2.517a2.128,2.128,0,0,1,4.209,0Zm2.085-2.52a2.968,2.968,0,0,0-2.9,2.947,2.911,2.911,0,0,0,5.662.961l.02-.055h-.833l-.009.026a2.037,2.037,0,0,1-1.936,1.273,2.154,2.154,0,0,1-2.093-1.914h5.012v-.038a2.951,2.951,0,0,0-.427-1.765,2.909,2.909,0,0,0-2.495-1.432m6.444,0a2.032,2.032,0,0,0-1.672.785v-.644h-.787v5.593h.787V62.771a1.992,1.992,0,0,1,.5-1.482,1.714,1.714,0,0,1,2.341,0,2.033,2.033,0,0,1,.513,1.483v3.073h.786V62.772a2.681,2.681,0,0,0-.7-1.974,2.312,2.312,0,0,0-1.772-.687m5.282-1.808h-.787v1.949h-1.159v.717h1.159v4.877h.787V60.969h1.319v-.717h-1.319Zm2.587,4.319a2.128,2.128,0,0,1,4.21,0Zm2.088-2.518a2.964,2.964,0,0,0-2.9,2.947,2.909,2.909,0,0,0,5.66.962l.019-.055h-.831l-.009.026a2.042,2.042,0,0,1-1.937,1.273,2.155,2.155,0,0,1-2.093-1.913h5.013v-.039a2.944,2.944,0,0,0-.428-1.765,2.9,2.9,0,0,0-2.5-1.431m6.706,5.147a2.216,2.216,0,1,1,0-4.432h0a2.2,2.2,0,0,1,2.165,2.227,2.162,2.162,0,0,1-2.114,2.209h-.051M139,58.309v2.833a2.672,2.672,0,0,0-2.125-1.029,2.933,2.933,0,1,0-.112,5.864h.112A2.643,2.643,0,0,0,139,64.939v.907h.787V58.305Zm-74.539.927h.75V58.111h-.75Zm-2.55-.931H60.273v.706h.886v6.125h-.947v.708h2.571v-.708h-.876Zm3.479,1.947H63.753v.707h.887v4.177h-.908v.708h2.541v-.708h-.887Zm3.081-1.589a1.882,1.882,0,0,0-.526,1.552v.039h-.886v.727h.9v4.155h-.9v.707H69.6v-.707H68.7V60.981H69.6v-.727H68.7v-.12a1.123,1.123,0,0,1,.357-1.006,1.247,1.247,0,0,1,.713-.254H69.8V58.2H69.76a1.984,1.984,0,0,0-1.294.463m2.94,4.075a2.126,2.126,0,0,1,4.2,0Zm2.048-2.486A2.856,2.856,0,1,0,76.1,64.284l.027-.059H75.32l-.013.021a2.046,2.046,0,0,1-1.832,1.027,2.069,2.069,0,0,1-2.072-1.9H76.33v-.246a2.842,2.842,0,0,0-2.8-2.878h-.071m5.428,5.742a.969.969,0,1,0-.968-.97v0a.968.968,0,0,0,.968.968m60.906-53.425a.556.556,0,0,1-.042.217l-1.925,4.651a.576.576,0,0,1-.545.383H88.624c-9.962,0-12.019,10.9-7.222,15.607l9.127,8.541c1.378,1.356.609,3.057-1.157,3.057H64.519a.572.572,0,0,1-.577-.567.546.546,0,0,1,.047-.22L74.853,18.065a10.167,10.167,0,0,1,9.324-6.056l0-.005,55.04,0A.57.57,0,0,1,139.788,12.567Zm-6.059,12.754-9.342.01a1.511,1.511,0,0,0-1.4.925l-10.467,25.3a.556.556,0,0,0-.066.262.571.571,0,0,0,.575.566l3.488,0v0a10.2,10.2,0,0,0,9.414-6.206l.012.009,8.32-20.084a.585.585,0,0,0,.041-.209A.571.571,0,0,0,133.729,25.321Zm-18.941,0H88.3a1.776,1.776,0,0,0-1.172,3.167l8.752,8.144s3.545,3.266,2.784,7.939a10.1,10.1,0,0,1-5.509,7.54h-.005a.145.145,0,0,0-.081.127.143.143,0,0,0,.144.143H103.42a1.506,1.506,0,0,0,1.4-.925L115.326,26.09a.548.548,0,0,0,.038-.2A.572.572,0,0,0,114.788,25.321Z"/></svg>