<svg xmlns="http://www.w3.org/2000/svg" width="200" height="80" viewBox="0 0 200 80"><defs><style>.a{fill:#bdbdbd;fill-rule:evenodd;}</style></defs><title>TexasInstrumentsLogo</title><path class="a" d="M35.529,21.721h0a1.847,1.847,0,1,1-1.847,1.847,1.847,1.847,0,0,1,1.847-1.847ZM19.769,45.082c2.658,0,2.085-2.573,3.431-2.573,1.161,0,1.464.877,2.12,2.473,1.838,4.47,6,12.143,12.056,10.343,0,0-4.186-8.981,10.215-13.069V34.478c-2.924.058-2.063-7.612-2.063-7.612H38.14l-.746,4.254h2.462L39.185,34.7H36.722L35.677,40.15h0c-.448,2.239.746,1.791,1.642,1.791h0l-.373,2.09h0c-6.568,2.91-7.837-1.568-7.463-3.583h0L30.527,34.7H27.244l.672-3.582H31.2l.821-4.254H29.334V20H20.6V33.582H10.18S14.521,45.082,19.769,45.082Zm10.779-4.5H34.5l2.619-13.72h-3.99l-2.584,13.72ZM140.636,59.175a1.415,1.415,0,0,1-1.324-1.382h0V49.809h0a1.415,1.415,0,0,1,1.324-1.382c.192,0,.192-.23-.019-.23h-3.263l-4.529,7.523L128.18,48.2h-3.455c-.211,0-.211.23-.019.23a1.415,1.415,0,0,1,1.324,1.382h0v7.984h0a1.415,1.415,0,0,1-1.324,1.382c-.192,0-.192.23.019.23h4.146c.211,0,.211-.23.019-.23a1.415,1.415,0,0,1-1.324-1.382h0v-5.72l4.376,7.1h0c.192.269.307.345.537,0,0-.038,4.223-6.948,4.223-6.948h0v5.566h0a1.415,1.415,0,0,1-1.324,1.382c-.192,0-.192.23.019.23h5.22c.211,0,.211-.23.019-.23ZM123.882,48.2h-3.838c-.211,0-.211.23-.019.23a1.415,1.415,0,0,1,1.324,1.382h0v5.758h0c-.039,1.919-1.843,2.725-3.378,2.687s-3.071-.269-3.071-2.687h0V49.809h0a1.415,1.415,0,0,1,1.324-1.382c.192,0,.192-.23-.019-.23h-4.76c-.211,0-.211.23-.019.23a1.415,1.415,0,0,1,1.324,1.382h0v5.758h0c0,2.648,1.919,3.838,5.221,3.838,2.3,0,4.606-1.343,4.606-3.838h0V49.809h0a1.415,1.415,0,0,1,1.324-1.382c.192,0,.192-.23-.019-.23ZM112.633,58.332h0c.192-.077.23.076.173.153-2.611,2.764-4.876.537-6.258-1.651s-1.765-2.245-2.437-2.418c-.037-.01-1.171,0-1.171,0-.269,0-.384.192-.384.461h0V57.89h0a1.4,1.4,0,0,0,1.325,1.286c.192,0,.192.23-.02.23H98.794c-.211,0-.211-.23-.019-.23a1.416,1.416,0,0,0,1.325-1.382h0V49.81h0a1.414,1.414,0,0,0-1.325-1.382c-.192,0-.192-.231.019-.231h7.831c1.382,0,4.069.423,4.069,3.3s-2.877,2.917-3.416,2.917c-.614,0-.518.307-.135.365a8.875,8.875,0,0,1,3.168,2.859,2.227,2.227,0,0,0,2.322.692Zm-6.353-5.221h0a1.65,1.65,0,0,0,1.612-1.843,1.767,1.767,0,0,0-2-1.765h-2.841c-.345,0-.5.307-.5.633h0v2.476h0a.446.446,0,0,0,.5.5h3.225ZM75.5,48.2H71.892c-.211,0-.211.23-.019.23A1.416,1.416,0,0,1,73.2,49.81h0v5.8L65.827,48.2H62.065c-.211,0-.211.23-.019.23.537.039,1.747,1.19,2.553,2.15h0V57.8h0a1.414,1.414,0,0,1-1.325,1.381c-.192,0-.192.231.019.231h3.839c.211,0,.211-.231.019-.231A1.414,1.414,0,0,1,65.827,57.8h0V51.729l8.061,8.138h0c.269.269.308.077.308-.115h0V49.81h0a1.415,1.415,0,0,1,1.324-1.382c.192,0,.192-.23-.019-.23ZM61.884,59.165a1.415,1.415,0,0,1-1.325-1.382h0V45.806h0a1.414,1.414,0,0,1,1.325-1.381c.191,0,.191-.231-.02-.231H56.8c-.211,0-.211.231-.019.231A1.414,1.414,0,0,1,58.1,45.806h0V57.783h0a1.415,1.415,0,0,1-1.324,1.382c-.192,0-.192.23.019.23h5.067c.211,0,.211-.23.02-.23ZM99.23,50.807,98.155,48.2H87.906l-.961,2.331-.658-1.965h0c-.064-.134-.28-.269-.415.057a.769.769,0,0,1-1.016.445,9.8,9.8,0,0,0-3.652-.643c-2.568,0-4.282,1.158-4.282,3.416,0,4.266,8.394,2.041,8.307,5.053-.046,1.591-1.449,1.7-2.908,1.7a8.554,8.554,0,0,1-5.943-3.167c-.263-.219-.39-.07-.31.233h0l1.142,3.647h0c.082.133.135.381.335.384s.331-.634.746-.634a37.94,37.94,0,0,0,4.484.639c1.907,0,4.656-1.118,4.656-3.29,0-2.835-1.732-3.256-5.492-3.816-1.19-.178-3.024-.2-3.024-1.788,0-1.111,1.758-1.405,2.7-1.405,3.045,0,5.383,2.818,5.631,2.818.216,0,.2-.25.083-.531h0l-.251-.749h0A2.767,2.767,0,0,1,89.518,49.5h1.228a.732.732,0,0,1,.691.768h0v7.524h0a1.415,1.415,0,0,1-1.324,1.382c-.192,0-.192.23.019.23h5.374c.211,0,.211-.23.019-.23A1.415,1.415,0,0,1,94.2,57.793h0V50.269h0a.732.732,0,0,1,.691-.768h1.651A2.8,2.8,0,0,1,99,50.96c.115.115.307.115.23-.153Zm79.243,0L177.4,48.2H167.149l-1.075,2.61h0c-.077.268.115.268.23.153a2.8,2.8,0,0,1,2.457-1.459h1.229a.732.732,0,0,1,.691.768h0v7.524h0a1.415,1.415,0,0,1-1.325,1.382c-.192,0-.192.23.019.23h5.375c.211,0,.211-.23.019-.23a1.415,1.415,0,0,1-1.325-1.382h0V50.269h0a.732.732,0,0,1,.691-.768h1.651a2.8,2.8,0,0,1,2.457,1.459c.115.115.307.115.23-.153Zm-36.65-2.38a1.415,1.415,0,0,1,1.325,1.382h0v7.984h0a1.415,1.415,0,0,1-1.325,1.382c-.191,0-.191.23.02.23h10.211l1.075-2.61h0c.076-.269-.116-.269-.231-.153a2.8,2.8,0,0,1-2.457,1.458H146.6a.731.731,0,0,1-.691-.767h0V54.645h0c0-.345.192-.5.576-.5h1.65c.96,0,1.344.4,1.382.941,0,.192.23.192.23-.019h0V51.92h0c0-.211-.23-.211-.23-.019-.038.537-.422.94-1.382.94h-1.65c-.384,0-.576-.153-.576-.5h0V50.269h0a.732.732,0,0,1,.691-.768H150.1a2.8,2.8,0,0,1,2.457,1.459c.115.115.307.115.23-.153h0l-1.075-2.61h-9.865c-.211,0-.211.23-.02.23Zm10.886,0c.537.039,1.747,1.19,2.553,2.15h0V57.8h0a1.414,1.414,0,0,1-1.325,1.381c-.192,0-.192.231.019.231h3.839c.211,0,.211-.231.019-.231A1.414,1.414,0,0,1,156.49,57.8h0V51.729l8.061,8.138h0c.269.269.307.077.307-.115h0V49.81h0a1.416,1.416,0,0,1,1.325-1.382c.192,0,.192-.23-.019-.23h-3.609c-.211,0-.211.23-.019.23a1.416,1.416,0,0,1,1.324,1.382h0v5.8L156.49,48.2h-3.762c-.211,0-.211.23-.019.23Zm31.082,4.162c-1.191-.178-3.025-.2-3.025-1.788,0-1.111,1.758-1.405,2.7-1.405,3.045,0,5.383,2.818,5.631,2.818.216,0,.2-.25.083-.531h0l-1.044-3.121h0c-.065-.134-.281-.269-.416.057a.768.768,0,0,1-1.015.445,9.814,9.814,0,0,0-3.654-.643c-2.566,0-4.281,1.158-4.281,3.416,0,4.266,8.394,2.041,8.307,5.053-.046,1.591-1.449,1.7-2.908,1.7a8.554,8.554,0,0,1-5.943-3.167c-.263-.219-.39-.07-.31.233h0l1.142,3.647h0c.083.133.135.381.335.384s.331-.634.746-.634a37.94,37.94,0,0,0,4.484.639c1.907,0,4.656-1.118,4.656-3.29,0-2.835-1.731-3.256-5.491-3.816ZM64.292,31.445a1.415,1.415,0,0,1,1.324,1.382h0v7.984h0a1.415,1.415,0,0,1-1.324,1.382c-.192,0-.192.23.019.23H74.522l1.075-2.61h0c.077-.269-.115-.269-.23-.153a2.8,2.8,0,0,1-2.457,1.458H69.071a.731.731,0,0,1-.691-.767h0V37.663h0c0-.345.192-.5.576-.5h1.651c.959,0,1.343.4,1.382.941,0,.192.23.192.23-.019h0V34.938h0c0-.211-.23-.211-.23-.019-.039.537-.423.94-1.382.94H68.956c-.384,0-.576-.153-.576-.5h0V33.287h0a.731.731,0,0,1,.691-.767h3.493a2.8,2.8,0,0,1,2.457,1.459c.115.115.307.115.23-.154h0l-1.074-2.61H64.311c-.211,0-.211.23-.019.23Zm39.382,3.893h0c3.76.56,5.491.981,5.491,3.816,0,2.172-2.749,3.29-4.656,3.29a37.973,37.973,0,0,1-4.484-.639c-.414,0-.537.638-.746.634a.2.2,0,0,1-.075-.016H94.289c-.211,0-.211-.23-.019-.23.335-.024,1.133-.48.852-1.169h0L94.385,39.2h0a.511.511,0,0,0-.441-.307H90.028a.5.5,0,0,0-.46.326h0l-.833,1.922h0c-.395.516.364,1.029.7,1.053.192,0,.192.23-.019.23H82.836c-.211,0-.211-.23-.019-.23.334-.024,1.247-.576.852-1.092h0l-2.023-2.939L79.278,41.14h0c-.4.516.363,1.029.7,1.053.192,0,.192.23-.019.23H75.965c-.212,0-.212-.23-.02-.23a1.454,1.454,0,0,0,1.006-.555h0l3.793-4.8-2.937-4.28h0a2.119,2.119,0,0,0-1.862-1.113c-.192,0-.192-.23.02-.23h5.412c.211,0,.211.23.019.23-.537.038-1.017.422-.671,1.036h0l1.612,2.342,1.881-2.342h0c.345-.614-.135-1-.672-1.036-.192,0-.192-.23.019-.23h4.453c.211,0,.211.23.019.23a2.172,2.172,0,0,0-1.9,1.113h0l-2.9,3.589,3.692,5.4,4.9-10.333H93.56l4.58,10.423h0a1.141,1.141,0,0,0,.86.525.9.9,0,0,0-.056-.108h0L97.8,38.408h0c-.08-.3.048-.452.31-.233a8.556,8.556,0,0,0,5.944,3.167c1.459,0,2.862-.112,2.907-1.7.087-3.012-8.306-.787-8.306-5.053,0-2.258,1.714-3.416,4.281-3.416a9.807,9.807,0,0,1,3.653.643.769.769,0,0,0,1.016-.445c.134-.326.35-.191.415-.057h0l1.045,3.121h0c.116.281.133.531-.083.531-.249,0-2.586-2.818-5.631-2.818-.946,0-2.7.294-2.7,1.4,0,1.592,1.835,1.611,3.025,1.788ZM93.5,37.587h0c.154.019.212-.1.135-.307h0l-1.305-3.34h0a.21.21,0,0,0-.4,0h0l-1.517,3.4h0c-.077.154.1.25.192.25h2.9ZM52.243,30.014c.461-.538,1.881-1.8,3.071-1.8h2.073a.762.762,0,0,1,.73.767h0V40.8h0a1.416,1.416,0,0,1-1.325,1.382c-.192,0-.192.231.019.231h5.067c.211,0,.211-.231.02-.231A1.415,1.415,0,0,1,60.573,40.8h0V28.977h0a.761.761,0,0,1,.73-.767h2.072c1.191,0,2.611,1.266,3.071,1.8.154.192.461.153.308-.154h0L65.18,26.866H53.51L51.936,29.86h0c-.153.307.154.346.307.154Z"/></svg>