<svg xmlns="http://www.w3.org/2000/svg" width="50" height="50" viewBox="0 0 50 50"><defs><style>.a{fill:#fff;}.b{fill:#37474f;}</style></defs><title>Devices</title><path class="a" d="M26.633,3.2l9.808,5.4L25.979,14.31,15.559,8.6l9.767-5.4a1.384,1.384,0,0,1,1.307,0ZM14.52,21.308a1.289,1.289,0,0,0,.652,1.143l9.789,5.424V16.128L14.52,10.417ZM37.48,10.417,27.039,16.128V27.875l9.789-5.425a1.289,1.289,0,0,0,.652-1.142ZM13.46,24.125a1.337,1.337,0,0,0-.654.164l-9.767,5.4L13.46,35.4l10.462-5.711-9.809-5.4A1.33,1.33,0,0,0,13.46,24.125ZM2,42.4a1.294,1.294,0,0,0,.652,1.143l9.79,5.424V37.222L2,31.511ZM24.961,31.511,14.52,37.222V48.969l9.789-5.425a1.293,1.293,0,0,0,.652-1.142ZM38.5,24.125a1.337,1.337,0,0,0-.654.164l-9.767,5.4L38.5,35.4l10.462-5.711-9.809-5.4A1.33,1.33,0,0,0,38.5,24.125ZM27.039,42.4a1.294,1.294,0,0,0,.652,1.143l9.79,5.424V37.222L27.039,31.511ZM50,31.511,39.558,37.222V48.969l9.79-5.425A1.293,1.293,0,0,0,50,42.4Z"/><path class="b" d="M23.98,2.753l6.968,3.839-6.967,3.8-6.94-3.8L23.98,2.753m9.82,8.5V19.1l-7.082,3.924v-7.9L33.8,11.251m-19.6,0,7.081,3.873v7.9L14.2,19.1V11.251m-2.74,12.6,6.968,3.839-6.966,3.8-6.94-3.8,6.938-3.839m25.039,0,6.968,3.839-6.967,3.8-6.939-3.8L36.5,23.847m9.821,8.5v7.848l-7.082,3.924v-7.9l7.082-3.873m-25.039,0v7.848L14.2,44.117v-7.9l7.082-3.873m-19.6,0,7.082,3.873v7.9L1.68,40.194V32.345m25.039,0L33.8,36.218v7.9l-7.082-3.923V32.345M23.993,1.031h-.027a1.328,1.328,0,0,0-.64.164L13.559,6.6l10.42,5.711L34.441,6.6,24.633,1.2a1.331,1.331,0,0,0-.64-.164ZM35.48,8.417,25.039,14.128V25.875l9.789-5.425a1.289,1.289,0,0,0,.652-1.142V8.417Zm-22.96,0V19.308a1.289,1.289,0,0,0,.652,1.143l9.789,5.424V14.128L12.52,8.417ZM36.512,22.125h-.026a1.332,1.332,0,0,0-.641.164l-9.767,5.4L36.5,33.4l10.462-5.711-9.809-5.4a1.325,1.325,0,0,0-.64-.164Zm-25.039,0h-.026a1.332,1.332,0,0,0-.641.164l-9.767,5.4L11.46,33.4l10.462-5.711-9.809-5.4a1.325,1.325,0,0,0-.64-.164ZM48,29.511,37.558,35.222V46.969l9.79-5.425A1.293,1.293,0,0,0,48,40.4V29.511Zm-25.039,0L12.52,35.222V46.969l9.789-5.425a1.293,1.293,0,0,0,.652-1.142V29.511Zm2.078,0V40.4a1.294,1.294,0,0,0,.652,1.143l9.79,5.424V35.222L25.039,29.511ZM0,29.511V40.4a1.294,1.294,0,0,0,.652,1.143l9.79,5.424V35.222L0,29.511Z"/></svg>