<svg xmlns="http://www.w3.org/2000/svg" width="50" height="50" viewBox="0 0 50 50"><defs><style>.a{fill:#fff;}.b{fill:#37474f;}</style></defs><title>Embedded</title><path class="a" d="M14.494,2c-.042.008-.083.019-.12.03a.961.961,0,0,0-.748.959v4.8H15.54V5.061a.939.939,0,0,0,0-.15V2.993A.959.959,0,0,0,14.494,2Zm5.741,0c-.041.008-.083.019-.12.03a.959.959,0,0,0-.747.959v4.8h1.913V5.061a.939.939,0,0,0,0-.15V2.993A.959.959,0,0,0,20.235,2Zm5.741,0c-.041.008-.082.019-.12.03a.959.959,0,0,0-.747.959v4.8h1.913V5.061a.939.939,0,0,0,0-.15V2.993A.959.959,0,0,0,25.976,2Zm5.741,0c-.041.008-.082.019-.12.03a.961.961,0,0,0-.747.959v4.8h1.914V5.061a1.251,1.251,0,0,0,0-.15V2.993A.96.96,0,0,0,31.717,2Zm5.741,0c-.041.008-.082.019-.12.03a.961.961,0,0,0-.747.959v4.8h1.914V5.061a1.251,1.251,0,0,0,0-.15V2.993A.96.96,0,0,0,37.458,2ZM11.982,8.748A3.158,3.158,0,0,0,8.842,11.9V40.127a3.158,3.158,0,0,0,3.14,3.147H40.149a3.158,3.158,0,0,0,3.14-3.147V11.9a3.158,3.158,0,0,0-3.14-3.147Zm-9.15,4.8A.968.968,0,0,0,3.1,15.461H7.885V13.543H2.832Zm41.414,0v1.918H49.03a.959.959,0,1,0,0-1.918ZM2.832,19.3A.968.968,0,0,0,3.1,21.215H7.885V19.3H2.832Zm14.622,0H34.677V32.724H17.454Zm26.792,0v1.918H49.03a.959.959,0,1,0,0-1.918ZM2.832,25.052A.968.968,0,0,0,3.1,26.97H7.885V25.052H2.832Zm41.414,0V26.97H49.03a.959.959,0,1,0,0-1.918ZM2.832,30.806A.968.968,0,0,0,3.1,32.724H7.885V30.806H2.832Zm41.414,0v1.918H49.03a.959.959,0,1,0,0-1.918ZM2.832,36.56A.968.968,0,0,0,3.1,38.478H7.885V36.56H2.832Zm41.414,0v1.918H49.03a.959.959,0,1,0,0-1.918Zm-30.62,7.673v2.7a.774.774,0,0,0,0,.18v1.918a.957.957,0,1,0,1.914,0V47.11a.678.678,0,0,0,0-.18v-2.7Zm5.742,0v2.7a.6.6,0,0,0,0,.12v1.978a.957.957,0,1,0,1.913,0V47.11a.678.678,0,0,0,0-.18v-2.7Zm5.741,0v2.7a.6.6,0,0,0,0,.12v1.978a.957.957,0,1,0,1.913,0V47.11a.678.678,0,0,0,0-.18v-2.7Zm5.741,0v2.7a.6.6,0,0,0,0,.12v1.978a.957.957,0,1,0,1.914,0V47.11a.774.774,0,0,0,0-.18v-2.7Zm5.741,0v2.7a.6.6,0,0,0,0,.12v1.978a.957.957,0,1,0,1.914,0V47.11a.774.774,0,0,0,0-.18v-2.7Z"/><path class="b" d="M12.494,0c-.042.008-.083.019-.12.03a.961.961,0,0,0-.748.959v4.8H13.54V3.061a.939.939,0,0,0,0-.15V.993A.959.959,0,0,0,12.494,0Zm5.741,0c-.041.008-.083.019-.12.03a.959.959,0,0,0-.747.959v4.8h1.913V3.061a.939.939,0,0,0,0-.15V.993A.959.959,0,0,0,18.235,0Zm5.741,0c-.041.008-.082.019-.12.03a.959.959,0,0,0-.747.959v4.8h1.913V3.061a.939.939,0,0,0,0-.15V.993A.959.959,0,0,0,23.976,0Zm5.741,0c-.041.008-.082.019-.12.03a.961.961,0,0,0-.747.959v4.8h1.914V3.061a1.251,1.251,0,0,0,0-.15V.993A.96.96,0,0,0,29.717,0Zm5.741,0c-.041.008-.082.019-.12.03a.961.961,0,0,0-.747.959v4.8h1.914V3.061a1.251,1.251,0,0,0,0-.15V.993A.96.96,0,0,0,35.458,0ZM9.982,6.748A3.17,3.17,0,0,0,6.842,9.9V38.127a3.17,3.17,0,0,0,3.14,3.147H38.149a3.17,3.17,0,0,0,3.14-3.147V9.9a3.17,3.17,0,0,0-3.14-3.147Zm0,1.918H38.149A1.22,1.22,0,0,1,39.375,9.9V38.127a1.22,1.22,0,0,1-1.226,1.228H9.982a1.221,1.221,0,0,1-1.226-1.228V9.9A1.221,1.221,0,0,1,9.982,8.666ZM.832,11.543A.968.968,0,0,0,1.1,13.461H5.885V11.543H.832Zm41.414,0v1.918H47.03a.959.959,0,1,0,0-1.918Zm-26.972,4.8a.959.959,0,0,0-.777.959V30.724a.96.96,0,0,0,.957.959H32.677a.96.96,0,0,0,.957-.959V17.3a.96.96,0,0,0-.957-.959h-17.4ZM.832,17.3A.968.968,0,0,0,1.1,19.215H5.885V17.3H.832Zm41.414,0v1.918H47.03a.959.959,0,1,0,0-1.918Zm-25.835.959H31.72V29.765H16.411ZM.832,23.052A.968.968,0,0,0,1.1,24.97H5.885V23.052H.832Zm41.414,0V24.97H47.03a.959.959,0,1,0,0-1.918ZM.832,28.806A.968.968,0,0,0,1.1,30.724H5.885V28.806H.832Zm41.414,0v1.918H47.03a.959.959,0,1,0,0-1.918ZM.832,34.56A.968.968,0,0,0,1.1,36.478H5.885V34.56H.832Zm41.414,0v1.918H47.03a.959.959,0,1,0,0-1.918Zm-30.62,7.673v2.7a.774.774,0,0,0,0,.18v1.918a.957.957,0,1,0,1.914,0V45.11a.678.678,0,0,0,0-.18v-2.7Zm5.742,0v2.7a.6.6,0,0,0,0,.12v1.978a.957.957,0,1,0,1.913,0V45.11a.678.678,0,0,0,0-.18v-2.7Zm5.741,0v2.7a.6.6,0,0,0,0,.12v1.978a.957.957,0,1,0,1.913,0V45.11a.678.678,0,0,0,0-.18v-2.7Zm5.741,0v2.7a.6.6,0,0,0,0,.12v1.978a.957.957,0,1,0,1.914,0V45.11a.774.774,0,0,0,0-.18v-2.7Zm5.741,0v2.7a.6.6,0,0,0,0,.12v1.978a.957.957,0,1,0,1.914,0V45.11a.774.774,0,0,0,0-.18v-2.7Z"/></svg>