<svg xmlns="http://www.w3.org/2000/svg" width="50" height="50" viewBox="0 0 50 50"><defs><style>.a{fill:#fff;}.b{fill:#37474f;}</style></defs><title>Firmware</title><path class="a" d="M8.417,40.917v8A1.016,1.016,0,0,1,7.333,50,1.015,1.015,0,0,1,6.25,48.917v-8a1.016,1.016,0,0,1,1.083-1.084A1.016,1.016,0,0,1,8.417,40.917ZM14.8,39.833a1.016,1.016,0,0,0-1.083,1.084v8a1.084,1.084,0,0,0,2.167,0v-8A1.016,1.016,0,0,0,14.8,39.833Zm7.467,0a1.016,1.016,0,0,0-1.083,1.084v8a1.083,1.083,0,0,0,2.166,0v-8A1.016,1.016,0,0,0,22.267,39.833Zm8.549,1.084a1.083,1.083,0,1,0-2.166,0v8a1.083,1.083,0,1,0,2.166,0ZM37.2,39.833a1.016,1.016,0,0,0-1.084,1.084v8a1.084,1.084,0,0,0,2.167,0v-8A1.016,1.016,0,0,0,37.2,39.833Zm7.467,0a1.016,1.016,0,0,0-1.084,1.084v8a1.084,1.084,0,0,0,2.167,0v-8A1.016,1.016,0,0,0,44.667,39.833Zm2.666-14.916H36.7a2,2,0,0,0-1.414.585L28.933,31.85A4.28,4.28,0,0,1,26,33.183a4.28,4.28,0,0,1-2.933-1.333L16.719,25.5a2,2,0,0,0-1.414-.585H4.667A2.667,2.667,0,0,0,2,27.583V42.25a2.52,2.52,0,0,0,2.667,2.667v-4a2.65,2.65,0,0,1,2.455-2.661,2.526,2.526,0,0,1,2.861,2.567v3.011a1.015,1.015,0,0,0,1.083,1.083,1.015,1.015,0,0,0,1.084-1.083V40.819A2.505,2.505,0,0,1,14.8,38.25a2.506,2.506,0,0,1,2.651,2.576v3.008a1.084,1.084,0,0,0,2.167,0V40.817a2.5,2.5,0,0,1,2.649-2.567,2.506,2.506,0,0,1,2.65,2.571v3.013a1.083,1.083,0,1,0,2.166,0V40.821a2.651,2.651,0,0,1,5.3,0v3.016a1.084,1.084,0,0,0,2.167,0V40.825a2.651,2.651,0,0,1,5.3-.006v3.015a1.084,1.084,0,0,0,2.167,0V40.823a2.526,2.526,0,0,1,2.861-2.567,2.65,2.65,0,0,1,2.455,2.661v4A2.52,2.52,0,0,0,50,42.25V27.583A2.667,2.667,0,0,0,47.333,24.917ZM25.9,2.005a1.143,1.143,0,0,0-.137.034,1.092,1.092,0,0,0-.851,1.09V26.815l-7.937-7.936a1.1,1.1,0,0,0-1.022-.307,1.081,1.081,0,0,0-.851.766,1.1,1.1,0,0,0,.306,1.108l9.81,9.81a1.091,1.091,0,0,0,1.567,0l9.81-9.81a1.108,1.108,0,0,0-1.566-1.567l-7.937,7.936V3.129A1.092,1.092,0,0,0,25.9,2.005Z"/><path class="b" d="M6.417,38.917v8A1.016,1.016,0,0,1,5.333,48,1.015,1.015,0,0,1,4.25,46.917v-8a1.016,1.016,0,0,1,1.083-1.084A1.016,1.016,0,0,1,6.417,38.917ZM12.8,37.833a1.016,1.016,0,0,0-1.083,1.084v8A1.015,1.015,0,0,0,12.8,48a1.016,1.016,0,0,0,1.084-1.083v-8A1.016,1.016,0,0,0,12.8,37.833Zm7.467,0a1.016,1.016,0,0,0-1.083,1.084v8a1.083,1.083,0,0,0,2.166,0v-8A1.016,1.016,0,0,0,20.267,37.833Zm8.549,1.084a1.083,1.083,0,1,0-2.166,0v8a1.083,1.083,0,1,0,2.166,0ZM35.2,37.833a1.016,1.016,0,0,0-1.084,1.084v8a1.084,1.084,0,0,0,2.167,0v-8A1.016,1.016,0,0,0,35.2,37.833Zm7.467,0a1.016,1.016,0,0,0-1.084,1.084v8a1.084,1.084,0,0,0,2.167,0v-8A1.016,1.016,0,0,0,42.667,37.833Zm2.666-14.916H34.7a2,2,0,0,0-1.414.585L26.933,29.85A4.28,4.28,0,0,1,24,31.183a4.28,4.28,0,0,1-2.933-1.333L14.719,23.5a2,2,0,0,0-1.414-.585H2.667A2.667,2.667,0,0,0,0,25.583V40.25a2.52,2.52,0,0,0,2.667,2.667v-4a2.65,2.65,0,0,1,2.455-2.661,2.526,2.526,0,0,1,2.861,2.567v3.011a1.015,1.015,0,0,0,1.083,1.083,1.015,1.015,0,0,0,1.084-1.083V38.819A2.505,2.505,0,0,1,12.8,36.25a2.506,2.506,0,0,1,2.651,2.576v3.008a1.084,1.084,0,0,0,2.167,0V38.817a2.5,2.5,0,0,1,2.649-2.567,2.506,2.506,0,0,1,2.65,2.571v3.013a1.083,1.083,0,1,0,2.166,0V38.821a2.506,2.506,0,0,1,2.65-2.571,2.506,2.506,0,0,1,2.65,2.568v3.016a1.084,1.084,0,0,0,2.167,0V38.825a2.651,2.651,0,0,1,5.3-.006v3.015a1.084,1.084,0,0,0,2.167,0V38.823a2.526,2.526,0,0,1,2.861-2.567,2.65,2.65,0,0,1,2.455,2.661v4A2.52,2.52,0,0,0,48,40.25V25.583A2.667,2.667,0,0,0,45.333,22.917ZM46,35.555a4.66,4.66,0,0,0-3.333-1.3,4.584,4.584,0,0,0-3.734,1.762,4.835,4.835,0,0,0-7.466,0,4.836,4.836,0,0,0-7.467,0,4.582,4.582,0,0,0-3.733-1.762,4.584,4.584,0,0,0-3.734,1.762A4.58,4.58,0,0,0,12.8,34.25a4.58,4.58,0,0,0-3.733,1.762A4.584,4.584,0,0,0,5.333,34.25,4.66,4.66,0,0,0,2,35.555V25.583c0-.5.168-.666.667-.666H13.305l6.347,6.347A6.268,6.268,0,0,0,24,33.183a6.268,6.268,0,0,0,4.348-1.919L34.7,24.917H45.333c.5,0,.667.168.667.666ZM23.9.005a1.143,1.143,0,0,0-.137.034,1.092,1.092,0,0,0-.851,1.09V24.815l-7.937-7.936a1.1,1.1,0,0,0-1.022-.307,1.081,1.081,0,0,0-.851.766,1.1,1.1,0,0,0,.306,1.108l9.81,9.81a1.091,1.091,0,0,0,1.567,0l9.81-9.81a1.108,1.108,0,0,0-1.566-1.567l-7.937,7.936V1.129A1.092,1.092,0,0,0,23.9.005Z"/></svg>