<svg xmlns="http://www.w3.org/2000/svg" width="50" height="50" viewBox="0 0 50 50"><defs><style>.a{fill:#fff;}.b{fill:#37474f;}</style></defs><title>Message</title><path class="a" d="M9.05,2.128A5.318,5.318,0,0,0,3.731,7.447V8.511H48.412V7.447a5.318,5.318,0,0,0-5.319-5.319Zm-5.319,8.51V44.681A1.066,1.066,0,0,0,4.8,45.745H21.38l3.935,3.947a1.083,1.083,0,0,0,1.513,0l3.935-3.947H47.348a1.066,1.066,0,0,0,1.064-1.064V10.638Zm8.511,5.319h3.191a1.064,1.064,0,0,1,0,2.128H12.242a1.064,1.064,0,0,1,0-2.128Zm7.447,0H39.9a1.064,1.064,0,1,1,0,2.128H19.689a1.064,1.064,0,0,1,0-2.128ZM12.242,22.34h3.191a1.064,1.064,0,1,1,0,2.128H12.242a1.064,1.064,0,0,1,0-2.128Zm7.447,0H39.9a1.064,1.064,0,1,1,0,2.128H19.689a1.064,1.064,0,0,1,0-2.128Zm-7.447,6.383h3.191a1.064,1.064,0,0,1,0,2.128H12.242a1.064,1.064,0,1,1,0-2.128Zm7.447,0H39.9a1.064,1.064,0,0,1,0,2.128H19.689a1.064,1.064,0,0,1,0-2.128Zm-7.447,6.383h3.191a1.064,1.064,0,1,1,0,2.128H12.242a1.064,1.064,0,1,1,0-2.128Zm7.447,0H39.9a1.064,1.064,0,1,1,0,2.128H19.689a1.064,1.064,0,1,1,0-2.128Z"/><path class="b" d="M6.923,0A5.335,5.335,0,0,0,1.6,5.319V7.268a.952.952,0,0,0,0,.345v34.94a1.065,1.065,0,0,0,1.063,1.064H19.248l3.944,3.944a1.064,1.064,0,0,0,1.5,0l3.944-3.944H45.221a1.066,1.066,0,0,0,1.063-1.064V7.625a.947.947,0,0,0,0-.344V5.319A5.335,5.335,0,0,0,40.965,0Zm0,2.128H40.965a3.176,3.176,0,0,1,3.192,3.191V6.383H3.731V5.319A3.176,3.176,0,0,1,6.923,2.128ZM3.731,8.511H44.157V41.489H28.2a1.067,1.067,0,0,0-.752.312l-3.5,3.5-3.5-3.5a1.067,1.067,0,0,0-.752-.312H3.731Zm6.383,5.319a1.064,1.064,0,1,0,0,2.127h3.192a1.064,1.064,0,1,0,0-2.127Zm7.447,0a1.064,1.064,0,1,0,0,2.127H37.774a1.064,1.064,0,1,0,0-2.127Zm-7.447,6.383a1.064,1.064,0,1,0,0,2.127h3.192a1.064,1.064,0,1,0,0-2.127Zm7.447,0a1.064,1.064,0,1,0,0,2.127H37.774a1.064,1.064,0,1,0,0-2.127ZM10.114,26.6a1.064,1.064,0,1,0,0,2.127h3.192a1.064,1.064,0,1,0,0-2.127Zm7.447,0a1.064,1.064,0,1,0,0,2.127H37.774a1.064,1.064,0,1,0,0-2.127Zm-7.447,6.383a1.064,1.064,0,1,0,0,2.127h3.192a1.064,1.064,0,1,0,0-2.127Zm7.447,0a1.064,1.064,0,1,0,0,2.127H37.774a1.064,1.064,0,1,0,0-2.127Z"/></svg>