<svg xmlns="http://www.w3.org/2000/svg" width="50" height="50" viewBox="0 0 50 50"><defs><style>.a{fill:#fff;}.b{fill:#37474f;}</style></defs><title>Mobile</title><path class="a" d="M5.84,2A3.882,3.882,0,0,0,2,5.918V43.143a3.882,3.882,0,0,0,3.84,3.918H26V39.224H6.8V6.9H31.76v7.837h4.8V5.918A3.882,3.882,0,0,0,32.72,2Zm24,13.714a2.916,2.916,0,0,0-2.88,2.939V47.061A2.916,2.916,0,0,0,29.84,50H47.12A2.916,2.916,0,0,0,50,47.061V18.653a2.916,2.916,0,0,0-2.88-2.939Zm1.92,4.9H45.2V42.163H31.76ZM19.28,41.184a1.469,1.469,0,1,1-1.44,1.469A1.455,1.455,0,0,1,19.28,41.184Zm19.2,2.938a1.47,1.47,0,1,1-1.44,1.47A1.456,1.456,0,0,1,38.48,44.122Z"/><path class="b" d="M3.84,0A3.892,3.892,0,0,0,0,3.918V41.143a3.892,3.892,0,0,0,3.84,3.918H24V43.1H3.84a1.925,1.925,0,0,1-1.92-1.959V3.918A1.925,1.925,0,0,1,3.84,1.959H30.72a1.925,1.925,0,0,1,1.92,1.959v8.817h1.92V3.918A3.892,3.892,0,0,0,30.72,0Zm.78,3.918a.977.977,0,0,0-.78.98V37.224a.972.972,0,0,0,.96.98H24V36.245H5.76V5.878H28.8v6.857h1.92V4.9a.972.972,0,0,0-.96-.98H4.62Zm23.22,9.8a2.925,2.925,0,0,0-2.88,2.939V45.061A2.925,2.925,0,0,0,27.84,48H45.12A2.925,2.925,0,0,0,48,45.061V16.653a2.925,2.925,0,0,0-2.88-2.939Zm0,1.959H45.12a.953.953,0,0,1,.96.98V45.061a.953.953,0,0,1-.96.98H27.84a.953.953,0,0,1-.96-.98V16.653A.953.953,0,0,1,27.84,15.673Zm1.74,1.96a.974.974,0,0,0-.78.979V40.163a.972.972,0,0,0,.96.98H43.2a.972.972,0,0,0,.96-.98V18.612a.971.971,0,0,0-.96-.979H29.58Zm1.14,1.959H42.24V39.184H30.72ZM17.28,39.184a1.469,1.469,0,1,0,1.44,1.469A1.455,1.455,0,0,0,17.28,39.184Zm19.2,2.938a1.47,1.47,0,1,0,1.44,1.47A1.456,1.456,0,0,0,36.48,42.122Z"/></svg>