<svg xmlns="http://www.w3.org/2000/svg" width="50" height="50" viewBox="0 0 50 50"><defs><style>.a{fill:#fff;}.b{fill:#37474f;}</style></defs><title>Notification</title><path class="a" d="M25.962,1.923a3.846,3.846,0,1,0,3.846,3.846A3.849,3.849,0,0,0,25.962,1.923ZM20.553,7.782c-4.395,1.882-7.091,6.119-7.091,11.449,0,10.577-3.655,13.232-5.83,14.813-.965.7-1.863,1.349-1.863,2.494,0,4.046,6.04,5.77,20.193,5.77s20.192-1.724,20.192-5.77c0-1.145-.9-1.795-1.863-2.494-2.175-1.581-5.829-4.236-5.829-14.813,0-5.345-2.694-9.571-7.092-11.449a5.772,5.772,0,0,1-10.817,0Zm-.361,36.329v.12a5.77,5.77,0,0,0,11.539,0v-.12c-1.811.075-3.734.12-5.769.12S22,44.186,20.192,44.111Z"/><path class="b" d="M24.038,0a3.841,3.841,0,0,0-3.575,5.258c-5.409,1.405-8.925,6.1-8.925,12.05,0,7.53-1.847,10.96-3.605,12.89a15.276,15.276,0,0,1-2.494,2.1,5.81,5.81,0,0,0-1.022.9,2.225,2.225,0,0,0-.571,1.412A3.877,3.877,0,0,0,5.8,37.8a13.151,13.151,0,0,0,4.447,1.593,54.27,54.27,0,0,0,8.414.871,5.763,5.763,0,1,0,11.148,2.044,5.69,5.69,0,0,0-.391-2.044,54.27,54.27,0,0,0,8.414-.871A13.151,13.151,0,0,0,42.278,37.8a3.879,3.879,0,0,0,1.953-3.185A2.225,2.225,0,0,0,43.66,33.2a5.81,5.81,0,0,0-1.022-.9,15.276,15.276,0,0,1-2.494-2.1c-1.758-1.93-3.606-5.36-3.606-12.89,0-5.942-3.523-10.637-8.924-12.05A3.841,3.841,0,0,0,24.038,0Zm0,1.923a1.923,1.923,0,1,1-1.923,1.923A1.908,1.908,0,0,1,24.038,1.923Zm2.254,4.988c5.127.913,8.323,4.875,8.323,10.4,0,7.854,2,11.887,4.087,14.182A17.131,17.131,0,0,0,41.5,33.864a5.6,5.6,0,0,1,.722.6c.116.132.09.12.09.15,0,.6-.278,1.041-1.082,1.563A11.6,11.6,0,0,1,37.44,37.53a72.08,72.08,0,0,1-13.4.932,72.075,72.075,0,0,1-13.4-.932,11.6,11.6,0,0,1-3.786-1.352c-.8-.522-1.082-.962-1.082-1.563,0-.03-.026-.018.09-.15a5.6,5.6,0,0,1,.722-.6A17.131,17.131,0,0,0,9.375,31.49c2.088-2.295,4.087-6.328,4.087-14.182,0-5.518,3.2-9.45,8.323-10.367a3.7,3.7,0,0,0,4.507-.03ZM20.733,40.325c1.078.022,2.175.06,3.305.06s2.228-.038,3.306-.06a3.9,3.9,0,0,1,.541,1.983,3.847,3.847,0,1,1-7.152-1.983Z"/></svg>