<svg xmlns="http://www.w3.org/2000/svg" width="50" height="50" viewBox="0 0 50 50"><defs><style>.a{fill:#fff;}.b{fill:#37474f;}</style></defs><title>ReportingOptions</title><path class="a" d="M31.633,2H7.217V50H44.783V15.149ZM27.781,38.216,26.306,36.74l5.523-5.523H17.652V29.13H31.829l-5.523-5.523,1.475-1.475,8.042,8.042Zm3.436-22.651V4.5L42.28,15.565Z"/><path class="b" d="M5.217,0V48H42.783V13.141l-.294-.326L29.967.293,29.641,0ZM7.3,2.087h20.87V14.609H40.7v31.3H7.3Zm22.957,1.5L39.2,12.522H30.261ZM25.793,20.12l-1.5,1.5L29.8,27.13H15.652v2.087H29.8l-5.511,5.511,1.5,1.5,7.305-7.3.717-.75-.717-.75Z"/></svg>