<svg xmlns="http://www.w3.org/2000/svg" width="56" height="50" viewBox="0 0 56 50"><defs><style>.a{fill:#fff;}.b{fill:#37474f;}</style></defs><title>SecureCloud</title><path class="a" d="M47.47,23.845v-.6a14.185,14.185,0,0,0-26.886-6.379A7.567,7.567,0,0,0,8.817,22.69,10.486,10.486,0,0,0,12.475,43H46.39a9.608,9.608,0,0,0,1.08-19.155ZM34.4,30.7v3.668a2.16,2.16,0,0,1-4.32,0V30.7a5.455,5.455,0,0,1-3.24-4.967,5.4,5.4,0,0,1,10.8,0A5.455,5.455,0,0,1,34.4,30.7Z"/><path class="b" d="M31.32,7a14.168,14.168,0,0,0-12.69,8.062,7.368,7.368,0,0,0-4.253-1.485,7.556,7.556,0,0,0-7.492,7.185A10.429,10.429,0,0,0,10.463,41H44.381A9.6,9.6,0,0,0,54,31.387a9.481,9.481,0,0,0-8.539-9.377v-.776A14.208,14.208,0,0,0,31.32,7Zm0,2.159A12.02,12.02,0,0,1,43.3,21.234v2.7h1.08a7.454,7.454,0,1,1,0,14.908H10.463a8.283,8.283,0,0,1-8.3-8.3A8.464,8.464,0,0,1,8.2,22.482l.777-.236V21.133a5.418,5.418,0,0,1,9.281-3.778l1.181,1.214.574-1.585A12.1,12.1,0,0,1,31.32,9.159Zm-1.08,8.1A6.427,6.427,0,0,0,27,29.262v3.1a3.24,3.24,0,0,0,6.48,0v-3.1a6.427,6.427,0,0,0-3.24-12.008Zm0,2.159a4.227,4.227,0,0,1,4.32,4.317,4.376,4.376,0,0,1-2.6,3.98l-.641.27v4.385a1.08,1.08,0,0,1-2.16,0V27.98l-.641-.27a4.376,4.376,0,0,1-2.6-3.98A4.227,4.227,0,0,1,30.24,19.413Z"/></svg>