<svg xmlns="http://www.w3.org/2000/svg" width="52" height="50" viewBox="0 0 52 50"><defs><style>.a{fill:#fff;}.b{fill:#37474f;}</style></defs><title>Sliders</title><path class="a" d="M27.007,6.446a4.346,4.346,0,1,0,4.346,4.346A4.349,4.349,0,0,0,27.007,6.446ZM3.109,9.705a1.087,1.087,0,1,0,0,2.173H20.587a6.133,6.133,0,0,1,0-2.173Zm30.319,0a6.133,6.133,0,0,1,0,2.173H50.906a1.087,1.087,0,1,0,0-2.173Zm8.788,11.95A4.345,4.345,0,1,0,46.561,26,4.347,4.347,0,0,0,42.216,21.655ZM3.109,24.914a1.086,1.086,0,1,0,0,2.172H35.8a6.066,6.066,0,0,1,0-2.172Zm45.527,0a6.066,6.066,0,0,1,0,2.172h2.27a1.086,1.086,0,1,0,0-2.172ZM15.058,36.863A4.346,4.346,0,1,0,19.4,41.208,4.348,4.348,0,0,0,15.058,36.863ZM3.109,40.122a1.087,1.087,0,1,0,0,2.173H8.638a6.072,6.072,0,0,1,0-2.173Zm18.369,0a6.072,6.072,0,0,1,0,2.173H50.906a1.087,1.087,0,1,0,0-2.173Z"/><path class="b" d="M25.007,4.446a4.353,4.353,0,0,0-4.188,3.259H1.109a1.087,1.087,0,1,0,0,2.173h19.71a4.321,4.321,0,0,0,8.377,0h19.71a1.087,1.087,0,1,0,0-2.173H29.2A4.353,4.353,0,0,0,25.007,4.446Zm0,2.173a2.146,2.146,0,0,1,2.16,2.075,1.651,1.651,0,0,0,0,.2,2.161,2.161,0,0,1-4.319,0,1.651,1.651,0,0,0,0-.2A2.145,2.145,0,0,1,25.007,6.619ZM40.216,19.655a4.352,4.352,0,0,0-4.188,3.259H1.109a1.086,1.086,0,1,0,0,2.172H36.028a4.32,4.32,0,0,0,8.376,0h4.5a1.086,1.086,0,1,0,0-2.172H44.4A4.353,4.353,0,0,0,40.216,19.655Zm0,2.172a2.147,2.147,0,0,1,2.16,2.075,1.335,1.335,0,0,0,0,.2,2.162,2.162,0,0,1-4.32,0,1.668,1.668,0,0,0,0-.2A2.145,2.145,0,0,1,40.216,21.827ZM13.058,34.863A4.353,4.353,0,0,0,8.87,38.122H1.109a1.087,1.087,0,1,0,0,2.173H8.87a4.32,4.32,0,0,0,8.376,0h31.66a1.087,1.087,0,1,0,0-2.173H17.246A4.353,4.353,0,0,0,13.058,34.863Zm0,2.173a2.146,2.146,0,0,1,2.16,2.075,1.651,1.651,0,0,0,0,.2,2.162,2.162,0,0,1-4.32,0,1.651,1.651,0,0,0,0-.2A2.145,2.145,0,0,1,13.058,37.036Z"/></svg>