<svg xmlns="http://www.w3.org/2000/svg" width="50" height="50" viewBox="0 0 50 50"><defs><style>.a{fill:#fff;}.b{fill:#37474f;}</style></defs><title>Tools</title><path class="a" d="M39.018,2A17.032,17.032,0,0,0,28.879,6.4c-2.621,2.615-2.85,6.206-.66,9.935L24.8,19.747l1.23,1.2a3.816,3.816,0,0,1,4.98.179l.66.688a3.671,3.671,0,0,1,1.02,3.292l.66.688c.12,0,.24.023.36.03l2.04-2.035a10.443,10.443,0,0,0,4.889,1.377,6.837,6.837,0,0,0,4.95-2.095c2.58-2.573,5.389-8.573,4.08-12.478a.95.95,0,0,0-1.59-.359l-5.1,5.057a.95.95,0,0,1-1.23,0l-5.1-5.057a.943.943,0,0,1,0-1.227l5.1-5.087a.947.947,0,0,0-.36-1.586A6.972,6.972,0,0,0,39.018,2ZM4.4,2.091,2,4.485l4.02,7L8.63,11.1,23.6,26.031l-1.14,1.137a1.836,1.836,0,0,0,0,2.513l.66.659a1.864,1.864,0,0,0,1.89.389l.6-.21,2.1,2.095-.06.449a3.557,3.557,0,0,0,1.05,2.843L41.3,48.5A5.066,5.066,0,0,0,44.9,50a5.1,5.1,0,0,0,3.63-8.678L35.9,28.724a3.655,3.655,0,0,0-2.85-1.018l-.45.03-2.1-2.094.21-.6a1.754,1.754,0,0,0-.39-1.885l-.66-.658a1.974,1.974,0,0,0-2.52,0L26,23.637,11.03,8.705l.39-2.6ZM19.7,24.834,13.88,30.639a10.175,10.175,0,0,0-1.98-.209,9.77,9.77,0,1,0,9.779,9.785,8.22,8.22,0,0,0-.24-2.155l4.29-4.279c-.011-.146-.034-.3-.03-.449l-.63-.628a3.783,3.783,0,0,1-3.3-1.018l-.69-.658a3.707,3.707,0,0,1-.18-4.967Zm12.75,6.254L43.968,42.579l-1.38,1.376L31.069,32.464ZM13.04,35.606l3.36,3.352-1.14,4.489L10.64,44.7,7.28,41.352l1.26-4.489Z"/><path class="b" d="M36.955,0c-.285.008-.581.026-.87.06a15.065,15.065,0,0,0-3.478.867A16.542,16.542,0,0,0,26.88,4.4a6.987,6.987,0,0,0-2.159,5.053,9.845,9.845,0,0,0,1.469,4.7L24,16.359a.959.959,0,1,0,1.35,1.346l2.7-2.691a.952.952,0,0,0,.12-1.2A8.367,8.367,0,0,1,26.64,9.452a4.961,4.961,0,0,1,1.589-3.707A15.414,15.414,0,0,1,33.3,2.725a11.3,11.3,0,0,1,3.628-.688L33.3,5.625a.336.336,0,0,0-.03.06,2.844,2.844,0,0,0,.03,3.887l5.1,5.083.03.03a2.864,2.864,0,0,0,3.9-.03l3.628-3.618a11.088,11.088,0,0,1-.69,3.648,15.21,15.21,0,0,1-3.028,5.023,4.845,4.845,0,0,1-3.688,1.525,9.278,9.278,0,0,1-4.468-1.5.96.96,0,0,0-1.169.149l-1.529,1.525a.963.963,0,1,0,1.349,1.375l1.079-1.076a10.443,10.443,0,0,0,4.708,1.435,6.938,6.938,0,0,0,5.067-2.093,16.43,16.43,0,0,0,3.478-5.681,10.469,10.469,0,0,0,.6-6.787.959.959,0,0,0-1.589-.358l-5.1,5.052a.976.976,0,0,1-1.229,0c-.019-.014-.041-.014-.06-.029L34.646,8.227a.98.98,0,0,1,.06-1.286l5.037-5.023a.955.955,0,0,0-.36-1.585A6.828,6.828,0,0,0,36.955,0ZM16.985,23.8a.966.966,0,0,0-.57.3l-4.557,4.545a10.18,10.18,0,0,0-1.949-.239,9.762,9.762,0,1,0,9.775,9.777,8.389,8.389,0,0,0-.33-2.063l3.3-3.289A.963.963,0,1,0,21.3,31.458l-3.628,3.648a.959.959,0,0,0-.24,1.017,5.608,5.608,0,0,1,.33,2.063,7.8,7.8,0,0,1-7.856,7.833,7.849,7.849,0,1,1,0-15.7,8.59,8.59,0,0,1,2.069.269.967.967,0,0,0,.9-.269l4.888-4.874a.95.95,0,0,0,.217-1.057.961.961,0,0,0-.907-.587Zm13.463,5.262L41.962,40.548l-1.379,1.375L29.069,30.442ZM46.28,37.677,34.556,26.017a4.477,4.477,0,0,0-3.508-1.2l-1.589-1.615a2.582,2.582,0,0,0-.45-2.751l-.69-.658a2.685,2.685,0,0,0-3.838,0l-.48.479L10.988,7.3l.33-2.093a.955.955,0,0,0-.45-.957L3.852.213a.944.944,0,0,0-.54-.119h-.09a.963.963,0,0,0-.539.269L.284,2.755a.954.954,0,0,0-.15,1.166l4.048,7a.959.959,0,0,0,.959.449l2.1-.329L20.253,24.013l-.479.479a2.7,2.7,0,0,0,0,3.827l.659.687a2.6,2.6,0,0,0,2.759.449l1.619,1.585a4.352,4.352,0,0,0,1.2,3.5L37.7,46.228a6.074,6.074,0,0,0,8.576,0V46.2A6.144,6.144,0,0,0,46.28,37.677ZM8.26,9.363a.966.966,0,0,0-.81-.269l-1.949.3L2.173,3.622,3.552,2.247,9.339,5.565l-.3,1.944a.964.964,0,0,0,.27.807l13.343,13.3L21.6,22.668ZM44.9,44.853a4.025,4.025,0,0,1-5.816,0L27.36,33.192a2.482,2.482,0,0,1-.69-2.332.953.953,0,0,0-.27-.927l-2.189-2.182a.961.961,0,0,0-1.319-.06.8.8,0,0,1-1.079-.06l-.69-.658a.862.862,0,0,1,0-1.136l4.707-4.694a.882.882,0,0,1,1.14,0l.659.688a.792.792,0,0,1,.061,1.076.955.955,0,0,0,.06,1.316l2.188,2.182a.957.957,0,0,0,.84.269,2.8,2.8,0,0,1,2.429.688L44.9,39.053A4.223,4.223,0,0,1,44.9,44.853ZM15.1,36.242l-3.358-3.349a.972.972,0,0,0-.81-.269,1.048,1.048,0,0,0-.15.03l-4.5,1.256a.957.957,0,0,0-.66.658L4.362,39.053a.951.951,0,0,0,.24.956L7.96,43.358a.957.957,0,0,0,.929.239l4.618-1.255a.961.961,0,0,0,.69-.688l1.139-4.485A.951.951,0,0,0,15.1,36.242Zm-2.638,4.425-3.509.927L6.371,39.023,7.3,35.584l3.448-.927,2.579,2.572Z"/></svg>