<svg xmlns="http://www.w3.org/2000/svg" width="54" height="50" viewBox="0 0 54 50"><defs><style>.a{fill:#fff;}.b{fill:#37474f;}</style></defs><title>Users</title><path class="a" d="M29.982,6.239c-9.221,0-12.646,7.126-10.01,13.163a2.255,2.255,0,0,0-.747,2.112c.219,2.194,1.207,2.718,1.755,2.828.219,2.084,1.54,4.513,2.307,4.842,0,1.426-.02,2.621-.13,4.16-1.681,4.416-12.431,3.393-13.812,11.31a1.067,1.067,0,0,0,1.007,1.1H45.68a.876.876,0,0,0,.975-1.137c-1.406-7.885-12.131-6.866-13.813-11.278-.109-1.649-.13-2.734-.13-4.16.768-.329,1.991-2.868,2.21-4.842.549,0,1.426-.662,1.755-2.86.11-1.207-.341-1.97-.78-2.08,1.755-2.194,1.439-11.18-5.037-11.18Zm-12.22,5.2c-6.942.118-9.985,5.643-7.9,10.368a1.738,1.738,0,0,0-.553,1.69c.224,1.779.886,2.21,1.333,2.21A6.952,6.952,0,0,0,12.4,29.574a19.049,19.049,0,0,1-.1,2.4C11.4,34.823,2,34.612,2,41.6a1.019,1.019,0,0,0,1.04,1.04H7.752c1.589-4.493,5.907-6.223,9.165-7.507,1.8-.707,3.636-1.422,4.193-2.308.061-.967.093-1.787.1-2.7a10.956,10.956,0,0,1-2.08-4.388,5.436,5.436,0,0,1-1.982-4.062,4.68,4.68,0,0,1,.487-2.633A11.48,11.48,0,0,1,17.762,11.439Zm23.758,0a21.525,21.525,0,0,0-3.283.26,12.1,12.1,0,0,1,.13,7.443,5.031,5.031,0,0,1,.39,2.535l-.032.065v.065a5.859,5.859,0,0,1-1.95,3.965,11.286,11.286,0,0,1-1.983,4.322c0,.894.037,1.7.1,2.73.557.886,2.4,1.6,4.192,2.308,3.255,1.28,7.573,3.014,9.165,7.507H52.96A1,1,0,0,0,54,41.632c0-8.044-8.9-6.139-10.238-9.815a16.248,16.248,0,0,1-.13-2.34,6.236,6.236,0,0,0,1.69-3.77c.447,0,1.11-.459,1.333-2.243.11-.889-.219-1.547-.553-1.657C47.443,20.023,47.224,13,42.2,13Z"/><path class="b" d="M27.885,4.241c-4.635,0-8.023,1.832-9.814,4.549a8.673,8.673,0,0,0-.878,1.755l-.26-.52a1.039,1.039,0,0,0-.91-.585c-3.6,0-6.288,1.463-7.7,3.64a7.732,7.732,0,0,0-.552,6.825c-.065.105-.2.162-.26.292a3.089,3.089,0,0,0-.228,1.625v.032A4.358,4.358,0,0,0,8.029,24c.166.22.43.22.65.358a9.258,9.258,0,0,0,.682,2.177,7.14,7.14,0,0,0,.585,1.008c.069.1.187.17.26.26,0,.8-.028,1.511-.1,2.437a2.844,2.844,0,0,1-1.495,1.332c-.874.447-2.044.862-3.25,1.4a10.784,10.784,0,0,0-3.51,2.242A6.854,6.854,0,0,0,0,39.631a1.042,1.042,0,0,0,1.04,1.1H7.509a9.5,9.5,0,0,0-.325,1.917,1.042,1.042,0,0,0,1.04,1.105H43.776a1.042,1.042,0,0,0,1.04-1.105,9.605,9.605,0,0,0-.357-2.015h6.5a1.042,1.042,0,0,0,1.04-1.1,6.9,6.9,0,0,0-1.852-4.419A10.564,10.564,0,0,0,46.7,32.871c-1.194-.536-2.352-.95-3.217-1.4a2.9,2.9,0,0,1-1.463-1.333c-.069-.84-.1-1.588-.1-2.437.069-.089.191-.162.26-.26a6.634,6.634,0,0,0,.552-1.007,7.944,7.944,0,0,0,.618-2.08c.211-.134.459-.146.617-.358a4.358,4.358,0,0,0,.748-2.145,3.25,3.25,0,0,0-.163-1.559c-.048-.126-.227-.2-.292-.325a5.532,5.532,0,0,0,.552-1.69,9.078,9.078,0,0,0-.26-3.12,6.166,6.166,0,0,0-1.592-2.925,4.806,4.806,0,0,0-2.7-1.2l-.423-.975A1.042,1.042,0,0,0,38.9,9.44a14.869,14.869,0,0,0-4.388.585,7.094,7.094,0,0,0-1.527-2.242,6.031,6.031,0,0,0-3.575-1.527l-.585-1.4A1.041,1.041,0,0,0,27.885,4.241ZM27.2,6.386l.553,1.2a1.041,1.041,0,0,0,.942.617,3.875,3.875,0,0,1,2.86,1.073,5.683,5.683,0,0,1,1.463,2.665,9.3,9.3,0,0,1,.26,3.184,4.485,4.485,0,0,1-.618,1.983,1.038,1.038,0,0,0,.39,1.592c-.016-.008,0-.008.033.065a2.065,2.065,0,0,1,.1.813c0,.032,0,.032,0,.065a3.824,3.824,0,0,1-.552,1.592.689.689,0,0,1-.163.163,1.037,1.037,0,0,0-.942.909,9.082,9.082,0,0,1-.748,2.568,5.937,5.937,0,0,1-.552.942c-.122.167-.244.26-.228.26a1.037,1.037,0,0,0-.552.943c0,1.352-.008,2.437.1,4.029a1.038,1.038,0,0,0,.065.293,5.9,5.9,0,0,0,3.185,3.022c1.373.679,2.925,1.186,4.387,1.82a11.835,11.835,0,0,1,3.8,2.405,6.1,6.1,0,0,1,1.494,3.087H9.524a6.1,6.1,0,0,1,1.494-3.087,11.835,11.835,0,0,1,3.8-2.405c1.462-.634,3.014-1.141,4.387-1.82a5.9,5.9,0,0,0,3.185-3.022,1.038,1.038,0,0,0,.065-.293c.105-1.495.1-2.677.1-4.029A1.037,1.037,0,0,0,22,26.079a.17.17,0,0,0-.033-.032c-.008,0-.02,0-.032,0a1.594,1.594,0,0,1-.2-.228,6.2,6.2,0,0,1-.585-.942,7.893,7.893,0,0,1-.78-2.535,1.043,1.043,0,0,0-.845-.91c-.1-.02-.634,0-.813-1.787-.073-.8.3-1.036.26-1.008a1.035,1.035,0,0,0,.39-1.3,8.309,8.309,0,0,1-.65-4.582,1.042,1.042,0,0,0,.228-.975,6.927,6.927,0,0,1,.845-1.82C21.089,8,23.526,6.56,27.2,6.386Zm11.05,5.232.325.715a1.039,1.039,0,0,0,.942.65,2.608,2.608,0,0,1,1.982.747,4.216,4.216,0,0,1,1.04,1.95,7.012,7.012,0,0,1,.2,2.372,3.669,3.669,0,0,1-.422,1.463,1.044,1.044,0,0,0,.292,1.527,1.258,1.258,0,0,1,.033.553,2.844,2.844,0,0,1-.325,1.169,1.038,1.038,0,0,0-.91.943,5.9,5.9,0,0,1-.552,1.852,5,5,0,0,1-.39.683,2.543,2.543,0,0,0-.163.227,1.042,1.042,0,0,0-.455.845,31.808,31.808,0,0,0,.1,3.217,1.113,1.113,0,0,0,.065.26,4.8,4.8,0,0,0,2.5,2.535c1.06.549,2.254.939,3.347,1.43a8.849,8.849,0,0,1,2.8,1.82,4.45,4.45,0,0,1,1.04,1.982h-6.11a8.02,8.02,0,0,0-1.105-1.429A13.475,13.475,0,0,0,38.024,34.3c-1.568-.678-3.111-1.2-4.29-1.787a4.113,4.113,0,0,1-2.112-1.853c-.077-1.247-.1-2.181-.1-3.282.109-.126.288-.219.39-.357a7.752,7.752,0,0,0,.747-1.268,11,11,0,0,0,.78-2.8c.284-.17.626-.162.845-.455a5.645,5.645,0,0,0,.942-2.6.442.442,0,0,0,.033-.065A3.936,3.936,0,0,0,35,17.955c-.057-.134-.248-.167-.325-.293a6.717,6.717,0,0,0,.65-2.34,11.087,11.087,0,0,0-.163-3.314A14.109,14.109,0,0,1,38.252,11.618Zm-22.814.032.39.748a1.038,1.038,0,0,0,.78.585,10.559,10.559,0,0,0,.65,4.582,3.2,3.2,0,0,0-.617,2.275,3.792,3.792,0,0,0,1.787,3.152,10.376,10.376,0,0,0,.877,2.827,7.991,7.991,0,0,0,.78,1.268c.1.134.281.207.39.325,0,1.1-.02,2.088-.1,3.249a4.113,4.113,0,0,1-2.112,1.853c-1.179.585-2.722,1.109-4.29,1.787a13.475,13.475,0,0,0-4.452,2.828,7.946,7.946,0,0,0-1.17,1.527H2.342a4.459,4.459,0,0,1,1.039-1.982,8.935,8.935,0,0,1,2.828-1.82c1.105-.492,2.279-.882,3.347-1.43a4.776,4.776,0,0,0,2.535-2.5,1.032,1.032,0,0,0,.065-.292c.106-1.288.13-2.145.13-3.185a1.041,1.041,0,0,0-.488-.91,2.16,2.16,0,0,1-.162-.2,5.115,5.115,0,0,1-.423-.715,7.141,7.141,0,0,1-.617-1.982,1.04,1.04,0,0,0-.91-.878A2.844,2.844,0,0,1,9.361,21.6a1,1,0,0,1,.065-.553,1.04,1.04,0,0,0,.358-1.3,5.761,5.761,0,0,1,.292-5.525C11,12.8,12.79,11.813,15.438,11.65Z"/></svg>