<svg xmlns="http://www.w3.org/2000/svg" width="36" height="24" viewBox="0 0 36 24"><defs><style>.a{fill:#616161;}.b{fill:#f5f5f5;}</style></defs><title>ADCPinElement</title><rect class="a" x="6" width="24" height="24" rx="2.5" ry="2.5"/><path class="b" d="M26,12l-2.111-.863.3.509H21.672V9.972a.236.236,0,0,0-.236-.236H17.223a.239.239,0,0,0-.141.047l-2.7,2.028a.228.228,0,0,0-.081.128l-1.963-.8.3.509H10.353a.354.354,0,0,0,0,.708H12.63l-.3.509,1.963-.8a.228.228,0,0,0,.081.128l2.7,2.028a.239.239,0,0,0,.141.047h4.213a.236.236,0,0,0,.236-.236V12.354h2.512l-.3.509Z"/></svg>