<svg xmlns="http://www.w3.org/2000/svg" width="36" height="24" viewBox="0 0 36 24"><defs><style>.a{fill:#616161;}.b{fill:#f5f5f5;}</style></defs><title>GPIOElement</title><rect class="a" x="6" width="24" height="24" rx="2.5" ry="2.5"/><path class="b" d="M17.625,8.938a1.5,1.5,0,0,1-2.947.375h-1.3A.375.375,0,0,1,13,8.938v-3a.375.375,0,1,1,.75,0V8.563h.928a1.5,1.5,0,0,1,2.947.375Zm-1.5,2.5a1.5,1.5,0,0,0-1.447,1.125H12.25V5.938a.375.375,0,1,0-.75,0v7a.375.375,0,0,0,.375.375h2.8a1.5,1.5,0,1,0,1.447-1.875Zm0,4a1.5,1.5,0,0,0-1.447,1.125H10.75V5.938a.375.375,0,1,0-.75,0v11a.375.375,0,0,0,.375.375h4.3a1.5,1.5,0,1,0,1.447-1.875Zm3.75-5a1.5,1.5,0,0,0,1.447-1.125h1.3A.375.375,0,0,0,23,8.938v-3a.375.375,0,1,0-.75,0V8.563h-.928a1.5,1.5,0,1,0-1.447,1.875Zm0,4a1.5,1.5,0,0,0,1.447-1.125h2.8a.375.375,0,0,0,.375-.375v-7a.375.375,0,1,0-.75,0v6.625H21.322a1.5,1.5,0,1,0-1.447,1.875Zm5.75-8.875a.374.374,0,0,0-.375.375V16.563H21.322a1.5,1.5,0,1,0,0,.75h4.3A.375.375,0,0,0,26,16.938v-11A.374.374,0,0,0,25.625,5.563Z"/></svg>