<svg xmlns="http://www.w3.org/2000/svg" width="36" height="24" viewBox="0 0 36 24"><defs><style>.a{fill:#616161;}.b{fill:#f5f5f5;}</style></defs><title>RegExElement</title><rect class="a" x="6" width="24" height="24" rx="2.5" ry="2.5"/><path class="b" d="M10,12a5.461,5.461,0,0,1,3.15-4.868l.375.58A4.912,4.912,0,0,0,10.887,12a4.91,4.91,0,0,0,2.638,4.287l-.375.581A5.463,5.463,0,0,1,10,12Zm9.211-2.673-1.172.83-.307-.534,1.32-.6-1.32-.614.307-.523,1.172.819L19.1,7.28h.592L19.575,8.7l1.171-.819.307.523-1.319.614,1.319.6-.307.534-1.171-.83.114,1.422H19.1Zm3.264,6.96A4.91,4.91,0,0,0,25.113,12a4.912,4.912,0,0,0-2.638-4.288l.375-.58A5.461,5.461,0,0,1,26,12a5.463,5.463,0,0,1-3.15,4.868Zm-6.915-2.37a.75.75,0,1,0,.75.75A.75.75,0,0,0,15.56,13.917Z"/></svg>