<svg xmlns="http://www.w3.org/2000/svg" width="36" height="24" viewBox="0 0 36 24"><defs><style>.a{fill:#616161;}.b{fill:#f5f5f5;}</style></defs><title>UARTElement</title><rect class="a" x="6" width="24" height="24" rx="2.5" ry="2.5"/><path class="b" d="M23.374,15.491H21.6L18.5,11.624l2.569-3.212h2.633a1.183,1.183,0,1,0,0-.786H20.884a.4.4,0,0,0-.307.147L18,10.994,15.423,7.773a.4.4,0,0,0-.307-.147H12.294a1.183,1.183,0,1,0,0,.786h2.633L17.5,11.624,14.4,15.491H12.626l.515-.885L10.01,15.885l3.131,1.279-.515-.886h1.965a.4.4,0,0,0,.308-.148L18,12.254l3.1,3.876a.4.4,0,0,0,.308.148h1.965l-.515.886,3.131-1.279-3.131-1.279Z"/></svg>