<svg xmlns="http://www.w3.org/2000/svg" width="200" height="100" viewBox="0 0 200 100"><defs><style>.a,.b{fill:#bdbdbd;}.b{fill-rule:evenodd;}</style></defs><title>DKLogoThumb</title><path class="a" d="M122.656,54.772a11.707,11.707,0,0,1,9.28-19.279,11.555,11.555,0,0,1,3.791.753,7.605,7.605,0,0,1,12.042-3.463,11.1,11.1,0,0,1,20.707,2.138,8.318,8.318,0,0,1,1.844-.269,8.418,8.418,0,0,1,8.419,6.48,8.327,8.327,0,0,1-.011,3.756,14.224,14.224,0,0,1-1.01,28.005,9.882,9.882,0,0,1-1.3.074l-16.341.026a9.176,9.176,0,0,0,1.643-1.982l14.541-.019a9.187,9.187,0,0,0,1.337-.081,12.245,12.245,0,0,0-.276-24.255.99.99,0,0,1-.8-1.342,6.327,6.327,0,0,0,.285-3.729,6.418,6.418,0,0,0-6-4.956,6.333,6.333,0,0,0-2.7.5.989.989,0,0,1-1.366-.768,9.118,9.118,0,0,0-17.692-1.511.99.99,0,0,1-1.715.31,5.814,5.814,0,0,0-8.272-.758,4.744,4.744,0,0,0-1.682,3.339.988.988,0,0,1-1.426.767,9.658,9.658,0,0,0-4.109-1.039,9.737,9.737,0,0,0-6.391,17.3Zm57,4.065a3.792,3.792,0,1,1-6.873-2.2L159.464,41.089a3.772,3.772,0,0,1-4.885-1.325l-18.9,6.521c.01.113.017.227.017.343a3.8,3.8,0,1,1-.611-2.057l18.9-6.521c-.01-.113-.017-.227-.017-.343a3.792,3.792,0,1,1,6.873,2.2l13.322,15.546a3.758,3.758,0,0,1,1.7-.41A3.8,3.8,0,0,1,179.659,58.837Z"/><path class="a" d="M85.869,48.237h6.006L96.44,26.792H90.433ZM110.014,40.1c-.991,4.595-2.523,8.56-8.949,8.56s-6.278-3.965-5.287-8.56c.961-4.566,2.493-8.53,8.92-8.53s6.277,3.964,5.316,8.53m-8.139,4.775c1.051,0,1.5-.991,2.312-4.775.781-3.785.751-4.775-.3-4.775s-1.5.99-2.283,4.775c-.811,3.784-.78,4.775.271,4.775M111,26.792h14.176L124.1,31.839h-4.085l-3.483,16.4h-6.007l3.485-16.4h-4.086ZM89.263,56.841c.211-.9,0-1.743-1.021-1.743A1.885,1.885,0,0,0,86.5,56.721c-.9,4.264,8.529,2.072,6.878,9.73-1.051,4.987-3.785,6.968-9.34,6.968-4.595,0-6.788-1.562-5.8-6.277l.12-.57h5.827l-.21.991c-.211,1.051.06,1.892,1.111,1.892,1.11,0,1.681-.961,1.861-1.892.3-1.382-.149-1.683-.811-2.134-.72-.449-1.712-.869-2.672-1.41-2.913-1.622-3.754-2.794-3.064-5.977.632-2.974,1.863-4.595,3.455-5.587a9.725,9.725,0,0,1,5.195-1.321c6.067,0,6.427,3,5.676,6.577H89.083Zm10.66-4.866h5.826l-1.021,4.775h2.042l-.81,3.784h-2.042l-1.532,7.239c-.21,1.051-.181,1.5.78,1.5a3.677,3.677,0,0,0,.962-.09l-.812,3.875c-.51.06-2.072.18-2.943.18-3.333,0-4.955-.12-4.174-3.784l1.892-8.921H96.319l.811-3.784H98.9Zm14.324,19.162h-.061a5.632,5.632,0,0,1-4.774,2.282c-2.073,0-3.725-1.141-3.094-4.114l2.673-12.554h5.826L112.534,67.5c-.269,1.231.06,1.592.812,1.592.78,0,1.291-.661,1.5-1.592l2.283-10.752h5.826L119.5,73h-5.647Zm20.18-19.582h5.826L135.689,73h-5.737l.391-1.862h-.06a3.85,3.85,0,0,1-3.815,2.282c-5.076,0-4.024-4.955-3.213-8.8.992-4.566,2.433-8.29,6.487-8.29a2.923,2.923,0,0,1,3.123,2.312h.061Zm-3.183,9.1c-1.141,0-1.562,1.171-2.193,4.2-.661,3.063-.72,4.234.42,4.234s1.562-1.171,2.223-4.234c.632-3.034.69-4.2-.45-4.2m30.571,4.2c-.991,4.595-2.522,8.559-8.95,8.559s-6.277-3.964-5.286-8.559c.962-4.565,2.493-8.53,8.921-8.53s6.276,3.965,5.315,8.53m-8.139,4.775c1.052,0,1.5-.991,2.313-4.775.78-3.785.751-4.775-.3-4.775s-1.5.99-2.283,4.775c-.811,3.784-.78,4.775.271,4.775M141.363,56.751h5.827L143.735,73h-5.826Zm1.091-5.2-.82,3.905h5.826l.82-3.905Z"/><path class="a" d="M86.311,26.816H68.425l-6.517,7.817,1.578-7.817H48.763l-.633,3.135a5.471,5.471,0,0,0-.672-1.052l0,0a5.9,5.9,0,0,0-4.616-2.08H19.316L10,72.972H34.267a8.026,8.026,0,0,0,5.712-2.64l-.533,2.639H54.17L56,63.89l3.1,9.081H74.644L66.4,50.105ZM34.267,71.738H11.507L20.326,28.05H42.841a4.608,4.608,0,0,1,3.66,1.628h0a4.5,4.5,0,0,1,.994,2.888,5.511,5.511,0,0,1-.115,1.1L40.809,66.253A7.034,7.034,0,0,1,34.267,71.738Zm38.621,0H59.981L55.7,59.169,53.159,71.737h-12.2L49.773,28.05H61.979L59.735,39.167,69,28.05h14.63l-18.642,21.8Z"/><path class="a" d="M25.538,62.724h3.776l5.172-25.661H30.71ZM32.979,38.3,28.3,61.49H27.045L31.721,38.3Z"/><polygon class="b" points="80.954 29.284 69.581 29.284 57.56 43.703 60.47 29.284 50.783 29.284 42.462 70.503 52.15 70.503 55.391 54.448 60.864 70.503 71.13 70.503 63.587 49.592 80.954 29.284"/><path class="b" d="M45.546,30.46a3.405,3.405,0,0,0-2.7-1.176H21.336L13.015,70.5H34.266a5.824,5.824,0,0,0,5.333-4.5l6.573-32.582a4.34,4.34,0,0,0,.09-.859,3.275,3.275,0,0,0-.716-2.107m-15.222,33.5H24.03L29.7,35.829h6.295Z"/></svg>