<svg xmlns="http://www.w3.org/2000/svg" width="357" height="180" viewBox="0 0 357 180"><defs><style>.a9a6d0ed-a10f-46f8-9ecc-a7cb28a0aa43{fill:#37474f;}.a13a5294-4f02-4f1d-a099-1f352e776f69{fill:#00acc1;}</style></defs><title>Asset 4</title><g id="b5a4309c-2cea-4047-a777-a35f3551ff7b" data-name="Layer 2"><g id="bdb65adf-6c62-4826-8d5a-3f41bc5347d2" data-name="Company Bottom"><rect class="a9a6d0ed-a10f-46f8-9ecc-a7cb28a0aa43" width="357" height="180"/><path class="a13a5294-4f02-4f1d-a099-1f352e776f69" d="M220.57,66.73C220.57,54.27,208.68,45,196,45a23.2,23.2,0,0,0-20,10.66,19.72,19.72,0,0,0-12-3.65,20.19,20.19,0,0,0-19.43,16l-1,0a24.15,24.15,0,0,0-24.12,24.12c0,11,6.25,19.08,17.47,23.43l7.83-17.92c3.63-.72,5.93-5.11,2.86-9.14-4.4-3.36-9.25-.29-9.25,3.91a5.27,5.27,0,0,0,.76,2.7l-5.21,11.93c-.26.09-13-7.44-6.81-22.15,2.45-5.8,11.47-13.13,22.95-10.36,0,0,.09-1.36.41-3.36,1-6.58,6.32-12.59,13.74-12.59a16.81,16.81,0,0,1,10.49,3.81,15.06,15.06,0,0,1,3.14,3s.89-1.95,1.8-3.54c2.95-5.19,9.2-10.16,16.41-10.16,10,0,19.6,8,17.94,21.27h.1c12.07,1.32,18.34,9.71,18.34,18.24,0,10.26-10.37,18.81-19.39,18.93-2.73,0-5.37,0-7.2,0l5.15-11.81c4.06-.6,6.76-5.41,3.39-9.9-4.77-3.65-10-.33-10,4.22a5.72,5.72,0,0,0,1,3.19L196,117.27h15.56c16.87,0,28.1-13.54,28.1-26.17C239.62,80.93,234.23,70.7,220.57,66.73ZM208.15,90.88A2.7,2.7,0,0,1,212,94.69,2.7,2.7,0,0,1,208.15,90.88ZM196.92,78l-17.19,39.3H173L191.3,75.4c-1.06-1.81-1.23-4.22,1-6.82,4.31-2.94,8.9.07,8.9,4.16A5.33,5.33,0,0,1,196.92,78Zm-21.28,4.55c0-4.54-5.24-7.85-10-4.24-2.05,2.68-1.9,5.48-.59,7.45L148.4,123.89c-3.87.68-6.39,5.3-3.15,9.6,4.62,3.54,9.72.32,9.72-4.09a5.56,5.56,0,0,0-.91-3.05l16.68-38.14A5.75,5.75,0,0,0,175.64,82.53Zm-24.42,48.72a2.62,2.62,0,0,1-3.7-3.7A2.62,2.62,0,0,1,151.22,131.25ZM168,84.43a2.7,2.7,0,0,1,3.81-3.81A2.7,2.7,0,0,1,168,84.43Z"/></g></g></svg>