<svg xmlns="http://www.w3.org/2000/svg" xmlns:xlink="http://www.w3.org/1999/xlink" width="29" height="10.46" viewBox="0 0 29 10.46"><defs><style>.b7437114-ca89-4b90-8eed-fe63d24b7999{fill:none;}.a771adad-a588-4b97-af2c-d2cd6143b3c3{clip-path:url(#a2aa4f61-99d3-40e6-9ebe-5a4d88329702);}.f05db3c1-4a8f-4352-9a9c-1099f79a7cc1{fill:#7dafdc;}.a2b2507e-5c54-4b34-91db-ef0f7de37d7c{fill:#91823c;}.b9dacb03-47fa-4114-9dcd-36dc6eb310e1{fill:#7d963c;}.ba57a3ce-8310-4950-bae2-aa80fea69b99{fill:#c8d200;}.a0146bf0-eee4-4bd0-88e7-832e855227d1{fill:#fab400;}</style><clipPath id="a2aa4f61-99d3-40e6-9ebe-5a4d88329702" transform="translate(0 -9.27)"><circle class="b7437114-ca89-4b90-8eed-fe63d24b7999" cx="14.5" cy="14.5" r="14.5"/></clipPath></defs><title>Asset 3</title><g id="b66a352c-0f87-481d-b38e-a68029299b02" data-name="Layer 2"><g id="ff7733ea-62f3-48d7-8922-22ffa6cada20" data-name="Company Bottom"><g class="a771adad-a588-4b97-af2c-d2cd6143b3c3"><polygon class="f05db3c1-4a8f-4352-9a9c-1099f79a7cc1" points="17.39 0 16.81 0 14.64 3.48 12.47 0 11.88 0 11.88 10.46 12.47 10.46 14.64 6.99 16.81 10.46 17.4 10.46 17.39 10.46 17.39 0"/><polygon class="a2b2507e-5c54-4b34-91db-ef0f7de37d7c" points="11.88 0 8.66 0 11.87 5.23 8.66 10.46 11.88 10.46 11.88 0"/><polygon class="b9dacb03-47fa-4114-9dcd-36dc6eb310e1" points="20.61 0 17.39 0 17.39 10.46 17.4 10.46 20.61 10.46 17.4 5.23 20.61 0"/><path class="ba57a3ce-8310-4950-bae2-aa80fea69b99" d="M25.2,9.27H20.61L17.4,14.5l3.21,5.23h0V17.42H26c2.28,0,3-1.79,3-3.35V12.84C29,10.8,28.26,9.27,25.2,9.27Zm.8,4.22c0,.62-.29,1.33-1,1.33H20.62v-3h4.06c1,0,1.32.41,1.32,1.11Z" transform="translate(0 -9.27)"/><polygon class="a0146bf0-eee4-4bd0-88e7-832e855227d1" points="11.87 5.23 8.66 0 8.66 0 8.66 6.32 3.22 0 0 0 0 10.46 3.22 10.46 3.22 4.14 8.66 10.46 11.87 5.23"/></g></g></g></svg>