<svg xmlns="http://www.w3.org/2000/svg" width="200" height="100" viewBox="0 0 200 100"><defs><style>.a{fill:#bdbdbd;}</style></defs><title>NXPLogoThumb</title><path class="a" d="M99.085,79.024h2.676c2.026,0,4.169.3,4.169,2.883a2.733,2.733,0,0,1-2.617,2.765l2.972,4.82h-1.523l-2.838-4.7h-1.6v4.7H99.085Zm1.242,4.613h1.109c1.375,0,3.164,0,3.164-1.73,0-1.508-1.316-1.729-2.528-1.729h-1.745Z"/><path class="a" d="M111.519,79.024h1.168l4.451,10.468h-1.449l-1.065-2.573H109.39l-1.079,2.573h-1.405Zm.562,1.6h-.029l-2.174,5.145h4.273Z"/><path class="a" d="M118.528,79.024h3.1c1.922,0,3.666.68,3.666,2.869,0,2.291-1.951,2.9-3.43,2.9h-2.1v4.7h-1.242Zm1.242,4.613h2.1c1.242,0,2.1-.562,2.1-1.73s-.858-1.729-2.1-1.729h-2.1Z"/><path class="a" d="M127.3,79.024h1.242V89.492H127.3Z"/><path class="a" d="M130.947,79.024h4.022a5.235,5.235,0,0,1,0,10.468h-4.022Zm1.242,9.315h2.366c2.395,0,4.213-1.213,4.213-4.081s-1.818-4.08-4.213-4.08h-2.366Z"/><path class="a" d="M146.206,79.024h1.242V89.492h-1.242Z"/><path class="a" d="M149.444,84.258a5.471,5.471,0,1,1,5.47,5.5A5.313,5.313,0,0,1,149.444,84.258Zm9.61,0a4.145,4.145,0,1,0-4.14,4.347A4.137,4.137,0,0,0,159.054,84.258Z"/><path class="a" d="M169.4,80.178h-3.46v9.314H164.7V80.178h-3.459V79.024H169.4Z"/><path class="a" d="M113.166,50l14.586,23.755-14.585,0h-2.7l-9.848-15.794L90.773,73.758H73.489L88.076,50,73.489,26.242H90.773l9.848,15.794,9.848-15.794h17.284ZM169.4,42.483v5.583c0,7.073-3.1,15.194-13.443,15.194H131.315l.007,10.495h-.006L116.73,50l14.587-23.758h20.821C166.042,26.242,169.4,33.183,169.4,42.483Zm-13.622.59c0-3.209-1.583-5.043-6-5.043H131.335V51.471h19.7c3.427,0,4.745-3.241,4.745-6.058ZM84.512,50,69.925,26.242h-.007V54.955L45.2,26.242H30.6V73.758l14.619,0-.006-28.71L69.925,73.758Z"/></svg>