<svg id="a9b85b35-7562-43ac-b545-8bf25f35a9b7" data-name="Logos" xmlns="http://www.w3.org/2000/svg" width="200" height="80" viewBox="0 0 200 80"><defs><style>.\36 8367fe0-310e-4c1d-9f87-2ce2800f1e1d{fill:#bdbdbd;}</style></defs><title>AMS</title><path class="68367fe0-310e-4c1d-9f87-2ce2800f1e1d" d="M92.26,24a9.92,9.92,0,0,0-8.78,4.72V24.93H76.73V55.07h7.19V38.77a10.8,10.8,0,0,1,1.15-5.22,5.6,5.6,0,0,1,5.16-2.8,5.32,5.32,0,0,1,4.94,2.8,11,11,0,0,1,.93,5V55.07h7.19V38.55a9.53,9.53,0,0,1,1-5,5.66,5.66,0,0,1,5.22-2.75c2.52,0,4,1,4.72,2.47a10.27,10.27,0,0,1,1.21,5.6V55.07h7.19V38.55c0-6.21-.55-8.68-3.3-11.53A11.78,11.78,0,0,0,103.68,27a12.69,12.69,0,0,0-2.2,2.86,13.86,13.86,0,0,0-1.81-2.75A9.79,9.79,0,0,0,92.26,24Zm35.57.94a1.06,1.06,0,1,0,1,1A1,1,0,0,0,127.83,24.94Zm2.38,0c-.43,0-.76.32-1,1q.25,1.14,1.14,1.14c.64-.2,1-.53,1-1v-.17c0-.54-.33-.86-1-1Zm2.55,0c-.46,0-.78.32-1,1,0,.58.35,1,1.06,1.14q.92,0,1.05-1.14c0-.54-.32-.87-1-1Zm7.61,0c-.44,0-.76.32-1,1q.27,1.14,1.14,1.14c.65-.2,1-.53,1-1v-.17c0-.54-.32-.86-1-1Zm2.54,0c-.45,0-.77.32-1,1,0,.58.35,1,1.05,1.14q.93,0,1.05-1.14c0-.54-.32-.87-1-1Zm2.55,0c-.44,0-.77.32-1,1q.27,1.14,1.14,1.14c.65-.2,1-.53,1-1v-.17c0-.54-.32-.86-1-1ZM148,25c-.44,0-.76.32-1,1q.26,1.14,1.14,1.14c.64-.2,1-.53,1-1v-.17c0-.54-.32-.86-1-1Zm2.46,0c-.44,0-.76.32-1,1q.27,1.14,1.14,1.14c.65-.2,1-.53,1-1v-.17c0-.54-.32-.86-1-1ZM153,25c-.45,0-.78.32-1,1,0,.58.35,1,1.05,1.14q.91,0,1-1.14c0-.54-.32-.87-1-1Zm2.55,0c-.44,0-.77.32-1,1,.17.76.56,1.14,1.14,1.14.64-.2,1-.53,1-1v-.17c0-.54-.33-.86-1-1Zm2.54,0c-.44,0-.76.32-1,1q.27,1.14,1.14,1.14c.65-.2,1-.53,1-1v-.17c0-.54-.32-.86-1-1Zm-30.42,2.55c-.44,0-.76.32-1,1,0,.62.37,1,1.13,1.13.65-.2,1-.52,1-1v-.17c0-.55-.32-.87-1-1Zm2.54,0c-.43,0-.76.32-1,1,.17.75.55,1.13,1.14,1.13.64-.2,1-.52,1-1v-.17c0-.55-.33-.87-1-1Zm10.16,0c-.44,0-.76.32-1,1,.18.75.56,1.13,1.14,1.13.65-.2,1-.52,1-1v-.17c0-.55-.32-.87-1-1Zm5.09,0c-.44,0-.77.32-1,1,0,.62.38,1,1.14,1.13.65-.2,1-.52,1-1v-.17c0-.55-.32-.87-1-1Zm2.54,0c-.44,0-.76.32-1,1,.17.75.55,1.13,1.14,1.13q1-.3,1-1v-.17c0-.55-.32-.87-1-1Zm2.46,0c-.44,0-.76.32-1,1,.18.75.56,1.13,1.14,1.13.65-.2,1-.52,1-1v-.17c0-.55-.32-.87-1-1Zm5.09,0c-.44,0-.77.32-1,1,0,.62.38,1,1.14,1.13.64-.2,1-.52,1-1v-.17c0-.55-.33-.87-1-1Zm2.54,0c-.44,0-.76.32-1,1,.18.75.56,1.13,1.14,1.13.65-.2,1-.52,1-1v-.17c0-.55-.32-.87-1-1Zm-25.33,0c-.44,0-.76.32-1,1,0,.62.39,1,1.14,1.13.54,0,.87-.38,1-1.13,0-.55-.32-.87-1-1Zm10.15,0c-.44,0-.76.32-1,1,0,.62.38,1,1.14,1.13.54,0,.86-.38,1-1.13,0-.55-.32-.87-1-1h-.18Zm10.09,0c-.44,0-.76.32-1,1,0,.62.37,1,1.14,1.13.54,0,.86-.38,1-1.13,0-.55-.32-.87-1-1H153Zm-25.16,2.54c-.76.1-1.13.43-1.13,1a1.17,1.17,0,0,0,1,1.14c.76-.12,1.14-.44,1.14-1V31C128.81,30.49,128.49,30.16,127.84,30.06Zm2.55,0c-.76.1-1.14.43-1.14,1a1.17,1.17,0,0,0,1,1.14c.76-.12,1.15-.44,1.15-1V31C131.36,30.49,131,30.16,130.39,30.06Zm10.15,0c-.76.1-1.14.43-1.14,1a1.17,1.17,0,0,0,1,1.14c.76-.12,1.14-.44,1.14-1V31C141.51,30.49,141.19,30.16,140.54,30.06Zm5.09,0c-.76.1-1.14.43-1.14,1a1.17,1.17,0,0,0,1,1.14c.76-.12,1.14-.44,1.14-1V31C146.6,30.49,146.28,30.16,145.63,30.06Zm2.55,0c-.76.1-1.14.43-1.14,1a1.17,1.17,0,0,0,1,1.14c.76-.12,1.14-.44,1.14-1V31C149.14,30.49,148.82,30.16,148.18,30.06Zm2.45,0c-.76.1-1.14.43-1.14,1a1.17,1.17,0,0,0,1,1.14c.75-.12,1.14-.44,1.14-1V31C151.6,30.49,151.28,30.16,150.63,30.06Zm5.09,0c-.76.1-1.14.43-1.14,1a1.17,1.17,0,0,0,1,1.14c.76-.12,1.14-.44,1.14-1V31c0-.54-.33-.87-1-1Zm2.54,0c-.76.1-1.14.43-1.14,1a1.17,1.17,0,0,0,1,1.14c.76-.12,1.14-.44,1.14-1V31C159.23,30.49,158.91,30.16,158.26,30.06Zm-25.33,0c-.75.1-1.14.43-1.14,1,.15.76.47,1.14,1,1.14.69,0,1.06-.38,1.14-1.14,0-.54-.32-.87-1-1Zm10.16,0c-.76.1-1.14.43-1.14,1,.14.76.47,1.14,1,1.14q1,0,1.14-1.14C144.05,30.49,143.73,30.16,143.09,30.06Zm10.09,0c-.77.1-1.14.43-1.14,1q.21,1.14,1,1.14,1,0,1.14-1.14C154.14,30.49,153.82,30.16,153.18,30.06ZM65.36,24.93v4.4C64.05,26.91,60.7,24,55.21,24,46.76,24,39.9,30.48,39.9,40c0,8.51,5.65,16,15.31,16,4.23,0,8.23-1.76,10.15-5.27v4.34h7.19V24.93ZM64.27,44.47a8.54,8.54,0,0,1-8,4.83,9,9,0,0,1-9.16-9.16v-.06c0-4.66,3.29-9.38,9.11-9.38A8.86,8.86,0,0,1,64.6,36a9.51,9.51,0,0,1,.82,4.23A10.34,10.34,0,0,1,64.27,44.47Zm63.57-11.86c-.76.1-1.13.42-1.13,1q.17,1.14,1.05,1.14c.7-.14,1-.47,1-1v-.18C128.81,33,128.49,32.71,127.84,32.61Zm2.46,0q-.81,0-1.05,1,.3,1.05,1.05,1.05c.71-.14,1.06-.47,1.06-1v-.18c0-.54-.33-.86-1-1Zm2.63,0c-.75.1-1.14.42-1.14,1,.12.76.47,1.14,1.06,1.14s1-.38,1.05-1.14C133.9,33,133.58,32.71,132.93,32.61Zm7.52,0q-.81,0-1,1,.32,1.05,1,1.05c.71-.14,1.06-.47,1.06-1v-.18c0-.54-.32-.86-1-1Zm2.64,0q-1.14.15-1.14,1c.11.76.47,1.14,1.05,1.14s1-.38,1.05-1.14Q144.05,32.76,143.09,32.61Zm2.54,0q-1.14.15-1.14,1,.18,1.14,1,1.14c.71-.14,1.06-.47,1.06-1v-.18C146.6,33,146.28,32.71,145.63,32.61Zm7.55,0c-.77.1-1.14.42-1.14,1q.17,1.14,1.05,1.14t1-1.14Q154.14,32.76,153.18,32.61Zm2.54,0q-1.14.15-1.14,1c.12.76.47,1.14,1.06,1.14s1.05-.47,1.05-1v-.18C156.69,33,156.36,32.71,155.72,32.61Zm2.46,0c-.54,0-.9.35-1.06,1,.21.7.56,1.05,1.06,1.05.7-.14,1-.47,1-1v-.18c0-.54-.32-.86-1-1Zm-30.42,2.54c-.5,0-.85.32-1.05,1q.17,1.14,1.05,1.14c.7-.15,1-.47,1-1v-.17c0-.55-.32-.87-1-1Zm2.54,0q-.81,0-1.05,1.05c0,.55.35.9,1.05,1.06.71-.15,1.06-.47,1.06-1v-.17c0-.55-.33-.87-1-1Zm2.63,0c-.75.1-1.14.42-1.14,1q.18,1.14,1.05,1.14c.71-.15,1.06-.47,1.06-1v-.17C133.74,35.47,133.42,35.15,132.93,35.15Zm7.52,0q-.81,0-1,1.05c0,.55.35.9,1,1.06.71-.15,1.06-.47,1.06-1v-.17c0-.55-.32-.87-1-1Zm2.64,0c-.76.1-1.14.42-1.14,1,.11.76.47,1.14,1.05,1.14s1.05-.47,1.05-1v-.17C143.89,35.47,143.57,35.15,143.09,35.15Zm2.45,0c-.49,0-.85.32-1,1q.18,1.14,1,1.14c.71-.15,1.06-.47,1.06-1v-.17c0-.55-.32-.87-1-1Zm7.64,0c-.77.1-1.14.42-1.14,1q.17,1.14,1.05,1.14c.7-.15,1-.47,1-1v-.17c-.16-.65-.48-1-1-1Zm2.46,0c-.5,0-.86.32-1.06,1,.12.76.47,1.14,1.06,1.14s1.05-.47,1.05-1v-.17c0-.55-.33-.87-1-1Zm2.54,0c-.54,0-.9.35-1.06,1.05,0,.55.35.9,1.06,1.06.7-.15,1-.47,1-1v-.17c0-.55-.32-.87-1-1ZM127.76,37.7q-.75,0-1.05,1a1.17,1.17,0,0,0,.87,1.14q1.23-.11,1.23-1v-.18C128.81,38.17,128.46,37.84,127.76,37.7Zm2.54,0q-.81,0-1.05,1c0,.45.29.8.88,1q1.23-.11,1.23-1v-.18C131.36,38.14,131,37.81,130.3,37.7Zm2.54,0q-.74,0-1.05,1a1.17,1.17,0,0,0,.88,1.14q1.23-.11,1.23-1v-.18C133.9,38.17,133.55,37.84,132.84,37.7Zm7.61,0q-.81,0-1,1c0,.45.29.8.88,1q1.23-.11,1.23-1v-.18C141.51,38.14,141.16,37.81,140.45,37.7Zm2.55,0q-.75,0-1.05,1a1.17,1.17,0,0,0,.88,1.14c.81-.07,1.22-.39,1.22-1v-.18C144.05,38.17,143.7,37.84,143,37.7Zm2.54,0c-.49,0-.85.32-1,1a1.18,1.18,0,0,0,.88,1.14q1.23-.11,1.23-1v-.18C146.6,38.17,146.25,37.84,145.54,37.7Zm7.55,0q-.75,0-1.05,1a1.17,1.17,0,0,0,.87,1.14q1.23-.11,1.23-1v-.18c0-.49-.35-.82-1-1Zm2.55,0c-.5,0-.86.32-1.06,1a1.17,1.17,0,0,0,.88,1.14q1.23-.11,1.23-1v-.18c0-.49-.35-.82-1.05-1Zm2.54,0c-.54,0-.9.35-1.06,1,0,.45.3.8.88,1q1.23-.11,1.23-1v-.18C159.23,38.14,158.88,37.81,158.18,37.7Zm-30.42,2.54c-.5,0-.85.32-1.05,1a1.16,1.16,0,0,0,.87,1.14c.82-.08,1.23-.4,1.23-1v-.17C128.81,40.71,128.46,40.39,127.76,40.24Zm2.54,0q-.81,0-1.05,1c0,.46.29.81.88,1.06.82,0,1.23-.33,1.23-1v-.17C131.36,40.71,131,40.39,130.3,40.24Zm2.54,0c-.49,0-.84.32-1.05,1a1.17,1.17,0,0,0,.88,1.14c.82-.08,1.23-.4,1.23-1v-.17C133.9,40.71,133.55,40.39,132.84,40.24Zm7.61,0q-.81,0-1,1c0,.46.29.81.88,1.06.82,0,1.23-.33,1.23-1v-.17C141.51,40.71,141.16,40.39,140.45,40.24Zm2.55,0c-.5,0-.85.32-1.05,1a1.17,1.17,0,0,0,.88,1.14c.81-.08,1.22-.4,1.22-1v-.17C144.05,40.71,143.7,40.39,143,40.24Zm2.54,0c-.49,0-.85.32-1,1a1.18,1.18,0,0,0,.88,1.14c.82-.08,1.23-.4,1.23-1v-.17C146.6,40.71,146.25,40.39,145.54,40.24Zm7.55,0c-.5,0-.85.32-1.05,1a1.17,1.17,0,0,0,.87,1.14c.82-.08,1.23-.4,1.23-1v-.17c0-.5-.35-.82-1-1Zm2.55,0c-.5,0-.86.32-1.06,1a1.17,1.17,0,0,0,.88,1.14c.82-.08,1.23-.4,1.23-1v-.17c0-.5-.35-.82-1.05-1Zm2.54,0c-.54,0-.9.35-1.06,1,0,.46.3.81.88,1.06.82,0,1.23-.33,1.23-1v-.17C159.23,40.71,158.88,40.39,158.18,40.24Zm-30.34,2.55c-.76.14-1.13.46-1.13,1q.17,1.14,1.05,1.14h.08c.55,0,.87-.32,1-1v-.17C128.81,43.29,128.49,43,127.84,42.79Zm2.55,0q-1.14.2-1.14,1.05t1.05,1h.09c.54,0,.87-.32,1-1v-.17C131.36,43.29,131,43,130.39,42.79Zm2.54,0c-.75.14-1.14.46-1.14,1,0,.69.39,1.07,1.14,1.14.65-.16,1-.48,1-1v-.17C133.9,43.29,133.58,43,132.93,42.79Zm7.61,0q-1.14.2-1.14,1.05t1,1h.09c.54,0,.87-.32,1-1v-.17C141.51,43.29,141.19,43,140.54,42.79Zm2.55,0q-1.14.21-1.14,1,0,1,1.14,1.14c.64-.16,1-.48,1-1v-.17C144.05,43.29,143.73,43,143.09,42.79Zm2.54,0q-1.14.21-1.14,1,.18,1.14,1,1.14h.09c.54,0,.86-.32,1-1v-.17C146.6,43.29,146.28,43,145.63,42.79Zm7.55,0c-.77.14-1.14.46-1.14,1,0,.69.37,1.07,1.14,1.14.64-.16,1-.48,1-1v-.17C154.14,43.29,153.82,43,153.18,42.79Zm2.54,0q-1.14.21-1.14,1c.12.76.47,1.14,1.06,1.14h.08c.54,0,.86-.32,1-1v-.17C156.69,43.29,156.36,43,155.72,42.79Zm2.54,0q-1.14.2-1.14,1.05c0,.55.35.9,1.06,1h.08c.55,0,.87-.32,1-1v-.17C159.23,43.29,158.91,43,158.26,42.79Zm-30.42,2.54c-.76.15-1.13.47-1.13,1,0,.69.37,1.07,1.13,1.15.55,0,.87-.33,1-1v-.18C128.81,45.84,128.49,45.52,127.84,45.33Zm2.55,0q-.88,0-1.14,1.05c0,.56.35.91,1.05,1.06h.09c.54,0,.87-.33,1-1v-.18C131.36,45.84,131,45.52,130.39,45.33Zm2.63,0c-.82.1-1.23.42-1.23,1s.39,1.06,1.14,1.14c.54,0,.87-.33,1-1A1.13,1.13,0,0,0,133,45.33Zm7.52,0q-.87,0-1.14,1.05c0,.56.35.91,1,1.06h.09c.54,0,.87-.33,1-1v-.18C141.51,45.84,141.19,45.52,140.54,45.33Zm2.64,0c-.82.1-1.23.42-1.23,1s.38,1.06,1.14,1.14c.54,0,.86-.33,1-1A1.14,1.14,0,0,0,143.18,45.33Zm2.45,0q-1.14.22-1.14,1c0,.69.38,1.07,1.14,1.15.54,0,.86-.33,1-1v-.18C146.6,45.84,146.28,45.52,145.63,45.33Zm7.63,0c-.82.1-1.22.42-1.22,1s.37,1.06,1.14,1.14c.54,0,.86-.33,1-1a1.13,1.13,0,0,0-.88-1.14Zm2.46,0q-1.14.22-1.14,1c0,.69.38,1.07,1.14,1.15.54,0,.86-.33,1-1v-.18C156.69,45.84,156.36,45.52,155.72,45.33Zm2.54,0q-.87,0-1.14,1.05c0,.56.35.91,1.06,1.06h.08c.55,0,.87-.33,1-1v-.18C159.23,45.84,158.91,45.52,158.26,45.33Zm-30.42,2.54a1.16,1.16,0,0,0-1.13,1c0,.68.37,1.07,1.13,1.14.55,0,.87-.32,1-1v-.17C128.81,48.4,128.49,48.08,127.84,47.87Zm2.55,0c-.63,0-1,.39-1.14,1.14,0,.54.38.87,1.14,1,.54,0,.87-.32,1-1v-.17C131.36,48.4,131,48.08,130.39,47.87Zm10.15,0c-.63,0-1,.39-1.14,1.14,0,.54.38.87,1.14,1,.54,0,.87-.32,1-1v-.17C141.51,48.4,141.19,48.08,140.54,47.87Zm5.09,0a1.17,1.17,0,0,0-1.14,1c0,.68.38,1.07,1.14,1.14.54,0,.86-.32,1-1v-.17C146.6,48.4,146.28,48.08,145.63,47.87Zm10.09,0a1.17,1.17,0,0,0-1.14,1c0,.68.38,1.07,1.14,1.14.54,0,.86-.32,1-1v-.17C156.69,48.4,156.36,48.08,155.72,47.87Zm2.54,0c-.62,0-1,.39-1.14,1.14,0,.54.38.87,1.14,1,.55,0,.87-.32,1-1v-.17C159.23,48.4,158.91,48.08,158.26,47.87Zm-25.33,0c-.75.14-1.14.46-1.14,1,0,.69.39,1.06,1.14,1.14.54,0,.87-.32,1-1-.1-.75-.43-1.13-1-1.13Zm2.55,0q-1.14.21-1.14,1c0,.69.38,1.06,1.14,1.14.54,0,.86-.32,1-1C136.34,48.26,136,47.88,135.48,47.88Zm2.45,0c-.76.14-1.13.46-1.13,1,0,.69.37,1.06,1.13,1.14.55,0,.87-.32,1-1C138.8,48.26,138.48,47.88,137.93,47.88Zm5.16,0q-1.14.21-1.14,1c0,.69.38,1.06,1.14,1.14.54,0,.86-.32,1-1C144,48.26,143.63,47.88,143.09,47.88Zm10.09,0c-.77.14-1.14.46-1.14,1,0,.69.37,1.06,1.14,1.14.54,0,.86-.32,1-1C154,48.26,153.72,47.88,153.18,47.88Zm-25.34,2.54c-.62,0-1,.38-1.13,1.14.2.64.52,1,1,1h.17c.55,0,.87-.33,1-1v-.18C128.81,50.94,128.49,50.62,127.84,50.42Zm2.55,0q-1.14.26-1.14,1.14c.2.64.53,1,1,1h.18c.54,0,.87-.33,1-1v-.18C131.36,50.94,131,50.62,130.39,50.42Zm10.15,0q-1.14.26-1.14,1.14c.21.64.53,1,1,1h.17c.54,0,.87-.33,1-1v-.18C141.51,50.94,141.19,50.62,140.54,50.42Zm5.09,0q-.94,0-1.14,1.14c.2.64.53,1,1,1h.17c.54,0,.86-.33,1-1v-.18C146.6,50.94,146.28,50.62,145.63,50.42Zm10.09,0q-.94,0-1.14,1.14c.2.64.53,1,1,1h.17c.54,0,.86-.33,1-1v-.18C156.69,50.94,156.36,50.62,155.72,50.42Zm2.54,0q-1.14.26-1.14,1.14c.21.64.53,1,1,1h.17c.55,0,.87-.33,1-1v-.18C159.23,50.94,158.91,50.62,158.26,50.42Zm-25.33,0a1.17,1.17,0,0,0-1.14,1c.12.76.44,1.14,1,1.14h.17c.54,0,.87-.32,1-1C133.8,50.8,133.47,50.42,132.93,50.42Zm2.55,0a1.17,1.17,0,0,0-1.14,1c.11.76.44,1.14,1,1.14h.18q.81,0,1-1Q136.29,50.42,135.48,50.42Zm2.45,0a1.16,1.16,0,0,0-1.13,1q.16,1.14,1,1.14h.17c.55,0,.87-.32,1-1C138.8,50.8,138.48,50.42,137.93,50.42Zm5.16,0a1.16,1.16,0,0,0-1.14,1c.11.76.44,1.14,1,1.14h.18q.81,0,1-1Q143.9,50.42,143.09,50.42Zm10.09,0a1.16,1.16,0,0,0-1.14,1q.17,1.14,1,1.14h.18q.81,0,1-1Q154,50.42,153.18,50.42ZM130.39,53c-.51,0-.89.36-1.14,1,.16.71.48,1.06,1,1.06h.09A.93.93,0,0,0,131.36,54v-.08C131.36,53.49,131,53.17,130.39,53Zm10.15,0c-.51,0-.89.36-1.14,1,.16.71.48,1.06,1,1.06h.08A.93.93,0,0,0,141.51,54v-.08C141.51,53.49,141.19,53.17,140.54,53Zm15.18,0q-1.14.27-1.14,1.14c.2.65.53,1,1,1h.17c.54,0,.86-.32,1-1v-.17C156.69,53.49,156.36,53.17,155.72,53Zm2.54,0c-.51,0-.89.36-1.14,1,.16.71.49,1.06,1,1.06h.09a.93.93,0,0,0,1-1.06v-.08C159.23,53.49,158.91,53.17,158.26,53Zm-25.42,0q-1.05.32-1.05,1c.15.71.47,1.06,1,1.06h.17c.54,0,.87-.32,1-1C133.81,53.34,133.46,53,132.84,53Zm2.55,0q-1,.32-1,1c.14.71.47,1.06,1,1.06h.18c.54,0,.86-.32,1-1Q136.32,53,135.39,53Zm2.46,0c-.71.21-1,.56-1,1,.14.71.46,1.06,1,1.06h.17c.55,0,.87-.32,1-1Q138.76,53,137.85,53ZM143,53q-1,.32-1.05,1c.14.71.47,1.06,1,1.06h.18c.54,0,.86-.32,1-1Q143.93,53,143,53Zm10.09,0q-1.05.32-1.05,1c.14.71.46,1.06,1,1.06h.18c.54,0,.86-.32,1-1Q154,53,153.09,53Z"/></svg>