<svg id="63aa9f50-5dc4-4f11-8dd2-42ad8f25e5df" data-name="Logos" xmlns="http://www.w3.org/2000/svg" width="200" height="80" viewBox="0 0 200 80"><defs><style>.\37 fed5fab-f45f-426a-b03a-52891ac5ebcb{fill:#bdbdbd;}</style></defs><title>Arduino</title><path class="7fed5fab-f45f-426a-b03a-52891ac5ebcb" d="M140.92,31.4c0-10.7-9-19.4-20.11-19.4a18.91,18.91,0,0,0-3.09.23c-8.61,1.21-14.39,7.42-17.62,12.18-3.23-4.76-9-11-17.62-12.18A21.42,21.42,0,0,0,79.39,12c-11.1,0-20.11,8.7-20.11,19.4s9,19.41,20.11,19.41a19.53,19.53,0,0,0,3.12-.23c8.61-1.25,14.39-7.45,17.62-12.21,3.23,4.76,9,11,17.62,12.21a22.88,22.88,0,0,0,3.11.23c11,0,20.06-8.7,20.06-19.41M81.49,43.78a13.81,13.81,0,0,1-2.12.14c-7.31,0-13.23-5.63-13.23-12.52s6-12.52,13.25-12.52a19,19,0,0,1,2.13.14C89.65,20.19,94.6,28.2,96.3,31.4c-1.72,3.23-6.71,11.22-14.81,12.38M103.9,31.4c1.67-3.2,6.65-11.21,14.78-12.38a19,19,0,0,1,2.13-.14c7.3,0,13.22,5.64,13.22,12.52s-5.94,12.52-13.22,12.52a16.93,16.93,0,0,1-2.13-.14c-8.13-1.16-13.11-9.18-14.78-12.38M73.81,29.51h12.1v3.88H73.81Zm48.33,3.9h4.08v-3.9h-4.08V25.43h-3.91v4.08h-4.08v3.9h4.08v4.08h3.91ZM65,56.58,61.44,67.83h2.83l.56-2.29h3.23l.63,2.29h2.94L68.06,56.58Zm.42,6.77,1-4.1,1.11,4.1Zm16.88-3c0-2.15-1.16-3.76-4.27-3.76H73.45V67.8h2.77V64.23h1.42l1.7,3.57h3.28l-2.18-4.11a3.57,3.57,0,0,0,1.81-3.37M77.69,62H76.22V58.85h1.42c1.3,0,1.64.51,1.64,1.5,0,1.25-.62,1.67-1.59,1.67m10.48-5.44H84.49V67.83h3.68c4.76,0,5.59-3.06,5.59-5.72,0-3.54-1.36-5.53-5.59-5.53m.17,8.93h-1V58.85h.82c2.49,0,2.72,1.16,2.72,3.37,0,1.9-.2,3.29-2.5,3.29M102,63.44c0,1.7-.49,2.27-1.73,2.27-1,0-1.7-.43-1.7-2.3V56.56H95.82v7.36c0,3.4,2.47,4,4.36,4s4.54-.71,4.54-4V56.56h-2.67l0,6.88Zm5.15-4.56h2.89v6.63h-2.89v2.32h8.61V65.51h-2.92V58.88h2.92v-2.3h-8.61Zm17.59,4.45-3.65-6.75h-3V67.83h2.63l0-7.19,3.86,7.19h2.8V56.58h-2.58Zm9.15-6.89c-3.4,0-4.7,2.5-4.7,5.89,0,3.72,1.47,5.67,4.73,5.67,3.62,0,4.81-2.55,4.81-5.78,0-4.3-1.67-5.78-4.84-5.78m0,9.29c-1.61,0-1.76-1.13-1.76-3.4,0-2.74.26-3.62,1.76-3.62s1.87.76,1.87,3.51c0,2.58-.25,3.51-1.87,3.51m3.17-50.42a1.77,1.77,0,1,1,3.54,0,1.77,1.77,0,0,1-1.78,1.82A1.8,1.8,0,0,1,137.09,15.31Zm3.23,0a1.49,1.49,0,0,0-1.47-1.53,1.42,1.42,0,0,0-1.44,1.53,1.44,1.44,0,0,0,1.44,1.53A1.42,1.42,0,0,0,140.32,15.31ZM138,14.18h.88c.68,0,.93.28.93.77a.65.65,0,0,1-.42.65l.42.85h-.62l-.31-.77h-.31v.77H138V14.18Zm.82,1.11c.26,0,.4-.09.4-.37s-.09-.34-.4-.34h-.28v.73Z"/></svg>