<svg id="0c49bbdf-88f5-4ca5-b95f-6a229e420601" data-name="Logos" xmlns="http://www.w3.org/2000/svg" width="200" height="80" viewBox="0 0 200 80"><defs><style>.\35 5d1be05-e1a2-4d3c-9479-e7ec4056a360{fill:#bdbdbd;}</style></defs><title>AWS</title><path class="55d1be05-e1a2-4d3c-9479-e7ec4056a360" d="M123.5,39.44a3.46,3.46,0,0,1-1.12-.92,3,3,0,0,1-.2-.92V36.07c0-.71.2-1,.71-1a1.29,1.29,0,0,1,.61.1,5.7,5.7,0,0,0,.82.31,13.54,13.54,0,0,0,3.47,1.12,14.81,14.81,0,0,0,3.67.41,8.31,8.31,0,0,0,4.59-1,3.32,3.32,0,0,0,1.63-3,2.84,2.84,0,0,0-.81-2.14,8.27,8.27,0,0,0-3.17-1.63l-4.48-1.43a9,9,0,0,1-5-3.16,7.26,7.26,0,0,1-1.53-4.49,6.49,6.49,0,0,1,.81-3.47,9.18,9.18,0,0,1,2.25-2.55A11.07,11.07,0,0,1,129,12.51a15.36,15.36,0,0,1,3.88-.51,7.77,7.77,0,0,1,2.14.2,12.47,12.47,0,0,1,2,.31c.61.2,1.22.31,1.73.51a4.1,4.1,0,0,1,1.33.51,2.39,2.39,0,0,1,.92.82,1.53,1.53,0,0,1,.3,1v1.22c0,.71-.2,1-.71,1a4,4,0,0,1-1.22-.41,14.55,14.55,0,0,0-6-1.22,7.85,7.85,0,0,0-4.18.92,3,3,0,0,0-1.43,2.75,3,3,0,0,0,.92,2.24,8.84,8.84,0,0,0,3.46,1.74l4.39,1.43a9.42,9.42,0,0,1,4.79,3,7.52,7.52,0,0,1,1.43,4.39,8.43,8.43,0,0,1-.81,3.67,7.51,7.51,0,0,1-2.25,2.76,12.39,12.39,0,0,1-3.47,1.73,14.58,14.58,0,0,1-4.38.61,18.65,18.65,0,0,1-4.8-.51,11,11,0,0,1-3.57-1.22ZM70.77,24.34c1.22.21,2.34.41,3.67.72V22.81c0-2.34-.41-4.08-1.43-5s-2.65-1.42-5.1-1.42a12.87,12.87,0,0,0-3.36.4,22.4,22.4,0,0,0-3.37,1c-.51.21-.92.31-1.12.41a1.15,1.15,0,0,1-.51.1c-.41,0-.61-.4-.61-1V15.77c0-.51,0-.91.2-1.12A1.86,1.86,0,0,1,60,14a19.25,19.25,0,0,1,3.87-1.43,18.85,18.85,0,0,1,4.9-.61c3.77,0,6.42.82,8.16,2.55s2.55,4.28,2.55,7.65V32.4a10.42,10.42,0,0,0,.3,2.75,15.42,15.42,0,0,0,1,2.25,2.35,2.35,0,0,1,.21.71,1.26,1.26,0,0,1-.61.92l-1.94,1.33a1.65,1.65,0,0,1-.82.3,1.28,1.28,0,0,1-.92-.4,8.32,8.32,0,0,1-1.12-1.43A17.46,17.46,0,0,1,74.64,37a11.57,11.57,0,0,1-9.18,4.29A8.33,8.33,0,0,1,59.24,39,8,8,0,0,1,57,33a8,8,0,0,1,2.85-6.42,11.44,11.44,0,0,1,7.65-2.45,18.51,18.51,0,0,1,3.27.2Zm3.57,5.51V28.52A26.51,26.51,0,0,0,71.48,28c-1-.1-2-.2-3-.2A7.29,7.29,0,0,0,63.93,29,4.35,4.35,0,0,0,62.4,32.6a4.51,4.51,0,0,0,1.13,3.27A4.51,4.51,0,0,0,66.79,37a9.59,9.59,0,0,0,3.26-.61,6.22,6.22,0,0,0,3-1.94,4.37,4.37,0,0,0,1-1.94,9.69,9.69,0,0,0,.31-2.65Zm15.71,9.08a3.14,3.14,0,0,0,.61,1.22,1.72,1.72,0,0,0,1.22.31h2.65a1.75,1.75,0,0,0,1.23-.31,3.28,3.28,0,0,0,.61-1.22l4.8-20.1,4.89,20.1a1.74,1.74,0,0,0,.61,1.22,2,2,0,0,0,1.23.31h2.65a2.1,2.1,0,0,0,1.22-.31,2.26,2.26,0,0,0,.62-1.22l7.54-24.07a3.8,3.8,0,0,0,.21-.72c0-.2.1-.3.1-.51,0-.51-.2-.71-.71-.71h-2.86a1.78,1.78,0,0,0-1.22.3,3.42,3.42,0,0,0-.62,1.23l-5.4,20.91-5-21a1.77,1.77,0,0,0-.61-1.23,2,2,0,0,0-1.23-.3H100a1.78,1.78,0,0,0-1.22.3,3.35,3.35,0,0,0-.61,1.23L93.31,35l-5.2-20.6a3.51,3.51,0,0,0-.61-1.23,1.83,1.83,0,0,0-1.23-.3H83.21c-.51,0-.71.2-.71.71a5.1,5.1,0,0,0,.3,1.22l7.25,24.18ZM136.25,54A91.54,91.54,0,0,1,101,61.27,92.31,92.31,0,0,1,54.65,48.93c-1.12-.72-2,.51-1,1.42A68.68,68.68,0,0,0,99.94,68c12.75,0,27.64-4,37.95-11.63,1.53-1.22.1-3.06-1.64-2.34Zm-6.42-4.29c-.92.61-.72,1.53.2,1.43,3.27-.41,10.71-1.33,11.94.41s-1.43,8.57-2.66,11.73c-.4.92.41,1.32,1.33.61,5.51-4.59,6.94-14.28,5.81-15.61-1.12-1.53-10.81-2.65-16.62,1.43Z"/></svg>