<svg id="b69f14bf-a956-4ea4-a1f4-0cee6598da5a" data-name="Logos" xmlns="http://www.w3.org/2000/svg" width="200" height="80" viewBox="0 0 200 80"><defs><style>.\34 9d9cc6d-030b-4ae8-93e9-65d71d137462{fill:#bdbdbd;}</style></defs><title>Bosch</title><path class="49d9cc6d-030b-4ae8-93e9-65d71d137462" d="M29.81,20a20,20,0,1,0,20,20v0A20,20,0,0,0,29.81,20Zm0,37.5A17.5,17.5,0,1,1,47.32,40,17.5,17.5,0,0,1,29.82,57.5ZM38,28.16l-2-1.41v7.59H24.05V26.87l-1.92,1.25c-.29.17-6.39,4.19-6.39,11.7S21.82,51.76,22.07,52l2,1.41V45.79H36v7.42L37.91,52c.25-.17,6.39-4.19,6.39-11.71S38.22,28.34,38,28.16ZM21.55,48.05a12.55,12.55,0,0,1-3.32-8.22,11.46,11.46,0,0,1,3.32-7.95ZM36,43.29H24.05V36.84H36Zm2.5,4.94V32.07a12.64,12.64,0,0,1,3.32,8.21A11.55,11.55,0,0,1,38.49,48.23ZM100.59,40c0-4.64,2.26-7.64,5.75-7.64s5.8,3,5.8,7.64-2.29,7.67-5.8,7.67-5.75-3-5.75-7.67m-6.16,0c0,8.14,4.79,13.61,11.92,13.61S118.27,48.12,118.27,40s-4.79-13.61-11.92-13.61S94.43,31.84,94.43,40m26.9-5.51c0-4.84,3.84-8.1,9.57-8.1a12.12,12.12,0,0,1,9.34,3.94l-3.84,3.81A7.66,7.66,0,0,0,131,31.74c-1.65,0-3.37.82-3.37,2.62s2,2.38,4.14,2.82l.92.18c4.29.89,8.14,2.17,8.14,7.82s-5,8.41-10,8.41c-5.8,0-8.58-2.27-10.69-4.75l4-3.87a8.43,8.43,0,0,0,6.67,3.31c2.23,0,3.72-1.12,3.72-2.78,0-1.87-1.55-2.4-4.84-3.09l-.92-.19c-3.41-.71-7.42-2.64-7.42-7.76m22.33,5.29c0-6.68,3.74-13.42,12.08-13.42,4.25,0,7.31,1.7,9.88,5.49l-5,3.33a5.25,5.25,0,0,0-4.83-2.86c-2.93,0-5.91,2.57-5.91,7.48,0,5.38,3.16,7.83,6.11,7.83,2.44,0,3.64-1.14,4.79-3l5.05,3.43c-2.5,3.56-4.89,5.49-10.15,5.49-7.08,0-12-5.63-12-13.74M184,27h6.57V53H184V42.78a.18.18,0,0,0-.18-.18h-8a.18.18,0,0,0-.17.18V53h-6.54V27h6.56v9.5a.18.18,0,0,0,.18.18h8a.18.18,0,0,0,.18-.18V27M91.85,45.8c0,4.43-4.09,7.34-8.21,7.34H70.2V26.87H82.51c4.74,0,8.17,2.37,8.17,7.23a5.71,5.71,0,0,1-3.59,5.37,6.5,6.5,0,0,1,4.78,6.33M84,34.81a2.36,2.36,0,0,0-2.24-2.49H76.7v4.89h4.67A2.46,2.46,0,0,0,84,34.91v-.1m.85,10.25c0-1.52-1.15-2.56-3.47-2.56h-4.7v5.15h4.81c2,0,3.35-.7,3.35-2.61"/></svg>