<svg id="600769cc-2f6f-4bb3-8282-5075f76c8ca0" data-name="Logos" xmlns="http://www.w3.org/2000/svg" width="200" height="80" viewBox="0 0 200 80"><defs><style>.\33 633352e-795c-490f-b2d1-015cafd583c8{fill:#bdbdbd;}</style></defs><title>Digi-Key</title><path class="3633352e-795c-490f-b2d1-015cafd583c8" d="M100,16.07a101.69,101.69,0,0,1,21,2.11,70,70,0,0,1,16.82,5.66,33.87,33.87,0,0,1,10.71,7.89A12.85,12.85,0,0,1,151.93,40a12.85,12.85,0,0,1-3.44,8.27,33.87,33.87,0,0,1-10.71,7.89A70,70,0,0,1,121,61.82a101.69,101.69,0,0,1-21,2.11,101.69,101.69,0,0,1-21-2.11,70,70,0,0,1-16.82-5.66,33.87,33.87,0,0,1-10.71-7.89A12.85,12.85,0,0,1,48.07,40a12.85,12.85,0,0,1,3.44-8.27,33.87,33.87,0,0,1,10.71-7.89A70,70,0,0,1,79,18.18a101.69,101.69,0,0,1,21-2.11M100,12C69.07,12,44,24.54,44,40s25.07,28,56,28,56-12.54,56-28-25.07-28-56-28ZM88.9,54.37l.95-4.48h2.41l-.18.89H90.72l-.18.83h1.32l-.2.89H90.35l-.2,1h1.43l-.2.9Zm2.94,0,1-4.48h1l-.76,3.58h1.29l-.2.9Zm2.7,0,.95-4.48H97.9l-.18.89H96.36l-.18.83H97.5l-.2.89H96l-.2,1h1.43l-.2.9Zm5.33-2.92.06-.29c.09-.38,0-.58-.21-.58s-.44.18-.5.47l-.48,2.22c-.06.25,0,.4.29.4s.47-.37.53-.65l.08-.4h1l-.11.55a1.63,1.63,0,0,1-1.8,1.3c-1,0-1.24-.51-1-1.42l.39-1.84a1.57,1.57,0,0,1,1.71-1.43c.9,0,1.36.38,1.16,1.29l-.07.38Zm1.67-1.56h2.73l-.19.89h-.85l-.76,3.59h-1.06l.77-3.59h-.82Zm3.24,4.48h-1l1-4.48h1.53c.86,0,1.22.34,1,1.23a1.24,1.24,0,0,1-.77,1v0a.48.48,0,0,1,.39.58c0,.35-.2,1.12-.2,1.41a.29.29,0,0,0,.07.16l0,.06h-1.14a1.13,1.13,0,0,1,0-.26c.07-.39.17-.76.2-1s0-.45-.26-.47h-.34Zm.55-2.58h.36c.3,0,.43-.28.49-.55.11-.54-.1-.56-.62-.55Zm4.8,1.15c-.21,1-.68,1.53-1.74,1.53s-1.32-.52-1.11-1.53l.39-1.82a1.6,1.6,0,0,1,1.71-1.34c.92,0,1.32.48,1.14,1.34Zm-.68-1.75c.06-.28.11-.61-.24-.61s-.45.33-.51.61L108.32,53c-.06.26-.1.64.24.64s.44-.38.5-.64Zm2.31.67h0l-.44,2.5h-1l1-4.48h1.08l.28,2.5h0l.43-2.5h1l-1,4.48h-1.08Zm1.9,2.51,1-4.48h1l-1,4.48Zm4-2.92.06-.29c.08-.38,0-.58-.21-.58s-.45.18-.51.47l-.48,2.22c0,.25,0,.4.3.4s.46-.37.52-.65l.09-.4h1l-.12.55a1.62,1.62,0,0,1-1.79,1.3c-1,0-1.24-.51-1-1.42l.39-1.84a1.57,1.57,0,0,1,1.71-1.43c.9,0,1.36.38,1.16,1.29l-.08.38Zm2.09,1.42-.07.31c-.05.26,0,.49.32.49a.5.5,0,0,0,.45-.45c.08-.38-.2-.52-.44-.69a2.28,2.28,0,0,1-.67-.58,1.13,1.13,0,0,1-.12-.9,1.51,1.51,0,0,1,1.59-1.27c.92,0,1.26.61,1,1.45h-1c0-.26.14-.62-.21-.65a.42.42,0,0,0-.43.3.44.44,0,0,0,.2.55,5.5,5.5,0,0,1,.85.64,1.1,1.1,0,0,1,.16,1.07,1.55,1.55,0,0,1-1.64,1.33c-1,0-1.25-.53-1.12-1.12l.1-.48ZM63.92,43l2.26-11.2H64.53L62.27,43Zm1-10.66h.55l-2,10.12h-.55Zm26.28-.12L88.39,46.42h4.22l2.87-14.17Zm-18.73,0L69.66,46.42h4.23l2.86-14.17Zm23.59,5L95.17,42H99.4l.94-4.65Zm40.2-5L134,43.56h-2.74l2.28-11.31h-4.23l-2.49,12.33a2.45,2.45,0,0,0,0,.38,1.42,1.42,0,0,0,1.49,1.46h5.16l-1,5H129.7l.68-3.36h-4.23l-.7,3.42a2.43,2.43,0,0,0,0,.38,1.43,1.43,0,0,0,.31.93,1.47,1.47,0,0,0,1.18.52h7.44a2.5,2.5,0,0,0,2.33-1.94l3.86-19.1ZM82.65,43l1.5-7.45H82.5L81,43Zm.29-6.91h.55l-1.28,6.37h-.55Zm-2.61-3.87A2.48,2.48,0,0,0,78,34.19l-2.1,10.39a1.64,1.64,0,0,0,0,.38,1.42,1.42,0,0,0,1.49,1.46h5.15l-1,5H78.76L79.44,48H75.21c-.21,1-.69,3.42-.69,3.42a1.64,1.64,0,0,0,0,.38,1.44,1.44,0,0,0,.32.93,1.45,1.45,0,0,0,1.17.52h7.45a2.49,2.49,0,0,0,2.32-1.94l3.86-19.1Zm2.76,11.31H80.34L82.06,35h2.75Zm52.33-12.39-2.28,11.32h-.55l2.29-11.32h-6.43l-.28,1.41a2.37,2.37,0,0,0-.32-.5h0a2.52,2.52,0,0,0-2-.91h-7.45A3.63,3.63,0,0,0,115,34l-2,10.13-2.39-6.62,8.69-10.16h-7.8l-2.85,3.41.69-3.41H102.9l-1.79,8.86H95.77l1.79-8.86H91.14l-.77,3.81h-10a3.45,3.45,0,0,0-2.49,1.13l1-4.94H72.41l-.28,1.36a2.16,2.16,0,0,0-.29-.45h0a2.6,2.6,0,0,0-2-.9H59.56L55.49,47.5H66.08a3.55,3.55,0,0,0,2.5-1.15l-.24,1.15h5.88l-.75,3.74a2.35,2.35,0,0,0-.07.6A2.52,2.52,0,0,0,74,53.46a2.55,2.55,0,0,0,2,.91h7.45a3.57,3.57,0,0,0,3.38-2.8l.82-4.07H93.5L94.4,43h5.33l-.9,4.48h6.43l.8-4,1.35,4h6.78l-.14-.38a2.76,2.76,0,0,0,1.39.38h7.45a3.55,3.55,0,0,0,3-1.74,2.42,2.42,0,0,0,.44.82,2.79,2.79,0,0,0,.39.38h-1.42l-.86,4.28a2.91,2.91,0,0,0-.06.6,2.51,2.51,0,0,0,.56,1.62,2.55,2.55,0,0,0,2,.91h7.44a3.56,3.56,0,0,0,3.38-2.8l4.12-20.4ZM91.58,27.89H96.9l-.66,3.28H90.92Zm-18.73,0h5.32l-.66,3.28H72.19ZM66.08,47H56.15L60,27.89h9.82a2,2,0,0,1,1.6.72h0a1.92,1.92,0,0,1,.44,1.26,2.8,2.8,0,0,1,0,.48L68.94,44.57A3.08,3.08,0,0,1,66.08,47ZM69,47l3.08-15.25h5.33L74.33,47Zm6-.86a2.07,2.07,0,0,0,.31.48,2.28,2.28,0,0,0,.38.38h-.86Zm11.22,5.36a3,3,0,0,1-2.85,2.37H76a2,2,0,0,1-1.59-.72,2,2,0,0,1-.44-1.27,2.63,2.63,0,0,1,0-.49l.78-3.85H80.1l-.68,3.37h1.65L81.86,47h-4.5a2,2,0,0,1-1.59-.72A2,2,0,0,1,75.33,45a2.7,2.7,0,0,1,0-.48l2.1-10.4a3,3,0,0,1,2.85-2.37h9.93Zm-5.62-4h.55l-.57,2.83h-.55ZM93.06,47H87.73l3.08-15.25h5.32Zm1.45-4.47,1.16-5.73H101l-1.16,5.73ZM107.79,47l-1.87-5.49L104.82,47H99.49l3.85-19.07h5.32l-1,4.86,4-4.86h6.38L110,37.41,113.42,47Zm18.37-4.47h-7l-.1.54h7l-.32,1.56A3,3,0,0,1,122.89,47h-7.45a2,2,0,0,1-1.59-.71,2.13,2.13,0,0,1-.39-1.77l2.09-10.36a3.08,3.08,0,0,1,2.87-2.41h7.45a2,2,0,0,1,1.56.71h0a2.09,2.09,0,0,1,.45,1.32,2.74,2.74,0,0,1,0,.48s-1.34,6.57-1.59,7.83Zm11.05,9a3,3,0,0,1-2.86,2.37h-7.44a2,2,0,0,1-1.59-.72,2,2,0,0,1-.44-1.27,2,2,0,0,1,.05-.49l.77-3.85H131l-.67,3.36H132l.79-3.9h-4.5a2,2,0,0,1-1.59-.72,2,2,0,0,1-.44-1.28,2.7,2.7,0,0,1,0-.48l2.58-12.77h5.33L131.94,43h1.64l2.29-11.32h5.32Zm-5.63-4h.55l-.57,2.83H131ZM92,28.43l-.45,2.2H95.8l.45-2.2Zm-18.73,0-.44,2.2h4.22l.45-2.2Zm52.58,3.81h-7.45a2.57,2.57,0,0,0-2.34,2L114,44.59a1.55,1.55,0,0,0,.28,1.31,1.48,1.48,0,0,0,1.17.52h7.45a2.48,2.48,0,0,0,2.32-1.94l.19-.92h-7l.32-1.61h7c.26-1.27,1.59-7.84,1.59-7.84a2.46,2.46,0,0,0,0-.37,1.57,1.57,0,0,0-.33-1A1.46,1.46,0,0,0,125.87,32.24Zm-3.81,6.91h-2.74l.83-4.11h2.74Zm-.44-.54.61-3h-1.64l-.62,3ZM121,36.12h.55l-.4,2h-.55Zm-4.09-7.69h-5l-5.24,6.3,1.27-6.3h-4.23l-3.63,18h4.22l1.42-7,2.39,7h4.48l-3.29-9.12Zm-47.12,0H60.44l-3.63,18h9.27a2.55,2.55,0,0,0,2.33-2l2.87-14.22a2.46,2.46,0,0,0,0-.37A1.41,1.41,0,0,0,71,29,1.49,1.49,0,0,0,69.82,28.43ZM64.36,43.56H61.62l2.47-12.27h2.75Zm79.16-11.08a1,1,0,1,1,1,1A1,1,0,0,1,143.52,32.48Zm1,1.23a1.23,1.23,0,1,0-1.2-1.23A1.2,1.2,0,0,0,144.48,33.71Zm-.25-1.13h.24l.36.61h.23l-.39-.62a.37.37,0,0,0,.36-.39c0-.28-.16-.4-.48-.4H144v1.41h.2Zm0-.18V32h.28c.15,0,.3,0,.3.21s-.16.23-.33.23Z"/></svg>