<svg id="8920db0c-f940-423a-8c68-bc2dc7ad1b97" data-name="Logos" xmlns="http://www.w3.org/2000/svg" width="200" height="80" viewBox="0 0 200 80"><defs><style>.\39 eb7775a-1fba-48e6-a1b7-a5042ef984d9{fill:#bdbdbd;}</style></defs><title>Espressif</title><path class="9eb7775a-1fba-48e6-a1b7-a5042ef984d9" d="M177.43,35.06a3.66,3.66,0,0,1,.3-1.39,5.3,5.3,0,0,1,1-1.38,6.18,6.18,0,0,1,4.45-1.64A8.33,8.33,0,0,1,189,33.21a.5.5,0,0,1-.72.7,7.29,7.29,0,0,0-5.06-2.26A5.23,5.23,0,0,0,179.44,33a3.94,3.94,0,0,0-.8,1.08,2.81,2.81,0,0,0-.22,1v4.09H188a.5.5,0,0,1,.5.5.51.51,0,0,1-.5.5h-9.6v8.63a.5.5,0,0,1-.5.5.51.51,0,0,1-.5-.5V40.22h-1.89a.5.5,0,0,1-.5-.5.5.5,0,0,1,.5-.5h1.89Zm-7.2,13.78V31.16a.51.51,0,0,0-.51-.51.5.5,0,0,0-.5.51V48.84a.5.5,0,0,0,.5.51A.51.51,0,0,0,170.23,48.84Zm-13.66-9.51c-3.65-.47-5.82-1.93-5.82-3.93a2.9,2.9,0,0,1,.94-2.07,7,7,0,0,1,5-1.66A7.72,7.72,0,0,1,161.13,33a.5.5,0,0,0,.71-.11.51.51,0,0,0-.11-.71,8.81,8.81,0,0,0-5.07-1.54,7.91,7.91,0,0,0-5.68,2,3.89,3.89,0,0,0-1.25,2.79c0,2.52,2.43,4.34,6.51,4.91h0c4.63.54,6.33,1.65,6.28,4.06a3.4,3.4,0,0,1-1.23,2.42,6.74,6.74,0,0,1-5.1,1.5,9.78,9.78,0,0,1-5.54-1.93.5.5,0,0,0-.71.07.51.51,0,0,0,.07.72,10.86,10.86,0,0,0,6.09,2.16q.39,0,.78,0a7.54,7.54,0,0,0,5.09-1.8,4.39,4.39,0,0,0,1.57-3.15C163.64,40.75,160.27,39.79,156.57,39.33Zm-17.75,0c-3.65-.47-5.83-1.93-5.83-3.93a2.91,2.91,0,0,1,.95-2.07,7,7,0,0,1,4.95-1.66A7.67,7.67,0,0,1,143.37,33a.5.5,0,0,0,.71-.11.51.51,0,0,0-.1-.71,8.82,8.82,0,0,0-5.08-1.54,7.94,7.94,0,0,0-5.68,2A3.92,3.92,0,0,0,132,35.4c0,2.52,2.42,4.34,6.51,4.91h0c4.62.54,6.32,1.65,6.28,4.06a3.44,3.44,0,0,1-1.23,2.42,6.76,6.76,0,0,1-5.11,1.5,9.77,9.77,0,0,1-5.53-1.93.51.51,0,0,0-.72.07.53.53,0,0,0,.07.72,10.86,10.86,0,0,0,6.1,2.16q.39,0,.78,0a7.56,7.56,0,0,0,5.09-1.8,4.43,4.43,0,0,0,1.57-3.15C145.88,40.75,142.51,39.79,138.82,39.33Zm-12,.67a.51.51,0,0,0-.51-.51H115.7c.23-4.35,3.31-7.82,7.07-7.82a6.06,6.06,0,0,1,3,.81.51.51,0,0,0,.69-.2.52.52,0,0,0-.19-.7,7.25,7.25,0,0,0-3.53-.93c-4.32,0-7.86,3.92-8.09,8.84h-2a.51.51,0,0,0,0,1h2c.23,4.92,3.77,8.84,8.09,8.84a7.15,7.15,0,0,0,3.53-.94.51.51,0,0,0,.2-.69.51.51,0,0,0-.7-.2,6.06,6.06,0,0,1-3,.81c-3.76,0-6.84-3.47-7.07-7.82h10.57A.51.51,0,0,0,126.78,40Zm-29.68.19v7.4A1.85,1.85,0,0,1,96,49.31a.52.52,0,0,1-.69-.07.46.46,0,0,1,0-.68,2.17,2.17,0,0,0,.77-1.81V30.59h7.32a4.94,4.94,0,0,1,4.94,4.8,4.84,4.84,0,0,1-2.47,4.14c-.64.45-.72.52-.08,1a6.16,6.16,0,0,1,2.37,4.94c0,.67,0,1.34,0,2,0,.47.13.85.74.76.37-.06.7,0,.7.49s-.34.56-.67.65a1.4,1.4,0,0,1-1.67-1.15,8.4,8.4,0,0,1-.07-1.51,12.74,12.74,0,0,0-.19-2.38,4.72,4.72,0,0,0-3.72-3.85,10,10,0,0,0-2-.29Zm0-1h6.31a3.79,3.79,0,1,0,0-7.58H97.1ZM77.66,30.65h8.09a4.82,4.82,0,1,1,0,9.64H78.68v8.55a.51.51,0,0,1-1,0Zm12,4.8a3.91,3.91,0,0,0-3.91-3.79H78.68v7.62h7.07A3.92,3.92,0,0,0,89.66,35.45ZM65.28,39.33c-3.64-.47-5.82-1.93-5.82-3.93a2.91,2.91,0,0,1,.95-2.07,7,7,0,0,1,5-1.66A7.7,7.7,0,0,1,69.84,33a.5.5,0,0,0,.71-.11.51.51,0,0,0-.1-.71,8.86,8.86,0,0,0-5.08-1.54,7.94,7.94,0,0,0-5.68,2,3.89,3.89,0,0,0-1.25,2.79c0,2.52,2.43,4.34,6.52,4.91h0c4.63.54,6.33,1.65,6.29,4.06A3.48,3.48,0,0,1,70,46.8a6.76,6.76,0,0,1-5.11,1.5,9.72,9.72,0,0,1-5.53-1.93.51.51,0,0,0-.65.79,10.86,10.86,0,0,0,6.1,2.16l.77,0a7.57,7.57,0,0,0,5.1-1.8,4.38,4.38,0,0,0,1.56-3.15C72.35,40.75,69,39.79,65.28,39.33ZM53.23,40a.51.51,0,0,0-.51-.51H42.15c.22-4.35,3.31-7.82,7.06-7.82a6.06,6.06,0,0,1,3,.81.52.52,0,0,0,.7-.2.51.51,0,0,0-.2-.7,7.22,7.22,0,0,0-3.53-.93c-4.32,0-7.85,3.92-8.08,8.84h-2a.51.51,0,1,0,0,1h2c.23,4.92,3.76,8.84,8.08,8.84a7.12,7.12,0,0,0,3.53-.94.5.5,0,0,0,.2-.69.51.51,0,0,0-.69-.2,6.13,6.13,0,0,1-3,.81c-3.75,0-6.84-3.47-7.06-7.82H52.72A.51.51,0,0,0,53.23,40ZM23.09,52A18,18,0,0,0,25,52a13.07,13.07,0,0,0,7.45-3.2c.18-.17.39-.35.46-.43l.12-.12-.34-.34-.33-.33-.3.27A12,12,0,0,1,24.73,51a15.81,15.81,0,0,1-2.18,0A12.09,12.09,0,0,1,12,41a10.92,10.92,0,0,1-.16-2,11.18,11.18,0,0,1,.29-2.68,12.2,12.2,0,0,1,2.93-5.53,3.21,3.21,0,0,0,.26-.3,5,5,0,0,0-.65-.65,1,1,0,0,0-.26.23,13,13,0,0,0-3.48,7.77,15,15,0,0,0,0,2.32,13.22,13.22,0,0,0,1.68,5.33,15.24,15.24,0,0,0,1.13,1.66,16.59,16.59,0,0,0,1.65,1.7A12.92,12.92,0,0,0,23.09,52Zm-.66-2.09.42,0c.07,0,.14-.1.4-.62a7.22,7.22,0,0,0-5.89-10.44c-.49,0-.64-.07-.78-.21a.79.79,0,0,1-.14-.86c.2-.34.48-.41,1.3-.32a8.67,8.67,0,0,1,7.64,7.56,11.68,11.68,0,0,1,0,2A9.71,9.71,0,0,1,25,48.87a.76.76,0,0,0-.07.25l.76.3.74.27.27-.06a9.68,9.68,0,0,0,1.84-.69,10.06,10.06,0,0,0,.32-1.77,15.94,15.94,0,0,0,0-2.29,12.23,12.23,0,0,0-1.21-4.2,12.52,12.52,0,0,0-2.41-3.29,12.12,12.12,0,0,0-7-3.32,8.2,8.2,0,0,0-1.86,0,4.17,4.17,0,0,0-3.1,2.51,6.83,6.83,0,0,0-.28,1.82,3.77,3.77,0,0,0,.45,1.67,3.93,3.93,0,0,0,1.8,1.78,4.11,4.11,0,0,0,1.74.45,4.18,4.18,0,0,1,1.15.23,3.83,3.83,0,0,1,2.46,2.92,4.43,4.43,0,0,1,0,1.26,4,4,0,0,1-.7,1.63c-.13.19-.16.24-.14.27l.54.47.5.44.31.09a10.67,10.67,0,0,0,1.39.28ZM16.48,48a2.86,2.86,0,0,0,.82,0,1.92,1.92,0,0,0,1.18-1,1.88,1.88,0,0,0-1-2.63,1.4,1.4,0,0,0-.55-.09,1.62,1.62,0,0,0-1,.19,1.93,1.93,0,0,0-1,1.23,2.37,2.37,0,0,0,0,.92A1.9,1.9,0,0,0,16.48,48Zm14.35-1.68h1.26l.19-.22a8.35,8.35,0,0,0,1.32-2s0-.28-.07-.53A16.93,16.93,0,0,0,19,29.29l-.22,0-.23.13c-.32.18-.76.46-1.07.68a8.37,8.37,0,0,0-.88.71s0,.44,0,.92v.89l.64,0a12.77,12.77,0,0,1,2.21.26A13.44,13.44,0,0,1,30.15,44.36c.06.45.11,1.15.12,1.61v.29l.55,0Zm3.26-6.22,0,.06.32-.1.37-.14s0-.15,0-.83a10,10,0,0,0-.32-2.74,11,11,0,0,0-6.59-7.53,11.18,11.18,0,0,0-4.4-.77c-.58,0-.52,0-.66.36-.06.18-.11.34-.11.35a1.15,1.15,0,0,0,.35.17,18.34,18.34,0,0,1,9.51,8,20,20,0,0,1,1.31,2.77l.15.4Z"/></svg>