<svg id="3c8d11ff-7b2b-4948-8efb-b2b698d59806" data-name="Logos" xmlns="http://www.w3.org/2000/svg" width="200" height="80" viewBox="0 0 200 80"><defs><style>.\36 f3dde91-6527-46f5-a5f4-8eec3e7af88a{fill:#bdbdbd;}</style></defs><title>Exar</title><path class="6f3dde91-6527-46f5-a5f4-8eec3e7af88a" d="M109.62,28.49H118v23h-5.86V46.14h-9.46l4.11-5.32h5.35V32.23L99.37,48.7l2.2,2.81H94.1l-6.33-8.1-6.34,8.1H58.08V30.63a2.14,2.14,0,0,1,2.15-2.14H74.69v5.35H63.44v3.48h9.64v5.36H63.44v3.48H78.15L84,38.63,76.11,28.49h7.46l4.2,5.36L92,28.49h7.47L91.5,38.63l4.25,5.44,10.91-14.13A3.73,3.73,0,0,1,109.62,28.49Zm33.18,23h-7l-4.46-8h-4.18v8h-5.89V30.63a2.14,2.14,0,0,1,2.14-2.14H140v9.64a5.33,5.33,0,0,1-2.24,4.35Zm-8.13-17.67h-7.5v4.82h5.89a1.61,1.61,0,0,0,1.61-1.61Zm-2.49,32.61c9.63-1.79,19.2-4.36,28-8.8,4.91-2.47,9.41-5.5,12.64-10.08A20.4,20.4,0,0,0,174,45.63a16.05,16.05,0,0,0,2.11-8.09,14.31,14.31,0,0,0-2.54-7.68,26.72,26.72,0,0,0-7-6.52,39.12,39.12,0,0,0-9.11-4.47,109.68,109.68,0,0,0-21.19-5.35,148.12,148.12,0,0,0-22-1.52c-7.39,0-14.78.42-22.15,1-5.83.47-11.65,1.1-17.43,2a130,130,0,0,0-29.21,7.77,58.81,58.81,0,0,0-12.3,6.74c-3.52,2.56-6.85,5.64-8.47,9.78,5.9-7.59,14.06-11.82,22.81-14.79,31-10.5,63.54-10.59,87.16-6.83,8.67,1.39,24.3,6.44,31.18,12.25a16.3,16.3,0,0,1,4.85,6.44c1.66,4.34.27,8.83-2.73,12.21a34.07,34.07,0,0,1-6.25,5.3,62.38,62.38,0,0,1-7.27,4.28c-9.69,4.92-20.27,7.24-30.74,9.64C126.57,67.4,129.38,67,132.18,66.45ZM27.32,39.11A11.09,11.09,0,0,0,26,48.62c1.32,4,5.16,6.77,8.61,8.82,6.27,3.74,13.26,5.64,20.35,7.09,20.28,4.16,40.72,4.26,61.21,2,5.08-.56,11.54-1.86,16.59-2.67-2-.07-5.06,0-6.76.15-6.72.44-13.48.83-20.21,1A213,213,0,0,1,70,62.91,162.86,162.86,0,0,1,53.3,59.6a59,59,0,0,1-15.27-6C29.77,48.69,27.43,42.14,33.85,33A26.91,26.91,0,0,0,27.32,39.11Z"/></svg>