<svg id="9d3086cc-a526-44e3-8a24-dd9a11dec2b9" data-name="Logos" xmlns="http://www.w3.org/2000/svg" width="200" height="80" viewBox="0 0 200 80"><defs><style>.\30 05dc408-53e0-4f37-aa9d-bbd31d2a11bf{fill:#bdbdbd;}</style></defs><title>Honeywell</title><path class="005dc408-53e0-4f37-aa9d-bbd31d2a11bf" d="M23,28.26V38.42h6.14V28.26h7.27l0,24.85-7.29,0v-11H23v10.9l-7.39,0V28.21Zm45.28,8.36-.4-1.39H61.29V53.14h6.77V40.21l.4-.6A4,4,0,0,1,72,38.42a1.77,1.77,0,0,1,.89,1.29v13.4h7.08s.07-10,0-12.45a7,7,0,0,0-1.3-3.94C76.13,33.63,70.85,34.33,68.26,36.62Zm33.13-1.44,7,17.68.1,1.49c-.8,1.2-1.3,3.29-3,3.39a16.34,16.34,0,0,0,0-2.59,3,3,0,0,0-3-1.79c-1.09.09-1.79,1.09-2.29,2a3.58,3.58,0,0,0,1,3.58,3.91,3.91,0,0,0,3.58,1.2,7.45,7.45,0,0,0,4.78-2.69l8.92-22.1,5.92,17.82,5.26,0L132.9,42.5l3,10.61h5.14l4.59-17.93-2.39,0-2.92,9.41-3.06-9.41H131.6l-2.68,9.26-3.29-9.31h-9.76l-3.59,8.21-3.38-8.16Zm.54,10.29H89.38c0,2.84,0,4.52.79,5.1.7,1,2.69,1.29,4.39,1.09a4.94,4.94,0,0,0,3.88-3.6c1,0,1.64,0,2.89,0a4.16,4.16,0,0,1-1.2,2.9c-3,2.79-7.37,3.39-11.45,2.49a8.68,8.68,0,0,1-6.47-7.37c-.5-4.08.59-8.16,4.28-10.45,4.28-2,10.75-1.7,13.64,2.59A12.73,12.73,0,0,1,101.93,45.47Zm-7.74-2.82,0-4.33c-.2-1.5-1.71-1.9-3.1-1.7-2.32.92-1.49,4.19-1.59,6.08C91.29,42.73,92.36,42.77,94.19,42.65Zm72.1,2.82H153.74c0,2.84,0,4.52.8,5.1.69,1,2.69,1.29,4.38,1.09a4.94,4.94,0,0,0,3.88-3.6c1,0,1.65,0,2.89,0A4.19,4.19,0,0,1,164.5,51c-3,2.79-7.37,3.39-11.46,2.49a8.7,8.7,0,0,1-6.47-7.37c-.5-4.08.6-8.16,4.28-10.45,4.28-2,10.76-1.7,13.65,2.59A12.72,12.72,0,0,1,166.29,45.47Zm-7.74-2.82,0-4.33c-.2-1.5-1.7-1.9-3.1-1.7-2.31.92-1.49,4.19-1.59,6.08C155.65,42.73,156.73,42.77,158.55,42.65Zm16.37,10.46V28.21H168.2v24.9Zm9.49,0V28.21h-6.73v24.9ZM58.89,44.18A9.88,9.88,0,0,1,56,51.4a10.55,10.55,0,0,1-7.19,2.52,10.87,10.87,0,0,1-6.41-1.75,9.94,9.94,0,0,1-3.62-8A10,10,0,0,1,42,36.7a10.23,10.23,0,0,1,6.84-2.26,10.69,10.69,0,0,1,6.6,2A9.89,9.89,0,0,1,58.89,44.18Zm-7.73-5.3a2.28,2.28,0,0,0-4.55,0V49.4a2.28,2.28,0,0,0,4.55,0Z"/></svg>