<svg id="ac4d5c72-3763-4b9d-8a8d-f54b780d6df7" data-name="Logos" xmlns="http://www.w3.org/2000/svg" width="200" height="80" viewBox="0 0 200 80"><defs><style>.bf3e9e12-4ca6-4952-8bd3-5e337ac518ac{fill:#bdbdbd;}</style></defs><title>Intel</title><path class="bf3e9e12-4ca6-4952-8bd3-5e337ac518ac" d="M97.88,61.93c-16.79,1.55-34.28-.91-36.73-14C60,41.45,62.9,34.58,66.81,30.34V28.08c-7,6.15-10.85,14-8.65,23.19C61,63.11,76,69.82,98.88,67.57c9.07-.89,20.94-3.8,29.19-8.33V52.82C120.58,57.28,108.2,61,97.88,61.93Zm44.2-34C138.1,8.48,100.37,7.24,76,22v1.63c24.3-12.47,58.75-12.4,61.91,5.49,1.06,5.92-2.28,12.09-8.24,15.64v4.66c7.16-2.63,14.51-11.13,12.38-21.55ZM126.71,49.29c-3.29-.32-4.4-2.32-4.4-4.61V25.09h4.4Zm-52.39.36c-3.3-.31-4.41-2.31-4.41-4.61V32.23h4.41Zm-4.41-24h4.4v4.17h-4.4Zm30.76,23.77a4.71,4.71,0,0,1-5.07-4.93v-17H100v4.7h3.29v3.53H100v8.5a1.35,1.35,0,0,0,1.51,1.55h1.78v3.62h-2.58m8-7.23a3.62,3.62,0,0,0,3.86,3.88,5,5,0,0,0,4-1.64L119.28,47a8.58,8.58,0,0,1-6.73,2.75c-4.17,0-8.17-2.26-8.17-8.92,0-5.68,3.49-8.89,8.08-8.89s7.33,3.76,7.33,8.69V42.2H108.72m3.55-6.65a3.35,3.35,0,0,0-3.13,1.81,4.44,4.44,0,0,0-.42,1.87h6.72c-.11-1.87-1-3.68-3.2-3.68Zm-29.71.21V49.49H78.19V32.24h9c3.83,0,5.14,2.7,5.14,5.15v12.1H88V37.42c0-1-.53-1.66-1.81-1.66Zm48.89-7.18a1.75,1.75,0,1,1,1.75-1.75,1.73,1.73,0,0,1-1.73,1.75Zm0-3.21a1.46,1.46,0,1,0,1.46,1.46,1.46,1.46,0,0,0-1.46-1.46Zm.77,2.51h-.32a.08.08,0,0,1-.07,0l-.45-.75-.06,0h-.21v.75a.09.09,0,0,1-.07.09h-.29a.09.09,0,0,1-.08-.09V25.91c0-.11,0-.16.14-.17a4.16,4.16,0,0,1,.54,0c.54,0,.86.16.86.67v0a.52.52,0,0,1-.39.56l.45.79a0,0,0,0,1,0,0S132.26,27.87,132.22,27.88Zm-.42-1.5c0-.21-.13-.28-.41-.28h-.28v.6h.28c.28,0,.41-.09.41-.29Z"/></svg>