<svg id="62f5f076-03cc-4f9d-95ba-86546191043c" data-name="Logos" xmlns="http://www.w3.org/2000/svg" width="200" height="80" viewBox="0 0 200 80"><defs><style>.\35 c2914b9-96a4-415f-a45d-c41365b415a0{fill:#bdbdbd;}</style></defs><title>Maxim</title><path class="5c2914b9-96a4-415f-a45d-c41365b415a0" d="M43.64,16a24,24,0,1,0,24,24A24,24,0,0,0,43.64,16ZM33.8,51.74H28.74V31a2.46,2.46,0,0,1,2.46-2.46h6.73A2.4,2.4,0,0,1,40,29.75L42.43,34l-2.65,4.79-3.16-5.66H33.8Zm24.74,0H53.48V33.15H50.65L46.29,41l5.94,10.73H46.89l-3.25-5.89-3.26,5.89H35l12.22-22a2.4,2.4,0,0,1,2.09-1.19h6.73A2.46,2.46,0,0,1,58.54,31Zm21.1-7.45h2.22V56.21H79.64Zm1.12-2.4a1.42,1.42,0,0,1-1.43-1.4,1.44,1.44,0,0,1,1.43-1.42,1.42,1.42,0,0,1,1.4,1.42,1.4,1.4,0,0,1-1.4,1.4m12,14.32V48.09c0-1.22-.53-2.05-1.83-2.05A5.13,5.13,0,0,0,87.5,48v8.25H85.28V44.29h1.77L87.33,46a6.36,6.36,0,0,1,4.22-2A3.17,3.17,0,0,1,95,47.54v8.68H92.78Zm9.69.2c-2.1,0-3.47-.75-3.47-3.14v-7.1H97V44.29h2V40.56h2.17v3.73h2.91v1.88h-2.91v6.69c0,1,.4,1.58,1.65,1.58a9.05,9.05,0,0,0,1.25-.08l.3,1.9a10.74,10.74,0,0,1-1.9.15m52.65,0c-2.1,0-3.47-.75-3.47-3.14v-7.1h-2V44.29h2V40.56h2.17v3.73h2.91v1.88h-2.9v6.69c0,1,.4,1.58,1.65,1.58a8.79,8.79,0,0,0,1.24-.08l.3,1.9a10.52,10.52,0,0,1-1.89.15m-44.3-10.62c-1.38,0-2.55,1-2.9,3h5.75c-.28-1.93-1.13-3-2.85-3m5.1,4.7h-8.1c.07,2.78,1.4,4.07,3.47,4.07a6.5,6.5,0,0,0,4.27-1.7l.33,2a7.41,7.41,0,0,1-4.77,1.6c-3.1,0-5.52-1.87-5.52-6.24,0-3.83,2.24-6.18,5.24-6.18,3.48,0,5.08,2.68,5.08,6Zm6.73-4.82a2.41,2.41,0,0,0-2.42,2.6,2.34,2.34,0,0,0,2.42,2.45,2.53,2.53,0,0,0,0-5M119.4,57.51c0,1,1.23,1.65,3.55,1.65s3.62-.8,3.62-1.8c0-.72-.55-1.22-2.25-1.52l-1.42-.25-1.48-.3c-1.39.7-2,1.4-2,2.22m9.35-13.39.32,2-2.27.22a3.64,3.64,0,0,1,.47,1.85c0,2.55-2.15,4.1-4.57,4.1a4.56,4.56,0,0,1-.9-.08c-.35.23-.6.51-.6.73,0,.43.43.53,2.52.9l.86.15c2.52.45,4.09,1.25,4.09,3.1,0,2.5-2.72,3.67-5.82,3.67s-5.57-1-5.57-3.07c0-1.23.85-2.17,2.52-3.08a1.52,1.52,0,0,1-.75-1.24c0-.58.45-1.15,1.25-1.63a3.87,3.87,0,0,1-2.22-3.55c0-2.57,2.15-4.15,4.57-4.15a4.85,4.85,0,0,1,3.07,1Zm4.31,5.05v7h-2.23V44.29h1.78l.37,2.43A5.29,5.29,0,0,1,137.15,44l.35,2.13a5.44,5.44,0,0,0-4.44,3m12.37,1c-4.4.42-5.32,1.62-5.32,2.85a1.55,1.55,0,0,0,1.77,1.59,5,5,0,0,0,3.55-1.67Zm.42,6-.25-1.6a5.59,5.59,0,0,1-4.19,1.85,3.18,3.18,0,0,1-3.5-3.32c0-3,2.55-4.15,7.52-4.67V48c0-1.5-.9-2-2.28-2A10.35,10.35,0,0,0,139,47l-.3-1.93a11.67,11.67,0,0,1,4.62-1c2.9,0,4.3,1.18,4.3,3.83v8.35h-1.8Zm17.62-10.42c-1.38,0-2.55,1-2.9,3h5.75c-.28-1.93-1.13-3-2.85-3m5.1,4.7h-8.1c.08,2.78,1.4,4.07,3.48,4.07a6.54,6.54,0,0,0,4.27-1.7l.32,2a7.41,7.41,0,0,1-4.77,1.6c-3.1,0-5.52-1.87-5.52-6.24,0-3.83,2.25-6.18,5.25-6.18,3.47,0,5.07,2.68,5.07,6Zm10.29-3.8a5.66,5.66,0,0,0-2.92-.67c-1.87,0-3.22,1.52-3.22,4.47,0,2.62,1.17,4,2.77,4a4.27,4.27,0,0,0,3.37-2.1Zm.45,9.52L179,54.49a4.92,4.92,0,0,1-3.87,2c-2.57,0-4.69-1.87-4.69-5.87,0-4.35,2.49-6.45,5.39-6.45a8.36,8.36,0,0,1,3,.53v-6h2.23V56.21Zm-85-20.31V27.78c0-1.23-.45-2.05-1.75-2.05a4.92,4.92,0,0,0-3.37,1.92V35.9H87V27.78c0-1.23-.45-2.05-1.75-2.05a5,5,0,0,0-3.37,1.93V35.9H79.64V24h1.77l.28,1.73a6.24,6.24,0,0,1,4.14-2,3,3,0,0,1,3.15,2,6.29,6.29,0,0,1,4.2-2c2.27,0,3.37,1.35,3.37,3.5V35.9Zm12.33-6c-4.4.43-5.32,1.63-5.32,2.85a1.56,1.56,0,0,0,1.77,1.6,5.08,5.08,0,0,0,3.55-1.67Zm.42,6-.25-1.6a5.61,5.61,0,0,1-4.2,1.85,3.19,3.19,0,0,1-3.5-3.32c0-3,2.55-4.15,7.53-4.68v-.5c0-1.49-.9-2-2.28-2a10.15,10.15,0,0,0-4.12,1l-.3-1.93a11.63,11.63,0,0,1,4.62-1c2.9,0,4.3,1.18,4.3,3.82V35.9ZM123.35,24h2.23V35.9h-2.23Zm1.13-2.4a1.42,1.42,0,0,1-1.43-1.4,1.44,1.44,0,0,1,1.43-1.42,1.42,1.42,0,0,1,1.4,1.42,1.4,1.4,0,0,1-1.4,1.4M143.69,35.9V27.78c0-1.23-.45-2.05-1.74-2.05a4.94,4.94,0,0,0-3.38,1.92V35.9h-2.22V27.78c0-1.23-.45-2.05-1.75-2.05a4.94,4.94,0,0,0-3.37,1.93V35.9H129V24h1.78l.27,1.73a6.24,6.24,0,0,1,4.15-2,3,3,0,0,1,3.15,2,6.25,6.25,0,0,1,4.19-2c2.28,0,3.38,1.35,3.38,3.5V35.9Zm-22.14,0H119l-3-4.45L113,35.9h-2.47l4.23-6.1L110.72,24h2.54L116,28.05,118.73,24h2.44l-4,5.75Z"/></svg>