<svg id="cfe1d3e6-0548-4033-911c-92dd826e8ab0" data-name="Logos" xmlns="http://www.w3.org/2000/svg" width="200" height="80" viewBox="0 0 200 80"><defs><style>.b553f521-efb3-41da-afd8-d332832e69c2{fill:#bdbdbd;}</style></defs><title>MikroE</title><path class="b553f521-efb3-41da-afd8-d332832e69c2" d="M1,23.08a2.05,2.05,0,0,1,2.05-2H36.92a2.05,2.05,0,0,1,2,2V56.92a2.05,2.05,0,0,1-2,2H3.08a2.05,2.05,0,0,1-2-2V23.08m-1,0V56.92A3.08,3.08,0,0,0,3.08,60H36.92A3.08,3.08,0,0,0,40,56.92V23.08A3.08,3.08,0,0,0,36.92,20H3.08A3.08,3.08,0,0,0,0,23.08Zm23.31,6.61A12.86,12.86,0,0,0,23.07,33v2.34h2.85V33a11.58,11.58,0,0,0-.27-3.21,1.05,1.05,0,0,0-1.09-.73C23.89,29.07,23.47,29.28,23.31,29.69Zm-11-3a.35.35,0,0,0-.19-.34,2.45,2.45,0,0,0-.78-.08H7a3.06,3.06,0,0,0-.9.08.31.31,0,0,0-.19.33.33.33,0,0,0,.19.34,3.06,3.06,0,0,0,.9.08h4.2a3,3,0,0,0,.86-.08A.33.33,0,0,0,12.3,26.74ZM2.05,23.08V56.92a1,1,0,0,0,1,1H36.92a1,1,0,0,0,1-1V23.08a1,1,0,0,0-1-1H3.08A1,1,0,0,0,2.05,23.08ZM7.94,30a5.72,5.72,0,0,1-2-.28,2.31,2.31,0,0,1-1.18-1,3.56,3.56,0,0,1-.44-1.86,4.26,4.26,0,0,1,.29-1.64,2.54,2.54,0,0,1,.74-1.05,2.49,2.49,0,0,1,.94-.51,5.82,5.82,0,0,1,1.47-.14H10a9.12,9.12,0,0,1,1.84.13,2.48,2.48,0,0,1,1.09.54,2.39,2.39,0,0,1,.75,1.06,4.27,4.27,0,0,1,.24,1.49c0,.21,0,.4,0,.59a7.33,7.33,0,0,0-.39.67A11.06,11.06,0,0,0,13,29.41a2.61,2.61,0,0,1-.87.42,7.7,7.7,0,0,1-1.77.15ZM4.47,35V32.13l1.22.12A2.13,2.13,0,0,1,4.3,30.46H7.58a2.35,2.35,0,0,0,.21,1.14.9.9,0,0,0,.58.45,10.26,10.26,0,0,0,1.73.08h2.34A24.87,24.87,0,0,0,12.29,35Zm0,6.46V38.6H7.19l-2.72-.88V35.33l3.71,1.15,4.11-1.1V38l-2.57.56h2.57v2.84Zm0,3.69V42.2H6v2.92Zm2.05,0V42.2h5.77v2.92Zm-2,11.34V53.52l.89,0a2.2,2.2,0,0,1-.79-.82,2.18,2.18,0,0,1-.27-1.09,2.13,2.13,0,0,1,1.06-1.88,2.5,2.5,0,0,1-.79-.84,2.11,2.11,0,0,1-.27-1,2.14,2.14,0,0,1,.35-1.25A1.52,1.52,0,0,1,5.51,46a7.07,7.07,0,0,1,1.65-.14h5.15a26.92,26.92,0,0,0,.24,2.88H7.71a6.94,6.94,0,0,0-1.48.09.37.37,0,0,0-.28.39.39.39,0,0,0,.28.41,6.87,6.87,0,0,0,1.48.09h5l.09.38a9.49,9.49,0,0,0,1.1,2.51H7.86a10,10,0,0,0-1.64.07.36.36,0,0,0-.27.39.45.45,0,0,0,.14.33.54.54,0,0,0,.36.16H14.6a2.88,2.88,0,0,0,.26.35,9.57,9.57,0,0,0,3.63,2.54ZM30.88,25a8.49,8.49,0,0,1,3.74,4.12,19.32,19.32,0,0,1,1.08,7.24v4.25H23.07V47.5a7.7,7.7,0,0,0,.31,2.8,1.22,1.22,0,0,0,1.21.63,1.46,1.46,0,0,0,1.48-.84,9,9,0,0,0,.38-3.22V42.64H35.7V45a21.21,21.21,0,0,1-.38,4.57A9.28,9.28,0,0,1,33.57,53a8.57,8.57,0,0,1-3.49,2.72,13.57,13.57,0,0,1-5.3.9,15.33,15.33,0,0,1-5.46-.89,8.47,8.47,0,0,1-5.5-5.88,22,22,0,0,1-.51-5.45V35a15.87,15.87,0,0,1,1.14-6.63,7.73,7.73,0,0,1,3.72-3.72,13.11,13.11,0,0,1,5.94-1.29A13.27,13.27,0,0,1,30.88,25Zm29.29,5.91v18h-4.3V36.71L54.15,48.87h-3L49.3,37V48.87H45v-18h6.36c.19,1.08.38,2.35.58,3.82l.7,4.58,1.13-8.4Zm6,0v2.34H61.55V30.87Zm0,3.24V48.87H61.55V34.11Zm10.9,0L75.25,40l2.37,8.88H73.3l-1.4-6.43v6.43H67.4v-18h4.49v7.55l1.4-4.31Zm5.06,0L82,36.05a3.32,3.32,0,0,1,2.83-2.2V39a3.78,3.78,0,0,0-1.81.33,1.38,1.38,0,0,0-.71.93A16.27,16.27,0,0,0,82.14,43v5.83H77.65V34.11Zm13.71,5.18v3.62a15.62,15.62,0,0,1-.2,2.92,4,4,0,0,1-.86,1.73,3.72,3.72,0,0,1-1.68,1.19,6.64,6.64,0,0,1-2.36.38,8.42,8.42,0,0,1-2.53-.32,3.42,3.42,0,0,1-1.6-1,3.79,3.79,0,0,1-.82-1.61,12,12,0,0,1-.25-2.81V39.62A9.19,9.19,0,0,1,86,36.4a3.63,3.63,0,0,1,1.6-1.85,5.62,5.62,0,0,1,3-.7,7,7,0,0,1,2.59.44,4.32,4.32,0,0,1,1.68,1.18,4.1,4.1,0,0,1,.8,1.49A9,9,0,0,1,95.85,39.29Zm-4.49-1.11a5.05,5.05,0,0,0-.12-1.43.52.52,0,0,0-.53-.29.53.53,0,0,0-.53.29,4.57,4.57,0,0,0-.13,1.43v6.66a4.4,4.4,0,0,0,.13,1.37.51.51,0,0,0,.52.31.52.52,0,0,0,.53-.29A3.6,3.6,0,0,0,91.36,45Zm6-7.31h7.81v3.6H102v3.41H105v3.43H102v4h3.44v3.6H97.35Zm13.84,0v18h-4.62v-18Zm11.67,10.88h-5.81v3.19a3.71,3.71,0,0,0,.14,1.29.57.57,0,0,0,.56.29.67.67,0,0,0,.68-.38,4.12,4.12,0,0,0,.17-1.49V42.71h4.26V43.8a9.47,9.47,0,0,1-.17,2.1,4.14,4.14,0,0,1-.81,1.57,3.94,3.94,0,0,1-1.6,1.25,6.37,6.37,0,0,1-2.44.41,7,7,0,0,1-2.52-.41,4,4,0,0,1-1.69-1.13,3.85,3.85,0,0,1-.84-1.58,9.91,9.91,0,0,1-.23-2.5V39.2a7.34,7.34,0,0,1,.52-3.05,3.64,3.64,0,0,1,1.71-1.71,6,6,0,0,1,2.74-.59,6.14,6.14,0,0,1,3.11.71,4,4,0,0,1,1.73,1.9,8.93,8.93,0,0,1,.49,3.33Zm-4.5-2.4V38.27a5.55,5.55,0,0,0-.12-1.48.48.48,0,0,0-.5-.33c-.31,0-.51.09-.58.28a5.67,5.67,0,0,0-.11,1.53v1.08Zm15.53-5.24L132.07,40l2.37,8.88h-4.32l-1.41-6.43v6.43h-4.49v-18h4.49v7.55l1.41-4.31Zm5.84-2v2.33h1.21V36.8h-1.21v7.9a4.23,4.23,0,0,0,.15,1.62c.1.11.51.17,1.25.17v2.38h-1.82a13.53,13.53,0,0,1-2.19-.13,2.35,2.35,0,0,1-1.15-.59,1.91,1.91,0,0,1-.62-1.06,17,17,0,0,1-.13-2.79V36.8h-1V34.47h1V32.14Zm6.58,2-.18,1.94a3.33,3.33,0,0,1,2.83-2.2V39a3.81,3.81,0,0,0-1.81.33,1.38,1.38,0,0,0-.71.93,16.69,16.69,0,0,0-.13,2.74v5.83h-4.5V34.11ZM160,39.29v3.62a14.79,14.79,0,0,1-.2,2.92,4.12,4.12,0,0,1-.85,1.73,3.81,3.81,0,0,1-1.69,1.19,6.6,6.6,0,0,1-2.36.38,8.35,8.35,0,0,1-2.52-.32,3.46,3.46,0,0,1-1.61-1,3.9,3.9,0,0,1-.82-1.61,12.16,12.16,0,0,1-.24-2.81V39.62a9.22,9.22,0,0,1,.44-3.22,3.67,3.67,0,0,1,1.6-1.85,5.62,5.62,0,0,1,3-.7,7,7,0,0,1,2.6.44A4.12,4.12,0,0,1,159.8,37,9.53,9.53,0,0,1,160,39.29Zm-4.49-1.11a5.05,5.05,0,0,0-.12-1.43.51.51,0,0,0-.52-.29.54.54,0,0,0-.54.29,4.57,4.57,0,0,0-.13,1.43v6.66a4.4,4.4,0,0,0,.13,1.37.61.61,0,0,0,1,0,3.6,3.6,0,0,0,.13-1.24ZM166,34.11l-.08,1.36a3.42,3.42,0,0,1,1.2-1.22,3.2,3.2,0,0,1,1.63-.4,3.11,3.11,0,0,1,1.89.54,2.4,2.4,0,0,1,.94,1.37,12.75,12.75,0,0,1,.21,2.77V48.87h-4.49V38.65a9.22,9.22,0,0,0-.1-1.86c-.07-.22-.25-.33-.56-.33a.56.56,0,0,0-.6.38,9.85,9.85,0,0,0-.12,2v10h-4.49V34.11Zm11.85-3.24v2.34h-4.63V30.87Zm0,3.24V48.87h-4.63V34.11Zm11.17,0L187.15,40l2.37,8.88H185.2l-1.4-6.43v6.43H179.3v-18h4.49v7.55l1.4-4.31Zm5.11,5.72h-4.21v-1a7.06,7.06,0,0,1,.39-2.64,3.71,3.71,0,0,1,1.59-1.64,5.89,5.89,0,0,1,3.09-.71,6,6,0,0,1,3.44.8,3.17,3.17,0,0,1,1.39,2,31.88,31.88,0,0,1,.23,4.83v7.41h-4.37V47.55a2.88,2.88,0,0,1-1.06,1.19,3,3,0,0,1-1.55.39,3.77,3.77,0,0,1-2.16-.66c-.66-.44-1-1.4-1-2.89V44.36a3.53,3.53,0,0,1,.52-2.25,7.31,7.31,0,0,1,2.59-1.4,7.32,7.32,0,0,0,2.37-1.17,3,3,0,0,0,.16-1.22,3.94,3.94,0,0,0-.18-1.51.59.59,0,0,0-.57-.35c-.3,0-.49.1-.56.29a5.6,5.6,0,0,0-.12,1.53Zm1.43,2a3.34,3.34,0,0,0-1.25,1.32,5.09,5.09,0,0,0-.18,1.54,4.14,4.14,0,0,0,.16,1.48.57.57,0,0,0,.59.33.56.56,0,0,0,.55-.26,4.32,4.32,0,0,0,.13-1.37Z"/></svg>