<svg id="cbec3b57-374b-474a-8771-9d3129958837" data-name="Logos" xmlns="http://www.w3.org/2000/svg" width="200" height="80" viewBox="0 0 200 80"><defs><style>.\39 ed223dd-ce86-4d3d-9497-0ca32a28380e{fill:#bdbdbd;}</style></defs><title>NXP</title><path class="9ed223dd-ce86-4d3d-9497-0ca32a28380e" d="M111.37,40l12.28,20H109.1l-8.29-13.3L92.52,60H78L90.25,40,78,20H92.52l8.29,13.3L109.1,20h14.55Zm47.35-6.33v4.7c0,6-2.61,12.79-11.32,12.79H126.65V60h0L114.37,40l12.28-20h17.53C155.89,20,158.72,25.84,158.72,33.67Zm-11.47.5c0-2.7-1.33-4.25-5.05-4.25H126.67V41.24h16.58c2.89,0,4-2.73,4-5.1ZM87.25,40,75,20h0V44.17L54.16,20H41.87V60h12.3V35.83L75,60Z"/></svg>