<svg id="998a2b60-31c1-4f24-aa0c-053c7bd434ad" data-name="Logos" xmlns="http://www.w3.org/2000/svg" width="200" height="80" viewBox="0 0 200 80"><defs><style>.\31 78e16fc-a645-4a56-b94e-b0477c24ccd7{fill:#bdbdbd;}</style></defs><title>Seeed</title><path class="178e16fc-a645-4a56-b94e-b0477c24ccd7" d="M74.43,47.39a10,10,0,0,0,6.64,2.75c2.55,0,3.84-.93,3.84-2.39,0-1.69-2.06-2.3-4.45-2.83-3.36-.73-7.37-1.62-7.37-6,0-3.2,2.75-6,7.69-6a11.17,11.17,0,0,1,7.61,2.75l-1.78,3a7.86,7.86,0,0,0-5.79-2.35c-2.22,0-3.64.81-3.64,2.19s1.94,2,4.25,2.54c3.4.73,7.57,1.71,7.57,6.32,0,3.44-2.87,6.07-8.14,6.07a11.91,11.91,0,0,1-8.38-3ZM102,33c5.87,0,9.63,4.49,9.63,10.65v1H96.54A5.93,5.93,0,0,0,102.78,50a8.28,8.28,0,0,0,5.54-2.14l2,2.79a11.43,11.43,0,0,1-7.94,2.83A9.82,9.82,0,0,1,92.09,43.22C92.09,37.55,96.22,33,102,33ZM96.5,41.64h11a5.22,5.22,0,0,0-5.5-5.18A5.39,5.39,0,0,0,96.5,41.64ZM124.57,33c5.87,0,9.64,4.49,9.64,10.65v1h-15.1A5.92,5.92,0,0,0,125.34,50a8.32,8.32,0,0,0,5.55-2.14l1.94,2.79a11.4,11.4,0,0,1-7.93,2.83,9.83,9.83,0,0,1-10.25-10.28C114.65,37.55,118.78,33,124.57,33Zm-5.5,8.66h11a5.23,5.23,0,0,0-5.51-5.18A5.39,5.39,0,0,0,119.07,41.64ZM147.14,33c5.87,0,9.63,4.49,9.63,10.65v1h-15.1A5.93,5.93,0,0,0,147.91,50a8.28,8.28,0,0,0,5.54-2.14l2,2.79a11.43,11.43,0,0,1-7.94,2.83,9.82,9.82,0,0,1-10.24-10.28C137.22,37.55,141.35,33,147.14,33Zm-5.51,8.66h11a5.23,5.23,0,0,0-5.5-5.18A5.39,5.39,0,0,0,141.63,41.64ZM178,28.77v8.14a10.26,10.26,0,1,0,0,12.66V53.5h4.22v-27Zm-8,20.14a5.67,5.67,0,1,1,5.68-5.67A5.67,5.67,0,0,1,170,48.91ZM27,38.13A50,50,0,0,1,31.84,16C25.38,20.14,21,28.49,21,38.13s4.43,18,10.89,22.13A50,50,0,0,1,27,38.13ZM37.71,60.26C44.17,56.12,48.6,47.77,48.6,38.13S44.17,20.14,37.71,16a50,50,0,0,1,4.81,22.13A50,50,0,0,1,37.71,60.26Zm-21.1-13a50,50,0,0,1-6.9-21.57c-3.52,6.82-3.18,16.26,1.64,24.61S24.17,63.64,31.84,64A50,50,0,0,1,16.61,47.24ZM37.71,64c7.67-.36,15.67-5.37,20.49-13.72s5.17-17.79,1.64-24.61A50.1,50.1,0,0,1,53,47.24,50,50,0,0,1,37.71,64ZM187.14,27a2.5,2.5,0,0,0-.68,1.65c0,.63.23.95.59.95s.58-.51.71-1.11c.18-.83.4-1.82,1.48-1.82.79,0,1.48.68,1.48,1.9a2.73,2.73,0,0,1-.69,1.89l-.74-.44a2,2,0,0,0,.58-1.44c0-.55-.2-.9-.54-.9s-.5.48-.63,1.06c-.18.84-.42,1.87-1.57,1.87-.85,0-1.5-.71-1.5-2a3,3,0,0,1,.75-2.08Zm-.27,4.89h2.8v-.8h.93v.8h1.32v1.05H190.6v1h-.93v-1h-2.54c-.33,0-.57.17-.57.47a.68.68,0,0,0,.17.47l-.79.25a1.39,1.39,0,0,1-.31-1A1.12,1.12,0,0,1,186.87,31.87Zm-.48,6.27a2.34,2.34,0,0,1-.76-1.72,1.38,1.38,0,0,1,1.53-1.56h3.44v1.06h-3.06c-.75,0-1,.38-1,1a1.63,1.63,0,0,0,.63,1.25h3.41v1h-4.85v-1Zm0,5.83a2,2,0,0,1-.78-1.55c0-1.25.94-2.16,2.54-2.16s2.55.9,2.55,2.16a1.92,1.92,0,0,1-.8,1.55h2.52V45h-6.69V44Zm2.72,0a1.59,1.59,0,0,0,.65-1.25,1.63,1.63,0,0,0-3.22,0A1.58,1.58,0,0,0,187.2,44ZM192,46.26a.66.66,0,0,1,.65.66.65.65,0,1,1-1.3,0A.66.66,0,0,1,192,46.26Zm-1.39.13v1.06h-4.85V46.39Zm-2.42,2.12A2.5,2.5,0,1,1,185.63,51,2.43,2.43,0,0,1,188.18,48.51Zm0,3.9A1.41,1.41,0,1,0,186.56,51,1.45,1.45,0,0,0,188.18,52.41Z"/></svg>