<svg id="ae247dcc-e492-4abd-b7a7-aff80b42f5f9" data-name="Logos" xmlns="http://www.w3.org/2000/svg" width="200" height="80" viewBox="0 0 200 80"><defs><style>.\33 840bdbf-2b24-4d09-b95a-5bf9e97c45ca{fill:#bdbdbd;}</style></defs><title>Semtech</title><path class="3840bdbf-2b24-4d09-b95a-5bf9e97c45ca" d="M14.28,26.26c.14-.57.71-2,4.13-5.13,1.71-1.57,6.27-4,7.41-5.13H37.93V38.22a7.66,7.66,0,0,0-5.7-6.13c-4-1.42-9.69-1.42-13.25-1.85-2-.14-5.55-.71-4.7-4m12,21.79c5-5.27,3.42-10.54-4.28-11.11-2.84-.29-6.69-.71-8.54-.86-.43,0-4,0-5.27-2V64H8.3c4.13-2.56,16.24-14.24,18-16M23.83,16H8.3V30.53a25.78,25.78,0,0,1,5.13-7.27A44,44,0,0,1,23.83,16m14,25.92A27.43,27.43,0,0,1,33.51,52,66.34,66.34,0,0,1,22.69,64h15Zm8.15.28c0,2.12,1.18,4.24,8.65,4.07,4.15,0,9.32-.59,9.32-3.9,0-2.29-2.71-3-6.1-3.48l-2.46-.34c-2-.25-3.65-.51-3.65-1.27s1-1.19,3.39-1.19c1.62,0,3.14.17,3.31,1.36h5.17c-.16-2.37-2.12-3.73-8.81-3.73-4.24,0-8.4,1.1-8.4,4,0,2.29,3.14,3,6.19,3.39l2.63.34c2.12.34,3.39.59,3.39,1.35,0,.6-.51,1.28-3.64,1.28-2.55,0-3.57-.34-3.65-1.87ZM65.6,46.1h16V43.64H70.94V41.27h9.92V38.81H70.94V36.6H81.37V34.14H65.6Zm18.06,0h4.16V36.35h.08l5.6,9.75h5.09l5.59-9.75h.09V46.1h4.58v-12h-7.3L96.3,43.05l-5-8.91H83.66Zm34,0H123V36.6h7V34.14H110.54V36.6h7.13Zm14.33,0h16V43.64H137.34V41.27h9.92V38.81h-9.92V36.6h10.43V34.14H132ZM170.33,38c-.09-3.14-4.75-4.24-9.59-4.24-6.78,0-11.19,1.87-11.19,6.28s4.58,6.27,10.26,6.27,10.26-.85,10.52-4.32h-5.77c-.17,1.52-2,1.95-4.15,1.95-3.74,0-5.18-1.78-5.18-3.9s1.78-3.74,5.34-3.74c2,0,3.82.43,4.08,1.78Zm1.44,8.14h5.34V41.35h9.07V46.1h5.35v-12h-5.35v4.75h-9.07V34.14h-5.34Z"/></svg>