<svg id="1a2b2f92-499f-4918-87f8-ee8044408e8e" data-name="Logos" xmlns="http://www.w3.org/2000/svg" width="200" height="80" viewBox="0 0 200 80"><defs><style>.\35 912cfaa-bb35-4fde-a392-572d8eeed66d{fill:#bdbdbd;}</style></defs><title>ST</title><path class="5912cfaa-bb35-4fde-a392-572d8eeed66d" d="M84.5,65.25a2.22,2.22,0,1,1,2.17-2.2,2.15,2.15,0,0,1-2.12,2.2h0m2.13-4.11a2.58,2.58,0,0,0-2.13-1A2.93,2.93,0,0,0,84.39,66h.11a2.58,2.58,0,0,0,2.13-1v.92h.79V60.26h-.79Zm6.44,2.06a1.94,1.94,0,0,1-.56,1.62,1.53,1.53,0,0,1-1.14.43,1.56,1.56,0,0,1-1.25-.51,2.24,2.24,0,0,1-.39-1.42V60.25H89v3.09a2.81,2.81,0,0,0,.49,1.8,2.41,2.41,0,0,0,1.93.84,1.92,1.92,0,0,0,1.74-.91v.77h.75V60.25h-.79Zm4.59,2A2.22,2.22,0,1,1,99.81,63V63a2.18,2.18,0,0,1-2.14,2.21h0m2.11-4.08a2.57,2.57,0,0,0-2.11-1.07,2.94,2.94,0,0,0,0,5.87,2.49,2.49,0,0,0,2.11-1.07v.37a1.86,1.86,0,0,1-1.71,2h-.25a2.12,2.12,0,0,1-2-1.37v0H95v0A3,3,0,0,0,100,67a3.16,3.16,0,0,0,.51-2V60.25h-.78Zm7.93-1.06a2.16,2.16,0,0,0-1.86,1,2.14,2.14,0,0,0-1.85-1,1.83,1.83,0,0,0-1.46.68v-.54h-.79v5.59h.79V62.61a2,2,0,0,1,.25-1.13,1.45,1.45,0,0,1,2.42,0,2,2,0,0,1,.25,1.13v3.23h.79V62.61a2.12,2.12,0,0,1,.24-1.13,1.46,1.46,0,0,1,2-.41,1.6,1.6,0,0,1,.41.41,2.13,2.13,0,0,1,.25,1.13v3.23h.78V62.53a2.2,2.2,0,0,0-2-2.41h-.26m4,2.51a2.13,2.13,0,0,1,4.21,0Zm2.09-2.51a3,3,0,0,0-2.9,2.94,2.91,2.91,0,0,0,5.66,1l0-.05h-.84v0a2,2,0,0,1-1.93,1.28,2.15,2.15,0,0,1-2.09-1.92h5v0a3,3,0,0,0-.43-1.77,2.91,2.91,0,0,0-2.49-1.43m6.44,0a2,2,0,0,0-1.67.79v-.65h-.79v5.59h.79V62.77a2,2,0,0,1,.5-1.48,1.7,1.7,0,0,1,2.34,0,2,2,0,0,1,.51,1.48v3.07h.79V62.77a2.69,2.69,0,0,0-.7-2,2.33,2.33,0,0,0-1.77-.69m5.28-1.81h-.79v2h-1.15V61h1.15v4.88h.79V61h1.32v-.72h-1.32Zm2.59,4.32a2.13,2.13,0,0,1,4.21,0Zm2.09-2.52a3,3,0,0,0-2.9,2.95,2.91,2.91,0,0,0,5.66,1l0-.05h-.84v0a2,2,0,0,1-1.93,1.28,2.15,2.15,0,0,1-2.09-1.92h5v0a3,3,0,0,0-.43-1.77,2.91,2.91,0,0,0-2.49-1.43m6.7,5.15a2.22,2.22,0,1,1,0-4.44h0A2.21,2.21,0,0,1,139,63.05a2.17,2.17,0,0,1-2.12,2.21h0m2.13-7v2.83a2.71,2.71,0,0,0-2.13-1,2.94,2.94,0,1,0-.11,5.87h.11a2.66,2.66,0,0,0,2.13-1v.91h.78V58.3Zm-74.54.93h.75V58.11h-.75Zm-2.55-.94H60.27V59h.89v6.13h-.95v.7h2.57v-.7h-.87Zm3.48,2H63.75V61h.89v4.18h-.91v.7h2.54v-.7h-.88Zm3.08-1.59a1.86,1.86,0,0,0-.53,1.55v0h-.89V61H68v4.16h-.9v.7H69.6v-.7h-.9V61h.9v-.73h-.9v-.12a1.11,1.11,0,0,1,.35-1,1.27,1.27,0,0,1,.72-.26h0V58.2h0a2,2,0,0,0-1.29.46m2.94,4.08a2.12,2.12,0,0,1,4.19,0Zm2-2.49a2.86,2.86,0,1,0,2.65,4l0,0h-.81v0a2.11,2.11,0,0,1-3.91-.88h4.93v-.24a2.85,2.85,0,0,0-2.81-2.88h-.07M78.88,66a1,1,0,0,0,0-1.94,1,1,0,0,0-1,1h0a1,1,0,0,0,1,1m60.91-53.42a.71.71,0,0,1,0,.21l-1.93,4.66a.58.58,0,0,1-.54.38H88.62c-10,0-12,10.9-7.22,15.61L90.53,42c1.38,1.35.61,3.05-1.16,3.05H64.52a.57.57,0,0,1-.58-.56.54.54,0,0,1,.05-.22L74.85,18.06a10.18,10.18,0,0,1,9.33-6h55A.57.57,0,0,1,139.79,12.57Zm-6.06,12.75h-9.34a1.51,1.51,0,0,0-1.4.93L112.52,51.55a.58.58,0,0,0-.06.26.56.56,0,0,0,.57.57h3.49a10.2,10.2,0,0,0,9.41-6.21h0l8.32-20.08a.52.52,0,0,0,0-.21A.56.56,0,0,0,133.73,25.32Zm-18.94,0H88.3a1.78,1.78,0,0,0-1.17,3.17l8.75,8.14s3.54,3.27,2.78,7.94a10.1,10.1,0,0,1-5.51,7.54h0a.16.16,0,0,0-.08.13.14.14,0,0,0,.14.14h10.21a1.52,1.52,0,0,0,1.4-.92l10.51-25.37a.64.64,0,0,0,0-.2A.56.56,0,0,0,114.79,25.32Z"/></svg>