<svg id="db8bb723-ea8e-4fd9-b6f0-7ab2cc990cc8" data-name="Logos" xmlns="http://www.w3.org/2000/svg" width="200" height="80" viewBox="0 0 200 80"><defs><style>.d77d4f35-064a-49fe-907e-1fb87f46b1d5{fill:#bdbdbd;fill-rule:evenodd;}</style></defs><title>TI</title><path class="d77d4f35-064a-49fe-907e-1fb87f46b1d5" d="M35.53,21.72h0a1.85,1.85,0,1,1-1.85,1.85,1.85,1.85,0,0,1,1.85-1.85ZM19.77,45.08c2.66,0,2.08-2.57,3.43-2.57,1.16,0,1.46.88,2.12,2.47,1.84,4.47,6,12.14,12.06,10.35,0,0-4.19-9,10.21-13.07V34.48c-2.92.06-2.06-7.61-2.06-7.61H38.14l-.75,4.25h2.47l-.68,3.58H36.72l-1,5.45h0c-.45,2.24.74,1.79,1.64,1.79h0L37,44h0c-6.57,2.91-7.84-1.57-7.47-3.58h0l1.05-5.75H27.24l.68-3.58H31.2L32,26.87H29.33V20H20.6V33.58H10.18S14.52,45.08,19.77,45.08Zm10.78-4.49H34.5l2.62-13.72h-4L30.55,40.59ZM140.64,59.18a1.42,1.42,0,0,1-1.33-1.39h0v-8h0a1.42,1.42,0,0,1,1.33-1.38c.19,0,.19-.23,0-.23h-3.27l-4.53,7.52-4.64-7.52h-3.45c-.22,0-.22.23,0,.23A1.42,1.42,0,0,1,126,49.81h0v8h0a1.42,1.42,0,0,1-1.32,1.39c-.2,0-.2.23,0,.23h4.14c.21,0,.21-.23,0-.23a1.41,1.41,0,0,1-1.32-1.39h0V52.07l4.37,7.11h0c.19.26.31.34.54,0,0,0,4.22-7,4.22-7h0v5.56h0a1.42,1.42,0,0,1-1.32,1.39c-.19,0-.19.23,0,.23h5.22c.21,0,.21-.23,0-.23Zm-16.76-11H120c-.21,0-.21.23,0,.23a1.42,1.42,0,0,1,1.33,1.38h0v5.76h0c0,1.92-1.84,2.72-3.38,2.68s-3.07-.26-3.07-2.68h0V49.81h0a1.42,1.42,0,0,1,1.32-1.38c.2,0,.2-.23,0-.23h-4.76c-.21,0-.21.23,0,.23a1.42,1.42,0,0,1,1.32,1.38h0v5.76h0c0,2.65,1.92,3.84,5.22,3.84,2.3,0,4.61-1.35,4.61-3.84h0V49.81h0a1.41,1.41,0,0,1,1.32-1.38c.19,0,.19-.23,0-.23ZM112.63,58.33h0c.19-.08.23.08.18.15-2.61,2.77-4.88.54-6.26-1.65s-1.77-2.24-2.44-2.41c0,0-1.17,0-1.17,0-.27,0-.38.19-.38.46h0v3h0a1.39,1.39,0,0,0,1.32,1.29c.19,0,.19.23,0,.23H98.79c-.21,0-.21-.23,0-.23a1.42,1.42,0,0,0,1.32-1.39h0v-8h0a1.42,1.42,0,0,0-1.32-1.38c-.2,0-.2-.23,0-.23h7.84c1.38,0,4.06.42,4.06,3.3s-2.87,2.92-3.41,2.92-.52.3-.14.36a8.8,8.8,0,0,1,3.17,2.86,2.22,2.22,0,0,0,2.32.69Zm-6.35-5.22h0a1.65,1.65,0,0,0,1.61-1.84,1.77,1.77,0,0,0-2-1.77h-2.84c-.35,0-.5.31-.5.64h0v2.47h0a.44.44,0,0,0,.5.5h3.22ZM75.5,48.2H71.89c-.21,0-.21.23,0,.23a1.42,1.42,0,0,1,1.33,1.38h0v5.8L65.83,48.2H62.07c-.22,0-.22.23,0,.23.53,0,1.74,1.19,2.55,2.15h0v7.21h0a1.42,1.42,0,0,1-1.33,1.39c-.19,0-.19.23,0,.23h3.84c.21,0,.21-.23,0-.23a1.41,1.41,0,0,1-1.32-1.39h0V51.73l8.06,8.14h0c.27.27.31.07.31-.12h0V49.81h0a1.41,1.41,0,0,1,1.32-1.38c.19,0,.19-.23,0-.23Zm-13.62,11a1.4,1.4,0,0,1-1.32-1.38h0v-12h0a1.42,1.42,0,0,1,1.32-1.39c.2,0,.2-.23,0-.23H56.8c-.21,0-.21.23,0,.23a1.41,1.41,0,0,1,1.32,1.39h0v12h0a1.4,1.4,0,0,1-1.32,1.38c-.19,0-.19.24,0,.24h5.06c.22,0,.22-.24,0-.24Zm37.35-8.35L98.15,48.2H87.91l-1,2.33-.66-2h0c-.07-.13-.28-.27-.42.06a.76.76,0,0,1-1,.44,10,10,0,0,0-3.66-.64c-2.56,0-4.28,1.16-4.28,3.42,0,4.26,8.4,2,8.31,5,0,1.59-1.45,1.7-2.91,1.7a8.52,8.52,0,0,1-5.94-3.16c-.26-.22-.39-.07-.31.23h0l1.14,3.65h0c.08.13.14.38.33.38s.34-.63.75-.63a37.68,37.68,0,0,0,4.48.64c1.91,0,4.66-1.12,4.66-3.29,0-2.84-1.73-3.26-5.49-3.82-1.19-.18-3-.2-3-1.79,0-1.11,1.76-1.4,2.71-1.4,3,0,5.38,2.81,5.63,2.81s.2-.24.08-.53h0l-.25-.75h0a2.76,2.76,0,0,1,2.44-1.43h1.23a.74.74,0,0,1,.69.77h0v7.52h0a1.42,1.42,0,0,1-1.33,1.39c-.19,0-.19.23,0,.23h5.38c.21,0,.21-.23,0-.23a1.42,1.42,0,0,1-1.33-1.39h0V50.27h0a.74.74,0,0,1,.69-.77h1.65A2.79,2.79,0,0,1,99,51c.11.12.31.12.23-.15Zm79.24,0L177.4,48.2H167.15l-1.08,2.61h0c-.07.27.12.27.23.15a2.82,2.82,0,0,1,2.46-1.46H170a.74.74,0,0,1,.69.77h0v7.52h0a1.42,1.42,0,0,1-1.32,1.39c-.2,0-.2.23,0,.23h5.37c.21,0,.21-.23,0-.23a1.42,1.42,0,0,1-1.33-1.39h0V50.27h0a.74.74,0,0,1,.7-.77h1.65A2.79,2.79,0,0,1,178.24,51c.12.12.31.12.23-.15Zm-36.65-2.38a1.42,1.42,0,0,1,1.33,1.38h0v8h0a1.42,1.42,0,0,1-1.33,1.39c-.19,0-.19.23,0,.23h10.21l1.08-2.61h0c.08-.27-.12-.27-.23-.16a2.81,2.81,0,0,1-2.46,1.46H146.6a.74.74,0,0,1-.69-.77h0V54.65h0c0-.35.19-.5.58-.5h1.65c1,0,1.34.4,1.38.94,0,.19.23.19.23,0h0V51.92h0c0-.21-.23-.21-.23,0,0,.54-.42.94-1.38.94h-1.65c-.39,0-.58-.15-.58-.5h0V50.27h0a.74.74,0,0,1,.69-.77h3.5A2.79,2.79,0,0,1,152.55,51c.12.12.31.12.23-.15h0l-1.07-2.61h-9.87c-.21,0-.21.23,0,.23Zm10.89,0c.54,0,1.75,1.19,2.55,2.15h0v7.21h0a1.42,1.42,0,0,1-1.32,1.39c-.19,0-.19.23,0,.23h3.84c.21,0,.21-.23,0-.23a1.42,1.42,0,0,1-1.32-1.39h0V51.73l8.06,8.14h0c.27.27.31.07.31-.12h0V49.81h0a1.42,1.42,0,0,1,1.32-1.38c.19,0,.19-.23,0-.23h-3.6c-.22,0-.22.23,0,.23a1.42,1.42,0,0,1,1.32,1.38h0v5.8l-7.37-7.41h-3.76c-.21,0-.21.23,0,.23Zm31.08,4.16c-1.19-.18-3-.2-3-1.79,0-1.11,1.75-1.4,2.7-1.4,3,0,5.38,2.81,5.63,2.81s.2-.24.08-.53h0l-1-3.12h0c-.07-.13-.28-.27-.42.06a.75.75,0,0,1-1,.44,10,10,0,0,0-3.66-.64c-2.56,0-4.28,1.16-4.28,3.42,0,4.26,8.4,2,8.31,5-.05,1.59-1.45,1.7-2.91,1.7a8.54,8.54,0,0,1-5.94-3.16c-.26-.22-.39-.07-.31.23h0l1.14,3.65h0c.08.13.14.38.34.38s.33-.63.74-.63a37.94,37.94,0,0,0,4.49.64c1.9,0,4.65-1.12,4.65-3.29,0-2.84-1.73-3.26-5.49-3.82ZM64.29,31.44a1.42,1.42,0,0,1,1.33,1.39h0v8h0a1.42,1.42,0,0,1-1.33,1.38c-.19,0-.19.23,0,.23H74.52l1.08-2.61h0c.07-.27-.12-.27-.23-.15a2.82,2.82,0,0,1-2.46,1.46H69.07a.74.74,0,0,1-.69-.77h0V37.66h0c0-.34.19-.5.58-.5h1.65c1,0,1.34.41,1.38.94,0,.2.23.2.23,0h0V34.94h0c0-.21-.23-.21-.23,0,0,.54-.42.94-1.38.94H69c-.39,0-.58-.15-.58-.5h0V33.29h0a.74.74,0,0,1,.69-.77h3.49A2.79,2.79,0,0,1,75,34c.12.11.31.11.23-.16h0l-1.07-2.61H64.31c-.21,0-.21.23,0,.23Zm39.38,3.9h0c3.76.56,5.5,1,5.5,3.81,0,2.18-2.75,3.29-4.66,3.29A37.68,37.68,0,0,1,100,41.8c-.42,0-.54.64-.75.64l-.08,0H94.29c-.21,0-.21-.23,0-.23s1.13-.48.85-1.17h0l-.73-1.82h0a.53.53,0,0,0-.45-.31H90a.5.5,0,0,0-.46.33h0l-.84,1.92h0c-.39.52.37,1,.7,1s.2.23,0,.23H82.84c-.22,0-.22-.23,0-.23s1.24-.57.85-1.09h0l-2-2.94-2.37,3h0c-.4.52.36,1,.7,1,.19,0,.19.23,0,.23H76c-.21,0-.21-.23,0-.23a1.44,1.44,0,0,0,1-.55h0l3.79-4.8-2.93-4.28h0A2.14,2.14,0,0,0,76,31.44c-.2,0-.2-.23,0-.23h5.42c.21,0,.21.23,0,.23-.54,0-1,.43-.68,1h0l1.62,2.34,1.88-2.34h0c.34-.61-.14-1-.67-1-.2,0-.2-.23,0-.23H88c.21,0,.21.23,0,.23a2.18,2.18,0,0,0-1.9,1.12h0l-2.9,3.59,3.69,5.4,4.9-10.34h1.73l4.58,10.43h0a1.12,1.12,0,0,0,.86.52l-.06-.1h0L97.8,38.41h0c-.08-.31,0-.45.31-.24a8.57,8.57,0,0,0,6,3.17c1.45,0,2.86-.11,2.9-1.7.09-3-8.3-.79-8.3-5,0-2.26,1.71-3.42,4.28-3.42a9.93,9.93,0,0,1,3.65.64.78.78,0,0,0,1-.44c.13-.33.35-.19.41-.06h0l1,3.12h0c.11.28.13.53-.09.53s-2.58-2.81-5.63-2.81c-.94,0-2.7.29-2.7,1.4,0,1.59,1.83,1.61,3,1.79ZM93.5,37.59h0c.16,0,.21-.1.14-.31h0l-1.31-3.34h0a.21.21,0,0,0-.4,0h0l-1.52,3.4h0c-.07.15.1.25.19.25h2.9ZM52.24,30c.46-.53,1.88-1.8,3.07-1.8h2.08a.76.76,0,0,1,.73.77h0V40.8h0a1.42,1.42,0,0,1-1.33,1.38c-.19,0-.19.23,0,.23h5.07c.21,0,.21-.23,0-.23a1.42,1.42,0,0,1-1.33-1.38h0V29h0a.76.76,0,0,1,.73-.77h2.08c1.19,0,2.61,1.27,3.07,1.8.15.2.46.16.3-.15h0l-1.57-3H53.51l-1.57,3h0c-.16.31.15.35.3.15Z"/></svg>