<svg xmlns="http://www.w3.org/2000/svg" width="52" height="50" viewBox="0 0 52 50"><defs><style>.a{fill:#00acc1;}.b{fill:#fff;}</style></defs><title>Blog</title><path class="a" d="M11.743,3.087a1,1,0,0,0-.814,1V19.057H5.92V44.009A5,5,0,0,0,10.929,49H42.984a5,5,0,0,0,5.009-4.991V19.057H42.984V4.085a1,1,0,0,0-1-1H11.743Zm1.189,2H40.981V19.057H32.466a3.493,3.493,0,1,0,0,6.986h2.5a1,1,0,1,1,0,2H18.943a1,1,0,1,1,0-2h2.5a3.493,3.493,0,1,0,0-6.986H12.932Zm4.821,3.993a1,1,0,1,0,.188,2H35.972a1,1,0,1,0,0-2H17.753Zm0,3.992a1,1,0,1,0,.188,2H30.963a1,1,0,1,0,0-2H17.753ZM1.913,21.053v5.989h2V21.053Zm48.084,0v5.989h2V21.053ZM12.932,34.028a1,1,0,1,1-1,1A1,1,0,0,1,12.932,34.028Zm4.007,0a1,1,0,1,1-1,1A1,1,0,0,1,16.939,34.028Zm4.007,0a1,1,0,1,1-1,1A1,1,0,0,1,20.946,34.028Zm4.007,0a1,1,0,1,1-1,1A1,1,0,0,1,24.953,34.028Zm4.007,0a1,1,0,1,1-1,1A1,1,0,0,1,28.96,34.028Zm4.007,0a1,1,0,1,1-1,1A1,1,0,0,1,32.967,34.028Zm4.007,0a1,1,0,1,1-1,1A1,1,0,0,1,36.974,34.028Zm4.007,0a1,1,0,1,1-1,1A1,1,0,0,1,40.981,34.028ZM14.936,38.021a1,1,0,1,1-1,1A1,1,0,0,1,14.936,38.021Zm4.007,0a1,1,0,1,1-1,1A1,1,0,0,1,18.943,38.021Zm4.007,0a1,1,0,1,1-1,1A1,1,0,0,1,22.95,38.021Zm4.007,0a1,1,0,1,1-1,1A1,1,0,0,1,26.957,38.021Zm4.006,0a1,1,0,1,1-1,1A1,1,0,0,1,30.963,38.021Zm4.007,0a1,1,0,1,1-1,1A1,1,0,0,1,34.97,38.021Zm4.007,0a1,1,0,1,1-1,1A1,1,0,0,1,38.977,38.021ZM17.941,42.013H35.972a1,1,0,1,1,0,2H17.941a1,1,0,1,1,0-2Z"/><path class="b" d="M9.83,1a1,1,0,0,0-.814,1V16.97H4.007v2H0v5.989H4.007V41.922a5.015,5.015,0,0,0,5.009,4.991H41.071a5.015,5.015,0,0,0,5.009-4.991V24.955h4.007V18.966H46.08v-2H41.071V2a1,1,0,0,0-1-1H9.83Zm1.189,2H39.068V16.97H30.553a3.494,3.494,0,1,0,0,6.987h2.5a1,1,0,1,1,0,2H17.03a1,1,0,1,1,0-2h2.5a3.494,3.494,0,1,0,0-6.987H11.019ZM15.84,6.989a1,1,0,1,0,.188,2H34.059a1,1,0,1,0,0-2H15.84Zm0,3.992a1,1,0,1,0,.188,2H29.05a1,1,0,1,0,0-2H15.84ZM6.01,18.966H19.534a1.5,1.5,0,1,1,0,2.994h-2.5a2.995,2.995,0,1,0,0,5.989H33.057a2.995,2.995,0,1,0,0-5.989h-2.5a1.5,1.5,0,1,1,0-2.994H44.077V41.922a2.987,2.987,0,0,1-3.006,3H9.016a2.987,2.987,0,0,1-3.006-3ZM2,20.962h2v2H2Zm44.077,0h2v2h-2ZM11.019,31.941a1,1,0,1,0,1,1A1,1,0,0,0,11.019,31.941Zm4.007,0a1,1,0,1,0,1,1A1,1,0,0,0,15.026,31.941Zm4.007,0a1,1,0,1,0,1,1A1,1,0,0,0,19.033,31.941Zm4.007,0a1,1,0,1,0,1,1A1,1,0,0,0,23.04,31.941Zm4.007,0a1,1,0,1,0,1,1A1,1,0,0,0,27.047,31.941Zm4.007,0a1,1,0,1,0,1,1A1,1,0,0,0,31.054,31.941Zm4.007,0a1,1,0,1,0,1,1A1,1,0,0,0,35.061,31.941Zm4.007,0a1,1,0,1,0,1,1A1,1,0,0,0,39.068,31.941ZM13.023,35.934a1,1,0,1,0,1,1A1,1,0,0,0,13.023,35.934Zm4.007,0a1,1,0,1,0,1,1A1,1,0,0,0,17.03,35.934Zm4.007,0a1,1,0,1,0,1,1A1,1,0,0,0,21.037,35.934Zm4.006,0a1,1,0,1,0,1,1A1,1,0,0,0,25.043,35.934Zm4.007,0a1,1,0,1,0,1,1A1,1,0,0,0,29.05,35.934Zm4.007,0a1,1,0,1,0,1,1A1,1,0,0,0,33.057,35.934Zm4.007,0a1,1,0,1,0,1,1A1,1,0,0,0,37.064,35.934ZM16.028,39.926a1,1,0,1,0,0,2H34.059a1,1,0,1,0,0-2Z"/></svg>