<svg xmlns="http://www.w3.org/2000/svg" width="56" height="50" viewBox="0 0 56 50"><defs><style>.a{fill:#00acc1;}.b{fill:#fff;}</style></defs><title>Cloud</title><path class="a" d="M47.5,23.821c.009-.207.017-.409.017-.608a14.191,14.191,0,0,0-26.924-6.287,7.57,7.57,0,0,0-11.72,5.81A10.447,10.447,0,0,0,12.446,43H46.385A9.622,9.622,0,0,0,47.5,23.821Z"/><path class="b" d="M31.32,7a14.116,14.116,0,0,0-12.69,8.137,7.431,7.431,0,0,0-4.219-1.452,7.512,7.512,0,0,0-7.459,7.158A10.368,10.368,0,0,0,10.429,41H44.381A9.638,9.638,0,0,0,54,31.377a9.523,9.523,0,0,0-8.539-9.386c.017-.262.068-.506.068-.777A14.234,14.234,0,0,0,31.32,7Zm0,2.161A12.039,12.039,0,0,1,43.369,21.214a11.744,11.744,0,0,1-.1,1.486L43.1,23.916h1.282a7.462,7.462,0,0,1,0,14.923H10.429A8.287,8.287,0,0,1,8.235,22.565l.81-.2-.034-.877c0-.152,0-.228,0-.237a5.417,5.417,0,0,1,9.248-3.815l1.181,1.215.574-1.586A12.08,12.08,0,0,1,31.32,9.161Z"/></svg>