<svg xmlns="http://www.w3.org/2000/svg" width="50" height="50" viewBox="0 0 50 50"><defs><style>.a{fill:#00acc1;}.b{fill:#fff;}</style></defs><title>Coding</title><path class="a" d="M5.13,2A3.136,3.136,0,0,0,2,5.13V36.435a3.136,3.136,0,0,0,3.13,3.13H46.87A3.136,3.136,0,0,0,50,36.435V5.13A3.136,3.136,0,0,0,46.87,2ZM7.217,7.217H44.783V34.348H7.217Zm12.816,4.468-8.348,8.348-.718.75.718.75,8.348,8.347,1.5-1.5-7.6-7.6,7.6-7.6Zm11.934,0-1.5,1.5,7.6,7.6-7.6,7.6,1.5,1.5,8.348-8.347.718-.75-.718-.75ZM20.783,40.609v4.174H31.217V40.609ZM10.348,41.652a1.059,1.059,0,0,0-.815.359L4.315,48.272a1.092,1.092,0,0,0-.13,1.141A1.032,1.032,0,0,0,5.13,50H46.87a1.032,1.032,0,0,0,.945-.587,1.1,1.1,0,0,0-.13-1.141l-5.218-6.261a1.059,1.059,0,0,0-.815-.359H33.3V46.87H18.7V41.652Z"/><path class="b" d="M3.13,0A3.146,3.146,0,0,0,0,3.13V34.435a3.146,3.146,0,0,0,3.13,3.13H17.739v2.087H8.25a1.043,1.043,0,0,0-.717.391L2.315,46.3A1.043,1.043,0,0,0,3.13,48H44.87a1.043,1.043,0,0,0,.815-1.7l-5.218-6.261a1.042,1.042,0,0,0-.815-.391H30.261V37.565H44.87A3.146,3.146,0,0,0,48,34.435V3.13A3.146,3.146,0,0,0,44.87,0Zm0,2.087H44.87A1.04,1.04,0,0,1,45.913,3.13V34.435a1.04,1.04,0,0,1-1.043,1.043H3.13a1.04,1.04,0,0,1-1.043-1.043V3.13A1.04,1.04,0,0,1,3.13,2.087ZM4.174,4.174V33.391H43.826V4.174ZM6.261,6.261H41.739V31.3H6.261ZM18.033,9.685,9.685,18.033l-.718.75.718.75,8.348,8.347,1.5-1.5-7.6-7.6,7.6-7.6Zm11.934,0-1.5,1.5,7.6,7.6-7.6,7.6,1.5,1.5,8.348-8.347.718-.75-.718-.75ZM19.826,37.565h8.348v4.174H19.826ZM8.837,41.739h8.9v2.087H30.261V41.739h8.9l3.489,4.174H5.348Z"/></svg>