<svg xmlns="http://www.w3.org/2000/svg" width="50" height="50" viewBox="0 0 50 50"><defs><style>.a{fill:#00acc1;}.b{fill:#fff;}</style></defs><title>CustomerService</title><path class="a" d="M26,2C12.749,2,7.633,10.556,7.217,18.7v6.978a4.723,4.723,0,0,0-1.043,3.261,4.909,4.909,0,0,0,3.848,4.891C12.736,40.923,17.236,50,24.957,50c3.843,0,6.88-2.307,9.293-5.446a14.7,14.7,0,0,0,1.4-1.956,8.336,8.336,0,0,0,7.044-8.25V33.3a3.136,3.136,0,0,0,3.13-3.13V26a3.136,3.136,0,0,0-3.13-3.13H40.609a1.043,1.043,0,0,0-1.044,1.043v8.348A1.04,1.04,0,0,0,40.609,33.3v1.044a6.19,6.19,0,0,1-3.457,5.609c.53-.979.991-1.851,1.141-2.153.009-.008.025.009.033,0,.412-.892.758-1.781,1.109-2.641a3.137,3.137,0,0,1-1.663-1.6q-1.01,2.507-2.022,4.565a4.646,4.646,0,0,0-.261.457c-.342.689-.738,1.378-1.141,2.022h-4.37a3.132,3.132,0,0,0-2.935-2.087H24.957a3.131,3.131,0,1,0,0,6.261h2.086A3.134,3.134,0,0,0,29.978,42.7h2.935c-.33.444-.75,1.043-.75,1.043-2.295,2.817-4.7,4.174-7.3,4.174-5.01,0-9.306-5.022-13.272-15.456l-.2-.62-.619-.1a2.678,2.678,0,0,1-2.511-2.8,3.68,3.68,0,0,1,.359-1.728l2.445.815a1.053,1.053,0,0,0,.946-.131,1.034,1.034,0,0,0,.424-.848V20.717C15.443,20.461,24.4,19.348,29,15.109c2.584,3.236,6.75,4.854,8.478,5.413v3.391a3.125,3.125,0,0,1,2.087-2.935,2.843,2.843,0,0,1,.489-.13,2.769,2.769,0,0,1,.555-.065H42.7V18.7C42.28,9.512,37.173,4.3,28.511,4.087L26.424,2Z"/><path class="b" d="M24,0C10.749,0,5.633,8.556,5.217,16.7v6.978a4.723,4.723,0,0,0-1.043,3.261,4.909,4.909,0,0,0,3.848,4.891C10.736,38.923,15.236,48,22.957,48c4.173,0,7.41-2.715,9.913-6.261H30.163c-2.3,2.817-4.7,4.174-7.3,4.174-5.01,0-9.306-5.022-13.272-15.456l-.2-.62-.619-.1a2.678,2.678,0,0,1-2.511-2.8A3.809,3.809,0,0,1,6.554,25.4l3.424,1.631a1.044,1.044,0,0,0,1.5-.946V18.62a30.535,30.535,0,0,0,5.772-.881c3.314-.8,7.137-2.217,9.783-4.761a16.233,16.233,0,0,0,7.4,5.446v7.663a1.044,1.044,0,0,0,1.5.946l1.63-.816v3.457a2.445,2.445,0,0,1-.522.065l-.619.1-.228.62a65.5,65.5,0,0,1-3.131,7.01A5.473,5.473,0,0,0,36.326,35.8c.628-1.357,1.141-2.727,1.663-3.978a4.194,4.194,0,0,0,.62-.228v.75a6.187,6.187,0,0,1-6.261,6.261h-4.37a3.14,3.14,0,0,0-2.935-2.087H22.957a3.131,3.131,0,1,0,0,6.261h2.086A3.142,3.142,0,0,0,27.978,40.7h4.37A8.333,8.333,0,0,0,40.7,32.348V31.3a3.146,3.146,0,0,0,3.13-3.13V24a3.146,3.146,0,0,0-3.13-3.13V16.7C40.28,7.512,35.173,2.3,26.511,2.087L24.424,0Zm-.424,2.087,2.087,2.087h.424C36.522,4.174,38.4,12,38.609,16.7V20.87h-.1a1.039,1.039,0,0,0-.946,1.043V23.87l-1.043.521V17.739a1.042,1.042,0,0,0-.75-1.011s-5.2-1.634-7.761-5.8a1.035,1.035,0,0,0-1.7-.1c-2.079,2.495-6.036,4.056-9.522,4.891a38.84,38.84,0,0,1-6.423.979,1.044,1.044,0,0,0-.979,1.043v6.685L7.207,23.38V16.7C7.834,6.155,15.958,2.193,23.576,2.087Zm16.076,20.87H40.7A1.04,1.04,0,0,1,41.739,24v4.174A1.04,1.04,0,0,1,40.7,29.217h-.848a1.112,1.112,0,0,0-.2-.032V24.652a1.113,1.113,0,0,0,0-.326ZM22.957,38.609h2.086a1.044,1.044,0,1,1,0,2.087H22.957a1.044,1.044,0,1,1,0-2.087Z"/></svg>