<svg xmlns="http://www.w3.org/2000/svg" width="50" height="50" viewBox="0 0 50 50"><defs><style>.a{fill:#00acc1;}.b{fill:#fff;}</style></defs><title>DataEncryption</title><path class="a" d="M22.162,2C10.107,2,2,6.466,2,10.64s8.1,8.64,20.158,8.64,20.159-4.47,20.159-8.64S34.221,2,22.162,2ZM2,15.065v5.321c0,4.1,8.107,8.494,20.173,8.494a39.684,39.684,0,0,0,11.849-1.661,8.584,8.584,0,0,0-1.05,2.49,43.791,43.791,0,0,1-10.8,1.091C13.133,30.8,5.532,28.557,2,24.954v5.074c0,4.1,8.111,8.452,20.177,8.452a44.772,44.772,0,0,0,6.765-.458l-2.2,2.2c-1.4.131-3.086.18-4.579.18C13.118,40.4,5.532,38.2,2,34.6v4.987c0,4.1,8.111,8.494,20.177,8.494.323,0,.63-.015.945-.019v.979a.96.96,0,0,0,.96.96h4.8a.957.957,0,0,0,.678-.281l.679-.679h2.482a.957.957,0,0,0,.96-.96V46.16H35.6a.957.957,0,0,0,.96-.96V43.28h1.92a.958.958,0,0,0,.96-.96V40.186a8.745,8.745,0,0,0,1.92.214,8.64,8.64,0,0,0,0-17.28c-.068,0-.135.007-.207.011a4.253,4.253,0,0,0,1.167-2.745V15.065c-3.529,3.6-11.1,6.135-20.144,6.135S5.532,18.669,2,15.065ZM41.361,25.04a6.72,6.72,0,1,1-6.72,6.72A6.728,6.728,0,0,1,41.361,25.04Zm2.879,2.88a1.92,1.92,0,1,0,1.92,1.92A1.918,1.918,0,0,0,44.24,27.92ZM33.779,35.9a8.487,8.487,0,0,0,.956,1.4l-6.6,6.607a.96.96,0,0,0,1.357,1.358l6.637-6.634a8.729,8.729,0,0,0,1.4.87v1.86H35.6a.957.957,0,0,0-.96.96v1.92h-1.92a.957.957,0,0,0-.96.96v1.92H29.842a.96.96,0,0,0-.679.281l-.679.679H25.042V44.641Z"/><path class="b" d="M20.163,0A34.955,34.955,0,0,0,6.185,2.61a13.681,13.681,0,0,0-4.41,2.97A6.022,6.022,0,0,0,.006,9.39a.939.939,0,0,0,0,.15v9.48a.678.678,0,0,0,0,.18v9.42a.678.678,0,0,0,0,.18v8.64c0,2.688,2.133,4.908,5.219,6.51a31.193,31.193,0,0,0,12,3,.962.962,0,0,0,.12-1.92A29.58,29.58,0,0,1,6.1,42.24c-2.764-1.433-4.17-3.158-4.17-4.8V32.97a13.885,13.885,0,0,0,4.26,2.82A34.972,34.972,0,0,0,20.163,38.4a.96.96,0,1,0,0-1.92A33.179,33.179,0,0,1,7,34.02a12,12,0,0,1-3.81-2.52,3.96,3.96,0,0,1-1.26-2.7.678.678,0,0,0,0-.18V23.37a13.867,13.867,0,0,0,4.26,2.82A34.955,34.955,0,0,0,20.163,28.8a40.881,40.881,0,0,0,7.8-.72.962.962,0,0,0-.36-1.89,39.2,39.2,0,0,1-7.439.69A33.162,33.162,0,0,1,7,24.42a12,12,0,0,1-3.81-2.52,3.96,3.96,0,0,1-1.26-2.7.678.678,0,0,0,0-.18V13.77a13.867,13.867,0,0,0,4.26,2.82A34.955,34.955,0,0,0,20.163,19.2a34.96,34.96,0,0,0,13.979-2.61A13.861,13.861,0,0,0,38.4,13.77v4.47a.96.96,0,1,0,1.92,0V9.39a.559.559,0,0,0-.03-.06,6,6,0,0,0-1.74-3.75,13.676,13.676,0,0,0-4.409-2.97A34.96,34.96,0,0,0,20.163,0Zm0,1.92A33.164,33.164,0,0,1,33.332,4.38,11.971,11.971,0,0,1,37.141,6.9,3.958,3.958,0,0,1,38.4,9.6a3.96,3.96,0,0,1-1.26,2.7,12,12,0,0,1-3.809,2.52,33.164,33.164,0,0,1-13.169,2.46A33.162,33.162,0,0,1,7,14.82a12,12,0,0,1-3.81-2.52,3.96,3.96,0,0,1-1.26-2.7V9.51A4.008,4.008,0,0,1,3.185,6.9,11.966,11.966,0,0,1,7,4.38,33.162,33.162,0,0,1,20.163,1.92Zm19.2,19.2a8.656,8.656,0,0,0-8.639,8.64,8.3,8.3,0,0,0,.42,2.07l-.03.03-9.719,9.72a.962.962,0,0,0-.27.66v4.8a.962.962,0,0,0,.96.96h4.8a.951.951,0,0,0,.69-.27l.69-.69h2.46a.962.962,0,0,0,.96-.96V44.16H33.6a.963.963,0,0,0,.96-.96V41.28h1.919a.962.962,0,0,0,.96-.96V38.01a8.233,8.233,0,0,0,1.92.39,8.64,8.64,0,0,0,0-17.28Zm0,1.92a6.72,6.72,0,1,1-6.719,6.72A6.706,6.706,0,0,1,39.361,23.04Zm2.88,2.88a1.92,1.92,0,1,0,1.919,1.92A1.919,1.919,0,0,0,42.241,25.92ZM31.862,33.81a8.859,8.859,0,0,0,.96,1.38l-6.689,6.72a.96.96,0,1,0,1.349,1.35l6.75-6.72a8.435,8.435,0,0,0,1.289.84v1.98H33.6a.962.962,0,0,0-.96.96v1.92h-1.92a.962.962,0,0,0-.96.96v1.92h-1.92a.948.948,0,0,0-.69.27l-.689.69h-3.42V42.66Z"/></svg>