<svg xmlns="http://www.w3.org/2000/svg" width="50" height="50" viewBox="0 0 50 50"><defs><style>.a{fill:#00acc1;}.b{fill:#fff;}</style></defs><title>Documentation</title><path class="a" d="M6.174,3.516V7.69H2V44.212H3.044A61.268,61.268,0,0,1,25.576,48.3l.424.188.424-.188a61.275,61.275,0,0,1,22.532-4.084H50V7.69H45.826V3.516H44.783A45.65,45.65,0,0,0,26,7.625,45.643,45.643,0,0,0,7.218,3.516ZM8.261,5.7a45.862,45.862,0,0,1,16.7,3.721V41.607a46.493,46.493,0,0,0-16.7-3.562Zm35.478,0V38.045a46.486,46.486,0,0,0-16.695,3.562V9.418A45.855,45.855,0,0,1,43.739,5.7Z"/><path class="b" d="M42.783,1.516A45.65,45.65,0,0,0,24,5.625,45.644,45.644,0,0,0,5.217,1.516H4.174V38.038H5.217A45.5,45.5,0,0,1,23.531,42.1l.469.233.469-.233a45.5,45.5,0,0,1,18.314-4.063h1.043V1.516ZM22.957,39.607a46.509,46.509,0,0,0-16.7-3.563V3.7a45.907,45.907,0,0,1,16.7,3.721Zm18.782-3.563a46.5,46.5,0,0,0-16.695,3.563V7.418A45.9,45.9,0,0,1,41.739,3.7ZM0,6.734V42.212H1.044A60.477,60.477,0,0,1,23.576,46.3l.424.187.424-.187a60.486,60.486,0,0,1,22.533-4.084H48V6.734H45.913V40.2A62.418,62.418,0,0,0,24,44.25,62.411,62.411,0,0,0,2.087,40.2V6.734Z"/></svg>