<svg xmlns="http://www.w3.org/2000/svg" width="50" height="50" viewBox="0 0 50 50"><defs><style>.a{fill:#00acc1;}.b{fill:#fff;}</style></defs><title>News</title><path class="a" d="M3,3.341a1,1,0,0,0-1,1v35.6a8.388,8.388,0,0,0,2.307,6.234,9.665,9.665,0,0,0,6.327,2.493h31.7a5.537,5.537,0,0,0,.872-.062c-3.1-.394-7.6-2.532-7.6-8.665V4.338a1,1,0,0,0-1-1Zm34.6,6.7V39.933c0,6.627,6.4,6.733,6.67,6.733a5.726,5.726,0,0,0,5.673-5.3A12.729,12.729,0,0,0,50,39.995V14.936a4.864,4.864,0,0,0-3.4-4.676,3.979,3.979,0,0,0-2,1.091,5.479,5.479,0,0,0-1.278,3.522V39.091a1,1,0,1,1-1.995,0V14.9a7.4,7.4,0,0,1,1.746-4.862Zm-29.33,1.5H27.933a1,1,0,0,1,0,1.995H8.265a1,1,0,0,1,0-1.995Zm0,3.99H27.933a1,1,0,0,1,0,1.995H8.265a1,1,0,0,1,0-1.995Zm.468,7.979H15.5a1,1,0,1,1,0,1.995H8.733a1,1,0,1,1,0-1.995Zm11.5,0h7.7a1,1,0,0,1,0,1.995h-7.7a1,1,0,1,1,0-1.995ZM8.733,27.5H15.5a1,1,0,1,1,0,1.994H8.733a1,1,0,1,1,0-1.994Zm11.5,0h7.7a1,1,0,0,1,0,1.994h-7.7a1,1,0,1,1,0-1.994Zm0,3.771h7.7a1,1,0,0,1,0,1.995h-7.7a1,1,0,1,1,0-1.995Zm-11.5.218H15.5a1,1,0,1,1,0,2H8.733a1,1,0,1,1,0-2Zm11.5,3.772h7.7a1,1,0,0,1,0,1.995h-7.7a1,1,0,1,1,0-1.995Zm-11.5.218H15.5a1,1,0,1,1,0,1.995H8.733a1,1,0,1,1,0-1.995ZM20.234,39h7.7a1,1,0,0,1,0,2h-7.7a1,1,0,1,1,0-2Zm-11.5.468H15.5a1,1,0,1,1,0,1.994H8.733a1,1,0,1,1,0-1.994Z"/><path class="b" d="M.779,1.345a1,1,0,0,0-.779,1V37.935c0,4.235,2.2,6.623,4.364,7.7a10.245,10.245,0,0,0,4.3,1.029H39.333v-.094c.479.055,1,.094,1,.094a8.422,8.422,0,0,0,3.834-1.091c1.87-1.075,3.713-3.351,3.8-7.293A.4.4,0,0,0,48,38.216v-.063A1.015,1.015,0,0,0,48,38V12.939a5.644,5.644,0,0,0-.592-2.368,4.652,4.652,0,0,0-4.238-2.494V8.046H33.723v2h5.548a4.385,4.385,0,0,0-.312.5,5.959,5.959,0,0,0-.623,2.369V37.094a1,1,0,1,0,1.994,0V12.908a3.956,3.956,0,0,1,.405-1.465,2.333,2.333,0,0,1,2.432-1.371,2.335,2.335,0,0,1,2.431,1.4,4.446,4.446,0,0,1,.436,1.5H46V38c0,3.549-1.418,5.045-2.836,5.86a6.28,6.28,0,0,1-2.837.81,8.568,8.568,0,0,1-3.366-.873c-1.679-.849-3.3-2.341-3.3-5.859V2.343a1,1,0,0,0-1-1H1A1,1,0,0,0,.779,1.345ZM2,3.34H31.666v34.6a8.237,8.237,0,0,0,3.023,6.732H8.633a7.268,7.268,0,0,1-1.059-.093,8.508,8.508,0,0,1-1.06-.25,7.9,7.9,0,0,1-1.247-.467c-.21-.1-.42-.215-.623-.343C3.218,42.618,2,41.071,2,37.935Zm3.989,6.2a1.007,1.007,0,1,0,.281,2H25.931a1,1,0,1,0,0-2H5.984Zm0,3.989a1.007,1.007,0,0,0,.281,1.995H25.931a1,1,0,1,0,0-1.995H5.984Zm.468,7.979a1.007,1.007,0,0,0,.28,1.995H13.5a1,1,0,1,0,0-1.995H6.452Zm11.5,0a1.007,1.007,0,0,0,.281,1.995h7.7a1,1,0,1,0,0-1.995H17.952ZM6.452,25.5a1.007,1.007,0,0,0,.28,2H13.5a1,1,0,1,0,0-2H6.452Zm11.5,0a1.007,1.007,0,0,0,.281,2h7.7a1,1,0,1,0,0-2H17.952Zm0,3.772a1.007,1.007,0,1,0,.281,1.994h7.7a1,1,0,1,0,0-1.994h-7.7a.732.732,0,0,0-.187,0Zm-11.5.218a1.007,1.007,0,0,0,.28,1.994H13.5a1,1,0,1,0,0-1.994H6.452Zm11.5,3.771a1.007,1.007,0,0,0,.281,2h7.7a1,1,0,1,0,0-2h-7.7a.732.732,0,0,0-.187,0Zm-11.5.218a1.007,1.007,0,0,0,.28,1.995H13.5a1,1,0,1,0,0-1.995H6.452ZM17.952,37a1.007,1.007,0,0,0,.281,1.995h7.7a1,1,0,1,0,0-1.995H17.952Zm-11.5.468a1.007,1.007,0,1,0,.28,1.994H13.5a1,1,0,1,0,0-1.994H6.452Z"/></svg>