<svg xmlns="http://www.w3.org/2000/svg" width="50" height="50" viewBox="0 0 50 50"><defs><style>.a{fill:#00acc1;}.b{fill:#fff;}</style></defs><title>Program</title><path class="a" d="M26.042,3.134A1.044,1.044,0,0,0,25,4.176V8.343h2.083V4.176A1.044,1.044,0,0,0,26.042,3.134Zm1.041,5.209V25.628l7.585-7.617a1.059,1.059,0,0,1,1.5,1.5L26.79,28.883a1.1,1.1,0,0,1-1.5,0l-9.375-9.375a1.059,1.059,0,0,1,1.5-1.5L25,25.628V8.343H10.091a2,2,0,0,0-1.953,1.6l-5.7,24.837a4.139,4.139,0,0,1,1.725-.391h43.75a4.118,4.118,0,0,1,1.692.358L43.945,10a2,2,0,0,0-1.953-1.66ZM4.167,36.468a2.086,2.086,0,0,0-2.083,2.083v8.333a2.087,2.087,0,0,0,2.083,2.084h43.75A2.088,2.088,0,0,0,50,46.884V38.551a2.087,2.087,0,0,0-2.083-2.083Zm37.5,4.166a2.084,2.084,0,1,1-2.084,2.084A2.082,2.082,0,0,1,41.667,40.634Z"/><path class="b" d="M23.861,1.037a.988.988,0,0,0-.13.033,1.043,1.043,0,0,0-.814,1.041v21.42l-7.585-7.585a1.049,1.049,0,0,0-.976-.293,1.035,1.035,0,0,0-.814.732,1.045,1.045,0,0,0,.293,1.058l9.375,9.375a1.04,1.04,0,0,0,1.5,0l9.375-9.375a1.059,1.059,0,0,0-1.5-1.5L25,23.531V2.111a1.042,1.042,0,0,0-1.139-1.074ZM8.008,6.278a1.937,1.937,0,0,0-1.921,1.6H6.055v.065L.13,33.719A2.031,2.031,0,0,0,0,34.4V44.82A2.1,2.1,0,0,0,2.083,46.9h43.75a2.1,2.1,0,0,0,2.084-2.083V34.4a2,2,0,0,0-.163-.749v-.065c0-.012-.029-.02-.033-.032L41.862,7.938V7.873h-.033a1.936,1.936,0,0,0-1.92-1.6H28.125V8.361H39.811L45.28,32.32H2.572L8.106,8.361H19.792V6.278ZM2.083,34.4h43.75V44.82H2.083Zm37.5,3.125a2.084,2.084,0,1,0,2.084,2.083A2.082,2.082,0,0,0,39.583,37.528Z"/></svg>