<svg xmlns="http://www.w3.org/2000/svg" width="50" height="50" viewBox="0 0 50 50"><defs><style>.a{fill:#00acc1;}.b{fill:#fff;}</style></defs><title>Rocket</title><path class="a" d="M50,2l-1.041.031A36.4,36.4,0,0,0,34.816,5.582a24.844,24.844,0,0,0-6.489,4.653c-5.6,5.6-16.588,19.549-17.051,20.143l-.123.122-.061.184c-.157.512-.368,2.506,3.673,6.551,3.092,3.092,5.009,3.734,6.062,3.734a1.612,1.612,0,0,0,.489-.061l.184-.061.153-.123c.6-.47,14.671-11.609,20.112-17.051a24.8,24.8,0,0,0,4.623-6.489A37.115,37.115,0,0,0,49.969,3.041ZM35.276,12.806a3.919,3.919,0,1,1-3.919,3.918A3.917,3.917,0,0,1,35.276,12.806Zm-24.49,7.837a1,1,0,0,0-.766.337l-4.9,5.877a1.015,1.015,0,0,0-.153.949.937.937,0,0,0,.674.643l3.857.98.122-.123.092-.153c.238-.3,3.23-4.106,6.857-8.51Zm-.98,13.316L8.98,35.337c-.555.979.359,2.655,2.693,4.99,1.906,1.905,3.33,2.846,4.347,2.846a1.222,1.222,0,0,0,.643-.153l1.378-.826a18.386,18.386,0,0,1-4.653-3.582A18.43,18.43,0,0,1,9.806,33.959ZM31.357,35.4c-4.393,3.624-8.2,6.647-8.51,6.888l-.123.092-.153.122.98,3.857a.937.937,0,0,0,.643.674,1.08,1.08,0,0,0,.306.061.928.928,0,0,0,.612-.214l5.878-4.9a1.029,1.029,0,0,0,.367-.766ZM8.245,38.49C6.645,39.718,5.2,39.875,3.9,41.153a5.682,5.682,0,0,0-1.469,2.786A22.056,22.056,0,0,0,2,49.02V50h.98c4.5,0,6.7-.712,8.02-2.051s1.538-2.832,2.541-4.194l-1.592-1.163c-1.27,1.729-1.554,3.164-2.357,3.979-.708.72-2.285,1.248-5.541,1.378A21.533,21.533,0,0,1,4.357,44.4a3.521,3.521,0,0,1,.919-1.837c.746-.734,2.207-1.064,4.132-2.541Z"/><path class="b" d="M48,0,46.959.031A36.607,36.607,0,0,0,32.816,3.582a24.942,24.942,0,0,0-6.489,4.653c-2.484,2.483-5.989,6.558-9.184,10.408H8.694a.983.983,0,0,0-.674.367l-4.9,5.878a.98.98,0,0,0,.521,1.561l5.969,1.5c-.046.057-.336.429-.336.429l-.123.122-.061.184a2.529,2.529,0,0,0-.061.673,3.047,3.047,0,0,0,.061.429L6.98,33.337a1.893,1.893,0,0,0-.123.306,1.615,1.615,0,0,0-.03.4,2.548,2.548,0,0,0,.244.979,12.113,12.113,0,0,0,2.6,3.307,12.115,12.115,0,0,0,3.307,2.6,2.548,2.548,0,0,0,.979.244,1.615,1.615,0,0,0,.4-.03,1.893,1.893,0,0,0,.306-.123l3.582-2.112a3.314,3.314,0,0,0,.4.061,2.529,2.529,0,0,0,.673-.061l.184-.061.153-.123.4-.306,1.5,5.939a.98.98,0,0,0,1.561.521l5.878-4.9a.98.98,0,0,0,.367-.766V30.827c3.876-3.222,7.978-6.724,10.408-9.154a24.833,24.833,0,0,0,4.623-6.489A37.278,37.278,0,0,0,47.969,1.041ZM45.888,2.112a32.114,32.114,0,0,1-3.245,12.215A22.713,22.713,0,0,1,38.388,20.3C36,22.684,31.8,26.265,27.888,29.51a.9.9,0,0,0-.215.184c-4.58,3.8-8.713,7.083-8.969,7.286a1.9,1.9,0,0,1-.612-.153,13.046,13.046,0,0,1-3.919-2.97,13.344,13.344,0,0,1-3-3.949,1.9,1.9,0,0,1-.153-.612c.2-.256,3.444-4.343,7.225-8.908a.958.958,0,0,0,.245-.306c3.21-3.873,6.769-8.025,9.214-10.47a22.784,22.784,0,0,1,5.969-4.255A31.858,31.858,0,0,1,45.888,2.112ZM33.276,9.827a4.9,4.9,0,1,0,4.9,4.9A4.912,4.912,0,0,0,33.276,9.827Zm0,1.959a2.939,2.939,0,1,1-2.939,2.938A2.925,2.925,0,0,1,33.276,11.786ZM9.245,20.6H15.52c-1.878,2.292-3.424,4.24-4.561,5.663L5.633,24.918Zm.826,11.357a18.578,18.578,0,0,0,2.694,3.276,18.615,18.615,0,0,0,3.276,2.694l-2.112,1.255a.655.655,0,0,1-.153-.062,10.577,10.577,0,0,1-2.725-2.173,10.577,10.577,0,0,1-2.173-2.725.655.655,0,0,1-.062-.153ZM27.4,32.48v6.275l-4.316,3.612-1.347-5.3C23.154,35.935,25.083,34.385,27.4,32.48ZM6.245,36.49C4.645,37.718,3.2,37.875,1.9,39.153A5.682,5.682,0,0,0,.429,41.939,22.056,22.056,0,0,0,0,47.02V48H.98c4.5,0,6.7-.712,8.02-2.051s1.538-2.832,2.541-4.194L9.949,40.592c-1.27,1.729-1.554,3.164-2.357,3.979-.708.72-2.285,1.248-5.541,1.378A21.533,21.533,0,0,1,2.357,42.4a3.521,3.521,0,0,1,.919-1.837c.746-.734,2.207-1.064,4.132-2.541Zm7.531,2.786-.092.061v-.031S13.737,39.291,13.776,39.276Z"/></svg>