<svg xmlns="http://www.w3.org/2000/svg" width="50" height="50" viewBox="0 0 50 50"><defs><style>.a{fill:#00acc1;}.b{fill:#fff;}</style></defs><title>SecurityLock</title><path class="a" d="M46.388,8.906a53.025,53.025,0,0,1-14.657-5.49c-2.429-1.274-4.182-2.2-6.121-2.2s-3.692.922-6.122,2.2A53.012,53.012,0,0,1,4.831,8.906l-.769.168v.788C4.062,39.7,24.986,49.705,25.2,49.8l.429.2.425-.214c.21-.111,21.1-11.08,21.1-39.924V9.074ZM29.527,32.072H21.692l1.775-7.989a3.918,3.918,0,1,1,4.285,0Z"/><path class="b" d="M24.39,0c-2.4,0-4.43,1.339-7.437,2.885a51.589,51.589,0,0,1-13.341,4.8l-.769.173v.784c0,15.009,5.245,25.025,10.513,31.242a34.915,34.915,0,0,0,10.621,8.7l.432.2.425-.214s21.1-10.877,21.1-39.927V7.855l-.769-.173a51.589,51.589,0,0,1-13.341-4.8C28.821,1.339,26.793,0,24.39,0Zm0,1.959c1.611,0,3.47,1.086,6.546,2.67A55.372,55.372,0,0,0,43.918,9.351C43.57,35.925,25.641,45.877,24.375,46.542a30.985,30.985,0,0,1-9.519-7.927C9.928,32.8,5.039,23.468,4.863,9.351A55.361,55.361,0,0,0,17.844,4.629C20.92,3.045,22.78,1.959,24.39,1.959Zm0,13.712a3.915,3.915,0,0,0-2.142,7.193l-1.775,7.988h7.835l-1.775-7.988a3.915,3.915,0,0,0-2.143-7.193Z"/></svg>