<svg xmlns="http://www.w3.org/2000/svg" width="50" height="50" viewBox="0 0 50 50"><defs><style>.a{fill:#00acc1;}.b{fill:#fff;}</style></defs><title>Services</title><path class="a" d="M33.543,2,28.971,3.8l.817,3.951c-.319.318-.657.686-1.012,1.077l-3.919-.881-1.926,4.506,3.33,2.22a12.516,12.516,0,0,0,0,1.666l-3.428,2.089L24.629,23l3.853-.784a8.872,8.872,0,0,0,1.142,1.143l-.881,3.853,4.539,1.927L35.5,25.8a12.026,12.026,0,0,0,1.633,0l2.122,3.429,4.572-1.8-.882-4.18a8.945,8.945,0,0,0,1.11-1.143l3.984,1.013L50,18.555l-3.461-2.122a13.345,13.345,0,0,0,0-1.6l3.428-2.123-1.8-4.571-3.983.881a8.872,8.872,0,0,0-1.143-1.142l.882-3.854L39.388,2.1,37.265,5.429A8.75,8.75,0,0,0,35.633,5.4Zm2.906,9.339a4.18,4.18,0,1,1-4.18,4.179A4.177,4.177,0,0,1,36.449,11.339Zm-22.433,9.4-.653,4.179a10.464,10.464,0,0,0-1.73.751L8.139,23.127,4.482,26.784,6.9,30.31a13.359,13.359,0,0,0-.718,1.731l-4.213.783v5.094l4.18.751A10.446,10.446,0,0,0,6.9,40.433l-2.547,3.4,3.657,3.657,3.527-2.417a13.354,13.354,0,0,0,1.73.719L13.918,50h5.127l.751-4.18a10.112,10.112,0,0,0,1.763-.751l3.494,2.547,3.657-3.657L26.2,40.433a13.712,13.712,0,0,0,.686-1.731l4.342-.784V32.792l-4.277-.653a10.329,10.329,0,0,0-.751-1.731l2.514-3.494-3.624-3.787-3.559,2.546a13.481,13.481,0,0,0-1.7-.718l-.653-4.212ZM16.6,31.192a4.18,4.18,0,1,1-4.18,4.179A4.193,4.193,0,0,1,16.6,31.192Z"/><path class="b" d="M31.1,0l-.808.323L27.376,1.455l-.808.323.194.841.614,3.1c-.3.3-.626.659-.97,1.035l-3.072-.679-.84-.194-.324.776-1.261,2.91-.323.776.711.486,2.652,1.778a12.847,12.847,0,0,0,0,1.52l-2.716,1.681-.744.453.323.808,1.132,2.911.323.808.841-.194,3.1-.614a9.024,9.024,0,0,0,1.035,1.034l-.711,3.105-.194.84.808.356,2.91,1.229.776.323.485-.711L33.1,23.508a12.847,12.847,0,0,0,1.52,0L36.3,26.257l.453.711.808-.291,3.719-1.487-.194-.841-.712-3.395a8.969,8.969,0,0,0,1.068-1.067l3.136.808.873.226.324-.808,1.261-2.91.355-.809-.776-.485L43.9,14.26a12.847,12.847,0,0,0,0-1.52l2.716-1.681.744-.453L47.037,9.8l-1.132-2.91-.323-.809-.874.194-3.168.712A8.953,8.953,0,0,0,40.505,5.95l.679-3.1.194-.841L40.6,1.681,37.692.42,36.883.1,36.4.841,34.749,3.46a9.188,9.188,0,0,0-1.52.032L31.548.744Zm-.873,2.555,1.52,2.489.388.615.711-.162a7.053,7.053,0,0,1,2.361.032l.646.065.356-.55,1.488-2.36,1.293.55-.647,2.78-.161.68.582.388A6.812,6.812,0,0,1,40.375,8.7l.388.582.68-.161,2.845-.647.517,1.293-2.489,1.488-.55.356.065.646a10.417,10.417,0,0,1,0,2.458l-.065.647.55.355,2.457,1.52-.517,1.229-2.878-.712-.712-.161-.388.582a6.835,6.835,0,0,1-1.616,1.617l-.55.388.129.679.647,3.072-1.293.485-1.488-2.458-.356-.55-.646.065a10.417,10.417,0,0,1-2.458,0L32,21.406l-.323.518-1.584,2.393-1.326-.583.614-2.78.162-.647-.55-.42a6.858,6.858,0,0,1-1.617-1.617l-.388-.55-.679.129-2.781.582-.485-1.293,2.458-1.52.582-.355-.1-.647a10.417,10.417,0,0,1,0-2.458l.1-.614-.55-.356L23.14,9.6l.55-1.326,2.813.647.615.129.388-.485c.59-.687,1.2-1.293,1.714-1.811l.388-.388-.1-.517-.582-2.781Zm3.751,5.658a5.174,5.174,0,1,0,5.174,5.174A5.189,5.189,0,0,0,33.973,8.213Zm0,2.07a3.1,3.1,0,1,1-3.1,3.1A3.089,3.089,0,0,1,33.973,10.283ZM11.932,19.027,11.8,19.9l-.518,3.363a9.722,9.722,0,0,0-1.617.711L6.111,21.388,2.49,25.009l.485.712,1.972,2.845a13.4,13.4,0,0,0-.711,1.649L.841,30.83,0,30.991v5.045l.841.161,3.395.615a9.785,9.785,0,0,0,.711,1.617L2.91,41.177l-.549.712L5.982,45.51l.712-.485,2.845-1.972a13.4,13.4,0,0,0,1.649.711l.518,3.363.129.873h5.077l.129-.841.647-3.395a9.676,9.676,0,0,0,1.616-.711l3.557,2.586,3.622-3.621L26,41.306l-2.069-2.877a13.817,13.817,0,0,0,.711-1.617l3.492-.615.841-.161V30.959l-4.365-.647a9.723,9.723,0,0,0-.679-1.616L26,25.85l.485-.711-.582-.615-2.393-2.49-.614-.646-.744.517L19.3,23.974a13.731,13.731,0,0,0-1.616-.711L17.17,19.9l-.129-.873ZM13.71,21.1h1.553l.582,3.686.582.194a11.882,11.882,0,0,1,2.489,1.035l.583.355.549-.388L22.635,24.1,23.8,25.333l-1.875,2.619L21.5,28.5l.388.583a7.9,7.9,0,0,1,1,2.392l.161.679.679.1,3.169.485v1.585l-3.169.55-.614.1-.194.582a11.914,11.914,0,0,1-1.035,2.49l-.388.582.421.549,1.875,2.62-1.164,1.131-2.587-1.875L19.5,40.66l-.583.355a7.9,7.9,0,0,1-2.392,1l-.647.162-.129.679-.55,3.072H13.613l-.582-3.687-.582-.194a11.914,11.914,0,0,1-2.49-1.035l-.582-.355-.549.388-2.62,1.778L5.077,41.7l1.843-2.49.453-.582-.388-.582a7.745,7.745,0,0,1-1-2.361L5.82,35l-.679-.129-3.072-.55V32.705l3.072-.55.615-.129.194-.55a11.882,11.882,0,0,1,1.035-2.489L7.34,28.4l-.388-.549L5.174,25.236,6.338,24.1l2.587,1.875.549.388.582-.355a7.914,7.914,0,0,1,2.393-1l.679-.161.1-.68Zm.6,6.776a5.174,5.174,0,1,0,5.174,5.174A5.195,5.195,0,0,0,14.313,27.873Zm0,2.07a3.1,3.1,0,1,1-3.1,3.1A3.1,3.1,0,0,1,14.313,29.943Z"/></svg>