<svg xmlns="http://www.w3.org/2000/svg" width="54" height="50" viewBox="0 0 54 50"><defs><style>.a{fill:#00acc1;}.b{fill:#fff;}</style></defs><title>Wi-Fi</title><path class="a" d="M28,7A36.292,36.292,0,0,0,2.749,17.193L2,17.914l5.766,6.01.758-.72a28.059,28.059,0,0,1,38.952,0l.753.72L54,17.914l-.753-.725A36.288,36.288,0,0,0,28,7Zm0,12.51a23.842,23.842,0,0,0-16.591,6.7l-.753.721,5.8,6.039.753-.725a15.47,15.47,0,0,1,21.592,0l.753.725,5.8-6.039-.749-.721A23.859,23.859,0,0,0,28,19.514Zm0,12.51a11.4,11.4,0,0,0-7.933,3.2l-.749.721L28,45,36.68,35.95l-.749-.721A11.4,11.4,0,0,0,28,32.024Z"/><path class="b" d="M26,5.005A36.366,36.366,0,0,0,.753,15.189L0,15.914l5.77,6.015.757-.725a28.06,28.06,0,0,1,38.95,0l.753.725L52,15.914l-.753-.725A36.366,36.366,0,0,0,26,5.005ZM26,7.09a34.14,34.14,0,0,1,22.983,8.955l-2.883,3a29.838,29.838,0,0,0-40.2,0l-2.883-3A34.14,34.14,0,0,1,26,7.09Zm0,10.425A23.9,23.9,0,0,0,9.41,24.209l-.753.721,5.8,6.039.749-.725a15.477,15.477,0,0,1,21.6,0l.749.725,5.8-6.039-.749-.721A23.912,23.912,0,0,0,26,17.515ZM26,19.6A21.7,21.7,0,0,1,40.33,25.06l-2.908,3.026a17.269,17.269,0,0,0-22.844,0L11.67,25.06A21.7,21.7,0,0,1,26,19.6Zm0,10.425a11.427,11.427,0,0,0-7.932,3.2l-.75.72L26,42.993l.749-.782,7.933-8.262-.75-.72A11.427,11.427,0,0,0,26,30.024Zm0,2.085a9.164,9.164,0,0,1,5.6,2.04L26,39.988l-5.6-5.839A9.164,9.164,0,0,1,26,32.109Z"/></svg>