<svg xmlns="http://www.w3.org/2000/svg" width="120" height="80" viewBox="0 0 120 80"><defs><style>.a{fill:#bdbdbd;}</style></defs><title>AMSLogo</title><path class="a" d="M52.7,24a9.926,9.926,0,0,0-8.782,4.721V24.934H37.163V55.067h7.19v-16.3a10.819,10.819,0,0,1,1.152-5.213,5.613,5.613,0,0,1,5.16-2.8,5.308,5.308,0,0,1,4.94,2.8,10.964,10.964,0,0,1,.934,4.993V55.067h7.19V38.545A9.519,9.519,0,0,1,64.772,33.5a5.642,5.642,0,0,1,5.214-2.745c2.523,0,3.951.988,4.72,2.47a10.241,10.241,0,0,1,1.207,5.6V55.067H83.1V38.545c0-6.2-.549-8.672-3.293-11.525a11.788,11.788,0,0,0-15.7-.056,12.472,12.472,0,0,0-2.2,2.854,13.967,13.967,0,0,0-1.811-2.744A9.789,9.789,0,0,0,52.7,24Zm35.571.94a1.054,1.054,0,1,0,1.053,1.054A1.053,1.053,0,0,0,88.267,24.94Zm2.384.032c-.435,0-.761.322-.966.967q.264,1.142,1.143,1.142c.642-.2.968-.527.968-.967v-.175c0-.542-.326-.864-.968-.967Zm2.547,0c-.458,0-.78.323-.97.967q0,.879,1.054,1.14.923,0,1.054-1.14,0-.812-.966-.967Zm7.605,0q-.657,0-.965.967c.179.761.556,1.142,1.142,1.142.643-.2.969-.527.969-.967v-.175c0-.542-.326-.864-.969-.967Zm2.548,0q-.683,0-.967.967c0,.586.355.966,1.054,1.14.615,0,.969-.379,1.054-1.14q0-.812-.963-.967Zm2.542,0c-.439,0-.761.322-.962.967.171.761.552,1.142,1.137,1.142q.967-.307.966-.967v-.175q0-.813-.966-.967Zm2.546,0q-.658,0-.966.967.263,1.142,1.142,1.142c.647-.2.966-.527.966-.967v-.175c0-.542-.319-.864-.966-.967Zm2.454,0c-.437,0-.76.322-.965.967.176.761.555,1.142,1.142,1.142.647-.2.966-.527.966-.967v-.175c0-.542-.319-.864-.966-.967Zm2.544,0q-.681,0-.963.967,0,.879,1.05,1.14.922,0,1.054-1.14c0-.541-.323-.864-.962-.967Zm2.546,0q-.657,0-.966.967.262,1.142,1.142,1.142.965-.307.965-.967v-.175q0-.813-.965-.967Zm2.542,0q-.657,0-.965.967.262,1.142,1.141,1.142c.647-.2.966-.527.966-.967v-.175c0-.542-.319-.864-.966-.967ZM88.1,27.519c-.434,0-.756.322-.957.966,0,.626.372,1.006,1.133,1.138q.966-.308.967-.966v-.172q0-.812-.967-.966Zm2.547,0c-.435,0-.761.322-.966.966.176.757.556,1.138,1.143,1.138.642-.205.968-.527.968-.966v-.172c0-.541-.326-.863-.968-.966Zm10.152,0q-.657,0-.965.966c.179.757.556,1.138,1.142,1.138.643-.205.969-.527.969-.966v-.172c0-.541-.326-.863-.969-.966Zm5.09,0c-.439,0-.761.322-.962.966,0,.626.376,1.006,1.137,1.138q.967-.308.966-.966v-.172q0-.812-.966-.966Zm2.546,0q-.658,0-.966.966c.175.757.556,1.138,1.142,1.138.647-.205.966-.527.966-.966v-.172c0-.541-.319-.863-.966-.966Zm2.454,0c-.437,0-.76.322-.965.966.176.757.555,1.138,1.142,1.138.647-.205.966-.527.966-.966v-.172c0-.541-.319-.863-.966-.966Zm5.09,0q-.657,0-.966.966,0,.939,1.142,1.138.965-.308.965-.966v-.172q0-.812-.965-.966Zm2.542,0q-.657,0-.965.966c.175.757.556,1.138,1.141,1.138.647-.205.966-.527.966-.966v-.172c0-.541-.319-.863-.966-.966Zm-25.327,0c-.443,0-.761.321-.97.966,0,.624.385,1,1.142,1.137.541,0,.864-.381.966-1.137q0-.813-.966-.966Zm10.153,0q-.66,0-.967.966c0,.624.38,1,1.145,1.137.538,0,.86-.381.963-1.137q0-.813-.963-.966h-.178Zm10.086,0c-.439,0-.762.321-.963.966,0,.624.378,1,1.142,1.137.538,0,.859-.381.962-1.137,0-.542-.323-.865-.962-.966h-.179ZM88.28,30.061c-.761.1-1.133.425-1.133.967A1.164,1.164,0,0,0,88.1,32.17q1.145-.176,1.143-.967v-.175C89.247,30.486,88.924,30.165,88.28,30.061Zm2.548,0c-.762.1-1.143.425-1.143.967a1.168,1.168,0,0,0,.966,1.142c.761-.117,1.145-.44,1.145-.967v-.175C91.8,30.486,91.47,30.165,90.828,30.061Zm10.152,0c-.762.1-1.142.425-1.142.967a1.168,1.168,0,0,0,.965,1.142c.761-.117,1.146-.44,1.146-.967v-.175C101.949,30.486,101.623,30.165,100.98,30.061Zm5.088,0c-.761.1-1.137.425-1.137.967a1.165,1.165,0,0,0,.962,1.142q1.141-.176,1.141-.967v-.175C107.034,30.486,106.713,30.165,106.068,30.061Zm2.547,0c-.761.1-1.142.425-1.142.967a1.169,1.169,0,0,0,.966,1.142c.758-.117,1.142-.44,1.142-.967v-.175C109.581,30.486,109.262,30.165,108.615,30.061Zm2.455,0c-.762.1-1.142.425-1.142.967a1.168,1.168,0,0,0,.965,1.142c.758-.117,1.143-.44,1.143-.967v-.175C112.036,30.486,111.717,30.165,111.07,30.061Zm5.089,0c-.762.1-1.142.425-1.142.967a1.168,1.168,0,0,0,.966,1.142q1.141-.176,1.141-.967v-.175c0-.542-.322-.863-.965-.967Zm2.542,0c-.761.1-1.141.425-1.141.967a1.168,1.168,0,0,0,.965,1.142q1.143-.176,1.142-.967v-.175C119.667,30.486,119.348,30.165,118.7,30.061Zm-25.331,0c-.757.1-1.142.424-1.142.966.15.761.469,1.14.97,1.14.687,0,1.064-.379,1.138-1.14q0-.813-.966-.967Zm10.159,0c-.765.1-1.145.424-1.145.966q.221,1.142.967,1.141,1.03,0,1.141-1.141Q104.492,30.215,103.529,30.062Zm10.087,0c-.764.1-1.142.424-1.142.966q.215,1.142.963,1.141c.688,0,1.067-.38,1.141-1.141C114.578,30.486,114.255,30.164,113.616,30.062ZM25.8,24.934v4.391C24.484,26.91,21.135,24,15.647,24,7.193,24,.333,30.478.333,39.974.333,48.481,5.986,56,15.647,56c4.226,0,8.232-1.756,10.153-5.269v4.336h7.191V24.934ZM24.7,44.473A8.533,8.533,0,0,1,16.689,49.3a9.045,9.045,0,0,1-9.166-9.167v-.054c0-4.666,3.294-9.386,9.111-9.386a8.842,8.842,0,0,1,8.4,5.324,9.391,9.391,0,0,1,.824,4.226A10.348,10.348,0,0,1,24.7,44.473ZM88.28,32.608c-.761.1-1.133.424-1.133.966.113.757.46,1.138,1.045,1.138q1.055-.221,1.055-.966v-.172Q89.247,32.761,88.28,32.608Zm2.46,0q-.813,0-1.055,1.05.308,1.054,1.055,1.054,1.055-.221,1.056-.966v-.172c0-.542-.326-.863-.968-.966Zm2.63,0c-.757.1-1.142.424-1.142.967.121.756.469,1.136,1.054,1.136.615,0,.966-.38,1.054-1.136C94.336,33.032,94.014,32.711,93.37,32.608Zm7.522,0c-.541,0-.894.351-1.054,1.05q.308,1.054,1.054,1.054c.7-.147,1.057-.468,1.057-.966v-.172c0-.542-.326-.863-.969-.966Zm2.637,0c-.765.1-1.145.424-1.145.967.117.756.469,1.136,1.054,1.136.615,0,.969-.38,1.054-1.136C104.492,33.032,104.17,32.711,103.529,32.608Zm2.539,0c-.761.1-1.137.424-1.137.966.113.757.465,1.138,1.049,1.138.7-.147,1.054-.468,1.054-.966v-.172Q107.034,32.761,106.068,32.608Zm7.548,0c-.764.1-1.142.424-1.142.967.114.756.465,1.136,1.05,1.136.615,0,.966-.38,1.054-1.136C114.578,33.032,114.255,32.711,113.616,32.608Zm2.543,0q-1.143.155-1.142.966c.117.757.472,1.138,1.058,1.138q1.049-.221,1.049-.966v-.172Q117.124,32.761,116.159,32.608Zm2.455,0c-.538,0-.893.351-1.054,1.05q.308,1.054,1.054,1.054,1.053-.221,1.053-.966v-.172c0-.542-.319-.863-.966-.966ZM88.192,35.151c-.5,0-.844.321-1.045.966.113.76.46,1.141,1.045,1.141q1.055-.221,1.055-.966v-.175q0-.813-.967-.966Zm2.548,0q-.813,0-1.055,1.053c0,.543.353.893,1.055,1.054q1.055-.221,1.056-.966v-.175c0-.542-.326-.863-.968-.966Zm2.629,0c-.757.1-1.141.424-1.141.966.121.76.468,1.141,1.054,1.141.7-.147,1.054-.468,1.054-.966v-.175Q94.095,35.15,93.369,35.151Zm7.523,0c-.541,0-.894.351-1.054,1.053,0,.543.352.893,1.054,1.054.7-.147,1.057-.468,1.057-.966v-.175c0-.542-.326-.863-.969-.966Zm2.637,0c-.764.1-1.144.424-1.144.966q.174,1.14,1.053,1.141,1.053-.221,1.054-.966v-.175Q104.251,35.15,103.529,35.151Zm2.451,0c-.5,0-.848.321-1.049.966.113.76.465,1.141,1.049,1.141.7-.147,1.054-.468,1.054-.966v-.175q0-.813-.966-.966Zm7.637,0c-.766.1-1.143.424-1.143.966q.171,1.14,1.051,1.141,1.053-.221,1.053-.966v-.175c-.161-.645-.483-.966-.961-.966Zm2.458,0c-.5,0-.853.321-1.058.966.117.76.472,1.141,1.058,1.141q1.049-.221,1.049-.966v-.175q0-.813-.965-.966Zm2.539,0c-.538,0-.893.351-1.054,1.053,0,.543.352.893,1.054,1.054q1.053-.221,1.053-.966v-.175c0-.542-.319-.863-.966-.966ZM88.192,37.7c-.5,0-.844.321-1.045.962a1.162,1.162,0,0,0,.871,1.142c.822-.073,1.229-.4,1.229-.966v-.176C89.247,38.165,88.9,37.843,88.192,37.7Zm2.548,0q-.813,0-1.055,1.05c0,.454.294.8.878,1.054.82-.073,1.233-.4,1.233-.966v-.176Q91.8,37.873,90.74,37.7Zm2.542,0c-.5,0-.845.321-1.054.962a1.169,1.169,0,0,0,.878,1.142q1.228-.109,1.23-.966v-.176C94.336,38.165,93.987,37.843,93.282,37.7Zm7.61,0c-.541,0-.894.351-1.054,1.05q0,.681.878,1.054c.819-.073,1.233-.4,1.233-.966v-.176C101.949,38.135,101.594,37.814,100.892,37.7Zm2.546,0q-.747,0-1.053.962a1.168,1.168,0,0,0,.877,1.142q1.23-.109,1.23-.966v-.176C104.492,38.165,104.14,37.843,103.438,37.7Zm2.542,0c-.5,0-.848.321-1.049.962A1.17,1.17,0,0,0,105.8,39.8q1.231-.109,1.23-.966v-.176C107.034,38.165,106.684,37.843,105.98,37.7Zm7.545,0q-.747,0-1.051.962a1.166,1.166,0,0,0,.874,1.142q1.23-.109,1.23-.966v-.176c0-.494-.351-.816-1.053-.962Zm2.55,0c-.5,0-.853.321-1.058.962A1.168,1.168,0,0,0,115.9,39.8q1.23-.109,1.229-.966v-.176c0-.494-.35-.816-1.049-.962Zm2.539,0c-.538,0-.893.351-1.054,1.05q0,.681.877,1.054,1.231-.109,1.23-.966v-.176Q119.667,37.873,118.614,37.7ZM88.192,40.24c-.5,0-.844.322-1.045.965a1.163,1.163,0,0,0,.871,1.143c.822-.073,1.229-.395,1.229-.967v-.176Q89.247,40.46,88.192,40.24Zm2.548,0q-.813,0-1.055,1.053c0,.454.294.8.878,1.055.82,0,1.233-.323,1.233-.967v-.176C91.8,40.708,91.442,40.386,90.74,40.24Zm2.542,0c-.5,0-.845.322-1.054.965a1.171,1.171,0,0,0,.878,1.143q1.228-.109,1.23-.967v-.176C94.336,40.708,93.987,40.386,93.282,40.24Zm7.61,0c-.541,0-.894.351-1.054,1.053q0,.681.878,1.055c.819,0,1.233-.323,1.233-.967v-.176C101.949,40.708,101.594,40.386,100.892,40.24Zm2.546,0q-.747,0-1.053.965a1.17,1.17,0,0,0,.877,1.143q1.23-.109,1.23-.967v-.176Q104.492,40.46,103.438,40.24Zm2.542,0c-.5,0-.848.322-1.049.965a1.171,1.171,0,0,0,.873,1.143q1.231-.109,1.23-.967v-.176C107.034,40.708,106.684,40.386,105.98,40.24Zm7.545,0q-.747,0-1.051.965a1.167,1.167,0,0,0,.874,1.143q1.23-.109,1.23-.967v-.176q0-.745-1.053-.965Zm2.55,0c-.5,0-.853.322-1.058.965a1.169,1.169,0,0,0,.878,1.143q1.23-.109,1.229-.967v-.176q0-.745-1.049-.965Zm2.539,0c-.538,0-.893.351-1.054,1.053q0,.681.877,1.055,1.231,0,1.23-.967v-.176Q119.667,40.46,118.614,40.24ZM88.28,42.786c-.761.146-1.133.468-1.133.962.113.761.46,1.142,1.045,1.142h.088q.813,0,.967-.966v-.176C89.247,43.3,88.924,42.976,88.28,42.786Zm2.548,0q-1.143.2-1.143,1.051c0,.554.353.907,1.055,1.053h.088c.54,0,.866-.321.968-.966v-.176C91.8,43.3,91.47,42.976,90.828,42.786Zm2.541,0c-.757.146-1.141.468-1.141.962,0,.688.384,1.068,1.141,1.142q.966-.242.967-.966v-.176C94.336,43.3,94.013,42.976,93.369,42.786Zm7.611,0q-1.143.2-1.142,1.051c0,.554.352.907,1.054,1.053h.088q.81,0,.969-.966v-.176C101.949,43.3,101.623,42.976,100.98,42.786Zm2.549,0c-.764.146-1.144.468-1.144.962,0,.688.38,1.068,1.144,1.142.64-.161.963-.484.963-.966v-.176C104.492,43.3,104.169,42.976,103.529,42.786Zm2.539,0c-.761.146-1.137.468-1.137.962.113.761.465,1.142,1.049,1.142h.088q.813,0,.966-.966v-.176C107.034,43.3,106.713,42.976,106.068,42.786Zm7.549,0c-.766.146-1.143.468-1.143.962,0,.688.377,1.068,1.143,1.142.639-.161.961-.484.961-.966v-.176C114.578,43.3,114.256,42.976,113.617,42.786Zm2.542,0c-.762.146-1.142.468-1.142.962.117.761.472,1.142,1.058,1.142h.084c.541,0,.859-.321.965-.966v-.176C117.124,43.3,116.8,42.976,116.159,42.786Zm2.542,0q-1.141.2-1.141,1.051c0,.554.352.907,1.054,1.053h.087q.812,0,.966-.966v-.176C119.667,43.3,119.348,42.976,118.7,42.786ZM88.28,45.328c-.761.147-1.133.469-1.133.966,0,.688.372,1.069,1.133,1.143q.813,0,.967-.967v-.176Q89.247,45.615,88.28,45.328Zm2.548,0q-.881,0-1.143,1.055c0,.555.353.906,1.055,1.054h.088c.54,0,.866-.322.968-.967v-.176C91.8,45.841,91.47,45.519,90.828,45.328Zm2.63,0q-1.23.154-1.23.967c0,.687.384,1.068,1.141,1.14q.813,0,.967-.965A1.147,1.147,0,0,0,93.458,45.328Zm7.522,0c-.586,0-.963.351-1.142,1.055q0,.833,1.054,1.054h.088q.81,0,.969-.967v-.176C101.949,45.841,101.623,45.519,100.98,45.328Zm2.634,0q-1.228.154-1.229.967c0,.687.38,1.068,1.144,1.14.538,0,.861-.321.963-.965A1.146,1.146,0,0,0,103.614,45.328Zm2.454,0c-.761.147-1.137.469-1.137.966,0,.688.376,1.069,1.137,1.143q.813,0,.966-.967v-.176Q107.034,45.615,106.068,45.328Zm7.632,0c-.819.1-1.226.425-1.226.967,0,.687.377,1.068,1.143,1.14.536,0,.859-.321.961-.965a1.147,1.147,0,0,0-.878-1.142Zm2.459,0q-1.143.221-1.142.966,0,1.032,1.142,1.143c.541,0,.859-.322.965-.967v-.176Q117.124,45.615,116.159,45.328Zm2.542,0q-.877,0-1.141,1.055,0,.833,1.054,1.054h.087q.812,0,.966-.967v-.176C119.667,45.841,119.348,45.519,118.7,45.328ZM88.28,47.874a1.154,1.154,0,0,0-1.133.963c0,.688.372,1.068,1.133,1.142q.813,0,.967-.966v-.176Q89.247,48.183,88.28,47.874Zm2.548,0c-.631,0-1.01.382-1.143,1.139q0,.813,1.143.966c.54,0,.866-.321.968-.966v-.176C91.8,48.4,91.47,48.081,90.828,47.874Zm10.152,0c-.629,0-1.007.382-1.142,1.139q0,.813,1.142.966.81,0,.969-.966v-.176C101.949,48.4,101.623,48.081,100.98,47.874Zm5.088,0a1.161,1.161,0,0,0-1.137.963c0,.688.376,1.068,1.137,1.142q.813,0,.966-.966v-.176Q107.034,48.183,106.068,47.874Zm10.091,0a1.166,1.166,0,0,0-1.142.963q0,1.032,1.142,1.142c.541,0,.859-.321.965-.966v-.176Q117.124,48.183,116.159,47.874Zm2.542,0c-.625,0-1.009.382-1.141,1.139q0,.813,1.141.966.812,0,.966-.966v-.176C119.667,48.4,119.348,48.081,118.7,47.874Zm-25.331,0c-.757.142-1.142.463-1.142.962,0,.688.385,1.067,1.142,1.14q.811,0,.966-.966c-.1-.756-.425-1.136-.966-1.136Zm2.546,0c-.761.142-1.138.463-1.138.962,0,.688.377,1.067,1.138,1.14q.813,0,.966-.966C96.78,48.256,96.458,47.876,95.916,47.876Zm2.455,0c-.761.142-1.139.463-1.139.962,0,.688.378,1.067,1.139,1.14q.813,0,.965-.966C99.234,48.256,98.913,47.876,98.371,47.876Zm5.158,0c-.765.142-1.145.463-1.145.962,0,.688.38,1.067,1.145,1.14q.807,0,.963-.966C104.389,48.256,104.067,47.876,103.529,47.876Zm10.087,0c-.764.142-1.142.463-1.142.962,0,.688.378,1.067,1.142,1.14q.807,0,.962-.966C114.475,48.256,114.154,47.876,113.616,47.876ZM88.28,50.417c-.624,0-1.006.382-1.133,1.142.2.645.523.966.957.966h.176q.813,0,.967-.966v-.176Q89.247,50.725,88.28,50.417Zm2.548,0q-1.143.266-1.143,1.142c.2.645.531.966.966.966h.177c.54,0,.866-.321.968-.966v-.176C91.8,50.944,91.47,50.623,90.828,50.417Zm10.152,0q-1.143.266-1.142,1.142.308.968.965.966h.177q.81,0,.969-.966v-.176C101.949,50.944,101.623,50.623,100.98,50.417Zm5.088,0c-.628,0-1.01.382-1.137,1.142.2.645.523.966.962.966h.175q.813,0,.966-.966v-.176Q107.034,50.725,106.068,50.417Zm10.091,0c-.63,0-1.01.382-1.142,1.142q.308.968.966.966h.176c.541,0,.859-.321.965-.966v-.176Q117.124,50.725,116.159,50.417Zm2.542,0q-1.141.266-1.141,1.142.308.968.965.966h.176q.812,0,.966-.966v-.176C119.667,50.944,119.348,50.623,118.7,50.417Zm-25.331,0a1.172,1.172,0,0,0-1.142.966c.121.76.439,1.141.97,1.141h.172q.811,0,.966-.967Q94.183,50.418,93.37,50.418Zm2.545,0a1.164,1.164,0,0,0-1.137.966c.113.76.435,1.141.962,1.141h.175q.814,0,.967-.967Q96.729,50.418,95.915,50.418Zm2.456,0a1.165,1.165,0,0,0-1.139.966q.171,1.14.963,1.141h.176q.813,0,.965-.967Q99.183,50.418,98.371,50.418Zm5.158,0a1.169,1.169,0,0,0-1.145.966q.176,1.14.967,1.141h.178q.807,0,.963-.967Q104.337,50.418,103.529,50.418Zm10.087,0a1.162,1.162,0,0,0-1.142.966q.171,1.14.963,1.141h.179q.807,0,.962-.967Q114.423,50.418,113.616,50.418ZM90.828,52.963c-.51,0-.894.352-1.143,1.051q.242,1.053.966,1.054h.089A.934.934,0,0,0,91.8,54.014v-.088C91.8,53.487,91.47,53.166,90.828,52.963Zm10.152,0c-.509,0-.892.352-1.142,1.051.16.7.483,1.054.965,1.054h.089a.934.934,0,0,0,1.057-1.054v-.088C101.949,53.487,101.623,53.166,100.98,52.963Zm15.179,0c-.762.177-1.142.553-1.142,1.138q.308.966.966.967h.176c.541,0,.859-.323.965-.967v-.175Q117.124,53.268,116.159,52.963Zm2.542,0c-.512,0-.892.352-1.141,1.051q.242,1.053.965,1.054h.089a.931.931,0,0,0,1.053-1.054v-.088C119.667,53.487,119.348,53.166,118.7,52.963Zm-25.419,0c-.7.2-1.054.553-1.054,1.05.15.7.468,1.053.969,1.053h.172q.813,0,.967-.965C94.248,53.341,93.9,52.964,93.282,52.964Zm2.546,0c-.7.2-1.05.553-1.05,1.05.142.7.465,1.053.962,1.053h.176q.811,0,.966-.965C96.794,53.341,96.446,52.964,95.828,52.964Zm2.454,0c-.7.2-1.049.553-1.049,1.05q.215,1.054.962,1.053h.176q.813,0,.966-.965C99.249,53.341,98.9,52.964,98.282,52.964Zm5.156,0c-.7.2-1.053.553-1.053,1.05q.219,1.054.965,1.053h.179c.538,0,.861-.321.963-.965C104.408,53.341,104.052,52.964,103.438,52.964Zm10.087,0c-.7.2-1.051.553-1.051,1.05.143.7.465,1.053.962,1.053h.181c.536,0,.859-.321.961-.965-.088-.761-.439-1.138-1.053-1.138Z"/></svg>