<svg xmlns="http://www.w3.org/2000/svg" width="181" height="80" viewBox="0 0 181 80"><defs><style>.a{fill:#bdbdbd;}</style></defs><title>BoschLogo</title><path class="a" d="M20.139,20A20,20,0,1,0,40.145,40.006v-.012A20,20,0,0,0,20.139,20Zm.012,37.5a17.5,17.5,0,1,1,17.5-17.493A17.5,17.5,0,0,1,20.151,57.5ZM28.3,28.157l-1.975-1.408v7.6H14.381v-7.47l-1.923,1.247c-.287.166-6.388,4.185-6.388,11.7s6.079,11.94,6.336,12.123l1.975,1.414V45.787h11.94v7.418l1.918-1.219c.258-.166,6.394-4.19,6.394-11.706S28.554,28.34,28.3,28.157ZM11.88,48.054a12.591,12.591,0,0,1-3.32-8.226,11.476,11.476,0,0,1,3.32-7.95Zm14.441-4.763H14.381V36.84h11.94Zm2.5,4.94V32.072a12.6,12.6,0,0,1,3.32,8.208A11.483,11.483,0,0,1,28.817,48.231Zm62.1-8.254c0-4.636,2.261-7.636,5.758-7.636s5.8,2.994,5.8,7.636-2.29,7.67-5.8,7.67-5.758-3.028-5.758-7.67m-6.154,0c0,8.14,4.792,13.612,11.918,13.612S108.6,48.117,108.6,39.977s-4.791-13.612-11.918-13.612S84.764,31.837,84.764,39.977m26.9-5.506c0-4.843,3.841-8.1,9.565-8.1a12.125,12.125,0,0,1,9.342,3.938l-3.841,3.812a7.613,7.613,0,0,0-5.387-2.381c-1.654,0-3.371.824-3.371,2.622s2.043,2.375,4.144,2.816l.922.177c4.287.9,8.139,2.176,8.139,7.825,0,5.547-5.025,8.409-9.988,8.409-5.81,0-8.586-2.267-10.693-4.745l3.944-3.87a8.419,8.419,0,0,0,6.674,3.3c2.227,0,3.721-1.122,3.721-2.782,0-1.866-1.551-2.393-4.842-3.085l-.922-.195c-3.406-.71-7.413-2.633-7.413-7.75m22.33,5.283c0-6.68,3.732-13.417,12.072-13.417,4.259,0,7.31,1.7,9.88,5.489l-5.009,3.332A5.242,5.242,0,0,0,146.1,32.29c-2.937,0-5.913,2.57-5.913,7.481,0,5.375,3.165,7.825,6.107,7.825,2.439,0,3.647-1.133,4.792-2.959l5.048,3.434c-2.5,3.555-4.882,5.489-10.143,5.489-7.086,0-12.02-5.632-12.02-13.737m40.3-12.8h6.577V52.965h-6.577V42.776a.178.178,0,0,0-.178-.177h-7.973a.178.178,0,0,0-.178.177V52.965h-6.537V27.023h6.56v9.5a.178.178,0,0,0,.178.177h7.95a.178.178,0,0,0,.178-.177v-9.5M82.177,45.8c0,4.431-4.081,7.339-8.2,7.339H60.534V26.875H72.847c4.739,0,8.168,2.369,8.168,7.223a5.725,5.725,0,0,1-3.589,5.37A6.507,6.507,0,0,1,82.2,45.8M74.347,34.808a2.37,2.37,0,0,0-2.243-2.49,2.238,2.238,0,0,0-.259,0H67.031v4.894H71.7a2.466,2.466,0,0,0,2.617-2.307c0-.032,0-.064,0-.1m.847,10.252c0-1.517-1.145-2.564-3.469-2.564H67v5.151h4.814c1.963,0,3.348-.7,3.348-2.6"/></svg>