<svg xmlns="http://www.w3.org/2000/svg" width="152" height="80" viewBox="0 0 152 80"><defs><style>.a{fill:#bdbdbd;}</style></defs><title>ExarLogo</title><path class="a" d="M85.185,28.485H93.6v23.03H87.736V46.144H78.277l4.112-5.326h5.347V32.234L74.929,48.7l2.2,2.815H69.66l-6.334-8.107-6.333,8.107H33.644V30.628a2.142,2.142,0,0,1,2.142-2.143h14.46v5.356H39v3.481H48.64v5.356H39v3.481h14.71l5.883-7.53L51.667,28.485h7.468l4.191,5.365,4.191-5.365h7.469L67.06,38.629l4.25,5.44L82.217,29.943A3.751,3.751,0,0,1,85.185,28.485Zm33.171,23.03h-6.983l-4.463-8.034h-4.178v8.034H96.841V30.628a2.142,2.142,0,0,1,2.142-2.143h16.6v9.641a5.345,5.345,0,0,1-2.247,4.356ZM110.23,33.841h-7.5v4.82h5.891a1.607,1.607,0,0,0,1.607-1.607Zm-2.494,32.611c9.637-1.794,19.2-4.367,27.988-8.8,4.905-2.473,9.41-5.5,12.637-10.082a20.921,20.921,0,0,0,1.216-1.939,16.069,16.069,0,0,0,2.111-8.093,14.242,14.242,0,0,0-2.535-7.676,26.7,26.7,0,0,0-7.013-6.524,39.077,39.077,0,0,0-9.112-4.469,109.624,109.624,0,0,0-21.185-5.354A149.223,149.223,0,0,0,89.874,12c-7.4,0-14.785.415-22.155,1-5.83.466-11.649,1.1-17.428,2.009a129.687,129.687,0,0,0-29.208,7.77,58.782,58.782,0,0,0-12.3,6.733C5.262,32.083,1.933,35.163.308,39.3c5.9-7.591,14.059-11.822,22.815-14.788,31.014-10.506,63.538-10.592,87.154-6.828,8.674,1.382,24.3,6.439,31.181,12.243a16.287,16.287,0,0,1,4.849,6.439c1.666,4.339.272,8.835-2.722,12.217a34.4,34.4,0,0,1-6.255,5.295,62.5,62.5,0,0,1-7.267,4.279c-9.692,4.918-20.27,7.241-30.747,9.645C102.133,67.405,104.938,66.973,107.736,66.452ZM2.882,39.108a11.11,11.11,0,0,0-1.356,9.514c1.325,3.968,5.167,6.765,8.613,8.82,6.268,3.739,13.261,5.636,20.349,7.089,20.283,4.156,40.722,4.255,61.213,2,5.082-.56,11.536-1.856,16.59-2.673-2.053-.067-5.065.045-6.761.156-6.719.442-13.477.827-20.21.966a212.766,212.766,0,0,1-35.777-2.072A162.732,162.732,0,0,1,28.855,59.6a58.638,58.638,0,0,1-15.261-6.023C5.328,48.691,2.985,42.142,9.412,33.038A27,27,0,0,0,2.882,39.108Z"/></svg>