<svg xmlns="http://www.w3.org/2000/svg" width="85" height="80" viewBox="0 0 85 80"><defs><style>.a{fill:#bdbdbd;}</style></defs><title>IntelLogo</title><path class="a" d="M40.376,61.927C23.6,63.477,6.105,61.023,3.651,47.92,2.454,41.455,5.4,34.582,9.313,30.34V28.08C2.287,34.234-1.54,42.046.656,51.273,3.462,63.106,18.471,69.825,41.383,67.566c9.069-.881,20.934-3.8,29.184-8.328V52.823C63.08,57.282,50.7,60.969,40.376,61.927ZM84.583,27.909C80.6,8.48,42.87,7.242,18.544,22.035v1.636c24.3-12.475,58.746-12.4,61.909,5.489,1.053,5.924-2.282,12.091-8.241,15.643v4.658c7.156-2.63,14.512-11.133,12.375-21.552ZM69.211,49.289c-3.289-.321-4.4-2.318-4.4-4.613V25.094h4.4Zm-52.389.362c-3.3-.312-4.41-2.309-4.41-4.613v-12.8h4.406Zm-4.41-23.974h4.4v4.17h-4.4Zm30.761,23.77a4.7,4.7,0,0,1-5.07-4.925V27.534h4.36v4.7h3.285v3.524H42.463v8.508c0,.994.452,1.55,1.509,1.55h1.776v3.614H43.173M51.2,42.205a3.624,3.624,0,0,0,3.868,3.872,4.932,4.932,0,0,0,4.007-1.64L61.783,47a8.608,8.608,0,0,1-6.732,2.747c-4.175,0-8.173-2.259-8.173-8.919,0-5.679,3.5-8.887,8.078-8.887,4.659,0,7.333,3.759,7.333,8.688v1.573H51.22m3.546-6.656a3.348,3.348,0,0,0-3.126,1.807,4.521,4.521,0,0,0-.42,1.876h6.723c-.109-1.876-.958-3.683-3.2-3.683Zm-29.707.208V49.493H20.694V32.242h8.987c3.832,0,5.137,2.7,5.137,5.151v12.1H30.472V37.415c0-1.025-.529-1.658-1.808-1.658Zm48.888-7.175a1.746,1.746,0,1,1,.022,0Zm0-3.208a1.455,1.455,0,1,0,1.463,1.459,1.472,1.472,0,0,0-1.463-1.464Zm.777,2.508H74.4a.072.072,0,0,1-.067-.046l-.452-.75a.137.137,0,0,0-.063-.036h-.2v.755a.076.076,0,0,1-.072.081h-.294a.081.081,0,0,1-.072-.081v-1.9c0-.108.036-.158.135-.172s.385-.027.538-.027c.547,0,.868.163.868.669v.036a.528.528,0,0,1-.393.56l.451.787a.123.123,0,0,1,0,.054A.063.063,0,0,1,74.724,27.882Zm-.425-1.5c0-.213-.131-.281-.411-.281h-.28v.6h.28c.28,0,.411-.1.411-.293Z"/></svg>