<svg xmlns="http://www.w3.org/2000/svg" width="162" height="80" viewBox="0 0 162 80"><defs><style>.a{fill:#bdbdbd;}</style></defs><title>MaximIntegratedLogo</title><path class="a" d="M24.636,16a24,24,0,1,0,24,24A24,24,0,0,0,24.636,16ZM14.8,51.745H9.738V31.023A2.462,2.462,0,0,1,12.2,28.56h6.728a2.419,2.419,0,0,1,2.093,1.189l2.4,4.27-2.647,4.793-3.156-5.661H14.8Zm24.737,0H34.476V33.15H31.652l-4.363,7.858L33.23,51.743H27.893l-3.256-5.89-3.255,5.89H16.045l12.21-21.995a2.416,2.416,0,0,1,2.091-1.189h6.729a2.462,2.462,0,0,1,2.462,2.462Zm21.1-7.449h2.22v11.92h-2.22Zm1.121-2.4a1.42,1.42,0,0,1-1.425-1.4,1.441,1.441,0,0,1,1.425-1.426,1.418,1.418,0,0,1,1.4,1.426,1.4,1.4,0,0,1-1.4,1.4M73.776,56.214V48.092c0-1.222-.525-2.048-1.824-2.048A5.1,5.1,0,0,0,68.5,47.969v8.246H66.278V44.294h1.776l.275,1.726a6.4,6.4,0,0,1,4.222-1.976,3.171,3.171,0,0,1,3.45,3.5v8.671H73.776Zm9.692.2c-2.1,0-3.471-.75-3.471-3.148v-7.1H77.974V44.294H80V40.556h2.174v3.738h2.9v1.875h-2.9v6.7c0,.975.4,1.575,1.649,1.575a8.982,8.982,0,0,0,1.245-.075l.3,1.9a10.875,10.875,0,0,1-1.9.152m52.648,0c-2.1,0-3.471-.75-3.471-3.148v-7.1h-2.021V44.294h2.021V40.556h2.176v3.738h2.905l0,1.875h-2.9v6.7c0,.975.4,1.575,1.646,1.575a9,9,0,0,0,1.247-.075l.3,1.9a10.856,10.856,0,0,1-1.9.152m-44.3-10.622c-1.375,0-2.547.976-2.9,3.024h5.746c-.275-1.922-1.122-3.024-2.847-3.024m5.1,4.7h-8.1c.075,2.776,1.4,4.074,3.473,4.074a6.554,6.554,0,0,0,4.272-1.7l.325,2a7.411,7.411,0,0,1-4.771,1.6c-3.1,0-5.522-1.873-5.522-6.246,0-3.823,2.249-6.174,5.248-6.174,3.473,0,5.071,2.676,5.071,5.974Zm6.733-4.821a2.408,2.408,0,0,0-2.422,2.6,2.341,2.341,0,0,0,2.422,2.448,2.524,2.524,0,0,0,0-5.047M100.4,57.513c0,.949,1.226,1.65,3.547,1.65s3.625-.8,3.625-1.8c0-.723-.55-1.222-2.249-1.522l-1.423-.25c-.651-.124-1-.2-1.476-.3-1.4.7-2.024,1.4-2.024,2.223m9.347-13.395.322,2-2.272.226a3.584,3.584,0,0,1,.474,1.846c0,2.55-2.147,4.1-4.572,4.1a5.335,5.335,0,0,1-.9-.075c-.351.227-.6.5-.6.727,0,.424.424.525,2.524.9l.851.151c2.521.449,4.1,1.249,4.1,3.1,0,2.5-2.724,3.674-5.824,3.674s-5.572-.976-5.572-3.074c0-1.225.85-2.173,2.524-3.073a1.525,1.525,0,0,1-.749-1.25c0-.575.449-1.15,1.25-1.623a3.871,3.871,0,0,1-2.225-3.55c0-2.574,2.149-4.149,4.571-4.149a4.881,4.881,0,0,1,3.075,1Zm4.311,5.048v7.047h-2.225V44.291h1.774l.374,2.427a5.286,5.286,0,0,1,4.173-2.676l.35,2.126a5.456,5.456,0,0,0-4.446,3m12.369,1c-4.4.424-5.32,1.625-5.32,2.85a1.559,1.559,0,0,0,1.772,1.6,5.051,5.051,0,0,0,3.548-1.675Zm.426,6.048-.248-1.6a5.623,5.623,0,0,1-4.2,1.848,3.186,3.186,0,0,1-3.5-3.323c0-2.973,2.549-4.147,7.521-4.67v-.5c0-1.5-.9-2.024-2.273-2.024a10.256,10.256,0,0,0-4.122,1.024l-.3-1.925a11.551,11.551,0,0,1,4.624-1c2.9,0,4.3,1.175,4.3,3.826v8.345h-1.8Zm17.616-10.422c-1.374,0-2.547.976-2.9,3.024h5.747c-.274-1.922-1.124-3.024-2.849-3.024m5.1,4.7h-8.1c.075,2.776,1.4,4.074,3.473,4.074a6.557,6.557,0,0,0,4.273-1.7l.323,2a7.413,7.413,0,0,1-4.772,1.6c-3.1,0-5.521-1.873-5.521-6.246,0-3.823,2.248-6.174,5.249-6.174,3.472,0,5.071,2.676,5.071,5.974Zm10.293-3.8a5.6,5.6,0,0,0-2.924-.676c-1.872,0-3.222,1.524-3.222,4.474,0,2.622,1.175,4,2.772,4a4.268,4.268,0,0,0,3.374-2.1Zm.448,9.52-.275-1.724a4.929,4.929,0,0,1-3.873,1.973c-2.572,0-4.7-1.872-4.7-5.873,0-4.346,2.5-6.446,5.4-6.446a8.39,8.39,0,0,1,3,.525v-6h2.224V56.214ZM75.327,35.9V27.778c0-1.225-.449-2.048-1.747-2.048a4.95,4.95,0,0,0-3.374,1.925V35.9H67.982V27.78c0-1.225-.451-2.049-1.75-2.049a4.952,4.952,0,0,0-3.371,1.925V35.9H60.638V23.98h1.774l.274,1.726a6.269,6.269,0,0,1,4.148-1.974,2.968,2.968,0,0,1,3.147,1.974,6.291,6.291,0,0,1,4.2-1.974c2.275,0,3.374,1.348,3.374,3.5V35.9Zm12.33-6.047c-4.4.426-5.32,1.625-5.32,2.85a1.559,1.559,0,0,0,1.771,1.6,5.053,5.053,0,0,0,3.549-1.676Zm.425,6.048-.249-1.6a5.625,5.625,0,0,1-4.2,1.848,3.186,3.186,0,0,1-3.5-3.323c0-2.974,2.548-4.147,7.521-4.671v-.5c0-1.5-.9-2.025-2.275-2.025a10.256,10.256,0,0,0-4.12,1.025l-.3-1.923a11.536,11.536,0,0,1,4.621-1c2.9,0,4.3,1.174,4.3,3.822V35.9h-1.8Zm16.272-11.92h2.224V35.9h-2.224Zm1.125-2.4a1.418,1.418,0,0,1-1.425-1.4,1.439,1.439,0,0,1,1.425-1.424,1.418,1.418,0,0,1,1.4,1.424,1.4,1.4,0,0,1-1.4,1.4M124.692,35.9V27.778c0-1.225-.449-2.048-1.747-2.048a4.946,4.946,0,0,0-3.373,1.925V35.9h-2.225V27.78c0-1.225-.449-2.049-1.748-2.049a4.954,4.954,0,0,0-3.373,1.925V35.9H110V23.98h1.776l.275,1.726a6.267,6.267,0,0,1,4.147-1.974,2.972,2.972,0,0,1,3.149,1.974,6.282,6.282,0,0,1,4.2-1.974c2.274,0,3.372,1.348,3.372,3.5V35.9Zm-22.139,0h-2.546l-3.031-4.449L94.036,35.9H91.567L95.8,29.8,91.723,23.98h2.535L97,28.053l2.727-4.073h2.443l-3.965,5.75Z"/></svg>