<svg xmlns="http://www.w3.org/2000/svg" width="117" height="80" viewBox="0 0 117 80"><defs><style>.a{fill:#bdbdbd;}</style></defs><title>NXPSemiconductorsLogo</title><path class="a" d="M69.584,40,81.862,60,69.584,60H67.313l-8.29-13.3L50.732,60H36.182l12.28-20L36.182,20h14.55l8.291,13.3L67.313,20h14.55Zm47.341-6.328v4.7c0,5.954-2.607,12.79-11.316,12.79H84.862L84.867,60h-.005L72.584,40,84.863,20h17.528C114.1,20,116.925,25.843,116.925,33.672Zm-11.467.5c0-2.7-1.332-4.246-5.049-4.246H84.878V41.239h16.586c2.885,0,3.994-2.729,3.994-5.1ZM45.462,40,33.182,20h-.005V44.172L12.37,20H.075V60l12.306,0,0-24.169L33.182,60Z"/></svg>