<svg xmlns="http://www.w3.org/2000/svg" width="184" height="80" viewBox="0 0 184 80"><defs><style>.a{fill:#bdbdbd;}</style></defs><title>SemtechLogo</title><path class="a" d="M6.44,26.255c.143-.57.713-1.994,4.131-5.127,1.709-1.567,6.267-3.989,7.406-5.128H30.084V38.22a7.636,7.636,0,0,0-5.7-6.125C20.4,30.671,14.7,30.671,11.141,30.243c-1.994-.142-5.555-.712-4.7-3.988M18.405,48.047c4.985-5.27,3.418-10.54-4.273-11.109-2.849-.285-6.695-.712-8.546-.855-.428,0-3.988,0-5.27-1.994V64H.458C4.589,61.436,16.7,49.757,18.405,48.047M15.983,16H.458V30.528a25.863,25.863,0,0,1,5.128-7.264A44,44,0,0,1,15.983,16M29.942,41.923a27.459,27.459,0,0,1-4.273,10.113A66.407,66.407,0,0,1,14.844,64H29.8Zm8.142.277c0,2.12,1.187,4.24,8.65,4.07,4.155,0,9.328-.593,9.328-3.9,0-2.29-2.714-3.053-6.106-3.477L47.5,38.554c-1.95-.255-3.646-.509-3.646-1.272,0-.679,1.017-1.188,3.392-1.188,1.611,0,3.137.17,3.307,1.357h5.172C55.553,35.077,53.6,33.72,46.9,33.72c-4.24,0-8.395,1.1-8.395,3.986,0,2.289,3.138,3.052,6.191,3.392l2.628.339c2.12.339,3.392.593,3.392,1.357,0,.593-.508,1.272-3.646,1.272-2.544,0-3.562-.34-3.646-1.866Zm19.674,3.9H73.785V43.642H63.1V41.267h9.921V38.808H63.1V36.6H73.53V34.144H57.758Zm18.062,0h4.155V36.349h.085l5.6,9.752h5.087l5.6-9.752h.085V46.1h4.579V34.144H93.712l-5.257,8.9-5-8.9H75.82Zm34,0h5.343V36.6h7.038V34.144H102.7V36.6h7.123Zm14.331,0h16.027V43.642H129.5V41.267h9.921V38.808H129.5V36.6h10.43V34.144H124.155Zm38.33-8.141c-.085-3.138-4.749-4.24-9.583-4.24-6.784,0-11.193,1.866-11.193,6.275s4.579,6.275,10.26,6.275,10.261-.848,10.516-4.324h-5.767c-.169,1.526-2.035,1.95-4.155,1.95-3.731,0-5.173-1.781-5.173-3.9s1.781-3.731,5.343-3.731c2.035,0,3.816.424,4.07,1.781Zm1.441,8.141h5.342V41.352h9.074V46.1h5.342V34.144h-5.342v4.749h-9.074V34.144h-5.342Z"/></svg>