<svg xmlns="http://www.w3.org/2000/svg" width="180" height="80" viewBox="0 0 180 80"><defs><style>.a{fill:#bdbdbd;fill-rule:evenodd;}</style></defs><title>TexasInstrumentsLogo</title><path class="a" d="M25.8,21.721h0a1.847,1.847,0,1,1-1.848,1.847A1.846,1.846,0,0,1,25.8,21.721ZM10.038,45.082c2.658,0,2.085-2.573,3.432-2.573,1.16,0,1.463.877,2.119,2.473,1.838,4.47,6.005,12.143,12.056,10.343,0,0-4.185-8.981,10.216-13.069V34.478c-2.924.058-2.063-7.612-2.063-7.612H28.409l-.746,4.254h2.463L29.454,34.7H26.991L25.946,40.15h0c-.447,2.239.747,1.791,1.642,1.791h0l-.373,2.09h0c-6.567,2.91-7.836-1.568-7.463-3.583h0L20.8,34.7H17.513l.672-3.582h3.283l.821-4.254H19.6V20H10.871V33.582H.449S4.791,45.082,10.038,45.082Zm10.779-4.5h3.955l2.619-13.72H23.4l-2.584,13.72ZM130.906,59.175a1.415,1.415,0,0,1-1.324-1.382h0V49.809h0a1.415,1.415,0,0,1,1.324-1.382c.192,0,.192-.23-.019-.23h-3.263l-4.53,7.523L118.449,48.2H115c-.212,0-.212.23-.02.23a1.415,1.415,0,0,1,1.325,1.382h0v7.984h0a1.415,1.415,0,0,1-1.325,1.382c-.192,0-.192.23.02.23h4.145c.211,0,.211-.23.019-.23a1.415,1.415,0,0,1-1.324-1.382h0v-5.72l4.376,7.1h0c.192.269.307.345.538,0,0-.038,4.222-6.948,4.222-6.948h0v5.566h0a1.415,1.415,0,0,1-1.324,1.382c-.192,0-.192.23.019.23h5.221c.211,0,.211-.23.019-.23ZM114.152,48.2h-3.839c-.211,0-.211.23-.019.23a1.415,1.415,0,0,1,1.324,1.382h0v5.758h0c-.038,1.919-1.843,2.725-3.378,2.687s-3.071-.269-3.071-2.687h0V49.809h0a1.415,1.415,0,0,1,1.324-1.382c.192,0,.192-.23-.019-.23h-4.76c-.211,0-.211.23-.019.23a1.415,1.415,0,0,1,1.325,1.382h0v5.758h0c0,2.648,1.919,3.838,5.22,3.838,2.3,0,4.607-1.343,4.607-3.838h0V49.809h0a1.414,1.414,0,0,1,1.324-1.382c.192,0,.192-.23-.019-.23ZM102.9,58.332h0c.192-.077.23.076.173.153-2.61,2.764-4.875.537-6.257-1.651s-1.766-2.245-2.438-2.418c-.037-.01-1.17,0-1.17,0-.269,0-.384.192-.384.461h0V57.89h0a1.4,1.4,0,0,0,1.324,1.286c.192,0,.192.23-.019.23H89.064c-.211,0-.211-.23-.02-.23a1.416,1.416,0,0,0,1.325-1.382h0V49.81h0a1.414,1.414,0,0,0-1.325-1.382c-.191,0-.191-.231.02-.231H96.9c1.382,0,4.069.423,4.069,3.3s-2.878,2.917-3.417,2.917c-.614,0-.518.307-.134.365a8.873,8.873,0,0,1,3.167,2.859,2.228,2.228,0,0,0,2.322.692Zm-6.353-5.221h0a1.651,1.651,0,0,0,1.613-1.843,1.768,1.768,0,0,0-2-1.765h-2.84c-.346,0-.5.307-.5.633h0v2.476h0a.446.446,0,0,0,.5.5h3.224ZM65.77,48.2H62.162c-.212,0-.212.23-.02.23a1.416,1.416,0,0,1,1.325,1.382h0v5.8L56.1,48.2H52.335c-.212,0-.212.23-.02.23.538.039,1.747,1.19,2.553,2.15h0V57.8h0a1.414,1.414,0,0,1-1.324,1.381c-.192,0-.192.231.019.231H57.4c.211,0,.211-.231.019-.231A1.414,1.414,0,0,1,56.1,57.8h0V51.729l8.062,8.138h0c.268.269.307.077.307-.115h0V49.81h0a1.416,1.416,0,0,1,1.324-1.382c.192,0,.192-.23-.019-.23ZM52.153,59.165a1.414,1.414,0,0,1-1.324-1.382h0V45.806h0a1.413,1.413,0,0,1,1.324-1.381c.192,0,.192-.231-.019-.231H47.066c-.211,0-.211.231-.019.231a1.414,1.414,0,0,1,1.325,1.381h0V57.783h0a1.415,1.415,0,0,1-1.325,1.382c-.192,0-.192.23.019.23h5.068c.211,0,.211-.23.019-.23ZM89.5,50.807,88.424,48.2H78.175l-.96,2.331-.658-1.965h0c-.065-.134-.281-.269-.415.057a.77.77,0,0,1-1.016.445,9.807,9.807,0,0,0-3.653-.643c-2.567,0-4.281,1.158-4.281,3.416,0,4.266,8.393,2.041,8.306,5.053-.046,1.591-1.449,1.7-2.908,1.7a8.556,8.556,0,0,1-5.943-3.167c-.262-.219-.39-.07-.31.233h0l1.142,3.647h0c.083.133.136.381.335.384s.332-.634.746-.634a37.94,37.94,0,0,0,4.484.639c1.907,0,4.656-1.118,4.656-3.29,0-2.835-1.731-3.256-5.491-3.816-1.191-.178-3.025-.2-3.025-1.788,0-1.111,1.758-1.405,2.7-1.405,3.046,0,5.383,2.818,5.632,2.818.216,0,.2-.25.083-.531h0l-.251-.749h0A2.764,2.764,0,0,1,79.787,49.5h1.229a.732.732,0,0,1,.691.768h0v7.524h0a1.415,1.415,0,0,1-1.325,1.382c-.191,0-.191.23.019.23h5.375c.211,0,.211-.23.019-.23a1.415,1.415,0,0,1-1.324-1.382h0V50.269h0a.732.732,0,0,1,.69-.768h1.651a2.8,2.8,0,0,1,2.457,1.459c.115.115.307.115.23-.153Zm79.243,0-1.074-2.61h-10.25l-1.075,2.61h0c-.076.268.116.268.231.153A2.8,2.8,0,0,1,159.03,49.5h1.229a.732.732,0,0,1,.691.768h0v7.524h0a1.415,1.415,0,0,1-1.324,1.382c-.192,0-.192.23.019.23h5.374c.211,0,.211-.23.019-.23a1.415,1.415,0,0,1-1.324-1.382h0V50.269h0a.732.732,0,0,1,.691-.768h1.65a2.8,2.8,0,0,1,2.457,1.459c.115.115.307.115.23-.153Zm-36.649-2.38a1.415,1.415,0,0,1,1.324,1.382h0v7.984h0a1.415,1.415,0,0,1-1.324,1.382c-.192,0-.192.23.019.23h10.211L143.4,56.8h0c.077-.269-.115-.269-.23-.153a2.8,2.8,0,0,1-2.457,1.458h-3.839a.731.731,0,0,1-.691-.767h0V54.645h0c0-.345.192-.5.576-.5h1.651c.959,0,1.343.4,1.381.941,0,.192.231.192.231-.019h0V51.92h0c0-.211-.231-.211-.231-.019-.038.537-.422.94-1.381.94h-1.651c-.384,0-.576-.153-.576-.5h0V50.269h0a.732.732,0,0,1,.691-.768h3.493a2.8,2.8,0,0,1,2.457,1.459c.115.115.307.115.23-.153h0l-1.075-2.61h-9.865c-.211,0-.211.23-.019.23Zm10.885,0c.538.039,1.747,1.19,2.553,2.15h0V57.8h0a1.414,1.414,0,0,1-1.324,1.381c-.192,0-.192.231.019.231h3.838c.212,0,.212-.231.02-.231a1.414,1.414,0,0,1-1.325-1.381h0V51.729l8.062,8.138h0c.268.269.307.077.307-.115h0V49.81h0a1.416,1.416,0,0,1,1.324-1.382c.192,0,.192-.23-.019-.23h-3.609c-.211,0-.211.23-.019.23a1.416,1.416,0,0,1,1.325,1.382h0v5.8L146.759,48.2H143c-.211,0-.211.23-.019.23ZM174.06,52.59c-1.19-.178-3.025-.2-3.025-1.788,0-1.111,1.758-1.405,2.7-1.405,3.046,0,5.383,2.818,5.632,2.818.216,0,.2-.25.083-.531h0l-1.045-3.121h0c-.065-.134-.281-.269-.415.057a.77.77,0,0,1-1.016.445,9.807,9.807,0,0,0-3.653-.643c-2.567,0-4.281,1.158-4.281,3.416,0,4.266,8.393,2.041,8.306,5.053-.046,1.591-1.448,1.7-2.908,1.7a8.556,8.556,0,0,1-5.943-3.167c-.262-.219-.39-.07-.31.233h0l1.142,3.647h0c.083.133.135.381.335.384s.332-.634.746-.634a37.94,37.94,0,0,0,4.484.639c1.907,0,4.656-1.118,4.656-3.29,0-2.835-1.731-3.256-5.491-3.816ZM54.561,31.445a1.415,1.415,0,0,1,1.325,1.382h0v7.984h0a1.415,1.415,0,0,1-1.325,1.382c-.192,0-.192.23.02.23h10.21l1.075-2.61h0c.077-.269-.115-.269-.23-.153a2.8,2.8,0,0,1-2.457,1.458H59.341a.732.732,0,0,1-.692-.767h0V37.663h0c0-.345.192-.5.576-.5h1.651c.96,0,1.344.4,1.382.941,0,.192.23.192.23-.019h0V34.938h0c0-.211-.23-.211-.23-.019-.038.537-.422.94-1.382.94H59.225c-.384,0-.576-.153-.576-.5h0V33.287h0a.732.732,0,0,1,.692-.767h3.493a2.8,2.8,0,0,1,2.456,1.459c.116.115.308.115.231-.154h0l-1.075-2.61H54.581c-.212,0-.212.23-.02.23Zm39.382,3.893h0c3.76.56,5.491.981,5.491,3.816,0,2.172-2.748,3.29-4.655,3.29a37.94,37.94,0,0,1-4.484-.639c-.415,0-.538.638-.746.634a.206.206,0,0,1-.076-.016H84.559c-.211,0-.211-.23-.019-.23.334-.024,1.132-.48.852-1.169h0L84.655,39.2h0a.513.513,0,0,0-.442-.307H80.3a.5.5,0,0,0-.461.326h0L79,41.14h0c-.4.516.364,1.029.7,1.053.192,0,.192.23-.019.23H73.105c-.211,0-.211-.23-.019-.23.335-.024,1.248-.576.852-1.092h0l-2.023-2.939L69.547,41.14h0c-.4.516.364,1.029.7,1.053.192,0,.192.23-.019.23H66.234c-.211,0-.211-.23-.019-.23a1.452,1.452,0,0,0,1-.555h0l3.793-4.8-2.936-4.28h0a2.121,2.121,0,0,0-1.862-1.113c-.192,0-.192-.23.019-.23h5.412c.212,0,.212.23.02.23-.538.038-1.018.422-.672,1.036h0l1.612,2.342,1.881-2.342h0c.346-.614-.134-1-.672-1.036-.192,0-.192-.23.02-.23h4.452c.211,0,.211.23.02.23a2.172,2.172,0,0,0-1.9,1.113h0l-2.9,3.589,3.693,5.4,4.9-10.333H83.83l4.579,10.423h0a1.141,1.141,0,0,0,.86.525,1.082,1.082,0,0,0-.055-.108h0l-1.142-3.647h0c-.08-.3.047-.452.31-.233a8.554,8.554,0,0,0,5.943,3.167c1.459,0,2.862-.112,2.908-1.7.087-3.012-8.307-.787-8.307-5.053,0-2.258,1.714-3.416,4.281-3.416a9.8,9.8,0,0,1,3.653.643.769.769,0,0,0,1.016-.445c.135-.326.351-.191.415-.057h0l1.045,3.121h0c.116.281.133.531-.083.531-.248,0-2.586-2.818-5.631-2.818-.945,0-2.7.294-2.7,1.4,0,1.592,1.835,1.611,3.025,1.788ZM83.772,37.587h0c.153.019.211-.1.134-.307h0L82.6,33.94h0a.21.21,0,0,0-.4,0h0l-1.516,3.4h0c-.077.154.1.25.192.25h2.9ZM42.513,30.014c.46-.538,1.881-1.8,3.071-1.8h2.073a.761.761,0,0,1,.729.767h0V40.8h0a1.415,1.415,0,0,1-1.324,1.382c-.192,0-.192.231.019.231h5.067c.211,0,.211-.231.019-.231A1.415,1.415,0,0,1,50.843,40.8h0V28.977h0a.761.761,0,0,1,.729-.767h2.073c1.19,0,2.61,1.266,3.071,1.8.153.192.46.153.307-.154h0l-1.574-2.994H43.779L42.206,29.86h0c-.154.307.153.346.307.154Z"/></svg>