<svg xmlns="http://www.w3.org/2000/svg" width="80" height="80" viewBox="0 0 80 80"><title>Asset 5</title><path d="M5.22,0A5.25,5.25,0,0,0,0,5.22V57.39a5.25,5.25,0,0,0,5.22,5.22H29.57v3.48H13.75a1.74,1.74,0,0,0-1.2.65L3.86,77.17A1.74,1.74,0,0,0,5.22,80H74.78a1.74,1.74,0,0,0,1.36-2.83L67.45,66.74a1.73,1.73,0,0,0-1.36-.65H50.43V62.61H74.78A5.25,5.25,0,0,0,80,57.39V5.22A5.25,5.25,0,0,0,74.78,0Zm0,3.48H74.78a1.73,1.73,0,0,1,1.74,1.74V57.39a1.73,1.73,0,0,1-1.74,1.74H5.22a1.73,1.73,0,0,1-1.74-1.74V5.22A1.73,1.73,0,0,1,5.22,3.48ZM7,7V55.65H73V7Zm3.47,3.47H69.57V52.17H10.43Zm19.62,5.71L16.14,30.05,15,31.3l1.19,1.25L30.05,46.47l2.5-2.5L19.89,31.3,32.55,18.64Zm19.9,0-2.5,2.5L60.11,31.3,47.45,44l2.5,2.5L63.86,32.55l1.19-1.25-1.19-1.25ZM33,62.61H47v7H33Zm-18.31,7H29.57V73H50.43V69.57H65.27l5.82,7H8.91Z" fill="#00acc1"/></svg>