<?xml version="1.0" encoding="UTF-8"?>
<svg xmlns="http://www.w3.org/2000/svg" xmlns:xlink="http://www.w3.org/1999/xlink" width="100pt" height="100pt" viewBox="0 0 100 100" version="1.1">
<g id="surface1">
<path style=" stroke:none;fill-rule:nonzero;fill:#00ACC1;fill-opacity:1;" d="M 6.0625 -0.0625 C 2.773438 -0.0625 0.0625 2.648438 0.0625 5.9375 L 0.0625 93.9375 C 0.0625 97.226563 2.773438 99.9375 6.0625 99.9375 L 92.0625 99.9375 C 92.84375 99.90625 93.539063 99.421875 93.835938 98.695313 C 94.132813 97.96875 93.976563 97.132813 93.4375 96.5625 L 78.4375 81.5 C 77.898438 80.953125 77.101563 80.757813 76.375 81 C 76.265625 81.03125 76.164063 81.078125 76.0625 81.125 C 76.023438 81.140625 75.976563 81.164063 75.9375 81.1875 C 74.726563 81.710938 73.40625 82 72 82 C 66.453125 82 62 77.546875 62 72 C 62 66.453125 66.453125 62 72 62 C 77.546875 62 82 66.453125 82 72 C 82 73.101563 81.828125 74.195313 81.5 75.1875 C 80.976563 75.632813 80.710938 76.320313 80.8125 77 C 80.8125 77.023438 80.8125 77.039063 80.8125 77.0625 C 80.828125 77.101563 80.851563 77.148438 80.875 77.1875 C 80.882813 78.117188 81.53125 78.921875 82.4375 79.125 L 96.625 93.375 C 97.195313 93.96875 98.078125 94.148438 98.835938 93.828125 C 99.59375 93.515625 100.078125 92.757813 100.0625 91.9375 L 100.0625 5.9375 C 100.0625 2.648438 97.351563 -0.0625 94.0625 -0.0625 L 60.0625 -0.0625 C 60 -0.0625 59.9375 -0.0625 59.875 -0.0625 C 59.398438 -0.0078125 58.953125 0.210938 58.625 0.5625 L 37.875 21.25 C 37.710938 21.351563 37.5625 21.476563 37.4375 21.625 C 37.414063 21.664063 37.390625 21.710938 37.375 21.75 C 37.117188 22.070313 36.960938 22.460938 36.9375 22.875 C 36.875 23.382813 37.007813 23.898438 37.3125 24.3125 C 37.765625 25.453125 38 26.6875 38 28 C 38 33.546875 33.546875 38 28 38 C 22.453125 38 18 33.546875 18 28 C 18 22.453125 22.453125 18 28 18 C 29.359375 18 30.640625 18.265625 31.8125 18.75 C 31.835938 18.773438 31.851563 18.789063 31.875 18.8125 C 31.9375 18.835938 32 18.851563 32.0625 18.875 C 32.320313 18.992188 32.59375 19.054688 32.875 19.0625 C 32.914063 19.0625 32.960938 19.0625 33 19.0625 C 33.023438 19.0625 33.039063 19.0625 33.0625 19.0625 C 33.554688 19.039063 34.023438 18.84375 34.375 18.5 L 49.4375 3.375 C 50.023438 2.8125 50.203125 1.945313 49.90625 1.195313 C 49.601563 0.4375 48.875 -0.0546875 48.0625 -0.0625 Z M 6.0625 3.9375 L 43.25 3.9375 L 32.4375 14.6875 C 31.054688 14.234375 29.539063 14 28 14 C 20.289063 14 14 20.289063 14 28 C 14 35.710938 20.289063 42 28 42 C 35.710938 42 42 35.710938 42 28 C 42 26.453125 41.78125 24.960938 41.3125 23.5625 L 60.875 3.9375 L 94.0625 3.9375 C 95.1875 3.9375 96.0625 4.8125 96.0625 5.9375 L 96.0625 87.1875 L 85.25 76.375 C 85.710938 74.992188 86 73.53125 86 72 C 86 64.289063 79.710938 58 72 58 C 64.289063 58 58 64.289063 58 72 C 58 79.710938 64.289063 86 72 86 C 73.570313 86 75.09375 85.71875 76.5 85.25 L 87.1875 95.9375 L 6.0625 95.9375 C 4.9375 95.9375 4.0625 95.0625 4.0625 93.9375 L 4.0625 5.9375 C 4.0625 4.8125 4.9375 3.9375 6.0625 3.9375 Z M 72 14 C 64.289063 14 58 20.289063 58 28 C 58 29.5 58.5 30.835938 58.9375 32.1875 L 32.1875 58.9375 C 30.835938 58.5 29.5 58 28 58 C 20.289063 58 14 64.289063 14 72 C 14 79.710938 20.289063 86 28 86 C 35.710938 86 42 79.710938 42 72 C 42 70.5 41.5 69.164063 41.0625 67.8125 L 67.8125 41.0625 C 69.164063 41.5 70.5 42 72 42 C 79.710938 42 86 35.710938 86 28 C 86 20.289063 79.710938 14 72 14 Z M 72 18 C 77.546875 18 82 22.453125 82 28 C 82 33.546875 77.546875 38 72 38 C 70.539063 38 69.140625 37.695313 67.875 37.125 C 67.117188 36.765625 66.226563 36.914063 65.625 37.5 L 37.5 65.625 C 36.914063 66.226563 36.765625 67.117188 37.125 67.875 C 37.695313 69.140625 38 70.539063 38 72 C 38 77.546875 33.546875 82 28 82 C 22.453125 82 18 77.546875 18 72 C 18 66.453125 22.453125 62 28 62 C 29.460938 62 30.867188 62.304688 32.125 62.875 C 32.859375 63.203125 33.726563 63.054688 34.3125 62.5 L 62.5 34.3125 C 63.054688 33.726563 63.203125 32.859375 62.875 32.125 C 62.304688 30.867188 62 29.460938 62 28 C 62 22.453125 66.453125 18 72 18 Z M 28 24 C 25.789063 24 24 25.789063 24 28 C 24 30.210938 25.789063 32 28 32 C 30.210938 32 32 30.210938 32 28 C 32 25.789063 30.210938 24 28 24 Z M 72 24 C 69.789063 24 68 25.789063 68 28 C 68 30.210938 69.789063 32 72 32 C 74.210938 32 76 30.210938 76 28 C 76 25.789063 74.210938 24 72 24 Z M 28 68 C 25.789063 68 24 69.789063 24 72 C 24 74.210938 25.789063 76 28 76 C 30.210938 76 32 74.210938 32 72 C 32 69.789063 30.210938 68 28 68 Z M 72 68 C 69.789063 68 68 69.789063 68 72 C 68 74.210938 69.789063 76 72 76 C 74.210938 76 76 74.210938 76 72 C 76 69.789063 74.210938 68 72 68 Z "/>
</g>
</svg>
