<svg xmlns="http://www.w3.org/2000/svg" width="80" height="80" viewBox="0 0 80 80"><title>Asset 9</title><path d="M73.33,0A3.33,3.33,0,0,0,70,3.33a3.27,3.27,0,0,0,.31,1.36L57,23.33h-.31a3.43,3.43,0,0,0-1.83.52L43.33,18.12a3.33,3.33,0,0,0-6.66.21,3,3,0,0,0,0,.52L24.53,28.54a3.36,3.36,0,0,0-1.2-.21,3.32,3.32,0,0,0-3.28,2.82L8.7,35.73A3.32,3.32,0,1,0,10,38.8L21.3,34.27a3.3,3.3,0,0,0,5.37-2.6,3,3,0,0,0-.06-.52L38.8,21.46a3.48,3.48,0,0,0,3-.31l11.51,5.73A3.34,3.34,0,0,0,60,26.67a3.27,3.27,0,0,0-.31-1.36L73,6.67h.31a3.34,3.34,0,1,0,0-6.67ZM66.67,21.67V80H80V21.67ZM70,25h6.67V76.67H70ZM33.33,36.67V80H46.67V36.67ZM36.67,40h6.66V76.67H36.67ZM50,45V80H63.33V45Zm3.33,3.33H60V76.67H53.33ZM16.67,50V80H30V50ZM20,53.33h6.67V76.67H20ZM0,56.67V80H13.33V56.67ZM3.33,60H10V76.67H3.33Z" fill="#00acc1"/></svg>