<?xml version="1.0" encoding="UTF-8"?>
<svg xmlns="http://www.w3.org/2000/svg" xmlns:xlink="http://www.w3.org/1999/xlink" width="100pt" height="100pt" viewBox="0 0 100 100" version="1.1">
<g id="surface1">
<path style=" stroke:none;fill-rule:nonzero;fill:#00ACC1;fill-opacity:1;" d="M 5.6875 6 C 2.570313 6 0 8.570313 0 11.6875 L 0 21.625 C -0.0078125 21.710938 -0.0078125 21.789063 0 21.875 L 0 92 C 0 93.101563 0.898438 94 2 94 L 98 94 C 99.101563 94 100 93.101563 100 92 L 100 22 C 100 21.9375 100 21.875 100 21.8125 L 100 11.6875 C 100 8.570313 97.429688 6 94.3125 6 Z M 5.6875 10 L 94.3125 10 C 95.273438 10 96 10.726563 96 11.6875 L 96 20 L 4 20 L 4 11.6875 C 4 10.726563 4.726563 10 5.6875 10 Z M 4 24 L 96 24 L 96 90 L 4 90 Z M 29.8125 39.875 C 29.054688 39.992188 28.429688 40.53125 28.203125 41.257813 C 27.976563 41.992188 28.1875 42.789063 28.75 43.3125 L 39.1875 54.0625 L 28.4375 64.5 C 27.640625 65.273438 27.632813 66.546875 28.40625 67.34375 C 29.179688 68.140625 30.453125 68.148438 31.25 67.375 L 43.375 55.5 L 44.8125 54.125 L 43.4375 52.6875 L 31.5625 40.5 C 31.203125 40.117188 30.710938 39.898438 30.1875 39.875 C 30.0625 39.859375 29.9375 39.859375 29.8125 39.875 Z M 45.625 64 C 44.523438 64.101563 43.710938 65.085938 43.8125 66.1875 C 43.914063 67.289063 44.898438 68.101563 46 68 L 72 68 C 72.71875 68.007813 73.390625 67.632813 73.757813 67.007813 C 74.117188 66.382813 74.117188 65.617188 73.757813 64.992188 C 73.390625 64.367188 72.71875 63.992188 72 64 L 46 64 C 45.9375 64 45.875 64 45.8125 64 C 45.75 64 45.6875 64 45.625 64 Z "/>
</g>
</svg>
