<svg xmlns="http://www.w3.org/2000/svg" width="80" height="63.17" viewBox="0 0 80 63.17"><title>Asset 8</title><path d="M46.4,0A20.91,20.91,0,0,0,27.6,12.05,11.05,11.05,0,0,0,21.35,9.9a11.13,11.13,0,0,0-11,10.6,15.35,15.35,0,0,0,5.15,29.85H28.8a1.61,1.61,0,0,0,1.41-.79,1.67,1.67,0,0,0,0-1.62,1.61,1.61,0,0,0-1.41-.79H15.45a12.27,12.27,0,0,1-3.25-24.1,1.6,1.6,0,0,0,1.15-1.6,3.26,3.26,0,0,1,0-.35,8,8,0,0,1,13.7-5.65,1.6,1.6,0,0,0,2.6-.55,17.85,17.85,0,0,1,34.6,6.15,18.34,18.34,0,0,1-.15,2.2,1.61,1.61,0,0,0,1.55,1.8h.1a11,11,0,0,1,0,22.1H51.2a1.61,1.61,0,0,0-1.41.79,1.67,1.67,0,0,0,0,1.62,1.61,1.61,0,0,0,1.41.79H65.75A14.28,14.28,0,0,0,80,36.1,14.11,14.11,0,0,0,67.35,22.2c0-.39.1-.75.1-1.15A21.08,21.08,0,0,0,46.4,0ZM40,27.3l-1.15,1.1-8,8a1.63,1.63,0,0,0,2.3,2.3l5.25-5.25v28.1A1.62,1.62,0,0,0,39.19,63a1.67,1.67,0,0,0,1.62,0,1.62,1.62,0,0,0,.79-1.41V33.45l5.25,5.25a1.63,1.63,0,0,0,2.3-2.3l-8-8Z" fill="#00acc1"/></svg>