<svg xmlns="http://www.w3.org/2000/svg" width="80" height="80.04" viewBox="0 0 80 80.04"><title>Asset 4</title><path d="M39.85,0C28.32,0,20.54,3.51,15.62,9.09S8.83,21.78,8,29.22L.61,41.92l0,0a4.79,4.79,0,0,0,1.82,6.46l.07,0L8,51.21,9.8,63.52v0A11.54,11.54,0,0,0,13.25,70,9.25,9.25,0,0,0,20,72.74h5.45V80H27a1.94,1.94,0,0,0,.59,0h1.53v-9.1a1.82,1.82,0,0,0-1.82-1.81H19.84a5.76,5.76,0,0,1-4.08-1.77A8.2,8.2,0,0,1,13.39,63L11.48,49.76a1.8,1.8,0,0,0-1-1.37L4.19,45.24a1,1,0,0,1-.41-1.52l7.48-12.9a1.84,1.84,0,0,0,.23-.72c.78-7.23,2.69-13.85,6.86-18.61S29,3.64,39.85,3.64c1.25,0,2.44.06,3.62.17a1.85,1.85,0,0,0,1.67-.76,1.8,1.8,0,0,0,.16-1.83,1.82,1.82,0,0,0-1.51-1C42.53.07,41.22,0,39.85,0Zm22,0A18.13,18.13,0,0,0,43.63,18a16.66,16.66,0,0,0,5.06,12.26c1.21,1.24,2.34,2.21,3.05,3a3,3,0,0,1,1,2.06V47a4.11,4.11,0,0,0,4,3.95,5.42,5.42,0,0,0,10.25,0,4.11,4.11,0,0,0,4-3.95V35.38a3.83,3.83,0,0,1,1-2.67,41.46,41.46,0,0,1,3-2.95A15.37,15.37,0,0,0,80,18,18.14,18.14,0,0,0,61.81,0Zm0,3.64A14.44,14.44,0,0,1,76.36,18a11,11,0,0,1-4,9.13,35.14,35.14,0,0,0-3.28,3.29,7.85,7.85,0,0,0-1.82,4.94V40H63.63V24.39l4.93-4.92A1.82,1.82,0,1,0,66,16.9l-4.17,4.17L57.64,16.9a1.78,1.78,0,0,0-1.3-.55,1.81,1.81,0,0,0-1.27,3.12L60,24.39V40H56.36V35.38a6.87,6.87,0,0,0-1.86-4.44c-1-1.15-2.14-2.11-3.21-3.2a12.37,12.37,0,0,1-4-9.72A14.42,14.42,0,0,1,61.81,3.64Zm-5.45,40H67.27V47c0,.28-.06.33-.52.33H56.88c-.46,0-.52-.05-.52-.33Zm5.06,14.52a1.84,1.84,0,0,0-1.76,1.27,28.39,28.39,0,0,0-1.48,8.93V80h1.51a1.94,1.94,0,0,0,.59,0h1.53V68.37a24.7,24.7,0,0,1,1.3-7.78,1.81,1.81,0,0,0-1.69-2.42Z" fill="#00acc1"/></svg>