<svg id="Layer_1" data-name="Layer 1" xmlns="http://www.w3.org/2000/svg" viewBox="0 0 38.01 44"><defs><style>.cls-1{fill:#fff;}</style></defs><title>icons8-push_notifications</title><g id="surface1"><path class="cls-1" d="M12,3A3,3,0,0,0,9,6V8.83a.91.91,0,0,0,0,.33V39.83a.91.91,0,0,0,0,.33V44a3,3,0,0,0,3,3H32a3,3,0,0,0,3-3V40.17a.92.92,0,0,0,0-.33V32h9a3,3,0,0,0,3-3V17.1A3.11,3.11,0,0,0,43.91,14H35V9.17a.91.91,0,0,0,0-.33V6a3,3,0,0,0-3-3Zm0,2H32a1,1,0,0,1,1,1V8H11V6A1,1,0,0,1,12,5Zm-1,5H33v4H25.09A3.11,3.11,0,0,0,22,17.1V29a3,3,0,0,0,3,3h1.87a5.11,5.11,0,0,1-.14,1,2.29,2.29,0,0,1-1.11,1.14A1,1,0,0,0,26.14,36a7,7,0,0,0,6.42-4H33v7H11Zm14.09,6h8.74a.91.91,0,0,0,.33,0h9.75A1.09,1.09,0,0,1,45,17.1V29a.89.89,0,0,1-1,1H32a1,1,0,0,0-.94.66,4.6,4.6,0,0,1-2.43,2.77A7.47,7.47,0,0,0,29,31a1,1,0,0,0-1-1H25a.89.89,0,0,1-1-1V17.1A1.09,1.09,0,0,1,25.09,16ZM35,18a1,1,0,0,0-1,1,.55.55,0,0,0,0,.18A3,3,0,0,0,32,22v3a1,1,0,0,1-1,1v1h3a1,1,0,0,0,2,0h3V26a1,1,0,0,1-1-1V22a3,3,0,0,0-2-2.82A1.1,1.1,0,0,0,36,19,1,1,0,0,0,35,18ZM11,41H33v3a1,1,0,0,1-1,1H12a1,1,0,0,1-1-1Zm8,1a1,1,0,1,0,0,2h6a1,1,0,1,0,0-2Z" transform="translate(-8.99 -3)"/></g></svg>