<?xml version="1.0" encoding="UTF-8"?>
<svg xmlns="http://www.w3.org/2000/svg" xmlns:xlink="http://www.w3.org/1999/xlink" viewBox="0 0 50 50" version="1.1" fill="#00ACC1"><g id="surface1" fill="#00ACC1"><path style=" " d="M 29 7.5 C 23.820313 7.5 19.375 10.59375 17.25 14.96875 C 16.113281 14.175781 14.820313 13.59375 13.3125 13.59375 C 9.589844 13.59375 6.566406 16.570313 6.375 20.25 C 2.710938 21.660156 0 25.113281 0 29.3125 C 0 34.652344 4.347656 39 9.6875 39 L 41.09375 39 C 46.023438 39 50 35.023438 50 30.09375 C 50 25.519531 46.523438 21.921875 42.09375 21.40625 L 42.09375 20.6875 C 42.09375 13.449219 36.246094 7.5 29 7.5 Z M 29 9.5 C 35.152344 9.5 40.09375 14.523438 40.09375 20.6875 L 40.09375 23.1875 L 41.09375 23.1875 C 44.964844 23.1875 48 26.222656 48 30.09375 C 48 33.964844 44.964844 37 41.09375 37 L 9.6875 37 C 5.429688 37 2 33.570313 2 29.3125 C 2 25.761719 4.394531 22.820313 7.59375 21.84375 L 8.3125 21.625 L 8.3125 20.59375 C 8.3125 17.839844 10.558594 15.59375 13.3125 15.59375 C 14.738281 15.59375 15.976563 16.164063 16.90625 17.09375 L 18 18.21875 L 18.53125 16.75 C 20.085938 12.542969 24.222656 9.5 29 9.5 Z M 28 17 C 24.675781 17 22 19.675781 22 23 C 22 25.15625 23.199219 27.054688 25 28.125 L 25 31 C 25 32.644531 26.355469 34 28 34 C 29.644531 34 31 32.644531 31 31 L 31 28.125 C 32.800781 27.054688 34 25.15625 34 23 C 34 19.675781 31.324219 17 28 17 Z M 28 19 C 30.277344 19 32 20.722656 32 23 C 32 24.601563 31.035156 26.046875 29.59375 26.6875 L 29 26.9375 L 29 31 C 29 31.554688 28.554688 32 28 32 C 27.445313 32 27 31.554688 27 31 L 27 26.9375 L 26.40625 26.6875 C 24.964844 26.046875 24 24.601563 24 23 C 24 20.722656 25.722656 19 28 19 Z " fill="#00ACC1"/></g></svg>
