<?xml version="1.0" encoding="UTF-8"?>
<svg xmlns="http://www.w3.org/2000/svg" xmlns:xlink="http://www.w3.org/1999/xlink" viewBox="0 0 50 50" version="1.1" fill="#00ACC1"><g id="surface1" fill="#00ACC1"><path style=" " d="M 12.46875 2 L 11.65625 2.40625 L 11.5 3.28125 L 12.125 3.9375 L 12.46875 4 L 13.46875 4 L 14.25 3.59375 L 14.40625 2.71875 L 13.8125 2.0625 L 13.46875 2 Z M 16.46875 2 L 15.65625 2.40625 L 15.5 3.28125 L 16.09375 3.9375 L 16.46875 4 L 17.46875 4 L 18.25 3.59375 L 18.40625 2.71875 L 17.8125 2.0625 L 17.46875 2 Z M 20.4375 2 L 19.65625 2.40625 L 19.5 3.28125 L 20.09375 3.9375 L 20.4375 4 L 21.4375 4 L 22.25 3.59375 L 22.40625 2.71875 L 21.78125 2.0625 L 21.4375 2 Z M 24.4375 2 L 23.65625 2.40625 L 23.46875 3.28125 L 24.09375 3.9375 L 24.4375 4 L 25.4375 4 L 26.25 3.59375 L 26.40625 2.71875 L 25.78125 2.0625 L 25.4375 2 Z M 28.4375 2 L 27.625 2.40625 L 27.46875 3.28125 L 28.09375 3.9375 L 28.4375 4 L 29.4375 4 L 30.25 3.59375 L 30.40625 2.71875 L 29.78125 2.0625 L 29.4375 2 Z M 32.4375 2 L 31.625 2.40625 L 31.46875 3.28125 L 32.09375 3.9375 L 32.4375 4 L 33.4375 4 L 34.21875 3.59375 L 34.375 2.71875 L 33.78125 2.0625 L 33.4375 2 Z M 36.4375 2 L 35.625 2.40625 L 35.46875 3.28125 L 36.0625 3.9375 L 36.4375 4 L 37.4375 4 L 38.21875 3.59375 L 38.375 2.71875 L 37.78125 2.0625 L 37.4375 2 Z M 9.53125 2.46875 L 9.1875 2.53125 L 8.4375 2.8125 L 8.375 2.8125 L 8.34375 2.84375 L 8.15625 2.9375 L 7.59375 3.65625 L 7.84375 4.5 L 8.6875 4.84375 L 9.03125 4.75 L 9.125 4.6875 L 9.21875 4.65625 L 9.875 4.40625 L 10.46875 3.75 L 10.3125 2.875 Z M 40.71875 2.5 L 39.8125 2.59375 L 39.375 3.375 L 39.71875 4.1875 L 40.03125 4.375 L 40.78125 4.65625 L 40.875 4.6875 L 41.78125 4.6875 L 42.28125 3.9375 L 42.03125 3.09375 L 41.75 2.875 L 41.65625 2.84375 L 41.625 2.8125 L 41.5625 2.8125 Z M 43.625 4.40625 L 42.90625 4.96875 L 42.9375 5.84375 L 43.15625 6.125 L 43.5 6.4375 L 43.5625 6.5 L 43.78125 6.78125 L 44.625 7.09375 L 45.375 6.625 L 45.46875 5.71875 L 45.28125 5.4375 L 44.96875 5.09375 L 44.90625 5.03125 L 44.5 4.65625 Z M 5.71875 4.5625 L 5.4375 4.71875 L 5.09375 5.03125 L 5.03125 5.09375 L 4.65625 5.5 L 4.40625 6.375 L 4.96875 7.09375 L 5.84375 7.0625 L 6.125 6.84375 L 6.4375 6.5 L 6.5 6.4375 L 6.78125 6.21875 L 7.09375 5.375 L 6.625 4.625 Z M 25 6 C 20.125 6 15.679688 7.851563 12.3125 10.875 L 8.71875 7.28125 C 8.476563 7.03125 8.121094 6.925781 7.78125 7 C 7.40625 7.066406 7.105469 7.339844 7 7.703125 C 6.894531 8.070313 7.003906 8.460938 7.28125 8.71875 L 10.875 12.3125 C 7.851563 15.679688 6 20.125 6 25 C 6 29.875 7.851563 34.320313 10.875 37.6875 L 7.28125 41.28125 C 6.882813 41.679688 6.882813 42.320313 7.28125 42.71875 C 7.679688 43.117188 8.320313 43.117188 8.71875 42.71875 L 12.3125 39.125 C 15.679688 42.148438 20.125 44 25 44 C 29.875 44 34.320313 42.148438 37.6875 39.125 L 41.28125 42.71875 C 41.679688 43.117188 42.320313 43.117188 42.71875 42.71875 C 43.117188 42.320313 43.117188 41.679688 42.71875 41.28125 L 39.125 37.6875 C 42.148438 34.320313 44 29.875 44 25 C 44 20.125 42.148438 15.679688 39.125 12.3125 L 42.71875 8.71875 C 43.042969 8.417969 43.128906 7.941406 42.933594 7.546875 C 42.742188 7.148438 42.308594 6.929688 41.875 7 C 41.652344 7.023438 41.441406 7.125 41.28125 7.28125 L 37.6875 10.875 C 34.320313 7.851563 29.875 6 25 6 Z M 46.34375 7.59375 L 45.5 7.84375 L 45.15625 8.6875 L 45.25 9.03125 L 45.3125 9.125 L 45.34375 9.21875 L 45.59375 9.875 L 46.25 10.46875 L 47.125 10.3125 L 47.53125 9.53125 L 47.46875 9.1875 L 47.1875 8.4375 L 47.1875 8.375 L 47.15625 8.34375 L 47.0625 8.15625 Z M 3.9375 7.71875 L 3.09375 7.96875 L 2.875 8.25 L 2.84375 8.34375 L 2.8125 8.375 L 2.8125 8.4375 L 2.5 9.28125 L 2.59375 10.1875 L 3.375 10.625 L 4.1875 10.28125 L 4.375 9.96875 L 4.65625 9.21875 L 4.6875 9.125 L 4.6875 8.21875 Z M 25 8 C 29.335938 8 33.28125 9.617188 36.28125 12.28125 L 31.3125 17.25 C 29.589844 15.839844 27.394531 15 25 15 C 22.605469 15 20.410156 15.839844 18.6875 17.25 L 13.71875 12.28125 C 16.71875 9.617188 20.664063 8 25 8 Z M 46.71875 11.5 L 46.0625 12.125 L 46 12.46875 L 46 13.46875 L 46.40625 14.25 L 47.28125 14.40625 L 47.9375 13.8125 L 48 13.46875 L 48 12.46875 L 47.59375 11.65625 Z M 2.71875 11.625 L 2.0625 12.21875 L 2 12.59375 L 2 13.5625 L 2.40625 14.375 L 3.28125 14.53125 L 3.9375 13.9375 L 4 13.5625 L 4 12.59375 L 3.59375 11.78125 Z M 12.28125 13.71875 L 17.25 18.6875 C 15.839844 20.410156 15 22.605469 15 25 C 15 27.394531 15.839844 29.589844 17.25 31.3125 L 12.28125 36.28125 C 9.617188 33.28125 8 29.335938 8 25 C 8 20.664063 9.617188 16.71875 12.28125 13.71875 Z M 37.71875 13.71875 C 40.382813 16.71875 42 20.664063 42 25 C 42 29.335938 40.382813 33.28125 37.71875 36.28125 L 32.75 31.3125 C 34.160156 29.589844 35 27.394531 35 25 C 35 22.605469 34.160156 20.410156 32.75 18.6875 Z M 46.71875 15.5 L 46.0625 16.125 L 46 16.46875 L 46 17.46875 L 46.40625 18.25 L 47.28125 18.40625 L 47.9375 17.8125 L 48 17.46875 L 48 16.46875 L 47.59375 15.65625 Z M 2.71875 15.625 L 2.0625 16.21875 L 2 16.5625 L 2 17.5625 L 2.40625 18.375 L 3.28125 18.53125 L 3.9375 17.90625 L 4 17.5625 L 4 16.5625 L 3.59375 15.78125 Z M 25 17 C 26.851563 17 28.554688 17.609375 29.90625 18.65625 L 25 23.5625 L 20.09375 18.65625 C 21.445313 17.609375 23.148438 17 25 17 Z M 46.71875 19.5 L 46.0625 20.09375 L 46 20.4375 L 46 21.4375 L 46.40625 22.25 L 47.28125 22.40625 L 47.9375 21.78125 L 48 21.4375 L 48 20.4375 L 47.59375 19.65625 Z M 2.71875 19.59375 L 2.0625 20.21875 L 2 20.5625 L 2 21.5625 L 2.40625 22.375 L 3.28125 22.53125 L 3.9375 21.90625 L 4 21.5625 L 4 20.5625 L 3.59375 19.75 Z M 18.65625 20.09375 L 23.5625 25 L 18.65625 29.90625 C 17.609375 28.554688 17 26.851563 17 25 C 17 23.148438 17.609375 21.445313 18.65625 20.09375 Z M 31.34375 20.09375 C 32.390625 21.445313 33 23.148438 33 25 C 33 26.851563 32.390625 28.554688 31.34375 29.90625 L 26.4375 25 Z M 46.71875 23.5 L 46.0625 24.09375 L 46 24.4375 L 46 25.4375 L 46.40625 26.25 L 47.28125 26.40625 L 47.9375 25.78125 L 48 25.4375 L 48 24.4375 L 47.59375 23.65625 Z M 2.71875 23.59375 L 2.0625 24.21875 L 2 24.5625 L 2 25.5625 L 2.40625 26.34375 L 3.28125 26.53125 L 3.9375 25.90625 L 4 25.5625 L 4 24.5625 L 3.59375 23.75 Z M 25 26.4375 L 29.90625 31.34375 C 28.554688 32.390625 26.851563 33 25 33 C 23.148438 33 21.445313 32.390625 20.09375 31.34375 Z M 46.71875 27.46875 L 46.0625 28.09375 L 46 28.4375 L 46 29.4375 L 46.40625 30.25 L 47.28125 30.40625 L 47.9375 29.78125 L 48 29.4375 L 48 28.4375 L 47.59375 27.625 Z M 2.71875 27.59375 L 2.0625 28.21875 L 2 28.5625 L 2 29.5625 L 2.40625 30.34375 L 3.28125 30.5 L 3.9375 29.90625 L 4 29.5625 L 4 28.5625 L 3.59375 27.75 Z M 46.71875 31.46875 L 46.0625 32.09375 L 46 32.4375 L 46 33.4375 L 46.40625 34.21875 L 47.28125 34.375 L 47.9375 33.78125 L 48 33.4375 L 48 32.4375 L 47.59375 31.625 Z M 2.71875 31.59375 L 2.0625 32.1875 L 2 32.53125 L 2 33.53125 L 2.40625 34.34375 L 3.28125 34.5 L 3.9375 33.90625 L 4 33.53125 L 4 32.53125 L 3.59375 31.75 Z M 18.6875 32.75 C 20.410156 34.160156 22.605469 35 25 35 C 27.394531 35 29.589844 34.160156 31.3125 32.75 L 36.28125 37.71875 C 33.28125 40.382813 29.335938 42 25 42 C 20.664063 42 16.71875 40.382813 13.71875 37.71875 Z M 46.71875 35.46875 L 46.0625 36.0625 L 46 36.4375 L 46 37.4375 L 46.40625 38.21875 L 47.28125 38.375 L 47.9375 37.78125 L 48 37.4375 L 48 36.4375 L 47.59375 35.625 Z M 2.71875 35.59375 L 2.0625 36.1875 L 2 36.53125 L 2 37.53125 L 2.40625 38.34375 L 3.28125 38.5 L 3.9375 37.875 L 4 37.53125 L 4 36.53125 L 3.59375 35.75 Z M 46.625 39.375 L 45.8125 39.71875 L 45.625 40.03125 L 45.34375 40.78125 L 45.3125 40.875 L 45.3125 41.78125 L 46.0625 42.28125 L 46.90625 42.03125 L 47.125 41.75 L 47.15625 41.65625 L 47.1875 41.625 L 47.1875 41.5625 L 47.5 40.71875 L 47.40625 39.84375 Z M 3.75 39.53125 L 2.875 39.6875 L 2.46875 40.46875 L 2.53125 40.8125 L 2.8125 41.5625 L 2.8125 41.625 L 2.84375 41.65625 L 2.9375 41.84375 L 3.65625 42.40625 L 4.5 42.15625 L 4.84375 41.3125 L 4.75 40.96875 L 4.6875 40.875 L 4.65625 40.78125 L 4.40625 40.125 Z M 5.375 42.90625 L 4.625 43.375 L 4.5625 44.28125 L 4.75 44.5625 L 5.03125 44.90625 L 5.09375 44.96875 L 5.5 45.34375 L 6.375 45.59375 L 7.09375 45.03125 L 7.0625 44.15625 L 6.84375 43.875 L 6.5 43.5625 L 6.4375 43.5 L 6.21875 43.21875 Z M 45.03125 42.90625 L 44.15625 42.9375 L 43.875 43.15625 L 43.5625 43.5 L 43.5 43.5625 L 43.21875 43.78125 L 42.90625 44.625 L 43.375 45.375 L 44.28125 45.46875 L 44.5625 45.28125 L 44.90625 44.96875 L 44.96875 44.90625 L 45.34375 44.5 L 45.59375 43.625 Z M 41.3125 45.15625 L 40.96875 45.25 L 40.875 45.3125 L 40.78125 45.34375 L 40.125 45.59375 L 39.53125 46.25 L 39.6875 47.125 L 40.46875 47.53125 L 40.8125 47.46875 L 41.5625 47.1875 L 41.625 47.1875 L 41.65625 47.15625 L 41.84375 47.0625 L 42.40625 46.34375 L 42.15625 45.5 Z M 9.125 45.3125 L 8.21875 45.34375 L 7.71875 46.0625 L 7.96875 46.90625 L 8.25 47.125 L 8.34375 47.15625 L 8.375 47.1875 L 8.4375 47.1875 L 9.28125 47.5 L 10.1875 47.40625 L 10.625 46.625 L 10.28125 45.8125 L 9.96875 45.625 L 9.21875 45.34375 Z M 12.59375 46 L 11.78125 46.40625 L 11.625 47.28125 L 12.21875 47.9375 L 12.59375 48 L 13.5625 48 L 14.375 47.59375 L 14.53125 46.71875 L 13.9375 46.0625 L 13.5625 46 Z M 16.5625 46 L 15.78125 46.40625 L 15.625 47.28125 L 16.21875 47.9375 L 16.5625 48 L 17.5625 48 L 18.375 47.59375 L 18.53125 46.71875 L 17.90625 46.0625 L 17.5625 46 Z M 20.5625 46 L 19.75 46.40625 L 19.59375 47.28125 L 20.21875 47.9375 L 20.5625 48 L 21.5625 48 L 22.375 47.59375 L 22.53125 46.71875 L 21.90625 46.0625 L 21.5625 46 Z M 24.5625 46 L 23.75 46.40625 L 23.59375 47.28125 L 24.21875 47.9375 L 24.5625 48 L 25.5625 48 L 26.34375 47.59375 L 26.53125 46.71875 L 25.90625 46.0625 L 25.5625 46 Z M 28.5625 46 L 27.75 46.40625 L 27.59375 47.28125 L 28.21875 47.9375 L 28.5625 48 L 29.5625 48 L 30.34375 47.59375 L 30.5 46.71875 L 29.90625 46.0625 L 29.5625 46 Z M 32.5625 46 L 31.75 46.40625 L 31.59375 47.28125 L 32.1875 47.9375 L 32.5625 48 L 33.53125 48 L 34.34375 47.59375 L 34.5 46.71875 L 33.90625 46.0625 L 33.53125 46 Z M 36.53125 46 L 35.75 46.40625 L 35.59375 47.28125 L 36.1875 47.9375 L 36.53125 48 L 37.53125 48 L 38.34375 47.59375 L 38.5 46.71875 L 37.875 46.0625 L 37.53125 46 Z " fill="#00ACC1"/></g></svg>
