<svg id="Layer_1" data-name="Layer 1" xmlns="http://www.w3.org/2000/svg" viewBox="0 0 48.03 48.03"><defs><style>.cls-1{fill:#fff;}</style></defs><title>icons8-electronics</title><path class="cls-1" d="M13,1a1,1,0,0,0-1,1V5h2V2a1,1,0,0,0-1-1Zm6,0a1,1,0,0,0-1,1V5h2V2a1,1,0,0,0-1-1Zm6,0a1,1,0,0,0-1,1V5h2V2a1,1,0,0,0-1-1Zm6,0a1,1,0,0,0-1,1V5h2V2a1,1,0,0,0-1-1Zm6,0a1,1,0,0,0-1,1V5h2V2a1,1,0,0,0-1-1ZM9,6A3,3,0,0,0,6,9V41a3,3,0,0,0,3,3H41a3,3,0,0,0,3-3V9a3,3,0,0,0-3-3ZM9,8H41a1,1,0,0,1,1,1V41a1,1,0,0,1-1,1H9a1,1,0,0,1-1-1V9A1,1,0,0,1,9,8ZM2,12a1,1,0,0,0,0,2H5V12H2Zm43,0v2h3a1,1,0,0,0,0-2H45ZM16,17a1,1,0,0,0-1,1V32a1,1,0,0,0,1,1H34a1,1,0,0,0,1-1V18a1,1,0,0,0-1-1ZM2,18a1,1,0,0,0,0,2H5V18H2Zm43,0v2h3a1,1,0,0,0,0-2H45ZM17,19H33V31H17ZM2,24a1,1,0,0,0,0,2H5V24H2Zm43,0v2h3a1,1,0,0,0,0-2H45ZM2,30a1,1,0,0,0,0,2H5V30H2Zm43,0v2h3a1,1,0,0,0,0-2H45ZM2,36a1,1,0,0,0,0,2H5V36H2Zm43,0v2h3a1,1,0,0,0,0-2H45ZM12,45v3a1,1,0,0,0,2,0V45Zm6,0v3a1,1,0,0,0,2,0V45Zm6,0v3a1,1,0,0,0,2,0V45Zm6,0v3a1,1,0,0,0,2,0V45Zm6,0v3a1,1,0,0,0,2,0V45Z" transform="translate(-0.99 -0.99)"/></svg>