<svg id="Layer_1" data-name="Layer 1" xmlns="http://www.w3.org/2000/svg" viewBox="0 0 50 32"><defs><style>.cls-1{fill:#fff;}</style></defs><title>icons8-cloud_checked</title><g id="surface1"><path class="cls-1" d="M29,9a12.91,12.91,0,0,0-11.81,7.88A6.8,6.8,0,0,0,14,16a7,7,0,0,0-6.75,5.47A10,10,0,0,0,10,41H41a9,9,0,0,0,9-9,8.92,8.92,0,0,0-8.09-8.81A11.48,11.48,0,0,0,42,22,13,13,0,0,0,29,9Zm0,2A11,11,0,0,1,40,22a10.32,10.32,0,0,1-.16,1.84,1,1,0,0,0,1,1.16H41a7,7,0,0,1,0,14H10A8,8,0,0,1,8.28,23.19a1,1,0,0,0,.78-.85A5,5,0,0,1,14,18a4.9,4.9,0,0,1,3,1,1,1,0,0,0,.91.16,1,1,0,0,0,.65-.66A11,11,0,0,1,29,11Zm4.25,9.31L23,31.53l-5.25-5.25-1.44,1.44,6,6,.75.72.72-.75,11-12Z" transform="translate(0 -9)"/></g></svg>