<?xml version="1.0" encoding="UTF-8"?>
<svg xmlns="http://www.w3.org/2000/svg" xmlns:xlink="http://www.w3.org/1999/xlink" viewBox="0 0 50 50" version="1.1" fill="#00ACC1"><g id="surface1" fill="#00ACC1"><path style=" " d="M 12.8125 5 C 12.261719 5.050781 11.855469 5.542969 11.90625 6.09375 C 11.957031 6.644531 12.449219 7.050781 13 7 L 37 7 C 37.359375 7.003906 37.695313 6.816406 37.878906 6.503906 C 38.058594 6.191406 38.058594 5.808594 37.878906 5.496094 C 37.695313 5.183594 37.359375 4.996094 37 5 L 13 5 C 12.96875 5 12.9375 5 12.90625 5 C 12.875 5 12.84375 5 12.8125 5 Z M 7.8125 9 C 7.261719 9.050781 6.855469 9.542969 6.90625 10.09375 C 6.957031 10.644531 7.449219 11.050781 8 11 L 42 11 C 42.359375 11.003906 42.695313 10.816406 42.878906 10.503906 C 43.058594 10.191406 43.058594 9.808594 42.878906 9.496094 C 42.695313 9.183594 42.359375 8.996094 42 9 L 8 9 C 7.96875 9 7.9375 9 7.90625 9 C 7.875 9 7.84375 9 7.8125 9 Z M 2.8125 13 C 2.335938 13.089844 1.992188 13.511719 2 14 L 2 44 C 2 44.550781 2.449219 45 3 45 L 47 45 C 47.550781 45 48 44.550781 48 44 L 48 14 C 48 13.449219 47.550781 13 47 13 L 3 13 C 2.96875 13 2.9375 13 2.90625 13 C 2.875 13 2.84375 13 2.8125 13 Z M 4 15 L 46 15 L 46 43 L 4 43 Z M 20.1875 23 L 20.1875 35 L 30.8125 29 Z " fill="#00ACC1"/></g></svg>
