<svg xmlns="http://www.w3.org/2000/svg" width="84.73" height="80" viewBox="0 0 84.73 80"><defs><style>.cb6f92ed-1182-4daf-af16-c30d103b7992{fill:#00acc1;}</style></defs><title>Asset 2</title><g id="ccc01910-2cd1-418e-b6bf-99c3d96afe41" data-name="Layer 2"><g id="b38229f8-c321-4a90-8621-1c7c79964bd5" data-name="News Home"><g id="c9c1c5d8-8abb-45ae-8b05-fdce17d8ee6f" data-name="Body"><path id="d931bf3f-1afa-4fb4-a6ba-530745848c82" data-name="surface1" class="cb6f92ed-1182-4daf-af16-c30d103b7992" d="M1.38,0A1.77,1.77,0,0,0,0,1.77V64.6c0,7.47,3.89,11.69,7.7,13.58A18.08,18.08,0,0,0,15.29,80H69.43v-.17c.84.1,1.76.17,1.76.17A14.8,14.8,0,0,0,78,78.07c3.3-1.89,6.56-5.91,6.72-12.87a.37.37,0,0,0,0-.11V65a1.22,1.22,0,0,0,0-.27V20.48a10,10,0,0,0-1-4.19,8.24,8.24,0,0,0-7.49-4.4v-.05H59.52v3.52h9.8a7.06,7.06,0,0,0-.55.88,10.39,10.39,0,0,0-1.1,4.18V63.11a1.78,1.78,0,0,0,.87,1.55,1.77,1.77,0,0,0,2.65-1.55V20.42a7.08,7.08,0,0,1,.71-2.59c.66-1.28,1.59-2.42,4.29-2.42s3.63,1.17,4.29,2.48a7.63,7.63,0,0,1,.77,2.64h0V64.71c0,6.26-2.5,8.9-5,10.34a11,11,0,0,1-5,1.43,15.1,15.1,0,0,1-5.94-1.54c-3-1.5-5.84-4.13-5.84-10.34V1.77A1.76,1.76,0,0,0,57.65,0H1.38ZM3.52,3.53H55.89V64.6c0,5.79,2.46,9.57,5.34,11.88h-46a12,12,0,0,1-1.87-.17,14.1,14.1,0,0,1-1.87-.44,13.19,13.19,0,0,1-2.2-.82c-.37-.19-.74-.38-1.1-.61-2.52-1.58-4.68-4.31-4.68-9.84Zm7,11a1.78,1.78,0,0,0,.5,3.52H45.77a1.76,1.76,0,1,0,0-3.52H10.56Zm0,7a1.78,1.78,0,1,0,.5,3.52H45.77a1.76,1.76,0,1,0,0-3.52H10.56Zm.83,14.08a1.78,1.78,0,0,0,.49,3.52H23.82a1.77,1.77,0,0,0,1.55-.87,1.77,1.77,0,0,0-1.55-2.65H11.39Zm20.3,0a1.78,1.78,0,0,0,.49,3.52H45.77a1.76,1.76,0,0,0,1.55-2.64,1.8,1.8,0,0,0-1.55-.88H31.69Zm-20.3,7a1.78,1.78,0,0,0,.49,3.52H23.82a1.77,1.77,0,0,0,1.55-2.65,1.77,1.77,0,0,0-1.55-.87H11.39Zm20.3,0a1.78,1.78,0,0,0,.49,3.52H45.77a1.8,1.8,0,0,0,1.55-.88,1.76,1.76,0,0,0-1.55-2.64H31.69Zm0,6.65a1.78,1.78,0,0,0,.49,3.52H45.77a1.76,1.76,0,0,0,1.55-2.64,1.8,1.8,0,0,0-1.55-.88H31.69Zm-20.3.39a1.78,1.78,0,0,0,.49,3.52H23.82a1.77,1.77,0,0,0,1.55-2.65,1.77,1.77,0,0,0-1.55-.87H11.39Zm20.3,6.65a1.78,1.78,0,0,0,.49,3.52H45.77a1.76,1.76,0,0,0,1.55-2.64,1.8,1.8,0,0,0-1.55-.88H32.18a1.82,1.82,0,0,0-.33,0Zm-20.3.39a1.78,1.78,0,0,0,.49,3.52H23.82a1.77,1.77,0,0,0,1.55-.87,1.82,1.82,0,0,0,0-1.78,1.77,1.77,0,0,0-1.55-.87H11.39ZM31.69,63a1.78,1.78,0,0,0,.49,3.52H45.77a1.8,1.8,0,0,0,1.55-.88A1.76,1.76,0,0,0,45.77,63H31.69Zm-20.3.82a1.78,1.78,0,0,0,.49,3.52H23.82a1.77,1.77,0,0,0,1.55-.87,1.82,1.82,0,0,0,0-1.78,1.77,1.77,0,0,0-1.55-.87H11.39Z"/></g></g></g></svg>