<svg xmlns="http://www.w3.org/2000/svg" width="64" height="80" viewBox="0 0 64 80"><defs><style>.\39 2cb6db2-2b1d-4e17-9b8c-ca31fa02f9bf{fill:#00acc1;}</style></defs><title>Asset 1</title><g id="980b9823-a8a1-4e32-81bc-ce9022a5ba22" data-name="Layer 2"><g id="26b45682-f846-4b9f-8a9d-316053ab8ed3" data-name="News Home"><g id="e201fc10-ba20-4a71-9603-177148c96f25" data-name="Body"><path id="1ca62ea6-6866-47ff-97db-b843f3e7b41e" data-name="surface1" class="92cb6db2-2b1d-4e17-9b8c-ca31fa02f9bf" d="M-552.2-240a1.64,1.64,0,0,0-1,.6,29,29,0,0,0-6.75,18.6,28.78,28.78,0,0,0,6.6,18.4,1.62,1.62,0,0,0,2.28.23,1.63,1.63,0,0,0,.22-2.28,25.56,25.56,0,0,1-5.9-16.35,25.69,25.69,0,0,1,6-16.55,1.61,1.61,0,0,0,.22-1.81A1.61,1.61,0,0,0-552.2-240Zm47.9,0a1.61,1.61,0,0,0-1.23,1.07,1.58,1.58,0,0,0,.33,1.58,25.69,25.69,0,0,1,6,16.55,25.5,25.5,0,0,1-5.9,16.35,1.62,1.62,0,0,0,.23,2.28,1.61,1.61,0,0,0,2.27-.23,28.78,28.78,0,0,0,6.6-18.4,29,29,0,0,0-6.75-18.6,1.61,1.61,0,0,0-1.4-.6Zm-38.6,5.25a1.64,1.64,0,0,0-1.05.6,20.79,20.79,0,0,0-4.85,13.35,20.75,20.75,0,0,0,4.85,13.35,1.61,1.61,0,0,0,1.53.64,1.61,1.61,0,0,0,1.27-1.07,1.61,1.61,0,0,0-.35-1.62,17.51,17.51,0,0,1-4.1-11.3,17.57,17.57,0,0,1,4.1-11.3,1.61,1.61,0,0,0,.22-1.81A1.61,1.61,0,0,0-542.9-234.74Zm29.3,0a1.61,1.61,0,0,0-1.23,1.07,1.58,1.58,0,0,0,.33,1.58,17.57,17.57,0,0,1,4.1,11.3,17.51,17.51,0,0,1-4.1,11.3,1.61,1.61,0,0,0-.35,1.62,1.61,1.61,0,0,0,1.27,1.07,1.61,1.61,0,0,0,1.53-.64,20.7,20.7,0,0,0,4.85-13.35A20.74,20.74,0,0,0-512-234.14a1.61,1.61,0,0,0-1.4-.6Zm-14.4,9.05a4.8,4.8,0,0,0-4.8,4.8,4.76,4.76,0,0,0,1.7,3.65l-20.8,55a1.58,1.58,0,0,0,.23,1.64,1.59,1.59,0,0,0,1.55.57,1.59,1.59,0,0,0,1.22-1.11l3.45-9.1,31.65-8.55,6.7,17.65a1.6,1.6,0,0,0,1.23,1.11,1.61,1.61,0,0,0,1.55-.57,1.6,1.6,0,0,0,.22-1.64l-20.8-55a4.76,4.76,0,0,0,1.7-3.65A4.8,4.8,0,0,0-528-225.69Zm-.1,9.6h.2l6.9,18.25L-537.2-192Zm8.25,21.3,4.6,12-19.45-6.75Zm-19,7.2,19.8,6.9-25,6.8Z" transform="translate(560 240)"/></g></g></g></svg>