<svg id="9f6d0296-42bd-4e0b-9fe7-64bd55ce3bcc" data-name="Layer 1" xmlns="http://www.w3.org/2000/svg" width="0.45in" height="0.44in" viewBox="0 0 32.06 32"><defs><style>.ce316e96-62eb-4bc3-b9cb-c9c7f1b60409{fill:#00acc1;}.e011cbb6-d365-48b3-89fe-b2deaf27c0b6{fill:#616161;}</style></defs><title>services</title><path class="ce316e96-62eb-4bc3-b9cb-c9c7f1b60409" d="M13.91.57l-.38,2.1a6.49,6.49,0,0,0-.95.38L10.86,1.81a.7.7,0,0,0-.9.07L8.46,3.35a.71.71,0,0,0-.08.9L9.59,6a7.19,7.19,0,0,0-.4,1L7.1,7.29A.69.69,0,0,0,6.51,8v2.1a.67.67,0,0,0,.57.69l2.1.38a5.27,5.27,0,0,0,.39.95l-1.26,1.7a.7.7,0,0,0,.07.9l1.47,1.49a.7.7,0,0,0,.89.08l1.78-1.22a5.48,5.48,0,0,0,.94.39l.36,2.12a.71.71,0,0,0,.69.59H16.6a.7.7,0,0,0,.69-.58l.36-2.12a6.26,6.26,0,0,0,.93-.38l1.76,1.25a.7.7,0,0,0,.89-.08l1.5-1.47a.7.7,0,0,0,.08-.9l-1.25-1.75a6.36,6.36,0,0,0,.4-.93l2.12-.36a.72.72,0,0,0,.59-.69V8.08a.71.71,0,0,0-.58-.7L22,7a8.63,8.63,0,0,0-.39-1l1.24-1.75a.69.69,0,0,0-.07-.89L21.3,2a.69.69,0,0,0-.9-.08L18.66,3.1a6.36,6.36,0,0,0-.93-.4L17.39.6A.71.71,0,0,0,16.7,0H14.6A.71.71,0,0,0,13.91.57Zm1.28.84h.91l.31,1.89a.69.69,0,0,0,.54.57,5.26,5.26,0,0,1,1.42.61.71.71,0,0,0,.79,0l1.56-1.1.64.65L20.24,5.58a.7.7,0,0,0,0,.76,5.35,5.35,0,0,1,.6,1.49.67.67,0,0,0,.56.51l1.9.32v.92l-1.91.32a.72.72,0,0,0-.57.55,5.26,5.26,0,0,1-.61,1.42.72.72,0,0,0,0,.77l1.12,1.58-.65.64L19.1,13.74a.71.71,0,0,0-.79,0,5.51,5.51,0,0,1-1.42.58.72.72,0,0,0-.55.57L16,16.77h-.9l-.32-1.91a.72.72,0,0,0-.55-.56,5.69,5.69,0,0,1-1.42-.59.69.69,0,0,0-.78,0L10.44,14.8l-.64-.65,1.12-1.55a.71.71,0,0,0,0-.79,5.75,5.75,0,0,1-.59-1.43.7.7,0,0,0-.56-.55L7.91,9.49V8.57l1.88-.3a.73.73,0,0,0,.58-.55A5.31,5.31,0,0,1,11,6.3a.75.75,0,0,0,0-.79L9.88,3.94l.65-.64,1.54,1.11a.77.77,0,0,0,.8,0,4.94,4.94,0,0,1,1.43-.58.71.71,0,0,0,.54-.56Zm.69,4.3a3.52,3.52,0,1,0,2.47,1A3.47,3.47,0,0,0,15.88,5.71Zm0,1.39a2.07,2.07,0,0,1,1.48.63,2.1,2.1,0,1,1-3,0A2.16,2.16,0,0,1,15.88,7.1ZM8.67,18.36a8.24,8.24,0,0,0-3.56.77V19C3.38,19.63.4,21,.4,21a.69.69,0,0,0-.38.9.47.47,0,0,0,.05.1.7.7,0,0,0,.93.3s3-1.41,4.62-2a6.28,6.28,0,0,1,3.06-.7c3.58,0,3.44,1.56,5,2.45h0a13.6,13.6,0,0,0,5.53,1,2.35,2.35,0,0,1,1.42.35.79.79,0,0,1,.33.69.76.76,0,0,1-.34.72,2.42,2.42,0,0,1-1.41.33H15.54a22.78,22.78,0,0,1-4.18-.68.72.72,0,0,0-.68.19.67.67,0,0,0-.18.67.74.74,0,0,0,.5.5,21.81,21.81,0,0,0,4.54.72h3.64A4.2,4.2,0,0,0,21,26.18a.66.66,0,0,0,.19-.09l6.61-4.24a4.51,4.51,0,0,1,2.07-.72.74.74,0,0,1,.65.28.42.42,0,0,1,.07.57,3.16,3.16,0,0,1-1.07,1.08h0c-.76.51-9.22,5.91-10.2,6.46a9.59,9.59,0,0,1-2,1,3.82,3.82,0,0,1-2.75-.42c-.87-.41-4.57-2.27-5.77-2.86A3.66,3.66,0,0,0,7,26.77a3.49,3.49,0,0,0-1.59.59h0l-1.7,1.09a.69.69,0,0,0-.33.61.64.64,0,0,0,.38.58.68.68,0,0,0,.7,0l1.72-1.08a2.07,2.07,0,0,1,.93-.38,2.19,2.19,0,0,1,1.11.34C9.4,29.07,13,30.89,14,31.34a5.37,5.37,0,0,0,3.73.52A9.18,9.18,0,0,0,20,30.7c1.35-.75,9.34-5.86,10.31-6.53a4.1,4.1,0,0,0,1.55-1.65,1.91,1.91,0,0,0-.25-1.95h0a2.25,2.25,0,0,0-1.73-.8,4.13,4.13,0,0,0-1.47.28A2.2,2.2,0,0,0,28,19.6a3.3,3.3,0,0,0-1.94-.6,2.82,2.82,0,0,0-1.11.22,3.27,3.27,0,0,0-2.24-.89,4.63,4.63,0,0,0-2.27.62l-.8.49-1.56.95L16.3,21.51a9.82,9.82,0,0,1-2-.6C13.74,20.57,12.68,18.36,8.67,18.36Zm13.9,1.31a1.92,1.92,0,0,1,1,.24l-3.23,2A4.68,4.68,0,0,0,19,21.75h-.63l.27-.17,1.56-1,.77-.47A3.58,3.58,0,0,1,22.57,19.67Zm3.36.68a1.81,1.81,0,0,1,1.06.27h0l-4.83,3.17a2.16,2.16,0,0,0-.48-1.08L25,20.64h0A2.8,2.8,0,0,1,25.93,20.35Z"/><path class="e011cbb6-d365-48b3-89fe-b2deaf27c0b6" d="M13.91.57l-.38,2.1a6.49,6.49,0,0,0-.95.38L10.86,1.81a.7.7,0,0,0-.9.07L8.46,3.35a.71.71,0,0,0-.08.9L9.59,6a7.19,7.19,0,0,0-.4,1L7.1,7.29A.69.69,0,0,0,6.51,8v2.1a.67.67,0,0,0,.57.69l2.1.38a5.27,5.27,0,0,0,.39.95l-1.26,1.7a.7.7,0,0,0,.07.9l1.47,1.49a.7.7,0,0,0,.89.08l1.78-1.22a5.48,5.48,0,0,0,.94.39l.36,2.12a.71.71,0,0,0,.69.59H16.6a.7.7,0,0,0,.69-.58l.36-2.12a6.26,6.26,0,0,0,.93-.38l1.76,1.25a.7.7,0,0,0,.89-.08l1.5-1.47a.7.7,0,0,0,.08-.9l-1.25-1.75a6.36,6.36,0,0,0,.4-.93l2.12-.36a.72.72,0,0,0,.59-.69V8.08a.71.71,0,0,0-.58-.7L22,7a8.63,8.63,0,0,0-.39-1l1.24-1.75a.69.69,0,0,0-.07-.89L21.3,2a.69.69,0,0,0-.9-.08L18.66,3.1a6.36,6.36,0,0,0-.93-.4L17.39.6A.71.71,0,0,0,16.7,0H14.6A.71.71,0,0,0,13.91.57Zm1.28.84h.91l.31,1.89a.69.69,0,0,0,.54.57,5.26,5.26,0,0,1,1.42.61.71.71,0,0,0,.79,0l1.56-1.1.64.65L20.24,5.58a.7.7,0,0,0,0,.76,5.35,5.35,0,0,1,.6,1.49.67.67,0,0,0,.56.51l1.9.32v.92l-1.91.32a.72.72,0,0,0-.57.55,5.26,5.26,0,0,1-.61,1.42.72.72,0,0,0,0,.77l1.12,1.58-.65.64L19.1,13.74a.71.71,0,0,0-.79,0,5.51,5.51,0,0,1-1.42.58.72.72,0,0,0-.55.57L16,16.77h-.9l-.32-1.91a.72.72,0,0,0-.55-.56,5.69,5.69,0,0,1-1.42-.59.69.69,0,0,0-.78,0L10.44,14.8l-.64-.65,1.12-1.55a.71.71,0,0,0,0-.79,5.75,5.75,0,0,1-.59-1.43.7.7,0,0,0-.56-.55L7.91,9.49V8.57l1.88-.3a.73.73,0,0,0,.58-.55A5.31,5.31,0,0,1,11,6.3a.75.75,0,0,0,0-.79L9.88,3.94l.65-.64,1.54,1.11a.77.77,0,0,0,.8,0,4.94,4.94,0,0,1,1.43-.58.71.71,0,0,0,.54-.56Zm.69,4.3a3.52,3.52,0,1,0,2.47,1A3.47,3.47,0,0,0,15.88,5.71Zm0,1.39a2.07,2.07,0,0,1,1.48.63,2.1,2.1,0,1,1-3,0A2.16,2.16,0,0,1,15.88,7.1ZM8.67,18.36a8.24,8.24,0,0,0-3.56.77V19C3.38,19.63.4,21,.4,21a.69.69,0,0,0-.38.9.47.47,0,0,0,.05.1.7.7,0,0,0,.93.3s3-1.41,4.62-2a6.28,6.28,0,0,1,3.06-.7c3.58,0,3.44,1.56,5,2.45h0a13.6,13.6,0,0,0,5.53,1,2.35,2.35,0,0,1,1.42.35.79.79,0,0,1,.33.69.76.76,0,0,1-.34.72,2.42,2.42,0,0,1-1.41.33H15.54a22.78,22.78,0,0,1-4.18-.68.72.72,0,0,0-.68.19.67.67,0,0,0-.18.67.74.74,0,0,0,.5.5,21.81,21.81,0,0,0,4.54.72h3.64A4.2,4.2,0,0,0,21,26.18a.66.66,0,0,0,.19-.09l6.61-4.24a4.51,4.51,0,0,1,2.07-.72.74.74,0,0,1,.65.28.42.42,0,0,1,.07.57,3.16,3.16,0,0,1-1.07,1.08h0c-.76.51-9.22,5.91-10.2,6.46a9.59,9.59,0,0,1-2,1,3.82,3.82,0,0,1-2.75-.42c-.87-.41-4.57-2.27-5.77-2.86A3.66,3.66,0,0,0,7,26.77a3.49,3.49,0,0,0-1.59.59h0l-1.7,1.09a.69.69,0,0,0-.33.61.64.64,0,0,0,.38.58.68.68,0,0,0,.7,0l1.72-1.08a2.07,2.07,0,0,1,.93-.38,2.19,2.19,0,0,1,1.11.34C9.4,29.07,13,30.89,14,31.34a5.37,5.37,0,0,0,3.73.52A9.18,9.18,0,0,0,20,30.7c1.35-.75,9.34-5.86,10.31-6.53a4.1,4.1,0,0,0,1.55-1.65,1.91,1.91,0,0,0-.25-1.95h0a2.25,2.25,0,0,0-1.73-.8,4.13,4.13,0,0,0-1.47.28A2.2,2.2,0,0,0,28,19.6a3.3,3.3,0,0,0-1.94-.6,2.82,2.82,0,0,0-1.11.22,3.27,3.27,0,0,0-2.24-.89,4.63,4.63,0,0,0-2.27.62l-.8.49-1.56.95L16.3,21.51a9.82,9.82,0,0,1-2-.6C13.74,20.57,12.68,18.36,8.67,18.36Zm13.9,1.31a1.92,1.92,0,0,1,1,.24l-3.23,2A4.68,4.68,0,0,0,19,21.75h-.63l.27-.17,1.56-1,.77-.47A3.58,3.58,0,0,1,22.57,19.67Zm3.36.68a1.81,1.81,0,0,1,1.06.27h0l-4.83,3.17a2.16,2.16,0,0,0-.48-1.08L25,20.64h0A2.8,2.8,0,0,1,25.93,20.35Z"/></svg>