<svg xmlns="http://www.w3.org/2000/svg" width="170" style="padding-bottom:0" xmlns:xlink="http://www.w3.org/1999/xlink" viewBox="0 0 50 50" version="1.1" fill="#00ACC1">
                        <g id="surface1" fill="#00ACC1">
                            <path style=" " d="M 0 0 L 0 14 L 14 14 L 14 0 Z M 27 0 L 27 14 L 41 14 L 41 0 Z M 2 2 L 12 2 L 12 8.40625 L 10.40625 6.90625 L 9.90625 6.4375 L 9.28125 6.75 L 7.8125 7.5 L 5.59375 4.8125 L 4.9375 4.03125 L 4.15625 4.6875 L 2 6.53125 Z M 29 2 L 39 2 L 39 12 L 29 12 Z M 10 3 C 9.449219 3 9 3.449219 9 4 C 9 4.550781 9.449219 5 10 5 C 10.550781 5 11 4.550781 11 4 C 11 3.449219 10.550781 3 10 3 Z M 34.9375 3.84375 C 34.28125 3.941406 33.65625 4.53125 33.65625 4.53125 C 33.65625 4.53125 33.578125 4.5 33.46875 4.4375 C 33.101563 4.226563 32.242188 3.804688 31.65625 4.375 C 30.898438 5.109375 31.59375 6.40625 31.59375 6.40625 C 31.59375 6.40625 30.496094 7.308594 30.84375 8.25 C 30.929688 8.476563 31.0625 8.644531 31.25 8.75 C 31.832031 9.085938 32.75 8.90625 32.75 8.90625 C 32.75 8.90625 33.125 9.722656 33.71875 10.0625 C 33.886719 10.160156 34.082031 10.230469 34.28125 10.21875 C 35.175781 10.167969 35.5 8.625 35.5 8.625 C 35.5 8.625 36.949219 8.488281 37.1875 7.5625 C 37.398438 6.738281 36.335938 6.074219 36.09375 5.9375 C 36.0625 5.921875 36.0625 5.90625 36.0625 5.90625 C 36.0625 5.90625 36.402344 4.433594 35.59375 3.96875 C 35.390625 3.851563 35.15625 3.8125 34.9375 3.84375 Z M 16.71875 6 C 16.167969 6.078125 15.78125 6.589844 15.859375 7.140625 C 15.9375 7.691406 16.449219 8.078125 17 8 L 22 8 C 22.359375 8.003906 22.695313 7.816406 22.878906 7.503906 C 23.058594 7.191406 23.058594 6.808594 22.878906 6.496094 C 22.695313 6.183594 22.359375 5.996094 22 6 L 17 6 C 16.96875 6 16.9375 6 16.90625 6 C 16.875 6 16.84375 6 16.8125 6 C 16.78125 6 16.75 6 16.71875 6 Z M 43.71875 6 C 43.167969 6.078125 42.78125 6.589844 42.859375 7.140625 C 42.9375 7.691406 43.449219 8.078125 44 8 L 49 8 C 49.359375 8.003906 49.695313 7.816406 49.878906 7.503906 C 50.058594 7.191406 50.058594 6.808594 49.878906 6.496094 C 49.695313 6.183594 49.359375 5.996094 49 6 L 44 6 C 43.96875 6 43.9375 6 43.90625 6 C 43.875 6 43.84375 6 43.8125 6 C 43.78125 6 43.75 6 43.71875 6 Z M 4.71875 6.875 L 6.78125 9.375 L 7.28125 9.96875 L 8 9.625 L 9.53125 8.84375 L 12 11.1875 L 12 12 L 2 12 L 2 9.21875 Z M 0 18 L 0 32 L 14 32 L 14 18 Z M 27 18 L 27 32 L 41 32 L 41 18 Z M 2 20 L 12 20 L 12 30 L 2 30 Z M 29 20 L 39 20 L 39 30 L 29 30 Z M 7 20.96875 C 7 20.96875 6.496094 22.429688 6.03125 22.625 C 5.566406 22.820313 4.15625 22.15625 4.15625 22.15625 C 4.15625 22.15625 4.78125 23.585938 4.625 24.0625 C 4.511719 24.402344 2.96875 25 2.96875 25 C 2.96875 25 4.488281 25.53125 4.59375 25.9375 C 4.75 26.539063 4.15625 27.84375 4.15625 27.84375 C 4.15625 27.84375 5.492188 27.136719 5.9375 27.375 C 6.378906 27.609375 7 29.03125 7 29.03125 C 7 29.03125 7.503906 27.570313 7.96875 27.375 C 8.433594 27.179688 9.84375 27.84375 9.84375 27.84375 C 9.84375 27.84375 9.210938 26.410156 9.375 25.9375 C 9.503906 25.570313 11.03125 25 11.03125 25 C 11.03125 25 9.527344 24.429688 9.40625 24.0625 C 9.210938 23.472656 9.84375 22.15625 9.84375 22.15625 C 9.84375 22.15625 8.507813 22.863281 8.0625 22.625 C 7.621094 22.386719 7 20.96875 7 20.96875 Z M 32 22 C 31.449219 22 31 22.449219 31 23 C 31 23.550781 31.449219 24 32 24 C 32.550781 24 33 23.550781 33 23 C 33 22.449219 32.550781 22 32 22 Z M 7 23.8125 C 7.652344 23.8125 8.1875 24.347656 8.1875 25 C 8.1875 25.652344 7.652344 26.1875 7 26.1875 C 6.347656 26.1875 5.8125 25.652344 5.8125 25 C 5.8125 24.347656 6.347656 23.8125 7 23.8125 Z M 16.71875 24 C 16.167969 24.078125 15.78125 24.589844 15.859375 25.140625 C 15.9375 25.691406 16.449219 26.078125 17 26 L 22 26 C 22.359375 26.003906 22.695313 25.816406 22.878906 25.503906 C 23.058594 25.191406 23.058594 24.808594 22.878906 24.496094 C 22.695313 24.183594 22.359375 23.996094 22 24 L 17 24 C 16.96875 24 16.9375 24 16.90625 24 C 16.875 24 16.84375 24 16.8125 24 C 16.78125 24 16.75 24 16.71875 24 Z M 43.71875 24 C 43.167969 24.078125 42.78125 24.589844 42.859375 25.140625 C 42.9375 25.691406 43.449219 26.078125 44 26 L 49 26 C 49.359375 26.003906 49.695313 25.816406 49.878906 25.503906 C 50.058594 25.191406 50.058594 24.808594 49.878906 24.496094 C 49.695313 24.183594 49.359375 23.996094 49 24 L 44 24 C 43.96875 24 43.9375 24 43.90625 24 C 43.875 24 43.84375 24 43.8125 24 C 43.78125 24 43.75 24 43.71875 24 Z M 35.125 24.65625 C 34.746094 24.65625 34.386719 24.839844 34.1875 25.15625 C 33.710938 25.105469 33.335938 25.417969 33.21875 25.84375 C 32.816406 25.867188 32.5 26.1875 32.5 26.59375 C 32.5 27.015625 32.828125 27.375 33.25 27.375 L 36 27.375 C 36.515625 27.375 36.9375 26.953125 36.9375 26.4375 C 36.9375 26.003906 36.628906 25.636719 36.21875 25.53125 C 36.113281 25.027344 35.652344 24.65625 35.125 24.65625 Z M 0 36 L 0 50 L 14 50 L 14 36 Z M 27 36 L 27 50 L 41 50 L 41 36 Z M 2 38 L 12 38 L 12 48 L 2 48 Z M 29 38 L 39 38 L 39 44.40625 L 37.40625 42.90625 L 36.90625 42.4375 L 36.28125 42.75 L 34.8125 43.5 L 32.59375 40.8125 L 31.9375 40.03125 L 31.15625 40.6875 L 29 42.53125 Z M 37 39 C 36.449219 39 36 39.449219 36 40 C 36 40.550781 36.449219 41 37 41 C 37.550781 41 38 40.550781 38 40 C 38 39.449219 37.550781 39 37 39 Z M 7.9375 39.84375 C 7.28125 39.941406 6.65625 40.53125 6.65625 40.53125 C 6.65625 40.53125 6.578125 40.5 6.46875 40.4375 C 6.101563 40.226563 5.242188 39.804688 4.65625 40.375 C 3.898438 41.109375 4.59375 42.40625 4.59375 42.40625 C 4.59375 42.40625 3.496094 43.308594 3.84375 44.25 C 3.929688 44.476563 4.0625 44.644531 4.25 44.75 C 4.832031 45.085938 5.75 44.90625 5.75 44.90625 C 5.75 44.90625 6.125 45.722656 6.71875 46.0625 C 6.886719 46.160156 7.082031 46.230469 7.28125 46.21875 C 8.175781 46.167969 8.5 44.625 8.5 44.625 C 8.5 44.625 9.949219 44.488281 10.1875 43.5625 C 10.398438 42.738281 9.335938 42.074219 9.09375 41.9375 C 9.0625 41.921875 9.0625 41.90625 9.0625 41.90625 C 9.0625 41.90625 9.402344 40.433594 8.59375 39.96875 C 8.390625 39.851563 8.15625 39.8125 7.9375 39.84375 Z M 16.71875 42 C 16.167969 42.078125 15.78125 42.589844 15.859375 43.140625 C 15.9375 43.691406 16.449219 44.078125 17 44 L 22 44 C 22.359375 44.003906 22.695313 43.816406 22.878906 43.503906 C 23.058594 43.191406 23.058594 42.808594 22.878906 42.496094 C 22.695313 42.183594 22.359375 41.996094 22 42 L 17 42 C 16.96875 42 16.9375 42 16.90625 42 C 16.875 42 16.84375 42 16.8125 42 C 16.78125 42 16.75 42 16.71875 42 Z M 43.71875 42 C 43.167969 42.078125 42.78125 42.589844 42.859375 43.140625 C 42.9375 43.691406 43.449219 44.078125 44 44 L 49 44 C 49.359375 44.003906 49.695313 43.816406 49.878906 43.503906 C 50.058594 43.191406 50.058594 42.808594 49.878906 42.496094 C 49.695313 42.183594 49.359375 41.996094 49 42 L 44 42 C 43.96875 42 43.9375 42 43.90625 42 C 43.875 42 43.84375 42 43.8125 42 C 43.78125 42 43.75 42 43.71875 42 Z M 31.71875 42.875 L 33.78125 45.375 L 34.28125 45.96875 L 35 45.625 L 36.53125 44.84375 L 39 47.1875 L 39 48 L 29 48 L 29 45.21875 Z " fill="#00ACC1" />
                        </g>
                    </svg>