<svg xmlns="http://www.w3.org/2000/svg" width="400" height="370" viewBox="0 0 400 370"><defs><style>.a{fill:#eceff1;}.b{fill:#cfd8dc;}.c{fill:#b0bec5;}.d{fill:#78909c;}</style></defs><title>DeadCloud</title><ellipse class="a" cx="200" cy="353" rx="197.5" ry="12"/><path class="b" d="M370.415,261.988c11.914-13.234,17.489-29.981,15.69-47.152-1.791-17.117-10.718-32.389-25.118-43.013a67.423,67.423,0,0,0-39.751-13.205l1.473-11.043a117.448,117.448,0,0,0,1.651-19.615c0-42.333-22.794-79.489-56.86-100.061a122.337,122.337,0,0,0-165.677,73.976c-43.76,11.017-76.2,49.549-76.2,95.4a96.586,96.586,0,0,0,31.541,71.211,98.936,98.936,0,0,0,52.832,15.124H321.576A65.672,65.672,0,0,0,370.415,261.988Z"/><path class="c" d="M324.415,128.086a117.257,117.257,0,0,1-1.65,19.6,76.325,76.325,0,0,0-14.376,1.048c9.778-46.007-3.7-95.45-39.246-119.525q-1.269-.861-2.547-1.706C301.191,47.929,324.415,85.371,324.415,128.086Zm-1.089,155.505a65.582,65.582,0,0,0,47.1-21.586c11.9-13.223,17.474-29.956,15.676-47.113-1.79-17.1-10.708-32.363-25.1-42.979a67.1,67.1,0,0,0-47.169-12.786c26.782,7.886,49.4,34.3,49.012,64.023C362.511,249.33,345.5,272.945,323.326,283.591Z"/><path class="a" d="M212.949,236.05a5.531,5.531,0,0,1-.37-11.049,91.117,91.117,0,0,0,42.141-13.719,5.53,5.53,0,0,1,5.879,9.367,102.147,102.147,0,0,1-47.272,15.385C213.2,236.042,213.072,236.05,212.949,236.05Zm57.374-24.027a5.535,5.535,0,0,1-3.672-9.675,92.185,92.185,0,0,0,7.09-6.991,5.53,5.53,0,1,1,8.185,7.438,104.233,104.233,0,0,1-7.939,7.839A5.545,5.545,0,0,1,270.323,212.023Z"/><path class="d" d="M397.106,213.743c-2.121-20.23-12.613-38.246-29.532-50.73a78.75,78.75,0,0,0-33.768-14.293,128.223,128.223,0,0,0,1.671-20.636C335.477,57.459,277.533,0,206.314,0a129.259,129.259,0,0,0-123.1,89.388C36.862,101.058,2.5,141.877,2.5,190.45c0,57.643,48.333,104.244,107.736,104.241h211.4a76.658,76.658,0,0,0,57.011-25.272C392.678,253.841,399.236,234.066,397.106,213.743ZM370.429,262.02a65.606,65.606,0,0,1-48.795,21.61h-211.4c-53.305,0-96.673-41.64-96.673-93.18,0-41.289,27.872-76.325,66.35-88.659a126.975,126.975,0,0,0-2.762,26.293,5.532,5.532,0,1,0,11.063,0c0-64.526,52.981-117.02,118.1-117.02s118.1,52.494,118.1,117.02a117.29,117.29,0,0,1-1.65,19.6,76.123,76.123,0,0,0-16.383,1.416,5.53,5.53,0,0,0,2.152,10.848,66.871,66.871,0,0,1,52.475,11.967c14.388,10.617,23.306,25.879,25.1,42.984C387.9,232.06,382.333,248.8,370.429,262.02ZM244.445,157.936H137.6a5.533,5.533,0,0,1,0-11.065h106.85a5.533,5.533,0,0,1,0,11.065Zm-93.427-56.173a5.532,5.532,0,1,1-7.822,7.824l-7.939-7.94-7.938,7.94a5.532,5.532,0,1,1-7.823-7.824l7.938-7.94L119.5,85.884a5.532,5.532,0,0,1,7.823-7.824L135.257,86,143.2,78.06a5.532,5.532,0,0,1,7.822,7.824l-7.938,7.939Zm106.581,0a5.532,5.532,0,0,1-7.823,7.824l-7.939-7.94-7.938,7.94a5.532,5.532,0,0,1-7.823-7.824l7.938-7.94-7.938-7.939A5.532,5.532,0,0,1,233.9,78.06L241.837,86l7.939-7.939a5.532,5.532,0,0,1,7.823,7.824l-7.939,7.939Z"/></svg>