<svg xmlns="http://www.w3.org/2000/svg" width="950" height="247.4" viewBox="0 0 950 247.4"><defs><style>.\35 7964beb-ccab-4505-abb9-78916d0b17a4{fill:#455a64;}.\32 c8b5a16-297b-45c6-b2b3-ac549639f334{fill:#546e7a;}</style></defs><title>Asset 1</title><g id="f83b4e38-2129-40ed-a86f-26a55dce8ec1" data-name="Layer 2"><g id="47b9279c-87bf-4e11-952e-d3f890cc32ce" data-name="Blog Post"><g id="d3d6cf7b-3ef7-4fde-8144-aa186feb7fd4" data-name="Body"><rect class="57964beb-ccab-4505-abb9-78916d0b17a4" width="950" height="247.4"/><path class="2c8b5a16-297b-45c6-b2b3-ac549639f334" d="M565.32,72.53c0-27.4-26.16-47.79-54.1-47.79-18.3,0-34.39,8.36-44,23.45-8.3-5.82-16.58-8-26.4-8-21.14,0-38.55,15.74-42.72,35.24-.8,0-1.56.07-2.23.07a53.08,53.08,0,0,0-53,53c0,24.12,13.75,42,38.4,51.54l17.23-39.4a11.75,11.75,0,1,0-14.06-11.52,11.57,11.57,0,0,0,1.67,6l-11.45,26.22c-.58.22-28.67-16.35-15-48.7,5.4-12.75,25.23-28.87,50.49-22.79,0,0,.19-3,.89-7.38,2.29-14.46,13.89-27.69,30.21-27.69,8,0,15.82,2.71,23.08,8.39,5.14,4,6.9,6.69,6.9,6.69s2-4.27,3.95-7.77c6.5-11.42,20.24-22.35,36.1-22.35,21.91,0,43.11,17.63,39.45,46.78h.22c26.53,2.9,40.33,21.36,40.33,40.12,0,22.57-22.81,41.35-42.64,41.64-6,.08-11.81.06-15.83.07l11.31-26a12.65,12.65,0,1,0-12.44-5.48L511.2,183.67h34.21c37.09,0,61.79-29.78,61.79-57.56C607.2,103.74,595.36,81.26,565.32,72.53ZM542.19,124.1a5.73,5.73,0,1,1-5.73,5.73A5.73,5.73,0,0,1,542.19,124.1ZM513.3,97.27l-37.79,86.42H460.65L501,91.59a11.53,11.53,0,0,1-1.65-5.84,11.75,11.75,0,1,1,14,11.52Zm-46.8,10a12.7,12.7,0,1,0-23.25,7l-36.63,83.91a12.33,12.33,0,1,0,12.43,5.4l36.68-83.86A12.66,12.66,0,0,0,466.5,107.27ZM408.74,215.89a5.56,5.56,0,1,1,5.55-5.56A5.56,5.56,0,0,1,408.74,215.89Zm39.34-108.62a5.73,5.73,0,1,1,5.73,5.72A5.73,5.73,0,0,1,448.08,107.27Z"/></g></g></g></svg>