<svg xmlns="http://www.w3.org/2000/svg" xmlns:xlink="http://www.w3.org/1999/xlink" width="850" height="400" viewBox="0 0 850 400"><defs><style>.a{fill:none;}.b{fill:#37474f;}.c{fill:#455a64;opacity:0.5;}.d{opacity:0.8;}.e{clip-path:url(#a);}.f{fill:#00acc1;}.g{fill:#fff;}.h{fill:#0097a7;}.i{clip-path:url(#b);}</style><clipPath id="a"><rect class="a" width="850" height="400"/></clipPath><clipPath id="b"><rect class="a" y="-420" width="850" height="400"/></clipPath></defs><title>NewsCoverage</title><rect class="b" width="850" height="400"/><rect class="c" x="11" y="340" width="50" height="50" rx="5"/><rect class="c" x="500" y="221" width="50" height="50" rx="5"/><rect class="c" x="525" y="315" width="50" height="50" rx="5"/><rect class="c" x="165" y="171" width="50" height="50" rx="5"/><rect class="c" x="600" y="67" width="50" height="50" rx="5"/><rect class="c" x="575" y="92" width="50" height="50" rx="5"/><rect class="c" x="190" y="315" width="50" height="50" rx="5"/><rect class="c" x="37" y="15" width="50" height="50" rx="5"/><rect class="c" x="338" y="290" width="50" height="50" rx="5"/><rect class="c" x="750" y="335" width="50" height="50" rx="5"/><rect class="c" x="775" y="171" width="50" height="50" rx="5"/><rect class="c" x="800" width="50" height="50" rx="5"/><rect class="c" x="431" y="17" width="50" height="50" rx="5"/><rect class="c" x="288" y="240" width="50" height="50" rx="5"/><rect class="c" x="36" y="196" width="50" height="50" rx="5"/><rect class="c" x="675" y="285" width="50" height="50" rx="5"/><rect class="c" x="215" y="340" width="50" height="50" rx="5"/><g class="d"><g class="e"><path class="f" d="M495.506,8.372a9.5,9.5,0,0,0-9.485,9.485V356.345c0,24.786,7.225,44.756,21.934,59.28,23.378,23.119,56.834,23.712,60.169,23.712H869.562a52.75,52.75,0,0,0,8.3-.593c-29.528-3.742-72.321-24.082-72.321-82.4V17.857a9.48,9.48,0,0,0-9.485-9.485Zm329,63.726V356.345c0,63.022,60.837,64.022,63.43,64.022,5.113-.037,47.424-1.963,53.945-50.388a121.6,121.6,0,0,0,.593-13.041v-238.3c-.334-13.746-7.707-37.865-32.308-44.46-7.706,1.852-14.116,5.3-18.97,10.374-12.56,13.115-12.152,33.308-12.152,33.493v230.3a9.485,9.485,0,0,1-18.97,0V118.336c-.037-.7-.963-27.157,16.6-46.238ZM545.6,86.325H732.626a9.485,9.485,0,0,1,0,18.97H545.6a9.485,9.485,0,0,1,0-18.97Zm0,37.939H732.626a9.485,9.485,0,0,1,0,18.97H545.6a9.485,9.485,0,0,1,0-18.97Zm4.446,75.878h64.319a9.485,9.485,0,1,1,0,18.97H550.043a9.485,9.485,0,0,1,0-18.97Zm109.372,0h73.211a9.485,9.485,0,0,1,0,18.97H659.415a9.485,9.485,0,0,1,0-18.97Zm-109.372,37.94h64.319a9.485,9.485,0,1,1,0,18.969H550.043a9.485,9.485,0,0,1,0-18.969Zm109.372,0h73.211a9.485,9.485,0,0,1,0,18.969H659.415a9.485,9.485,0,1,1,0-18.969Zm0,35.864h73.211a9.485,9.485,0,0,1,0,18.97H659.415a9.485,9.485,0,0,1,0-18.97Zm-109.372,2.075h64.319a9.485,9.485,0,1,1,0,18.969H550.043a9.485,9.485,0,0,1,0-18.969Zm109.372,35.864h73.211a9.485,9.485,0,0,1,0,18.97H659.415a9.485,9.485,0,1,1,0-18.97ZM550.043,313.96h64.319a9.485,9.485,0,0,1,0,18.97H550.043a9.485,9.485,0,0,1,0-18.97Zm109.372,33.493h73.211a9.485,9.485,0,0,1,0,18.97H659.415a9.485,9.485,0,1,1,0-18.97ZM550.043,351.9h64.319a9.485,9.485,0,0,1,0,18.97H550.043a9.485,9.485,0,0,1,0-18.97Z"/><path class="g" d="M474.412-10.6A9.5,9.5,0,0,0,467-1.121V337.345c0,40.27,20.932,62.98,41.493,73.206a97.331,97.331,0,0,0,40.9,9.78H841.038v-.889c4.556.519,9.484.889,9.484.889a79.989,79.989,0,0,0,36.455-10.373c17.783-10.225,35.306-31.861,36.159-69.353a4.428,4.428,0,0,0,.3-.593v-.593a9.894,9.894,0,0,0,0-1.481V99.648A53.758,53.758,0,0,0,917.8,77.123c-5.78-11.41-19.228-23.71-40.308-23.71v-.3h-89.8V72.085h52.756a41.418,41.418,0,0,0-2.964,4.742,56.733,56.733,0,0,0-5.928,22.525V329.343a9.486,9.486,0,1,0,18.969,0V99.352a37.559,37.559,0,0,1,3.853-13.93c3.556-6.928,8.558-13.041,23.118-13.041,14.522,0,19.524,6.261,23.117,13.337a42.249,42.249,0,0,1,4.15,14.227h-.3V337.938c0,33.75-13.485,47.976-26.97,55.719a59.671,59.671,0,0,1-26.971,7.706,81.576,81.576,0,0,1-32.009-8.3C802.545,384.988,787.1,370.8,787.1,337.345V-1.121a9.5,9.5,0,0,0-9.484-9.484H476.487A9.725,9.725,0,0,0,474.412-10.6ZM485.971,8.363H768.127V337.345c0,31.194,13.227,51.607,28.75,64.018H549.1a69.044,69.044,0,0,1-10.077-.889,80.483,80.483,0,0,1-10.077-2.371,74.4,74.4,0,0,1-11.855-4.446,66.182,66.182,0,0,1-5.928-3.26c-13.56-8.521-25.193-23.229-25.193-53.052Zm37.937,58.98a9.577,9.577,0,0,0,2.668,18.968H713.593a9.485,9.485,0,1,0,0-18.968H523.908Zm0,37.936a9.578,9.578,0,0,0,2.668,18.969H713.593a9.486,9.486,0,1,0,0-18.969H523.908Zm4.446,75.874a9.577,9.577,0,1,0,2.668,18.968h64.314a9.485,9.485,0,1,0,0-18.968H528.354Zm109.365,0a9.577,9.577,0,1,0,2.668,18.968h73.206a9.485,9.485,0,1,0,0-18.968H637.719ZM528.354,219.089a9.578,9.578,0,0,0,2.668,18.969h64.314a9.486,9.486,0,1,0,0-18.969H528.354Zm109.365,0a9.578,9.578,0,0,0,2.668,18.969h73.206a9.486,9.486,0,1,0,0-18.969H637.719Zm0,35.862a9.578,9.578,0,0,0,2.668,18.969h73.206a9.486,9.486,0,1,0,0-18.969H640.387a7.156,7.156,0,0,0-1.779,0Zm-109.365,2.075a9.577,9.577,0,1,0,2.668,18.968h64.314a9.485,9.485,0,1,0,0-18.968H528.354Zm109.365,35.862a9.577,9.577,0,1,0,2.668,18.968h73.206a9.485,9.485,0,1,0,0-18.968H640.387a7.156,7.156,0,0,0-1.779,0Zm-109.365,2.074a9.578,9.578,0,0,0,2.668,18.969h64.314a9.486,9.486,0,1,0,0-18.969H528.354Zm109.365,33.491a9.578,9.578,0,0,0,2.668,18.969h73.206a9.486,9.486,0,1,0,0-18.969H637.719ZM528.354,332.9a9.577,9.577,0,1,0,2.668,18.968h64.314a9.485,9.485,0,1,0,0-18.968H528.354Z"/></g></g><path class="h" d="M45.232,43.72H55.457L79.075,74.754V43.72H90.02v50.4H80.587L56.177,62.081V94.124H45.232Z"/><path class="h" d="M102.111,43.72h38.02v9.865h-27V63.81h23.763v9.864H113.128V84.259h27.363v9.865h-38.38Z"/><path class="h" d="M146.463,43.72h11.881l10.441,34.131L180.09,43.575h9.5l11.3,34.276L211.34,43.72h11.594l-17.21,50.764h-9.649L184.7,61.505,173.321,94.484h-9.649Z"/><path class="h" d="M226.24,86.779l6.552-7.848c4.537,3.744,9.289,6.12,15.05,6.12,4.536,0,7.272-1.8,7.272-4.752v-.144c0-2.808-1.728-4.249-10.153-6.409-10.152-2.592-16.705-5.4-16.705-15.409v-.144C228.256,49.048,235.6,43,245.9,43a29.18,29.18,0,0,1,18.722,6.408l-5.761,8.353c-4.464-3.1-8.856-4.969-13.105-4.969s-6.48,1.944-6.48,4.393v.144c0,3.313,2.16,4.393,10.873,6.624,10.225,2.664,15.985,6.337,15.985,15.122v.144c0,10.009-7.632,15.625-18.506,15.625A32.07,32.07,0,0,1,226.24,86.779Z"/><path class="h" d="M43,155.465v-.142c0-14.33,10.8-26.067,26.282-26.067,9.505,0,15.194,3.168,19.874,7.776L82.1,145.168c-3.888-3.527-7.849-5.687-12.889-5.687-8.5,0-14.617,7.057-14.617,15.7v.145c0,8.64,5.976,15.842,14.617,15.842,5.761,0,9.289-2.3,13.249-5.907l7.057,7.129c-5.184,5.545-10.945,9-20.666,9C54.017,181.389,43,169.94,43,155.465Z"/><path class="h" d="M94.7,155.465v-.142c0-14.33,11.305-26.067,26.859-26.067s26.714,11.592,26.714,25.922v.145c0,14.328-11.305,26.066-26.858,26.066S94.7,169.8,94.7,155.465Zm41.98,0v-.142c0-8.641-6.337-15.842-15.265-15.842s-15.122,7.057-15.122,15.7v.145c0,8.64,6.337,15.842,15.266,15.842S136.676,164.108,136.676,155.465Z"/><path class="h" d="M150.567,130.12h12.241l13.177,35.5,13.177-35.5h11.953l-20.377,50.765h-9.793Z"/><path class="h" d="M208.887,130.12h38.02v9.865h-27v10.224h23.763v9.866H219.9v10.584h27.363v9.865h-38.38Z"/><path class="h" d="M257.127,130.12h23.042c6.409,0,11.377,1.8,14.689,5.113,2.809,2.809,4.321,6.767,4.321,11.521v.143c0,8.137-4.392,13.25-10.8,15.625l12.313,18H287.73l-10.8-16.129h-8.713v16.129H257.127ZM279.449,154.6c5.4,0,8.5-2.881,8.5-7.129v-.144c0-4.752-3.313-7.2-8.713-7.2H268.216V154.6Z"/><path class="h" d="M326.464,129.76h10.225l21.6,50.764H346.7l-4.608-11.305H320.776l-4.609,11.305h-11.3Zm11.665,29.666-6.7-16.345-6.7,16.345Z"/><path class="h" d="M360.59,155.465v-.142c0-14.33,11.161-26.067,26.427-26.067,9.072,0,14.545,2.448,19.8,6.912l-6.985,8.426c-3.888-3.24-7.344-5.113-13.176-5.113-8.065,0-14.474,7.129-14.474,15.7v.145c0,9.217,6.337,15.984,15.266,15.984a17.7,17.7,0,0,0,10.441-3.023v-7.2H386.729v-9.577h21.889V173.4a32.713,32.713,0,0,1-21.53,7.994C371.391,181.389,360.59,170.372,360.59,155.465Z"/><path class="h" d="M419.27,130.12h38.019v9.865h-27v10.224h23.762v9.866H430.287v10.584h27.362v9.865H419.27Z"/><path class="g" d="M40.232,40.72H50.457L74.075,71.754V40.72H85.02v50.4H75.587L51.177,59.081V91.124H40.232Z"/><path class="g" d="M97.111,40.72h38.02v9.865h-27V60.81h23.763v9.864H108.128V81.259h27.363v9.865H97.111Z"/><path class="g" d="M141.463,40.72h11.881l10.441,34.131L175.09,40.575h9.5l11.3,34.276L206.34,40.72h11.594l-17.21,50.764h-9.649L179.7,58.505,168.321,91.484h-9.649Z"/><path class="g" d="M221.24,83.779l6.552-7.848c4.537,3.744,9.289,6.12,15.05,6.12,4.536,0,7.272-1.8,7.272-4.752v-.144c0-2.808-1.728-4.249-10.153-6.409-10.152-2.592-16.705-5.4-16.705-15.409v-.144C223.256,46.048,230.6,40,240.9,40a29.18,29.18,0,0,1,18.722,6.408l-5.761,8.353c-4.464-3.1-8.856-4.969-13.105-4.969s-6.48,1.944-6.48,4.393v.144c0,3.313,2.16,4.393,10.873,6.624,10.225,2.664,15.985,6.337,15.985,15.122v.144c0,10.009-7.632,15.625-18.506,15.625A32.07,32.07,0,0,1,221.24,83.779Z"/><path class="g" d="M38,152.465v-.142c0-14.33,10.8-26.067,26.282-26.067,9.505,0,15.194,3.168,19.874,7.776L77.1,142.168c-3.888-3.527-7.849-5.687-12.889-5.687-8.5,0-14.617,7.057-14.617,15.7v.145c0,8.64,5.976,15.842,14.617,15.842,5.761,0,9.289-2.3,13.249-5.907l7.057,7.129c-5.184,5.545-10.945,9-20.666,9C49.017,178.389,38,166.94,38,152.465Z"/><path class="g" d="M89.7,152.465v-.142c0-14.33,11.305-26.067,26.859-26.067s26.714,11.592,26.714,25.922v.145c0,14.328-11.305,26.066-26.858,26.066S89.7,166.8,89.7,152.465Zm41.98,0v-.142c0-8.641-6.337-15.842-15.265-15.842s-15.122,7.057-15.122,15.7v.145c0,8.64,6.337,15.842,15.266,15.842S131.676,161.108,131.676,152.465Z"/><path class="g" d="M145.567,127.12h12.241l13.177,35.5,13.177-35.5h11.953l-20.377,50.765h-9.793Z"/><path class="g" d="M203.887,127.12h38.02v9.865h-27v10.224h23.763v9.866H214.9v10.584h27.363v9.865h-38.38Z"/><path class="g" d="M252.127,127.12h23.042c6.409,0,11.377,1.8,14.689,5.113,2.809,2.809,4.321,6.767,4.321,11.521v.143c0,8.137-4.392,13.25-10.8,15.625l12.313,18H282.73l-10.8-16.129h-8.713v16.129H252.127ZM274.449,151.6c5.4,0,8.5-2.881,8.5-7.129v-.144c0-4.752-3.313-7.2-8.713-7.2H263.216V151.6Z"/><path class="g" d="M321.464,126.76h10.225l21.6,50.764H341.7l-4.608-11.305H315.776l-4.609,11.305h-11.3Zm11.665,29.666-6.7-16.345-6.7,16.345Z"/><path class="g" d="M355.59,152.465v-.142c0-14.33,11.161-26.067,26.427-26.067,9.072,0,14.545,2.448,19.8,6.912l-6.985,8.426c-3.888-3.24-7.344-5.113-13.176-5.113-8.065,0-14.474,7.129-14.474,15.7v.145c0,9.217,6.337,15.984,15.266,15.984a17.7,17.7,0,0,0,10.441-3.023v-7.2H381.729v-9.577h21.889V170.4a32.713,32.713,0,0,1-21.53,7.994C366.391,178.389,355.59,167.372,355.59,152.465Z"/><path class="g" d="M414.27,127.12h38.019v9.865h-27v10.224h23.762v9.866H425.287v10.584h27.362v9.865H414.27Z"/><g class="d"><g class="i"><path class="f" d="M471.612-420.282a11.459,11.459,0,0,0-7.514,4.294,206.819,206.819,0,0,0-48.3,133.1,206.047,206.047,0,0,0,47.231,131.672,11.572,11.572,0,0,0,16.28,1.61,11.572,11.572,0,0,0,1.61-16.28,182.931,182.931,0,0,1-42.221-117A183.746,183.746,0,0,1,481.63-401.318a11.455,11.455,0,0,0,1.566-12.97A11.441,11.441,0,0,0,471.612-420.282Zm342.777,0a11.424,11.424,0,0,0-8.811,7.6,11.371,11.371,0,0,0,2.371,11.36,183.746,183.746,0,0,1,42.937,118.434,182.936,182.936,0,0,1-42.221,117,11.572,11.572,0,0,0,1.61,16.28,11.572,11.572,0,0,0,16.28-1.61,206.052,206.052,0,0,0,47.23-131.672,206.819,206.819,0,0,0-48.3-133.1,11.432,11.432,0,0,0-10.018-4.294Zm-276.225,37.57a11.455,11.455,0,0,0-7.514,4.294,148.411,148.411,0,0,0-34.707,95.534A148.415,148.415,0,0,0,530.65-187.35a11.481,11.481,0,0,0,10.958,4.517,11.493,11.493,0,0,0,9.079-7.6,11.478,11.478,0,0,0-2.5-11.584,125.341,125.341,0,0,1-29.34-80.864,125.43,125.43,0,0,1,29.34-80.864,11.456,11.456,0,0,0,1.566-12.971A11.442,11.442,0,0,0,538.164-382.712Zm209.674,0a11.419,11.419,0,0,0-8.811,7.6,11.37,11.37,0,0,0,2.37,11.361,125.424,125.424,0,0,1,29.34,80.864A125.336,125.336,0,0,1,741.4-202.02a11.478,11.478,0,0,0-2.5,11.584,11.5,11.5,0,0,0,9.08,7.6,11.483,11.483,0,0,0,10.958-4.517,148.415,148.415,0,0,0,34.707-95.534,148.411,148.411,0,0,0-34.707-95.534,11.43,11.43,0,0,0-10.019-4.294ZM644.79-329.4a45.772,45.772,0,0,0-45.8,45.8A45.426,45.426,0,0,0,617.6-246.746L478.768,120.362a22.928,22.928,0,0,0,42.937,16.1l14.67-38.286L732.81,43.434l35.065,93.03a22.928,22.928,0,0,0,42.936-16.1L671.983-246.746A45.427,45.427,0,0,0,690.589-283.6,45.773,45.773,0,0,0,644.79-329.4Zm0,140.975,29.34,77.286L605.789-85.376ZM690.231-68.559,708.479-19.9,635.487-47.448ZM580.743-19.182l87.3,32.918L556.412,44.865Z"/><path class="g" d="M448.714-443.562a11.454,11.454,0,0,0-7.514,4.293,206.818,206.818,0,0,0-48.3,133.1,206.051,206.051,0,0,0,47.229,131.672,11.574,11.574,0,0,0,16.281,1.61,11.573,11.573,0,0,0,1.61-16.28,182.931,182.931,0,0,1-42.221-117A183.746,183.746,0,0,1,458.732-424.6a11.455,11.455,0,0,0,1.566-12.97A11.441,11.441,0,0,0,448.714-443.562Zm342.774,0a11.418,11.418,0,0,0-8.81,7.6,11.368,11.368,0,0,0,2.37,11.36,183.746,183.746,0,0,1,42.936,118.434,182.935,182.935,0,0,1-42.22,117,11.572,11.572,0,0,0,1.61,16.28,11.572,11.572,0,0,0,16.28-1.61,206.052,206.052,0,0,0,47.23-131.672,206.819,206.819,0,0,0-48.3-133.1,11.428,11.428,0,0,0-10.018-4.293ZM515.265-405.993a11.455,11.455,0,0,0-7.514,4.294,148.413,148.413,0,0,0-34.707,95.534,148.415,148.415,0,0,0,34.707,95.534,11.482,11.482,0,0,0,10.958,4.517,11.492,11.492,0,0,0,9.079-7.6,11.474,11.474,0,0,0-2.5-11.584,125.34,125.34,0,0,1-29.339-80.864,125.429,125.429,0,0,1,29.339-80.864A11.456,11.456,0,0,0,526.849-400,11.441,11.441,0,0,0,515.265-405.993Zm209.672,0a11.421,11.421,0,0,0-8.811,7.6,11.373,11.373,0,0,0,2.371,11.361,125.43,125.43,0,0,1,29.34,80.864A125.341,125.341,0,0,1,718.5-225.3a11.478,11.478,0,0,0-2.5,11.584,11.493,11.493,0,0,0,9.079,7.6,11.481,11.481,0,0,0,10.958-4.517,148.415,148.415,0,0,0,34.707-95.534A148.413,148.413,0,0,0,736.029-401.7a11.427,11.427,0,0,0-10.018-4.294ZM621.89-341.23a34.358,34.358,0,0,0-34.349,34.349,34.124,34.124,0,0,0,12.165,26.12L450.861,112.825a11.451,11.451,0,1,0,21.468,7.872l24.688-65.121L723.506-5.609,771.452,120.7a11.45,11.45,0,1,0,21.468-7.872L644.074-280.761a34.124,34.124,0,0,0,12.165-26.12A34.357,34.357,0,0,0,621.89-341.23Zm-.715,68.7h1.431l49.376,130.6L556.054-100.069Zm59.037,152.426L713.13-33.875l-139.185-48.3ZM543.889-68.582,685.579-19.2l-178.9,48.661Z"/></g></g></svg>