<svg xmlns="http://www.w3.org/2000/svg" xmlns:xlink="http://www.w3.org/1999/xlink" width="850" height="400" viewBox="0 0 850 400"><defs><style>.a{fill:none;}.b{fill:#37474f;}.c{fill:#455a64;opacity:0.5;}.d{opacity:0.8;}.e{clip-path:url(#a);}.f{fill:#fff;}.g{fill:#00acc1;}.h{fill:#0097a7;}</style><clipPath id="a"><rect class="a" width="850" height="400"/></clipPath></defs><title>PlatformUpdate</title><rect class="b" width="850" height="400"/><rect class="c" x="11" y="340" width="50" height="50" rx="5" ry="5"/><rect class="c" x="500" y="221" width="50" height="50" rx="5" ry="5"/><rect class="c" x="525" y="315" width="50" height="50" rx="5" ry="5"/><rect class="c" x="165" y="171" width="50" height="50" rx="5" ry="5"/><rect class="c" x="600" y="67" width="50" height="50" rx="5" ry="5"/><rect class="c" x="575" y="92" width="50" height="50" rx="5" ry="5"/><rect class="c" x="190" y="315" width="50" height="50" rx="5" ry="5"/><rect class="c" x="37" y="15" width="50" height="50" rx="5" ry="5"/><rect class="c" x="338" y="290" width="50" height="50" rx="5" ry="5"/><rect class="c" x="750" y="335" width="50" height="50" rx="5" ry="5"/><rect class="c" x="775" y="171" width="50" height="50" rx="5" ry="5"/><rect class="c" x="800" width="50" height="50" rx="5" ry="5"/><rect class="c" x="431" y="17" width="50" height="50" rx="5" ry="5"/><rect class="c" x="288" y="240" width="50" height="50" rx="5" ry="5"/><rect class="c" x="36" y="196" width="50" height="50" rx="5" ry="5"/><rect class="c" x="675" y="285" width="50" height="50" rx="5" ry="5"/><rect class="c" x="215" y="340" width="50" height="50" rx="5" ry="5"/><g class="d"><g class="e"><path class="f" d="M885.1,453.458H789.836a7.985,7.985,0,0,1-7.319-11.177l55.229-126.612a43.371,43.371,0,1,1,49.268,21.7l-24.959,57.276c9.319-.009,20.49-.031,31.747-.192,50.214-.717,110.862-49.026,110.862-107.943,0-45.884-32.473-95.729-105.01-103.729l-.443-.03a7.984,7.984,0,0,1-7.4-8.962c5.411-43.1-10.052-70.962-23.977-86.746-19.353-21.935-47.762-34.516-77.941-34.516-41.77,0-77.086,29.23-93.554,58.2-5.291,9.305-10.654,20.9-10.707,21.014a7.984,7.984,0,0,1-13.923,1.038c-.011-.012-4.63-6.7-17.443-16.73C635.91,101.684,615.947,94.4,594.932,94.4c-42.722,0-70.686,35.39-76.229,70.349-1.854,11.7-2.386,19.513-2.408,19.839a7.986,7.986,0,0,1-9.837,7.236c-65.905-15.877-117.331,25.708-131.335,58.808-28.869,68.247,14.035,108.428,30.757,120.823l26.644-61.036a40.167,40.167,0,0,1-3.787-16.875,40.69,40.69,0,1,1,52.9,38.809L435.22,438.493a7.988,7.988,0,0,1-10.2,4.244C352.771,414.7,312.984,361.106,312.984,291.816c0-85.766,69.751-155.549,155.511-155.618,15.123-57.331,66.851-98.309,125.283-98.309,27.584,0,49.917,6.012,71.317,19.35,28.437-39.671,73.468-62.254,124.8-62.254,39.9,0,79.87,14.516,109.662,39.824,29.937,25.432,47.12,59.07,48.819,95.273,73.246,23.454,116.761,81.061,116.761,155.139C1065.135,366.468,992.793,453.458,885.1,453.458Zm-83.07-15.969H885.1c98.141,0,164.067-78.733,164.067-152.268,0-32.866-10.8-112.446-110.866-141.519a7.985,7.985,0,0,1-5.756-7.668c0-74.82-73.759-125.08-142.651-125.08-48.605,0-90.847,22.453-115.893,61.6a7.985,7.985,0,0,1-11.311,2.234c-20.644-14.478-41.9-20.934-68.911-20.934-53.007,0-99.744,38.606-111.128,91.8a7.986,7.986,0,0,1-7.456,6.305l-.424.019c-2.2.1-4.29.187-6.151.187-77.013,0-139.666,62.645-139.666,139.649,0,60.864,32.719,106.767,94.752,133.154L468.562,322.4a7.979,7.979,0,0,1,5.748-4.629,24.717,24.717,0,1,0-29.6-24.226,24.3,24.3,0,0,0,3.537,12.5,7.978,7.978,0,0,1,.446,7.26l-31.866,73a7.978,7.978,0,0,1-4.561,4.3c-9.229,3.39-30.939-19.225-31.859-20.189-18.958-19.888-46.764-62.7-19.986-126,15.481-36.6,70.228-82.3,140.828-69.971.391-3.332.936-7.459,1.686-12.19,6.6-41.653,40.328-83.818,92-83.818,24.667,0,47.942,8.425,69.175,25.042a147.979,147.979,0,0,1,12.313,10.688c1.806-3.574,3.91-7.588,6.037-11.329C701.211,69.846,741.7,36.561,789.893,36.561c34.759,0,67.533,14.549,89.916,39.919,15.213,17.243,32.033,46.8,28.649,91.347,77.007,11.568,112.175,68.891,112.175,118.685,0,68.765-68.057,123.075-126.6,123.911-12.382.176-24.613.187-34.439.195l-9.706.015h-.027a7.984,7.984,0,0,1-7.32-11.173l31.493-72.269a7.988,7.988,0,0,1,6.14-4.708,27.119,27.119,0,0,0,23.319-26.929A27.37,27.37,0,1,0,853.34,310.7a7.987,7.987,0,0,1,.674,7.619ZM690.491,453.5H649.115a7.985,7.985,0,0,1-7.315-11.184L752.469,189.4a39.094,39.094,0,0,1-3.73-16.575,40.691,40.691,0,1,1,52.71,38.854L697.807,448.717A7.984,7.984,0,0,1,690.491,453.5Zm-29.167-15.969h23.945L788.382,201.7a7.983,7.983,0,0,1,5.792-4.64,24.71,24.71,0,1,0-29.466-24.237,24.186,24.186,0,0,0,3.506,12.259,7.987,7.987,0,0,1,.416,7.22ZM504.563,562a42.249,42.249,0,0,1-11.611-82.883l98.759-226.168a43.372,43.372,0,1,1,49.373,21.59l-98.867,226A42.224,42.224,0,0,1,504.563,562ZM630.049,205.381A27.355,27.355,0,0,0,607.3,247.948a7.986,7.986,0,0,1,.683,7.64l-102.006,233.6a7.984,7.984,0,0,1-5.946,4.671A26.327,26.327,0,1,0,526.6,505.388a7.988,7.988,0,0,1-.626-7.559L628.105,264.363a7.985,7.985,0,0,1,6.1-4.692,27.3,27.3,0,0,0-4.159-54.29Zm246.072,74.244a15.93,15.93,0,1,1-15.93,15.93A15.93,15.93,0,0,1,876.121,279.625ZM504.563,535.166a15.459,15.459,0,1,1,15.459-15.459A15.459,15.459,0,0,1,504.563,535.166ZM614.119,232.75a15.93,15.93,0,1,1,15.931,15.93A15.929,15.929,0,0,1,614.119,232.75Z"/><path class="g" d="M924.559,120.066C924.559,43.777,851.725-13,773.925-13,722.99-13,678.174,10.29,651.3,52.286c-23.087-16.19-46.137-22.381-73.5-22.381-58.852,0-107.315,43.818-118.935,98.111-2.226.1-4.35.2-6.223.2-81.426,0-147.65,66.228-147.65,147.634,0,67.146,38.284,116.838,106.935,143.478L459.908,309.63a32.958,32.958,0,1,0-34.5-15.491l-31.866,73c-1.633.6-79.836-45.52-41.736-135.586,15.025-35.517,70.242-80.391,140.558-63.459.01-.14.547-8.308,2.489-20.562,6.383-40.253,38.676-77.084,84.114-77.084,22.225,0,44.051,7.534,64.256,23.346,14.311,11.2,19.2,18.634,19.2,18.634s5.486-11.891,11.015-21.616c18.085-31.81,56.344-62.235,100.5-62.235,61.008,0,120.029,49.082,109.839,130.241l.618.04c73.879,8.074,112.3,59.445,112.3,111.687,0,62.837-63.517,115.139-118.732,115.928-16.7.238-32.883.172-44.058.21l31.493-72.27a35.228,35.228,0,1,0-34.655-15.259L773.867,429.5H869.13c103.279,0,172.052-82.919,172.052-160.251C1041.182,206.963,1008.212,144.371,924.559,120.066Zm-64.407,143.59a15.93,15.93,0,1,1-15.93,15.93A15.93,15.93,0,0,1,860.152,263.656Zm-80.423-74.723L674.522,429.549H633.147l112.2-256.411a32.2,32.2,0,0,1-4.591-16.279,32.706,32.706,0,1,1,38.975,32.074Zm-130.3,27.848A35.354,35.354,0,1,0,584.7,236.423l-102,233.6a34.312,34.312,0,1,0,34.624,15.036L619.451,251.594A35.264,35.264,0,0,0,649.434,216.781ZM488.594,519.2a15.459,15.459,0,1,1,15.459-15.459A15.459,15.459,0,0,1,488.594,519.2ZM598.15,216.781a15.93,15.93,0,1,1,15.931,15.93A15.929,15.929,0,0,1,598.15,216.781Z"/></g></g><path class="h" d="M43.792,43.864H64.386c12.025,0,19.3,7.129,19.3,17.426v.144c0,11.665-9.073,17.714-20.378,17.714H54.881V94.269H43.792ZM63.666,69.282c5.544,0,8.785-3.312,8.785-7.632v-.144c0-4.969-3.457-7.633-9-7.633H54.881V69.282Z"/><path class="h" d="M91.888,43.864h11.089V84.188h25.13V94.269H91.888Z"/><path class="h" d="M153.737,43.5h10.224l21.6,50.765H173.971l-4.609-11.305H148.048L143.44,94.269H132.135ZM165.4,73.171l-6.7-16.346-6.7,16.346Z"/><path class="h" d="M198.592,54.089H183.254V43.864h41.764V54.089H209.681v40.18H198.592Z"/><path class="h" d="M233.511,43.864H271.89V53.945H244.6V64.674h24.05V74.755H244.6V94.269H233.511Z"/><path class="h" d="M341.941,43.864h23.042c6.409,0,11.377,1.8,14.69,5.113,2.808,2.808,4.32,6.768,4.32,11.521v.144c0,8.136-4.392,13.249-10.8,15.625l12.313,18H372.544l-10.8-16.13h-8.712v16.13h-11.09Zm22.323,24.483c5.4,0,8.5-2.881,8.5-7.129v-.145c0-4.752-3.312-7.2-8.713-7.2H353.031V68.347Z"/><path class="h" d="M394,43.864H405.95L419.2,65.178l13.25-21.314H444.4V94.269H433.384V61.361L419.2,82.892h-.287L404.87,61.578V94.269H394Z"/><path class="h" d="M43,159.067v-28.8H54.089V158.78c0,8.207,4.1,12.457,10.873,12.457s10.873-4.106,10.873-12.1V130.264H86.924v28.444c0,15.265-8.569,22.754-22.106,22.754S43,173.9,43,159.067Z"/><path class="h" d="M98.224,130.264h20.593c12.026,0,19.3,7.129,19.3,17.426v.145c0,11.664-9.073,17.712-20.378,17.712h-8.424v15.122H98.224ZM118.1,155.682c5.544,0,8.784-3.312,8.784-7.633v-.142c0-4.969-3.456-7.633-9-7.633h-8.568v15.408Z"/><path class="h" d="M146.319,130.264h19.658c15.841,0,26.787,10.873,26.787,25.059v.144c0,14.186-10.946,25.2-26.787,25.2H146.319Zm19.658,40.4c9.073,0,15.193-6.121,15.193-15.051v-.143c0-8.929-6.12-15.193-15.193-15.193h-8.568v30.387Z"/><path class="h" d="M216.306,129.905H226.53l21.6,50.764H236.54l-4.609-11.305H210.617l-4.608,11.305H194.7Zm11.665,29.666-6.7-16.346-6.7,16.346Z"/><path class="h" d="M261.161,140.489H245.824V130.264h41.763v10.225H272.25v40.18H261.161Z"/><path class="h" d="M296.079,130.264H334.1v9.865h-27v10.225h23.762v9.865H307.1V170.8h27.362v9.866H296.079Z"/><path class="h" d="M305.3,43a26.067,26.067,0,1,0,26.066,26.067A26.083,26.083,0,0,0,305.3,43Zm0,47.567a21.5,21.5,0,1,1,21.5-21.5A21.485,21.485,0,0,1,305.3,90.567Z"/><path class="f" d="M40.792,40.864H61.386c12.025,0,19.3,7.129,19.3,17.426v.144c0,11.665-9.073,17.714-20.378,17.714H51.881V91.269H40.792ZM60.666,66.282c5.544,0,8.785-3.312,8.785-7.632v-.144c0-4.969-3.457-7.633-9-7.633H51.881V66.282Z"/><path class="f" d="M88.888,40.864H99.977V81.188h25.13V91.269H88.888Z"/><path class="f" d="M150.737,40.5h10.224l21.6,50.765H170.971l-4.609-11.305H145.048L140.44,91.269H129.135ZM162.4,70.171l-6.7-16.346-6.7,16.346Z"/><path class="f" d="M195.592,51.089H180.254V40.864h41.764V51.089H206.681v40.18H195.592Z"/><path class="f" d="M230.511,40.864H268.89V50.945H241.6V61.674h24.05V71.755H241.6V91.269H230.511Z"/><path class="f" d="M338.941,40.864h23.042c6.409,0,11.377,1.8,14.69,5.113,2.808,2.808,4.32,6.768,4.32,11.521v.144c0,8.136-4.392,13.249-10.8,15.625l12.313,18H369.544l-10.8-16.13h-8.712v16.13h-11.09Zm22.323,24.483c5.4,0,8.5-2.881,8.5-7.129v-.145c0-4.752-3.312-7.2-8.713-7.2H350.031V65.347Z"/><path class="f" d="M391,40.864H402.95L416.2,62.178l13.25-21.314H441.4V91.269H430.384V58.361L416.2,79.892h-.287L401.87,58.578V91.269H391Z"/><path class="f" d="M40,156.067v-28.8H51.089V155.78c0,8.207,4.1,12.457,10.873,12.457s10.873-4.106,10.873-12.1V127.264H83.924v28.444c0,15.265-8.569,22.754-22.106,22.754S40,170.9,40,156.067Z"/><path class="f" d="M95.224,127.264h20.593c12.026,0,19.3,7.129,19.3,17.426v.145c0,11.664-9.073,17.712-20.378,17.712h-8.424v15.122H95.224ZM115.1,152.682c5.544,0,8.784-3.312,8.784-7.633v-.142c0-4.969-3.456-7.633-9-7.633h-8.568v15.408Z"/><path class="f" d="M143.319,127.264h19.658c15.841,0,26.787,10.873,26.787,25.059v.144c0,14.186-10.946,25.2-26.787,25.2H143.319Zm19.658,40.4c9.073,0,15.193-6.121,15.193-15.051v-.143c0-8.929-6.12-15.193-15.193-15.193h-8.568v30.387Z"/><path class="f" d="M213.306,126.905H223.53l21.6,50.764H233.54l-4.609-11.305H207.617l-4.608,11.305H191.7Zm11.665,29.666-6.7-16.346-6.7,16.346Z"/><path class="f" d="M258.161,137.489H242.824V127.264h41.763v10.225H269.25v40.18H258.161Z"/><path class="f" d="M293.079,127.264H331.1v9.865h-27v10.225h23.762v9.865H304.1V167.8h27.362v9.866H293.079Z"/><path class="f" d="M302.3,40a26.067,26.067,0,1,0,26.066,26.067A26.083,26.083,0,0,0,302.3,40Zm0,47.567a21.5,21.5,0,1,1,21.5-21.5A21.485,21.485,0,0,1,302.3,87.567Z"/><polygon class="f" points="302.297 55.616 294.062 63.847 295.514 65.299 301.273 59.536 301.273 76.517 303.32 76.517 303.32 59.536 309.079 65.299 310.531 63.847 302.297 55.616"/><rect class="f" x="301.261" y="47.699" width="2.072" height="2.072"/><rect class="f" x="295.333" y="48.745" width="2.072" height="2.072" transform="translate(0.847 104.366) rotate(-20)"/><rect class="f" x="290.12" y="51.754" width="2.072" height="2.072" transform="translate(34.185 199.502) rotate(-40)"/><rect class="f" x="286.251" y="56.365" width="2.072" height="2.072" transform="translate(93.933 277.499) rotate(-60)"/><rect class="f" x="284.193" y="62.021" width="2.072" height="2.072" transform="translate(173.6 333.003) rotate(-80)"/><rect class="f" x="284.193" y="68.04" width="2.072" height="2.072" transform="translate(-7.662 50.579) rotate(-10)"/><rect class="f" x="286.251" y="73.696" width="2.072" height="2.072" transform="translate(1.123 153.656) rotate(-30)"/><rect class="f" x="290.12" y="78.307" width="2.072" height="2.072" transform="translate(43.225 251.381) rotate(-50)"/><rect class="f" x="295.333" y="81.316" width="2.072" height="2.072" transform="translate(117.619 332.682) rotate(-70)"/><rect class="f" x="301.261" y="82.361" width="2.072" height="2.072"/><rect class="f" x="307.188" y="81.316" width="2.072" height="2.072" transform="matrix(0.94, -0.342, 0.342, 0.94, -9.578, 110.385)"/><rect class="f" x="312.401" y="78.307" width="2.072" height="2.072" transform="matrix(0.766, -0.643, 0.643, 0.766, 22.33, 220.036)"/><rect class="f" x="316.27" y="73.696" width="2.072" height="2.072" transform="matrix(0.5, -0.866, 0.866, 0.5, 93.933, 312.161)"/><rect class="f" x="318.328" y="68.04" width="2.072" height="2.072" transform="matrix(0.174, -0.985, 0.985, 0.174, 195.881, 371.594)"/><rect class="f" x="318.328" y="62.021" width="2.072" height="2.072" transform="translate(-6.098 56.415) rotate(-10)"/><rect class="f" x="316.27" y="56.365" width="2.072" height="2.072" transform="translate(13.81 166.343) rotate(-30)"/><rect class="f" x="312.401" y="51.754" width="2.072" height="2.072" transform="translate(71.524 258.964) rotate(-50)"/><rect class="f" x="307.188" y="48.745" width="2.072" height="2.072" transform="translate(156.027 322.391) rotate(-70)"/></svg>