<svg xmlns="http://www.w3.org/2000/svg" xmlns:xlink="http://www.w3.org/1999/xlink" width="850" height="400" viewBox="0 0 850 400"><defs><style>.a{fill:none;}.b{fill:#37474f;}.c{fill:#455a64;opacity:0.5;}.d{opacity:0.8;}.e{clip-path:url(#a);}.f{fill:#00acc1;}.g{fill:#fff;}.h{fill:#0097a7;}.i{clip-path:url(#b);}</style><clipPath id="a"><rect class="a" width="850" height="400"/></clipPath><clipPath id="b"><rect class="a" y="-420" width="850" height="400"/></clipPath></defs><title>PressRelease</title><rect class="b" width="850" height="400"/><rect class="c" x="11" y="340" width="50" height="50" rx="5"/><rect class="c" x="500" y="221" width="50" height="50" rx="5"/><rect class="c" x="525" y="315" width="50" height="50" rx="5"/><rect class="c" x="165" y="171" width="50" height="50" rx="5"/><rect class="c" x="600" y="67" width="50" height="50" rx="5"/><rect class="c" x="575" y="92" width="50" height="50" rx="5"/><rect class="c" x="190" y="315" width="50" height="50" rx="5"/><rect class="c" x="37" y="15" width="50" height="50" rx="5"/><rect class="c" x="338" y="290" width="50" height="50" rx="5"/><rect class="c" x="750" y="335" width="50" height="50" rx="5"/><rect class="c" x="775" y="171" width="50" height="50" rx="5"/><rect class="c" x="800" width="50" height="50" rx="5"/><rect class="c" x="431" y="17" width="50" height="50" rx="5"/><rect class="c" x="288" y="240" width="50" height="50" rx="5"/><rect class="c" x="36" y="196" width="50" height="50" rx="5"/><rect class="c" x="675" y="285" width="50" height="50" rx="5"/><rect class="c" x="215" y="340" width="50" height="50" rx="5"/><g class="d"><g class="e"><path class="f" d="M471.612-.282A11.459,11.459,0,0,0,464.1,4.012a207.348,207.348,0,0,0-1.073,264.776,11.568,11.568,0,1,0,17.89-14.67,184.021,184.021,0,0,1,.715-235.436A11.447,11.447,0,0,0,471.612-.282Zm342.777,0a11.45,11.45,0,0,0-6.44,18.964,184.02,184.02,0,0,1,.716,235.436,11.568,11.568,0,0,0,17.89,14.67A207.35,207.35,0,0,0,825.481,4.012,11.432,11.432,0,0,0,815.463-.282ZM538.164,37.288a11.455,11.455,0,0,0-7.514,4.294,148.836,148.836,0,0,0,0,191.068,11.451,11.451,0,1,0,17.532-14.67,126.1,126.1,0,0,1,0-161.728,11.447,11.447,0,0,0-10.018-18.964Zm209.674,0A11.45,11.45,0,0,0,741.4,56.252a126.1,126.1,0,0,1,0,161.728,11.452,11.452,0,1,0,17.533,14.67,148.836,148.836,0,0,0,0-191.068,11.43,11.43,0,0,0-10.019-4.294ZM644.79,90.6A45.8,45.8,0,0,0,617.6,173.254L478.768,540.362a22.928,22.928,0,0,0,42.937,16.1l14.67-38.286L732.81,463.434l35.065,93.03a22.928,22.928,0,1,0,42.936-16.1L671.983,173.254A45.8,45.8,0,0,0,644.79,90.6Zm0,140.975,29.34,77.286-68.341,25.762Zm45.441,119.865L708.479,400.1l-72.992-27.551ZM580.743,400.818l87.3,32.918L556.412,464.865Z"/><path class="g" d="M448.714-23.562a11.454,11.454,0,0,0-7.514,4.293,207.353,207.353,0,0,0-1.074,264.776,11.568,11.568,0,0,0,17.891-14.67A184.021,184.021,0,0,1,458.732-4.6a11.455,11.455,0,0,0,1.566-12.97A11.441,11.441,0,0,0,448.714-23.562Zm342.774,0a11.418,11.418,0,0,0-8.81,7.6,11.368,11.368,0,0,0,2.37,11.36,184.023,184.023,0,0,1,.716,235.436,11.568,11.568,0,0,0,17.89,14.67A207.35,207.35,0,0,0,802.58-19.269a11.428,11.428,0,0,0-10.018-4.293ZM515.265,14.007a11.455,11.455,0,0,0-7.514,4.294,148.836,148.836,0,0,0,0,191.068,11.451,11.451,0,1,0,17.532-14.67,126.108,126.108,0,0,1,0-161.728,11.447,11.447,0,0,0-10.018-18.964Zm209.672,0a11.45,11.45,0,0,0-6.44,18.964,126.1,126.1,0,0,1,0,161.728,11.451,11.451,0,1,0,17.532,14.67,148.836,148.836,0,0,0,0-191.068,11.427,11.427,0,0,0-10.018-4.294ZM621.89,78.77a34.278,34.278,0,0,0-22.184,60.469L450.861,532.825a11.451,11.451,0,1,0,21.468,7.872l24.688-65.121,226.489-61.185L771.452,540.7a11.45,11.45,0,1,0,21.468-7.872L644.074,139.239A34.278,34.278,0,0,0,621.89,78.77Zm-.715,68.7h1.431l49.376,130.6L556.054,319.931Zm59.037,152.426,32.918,86.231-139.185-48.3ZM543.889,351.418,685.579,400.8l-178.9,48.661Z"/></g></g><path class="h" d="M43,43.72H63.594c12.025,0,19.3,7.129,19.3,17.426v.143C82.892,72.954,73.819,79,62.514,79H54.089V94.124H43ZM62.874,69.138c5.544,0,8.785-3.313,8.785-7.633v-.144c0-4.968-3.457-7.632-9-7.632H54.089V69.138Z"/><path class="h" d="M91.1,43.72h23.042c6.408,0,11.377,1.8,14.689,5.112,2.808,2.809,4.32,6.769,4.32,11.522V60.5c0,8.137-4.392,13.249-10.8,15.625l12.313,18H121.7l-10.8-16.13h-8.712v16.13H91.1ZM113.418,68.2c5.4,0,8.5-2.881,8.5-7.129v-.144c0-4.752-3.313-7.2-8.713-7.2H102.185V68.2Z"/><path class="h" d="M143.151,43.72h38.02v9.865h-27V63.81h23.763v9.864H154.168V84.259h27.363v9.865h-38.38Z"/><path class="h" d="M187.935,86.779l6.553-7.848c4.536,3.744,9.288,6.12,15.049,6.12,4.536,0,7.273-1.8,7.273-4.752v-.144c0-2.808-1.728-4.249-10.153-6.409-10.153-2.592-16.706-5.4-16.706-15.409v-.144C189.951,49.048,197.3,43,207.593,43a29.176,29.176,0,0,1,18.721,6.408l-5.76,8.353c-4.465-3.1-8.857-4.969-13.1-4.969s-6.481,1.944-6.481,4.393v.144c0,3.313,2.16,4.393,10.873,6.624,10.225,2.664,15.986,6.337,15.986,15.122v.144c0,10.009-7.633,15.625-18.506,15.625A32.071,32.071,0,0,1,187.935,86.779Z"/><path class="h" d="M233.3,86.779l6.553-7.848c4.536,3.744,9.289,6.12,15.049,6.12,4.537,0,7.273-1.8,7.273-4.752v-.144c0-2.808-1.728-4.249-10.153-6.409-10.153-2.592-16.7-5.4-16.7-15.409v-.144c0-9.145,7.344-15.193,17.641-15.193a29.18,29.18,0,0,1,18.722,6.408l-5.761,8.353c-4.464-3.1-8.856-4.969-13.1-4.969s-6.48,1.944-6.48,4.393v.144c0,3.313,2.16,4.393,10.873,6.624,10.224,2.664,15.985,6.337,15.985,15.122v.144c0,10.009-7.633,15.625-18.506,15.625A32.073,32.073,0,0,1,233.3,86.779Z"/><path class="h" d="M43,130.12H66.042c6.409,0,11.377,1.8,14.689,5.113,2.809,2.809,4.321,6.767,4.321,11.521v.143c0,8.137-4.392,13.25-10.8,15.625l12.313,18H73.6L62.8,164.4H54.089v16.129H43ZM65.322,154.6c5.4,0,8.5-2.881,8.5-7.129v-.144c0-4.752-3.313-7.2-8.713-7.2H54.089V154.6Z"/><path class="h" d="M95.056,130.12h38.019v9.865h-27v10.224h23.762v9.866H106.073v10.584h27.362v9.865H95.056Z"/><path class="h" d="M143.295,130.12h11.09v40.324h25.13v10.08h-36.22Z"/><path class="h" d="M187.862,130.12h38.02v9.865h-27v10.224h23.763v9.866H198.879v10.584h27.363v9.865h-38.38Z"/><path class="h" d="M253.384,129.76h10.224l21.6,50.764H273.618l-4.609-11.305H247.7l-4.608,11.305h-11.3Zm11.665,29.666-6.7-16.345-6.7,16.345Z"/><path class="h" d="M288.806,173.18l6.552-7.849c4.537,3.744,9.289,6.121,15.05,6.121,4.536,0,7.272-1.8,7.272-4.752v-.145c0-2.808-1.728-4.248-10.153-6.408-10.152-2.592-16.7-5.4-16.7-15.41v-.143c0-9.146,7.345-15.193,17.641-15.193a29.175,29.175,0,0,1,18.722,6.408l-5.761,8.352c-4.464-3.1-8.856-4.969-13.1-4.969s-6.48,1.945-6.48,4.392v.145c0,3.313,2.16,4.393,10.872,6.625,10.226,2.664,15.986,6.336,15.986,15.121v.145c0,10.007-7.633,15.625-18.506,15.625A32.07,32.07,0,0,1,288.806,173.18Z"/><path class="h" d="M338.342,130.12h38.019v9.865h-27v10.224h23.762v9.866H349.359v10.584h27.362v9.865H338.342Z"/><path class="g" d="M40,40.72H60.594c12.025,0,19.3,7.129,19.3,17.426v.143C79.892,69.954,70.819,76,59.514,76H51.089V91.124H40ZM59.874,66.138c5.544,0,8.785-3.313,8.785-7.633v-.144c0-4.968-3.457-7.632-9-7.632H51.089V66.138Z"/><path class="g" d="M88.1,40.72h23.042c6.408,0,11.377,1.8,14.689,5.112,2.808,2.809,4.32,6.769,4.32,11.522V57.5c0,8.137-4.392,13.249-10.8,15.625l12.313,18H118.7l-10.8-16.13H99.185v16.13H88.1ZM110.418,65.2c5.4,0,8.5-2.881,8.5-7.129v-.144c0-4.752-3.313-7.2-8.713-7.2H99.185V65.2Z"/><path class="g" d="M140.151,40.72h38.02v9.865h-27V60.81h23.763v9.864H151.168V81.259h27.363v9.865h-38.38Z"/><path class="g" d="M184.935,83.779l6.553-7.848c4.536,3.744,9.288,6.12,15.049,6.12,4.536,0,7.273-1.8,7.273-4.752v-.144c0-2.808-1.728-4.249-10.153-6.409-10.153-2.592-16.706-5.4-16.706-15.409v-.144C186.951,46.048,194.3,40,204.593,40a29.176,29.176,0,0,1,18.721,6.408l-5.76,8.353c-4.465-3.1-8.857-4.969-13.1-4.969s-6.481,1.944-6.481,4.393v.144c0,3.313,2.16,4.393,10.873,6.624,10.225,2.664,15.986,6.337,15.986,15.122v.144c0,10.009-7.633,15.625-18.506,15.625A32.071,32.071,0,0,1,184.935,83.779Z"/><path class="g" d="M230.3,83.779l6.553-7.848c4.536,3.744,9.289,6.12,15.049,6.12,4.537,0,7.273-1.8,7.273-4.752v-.144c0-2.808-1.728-4.249-10.153-6.409-10.153-2.592-16.7-5.4-16.7-15.409v-.144c0-9.145,7.344-15.193,17.641-15.193a29.18,29.18,0,0,1,18.722,6.408l-5.761,8.353c-4.464-3.1-8.856-4.969-13.1-4.969s-6.48,1.944-6.48,4.393v.144c0,3.313,2.16,4.393,10.873,6.624,10.224,2.664,15.985,6.337,15.985,15.122v.144c0,10.009-7.633,15.625-18.506,15.625A32.073,32.073,0,0,1,230.3,83.779Z"/><path class="g" d="M40,127.12H63.042c6.409,0,11.377,1.8,14.689,5.113,2.809,2.809,4.321,6.767,4.321,11.521v.143c0,8.137-4.392,13.25-10.8,15.625l12.313,18H70.6L59.8,161.4H51.089v16.129H40ZM62.322,151.6c5.4,0,8.5-2.881,8.5-7.129v-.144c0-4.752-3.313-7.2-8.713-7.2H51.089V151.6Z"/><path class="g" d="M92.056,127.12h38.019v9.865h-27v10.224h23.762v9.866H103.073v10.584h27.362v9.865H92.056Z"/><path class="g" d="M140.295,127.12h11.09v40.324h25.13v10.08h-36.22Z"/><path class="g" d="M184.862,127.12h38.02v9.865h-27v10.224h23.763v9.866H195.879v10.584h27.363v9.865h-38.38Z"/><path class="g" d="M250.384,126.76h10.224l21.6,50.764H270.618l-4.609-11.305H244.7l-4.608,11.305h-11.3Zm11.665,29.666-6.7-16.345-6.7,16.345Z"/><path class="g" d="M285.806,170.18l6.552-7.849c4.537,3.744,9.289,6.121,15.05,6.121,4.536,0,7.272-1.8,7.272-4.752v-.145c0-2.808-1.728-4.248-10.153-6.408-10.152-2.592-16.7-5.4-16.7-15.41v-.143c0-9.146,7.345-15.193,17.641-15.193a29.175,29.175,0,0,1,18.722,6.408l-5.761,8.352c-4.464-3.1-8.856-4.969-13.1-4.969s-6.48,1.945-6.48,4.392v.145c0,3.313,2.16,4.393,10.872,6.625,10.226,2.664,15.986,6.336,15.986,15.121v.145c0,10.007-7.633,15.625-18.506,15.625A32.07,32.07,0,0,1,285.806,170.18Z"/><path class="g" d="M335.342,127.12h38.019v9.865h-27v10.224h23.762v9.866H346.359v10.584h27.362v9.865H335.342Z"/><g class="d"><g class="i"><path class="g" d="M885.1,33.458H789.836a7.985,7.985,0,0,1-7.319-11.177l55.229-126.612a43.082,43.082,0,0,1-4.964-20.115,43.386,43.386,0,0,1,43.339-43.336,43.386,43.386,0,0,1,43.338,43.336,42.934,42.934,0,0,1-32.445,41.817L862.055-25.353c9.319-.009,20.49-.031,31.747-.192,50.214-.717,110.862-49.026,110.862-107.943,0-45.884-32.473-95.729-105.01-103.729l-.443-.03a7.987,7.987,0,0,1-5.635-2.884,7.982,7.982,0,0,1-1.765-6.078c5.411-43.1-10.052-70.962-23.977-86.746-19.353-21.935-47.762-34.516-77.941-34.516-41.77,0-77.086,29.23-93.554,58.2-5.291,9.305-10.654,20.9-10.707,21.014a7.991,7.991,0,0,1-6.656,4.617,7.987,7.987,0,0,1-7.267-3.579c-.011-.012-4.63-6.7-17.443-16.73C635.91-318.316,615.947-325.6,594.932-325.6c-42.722,0-70.686,35.39-76.229,70.349-1.854,11.7-2.386,19.513-2.408,19.839a7.989,7.989,0,0,1-3.237,5.905,8,8,0,0,1-6.6,1.331c-65.905-15.877-117.331,25.708-131.335,58.808C346.254-101.121,389.158-60.94,405.88-48.545l26.644-61.036a40.167,40.167,0,0,1-3.787-16.875,40.737,40.737,0,0,1,40.69-40.69,40.737,40.737,0,0,1,40.69,40.69,40.8,40.8,0,0,1-28.479,38.809L435.22,18.493a7.988,7.988,0,0,1-10.2,4.244C352.771-5.3,312.984-58.894,312.984-128.184c0-85.766,69.751-155.549,155.511-155.618,15.123-57.331,66.851-98.309,125.283-98.309,27.584,0,49.917,6.012,71.317,19.35,28.437-39.671,73.468-62.254,124.8-62.254,39.9,0,79.87,14.516,109.662,39.824,29.937,25.432,47.12,59.07,48.819,95.273,73.246,23.454,116.761,81.061,116.761,155.139C1065.135-53.532,992.793,33.458,885.1,33.458Zm-83.07-15.969H885.1c98.141,0,164.067-78.733,164.067-152.268,0-32.866-10.8-112.446-110.866-141.519a7.985,7.985,0,0,1-5.756-7.668c0-74.82-73.759-125.08-142.651-125.08-48.605,0-90.847,22.453-115.893,61.6a7.984,7.984,0,0,1-5.179,3.53,7.96,7.96,0,0,1-6.132-1.3c-20.644-14.478-41.9-20.934-68.911-20.934-53.007,0-99.744,38.606-111.128,91.8a7.986,7.986,0,0,1-7.456,6.305l-.424.019c-2.2.1-4.29.187-6.151.187-77.013,0-139.666,62.645-139.666,139.649,0,60.864,32.719,106.767,94.752,133.154L468.562-97.6a7.979,7.979,0,0,1,5.748-4.629,24.764,24.764,0,0,0,19.838-24.226,24.749,24.749,0,0,0-24.721-24.721,24.749,24.749,0,0,0-24.721,24.721,24.3,24.3,0,0,0,3.537,12.5,7.978,7.978,0,0,1,.446,7.26l-31.866,73a7.978,7.978,0,0,1-4.561,4.3c-9.229,3.39-30.939-19.225-31.859-20.189-18.958-19.888-46.764-62.7-19.986-126,15.481-36.6,70.228-82.3,140.828-69.971.391-3.332.936-7.459,1.686-12.19,6.6-41.653,40.328-83.818,92-83.818,24.667,0,47.942,8.425,69.175,25.042a147.979,147.979,0,0,1,12.313,10.688c1.806-3.574,3.91-7.588,6.037-11.329,18.754-32.986,59.247-66.271,107.436-66.271,34.759,0,67.533,14.549,89.916,39.919,15.213,17.243,32.033,46.795,28.649,91.347,77.007,11.568,112.175,68.891,112.175,118.685,0,68.765-68.057,123.075-126.6,123.911-12.382.176-24.613.187-34.439.2l-9.706.015h-.027a7.986,7.986,0,0,1-6.671-3.6,7.983,7.983,0,0,1-.649-7.576l31.493-72.269a7.988,7.988,0,0,1,6.14-4.708,27.119,27.119,0,0,0,23.319-26.929,27.4,27.4,0,0,0-27.369-27.367,27.4,27.4,0,0,0-27.37,27.367A27.23,27.23,0,0,0,853.34-109.3a7.987,7.987,0,0,1,.674,7.619ZM690.491,33.5H649.115A7.985,7.985,0,0,1,641.8,22.319L752.469-230.6a39.094,39.094,0,0,1-3.73-16.575,40.737,40.737,0,0,1,40.691-40.69,40.737,40.737,0,0,1,40.69,40.69,40.75,40.75,0,0,1-28.671,38.854L697.807,28.717A7.984,7.984,0,0,1,690.491,33.5ZM661.324,17.534h23.945L788.382-218.3a7.983,7.983,0,0,1,5.792-4.64,24.733,24.733,0,0,0,19.977-24.237,24.749,24.749,0,0,0-24.721-24.721,24.75,24.75,0,0,0-24.722,24.721,24.186,24.186,0,0,0,3.506,12.259,7.987,7.987,0,0,1,.416,7.22ZM504.563,142a42.249,42.249,0,0,1-11.611-82.883l98.759-226.168a43.114,43.114,0,0,1-5-20.2,43.388,43.388,0,0,1,43.337-43.339,43.388,43.388,0,0,1,43.338,43.339,42.975,42.975,0,0,1-32.3,41.788l-98.867,226A42.224,42.224,0,0,1,504.563,142ZM630.049-214.619a27.4,27.4,0,0,0-27.368,27.37,27.207,27.207,0,0,0,4.62,15.2,7.986,7.986,0,0,1,.683,7.64L505.978,69.188a7.984,7.984,0,0,1-5.946,4.671A26.327,26.327,0,1,0,526.6,85.388a7.988,7.988,0,0,1-.626-7.559L628.105-155.637a7.985,7.985,0,0,1,6.1-4.692,27.141,27.141,0,0,0,23.21-26.92A27.4,27.4,0,0,0,630.049-214.619Zm246.072,74.244a15.93,15.93,0,0,1,15.929,15.93,15.93,15.93,0,0,1-15.929,15.93,15.93,15.93,0,0,1-15.93-15.93A15.93,15.93,0,0,1,876.121-140.375ZM504.563,115.166a15.459,15.459,0,1,1,15.459-15.459A15.459,15.459,0,0,1,504.563,115.166ZM614.119-187.25a15.929,15.929,0,0,1,15.931-15.929,15.929,15.929,0,0,1,15.929,15.929,15.93,15.93,0,0,1-15.929,15.93A15.93,15.93,0,0,1,614.119-187.25Z"/><path class="f" d="M924.559-299.934C924.559-376.223,851.725-433,773.925-433c-50.935,0-95.751,23.29-122.62,65.286-23.087-16.19-46.137-22.381-73.5-22.381-58.852,0-107.315,43.818-118.935,98.111-2.226.1-4.35.2-6.223.2-81.426,0-147.65,66.228-147.65,147.634C305-77.007,343.284-27.315,411.935-.675L459.908-110.37a32.705,32.705,0,0,0,26.256-32.055,32.7,32.7,0,0,0-32.7-32.7,32.7,32.7,0,0,0-32.7,32.7,32.4,32.4,0,0,0,4.649,16.564l-31.866,73c-1.633.6-79.836-45.52-41.736-135.586,15.025-35.517,70.242-80.391,140.558-63.459.01-.14.547-8.308,2.489-20.562,6.383-40.253,38.676-77.084,84.114-77.084,22.225,0,44.051,7.534,64.256,23.346,14.311,11.2,19.2,18.634,19.2,18.634s5.486-11.891,11.015-21.616c18.085-31.81,56.344-62.235,100.5-62.235,61.008,0,120.029,49.082,109.839,130.241l.618.04c73.879,8.074,112.3,59.445,112.3,111.687,0,62.837-63.517,115.139-118.732,115.928-16.7.238-32.883.172-44.058.21l31.493-72.27a35.257,35.257,0,0,0,30.123-34.825,35.353,35.353,0,0,0-35.353-35.353A35.353,35.353,0,0,0,824.8-140.414a35.162,35.162,0,0,0,5.929,19.566L773.867,9.5H869.13c103.279,0,172.052-82.919,172.052-160.251C1041.182-213.037,1008.212-275.629,924.559-299.934Zm-64.407,143.59a15.93,15.93,0,0,1,15.929,15.93,15.93,15.93,0,0,1-15.929,15.93,15.93,15.93,0,0,1-15.93-15.93A15.93,15.93,0,0,1,860.152-156.344Zm-80.423-74.723L674.522,9.549H633.147l112.2-256.411a32.2,32.2,0,0,1-4.591-16.279,32.706,32.706,0,0,1,32.706-32.7,32.706,32.706,0,0,1,32.706,32.7A32.693,32.693,0,0,1,779.729-231.067Zm-130.3,27.848a35.354,35.354,0,0,0-35.353-35.353,35.353,35.353,0,0,0-35.354,35.353,35.171,35.171,0,0,0,5.971,19.642l-102,233.6A34.312,34.312,0,1,0,517.317,65.06L619.451-168.406A35.264,35.264,0,0,0,649.434-203.219ZM488.594,99.2a15.459,15.459,0,1,1,15.459-15.459A15.459,15.459,0,0,1,488.594,99.2ZM598.15-203.219a15.929,15.929,0,0,1,15.931-15.929,15.929,15.929,0,0,1,15.929,15.929,15.93,15.93,0,0,1-15.929,15.93A15.93,15.93,0,0,1,598.15-203.219Z"/></g></g></svg>