<svg xmlns="http://www.w3.org/2000/svg" width="460.48" height="502.91" viewBox="0 0 460.48 502.91"><defs><style>.a{font-size:18px;}.a,.b,.v{fill:#0071c5;}.a,.b,.f,.g,.l,.o,.r{font-family:Lato-Light, Lato;}.b,.o,.r{font-size:12px;}.c{letter-spacing:-0.03em;}.d{letter-spacing:-0.02em;}.e{letter-spacing:0em;}.f,.g,.l{font-size:14px;}.f,.g,.l,.r,.z{fill:#008245;}.g{letter-spacing:0em;}.h{letter-spacing:-0.02em;}.i{letter-spacing:-0.06em;}.j{letter-spacing:-0.02em;}.k{letter-spacing:-0.03em;}.l{letter-spacing:-0.02em;}.m{letter-spacing:0em;}.n{letter-spacing:-0.01em;}.o,.x{fill:#f28411;}.p{letter-spacing:-0.06em;}.q{letter-spacing:0em;}.s{letter-spacing:-0.08em;}.t{letter-spacing:-0.02em;}.aa,.ab,.ac,.ad,.ae,.af,.ag,.ah,.u,.w,.y{fill:none;stroke-miterlimit:10;stroke-width:1.5px;}.aa,.ab,.ac,.ad,.ae,.af,.ag,.ah,.u{stroke:#0071c5;}.w{stroke:#f28411;}.y{stroke:#008245;}.aa{stroke-dasharray:4.13 4.13 4.13 4.13;}.ab{stroke-dasharray:4.13 4.13 4.13 4.13 4.13 4.13;}.ac{stroke-dasharray:4.48 4.48 4.48 4.48;}.ad{stroke-dasharray:4.89 4.89 4.89 4.89;}.ae{stroke-dasharray:4.89 4.89 4.89 4.89 4.89 4.89;}.af{stroke-dasharray:3.58 3.58 3.58 3.58;}.ag{stroke-dasharray:4.43 4.43 4.43 4.43;}.ah{stroke-dasharray:4.43 4.43 4.43 4.43 4.43 4.43;}</style></defs><title>Intel Curie Block Diagram</title><text class="a" transform="translate(37.38 21.65)">Intel</text><text class="a" transform="translate(72.39 15.66) scale(0.58)">®</text><text class="a" transform="translate(80.86 21.65)"><tspan xml:space="preserve"> Quark</tspan></text><text class="a" transform="translate(133.18 15.66) scale(0.58)">™</text><text class="a" transform="translate(16.48 43.25)">SE Microcontroller<tspan x="45.33" y="21.6">C1000</tspan></text><text class="b" transform="translate(47.65 100.13)">Host Subsystem</text><text class="b" transform="translate(190.72 93.89)"><tspan class="c">U</tspan><tspan x="8.45" y="0">A</tspan><tspan class="d" x="16.19" y="0">R</tspan><tspan class="e" x="23.49" y="0">T 0</tspan></text><text class="f" transform="translate(275.46 94.78)">Bluetooth</text><text class="g" transform="translate(335.19 90.12) scale(0.58)">®</text><text class="f" transform="translate(273.63 111.58)"><tspan class="h">L</tspan><tspan x="6.93" y="0">ow Energy</tspan></text><text class="b" transform="translate(46.74 215.72)">DSP Sensor Hub</text><text class="b" transform="translate(192.82 209.48)">SPI 1.1</text><text class="b" transform="translate(56.71 287.59)">80 kB SRAM</text><text class="b" transform="translate(55.87 324.98)">284 kB Flash</text><text class="b" transform="translate(13.49 362.37)">J<tspan class="i" x="5.45" y="0">T</tspan><tspan class="j" x="11.77" y="0">A</tspan><tspan x="19.33" y="0">G and Debugging Support</tspan></text><text class="b" transform="translate(45.4 399.76)">DMA 8 Channels</text><text class="b" transform="translate(25.67 437.15)"><tspan class="k">P</tspan><tspan x="6.82" y="0">attern Matching Engine</tspan></text><text class="l" transform="translate(36.13 497.45)">P<tspan class="m" x="8.1" y="0">ower Supervisor</tspan></text><text class="f" transform="translate(285.96 446.31)">Battery<tspan x="-2.13" y="16.8">Charger</tspan></text><text class="f" transform="translate(289.26 390.29)"><tspan class="n">P</tspan><tspan x="8.1" y="0">ower</tspan><tspan x="-12.84" y="16.8">Supervisor</tspan></text><text class="f" transform="translate(278.77 352.16)">LDO 1.8V</text><text class="f" transform="translate(275.39 298.64)">1.8V / 3.3V<tspan x="-10.95" y="16.8">Bulk Regulator</tspan></text><text class="f" transform="translate(278.77 261.33)">LDO 3.3V</text><text class="f" transform="translate(290.93 208.12)">6-axis<tspan x="-26.15" y="16.8">Combo Sensor</tspan></text><text class="o" transform="translate(202.74 125.84)">32MHz<tspan x="5.97" y="14.4">X</tspan><tspan class="p" x="13.16" y="14.4">T</tspan><tspan x="19.48" y="14.4">AL</tspan></text><text class="o" transform="translate(263.36 159.53)">32KHz<tspan x="6.03" y="14.4">OSC</tspan></text><text class="o" transform="translate(316.04 159.53)">32MHz<tspan x="5.97" y="14.4">X</tspan><tspan class="i" x="13.16" y="14.4">T</tspan><tspan class="q" x="19.49" y="14.4">AL</tspan></text><text class="r" transform="translate(409.56 92.93)">Balun<tspan class="s" x="-17.1" y="14.4">T</tspan><tspan class="t" x="-11.05" y="14.4">r</tspan><tspan x="-6.58" y="14.4">ansformer</tspan></text><line class="u" x1="169.97" y1="96.12" x2="251.25" y2="96.12"/><polygon class="v" points="163.62 96.12 172.57 99.78 170.45 96.12 172.57 92.47 163.62 96.12"/><polygon class="v" points="257.6 96.12 248.65 99.78 250.77 96.12 248.65 92.47 257.6 96.12"/><line class="w" x1="183.65" y1="129.03" x2="198.47" y2="129.03"/><polygon class="x" points="177.3 129.03 186.25 132.69 184.13 129.03 186.25 125.38 177.3 129.03"/><line class="w" x1="183.65" y1="162.72" x2="257.6" y2="162.72"/><polygon class="x" points="177.3 162.72 186.25 166.38 184.13 162.72 186.25 159.06 177.3 162.72"/><line class="w" x1="281.53" y1="142.1" x2="281.53" y2="125.51"/><polygon class="x" points="281.52 119.15 285.18 128.11 281.52 125.98 277.87 128.11 281.52 119.15"/><line class="w" x1="335.7" y1="142.1" x2="335.7" y2="125.51"/><polygon class="x" points="335.7 119.15 339.36 128.11 335.7 125.98 332.04 128.11 335.7 119.15"/><line class="u" x1="169.97" y1="211.72" x2="251.25" y2="211.72"/><polygon class="v" points="163.62 211.72 172.57 215.37 170.45 211.72 172.57 208.06 163.62 211.72"/><polygon class="v" points="257.6 211.72 248.65 215.37 250.77 211.72 248.65 208.06 257.6 211.72"/><line class="y" x1="183.65" y1="256.83" x2="257.6" y2="256.83"/><polygon class="z" points="177.3 256.83 186.25 260.49 184.13 256.83 186.25 253.17 177.3 256.83"/><line class="y" x1="177.3" y1="302.24" x2="251.25" y2="302.24"/><polygon class="z" points="257.6 302.24 248.65 305.9 250.77 302.24 248.65 298.58 257.6 302.24"/><line class="y" x1="183.65" y1="347.65" x2="257.6" y2="347.65"/><polygon class="z" points="177.3 347.65 186.25 351.31 184.13 347.65 186.25 343.99 177.3 347.65"/><line class="y" x1="183.65" y1="450.03" x2="257.6" y2="450.03"/><polygon class="z" points="177.3 450.03 186.25 453.69 184.13 450.03 186.25 446.37 177.3 450.03"/><line class="y" x1="365.98" y1="96.12" x2="382.4" y2="96.12"/><polygon class="z" points="359.63 96.12 368.58 99.78 366.45 96.12 368.58 92.47 359.63 96.12"/><polygon class="z" points="388.75 96.12 379.8 99.78 381.92 96.12 379.8 92.47 388.75 96.12"/><line class="y" x1="365.98" y1="347.65" x2="394.89" y2="347.65"/><polygon class="z" points="359.63 347.65 368.58 351.31 366.45 347.65 368.58 343.99 359.63 347.65"/><polyline class="y" points="365.98 302.24 394.89 302.24 394.89 393.89 359.63 393.89"/><polygon class="z" points="359.63 302.24 368.58 305.9 366.45 302.24 368.58 298.58 359.63 302.24"/><line class="y" x1="89.03" y1="483.73" x2="89.03" y2="469.65"/><polygon class="z" points="89.03 463.3 92.68 472.25 89.03 470.13 85.37 472.25 89.03 463.3"/><rect class="u" x="0.75" y="0.75" width="176.55" height="462.55"/><polyline class="u" points="163.62 107.32 163.62 109.57 161.37 109.57"/><line class="aa" x1="157.23" y1="109.57" x2="142.77" y2="109.57"/><line class="ab" x1="140.7" y1="109.57" x2="18.75" y2="109.57"/><polyline class="u" points="16.68 109.57 14.43 109.57 14.43 107.32"/><line class="ac" x1="14.43" y1="102.84" x2="14.43" y2="87.17"/><polyline class="u" points="14.43 84.93 14.43 82.68 16.68 82.68"/><line class="aa" x1="20.82" y1="82.68" x2="35.28" y2="82.68"/><line class="ab" x1="37.35" y1="82.68" x2="159.3" y2="82.68"/><polyline class="u" points="161.37 82.68 163.62 82.68 163.62 84.93"/><line class="ac" x1="163.62" y1="89.41" x2="163.62" y2="105.08"/><rect class="y" x="19.93" y="483.73" width="138.19" height="18.43"/><rect class="y" x="257.6" y="427" width="102.02" height="46.06"/><rect class="y" x="257.6" y="370.86" width="102.02" height="46.06"/><rect class="y" x="257.6" y="334.53" width="102.02" height="26.25"/><rect class="y" x="257.6" y="281.68" width="102.02" height="41.11"/><rect class="y" x="257.6" y="243.7" width="102.02" height="26.25"/><rect class="y" x="257.6" y="188.68" width="102.02" height="46.06"/><rect class="w" x="257.6" y="142.1" width="47.85" height="41.24"/><rect class="w" x="311.78" y="142.1" width="47.85" height="41.24"/><rect class="w" x="198.47" y="108.41" width="47.85" height="41.24"/><rect class="y" x="257.6" y="73.09" width="102.02" height="46.06"/><rect class="y" x="388.75" y="77.42" width="70.97" height="37.4"/><polyline class="u" points="163.62 222.91 163.62 225.16 161.37 225.16"/><line class="aa" x1="157.23" y1="225.16" x2="142.77" y2="225.16"/><line class="ab" x1="140.7" y1="225.16" x2="18.75" y2="225.16"/><polyline class="u" points="16.68 225.16 14.43 225.16 14.43 222.91"/><line class="ac" x1="14.43" y1="218.43" x2="14.43" y2="202.76"/><polyline class="u" points="14.43 200.52 14.43 198.27 16.68 198.27"/><line class="aa" x1="20.82" y1="198.27" x2="35.28" y2="198.27"/><line class="ab" x1="37.35" y1="198.27" x2="159.3" y2="198.27"/><polyline class="u" points="161.37 198.27 163.62 198.27 163.62 200.52"/><line class="ac" x1="163.62" y1="205" x2="163.62" y2="220.67"/><polyline class="u" points="132.84 292.52 132.84 294.77 130.59 294.77"/><line class="ad" x1="125.7" y1="294.77" x2="108.59" y2="294.77"/><line class="ae" x1="106.14" y1="294.77" x2="49.9" y2="294.77"/><polyline class="u" points="47.46 294.77 45.21 294.77 45.21 292.52"/><line class="af" x1="45.21" y1="288.95" x2="45.21" y2="276.43"/><polyline class="u" points="45.21 274.64 45.21 272.39 47.46 272.39"/><line class="ad" x1="52.35" y1="272.39" x2="69.46" y2="272.39"/><line class="ae" x1="71.91" y1="272.39" x2="128.15" y2="272.39"/><polyline class="u" points="130.59 272.39 132.84 272.39 132.84 274.64"/><line class="af" x1="132.84" y1="278.21" x2="132.84" y2="290.74"/><polyline class="u" points="132.84 329.92 132.84 332.17 130.59 332.17"/><line class="ad" x1="125.7" y1="332.17" x2="108.59" y2="332.17"/><line class="ae" x1="106.14" y1="332.17" x2="49.9" y2="332.17"/><polyline class="u" points="47.46 332.17 45.21 332.17 45.21 329.92"/><line class="af" x1="45.21" y1="326.34" x2="45.21" y2="313.82"/><polyline class="u" points="45.21 312.03 45.21 309.78 47.46 309.78"/><line class="ad" x1="52.35" y1="309.78" x2="69.46" y2="309.78"/><line class="ae" x1="71.91" y1="309.78" x2="128.15" y2="309.78"/><polyline class="u" points="130.59 309.78 132.84 309.78 132.84 312.03"/><line class="af" x1="132.84" y1="315.61" x2="132.84" y2="328.13"/><polyline class="u" points="168.87 367.31 168.87 369.56 166.62 369.56"/><line class="ag" x1="162.19" y1="369.56" x2="146.67" y2="369.56"/><line class="ah" x1="144.45" y1="369.56" x2="13.64" y2="369.56"/><polyline class="u" points="11.43 369.56 9.18 369.56 9.18 367.31"/><line class="af" x1="9.18" y1="363.73" x2="9.18" y2="351.21"/><polyline class="u" points="9.18 349.42 9.18 347.17 11.43 347.17"/><line class="ag" x1="15.86" y1="347.17" x2="31.38" y2="347.17"/><line class="ah" x1="33.6" y1="347.17" x2="164.41" y2="347.17"/><polyline class="u" points="166.62 347.17 168.87 347.17 168.87 349.42"/><line class="af" x1="168.87" y1="353" x2="168.87" y2="365.52"/><polyline class="u" points="163.62 404.7 163.62 406.95 161.37 406.95"/><line class="aa" x1="157.23" y1="406.95" x2="142.77" y2="406.95"/><line class="ab" x1="140.7" y1="406.95" x2="18.75" y2="406.95"/><polyline class="u" points="16.68 406.95 14.43 406.95 14.43 404.7"/><line class="af" x1="14.43" y1="401.12" x2="14.43" y2="388.6"/><polyline class="u" points="14.43 386.81 14.43 384.56 16.68 384.56"/><line class="aa" x1="20.82" y1="384.56" x2="35.28" y2="384.56"/><line class="ab" x1="37.35" y1="384.56" x2="159.3" y2="384.56"/><polyline class="u" points="161.37 384.56 163.62 384.56 163.62 386.81"/><line class="af" x1="163.62" y1="390.39" x2="163.62" y2="402.91"/><polyline class="u" points="163.62 442.09 163.62 444.34 161.37 444.34"/><line class="aa" x1="157.23" y1="444.34" x2="142.77" y2="444.34"/><line class="ab" x1="140.7" y1="444.34" x2="18.75" y2="444.34"/><polyline class="u" points="16.68 444.34 14.43 444.34 14.43 442.09"/><line class="af" x1="14.43" y1="438.51" x2="14.43" y2="425.99"/><polyline class="u" points="14.43 424.2 14.43 421.95 16.68 421.95"/><line class="aa" x1="20.82" y1="421.95" x2="35.28" y2="421.95"/><line class="ab" x1="37.35" y1="421.95" x2="159.3" y2="421.95"/><polyline class="u" points="161.37 421.95 163.62 421.95 163.62 424.2"/><line class="af" x1="163.62" y1="427.78" x2="163.62" y2="440.3"/></svg>