<svg xmlns="http://www.w3.org/2000/svg" width="50" height="50" viewBox="0 0 50 50"><defs><style>.a{fill:#00acc1;}.b{fill:#37474f;}</style></defs><title>Admin</title><path class="a" d="M23.4,2c-3.766.084-6.515,1.237-8.174,3.423-1.971,2.585-2.43,6.858-1.193,12.1a3.629,3.629,0,0,0-.7,2.589c.3,2.21,1.141,3.119,1.823,3.49a10.509,10.509,0,0,0,2.242,4.7v3.63c-.016.036-.036.068-.052.1a2.247,2.247,0,0,1-.183.323c-.024.028-.048.06-.068.088a2.982,2.982,0,0,1-.295.339,4.593,4.593,0,0,1-.559.479l3.192,3.885,2.277-2.832,0,0,1.3-1.6L19.519,30.64a.539.539,0,0,0-.083-.028V27.839l.015-.582-.518-.3a8.159,8.159,0,0,1-1.839-4.22l-.016-.918h-.926c-.143-.056-.6-.542-.794-1.935a1.422,1.422,0,0,1,.363-1.212l.6-.4-.176-.7c-1.24-4.887-.945-8.764.7-10.922,1.265-1.664,3.483-2.546,6.571-2.613,1.931,0,3.323.486,3.814,1.332l.251.423.5.072a3.347,3.347,0,0,1,2.665,1.811c1.48,2.449,1.22,7.324.335,9.8l-.323.841.809.4a1.385,1.385,0,0,1,.276,1.149c-.14,1.516-.619,1.919-.718,1.939h-.89l-.124.874a9.136,9.136,0,0,1-1.887,4.264l-.514.292v2.912l2.541-2.541a13.14,13.14,0,0,0,1.767-3.978c.73-.347,1.648-1.252,1.855-3.578a3.506,3.506,0,0,0-.654-2.541c.866-2.785,1.113-7.855-.722-10.891a5.243,5.243,0,0,0-3.682-2.7C27.725,2.678,25.866,2,23.4,2ZM35.616,27.532l-.51,3.267c-.307.1-.718.307-1.022.407l-2.76-1.939L28.26,32.331,30.1,34.884a3.775,3.775,0,0,0-.411,1.125l-3.163.511v4.289l3.163.51c.1.307.307.714.411,1.021L28.26,45.1l3.064,3.064,2.76-1.835a5.128,5.128,0,0,0,1.121.407L35.616,50H39.9l.511-3.267c.307-.1.718-.307,1.021-.407l2.76,1.835L47.257,45.1,45.318,42.44a4.241,4.241,0,0,0,.407-1.021l3.268-.61V36.52l-3.268-.511c-.1-.307-.307-.714-.407-1.021l1.836-2.761-2.961-2.96-2.656,1.939a4.418,4.418,0,0,0-1.022-.407L39.9,27.532Zm-21.2,6.722c-.63.279-1.313.555-2.031.842C8.4,36.672,3.438,38.638,3.1,44.838l-.064,1.077H20.557V45.5c0-3.774,2.453-7.963,2.453-7.963l-.774-.626-2,2.489a1.039,1.039,0,0,1-.794.383h0a1.019,1.019,0,0,1-.79-.371ZM37.759,35.7A3.064,3.064,0,1,1,34.7,38.766,3.01,3.01,0,0,1,37.759,35.7Z"/><path class="b" d="M21.365,0C17.6.084,14.85,1.237,13.191,3.423c-1.971,2.585-2.43,6.858-1.193,12.1a3.648,3.648,0,0,0-.7,2.589c.3,2.21,1.141,3.119,1.827,3.49a10.506,10.506,0,0,0,2.238,4.7V29.94c-.59,1.4-2.645,2.218-5.011,3.156-3.985,1.58-8.944,3.542-9.287,9.742l-.056,1.077H24.553c0-.036,0-.076,0-.112-.016-.028-.028-.064-.044-.092a13.034,13.034,0,0,1-1.213-11.377.068.068,0,0,0,0-.028l-.04-.052.076-.04.048-.12c.1-.251.191-.5.3-.742.028-.063.06-.123.088-.187.2-.415.415-.818.65-1.213.076-.128.151-.251.231-.375.112-.175.232-.347.351-.514.048-.064.084-.128.132-.188L21.513,30.89,17.4,28.628V25.839l.016-.582-.515-.3a8.155,8.155,0,0,1-1.843-4.22l-.012-.918h-.93c-.143-.056-.6-.542-.79-1.935a1.408,1.408,0,0,1,.363-1.212l.6-.4-.176-.7c-1.236-4.887-.941-8.764.7-10.922C16.083,2.992,18.3,2.11,21.389,2.043c1.931,0,3.319.486,3.814,1.332l.247.427.491.068a3.35,3.35,0,0,1,2.673,1.815c1.48,2.445,1.216,7.32.331,9.8l-.323.837.81.407a1.384,1.384,0,0,1,.275,1.149c-.136,1.512-.615,1.915-.718,1.935H28.1l-.124.874a9.077,9.077,0,0,1-1.891,4.264l-.514.292v2.916l2.334-2.338.2-.2a13.117,13.117,0,0,0,1.771-3.982c.734-.347,1.648-1.248,1.859-3.578a3.524,3.524,0,0,0-.654-2.541c.866-2.785,1.109-7.855-.726-10.891a5.227,5.227,0,0,0-3.682-2.7C25.693.678,23.838,0,21.365,0ZM33.744,25.532l-.61,3.267a4.332,4.332,0,0,0-1.022.407l-2.76-1.939-3.064,3.064,1.839,2.553c-.1.407-.307.718-.411,1.125l-3.163.511v4.289l3.163.51a4.411,4.411,0,0,0,.411,1.021L26.288,43.1l3.064,3.064,2.76-1.835a5.11,5.11,0,0,0,1.121.407L33.744,48h4.185l.614-3.164a7.172,7.172,0,0,0,1.021-.41l2.761,1.839L45.389,43.2l-1.943-2.657a7.981,7.981,0,0,0,.411-1.125l3.164-.61V34.52l-3.268-.511a4.307,4.307,0,0,0-.407-1.021l1.836-2.761-2.961-2.96-2.657,1.939a4.393,4.393,0,0,0-1.021-.407l-.51-3.267Zm1.735,2.042H36.3l.411,2.757.61.208a8.846,8.846,0,0,1,1.736.71l.614.411,2.346-1.736.511.511-1.632,2.346.307.51a13.493,13.493,0,0,1,.714,1.843l.2.611,2.86.411v.813l-2.757.615-.207.614a8.973,8.973,0,0,1-.71,1.732l-.411.614,1.735,2.35-.614.61-2.346-1.632-.51.308a13.538,13.538,0,0,1-1.84.714l-.61.2-.511,2.86h-.821L34.969,43.2l-.615-.208a8.99,8.99,0,0,1-1.731-.71l-.614-.411L29.559,43.5l-.614-.61,1.635-2.35-.311-.511c-.3-.614-.506-1.324-.71-1.835l-.207-.614L26.6,37.073v-.818l2.86-.51.1-.714A5.249,5.249,0,0,1,30.17,33.4l.41-.511-1.635-2.345.614-.615,2.346,1.636.511-.208c.714-.307,1.328-.61,1.938-.813l.615-.1ZM17.172,30.838l0,0,2.541,1.42L17.392,35.15l-1.907-2.314A5.233,5.233,0,0,0,17.172,30.838Zm18.615,1.843a4.085,4.085,0,1,0,4.085,4.085A4.1,4.1,0,0,0,35.787,32.681ZM13.7,33.882l2.917,3.534A1.019,1.019,0,0,0,18.2,37.4l2-2.489.774.626a18.166,18.166,0,0,0-2.553,6.331H3.229c.75-4.057,4.369-5.489,7.871-6.877C12.006,34.636,12.888,34.281,13.7,33.882Zm22.086.841a2.041,2.041,0,0,1,2.042,2.043,1.963,1.963,0,0,1-2.042,2.043,2.043,2.043,0,0,1,0-4.086Z"/></svg>