<svg xmlns="http://www.w3.org/2000/svg" width="50" height="50" viewBox="0 0 50 50"><defs><style>.a{fill:#00acc1;}.b{fill:#37474f;}</style></defs><title>API</title><path class="a" d="M3.044,6.174A1.046,1.046,0,0,0,2,7.217V44.783a1.043,1.043,0,0,0,1.044,1.043H48.956A1.041,1.041,0,0,0,50,44.783V7.217a1.043,1.043,0,0,0-1.044-1.043Zm12,10.435a1.075,1.075,0,0,1,1.01.75l4.7,15.261a.992.992,0,0,1,.033.293V33.3a1.044,1.044,0,1,1-2.087,0v-.228l-.881-2.9H12.272l-.881,2.9V33.3a1.044,1.044,0,1,1-2.087,0v-.391a1.026,1.026,0,0,1,.033-.293l4.7-15.261A1.075,1.075,0,0,1,15.044,16.609Zm9.913,0H29.13A4.177,4.177,0,0,1,33.3,20.783v3.13a4.177,4.177,0,0,1-4.174,4.174H26V33.3a1.044,1.044,0,1,1-2.087,0V17.652A1.045,1.045,0,0,1,24.957,16.609Zm12,0h3.131a1.044,1.044,0,0,1,0,2.087h-.522V32.261h.522a1.044,1.044,0,0,1,0,2.087H36.956a1.044,1.044,0,0,1,0-2.087h.522V18.7h-.522a1.044,1.044,0,0,1,0-2.087ZM26,18.7V26h3.13a2.091,2.091,0,0,0,2.087-2.087v-3.13A2.09,2.09,0,0,0,29.13,18.7ZM15.044,21.207l-2.12,6.88h4.239Z"/><path class="b" d="M46.956,4.174H.848A1.044,1.044,0,0,0,0,5.217V42.783a1.046,1.046,0,0,0,1.044,1.043H46.956A1.046,1.046,0,0,0,48,42.783V5.12A1.04,1.04,0,0,0,46.956,4.174ZM45.913,41.739H2.087V6.261H45.913ZM36.424,14.576a1.253,1.253,0,0,0-.131.033H34.859a1.045,1.045,0,1,0,.1,2.087h.521V30.261h-.717a1.048,1.048,0,1,0,.2,2.087h3.13a1.044,1.044,0,1,0,0-2.087h-.522V16.7h.522a1.044,1.044,0,1,0,0-2.087h-1.37A.992.992,0,0,0,36.424,14.576Zm-9.293.033h-4.37a1.043,1.043,0,0,0-.848,1.043v9.2a1.081,1.081,0,0,0,0,.424V31.3A1.044,1.044,0,1,0,24,31.3V26.087h3.131A4.187,4.187,0,0,0,31.3,21.913v-3.13A4.187,4.187,0,0,0,27.131,14.609Zm2.086,7.3A2.07,2.07,0,0,1,27.131,24H24V16.7h3.131a2.07,2.07,0,0,1,2.086,2.087ZM18.75,30.62l-4.7-15.261a1.053,1.053,0,0,0-2.021,0L7.337,30.62a.991.991,0,0,0-.032.293V31.3a1.043,1.043,0,1,0,2.086,0v-.163l.914-2.967h5.478l.913,2.967V31.3a1.044,1.044,0,1,0,2.087,0v-.391A.992.992,0,0,0,18.75,30.62Zm-7.793-4.533,2.087-6.848,2.087,6.848Z"/></svg>