<svg xmlns="http://www.w3.org/2000/svg" width="50" height="50" viewBox="0 0 50 50"><defs><style>.a{fill:#00acc1;}.b{fill:#37474f;}</style></defs><title>Bluetooth</title><path class="a" d="M23.7,2V20.919l-7.7-7.7-2.876,2.908,9.747,9.715-9.779,9.811L16,38.527l7.7-7.733V50l3.483-3.515,9.587-9.651L38.207,35.4l-1.438-1.438L28.62,25.84l8.117-8.149,1.438-1.438-1.47-1.438-9.523-9.4Zm4.09,9.747,4.6,4.506-4.6,4.634Zm0,19.015L32.455,35.4l-4.666,4.7Z"/><path class="b" d="M21.8,0V20.558l-8.59-8.59-1.415,1.415,10,10.006v1.222l-10,10.006,1.415,1.415,8.59-8.59V48L23.5,46.327,34.828,35,35.5,34.3l-.675-.708L25.24,24l9.588-9.587.675-.708L34.828,13,23.5,1.673Zm2,4.794L32.7,13.705l-8.879,8.879-.032-.032Zm.032,20.622L32.7,34.3l-8.911,8.911V25.448Z"/></svg>