<svg xmlns="http://www.w3.org/2000/svg" width="22" height="22" viewBox="0 0 22 22"><defs><style></style></defs><title>Build</title><path class="a" d="M16.937,0c-.13,0-.266.012-.4.027a6.88,6.88,0,0,0-1.594.4A7.577,7.577,0,0,0,12.32,2.016a3.207,3.207,0,0,0-.99,2.316A4.524,4.524,0,0,0,12,6.484L11,7.5a.439.439,0,1,0,.618.617l1.237-1.234a.437.437,0,0,0,.055-.548,3.836,3.836,0,0,1-.7-2,2.277,2.277,0,0,1,.728-1.7,7.058,7.058,0,0,1,2.323-1.384A5.151,5.151,0,0,1,16.924.934L15.261,2.578c0,.009-.01.019-.014.028a1.3,1.3,0,0,0,.014,1.781L17.6,6.717l.014.014A1.312,1.312,0,0,0,19.4,6.717L21.06,5.059a5.066,5.066,0,0,1-.316,1.672,6.98,6.98,0,0,1-1.388,2.3,2.223,2.223,0,0,1-1.69.7,4.249,4.249,0,0,1-2.048-.686.442.442,0,0,0-.536.069l-.7.7a.442.442,0,1,0,.619.63l.494-.493a4.8,4.8,0,0,0,2.158.658,3.179,3.179,0,0,0,2.323-.96,7.548,7.548,0,0,0,1.594-2.6,4.8,4.8,0,0,0,.275-3.111.439.439,0,0,0-.318-.284.444.444,0,0,0-.411.119L18.779,6.086a.446.446,0,0,1-.563,0c-.009-.006-.019-.006-.028-.013l-2.309-2.3a.449.449,0,0,1,.028-.589l2.309-2.3a.437.437,0,0,0-.165-.726A3.128,3.128,0,0,0,16.937,0ZM7.785,10.91a.444.444,0,0,0-.261.137L5.435,13.13a4.687,4.687,0,0,0-.893-.109A4.474,4.474,0,1,0,9.022,17.5a3.791,3.791,0,0,0-.152-.946l1.512-1.507a.442.442,0,1,0-.618-.631L8.1,16.09a.44.44,0,0,0-.11.466,2.571,2.571,0,0,1,.151.946,3.573,3.573,0,0,1-3.6,3.59,3.6,3.6,0,1,1,0-7.194,3.928,3.928,0,0,1,.948.123A.446.446,0,0,0,5.9,13.9l2.24-2.234a.437.437,0,0,0,.1-.485.443.443,0,0,0-.416-.269Zm6.17,2.412,5.278,5.262-.633.631-5.277-5.263Zm7.256,3.947-5.373-5.345a2.053,2.053,0,0,0-1.608-.548l-.728-.74A1.185,1.185,0,0,0,13.3,9.375l-.316-.3a1.23,1.23,0,0,0-1.759,0L11,9.293,5.036,3.346l.151-.96a.437.437,0,0,0-.206-.438L1.765.1A.427.427,0,0,0,1.518.043H1.477A.447.447,0,0,0,1.23.166l-1.1,1.1A.438.438,0,0,0,.061,1.8L1.917,5a.437.437,0,0,0,.439.205l.962-.15,5.965,5.947-.22.219a1.237,1.237,0,0,0,0,1.754l.3.316a1.193,1.193,0,0,0,1.265.205l.742.726a2,2,0,0,0,.549,1.6l5.36,5.358a2.783,2.783,0,0,0,3.93,0v-.014A2.814,2.814,0,0,0,21.211,17.269ZM3.786,4.291a.444.444,0,0,0-.371-.123l-.894.137L1,1.66l.632-.63L4.28,2.551l-.137.891a.44.44,0,0,0,.124.37l6.115,6.1-.481.479ZM20.579,20.558a1.845,1.845,0,0,1-2.666,0L12.54,15.213a1.139,1.139,0,0,1-.316-1.069.438.438,0,0,0-.124-.425l-1-1a.441.441,0,0,0-.6-.027.367.367,0,0,1-.5-.028l-.316-.3a.4.4,0,0,1,0-.521l2.158-2.151a.4.4,0,0,1,.522,0l.3.315a.362.362,0,0,1,.028.493.438.438,0,0,0,.027.6l1,1a.44.44,0,0,0,.385.124,1.282,1.282,0,0,1,1.113.315L20.579,17.9A1.937,1.937,0,0,1,20.579,20.558ZM6.919,16.611,5.38,15.076a.443.443,0,0,0-.371-.123.5.5,0,0,0-.069.013l-2.061.576a.44.44,0,0,0-.3.3L2,17.9a.438.438,0,0,0,.11.439l1.539,1.534a.438.438,0,0,0,.426.11l2.117-.575a.441.441,0,0,0,.316-.316l.522-2.055A.436.436,0,0,0,6.919,16.611ZM5.71,18.639,4.1,19.064,2.92,17.885l.426-1.576,1.58-.424,1.182,1.178Z"/></svg>