<svg xmlns="http://www.w3.org/2000/svg" width="50" height="50" viewBox="0 0 50 50"><defs><style>.a{fill:#00acc1;}.b{fill:#37474f;}</style></defs><title>Codeless</title><path class="a" d="M26,2A24,24,0,1,0,50,26,24.011,24.011,0,0,0,26,2ZM16.872,29.948a1.13,1.13,0,0,1-1.545.421L7.462,25.875a1.124,1.124,0,0,1,0-1.966l7.384-4.219,1.661,1.661c-.019.009-.036.022-.057.03l-6.144,3.511L16.45,28.4A1.13,1.13,0,0,1,16.872,29.948ZM21.436,38.8a1.135,1.135,0,0,1-2.107-.843l4-9.779,1.74,1.739ZM31.547,14.079l-3.665,8.959L26.142,21.3l3.3-8.063a1.125,1.125,0,0,1,.807-.7,1.383,1.383,0,0,1,.141-.035,1.125,1.125,0,0,1,1.158,1.58Zm12.991,11.8-7.865,4.494A1.132,1.132,0,1,1,35.55,28.4l6.144-3.511L35.55,21.381a1.132,1.132,0,1,1,1.123-1.966l7.865,4.494a1.124,1.124,0,0,1,0,1.966Z"/><path class="b" d="M24,0A24,24,0,1,0,48,24,24.011,24.011,0,0,0,24,0ZM37.54,40.946A21.687,21.687,0,0,1,7.054,10.46l.794-1L38.536,40.152Zm3.406-3.406-.794,1L9.464,7.848l1-.794A21.687,21.687,0,0,1,40.946,37.54Zm1.592-13.665-7.865,4.494A1.132,1.132,0,1,1,33.55,26.4l6.144-3.511L33.55,19.381a1.132,1.132,0,1,1,1.123-1.966l7.865,4.494a1.124,1.124,0,0,1,0,1.966Zm-12.991-11.8-3.665,8.959L24.142,19.3l3.3-8.063a1.125,1.125,0,0,1,.807-.7,1.383,1.383,0,0,1,.141-.035,1.125,1.125,0,0,1,1.158,1.58ZM17.329,35.953l4-9.779,1.74,1.739L19.436,36.8a1.135,1.135,0,1,1-2.107-.843ZM14.45,19.381,8.306,22.892,14.45,26.4a1.132,1.132,0,1,1-1.123,1.966L5.462,23.875a1.124,1.124,0,0,1,0-1.966l7.384-4.219,1.661,1.661C14.488,19.36,14.471,19.373,14.45,19.381Z"/></svg>