<svg xmlns="http://www.w3.org/2000/svg" width="22" height="22" viewBox="0 0 22 22"><defs><style></style></defs><title>Connect</title><path class="a" d="M22,0l-.477.014a16.781,16.781,0,0,0-6.482,1.628,11.453,11.453,0,0,0-2.975,2.132C10.928,4.912,9.322,6.78,7.857,8.545H3.985a.449.449,0,0,0-.309.168L1.431,11.407a.449.449,0,0,0,.239.715l2.736.688-.155.2-.056.057-.028.084a1.185,1.185,0,0,0-.028.308,1.578,1.578,0,0,0,.028.2L3.2,15.279a.85.85,0,0,0-.056.141.744.744,0,0,0-.014.182,1.168,1.168,0,0,0,.112.449,5.526,5.526,0,0,0,1.193,1.515,5.537,5.537,0,0,0,1.515,1.193,1.168,1.168,0,0,0,.449.112.744.744,0,0,0,.182-.014.85.85,0,0,0,.141-.056l1.641-.968a1.826,1.826,0,0,0,.183.028,1.185,1.185,0,0,0,.308-.028l.085-.028.07-.056.182-.141.688,2.722a.449.449,0,0,0,.715.239l2.694-2.245a.448.448,0,0,0,.168-.351V14.129c1.777-1.477,3.657-3.082,4.771-4.195a11.377,11.377,0,0,0,2.118-2.975A17.086,17.086,0,0,0,21.986.477Zm-.968.968a14.713,14.713,0,0,1-1.487,5.6A10.4,10.4,0,0,1,17.594,9.3c-1.094,1.1-3.02,2.736-4.812,4.224a.374.374,0,0,0-.1.084c-2.1,1.739-3.994,3.246-4.111,3.339a.874.874,0,0,1-.281-.07,5.993,5.993,0,0,1-1.8-1.361,6.13,6.13,0,0,1-1.375-1.81.874.874,0,0,1-.07-.281c.093-.117,1.578-1.99,3.311-4.083a.423.423,0,0,0,.112-.14c1.472-1.775,3.1-3.678,4.224-4.8a10.435,10.435,0,0,1,2.736-1.951A14.6,14.6,0,0,1,21.032.968ZM15.251,4.5A2.245,2.245,0,1,0,17.5,6.749,2.252,2.252,0,0,0,15.251,4.5Zm0,.9A1.347,1.347,0,1,1,13.9,6.749,1.341,1.341,0,0,1,15.251,5.4ZM4.237,9.443H7.114c-.862,1.05-1.57,1.943-2.091,2.6l-2.441-.617Zm.379,5.205a8.473,8.473,0,0,0,1.235,1.5,8.491,8.491,0,0,0,1.5,1.235l-.968.575a.288.288,0,0,1-.07-.028,4.875,4.875,0,0,1-1.249-1,4.875,4.875,0,0,1-1-1.249.288.288,0,0,1-.028-.07Zm7.941.238v2.877l-1.978,1.655-.617-2.427C10.612,16.47,11.5,15.76,12.557,14.886ZM2.862,16.724c-.733.563-1.4.635-1.992,1.221A2.615,2.615,0,0,0,.2,19.222,10.163,10.163,0,0,0,0,21.551V22H.449c2.062,0,3.071-.326,3.676-.94s.705-1.3,1.165-1.922l-.73-.533c-.582.792-.712,1.45-1.08,1.824-.325.329-1.047.571-2.54.631a9.862,9.862,0,0,1,.14-1.628,1.613,1.613,0,0,1,.421-.841c.342-.337,1.012-.488,1.894-1.165ZM6.314,18l-.042.028v-.014Z"/></svg>