<svg xmlns="http://www.w3.org/2000/svg" width="50" height="50" viewBox="0 0 50 50"><defs><style>.a{fill:#00acc1;}.b{fill:#37474f;}</style></defs><title>DataVisualization</title><path class="a" d="M46,2a2,2,0,0,0-2,2,1.944,1.944,0,0,0,.188.813L36.187,16c-.062,0-.124,0-.187,0a2.007,2.007,0,0,0-1.094.313L28,12.875A2,2,0,0,0,24,13a2.169,2.169,0,0,0,.031.313l-7.312,5.812a2.016,2.016,0,0,0-2.688,1.563l-6.812,2.75A1.975,1.975,0,0,0,6,23a2,2,0,1,0,1.969,2.281l6.812-2.718A1.979,1.979,0,0,0,18,21a2.141,2.141,0,0,0-.031-.312l7.312-5.813A1.988,1.988,0,0,0,26,15a2.015,2.015,0,0,0,1.094-.312L34,18.125A2,2,0,0,0,38,18a1.954,1.954,0,0,0-.187-.812L45.813,6c.062,0,.124,0,.187,0a2,2,0,0,0,0-4ZM42,15V50h8V15ZM22,24V50h8V24Zm10,5V50h8V29ZM12,32V50h8V32ZM2,36V50h8V36Z"/><path class="b" d="M44,0a2,2,0,0,0-2,2,1.944,1.944,0,0,0,.188.813L34.187,14c-.062,0-.124,0-.187,0a2.015,2.015,0,0,0-1.094.312L26,10.875A2,2,0,0,0,22,11a2.141,2.141,0,0,0,.031.312l-7.312,5.813a2.016,2.016,0,0,0-2.688,1.563L5.219,21.437a1.991,1.991,0,1,0,.75,1.844l6.812-2.718A1.979,1.979,0,0,0,16,19a2.141,2.141,0,0,0-.031-.312l7.312-5.813A1.988,1.988,0,0,0,24,13a2.015,2.015,0,0,0,1.094-.312L32,16.125A2,2,0,0,0,36,16a1.951,1.951,0,0,0-.187-.812L43.813,4c.062,0,.124,0,.187,0a2,2,0,0,0,0-4ZM40,13V48h8V13Zm2,2h4V46H42ZM20,22V48h8V22Zm2,2h4V46H22Zm8,3V48h8V27Zm2,2h4V46H32ZM10,30V48h8V30Zm2,2h4V46H12ZM0,34V48H8V34Zm2,2H6V46H2Z"/></svg>