<svg xmlns="http://www.w3.org/2000/svg" width="50" height="50" viewBox="0 0 50 50"><defs><style>.a{fill:#00acc1;}.b{fill:#37474f;}</style></defs><title>DeviceIntelligence</title><path class="a" d="M20.114,2a9.03,9.03,0,0,0-8.466,5.34C7.36,8.277,4.087,13.111,4.087,18.7a14.814,14.814,0,0,0,1.019,5.217H10.54a3.131,3.131,0,1,1,0,2.087H5.44a6.735,6.735,0,0,0-1.353,4.174c0,2.9,1.814,5.425,4.81,6.807a5.972,5.972,0,0,0,.122,5.454,7.193,7.193,0,0,0,5.764,3.358A6.77,6.77,0,0,0,21.158,50c1.732,0,3.8-.848,3.8-4.871V31.217H18.7v4.366a3.131,3.131,0,1,1-2.087,0V29.13h8.348V20.783H18.7V15.565H16.417a3.131,3.131,0,1,1,0-2.087h4.366V18.7h4.174V7.413C24.957,2.363,23.127,2,20.114,2ZM31.886,2c-3.012,0-4.842.363-4.842,5.413v6.065h8.539a3.131,3.131,0,1,1,0,2.087H27.044V37.478h4.365a3.131,3.131,0,1,1,0,2.087H27.044v5.564c0,4.027,2.066,4.871,3.8,4.871a6.76,6.76,0,0,0,6.37-4.207,7.2,7.2,0,0,0,5.768-3.358,5.435,5.435,0,0,0,.709-2.5,6.667,6.667,0,0,0-.9-3.077,1,1,0,0,1-.1-.428V32.261H33.305V26.852a3.13,3.13,0,1,1,2.086,0v3.322h9.392v5.8a7.163,7.163,0,0,0,3.13-5.8,6.842,6.842,0,0,0-1.691-4.61A16.371,16.371,0,0,0,47.913,18.7c0-5.585-3.273-10.419-7.561-11.356A9.022,9.022,0,0,0,31.886,2ZM13.478,13.478a1.044,1.044,0,1,0,1.044,1.044A1.046,1.046,0,0,0,13.478,13.478Zm25.044,0a1.044,1.044,0,1,0,1.043,1.044A1.046,1.046,0,0,0,38.522,13.478ZM34.348,22.87a1.044,1.044,0,1,0,1.043,1.043A1.044,1.044,0,0,0,34.348,22.87Zm-20.87,1.043a1.044,1.044,0,1,0,1.044,1.044A1.046,1.046,0,0,0,13.478,23.913Zm4.174,13.565A1.044,1.044,0,1,0,18.7,38.522,1.046,1.046,0,0,0,17.652,37.478Zm16.7,0a1.044,1.044,0,1,0,1.043,1.044A1.045,1.045,0,0,0,34.348,37.478Z"/><path class="b" d="M20.2,0C14.515,0,10.858,2.629,9.717,5.446,5.238,6.4,2.087,11.3,2.087,16.7A16.753,16.753,0,0,0,3.848,23.6a6.885,6.885,0,0,0-1.761,4.57c0,2.7,1.769,5.3,4.915,6.75a6.036,6.036,0,0,0,.4,6.1,7.4,7.4,0,0,0,5.49,2.666,6.178,6.178,0,0,0,3.212,3.559A10.252,10.252,0,0,0,20.2,48,4.8,4.8,0,0,0,24,46.133,4.834,4.834,0,0,0,27.786,48h0a10.15,10.15,0,0,0,4.048-.742,6.266,6.266,0,0,0,3.216-3.485,10.56,10.56,0,0,0,4.858-1.125,5.651,5.651,0,0,0,2.87-5.083,6.422,6.422,0,0,0-.738-2.678,6.678,6.678,0,0,0,2.972-2.572,8.459,8.459,0,0,0,.9-4.141,6.02,6.02,0,0,0-1.936-4.354,17.007,17.007,0,0,0,1.936-7.141c-.1-6.089-4.2-10.365-8.649-11.25C36.273,2.825,33.452,0,27.8,0a4.436,4.436,0,0,0-3.68,1.492c-.045.053-.078.114-.118.171-.041-.057-.074-.118-.119-.171A4.436,4.436,0,0,0,20.2,0Zm0,2.087c1.129,0,1.642.179,2.034.681s.721,1.626.721,3.688v5.89a.965.965,0,0,0,0,.339V16.7h-3.13V11.478h-4.37a3.131,3.131,0,1,0,0,2.087h2.283v5.217h5.217V27.13h-7.3v6.457a3.131,3.131,0,1,0,2.087,0v-4.37h5.217v7.129a.959.959,0,0,0,0,.338v6.445A2.6,2.6,0,0,1,20.2,45.913a8.573,8.573,0,0,1-3.261-.575,3.8,3.8,0,0,1-2.364-2.8l-.2-.8h-.815a5.622,5.622,0,0,1-4.484-1.961c-.872-1.166-1.1-2.686.163-4.81L9.9,33.86l-1.227-.416c-3.184-1.068-4.5-3.208-4.5-5.27a4.914,4.914,0,0,1,1.606-3.73L6.187,24h3.4a3.131,3.131,0,1,0,0-2.087H5.356A13.594,13.594,0,0,1,4.174,16.7c0-4.793,3-8.983,6.387-9.4l.689-.081.187-.669C11.906,4.9,14.857,2.087,20.2,2.087Zm7.6,0c5.344,0,7.174,2.539,7.721,4.459l.187.669L36.4,7.3c3.517.432,7.345,4,7.43,9.416a16.386,16.386,0,0,1-1.985,6.835l-.313.665.509.521c1.088,1.1,1.789,1.688,1.789,3.441a6.49,6.49,0,0,1-.639,3.134,4.022,4.022,0,0,1-1.447,1.476v-4.61H32.347V24.848a3.131,3.131,0,1,0-2.087,0v5.413h9.392v4.027a1.028,1.028,0,0,0,.134.684v0a7.435,7.435,0,0,1,.909,2.588,3.289,3.289,0,0,1-1.81,3.265,9.537,9.537,0,0,1-4.451.909h-.815l-.2.8a3.841,3.841,0,0,1-2.413,2.808,8.449,8.449,0,0,1-3.207.571,2.607,2.607,0,0,1-2.76-2.784V37.565h4.37a3.131,3.131,0,1,0,0-2.087h-4.37V28.349a.959.959,0,0,0,0-.338v-10.1a.959.959,0,0,0,0-.338V13.565h8.543a3.131,3.131,0,1,0,0-2.087H25.043V6.456c0-2.062.334-3.187.722-3.688S26.669,2.087,27.8,2.087ZM12.521,11.478a1.023,1.023,0,0,1,1.032.982.632.632,0,0,0,0,.123,1.039,1.039,0,1,1-1.032-1.105Zm24,0a1.044,1.044,0,1,1-1.031,1.105.632.632,0,0,0,0-.123A1.02,1.02,0,0,1,36.521,11.478ZM31.3,20.869a1.038,1.038,0,0,1,.061,2.075c-.029,0-.053,0-.077,0a.175.175,0,0,1-.045,0,1.021,1.021,0,0,1-.983-1.031A1.031,1.031,0,0,1,31.3,20.869ZM12.521,21.913a1.044,1.044,0,1,1-1.031,1.1.622.622,0,0,0,0-.122A1.02,1.02,0,0,1,12.521,21.913ZM32.347,35.478a1.044,1.044,0,1,1-1.031,1.1.632.632,0,0,0,0-.123A1.02,1.02,0,0,1,32.347,35.478Zm-15.713.012a.622.622,0,0,0,.122,0,1.021,1.021,0,0,1,.983,1.031,1.044,1.044,0,1,1-1.105-1.031Z"/></svg>