<svg xmlns="http://www.w3.org/2000/svg" width="50" height="50" viewBox="0 0 50 50"><defs><style>.a{fill:#00acc1;}.b{fill:#37474f;}</style></defs><title>Events</title><path class="a" d="M13,2a2.014,2.014,0,0,0-2,2V6H5A1.933,1.933,0,0,0,3,8v7H49V8a1.933,1.933,0,0,0-2-2H41V4a2.014,2.014,0,0,0-2-2H37a2.014,2.014,0,0,0-2,2V6H17V4a2.014,2.014,0,0,0-2-2Zm0,2h2v6H13ZM37,4h2v6H37ZM3,17V48a2,2,0,0,0,2,2H47a2,2,0,0,0,2-2V17Zm10,6h5v5H13Zm7,0h5v5H20Zm7,0h5v5H27Zm7,0h5v5H34ZM13,30h5v5H13Zm7,0h5v5H20Zm14,0h5v5H34ZM13,37h5v5H13Zm7,0h5v5H20Zm7,0h5v5H27Zm7,0h5v5H34Z"/><path class="b" d="M11,0A2.014,2.014,0,0,0,9,2V4H3a2.018,2.018,0,0,0-1.43.57A2.018,2.018,0,0,0,1,6V46a2.034,2.034,0,0,0,.57,1.434A2.031,2.031,0,0,0,3,48H45a1.936,1.936,0,0,0,2-2V6a1.942,1.942,0,0,0-2-2H39V2a2.014,2.014,0,0,0-2-2H35a2.014,2.014,0,0,0-2,2V4H15V2a2.014,2.014,0,0,0-2-2Zm0,2h2V8H11ZM35,2h2V8H35ZM3,6H9V8a2.014,2.014,0,0,0,2,2h2a2.014,2.014,0,0,0,2-2V6H33V8a2.014,2.014,0,0,0,2,2h2a2.014,2.014,0,0,0,2-2V6h6v7H3Zm0,9H45V46H3Zm6,4V42H39V19Zm2,2h5v5H11Zm7,0h5v5H18Zm7,0h5v5H25Zm7,0h5v5H32ZM11,28h5v5H11Zm7,0h5v5H18Zm14,0h5v5H32ZM11,35h5v5H11Zm7,0h5v5H18Zm7,0h5v5H25Zm7,0h5v5H32Z"/></svg>