<svg xmlns="http://www.w3.org/2000/svg" width="20" height="20" viewBox="0 0 20 20"><defs><style>.a{fill:#00acc1;}</style></defs><title>Help</title><path class="a" d="M10,0A10,10,0,1,0,20,10,10.011,10.011,0,0,0,10,0Zm0,1.667A8.333,8.333,0,1,1,1.667,10,8.319,8.319,0,0,1,10,1.667Zm.126,2.9A2.793,2.793,0,0,0,7.194,7.048a.137.137,0,0,0,.124.172l.984.171a.135.135,0,0,0,.171-.124A1.6,1.6,0,0,1,10.1,5.786a1.4,1.4,0,0,1,1.512,1.449,2.617,2.617,0,0,1-.732,1.637L9.83,10.307a2.066,2.066,0,0,0-.469,1.4v.639a.146.146,0,0,0,.157.154h1.029a.145.145,0,0,0,.154-.154v-.5a1.617,1.617,0,0,1,.406-1.17l1.047-1.435a3.247,3.247,0,0,0,.794-2.026A2.619,2.619,0,0,0,10.126,4.569Zm-.685,9.123a.147.147,0,0,0-.156.157V15.19a.146.146,0,0,0,.156.155h1.184a.147.147,0,0,0,.156-.155V13.849a.147.147,0,0,0-.156-.157Z"/></svg>