<svg xmlns="http://www.w3.org/2000/svg" width="24" height="24" viewBox="0 0 24 24"><defs><style>.d5f336d1-5b94-48ac-9694-0098c7c55f6e{fill:#00acc1;}</style></defs><title>Asset 1</title><g id="db6ca2e5-81b4-4da8-9e3d-8217c0d8e3fb" data-name="Layer 2"><g id="3489b235-da9e-4870-bd7f-14698b8864fa" data-name="Table Expanded"><g id="e91988fd-47b4-4086-9541-b3b213ed649a" data-name="Table"><g id="85f90e0e-1e56-4892-8c5d-b00931d07b4e" data-name="surface1"><path class="d5f336d1-5b94-48ac-9694-0098c7c55f6e" d="M12,0A12,12,0,1,0,24,12,12,12,0,0,0,12,0Zm0,1A11,11,0,1,1,1,12,11,11,0,0,1,12,1Zm.15,4.44a3.35,3.35,0,0,0-3.52,3,.16.16,0,0,0,.15.2L10,8.87a.17.17,0,0,0,.21-.15,1.91,1.91,0,0,1,1.94-1.78,1.69,1.69,0,0,1,1.82,1.74,3.18,3.18,0,0,1-.88,2L11.8,12.37a2.43,2.43,0,0,0-.57,1.68v.77a.18.18,0,0,0,.19.19h1.24a.18.18,0,0,0,.18-.19v-.6a1.94,1.94,0,0,1,.49-1.4l1.25-1.72a3.9,3.9,0,0,0,1-2.44A3.15,3.15,0,0,0,12.15,5.48Zm-.82,11a.18.18,0,0,0-.19.19v1.61a.18.18,0,0,0,.19.18h1.42a.18.18,0,0,0,.19-.18V16.62a.18.18,0,0,0-.19-.19Z"/></g></g></g></g></svg>