<svg xmlns="http://www.w3.org/2000/svg" width="50" height="50" viewBox="0 0 50 50"><defs><style>.a{fill:#00acc1;}.b{fill:#37474f;}</style></defs><title>Integrations</title><path class="a" d="M26.558,3.674a11.112,11.112,0,0,0-6.593,20.094l-5.512,9.1c-.043-.013-.091-.022-.139-.035a4.491,4.491,0,1,0,2.721,2.093,4.729,4.729,0,0,0-.7-.872l6.07-9.977L23,23.105l-.977-.558a8.936,8.936,0,1,1,13.465-7.71,8.785,8.785,0,0,1-.383,2.617l2.127.662a11.018,11.018,0,0,0,.489-3.279A11.179,11.179,0,0,0,26.558,3.674Zm0,6.7a4.465,4.465,0,1,0,1.081,8.791L33.012,28.9l.523.977,1.011-.523a8.812,8.812,0,0,1,4.291-1.116,8.93,8.93,0,1,1-6.209,15.348l-1.535,1.6A11.158,11.158,0,1,0,38.837,26a11,11,0,0,0-4.325.977l-4.919-8.9a4.423,4.423,0,0,0,1.43-3.244A4.468,4.468,0,0,0,26.558,10.372ZM10.442,26.314A11.157,11.157,0,1,0,24.116,38.279h10.43a4.465,4.465,0,1,0,0-2.232H22.093v1.116A8.93,8.93,0,1,1,11,28.512Z"/><path class="b" d="M24.558,1.674a11.111,11.111,0,0,0-6.593,20.093l-5.546,9.14a4.43,4.43,0,0,0-3.489.384,4.613,4.613,0,1,0,5.407.767l6.07-9.977L21,21.105l-.977-.558a8.936,8.936,0,1,1,13.465-7.71,8.754,8.754,0,0,1-.384,2.617l2.128.662a11.018,11.018,0,0,0,.489-3.279A11.179,11.179,0,0,0,24.558,1.674Zm0,6.7a4.465,4.465,0,1,0,0,8.93,4.429,4.429,0,0,0,1.081-.139L31.011,26.9l.524.977,1.011-.523a8.812,8.812,0,0,1,4.291-1.116,8.93,8.93,0,1,1-6.209,15.349l-1.535,1.6A11.158,11.158,0,1,0,36.837,24a11,11,0,0,0-4.326.977l-4.918-8.93a4.414,4.414,0,0,0,1.43-3.21A4.479,4.479,0,0,0,24.558,8.372Zm0,2.233a2.233,2.233,0,1,1-2.232,2.232A2.215,2.215,0,0,1,24.558,10.605ZM8.442,24.314A11.157,11.157,0,1,0,22.116,36.279h10.43a4.465,4.465,0,1,0,0-2.232H20.093v1.116A8.93,8.93,0,1,1,9,26.512Zm2.442,8.616a2.287,2.287,0,1,1-.837.314A2.212,2.212,0,0,1,10.884,32.93Zm25.953,0A2.233,2.233,0,1,1,34.6,35.163,2.216,2.216,0,0,1,36.837,32.93Z"/></svg>