<svg xmlns="http://www.w3.org/2000/svg" width="22" height="22" viewBox="0 0 22 22"><defs><style></style></defs><title>Manage</title><path class="a" d="M9.786,0A4.563,4.563,0,0,0,6.039,1.569c-.9,1.185-1.113,3.143-.546,5.546A1.669,1.669,0,0,0,5.171,8.3a1.957,1.957,0,0,0,.837,1.6,4.816,4.816,0,0,0,1.026,2.154v1.668c-.271.641-1.212,1.016-2.3,1.446-1.827.724-4.1,1.624-4.257,4.465l-.026.494H11.247c0-.017,0-.035,0-.052s-.013-.029-.02-.042a5.977,5.977,0,0,1-.556-5.214l0-.013-.018-.024.034-.018.022-.055c.044-.115.088-.229.139-.34.013-.029.028-.057.04-.086.092-.19.191-.375.3-.556.034-.058.069-.115.106-.172.051-.08.106-.159.16-.236.022-.029.039-.058.061-.086l-1.66.924L7.97,13.121V11.843l.008-.267-.236-.135A3.746,3.746,0,0,1,6.9,9.506l-.006-.42H6.465C6.4,9.06,6.189,8.837,6.1,8.2a.644.644,0,0,1,.167-.556l.274-.183-.08-.32C5.9,4.9,6.032,3.123,6.785,2.134A3.684,3.684,0,0,1,9.8.936c.885,0,1.521.223,1.748.611l.113.2.225.031a1.532,1.532,0,0,1,1.225.832A6.41,6.41,0,0,1,13.26,7.1l-.148.384.371.187a.63.63,0,0,1,.126.526c-.062.693-.281.878-.329.887h-.406l-.057.4a4.165,4.165,0,0,1-.866,1.955l-.236.133v1.337l1.07-1.071.093-.094a6.025,6.025,0,0,0,.812-1.824c.336-.16.755-.573.852-1.641a1.616,1.616,0,0,0-.3-1.164,7.021,7.021,0,0,0-.333-4.992A2.4,2.4,0,0,0,12.221.881,3.009,3.009,0,0,0,9.786,0ZM15.46,11.7l-.28,1.5a1.951,1.951,0,0,0-.468.186L13.446,12.5l-1.4,1.4.843,1.17c-.047.186-.141.329-.188.516l-1.45.234v1.965l1.45.234a1.976,1.976,0,0,0,.188.468l-.843,1.264,1.4,1.4,1.266-.841a2.292,2.292,0,0,0,.514.186L15.46,22h1.918l.281-1.45a3.373,3.373,0,0,0,.468-.188l1.266.843,1.4-1.4-.891-1.217a3.659,3.659,0,0,0,.189-.516l1.45-.28V15.822l-1.5-.234a1.968,1.968,0,0,0-.186-.468l.841-1.266L19.345,12.5l-1.218.888a1.968,1.968,0,0,0-.468-.186l-.234-1.5Zm.795.936h.375l.188,1.264.28.1a4.083,4.083,0,0,1,.8.325l.282.189,1.075-.8.234.234-.748,1.075.141.234a6.17,6.17,0,0,1,.327.845l.094.28,1.311.188v.373l-1.264.282-.095.281a4.163,4.163,0,0,1-.325.794l-.189.282.8,1.077-.282.279-1.075-.748-.234.141a6.286,6.286,0,0,1-.843.328l-.28.093-.234,1.311h-.377L16.021,19.8l-.282-.1a4.115,4.115,0,0,1-.793-.325l-.282-.189-1.122.748-.282-.279.75-1.077-.143-.234c-.139-.282-.232-.607-.325-.842l-.1-.281-1.263-.234v-.375l1.311-.234.048-.327a2.412,2.412,0,0,1,.279-.75l.189-.234L13.26,14l.282-.282,1.075.75.234-.1c.327-.141.609-.28.888-.373l.282-.048Zm-8.391,1.5,0,0,1.165.651L7.965,16.111,7.091,15.05A2.4,2.4,0,0,0,7.864,14.134Zm8.532.845a1.872,1.872,0,1,0,1.872,1.872A1.88,1.88,0,0,0,16.4,14.979Zm-10.123.55,1.337,1.62a.464.464,0,0,0,.364.17.47.47,0,0,0,.362-.175L9.254,16l.355.287a8.325,8.325,0,0,0-1.171,2.9H1.474c.343-1.859,2-2.515,3.607-3.152C5.5,15.875,5.9,15.712,6.273,15.529Zm10.123.386a.936.936,0,0,1,.936.936.9.9,0,0,1-.936.936.936.936,0,0,1,0-1.872Z"/></svg>