<svg xmlns="http://www.w3.org/2000/svg" width="52" height="50" viewBox="0 0 52 50"><defs><style>.a{fill:#00acc1;}.b{fill:#37474f;}</style></defs><title>MultipleDevices</title><path class="a" d="M10,5A4,4,0,0,0,6,9v9h5V10H43V24h5V9a4,4,0,0,0-4-4ZM4,19a2,2,0,0,0-2,2V45a2,2,0,0,0,2,2H23a2,2,0,0,0,2-2V21a2,2,0,0,0-2-2Zm2,4H21V41H6Zm33,2a2,2,0,0,0-2,2V45a2,2,0,0,0,2,2H50a2,2,0,0,0,2-2V27a2,2,0,0,0-2-2Zm2,4h7V41H41ZM26,33V44H36V40H32V37h4V33ZM13.5,42.5a1,1,0,1,1-1,1A1,1,0,0,1,13.5,42.5Zm31,0a1,1,0,1,1-1,1A1,1,0,0,1,44.5,42.5Z"/><path class="b" d="M8,3A4,4,0,0,0,4,7v9H6V7A1.9,1.9,0,0,1,8,5H42a1.9,1.9,0,0,1,2,2V22h2V7a4,4,0,0,0-4-4Zm.813,4A1,1,0,0,0,8,8v8h2V9H40V22h2V8a1,1,0,0,0-1-1H8.813ZM2,17a2.033,2.033,0,0,0-1.437.563A2.033,2.033,0,0,0,0,19V43a2.033,2.033,0,0,0,.563,1.437A2.033,2.033,0,0,0,2,45H21a1.926,1.926,0,0,0,2-2V19a1.926,1.926,0,0,0-2-2Zm0,2H21V43H2Zm1.813,1A1,1,0,0,0,3,21V39a1,1,0,0,0,1,1H19a1,1,0,0,0,1-1V21a1,1,0,0,0-1-1H3.813ZM5,22H18V38H5Zm32,1a1.926,1.926,0,0,0-2,2V43a1.926,1.926,0,0,0,2,2H48a1.926,1.926,0,0,0,2-2V25a1.926,1.926,0,0,0-2-2Zm0,2H48V43H37Zm1.812,1A1,1,0,0,0,38,27V39a1,1,0,0,0,1,1h7a1,1,0,0,0,1-1V27a1,1,0,0,0-1-1H38.812ZM40,28h5V38H40ZM24,31v2H34V31Zm5,3v5h5V37H31V36h3V34Zm-5,6v2H34V40Zm-12.5.5a1,1,0,1,0,1,1A1,1,0,0,0,11.5,40.5Zm31,0a1,1,0,1,0,1,1A1,1,0,0,0,42.5,40.5Z"/></svg>