<svg xmlns="http://www.w3.org/2000/svg" width="50" height="50" viewBox="0 0 50 50"><defs><style>.a{fill:#00acc1;}.b{fill:#37474f;}</style></defs><title>NFC</title><path class="a" d="M39.091,2H35.43a9.807,9.807,0,0,1,3.661,7.636V43.455A1.084,1.084,0,0,1,38,44.545a1.083,1.083,0,0,1-.771-.319L18.683,25.68a1.091,1.091,0,1,1,1.543-1.542L36.909,40.821V9.636A7.635,7.635,0,0,0,29.273,2H12.909A10.909,10.909,0,0,0,2,12.909V39.091A10.909,10.909,0,0,0,12.909,50H16.57a9.807,9.807,0,0,1-3.661-7.636V8.545a1.09,1.09,0,0,1,1.862-.771L33.317,26.32a1.091,1.091,0,1,1-1.543,1.542L15.091,11.179V42.364A7.635,7.635,0,0,0,22.727,50H39.091A10.909,10.909,0,0,0,50,39.091V12.909A10.909,10.909,0,0,0,39.091,2Z"/><path class="b" d="M10.909,0A10.946,10.946,0,0,0,0,10.909V37.091A10.946,10.946,0,0,0,10.909,48H37.091A10.946,10.946,0,0,0,48,37.091V10.909A10.946,10.946,0,0,0,37.091,0Zm0,2.182H27.273a7.65,7.65,0,0,1,7.636,7.636v29L18.226,22.138a1.091,1.091,0,1,0-1.543,1.542L35.229,42.226a1.092,1.092,0,0,0,1.862-.771V9.818a9.8,9.8,0,0,0-3.678-7.636h3.678a8.743,8.743,0,0,1,8.727,8.727V37.091a8.743,8.743,0,0,1-8.727,8.727H20.727a7.65,7.65,0,0,1-7.636-7.636v-29L29.774,25.862a1.091,1.091,0,1,0,1.543-1.542L12.771,5.774a1.091,1.091,0,0,0-1.862.771V38.182a9.8,9.8,0,0,0,3.678,7.636H10.909a8.743,8.743,0,0,1-8.727-8.727V10.909A8.743,8.743,0,0,1,10.909,2.182Z"/></svg>