<svg xmlns="http://www.w3.org/2000/svg" width="60" height="60" viewBox="0 0 100 100"><defs><style>.edd9e183-d231-4bdb-b19c-6d09538a2ca1{fill:#fff;}</style></defs><title>Asset 1</title><g id="d5491b37-4f27-4d25-a62f-e7c543730122" data-name="Layer 2"><g id="fa15eee2-25f7-480a-93cf-b438aaad820b" data-name="Video No Sidebar"><g id="4fff48c9-cc0a-4abd-999c-ce87bf38bd33" data-name="Header"><path class="edd9e183-d231-4bdb-b19c-6d09538a2ca1" d="M50,0a50,50,0,1,0,50,50A50,50,0,0,0,50,0Zm0,95.65A45.65,45.65,0,1,1,95.65,50,45.61,45.61,0,0,1,50,95.65Zm-15.22-69V73.36a1.25,1.25,0,0,0,1.89,1.07L76.36,51.08a1.26,1.26,0,0,0,0-2.16L36.67,25.57A1.25,1.25,0,0,0,34.78,26.64Z"/></g></g></g></svg>