<svg xmlns="http://www.w3.org/2000/svg" width="50" height="50" viewBox="0 0 50 50"><defs><style>.a{fill:#00acc1;}.b{fill:#37474f;}</style></defs><title>Sensor</title><path class="a" d="M7.714,2A5.73,5.73,0,0,0,2,7.714V44.286A5.73,5.73,0,0,0,7.714,50H44.286A5.73,5.73,0,0,0,50,44.286V7.714A5.73,5.73,0,0,0,44.286,2ZM26,6.571A19.429,19.429,0,1,1,6.571,26,19.455,19.455,0,0,1,26,6.571Zm0,1.143A18.286,18.286,0,1,0,44.286,26,18.31,18.31,0,0,0,26,7.714ZM26,10A16,16,0,1,1,10,26,16.02,16.02,0,0,1,26,10Zm0,2.286A13.714,13.714,0,1,0,39.714,26,13.723,13.723,0,0,0,26,12.286Zm0,2.857A10.857,10.857,0,1,1,15.143,26,10.869,10.869,0,0,1,26,15.143Zm0,3.428A7.429,7.429,0,1,0,33.429,26,7.447,7.447,0,0,0,26,18.571Zm0,4A3.429,3.429,0,1,1,22.571,26,3.442,3.442,0,0,1,26,22.571Z"/><path class="b" d="M5.714,0A5.73,5.73,0,0,0,0,5.714V42.286A5.73,5.73,0,0,0,5.714,48H42.286A5.73,5.73,0,0,0,48,42.286V5.714A5.73,5.73,0,0,0,42.286,0Zm0,2.286H42.286a3.412,3.412,0,0,1,3.428,3.428V42.286a3.412,3.412,0,0,1-3.428,3.428H5.714a3.412,3.412,0,0,1-3.428-3.428V5.714A3.412,3.412,0,0,1,5.714,2.286ZM24,4.571A19.429,19.429,0,1,0,43.429,24,19.455,19.455,0,0,0,24,4.571Zm0,1.143A18.286,18.286,0,1,1,5.714,24,18.3,18.3,0,0,1,24,5.714ZM24,8A16,16,0,1,0,40,24,16.032,16.032,0,0,0,24,8Zm0,2.286A13.714,13.714,0,1,1,10.286,24,13.718,13.718,0,0,1,24,10.286Zm0,2.857A10.857,10.857,0,1,0,34.857,24,10.887,10.887,0,0,0,24,13.143Zm0,3.428A7.429,7.429,0,1,1,16.571,24,7.417,7.417,0,0,1,24,16.571Zm0,4A3.429,3.429,0,1,0,27.429,24,3.436,3.436,0,0,0,24,20.571Z"/></svg>