<svg xmlns="http://www.w3.org/2000/svg" width="52" height="50" viewBox="0 0 52 50"><defs><style>.a{fill:#00acc1;}.b{fill:#37474f;}</style></defs><title>TableList</title><path class="a" d="M49.2,4H4.8A2.805,2.805,0,0,0,2,6.8V47a1,1,0,0,0,1,1H51a1,1,0,0,0,1-1V6.8A2.806,2.806,0,0,0,49.2,4ZM15,40H12V38h3Zm0-6H12V32h3Zm0-6H12V26h3ZM42,40H19V38H42Zm0-6H19V32H42Zm0-6H19V26H42Zm0-8H12V18H42Zm8-8H4V6.8A.791.791,0,0,1,4.8,6H49.2a.792.792,0,0,1,.8.8Z"/><path class="b" d="M2.815,2A2.835,2.835,0,0,0,0,4.812v5a.653.653,0,0,0,0,.125V45a1,1,0,0,0,1,1H49a1,1,0,0,0,1-1V4.812A2.835,2.835,0,0,0,47.189,2Zm0,2H47.189A.793.793,0,0,1,48,4.812V9H2V4.812A.792.792,0,0,1,2.815,4ZM2,11H48V44H2Zm8,5v2H40V16Zm0,8v2h3V24Zm7,0v2H40V24Zm-7,6v2h3V30Zm7,0v2H40V30Zm-7,6v2h3V36Zm7,0v2H40V36Z"/></svg>