<svg xmlns="http://www.w3.org/2000/svg" width="56" height="50" viewBox="0 0 56 50"><defs><style>.a{fill:#00acc1;}.b{fill:#37474f;}</style></defs><title>UpToCloud</title><path class="a" d="M33.32,5A14.293,14.293,0,0,0,20.6,12.815a7.681,7.681,0,0,0-4.185-1.231,7.512,7.512,0,0,0-7.526,6.95,10.263,10.263,0,0,0,3.544,19.953H27.92V27.214l-3.544,3.525a1.123,1.123,0,0,1-1.552,0,1.083,1.083,0,0,1,0-1.53L29,23.157l6.176,6.052a1.083,1.083,0,0,1,0,1.53,1.156,1.156,0,0,1-1.552,0L30.08,27.214V38.487h16.3A9.469,9.469,0,0,0,47.5,19.6c.013-.208.034-.4.034-.6A14.128,14.128,0,0,0,33.32,5ZM30.08,38.487H27.92v7.449a1.08,1.08,0,0,0,2.16,0Z"/><path class="b" d="M31.32,3a14.131,14.131,0,0,0-12.69,8.011,7.516,7.516,0,0,0-4.219-1.429,7.46,7.46,0,0,0-7.459,7.047A10.223,10.223,0,0,0,0,26.2,10.358,10.358,0,0,0,10.429,36.475H19.44a1.09,1.09,0,0,0,.949-.527,1.06,1.06,0,0,0,0-1.072,1.089,1.089,0,0,0-.949-.528H10.429A8.146,8.146,0,0,1,8.235,18.325a1.065,1.065,0,0,0,.776-1.064c0-.149,0-.224,0-.233a5.338,5.338,0,0,1,5.4-5.318,5.46,5.46,0,0,1,3.848,1.562,1.089,1.089,0,0,0,.974.278,1.078,1.078,0,0,0,.781-.644A12.071,12.071,0,0,1,31.32,5.128,11.947,11.947,0,0,1,43.369,17a11.4,11.4,0,0,1-.1,1.463,1.06,1.06,0,0,0,.254.827,1.1,1.1,0,0,0,.793.37h.067a7.347,7.347,0,1,1,0,14.693H34.56a1.089,1.089,0,0,0-.949.528,1.06,1.06,0,0,0,0,1.072,1.09,1.09,0,0,0,.949.527h9.821A9.565,9.565,0,0,0,54,27a9.432,9.432,0,0,0-8.539-9.241c.017-.258.068-.5.068-.765A14.125,14.125,0,0,0,31.32,3ZM27,21.15l-.776.732-5.4,5.319a1.066,1.066,0,0,0,0,1.529,1.106,1.106,0,0,0,1.552,0l3.544-3.491V43.922a1.068,1.068,0,0,0,.536.935,1.1,1.1,0,0,0,1.088,0,1.068,1.068,0,0,0,.536-.935V25.239l3.544,3.491a1.106,1.106,0,0,0,1.552,0,1.066,1.066,0,0,0,0-1.529l-5.4-5.319Z"/></svg>