<svg xmlns="http://www.w3.org/2000/svg" width="56" height="50" viewBox="0 0 56 50"><defs><style>.a{fill:#00acc1;}.b{fill:#37474f;}</style></defs><title>Videos</title><path class="a" d="M7.75,9a5.26,5.26,0,0,0-5.312,5.313V37.688A5.259,5.259,0,0,0,7.75,43H36.438a5.26,5.26,0,0,0,5.312-5.312V14.313A5.26,5.26,0,0,0,36.438,9Zm47.813,3.52L43.875,18.762V33.238L55.563,39.48Z"/><path class="b" d="M5.75,7A5.328,5.328,0,0,0,.438,12.313V35.688A5.328,5.328,0,0,0,5.75,41H34.438a5.328,5.328,0,0,0,5.312-5.312V30.01L52,36.617l1.561.863V10.52L52,11.383,39.75,17.99V12.313A5.329,5.329,0,0,0,34.438,7Zm0,2.125H34.438a3.172,3.172,0,0,1,3.187,3.188V35.688a3.172,3.172,0,0,1-3.187,3.187H5.75a3.172,3.172,0,0,1-3.187-3.187V12.313A3.172,3.172,0,0,1,5.75,9.125Zm45.688,4.947V33.928L39.75,27.619V20.381Z"/></svg>