<svg xmlns="http://www.w3.org/2000/svg" width="1920" height="900" viewBox="0 0 1920 900"><defs><style>.a{fill:#37474f;}.b{fill:#455a64;opacity:0.5;}</style></defs><title>AbstractElements</title><rect class="a" width="1920" height="900"/><rect class="b" x="1262.5" y="476.25" width="62.5" height="62.5" rx="6.25" ry="6.25"/><rect class="b" x="1293.75" y="687.5" width="62.5" height="62.5" rx="6.25" ry="6.25"/><rect class="b" x="1005" y="283.75" width="62.5" height="62.5" rx="6.25" ry="6.25"/><rect class="b" x="1120.75" y="351.25" width="62.5" height="62.5" rx="6.25" ry="6.25"/><rect class="b" x="1575" y="618.75" width="62.5" height="62.5" rx="6.25" ry="6.25"/><rect class="b" x="1606.25" y="413.75" width="62.5" height="62.5" rx="6.25" ry="6.25"/><rect class="b" x="1637.5" y="200" width="62.5" height="62.5" rx="6.25" ry="6.25"/><rect class="b" x="1481.25" y="556.25" width="62.5" height="62.5" rx="6.25" ry="6.25"/><rect class="b" x="542.5" y="625" width="62.5" height="62.5" rx="6.25" ry="6.25"/><rect class="b" x="735" y="413.75" width="62.5" height="62.5" rx="6.25" ry="6.25"/><rect class="b" x="575" y="218.75" width="62.5" height="62.5" rx="6.25" ry="6.25"/><rect class="b" x="951.25" y="562.5" width="62.5" height="62.5" rx="6.25" ry="6.25"/><rect class="b" x="1067.5" y="221.25" width="62.5" height="62.5" rx="6.25" ry="6.25"/><rect class="b" x="888.75" y="500" width="62.5" height="62.5" rx="6.25" ry="6.25"/><rect class="b" x="573.75" y="445" width="62.5" height="62.5" rx="6.25" ry="6.25"/><rect class="b" x="766.25" y="593.75" width="62.5" height="62.5" rx="6.25" ry="6.25"/><rect class="b" x="797.5" y="625" width="62.5" height="62.5" rx="6.25" ry="6.25"/><rect class="b" x="91.5" y="322.75" width="62.5" height="62.5" rx="6.25" ry="6.25"/><rect class="b" x="60.25" y="354" width="62.5" height="62.5" rx="6.25" ry="6.25"/><rect class="b" x="185.25" y="595.25" width="62.5" height="62.5" rx="6.25" ry="6.25"/><rect class="b" x="315" y="281.25" width="62.5" height="62.5" rx="6.25" ry="6.25"/><rect class="b" x="377.5" y="507.5" width="62.5" height="62.5" rx="6.25" ry="6.25"/><rect class="b" x="-0.25" y="445" width="62.5" height="62.5" rx="6.25" ry="6.25"/><rect class="b" x="1762.5" y="493.75" width="62.5" height="62.5" rx="6.25" ry="6.25"/><rect class="b" x="1700" y="262.5" width="62.5" height="62.5" rx="6.25" ry="6.25"/><rect class="b" x="1120.75" y="593.75" width="62.5" height="62.5" rx="6.25" ry="6.25"/><rect class="b" x="797.5" y="252.75" width="62.5" height="62.5" rx="6.25" ry="6.25"/><rect class="b" x="654" y="100" width="62.5" height="62.5" rx="6.25" ry="6.25" transform="translate(1370.5 262.5) rotate(-180)"/><rect class="b" x="1405.25" y="131.25" width="62.5" height="62.5" rx="6.25" ry="6.25" transform="translate(2873 325) rotate(-180)"/><rect class="b" x="1762.5" y="101.5" width="62.5" height="62.5" rx="6.25" ry="6.25" transform="translate(3587.5 265.5) rotate(-180)"/><rect class="b" x="185.25" width="62.5" height="62.5" rx="6.25" ry="6.25" transform="translate(433 62.5) rotate(-180)"/><rect class="b" x="827" y="100" width="62.5" height="62.5" rx="6.25" ry="6.25" transform="translate(1716.5 262.5) rotate(-180)"/><rect class="b" x="1005" y="812.5" width="62.5" height="62.5" rx="6.25" ry="6.25"/><rect class="b" x="1606.25" y="812.5" width="62.5" height="62.5" rx="6.25" ry="6.25"/><rect class="b" x="735" y="750" width="62.5" height="62.5" rx="6.25" ry="6.25"/><rect class="b" x="1067.5" y="750" width="62.5" height="62.5" rx="6.25" ry="6.25"/><rect class="b" x="279" y="687.5" width="62.5" height="62.5" rx="6.25" ry="6.25"/><rect class="b" x="247.75" y="718.75" width="62.5" height="62.5" rx="6.25" ry="6.25"/><rect class="b" x="1200" y="6.25" width="62.5" height="62.5" rx="6.25" ry="6.25"/><rect class="b" x="1262.5" y="68.75" width="62.5" height="62.5" rx="6.25" ry="6.25"/></svg>