<svg xmlns="http://www.w3.org/2000/svg" xmlns:xlink="http://www.w3.org/1999/xlink" width="2500" height="900" viewBox="0 0 2500 900"><defs><style>.a{fill:none;}.b{fill:#37474f;}.c{clip-path:url(#a);}.d{opacity:0.25;}.e{fill:#455a64;}</style><clipPath id="a"><rect class="a" width="2500" height="900"/></clipPath></defs><title>AtmosphereCareersExtBackground</title><rect class="b" width="2500" height="900"/><g class="c"><g class="d"><path class="e" d="M1192.029,1388.041l-1489.14-875.7q15.964,27.463,32.338,53.82Q-249,591.57-232.9,615.96q15.525,23.534,31.306,46.132,15.231,21.823,30.662,42.787l1361.608,687.346Q1191.288,1390.1,1192.029,1388.041Z"/><path class="e" d="M1194.609,1381.846-451.725,189.637q1.391,3.608,2.774,7.191t2.763,7.126q1.38,3.543,2.773,7.077t2.8,7.041q14.124,35.19,29.044,69.091,14.372,32.685,29.409,64.167,14.5,30.377,29.549,59.634,14.524,28.251,29.509,55.462l1515.478,920.679Q1193.385,1384.414,1194.609,1381.846Z"/><path class="e" d="M1198.922,1374.122-580.4-283.829q9.561,57.84,21.6,113.844,11.489,53.592,25.06,105.384,12.971,49.595,27.69,97.451,14.084,45.858,29.635,90.062l1671.6,1257.758A67.6,67.6,0,0,1,1198.922,1374.122Z"/><path class="e" d="M1236.627,1345.9,511.654-2672.488a1829.428,1829.428,0,0,0-218.821,132.579A1928.584,1928.584,0,0,0,97.512-2382.028a2031.958,2031.958,0,0,0-169.64,176.463,2132.441,2132.441,0,0,0-143.316,188.53L1220.919,1352.85A68.2,68.2,0,0,1,1236.627,1345.9Z"/><path class="e" d="M1206.215,1364.784-596.808-970.117q-9.339,81.6-13.213,162.028-3.753,76.8-2.8,152.068.865,71.877,5.754,142.017,4.631,66.991,12.681,132.134L1199.887,1372.678A67.9,67.9,0,0,1,1206.215,1364.784Z"/><path class="e" d="M1297.353,1357.016l1841.8-2543.877q-18.517-93.885-44.97-187.572-27.684-97.734-64.247-194.147-38.175-100.4-86.1-198.027a2246.418,2246.418,0,0,0-110.288-198.3L1284.32,1349.2A67.634,67.634,0,0,1,1297.353,1357.016Z"/><path class="e" d="M1259.482,1343.155,1742-2805.452a1663.292,1663.292,0,0,0-258.713-50.182,1655.194,1655.194,0,0,0-264.44-8.51,1676.8,1676.8,0,0,0-262.544,33.51,1726.3,1726.3,0,0,0-253.253,73.505l537.206,4102.05A67.608,67.608,0,0,1,1259.482,1343.155Z"/><path class="e" d="M1307.777,1366.886,3170.943-421.707q7.84-68.61,11.955-139.344,4.254-74,4.092-150.006-.228-79.515-5.659-160.793-5.748-85.012-17.574-171.385l-1864.3,2401.922A68.176,68.176,0,0,1,1307.777,1366.886Z"/><path class="e" d="M1267.88,1344.108a68.381,68.381,0,0,1,13.3,3.758l1445.227-3467.85a2045.879,2045.879,0,0,0-157.721-184.175,1964.68,1964.68,0,0,0-184.657-168.512,1888.216,1888.216,0,0,0-210.176-146.343,1823.089,1823.089,0,0,0-232.664-117.831L1263.351,1343.468C1264.856,1343.632,1266.366,1343.841,1267.88,1344.108Z"/><path class="e" d="M1218.306,1354.506-310.761-1861.32q-53.518,94.964-97.31,194.122-42.062,95-75.155,192.464-31.748,93.226-55.407,187.532-22.687,90.106-38.2,180.241L1207.842,1363.1A68.435,68.435,0,0,1,1218.306,1354.506Z"/><path class="e" d="M1190.466,1392.974-146.693,737.142q14.805,19.345,29.747,37.94,14.45,17.988,29,35.285,14.079,16.746,28.222,32.855,13.7,15.609,27.435,30.63l1221.919,522.5Q1190.007,1394.642,1190.466,1392.974Z"/><path class="e" d="M1189.032,1399.318c.14-.793.3-1.578.464-2.359L-10.746,897.032q13.175,13.95,26.353,27.38Q28.395,937.447,41.171,950q12.407,12.2,24.793,23.952Q78,985.382,90.006,996.4l1098.958,403.332C1188.988,1399.6,1189.008,1399.456,1189.032,1399.318Z"/><path class="e" d="M1321.884,1393.774l1250.127-497.6q14.553-15.32,29.048-31.223,14.964-16.423,29.844-33.483,15.372-17.628,30.633-35.95,15.775-18.946,31.409-38.649L1320.7,1389.771Q1321.351,1391.75,1321.884,1393.774Z"/><path class="e" d="M1320.394,1388.892l1398.288-665.1q16.5-21.66,32.774-44.2,16.859-23.358,33.438-47.678,17.187-25.221,34.028-51.492,17.469-27.267,34.513-55.678L1318.491,1384.018Q1319.534,1386.414,1320.394,1388.892Z"/><path class="e" d="M1318.011,1382.941,2881.369,476.857q17.773-31.428,34.95-64.2,17.851-34.086,34.968-69.628,17.8-37,34.7-75.578,17.589-40.193,34.077-82.084l-1705.142,1191.6Q1316.611,1379.875,1318.011,1382.941Z"/><path class="e" d="M3156.482-317.172,1309.071,1368.45a68.525,68.525,0,0,1,5.07,7.208L3046.521,114.7q16.6-46.59,31.638-95.087,15.672-50.633,29.452-103.273,14.366-54.993,26.444-112.07Q3146.645-255.39,3156.482-317.172Z"/></g></g></svg>