<svg xmlns="http://www.w3.org/2000/svg" xmlns:xlink="http://www.w3.org/1999/xlink" width="1920" height="900" viewBox="0 0 1920 900"><defs><style>.a{fill:none;}.b{fill:#37474f;}.c{clip-path:url(#a);}.d{opacity:0.25;}.e{fill:#455a64;}</style><clipPath id="a"><rect class="a" width="1920" height="900"/></clipPath></defs><title>AtmosphereCareersBackground</title><rect class="b" width="1920" height="900"/><g class="c"><g class="d"><path class="e" d="M902.029,1115.041l-1489.14-875.7q15.965,27.463,32.338,53.82Q-539,318.57-522.9,342.96q15.525,23.534,31.306,46.132,15.231,21.824,30.662,42.787L900.676,1119.225Q901.288,1117.1,902.029,1115.041Z"/><path class="e" d="M904.609,1108.846-741.725-83.363q1.391,3.608,2.774,7.191t2.763,7.126q1.38,3.543,2.773,7.077t2.8,7.041q14.124,35.19,29.044,69.091Q-687.2,46.848-672.162,78.33q14.5,30.377,29.549,59.634,14.525,28.251,29.509,55.462L902.374,1114.105Q903.385,1111.414,904.609,1108.846Z"/><path class="e" d="M908.922,1101.122-870.4-556.829q9.561,57.84,21.6,113.844,11.489,53.592,25.06,105.384,12.971,49.594,27.69,97.451,14.083,45.858,29.635,90.062L905.183,1107.67A67.6,67.6,0,0,1,908.922,1101.122Z"/><path class="e" d="M946.627,1072.9,221.654-2945.488A1829.428,1829.428,0,0,0,2.833-2812.909a1928.584,1928.584,0,0,0-195.321,157.881,2031.958,2031.958,0,0,0-169.64,176.463,2132.441,2132.441,0,0,0-143.316,188.53L930.919,1079.85A68.2,68.2,0,0,1,946.627,1072.9Z"/><path class="e" d="M916.215,1091.784l-1803.023-2334.9q-9.339,81.6-13.213,162.028-3.753,76.8-2.8,152.068.865,71.877,5.754,142.017,4.631,66.992,12.681,132.134L909.887,1099.678A67.9,67.9,0,0,1,916.215,1091.784Z"/><path class="e" d="M1007.353,1084.016l1841.8-2543.877q-18.517-93.885-44.97-187.572-27.684-97.734-64.247-194.147-38.175-100.4-86.1-198.027a2246.418,2246.418,0,0,0-110.288-198.3L994.32,1076.2A67.634,67.634,0,0,1,1007.353,1084.016Z"/><path class="e" d="M969.482,1070.155,1452-3078.452a1663.292,1663.292,0,0,0-258.713-50.182,1655.194,1655.194,0,0,0-264.44-8.51,1676.8,1676.8,0,0,0-262.544,33.51,1726.3,1726.3,0,0,0-253.253,73.505l537.206,4102.05A67.608,67.608,0,0,1,969.482,1070.155Z"/><path class="e" d="M1017.777,1093.886,2880.943-694.707q7.84-68.61,11.955-139.344,4.254-74,4.092-150.006-.228-79.515-5.659-160.793-5.748-85.013-17.574-171.385l-1864.3,2401.922A68.176,68.176,0,0,1,1017.777,1093.886Z"/><path class="e" d="M977.88,1071.108a68.381,68.381,0,0,1,13.3,3.758l1445.227-3467.85a2045.879,2045.879,0,0,0-157.721-184.175,1964.68,1964.68,0,0,0-184.657-168.512,1888.216,1888.216,0,0,0-210.176-146.343,1823.089,1823.089,0,0,0-232.664-117.831L973.351,1070.468C974.856,1070.632,976.366,1070.841,977.88,1071.108Z"/><path class="e" d="M928.306,1081.506-600.761-2134.32q-53.519,94.964-97.31,194.122-42.061,95-75.155,192.464-31.747,93.226-55.407,187.532-22.687,90.106-38.2,180.241L917.842,1090.1A68.435,68.435,0,0,1,928.306,1081.506Z"/><path class="e" d="M900.466,1119.974-436.693,464.142q14.805,19.345,29.747,37.94,14.45,17.988,29,35.285,14.079,16.746,28.222,32.855,13.7,15.609,27.435,30.63l1221.919,522.5Q900.007,1121.642,900.466,1119.974Z"/><path class="e" d="M898.881,1127.241-181.168,740.456q11.513,10.285,22.979,20.21,11.16,9.661,22.275,18.99,10.824,9.086,21.6,17.867,10.5,8.557,20.964,16.834L898.54,1129.573C898.639,1128.8,898.755,1128.019,898.881,1127.241Z"/><path class="e" d="M899.032,1126.318c.14-.793.3-1.578.464-2.359L-300.746,624.032q13.174,13.95,26.353,27.38,12.787,13.035,25.564,25.592,12.407,12.2,24.793,23.952Q-212,712.382-199.994,723.4L898.964,1126.734C898.988,1126.6,899.008,1126.456,899.032,1126.318Z"/><path class="e" d="M898.486,1130-76.964,827.175q9.988,7.737,19.933,15.225,9.7,7.307,19.352,14.379,9.419,6.9,18.786,13.592Q-9.747,876.9-.658,883.229L898.276,1132Q898.368,1131,898.486,1130Z"/><path class="e" d="M898.244,1132.375,13.569,893.04Q22.3,899,30.98,904.778q8.482,5.65,16.911,11.132,8.244,5.364,16.439,10.569,8.017,5.094,15.99,10.042l817.8,197.6Q898.169,1133.252,898.244,1132.375Z"/><path class="e" d="M1031.884,1120.774l1250.127-497.6q14.553-15.32,29.048-31.223,14.964-16.423,29.844-33.483,15.372-17.628,30.633-35.95,15.775-18.946,31.409-38.649L1030.7,1116.771Q1031.351,1118.75,1031.884,1120.774Z"/><path class="e" d="M1030.394,1115.892l1398.288-665.1q16.5-21.66,32.774-44.2,16.859-23.358,33.438-47.678,17.187-25.221,34.028-51.492,17.469-27.267,34.513-55.678L1028.491,1111.018Q1029.534,1113.414,1030.394,1115.892Z"/><path class="e" d="M1032.825,1124.823l1120.8-378.033q12.649-11.13,25.307-22.657,13.026-11.867,26.05-24.161,13.411-12.664,26.811-25.795,13.806-13.535,27.588-27.576L1032.074,1121.5Q1032.491,1123.146,1032.825,1124.823Z"/><path class="e" d="M1028.011,1109.941,2591.369,203.857q17.773-31.428,34.95-64.2,17.851-34.086,34.968-69.628,17.8-37,34.7-75.578,17.589-40.192,34.077-82.084l-1705.142,1191.6Q1026.611,1106.875,1028.011,1109.941Z"/><path class="e" d="M2866.482-590.172,1019.071,1095.45a68.525,68.525,0,0,1,5.07,7.208L2756.521-158.3q16.6-46.59,31.638-95.087,15.672-50.633,29.452-103.273,14.366-54.993,26.444-112.07Q2856.645-528.39,2866.482-590.172Z"/><path class="e" d="M1033.414,1128.234,2042.187,837.772q10.962-8.288,21.959-16.851,11.289-8.792,22.6-17.879,11.622-9.335,23.263-18.986,11.961-9.92,23.933-20.178l-1101,361.554Q1033.206,1126.826,1033.414,1128.234Z"/><path class="e" d="M1033.781,1131.149l911.548-224.827q9.546-6.312,19.126-12.817,9.812-6.664,19.657-13.535,10.089-7.041,20.213-14.307,10.377-7.447,20.791-15.138L1033.487,1128.75C1033.6,1129.547,1033.7,1130.346,1033.781,1131.149Z"/></g></g></svg>