<svg xmlns="http://www.w3.org/2000/svg" xmlns:xlink="http://www.w3.org/1999/xlink" width="2550" height="500" viewBox="0 0 2550 500"><defs><style>.a{fill:none;}.b{fill:#263238;}.c{clip-path:url(#a);}.d{fill:#37474f;}</style><clipPath id="a"><rect class="a" width="2550" height="500"/></clipPath></defs><title>BluegrayCircuits</title><rect class="b" width="2550" height="500"/><g class="c"><path class="d" d="M199.552,231.139a1.931,1.931,0,0,0-.574,1.381v29.7l-81.552,80.727a6.511,6.511,0,1,0,2.213,3.28h0l82.649-81.815a1.945,1.945,0,0,0,.579-1.381v-29.7l92.986-92.341h47.723a1.946,1.946,0,0,0,1.378-.569L397.1,88.268a7.781,7.781,0,0,0,4,1.126,7.87,7.87,0,1,0-7.867-7.867,7.782,7.782,0,0,0,1.123,3.989L342.771,137.1H295.049a1.945,1.945,0,0,0-1.373.567ZM401.1,76.768a4.758,4.758,0,1,1-4.761,4.759A4.761,4.761,0,0,1,401.1,76.768Z"/><path class="d" d="M339.859,160.623l12.389-12.389a6.387,6.387,0,1,0-2.747-2.748L337.682,157.3h-39.7a1.945,1.945,0,0,0-1.378.57l-80.154,80.153a1.95,1.95,0,0,0-.569,1.376v27.318h0a7.868,7.868,0,1,0,3.889,0V240.205l79.021-79.013h39.7A1.94,1.94,0,0,0,339.859,160.623ZM222.581,274.317a4.759,4.759,0,1,1-4.762-4.756A4.764,4.764,0,0,1,222.581,274.317Zm-4.762-7.871a7.8,7.8,0,0,0-1.22.124,6.069,6.069,0,0,1,2.441,0A7.784,7.784,0,0,0,217.819,266.446Z"/><path class="d" d="M152.553,206.92,102.577,256.9H78.664a1.946,1.946,0,0,0-1.368.564L56.873,277.684a1.952,1.952,0,0,0-.577,1.384v55.621a6.315,6.315,0,1,0,3.888,0h0V279.877l19.278-19.092h23.918a1.939,1.939,0,0,0,1.376-.572L155.873,209.1a1.952,1.952,0,0,0,.569-1.373V186.569h0a7.871,7.871,0,1,0-3.889,0h0ZM58.241,334.352a6.188,6.188,0,0,0-1.044.106,5.194,5.194,0,0,1,2.088,0A6.188,6.188,0,0,0,58.241,334.352Zm91.5-155.378a4.758,4.758,0,1,1,4.756,4.756A4.761,4.761,0,0,1,149.741,178.974Zm4.756,7.867a7.809,7.809,0,0,0,1.222-.123,6.132,6.132,0,0,1-2.444,0A7.821,7.821,0,0,0,154.5,186.841Z"/><path class="d" d="M189.377,745.018,282.1,648.409a1.971,1.971,0,0,0,.542-1.35l-.2-120.71L394.629,415.132H415.25a1.937,1.937,0,0,0,1.452-.657l23.477-26.514h9.258a7.867,7.867,0,1,0,0-3.887H439.307a1.939,1.939,0,0,0-1.456.653l-23.477,26.516H393.83a1.941,1.941,0,0,0-1.368.564L279.131,524.159a1.945,1.945,0,0,0-.579,1.384l.2,120.738-92.72,96.607a1.934,1.934,0,0,0-.543,1.347v18.9h0a7.873,7.873,0,1,0,3.889,0h0Zm267.655-363.76a4.759,4.759,0,1,1-4.751,4.758A4.765,4.765,0,0,1,457.032,381.258Zm-7.744,3.536a6.083,6.083,0,0,0,0,2.444,6.083,6.083,0,0,1,0-2.444ZM192.191,770.73a4.759,4.759,0,1,1-4.761-4.756A4.762,4.762,0,0,1,192.191,770.73Zm-4.761-7.867a7.809,7.809,0,0,0-1.222.123,6.132,6.132,0,0,1,2.444,0A7.821,7.821,0,0,0,187.43,762.863Z"/><path class="d" d="M127.24,447.582a1.947,1.947,0,0,0,.569-1.374V426.527l13.1-13.1h15.378a1.953,1.953,0,0,0,1.375-.568l81.01-81.013h0a7.786,7.786,0,0,0,3.994,1.125A7.869,7.869,0,1,0,234.8,325.1a7.786,7.786,0,0,0,1.124,3.99h0l-80.439,80.442H140.106a1.953,1.953,0,0,0-1.375.571L79.915,468.921a1.925,1.925,0,0,0-.573,1.373v41.027a1.932,1.932,0,0,0,.573,1.376l33.4,33.4h0a7.786,7.786,0,0,0-1.126,3.993,7.869,7.869,0,1,0,7.87-7.87,7.784,7.784,0,0,0-3.995,1.127h0l-32.83-32.829V471.1l40.685-40.685V445.4l-25.66,25.66a1.947,1.947,0,0,0-.569,1.376v28.914a1.945,1.945,0,0,0,.569,1.376l13.569,13.567h0a7.779,7.779,0,0,0-1.126,3.993,7.869,7.869,0,1,0,7.87-7.87,7.78,7.78,0,0,0-3.994,1.126l-13-13v-27.3ZM242.67,320.34a4.759,4.759,0,1,1-4.761,4.759A4.765,4.765,0,0,1,242.67,320.34ZM120.056,545.331a4.758,4.758,0,1,1-4.758,4.759A4.764,4.764,0,0,1,120.056,545.331Zm-1.485-29.8a4.757,4.757,0,1,1-4.758,4.756A4.764,4.764,0,0,1,118.571,515.532Z"/><path class="d" d="M53.565,1123.822V943.849a1.945,1.945,0,0,0-.571-1.379l-78.488-78.493V677.248a1.941,1.941,0,0,0-1.2-1.8c-.05-.021-.1-.037-.144-.057l-88.744-88.739V533.112l36.961-36.961h0a6.245,6.245,0,0,0,2.855.711,6.312,6.312,0,0,0,6.312-6.314,6.313,6.313,0,0,0-6.312-6.312,6.314,6.314,0,0,0-6.315,6.312,6.255,6.255,0,0,0,.711,2.855h0l-37.53,37.53a1.94,1.94,0,0,0-.568,1.375V587.46a1.94,1.94,0,0,0,.568,1.375l89.517,89.52V864.781a1.965,1.965,0,0,0,.57,1.383l78.49,78.488v179.974a1.948,1.948,0,0,0,.569,1.378l11.577,11.574v194.247h3.889V1136.774a1.963,1.963,0,0,0-.568-1.378Z"/><path class="d" d="M42.4,1128.453V948.469a1.934,1.934,0,0,0-.57-1.368l-78.493-78.488V730.52a1.968,1.968,0,0,0-.545-1.352l-11-11.381V666.948a1.924,1.924,0,0,0-.569-1.373l-71.241-71.244L-140,574.353V541.061l60.687-60.368,0,0a6.267,6.267,0,0,0,3.654,1.181,6.314,6.314,0,0,0,6.314-6.314,6.312,6.312,0,0,0-6.314-6.312,6.313,6.313,0,0,0-6.314,6.312,6.231,6.231,0,0,0,.341,1.958h0l-61.682,61.361a1.946,1.946,0,0,0-.575,1.378v34.9a1.946,1.946,0,0,0,.572,1.376l17.226,17.228H-142.12l-12.7-12.7V519.369l42.914-42.912h18.7a1.947,1.947,0,0,0,1.376-.569l10.762-10.764a7.789,7.789,0,0,0,4.109,1.19,7.88,7.88,0,0,0,7.87-7.871,7.877,7.877,0,0,0-7.87-7.868,7.877,7.877,0,0,0-7.868,7.868,7.78,7.78,0,0,0,1.063,3.877h0l-10.246,10.248h-18.7a1.94,1.94,0,0,0-1.373.569l-44.055,44.052a1.936,1.936,0,0,0-.569,1.376v63.3a1.937,1.937,0,0,0,.569,1.375l13.84,13.838a1.939,1.939,0,0,0,1.376.572H-122.2l70.1,70.1v50.824a1.949,1.949,0,0,0,.548,1.352l11,11.381v138.1a1.926,1.926,0,0,0,.572,1.373l78.491,78.493v179.979a1.944,1.944,0,0,0,.568,1.372L50.42,1141.98v189.845h3.892V1141.17a1.948,1.948,0,0,0-.569-1.373ZM-81.237,478.467l-.017-.03Zm4.28-24.78a4.762,4.762,0,0,1,4.758,4.756,4.765,4.765,0,0,1-4.758,4.759,4.765,4.765,0,0,1-4.756-4.759A4.762,4.762,0,0,1-76.957,453.687Zm-4.805,10.943c-.081-.064-.159-.13-.238-.2C-81.921,464.5-81.843,464.566-81.762,464.63Z"/><path class="d" d="M31.226,1133.078V953.1a1.935,1.935,0,0,0-.572-1.372l-78.49-78.494V735.151a1.945,1.945,0,0,0-.57-1.378L-187.278,594.9V500.945l86.637-86.638a1.955,1.955,0,0,0,.569-1.375v-206.9a2,2,0,0,0-.263-.982l-32.894-56.51h0a6.265,6.265,0,0,0,1.625-4.194,6.313,6.313,0,0,0-6.314-6.312,6.315,6.315,0,0,0-6.315,6.312,6.315,6.315,0,0,0,6.315,6.315,6.277,6.277,0,0,0,1.338-.149l32.617,56.044V412.125L-190.6,498.763a1.95,1.95,0,0,0-.568,1.378v95.565a1.946,1.946,0,0,0,.568,1.373L-51.726,735.96V874.037a1.926,1.926,0,0,0,.572,1.373L27.334,953.9v179.978a1.956,1.956,0,0,0,.569,1.378l11.112,11.105-.036,185.46h3.889l.039-186.264a1.967,1.967,0,0,0-.571-1.378ZM-135.588,150.2a5.986,5.986,0,0,1-.99.307A6.246,6.246,0,0,0-135.588,150.2Zm1.73-1.059c-.054.047-.109.092-.165.136C-133.967,149.233-133.912,149.187-133.858,149.141Zm-.8.582c-.111.069-.228.125-.344.187C-134.882,149.849-134.765,149.791-134.654,149.723Z"/><path class="d" d="M20.054,1137.7V957.725a1.935,1.935,0,0,0-.57-1.373l-78.49-78.493V739.776a1.934,1.934,0,0,0-.569-1.372L-198.451,599.527V496.317l86.638-86.635a1.953,1.953,0,0,0,.569-1.378V206.26a1.914,1.914,0,0,0-.267-.984l-35.633-60.762V127.009a7.863,7.863,0,0,0,5.925-7.6,7.877,7.877,0,0,0-7.87-7.868,7.877,7.877,0,0,0-7.87,7.868,7.861,7.861,0,0,0,5.923,7.6v18.034a1.957,1.957,0,0,0,.268.984l35.637,60.761V407.5l-86.64,86.637a1.95,1.95,0,0,0-.567,1.373V600.331a1.945,1.945,0,0,0,.567,1.376L-62.895,740.586V878.668a1.96,1.96,0,0,0,.571,1.378l78.489,78.488v179.974a1.941,1.941,0,0,0,.571,1.378L28.2,1151.351v180.5H32.09V1150.546a1.947,1.947,0,0,0-.569-1.378Zm-173.9-1018.293a4.762,4.762,0,0,1,4.759-4.756,4.763,4.763,0,0,1,4.759,4.756,4.763,4.763,0,0,1-4.759,4.756A4.763,4.763,0,0,1-153.848,119.411Zm3.537,7.747a7.809,7.809,0,0,0,1.222.123,7.821,7.821,0,0,0,1.222-.123,6.925,6.925,0,0,1-1.222.123A6.915,6.915,0,0,1-150.311,127.158Z"/><path class="d" d="M-2.285,1146.96V966.976a1.955,1.955,0,0,0-.573-1.373l-78.487-78.488V761.479a1.951,1.951,0,0,0-.572-1.378L-220.79,621.227V487.063l86.637-86.637a1.955,1.955,0,0,0,.569-1.379V206.727a1.968,1.968,0,0,0-.263-.982l-46.3-79.169a7.366,7.366,0,0,1-.911.752,7.843,7.843,0,0,0,3.257-6.343,7.878,7.878,0,0,0-7.869-7.87,7.879,7.879,0,0,0-7.871,7.87,7.88,7.88,0,0,0,7.871,7.867,7.743,7.743,0,0,0,2.151-.337l46.046,78.74V398.244l-86.638,86.637a1.944,1.944,0,0,0-.569,1.375V622.034a1.941,1.941,0,0,0,.569,1.375L-85.235,762.283V887.919a1.952,1.952,0,0,0,.569,1.379l78.491,78.488v179.978a1.952,1.952,0,0,0,.569,1.378l11.042,11.037v171.672H9.325V1159.37A1.944,1.944,0,0,0,8.753,1158ZM-190.429,120.985a4.763,4.763,0,0,1,4.759-4.759,4.763,4.763,0,0,1,4.758,4.759,4.764,4.764,0,0,1-4.758,4.756A4.764,4.764,0,0,1-190.429,120.985Zm8.847,6.689c-.126.074-.255.141-.385.209C-181.838,127.814-181.707,127.75-181.582,127.674Z"/><path class="d" d="M133.716,1132.9V952.922a1.967,1.967,0,0,0-.571-1.378L54.657,873.061V630.849a1.951,1.951,0,0,0-.52-1.321L-18,551.834V272.348L1.844,252.7a1.974,1.974,0,0,0,.574-1.384V70a7.863,7.863,0,0,0,5.926-7.6,7.879,7.879,0,0,0-7.87-7.871A7.88,7.88,0,0,0-7.4,62.4,7.863,7.863,0,0,0-1.471,70h0V250.5L-21.32,270.156a1.953,1.953,0,0,0-.575,1.384V552.6a1.933,1.933,0,0,0,.52,1.323l72.139,77.695c0,242.712,0,242.708.209,243.114a1.805,1.805,0,0,0,.363.507l78.488,78.493V1133.7a1.953,1.953,0,0,0,.572,1.379l32.9,32.9v163.872h3.892V1167.175a1.931,1.931,0,0,0-.572-1.374ZM-4.285,62.4A4.765,4.765,0,0,1,.474,57.645a4.757,4.757,0,1,1,0,9.514A4.764,4.764,0,0,1-4.285,62.4ZM.474,70.273A7.808,7.808,0,0,0,1.7,70.15a6.914,6.914,0,0,1-1.221.123A6.915,6.915,0,0,1-.748,70.15,7.809,7.809,0,0,0,.474,70.273Z"/><path class="d" d="M144.886,1128.275V948.3a1.932,1.932,0,0,0-.569-1.374L65.826,868.43V627.79a1.959,1.959,0,0,0-.524-1.332L-6.833,549.5V278.982l19.844-19.656a1.952,1.952,0,0,0,.577-1.381V142.726a6.315,6.315,0,1,0-3.889,0v114.4l-19.85,19.659a1.954,1.954,0,0,0-.574,1.381v272.1A1.95,1.95,0,0,0-10.2,551.6l72.137,76.961,0,237.968c0,2.866,0,4.129,1,4.516L141,949.1v179.983a1.931,1.931,0,0,0,.567,1.368l31.206,31.2v170.2h3.89V1160.857a1.95,1.95,0,0,0-.569-1.378ZM11.643,143.063a6.293,6.293,0,0,0,1.044-.1,5.243,5.243,0,0,1-2.088,0A6.315,6.315,0,0,0,11.643,143.063Z"/><path class="d" d="M156.058,1092.529V943.671a1.938,1.938,0,0,0-.571-1.373L77,863.8V718.742L217.929,576.671a1.938,1.938,0,0,0,.563-1.367V410.7L429.655,199.535h55.621a1.929,1.929,0,0,0,1.373-.568L501.2,184.416a8.079,8.079,0,1,0-2.643-2.861l-14.09,14.089H455.288l29.862-29.86a6.25,6.25,0,0,0,2.856.712,6.315,6.315,0,1,0-6.317-6.317,6.243,6.243,0,0,0,.712,2.855h0l-32.61,32.61h-20.94a1.963,1.963,0,0,0-1.379.571l-212.3,212.3a1.948,1.948,0,0,0-.574,1.376V574.5L77,713.214V700.606l55.28-55.285,0,0h0l72.7-73.265a1.931,1.931,0,0,0,.563-1.371L205.529,402.2,384.266,225.018a1.942,1.942,0,0,0,.574-1.384v-28.89h0a7.868,7.868,0,1,0-3.89,0v28.08l-72.458,71.834V268.031l35.218-35.217h0a7.78,7.78,0,0,0,2.309.385,7.926,7.926,0,1,0-5.712-2.486h0l-35.14,35.136,1.378,1.375H304.6v31.215h.078L202.214,400.008a1.961,1.961,0,0,0-.574,1.383l.026,168.488-68.819,69.344v-39.69l47.368-47.373a1.917,1.917,0,0,0,.574-1.373V500.41a1.938,1.938,0,0,0-.574-1.373l-18.379-18.383h0a9.4,9.4,0,1,0-2.749,2.749l17.81,17.813,0,48.766-44.053,44.05V578.29a1.948,1.948,0,0,0-.566-1.371l-72.1-72.56V478.647l65.961-66.094a1.879,1.879,0,0,0,.491-.981L374.4,163.813H403.53a1.935,1.935,0,0,0,1.357-.556l41.855-41.113h33.795a7.871,7.871,0,1,0,0-3.892h-34.6a1.952,1.952,0,0,0-1.362.561l-41.855,41.111-29.132,0a1.96,1.96,0,0,0-1.378.569l-245.5,245.5V379.331l46.647-46.647a6.252,6.252,0,0,0,2.853.71,6.313,6.313,0,1,0-6.314-6.314,6.245,6.245,0,0,0,.71,2.852L123.4,377.151a1.951,1.951,0,0,0-.569,1.377v31.848l-65.964,66.1a1.943,1.943,0,0,0-.566,1.373v27.317a1.946,1.946,0,0,0,.564,1.368l72.1,72.56v64.05L77,695.1V624.725a1.947,1.947,0,0,0-.534-1.339L4.334,547.161V285.615l19.85-19.659a1.943,1.943,0,0,0,.574-1.379V214.923L46.674,193a1.931,1.931,0,0,0,.572-1.375V71.825a7.866,7.866,0,1,0-3.889,0h0v119L21.44,212.744a1.933,1.933,0,0,0-.572,1.376v49.643L1.022,283.422A1.947,1.947,0,0,0,.445,284.8V547.934a1.952,1.952,0,0,0,.532,1.336L73.109,625.5V864.609a1.945,1.945,0,0,0,.567,1.373l78.49,78.493v148.858a1.94,1.94,0,0,0,.569,1.373l27.939,27.936v209.183h3.89V1121.838a1.95,1.95,0,0,0-.575-1.378Zm349.37-919.488a4.759,4.759,0,1,1-4.761,4.758A4.76,4.76,0,0,1,505.428,173.041Zm-4.772,10.973c-.142-.11-.28-.222-.413-.341C500.377,183.791,500.514,183.905,500.656,184.014Zm-122.514,3.133a4.756,4.756,0,1,1,4.751,4.756A4.76,4.76,0,0,1,378.142,187.147Zm4.751,7.87a7.715,7.715,0,0,0,1.223-.124,6.078,6.078,0,0,1-2.443,0A7.666,7.666,0,0,0,382.893,195.017Zm-36.874,25.555a4.758,4.758,0,1,1-4.761,4.759A4.758,4.758,0,0,1,346.019,220.572Zm-4.811,10.941c-.121-.092-.237-.19-.351-.289Q341.028,231.374,341.208,231.513ZM153.991,481.1a5.548,5.548,0,1,1,3.921-1.624A5.543,5.543,0,0,1,153.991,481.1ZM488.137,115.443a4.756,4.756,0,1,1-4.756,4.756A4.761,4.761,0,0,1,488.137,115.443Zm-7.749,3.535a6.073,6.073,0,0,0,0,2.442,6.073,6.073,0,0,1,0-2.442ZM40.542,64.228A4.759,4.759,0,1,1,45.3,68.984,4.764,4.764,0,0,1,40.542,64.228ZM45.3,72.1a7.7,7.7,0,0,0,1.222-.124A6.841,6.841,0,0,1,45.3,72.1a6.915,6.915,0,0,1-1.222-.124A7.691,7.691,0,0,0,45.3,72.1Z"/><path class="d" d="M122.547,1137.526V957.553a1.951,1.951,0,0,0-.572-1.378L43.487,877.687V633.916a1.961,1.961,0,0,0-.514-1.318L-29.175,554.17V257.937l19.847-19.656a1.956,1.956,0,0,0,.576-1.383v-32.5a1.953,1.953,0,0,0-.568-1.375l-11.57-11.567V142.726h0a6.291,6.291,0,0,0,4.368-5.975,6.314,6.314,0,0,0-6.315-6.314,6.314,6.314,0,0,0-6.312,6.314,6.291,6.291,0,0,0,4.37,5.976v49.528a1.949,1.949,0,0,0,.566,1.376L-12.641,205.2v30.888L-32.49,255.744a1.947,1.947,0,0,0-.574,1.381v297.8a1.944,1.944,0,0,0,.512,1.316L39.6,634.673V878.491a1.936,1.936,0,0,0,.569,1.373l78.49,78.493v179.978a1.94,1.94,0,0,0,.569,1.374l33.606,33.605v158.537h3.889V1172.505a1.921,1.921,0,0,0-.569-1.368ZM-23.88,142.958a6.292,6.292,0,0,0,1.043.1,6.316,6.316,0,0,0,1.045-.1,5.61,5.61,0,0,1-1.045.1A5.6,5.6,0,0,1-23.88,142.958Z"/><path class="d" d="M100.205,1145.227V974.583a1.946,1.946,0,0,0-.57-1.373L21.148,894.722l0-255.937a1.949,1.949,0,0,0-.512-1.316l-72.147-78.637V358.822a1.965,1.965,0,0,0-.569-1.379l-15.835-15.829V205.088l16.236-16.236h0a7.774,7.774,0,0,0,3.992,1.127,7.879,7.879,0,0,0,7.87-7.868,7.879,7.879,0,0,0-7.87-7.872,7.879,7.879,0,0,0-7.868,7.872,7.782,7.782,0,0,0,1.126,3.991h0l-16.8,16.8a1.948,1.948,0,0,0-.571,1.375V342.418a1.947,1.947,0,0,0,.571,1.376l15.83,15.832V559.592a1.94,1.94,0,0,0,.514,1.315l72.148,78.635,0,248.2,0,7.784a1.944,1.944,0,0,0,.569,1.373l78.488,78.493v170.644a1.935,1.935,0,0,0,.569,1.368l35.509,35.506v148.915h3.889V1182.106a1.932,1.932,0,0,0-.569-1.373ZM-47.69,177.353a4.763,4.763,0,0,1,4.759,4.758,4.765,4.765,0,0,1-4.759,4.757,4.763,4.763,0,0,1-4.756-4.757A4.76,4.76,0,0,1-47.69,177.353Z"/><path class="d" d="M111.377,1142.157v-172.2a1.96,1.96,0,0,0-.569-1.378L32.317,890.091V636.978a1.933,1.933,0,0,0-.509-1.31l-72.153-79.162V289.391a1.935,1.935,0,0,0-.587-1.39l-12.175-11.875V247a7.863,7.863,0,0,0,5.926-7.6,7.878,7.878,0,0,0-7.87-7.87,7.878,7.878,0,0,0-7.87,7.87A7.864,7.864,0,0,0-57,247v29.944a1.942,1.942,0,0,0,.588,1.394l12.174,11.875V557.261a1.961,1.961,0,0,0,.506,1.31l72.153,79.162V890.9A1.944,1.944,0,0,0,29,892.273l78.488,78.488v172.2a1.94,1.94,0,0,0,.571,1.373l34.862,34.864v152.627h3.889V1178.394a1.956,1.956,0,0,0-.569-1.378ZM-59.81,239.4a4.766,4.766,0,0,1,4.759-4.759,4.764,4.764,0,0,1,4.756,4.759,4.765,4.765,0,0,1-4.756,4.759A4.767,4.767,0,0,1-59.81,239.4Zm3.537,7.746a7.691,7.691,0,0,0,1.222.124,7.691,7.691,0,0,0,1.222-.124,6.832,6.832,0,0,1-1.222.124A6.841,6.841,0,0,1-56.273,247.147Z"/><path class="d" d="M223.7,301.175a7.871,7.871,0,1,0-7.595-9.815H192.917a1.94,1.94,0,0,0-1.374.569l-79,79a1.941,1.941,0,0,0-.572,1.375V399.88L45.659,466.2a1.935,1.935,0,0,0-.569,1.375l.036,39.923a1.944,1.944,0,0,0,.559,1.363l72.1,73.291v43a6.316,6.316,0,1,0,3.889,0h0V581.351a1.946,1.946,0,0,0-.558-1.362L49.016,506.7l-.037-38.323L115.3,402.062a1.955,1.955,0,0,0,.569-1.375V373.108l77.856-77.859H216.1A7.863,7.863,0,0,0,223.7,301.175Zm0-12.629a4.759,4.759,0,1,1-4.756,4.759A4.765,4.765,0,0,1,223.7,288.546ZM120.775,624.911a5.248,5.248,0,0,0-2.089,0,5.524,5.524,0,0,1,1.044-.1A5.61,5.61,0,0,1,120.775,624.911ZM215.83,293.305a6.832,6.832,0,0,1,.124-1.222,7.691,7.691,0,0,0-.124,1.222,7.821,7.821,0,0,0,.124,1.222A6.935,6.935,0,0,1,215.83,293.305Z"/><path class="d" d="M507.3,402.78a7.88,7.88,0,0,0-7.868,7.868,7.781,7.781,0,0,0,1.128,3.993L450.4,464.807H428.772a1.955,1.955,0,0,0-1.378.572l-44.716,44.715h-11.96l25.733-25.73a1.952,1.952,0,0,0,.574-1.376V465.243l26.244-26.25h16.89a1.947,1.947,0,0,0,1.378-.568l20.073-20.077a1.932,1.932,0,0,0,.569-1.373v-6.624h0a6.311,6.311,0,1,0-3.888,0h0v5.82L439.354,435.1H422.465a1.935,1.935,0,0,0-1.372.569L393.7,463.061a1.97,1.97,0,0,0-.57,1.376v17.745l-27.915,27.912H337.138L392.5,455.773a1.949,1.949,0,0,0,.579-1.386V436.425l4.3-4.3h0a7.777,7.777,0,0,0,4,1.129,7.871,7.871,0,1,0-7.868-7.873,7.79,7.79,0,0,0,1.127,3.995l-4.865,4.864a1.95,1.95,0,0,0-.569,1.376V453.57l-80.707,79.185V521.094l37.227-37.23a7.779,7.779,0,0,0,3.991,1.126,7.87,7.87,0,1,0-7.868-7.872,7.8,7.8,0,0,0,1.128,4h0l-37.8,37.8a1.946,1.946,0,0,0-.569,1.376v16.283l-15.845,15.547a1.935,1.935,0,0,0-.58,1.394l.209,98.233-35.093,36.633a1.94,1.94,0,0,0-.538,1.348v20.4h0a7.873,7.873,0,1,0,3.884,0V690.5l35.1-36.633a1.97,1.97,0,0,0,.543-1.352l-.219-98.2,41.113-40.333h50.306a1.962,1.962,0,0,0,1.379-.571L429.576,468.7h41.96a7.87,7.87,0,1,0,0-3.89H455.894l47.417-47.415a7.767,7.767,0,0,0,3.991,1.128,7.87,7.87,0,0,0,0-15.74Zm-47.064,7.907a6.292,6.292,0,0,0,1.043-.105,5.248,5.248,0,0,1-2.089,0A6.317,6.317,0,0,0,460.238,410.687Zm-58.864,9.943a4.757,4.757,0,1,1-4.756,4.756A4.76,4.76,0,0,1,401.374,420.63ZM349.71,472.362a4.757,4.757,0,1,1-4.756,4.756A4.762,4.762,0,0,1,349.71,472.362ZM259.454,717.724a4.761,4.761,0,1,1-4.761-4.761A4.764,4.764,0,0,1,259.454,717.724Zm-4.761-7.873a7.809,7.809,0,0,0-1.222.124,6.083,6.083,0,0,1,2.444,0A7.821,7.821,0,0,0,254.693,709.851ZM479.131,462a4.758,4.758,0,1,1-4.756,4.756A4.763,4.763,0,0,1,479.131,462Zm-7.744,3.535a6.122,6.122,0,0,0,0,2.442,6.122,6.122,0,0,1,0-2.442ZM507.3,415.406a4.758,4.758,0,1,1,4.761-4.758A4.756,4.756,0,0,1,507.3,415.406Z"/><path class="d" d="M285.375,292.3a7.868,7.868,0,1,0-9.809,7.6h0v9.876l-99,98.052a1.967,1.967,0,0,0-.577,1.384l0,73.129a1.942,1.942,0,0,0,.579,1.386l13.882,13.7v42.91a6.313,6.313,0,1,0,3.889,0h0V496.612a1.939,1.939,0,0,0-.575-1.386l-13.887-13.7v-71.5l99-98.055a1.942,1.942,0,0,0,.574-1.384V299.9h0A7.865,7.865,0,0,0,285.375,292.3ZM193.437,540.1a5.243,5.243,0,0,0-2.088,0,5.243,5.243,0,0,1,2.088,0Zm84.071-239.929a6.915,6.915,0,0,1-1.222-.123,6.132,6.132,0,0,0,2.444,0A6.934,6.934,0,0,1,277.508,300.172Zm0-3.111a4.759,4.759,0,1,1,4.755-4.759A4.765,4.765,0,0,1,277.508,297.061Z"/><path class="d" d="M801.159,184.3a7.879,7.879,0,0,0-7.867,7.871,7.78,7.78,0,0,0,1.127,3.993L762.986,227.6l-117.9,0,33.95-33.956H719.56a1.924,1.924,0,0,0,1.373-.569l41.514-41.509a7.786,7.786,0,0,0,3.99,1.124,7.868,7.868,0,1,0-7.868-7.867,7.789,7.789,0,0,0,1.126,3.993h0l-40.939,40.939H678.238a1.926,1.926,0,0,0-1.373.572L639.584,227.6h-156.4a1.948,1.948,0,0,0-1.374.572L381.17,328.7V310.162l17.61-17.614a6.277,6.277,0,0,0,9.537-5.4,6.312,6.312,0,1,0-12.115,2.479L377.855,307.98a1.927,1.927,0,0,0-.574,1.376v23.232L364.375,345.48V308.072l78.138-78.139h0a7.776,7.776,0,0,0,3.988,1.125,7.869,7.869,0,1,0-7.867-7.868,7.774,7.774,0,0,0,1.127,3.992l-78.707,78.707a1.948,1.948,0,0,0-.574,1.376v42.1L343.43,366.4l-42.722-.1h-.01a1.955,1.955,0,0,0-1.368.563l-57.845,57.311a1.937,1.937,0,0,0-.575,1.383V583.873L87.936,736.847l-.021-12.54L231.09,581.124a1.954,1.954,0,0,0,.575-1.373V418.424L439.13,211.3H574.349a6.315,6.315,0,1,0,0-3.889H547.981L573.49,181.9H710.032a1.952,1.952,0,0,0,1.379-.569L742.7,150.034a7.782,7.782,0,0,0,3.989,1.124,7.868,7.868,0,1,0-7.867-7.868,7.776,7.776,0,0,0,1.126,3.993l-30.722,30.725H577.384l7.294-7.3h71.769a1.936,1.936,0,0,0,1.373-.569l3.794-3.8a7.785,7.785,0,0,0,4,1.127,7.869,7.869,0,1,0-7.874-7.87,7.776,7.776,0,0,0,1.127,3.992l-3.225,3.225H583.869a1.928,1.928,0,0,0-1.368.572l-40.022,40.017H529.908l59.63-59.629h0a9.166,9.166,0,0,0,3,.536,9.374,9.374,0,1,0-6.619-2.744c.055.056.124.094.18.148h0l-61.691,61.689H438.326a1.937,1.937,0,0,0-1.373.566L228.344,416.239a1.927,1.927,0,0,0-.574,1.376V578.947L84.592,722.125a1.939,1.939,0,0,0-.569,1.379l.253,136.479a1.931,1.931,0,0,0,.572,1.373l78.488,78.493V1088.7a1.967,1.967,0,0,0,.572,1.383l24.66,24.658v217.082h3.889V1113.939a1.969,1.969,0,0,0-.569-1.378l-14.947-14.942v-17.035l11.115-11.115a1.936,1.936,0,0,0,.569-1.373V901.122l14.594-14.59a9.393,9.393,0,1,0-2.753-2.752h0L185.3,898.945a1.948,1.948,0,0,0-.568,1.374v166.968l-7.795,7.794V932.989a1.965,1.965,0,0,0-.569-1.378L99.106,854.35V788.407l169.975-169.98.032,22.389L163.18,750.97a1.962,1.962,0,0,0-.544,1.326L162.3,782.19a7.889,7.889,0,1,0,3.89.053l.327-29.133L272.459,642.948a1.932,1.932,0,0,0,.548-1.352l-.172-119.87L439.067,358.007H580.324a1.95,1.95,0,0,0,1.378-.571l41-41.007H651.28a7.87,7.87,0,1,0,0-3.891H621.9a1.941,1.941,0,0,0-1.373.569L579.52,354.118H529.965l47.654-47.652a7.774,7.774,0,0,0,3.989,1.125,7.869,7.869,0,1,0-7.867-7.868,7.779,7.779,0,0,0,1.126,3.993l-50.4,50.4h-25.45L524.426,328.7h12.316a1.949,1.949,0,0,0,1.372-.569l20.872-20.873a7.762,7.762,0,0,0,3.989,1.126,7.869,7.869,0,1,0-7.862-7.87,7.793,7.793,0,0,0,1.124,3.992l-20.3,20.305H523.616a1.953,1.953,0,0,0-1.372.569l-28.735,28.735h-50.5l28.525-28.094a9.484,9.484,0,1,0-2.719-2.78L269.525,519.526a1.942,1.942,0,0,0-.584,1.391l.135,92.02L95.783,786.231a1.942,1.942,0,0,0-.569,1.372v67.551a1.924,1.924,0,0,0,.569,1.368l77.268,77.272v159.93l-5.826-5.826V939.04a1.953,1.953,0,0,0-.569-1.373l-78.49-78.493L88.02,780.6,255.7,612.923h0a6.337,6.337,0,1,0-3.266-2.235L88.009,775.116l-.024-12.781,170.7-172.166a1.933,1.933,0,0,0,.564-1.37V515.171L381.617,392.8h0a6.395,6.395,0,1,0-2.747-2.748h0L259.246,509.671v-14.7L447.2,307.014a6.39,6.39,0,1,0-2.747-2.749L259.246,489.472V457.31L310.8,405.758h13.227a6.314,6.314,0,1,0,0-3.888h-14.03a1.949,1.949,0,0,0-1.374.569l-49.371,49.373v-16.9l47.831-48h42.7a1.963,1.963,0,0,0,1.378-.568L453.111,284.39h60.133a7.873,7.873,0,1,0,0-3.889H457l15.923-15.924h118.05l19.239,19.244a1.964,1.964,0,0,0,1.383.569h91.029a7.873,7.873,0,1,0,0-3.889H654.238l11.73-11.726a7.777,7.777,0,0,0,3.99,1.125,7.869,7.869,0,1,0-7.867-7.867,7.776,7.776,0,0,0,1.126,3.992L648.741,280.5H612.4L593.156,261.26a1.96,1.96,0,0,0-1.378-.572H476.813l18.032-18.03H764.033a6.312,6.312,0,1,0,0-3.889h-270a1.938,1.938,0,0,0-1.373.569L348.974,383.025h-42.7a1.954,1.954,0,0,0-1.384.572l-48.96,49.139a1.946,1.946,0,0,0-.569,1.376v79.817a2.011,2.011,0,0,0,0,.963V588L87.975,756.828l-.026-14.493L244.231,586.05a1.952,1.952,0,0,0,.569-1.373V426.365l56.7-56.172,42.726.1h0a1.95,1.95,0,0,0,1.374-.566L483.991,231.486l279.8,0a1.945,1.945,0,0,0,1.373-.569l32.006-32.006h0a7.777,7.777,0,0,0,3.99,1.125,7.869,7.869,0,1,0,0-15.738Zm-34.722-44.24a4.759,4.759,0,1,1-4.756,4.759A4.765,4.765,0,0,1,766.437,140.061ZM397.066,291.036c.092.116.182.231.281.34C397.247,291.268,397.159,291.151,397.066,291.036Zm.827.866c.055.048.112.093.169.139C398.005,292,397.949,291.95,397.893,291.9Zm-1.184-1.338a6.091,6.091,0,0,1-.507-.934A6.421,6.421,0,0,0,396.709,290.564ZM446.5,218.432a4.759,4.759,0,1,1-4.75,4.758A4.765,4.765,0,0,1,446.5,218.432Zm127.616-10.126a5.248,5.248,0,0,0,0,2.089,5.248,5.248,0,0,1,0-2.089Zm172.575-69.772a4.758,4.758,0,1,1-4.756,4.756A4.761,4.761,0,0,1,746.692,138.534ZM665.61,154.841a4.759,4.759,0,1,1-4.762,4.759A4.759,4.759,0,0,1,665.61,154.841Zm-77-19.818a5.55,5.55,0,1,1-1.623,3.923A5.535,5.535,0,0,1,588.614,135.023Zm-.879,11.925c-.013-.008-.028-.014-.042-.022C587.707,146.934,587.722,146.94,587.735,146.948ZM204.391,874.763a5.542,5.542,0,1,1-1.628,3.926A5.537,5.537,0,0,1,204.391,874.763ZM168.92,789.817a4.759,4.759,0,1,1-4.759-4.762A4.757,4.757,0,0,1,168.92,789.817Zm-4.759-7.873a7.7,7.7,0,0,0-1.242.126,7.057,7.057,0,0,1,1.242-.126,6.859,6.859,0,0,1,1.217.123A7.745,7.745,0,0,0,164.161,781.944ZM658.88,309.724a4.757,4.757,0,1,1-4.761,4.758A4.76,4.76,0,0,1,658.88,309.724Zm-7.75,3.537a6.122,6.122,0,0,0,0,2.442,6.122,6.122,0,0,1,0-2.442Zm-69.522-18.3a4.759,4.759,0,1,1-4.756,4.758A4.76,4.76,0,0,1,581.608,294.965Zm-18.633.8a4.757,4.757,0,1,1-4.75,4.756A4.765,4.765,0,0,1,562.975,295.761Zm-90.2,18.526a5.553,5.553,0,1,1-1.623,3.923A5.557,5.557,0,0,1,472.772,314.287Zm-2.7,10.548a8.562,8.562,0,0,1-.962-1.17A9,9,0,0,0,470.073,324.835ZM323.79,402.77a5.243,5.243,0,0,0,0,2.088,5.243,5.243,0,0,1,0-2.088ZM520.839,277.69a4.757,4.757,0,1,1-4.756,4.758A4.765,4.765,0,0,1,520.839,277.69Zm-7.744,3.537a6.127,6.127,0,0,0,0,2.443,6.127,6.127,0,0,1,0-2.443Zm197.131-3.537a4.757,4.757,0,1,1-4.757,4.758A4.763,4.763,0,0,1,710.226,277.69Zm-7.75,3.536a6.083,6.083,0,0,0,0,2.444,6.083,6.083,0,0,1,0-2.444Zm-32.518-23.952a4.759,4.759,0,1,1-4.756,4.759A4.761,4.761,0,0,1,669.958,257.274Zm93.843-17.6a5.243,5.243,0,0,0,0,2.088,5.524,5.524,0,0,1-.105-1.044A5.608,5.608,0,0,1,763.8,239.67Zm37.358-42.742a4.758,4.758,0,1,1,4.762-4.756A4.762,4.762,0,0,1,801.159,196.928Z"/><path class="d" d="M56.568,142.2h0v53.1a1.945,1.945,0,0,0,.572,1.376l8.41,8.411v47.863L45.7,272.61a1.946,1.946,0,0,0-.575,1.381V390.974a1.946,1.946,0,0,0,.569,1.375l13.06,13.057L23.343,441.439a1.932,1.932,0,0,0-.556,1.363v100.47a1.957,1.957,0,0,0,.543,1.352l15.325,15.884a1.938,1.938,0,0,0,1.4.595h26.1l20.1,20.106h0a6.251,6.251,0,0,0-.631,2.706,6.315,6.315,0,1,0,6.315-6.314,6.235,6.235,0,0,0-3,.791L68.335,557.783a1.943,1.943,0,0,0-1.376-.569H40.879l-14.2-14.725V443.6l36.2-36.838a1.941,1.941,0,0,0-.01-2.735L49.016,390.169V274.8l19.846-19.653a1.943,1.943,0,0,0,.577-1.384v-8.922l12.47-12.47A1.943,1.943,0,0,0,82.48,231V215.167l44.348-44.348h16.826a1.947,1.947,0,0,0,1.378-.572l28.8-28.8H190.36a7.869,7.869,0,1,0,0-3.892H173.023a1.94,1.94,0,0,0-1.373.572l-28.8,28.8H126.024a1.934,1.934,0,0,0-1.376.568L82.48,209.666V196.635l38.962-38.961H138.1a1.945,1.945,0,0,0,1.376-.573L184.9,111.679l60.376,0h0a6.313,6.313,0,1,0,0-3.891H184.094a1.949,1.949,0,0,0-1.374.569l-45.425,45.426H120.636a1.934,1.934,0,0,0-1.373.569l-40.105,40.1a1.957,1.957,0,0,0-.567,1.376v34.363l-9.152,9.149v-35.06a1.955,1.955,0,0,0-.569-1.375L60.459,194.5V179.778l46.857-46.859a9.386,9.386,0,1,0-2.751-2.749h0L60.459,174.278V142.2h0a6.314,6.314,0,1,0-3.891,0Zm141.386-7.449a4.758,4.758,0,1,1-4.756,4.758A4.767,4.767,0,0,1,197.954,134.747Zm-7.743,3.536a6.078,6.078,0,0,0,0,2.443,6.078,6.078,0,0,1,0-2.443Zm54.835-29.593a5.248,5.248,0,0,0,0,2.089,5.248,5.248,0,0,1,0-2.089ZM108.49,121.149a5.548,5.548,0,1,1-1.624,3.921A5.537,5.537,0,0,1,108.49,121.149ZM59.559,142.428a5.248,5.248,0,0,1-2.089,0,5.248,5.248,0,0,0,2.089,0Z"/><path class="d" d="M102.249,614.287a6.313,6.313,0,1,0,8.258-5.981h0v-23.89a1.93,1.93,0,0,0-.551-1.355L37.843,509.029l-.148-50.8,62.082-62.085a1.942,1.942,0,0,0,.568-1.376V330.194a1.944,1.944,0,0,0-.568-1.376l-8.94-8.939h0a9.393,9.393,0,1,0-2.75,2.75h0L96.456,331v62.97L82.405,408.019V345.705h0a6.315,6.315,0,1,0-3.889,0h0v65.771h.434L34.371,456.052a1.935,1.935,0,0,0-.568,1.381l.154,52.4a1.946,1.946,0,0,0,.55,1.349l72.111,74.027v23.1h0A6.294,6.294,0,0,0,102.249,614.287ZM82.99,320.329a5.552,5.552,0,1,1,3.923-1.626A5.538,5.538,0,0,1,82.99,320.329Zm-2.527,25.712a6.292,6.292,0,0,0,1.043-.105,5.248,5.248,0,0,1-2.089,0A6.317,6.317,0,0,0,80.463,346.041Zm28.1,261.928a5.535,5.535,0,0,1,1.045.106,5.2,5.2,0,0,0-2.09,0A5.527,5.527,0,0,1,108.563,607.969Z"/><path class="d" d="M79.909,656.266a6.315,6.315,0,1,0,8.257-5.98V621.664a1.95,1.95,0,0,0-.538-1.345L15.507,544.825V292.245l18.3-18.2.045,29.805-8.567,8.385a1.941,1.941,0,0,0-.585,1.388V398.5a1.944,1.944,0,0,0,.569,1.374l6.558,6.558a7.772,7.772,0,0,0-.938,3.648,7.891,7.891,0,1,0,3.531-6.556h0l-5.831-5.83V314.446l8.567-8.385a1.954,1.954,0,0,0,.588-1.393l-.055-34.478,6.27-6.235h0a6.249,6.249,0,0,0,2.869.719,6.313,6.313,0,1,0-6.315-6.312,6.242,6.242,0,0,0,.7,2.836L12.189,290.055a1.94,1.94,0,0,0-.572,1.381V545.6a1.955,1.955,0,0,0,.535,1.344l72.124,75.5v27.843A6.3,6.3,0,0,0,79.909,656.266ZM38.762,405.317A4.758,4.758,0,1,1,34,410.076,4.764,4.764,0,0,1,38.762,405.317Zm-5.3-1.019a7.5,7.5,0,0,1,.7-.573A7.8,7.8,0,0,0,33.46,404.3Zm-.465.463c-.071.077-.133.164-.2.244C32.861,404.924,32.925,404.839,32.995,404.761ZM86.221,649.949a5.525,5.525,0,0,1,1.044.106,5.194,5.194,0,0,0-2.088,0A5.516,5.516,0,0,1,86.221,649.949Z"/><path class="d" d="M333.431,172.659a6.312,6.312,0,1,0-8.253,5.978v6.9l-19.437,19.441H281.329a1.947,1.947,0,0,0-1.373.569l-30.077,30.077a1.97,1.97,0,0,0-.568,1.375V259.07a6.315,6.315,0,1,0,3.888,0h0V237.8l28.938-28.938h24.407a1.926,1.926,0,0,0,1.373-.572l20.575-20.577a1.945,1.945,0,0,0,.574-1.376v-7.7h0A6.288,6.288,0,0,0,333.431,172.659Zm-82.173,86.074a6.317,6.317,0,0,0-1.046.105,5.621,5.621,0,0,1,1.046-.105,5.514,5.514,0,0,1,1.043.106A6.2,6.2,0,0,0,251.258,258.733Zm75.862-79.759a5.6,5.6,0,0,1-1.043-.1,6.292,6.292,0,0,0,1.043.1,6.222,6.222,0,0,0,1.046-.106A5.537,5.537,0,0,1,327.12,178.974Z"/><path class="d" d="M285.553,114.363V130.1L222.3,193.341H205.175a1.952,1.952,0,0,0-1.373.567l-91.7,91.056a1.946,1.946,0,0,0-.575,1.381v24.146h0a6.314,6.314,0,1,0,3.888,0h0V287.157l63.76-63.314v28.521l-42.05,42.047h0a6.245,6.245,0,0,0-2.852-.71,6.314,6.314,0,1,0,6.315,6.315,6.242,6.242,0,0,0-.713-2.857h0l42.616-42.616-1.373-1.376h1.947V219.982l22.908-22.749h17.135a1.944,1.944,0,0,0,1.378-.569l64.382-64.387a1.927,1.927,0,0,0,.574-1.376V114.363h0a6.315,6.315,0,1,0-3.889,0ZM113.468,310.154a6.21,6.21,0,0,0-1.045.106,5.2,5.2,0,0,1,2.089,0A6.209,6.209,0,0,0,113.468,310.154Zm175.075-195.56a5.248,5.248,0,0,1-2.089,0,5.248,5.248,0,0,0,2.089,0Z"/><path class="d" d="M2396.59,255.752l-86.638,86.637H2069.239a1.923,1.923,0,0,0-1.352.551l-46.726,45.269h-66.34a7.874,7.874,0,1,0,0,3.891h67.127a1.94,1.94,0,0,0,1.355-.549l46.725-45.273h240.732a1.945,1.945,0,0,0,1.376-.57l86.637-86.637h70.783l44.771,44.773h0a6.24,6.24,0,0,0-.711,2.853,6.313,6.313,0,1,0,6.317-6.312,6.246,6.246,0,0,0-2.856.711h0l-45.344-45.344a1.934,1.934,0,0,0-1.373-.569h-72.393A1.941,1.941,0,0,0,2396.59,255.752Zm-444.608,134.4a4.759,4.759,0,1,1-4.758-4.758A4.764,4.764,0,0,1,1951.982,390.153Zm2.988-1.221a6.127,6.127,0,0,1,0,2.443,6.127,6.127,0,0,0,0-2.443Z"/><path class="d" d="M3053.013,412.281a1.95,1.95,0,0,0,1.378.575h161.367v-3.892H3055.2l-12.895-12.9a1.946,1.946,0,0,0-1.378-.569H2876.506l-78.493-78.491a1.936,1.936,0,0,0-1.374-.569l-15.557,0-125.636,0L2516.567,177.561a1.939,1.939,0,0,0-1.375-.569h-185.4a1.941,1.941,0,0,0-1.375.569L2308.079,197.9H2262.87L2123.681,58.563a1.953,1.953,0,0,0-1.376-.572h-18.6a9.394,9.394,0,1,0,0,3.889h17.8l139.186,139.335a1.951,1.951,0,0,0,1.379.572h42.123l-8.807,8.8v-.535h-35.848L2170,120.522a1.948,1.948,0,0,0-1.372-.569h-11.434a7.818,7.818,0,1,0,.156,3.89h10.471l89.535,89.535a1.943,1.943,0,0,0,1.376.569h33.3l-27.91,27.91H2138.776l-98.265-57.769a7.753,7.753,0,0,0,.343-2.17,7.933,7.933,0,1,0-1.522,4.61,7.327,7.327,0,0,1-.766.929l98.694,58.023a1.943,1.943,0,0,0,.984.266h121.984l-18.45,18.453h-150.15l-37.875-22.3a7.783,7.783,0,0,0,.344-2.175,7.931,7.931,0,1,0-1.523,4.611,7.267,7.267,0,0,1-.768.93l38.306,22.552a1.956,1.956,0,0,0,.986.272h151.484a1.945,1.945,0,0,0,1.376-.574l86.637-86.636h183.793l138.875,138.877a1.96,1.96,0,0,0,1.373.568h141.2l78.489,78.491a1.956,1.956,0,0,0,1.378.569h164.416ZM2050.985,239.726a4.758,4.758,0,1,1-4.756-4.755A4.763,4.763,0,0,1,2050.985,239.726Zm2.138,3.713c-.07.132-.137.264-.213.392C2052.988,243.7,2053.052,243.57,2053.123,243.439Zm-15.38-61.521a4.758,4.758,0,1,1-4.757-4.756A4.765,4.765,0,0,1,2037.743,181.918Zm2.139,3.71c-.07.132-.137.265-.213.392C2039.746,185.894,2039.811,185.759,2039.882,185.628Zm114.546-63.479a4.756,4.756,0,1,1-4.756-4.757A4.762,4.762,0,0,1,2154.428,122.149Zm3.114,0a7.55,7.55,0,0,1-.138,1.362,6.487,6.487,0,0,0,.013-2.6A6.711,6.711,0,0,1,2157.542,122.149Zm-59.07-66.134a5.55,5.55,0,1,1-3.92-1.623A5.529,5.529,0,0,1,2098.472,56.015Zm5.448,3.924a8.811,8.811,0,0,1-.156,1.588,8.166,8.166,0,0,0,0-3.172A8.766,8.766,0,0,1,2103.92,59.939Z"/><path class="d" d="M3081.883,379.762a1.971,1.971,0,0,0,1.378.569h132.5v-3.89H3084.066l-13.882-13.887a1.965,1.965,0,0,0-1.379-.569H2939.369l-11.977-11.177a1.932,1.932,0,0,0-1.326-.523H2901.08l-17.542-17.549V317.294a12.181,12.181,0,1,0-3.889,0V333.54a1.945,1.945,0,0,0,.569,1.376L2898.9,353.6a1.947,1.947,0,0,0,1.378.572H2925.3l8.37,7.81h-43.28L2811.9,283.5a1.943,1.943,0,0,0-1.374-.572l-15.562,0-74.223,0-63.317-63.314V202.482a1.925,1.925,0,0,0-.569-1.378l-99.073-99.073a1.934,1.934,0,0,0-1.373-.569h-6.584a7.867,7.867,0,1,0,0,3.886h5.779l97.93,97.938v17.129a1.961,1.961,0,0,0,.569,1.376l61.14,61.134h-14.8L2561.567,144.052a1.939,1.939,0,0,0-1.373-.572h-10.452l-73.383-73.333h0a6.3,6.3,0,1,0-11.918-2.85,6.315,6.315,0,0,0,6.317,6.315,6.234,6.234,0,0,0,2.852-.712h0l73.955,73.9a1.941,1.941,0,0,0,1.378.569h10.447l138.871,138.876a1.945,1.945,0,0,0,1.373.569h110.083l78.483,78.491a1.96,1.96,0,0,0,1.379.568H3068Zm-534.9-276.356a4.761,4.761,0,1,1-4.766-4.758A4.769,4.769,0,0,1,2546.985,103.406Zm3.107,0a6.936,6.936,0,0,1-.123,1.223,6.142,6.142,0,0,0,0-2.446A6.946,6.946,0,0,1,2550.092,103.406Zm333.446,212.827v-1.779a9.379,9.379,0,1,0-3.889,0h0v1.778a11.126,11.126,0,1,1,3.889,0ZM2880,314.514a8.156,8.156,0,0,0,3.17,0,8.156,8.156,0,0,1-3.17,0Zm-2.337-5.29a5.548,5.548,0,1,1,7.847-7.846,5.547,5.547,0,0,1-3.921,9.47A5.57,5.57,0,0,1,2877.665,309.224Z"/><path class="d" d="M3075.462,389.133a1.944,1.944,0,0,0,1.373.568h138.923v-3.889H3077.644l-12.086-12.085a1.948,1.948,0,0,0-1.378-.57H2885.757l-78.488-78.493a1.955,1.955,0,0,0-1.378-.567H2664.7L2525.823,155.219a1.951,1.951,0,0,0-1.378-.569h-23.953l-52.551-52.543a1.94,1.94,0,0,0-1.376-.57H2394.4l-17.6-17.6a7.777,7.777,0,0,0,1.129-4,7.872,7.872,0,1,0-7.873,7.87,7.779,7.779,0,0,0,3.993-1.126h0l18.174,18.172a1.944,1.944,0,0,0,1.376.572h52.163l49.23,49.223h-13.944l-41.371-41.371a1.944,1.944,0,0,0-1.376-.572h-80.8l-75.832-75.469a7.781,7.781,0,0,0,1.118-3.977,7.87,7.87,0,1,0-7.872,7.87,7.786,7.786,0,0,0,4.011-1.136h0l76.4,76.035a1.932,1.932,0,0,0,1.371.564l80.8,0,38.048,38.054h-27.434l-30.262-30.2a1.945,1.945,0,0,0-1.373-.567l-75.118,0-86.619-87.2a7.777,7.777,0,0,0,1.14-4.017,7.87,7.87,0,1,0-7.873,7.869,7.788,7.788,0,0,0,3.972-1.113l87.19,87.78a1.945,1.945,0,0,0,1.381.577h75.12l26.936,26.881H2320.537a1.948,1.948,0,0,0-1.375.569l-10.4,10.4-31.844.1-62.786-63.087a6.243,6.243,0,0,0,.717-2.864,6.313,6.313,0,1,0-6.314,6.314,6.248,6.248,0,0,0,2.843-.7h0l63.354,63.662a1.963,1.963,0,0,0,1.386.572l33.462-.11a1.938,1.938,0,0,0,1.368-.569l10.394-10.4h202.3L2662.52,297.416a1.933,1.933,0,0,0,1.373.571h141.194l78.488,78.488a1.947,1.947,0,0,0,1.378.572h178.423ZM2248.006,37.414a4.758,4.758,0,1,1,4.759-4.758A4.76,4.76,0,0,1,2248.006,37.414Zm26.906.6a4.756,4.756,0,1,1,4.761-4.756A4.76,4.76,0,0,1,2274.912,38.017ZM2370.056,84.7a4.758,4.758,0,1,1,4.759-4.759A4.765,4.765,0,0,1,2370.056,84.7Z"/><path class="d" d="M3058.682,402.156a1.97,1.97,0,0,0,1.374.572h155.7v-3.893H3060.864L3046.925,384.9a1.948,1.948,0,0,0-1.373-.572H2881.127l-78.483-78.488a1.954,1.954,0,0,0-1.373-.571l-15.569,0-125.631,0L2521.2,166.392a1.94,1.94,0,0,0-1.375-.572H2325.163a1.931,1.931,0,0,0-1.378.572l-12.627,12.673h-36.375L2190.2,94.174a1.938,1.938,0,0,0-1.38-.575h-8.247a6.312,6.312,0,1,0,0,3.891h7.441l84.585,84.892a1.935,1.935,0,0,0,1.379.571h37.988a1.938,1.938,0,0,0,1.378-.571l12.629-12.674,193.044,0,138.873,138.873a1.948,1.948,0,0,0,1.379.569l141.193,0,78.493,78.488a1.928,1.928,0,0,0,1.368.569h164.421ZM2180.91,95.544a5.524,5.524,0,0,1-.105,1.044,5.243,5.243,0,0,0,0-2.088A5.508,5.508,0,0,1,2180.91,95.544Z"/><path class="d" d="M2070.476,576.564h0a7.873,7.873,0,1,0,0,3.889h21.159a1.949,1.949,0,0,0,1.372-.569l51.113-51.116a1.937,1.937,0,0,0,.572-1.376V503.474l19.092-19.278h54.812a6.316,6.316,0,1,0,0-3.889h-55.622a1.951,1.951,0,0,0-1.383.577l-20.225,20.423a1.944,1.944,0,0,0-.564,1.368v23.914l-49.975,49.975ZM2218.364,483.3a5.591,5.591,0,0,1-.105-1.044,5.524,5.524,0,0,1,.105-1.044,5.243,5.243,0,0,0,0,2.088Zm-150.728,95.212a4.757,4.757,0,1,1-4.756-4.755A4.762,4.762,0,0,1,2067.636,578.508Zm2.988-1.222a6.935,6.935,0,0,1,.124,1.222,6.832,6.832,0,0,1-.124,1.222,7.691,7.691,0,0,0,.124-1.222A7.821,7.821,0,0,0,2070.624,577.286Z"/><path class="d" d="M3007.728,477.576H2827.755a1.937,1.937,0,0,1-1.378-.571l-78.494-78.488H2561.155a1.94,1.94,0,0,1-1.8-1.2c-.021-.049-.037-.1-.058-.143l-88.739-88.745h-53.543l-36.961,36.962h0a6.391,6.391,0,1,1-2.749-2.749h0l37.53-37.53a1.939,1.939,0,0,1,1.376-.569h55.151a1.939,1.939,0,0,1,1.376.569l89.519,89.516h186.426a1.969,1.969,0,0,1,1.384.57l78.488,78.49h179.973a1.949,1.949,0,0,1,1.379.57l11.574,11.576h194.247v3.89H3020.681a1.965,1.965,0,0,1-1.379-.569Z"/><path class="d" d="M3023.7,477.754a1.945,1.945,0,0,0,1.373.569h190.655v-3.892H3025.886l-11.35-11.344a1.941,1.941,0,0,0-1.373-.569H2833.185l-78.494-78.491a1.931,1.931,0,0,0-1.373-.572h-138.1l-11.381-11a1.951,1.951,0,0,0-1.352-.548h-50.824l-70.1-70.1V281.088a1.939,1.939,0,0,0-.572-1.376l-13.837-13.84a1.939,1.939,0,0,0-1.376-.569h-63.3a1.932,1.932,0,0,0-1.375.569l-44.053,44.055a1.944,1.944,0,0,0-.569,1.373V330l-10.247,10.246h0a7.78,7.78,0,0,0-3.877-1.063,7.869,7.869,0,1,0,7.87,7.868,7.792,7.792,0,0,0-1.19-4.109l10.765-10.762a1.945,1.945,0,0,0,.569-1.376v-18.7l42.911-42.913h61.693l12.7,12.7v16.023l-17.228-17.226a1.947,1.947,0,0,0-1.376-.571h-34.9a1.952,1.952,0,0,0-1.379.574l-61.361,61.682h0a6.231,6.231,0,0,0-1.958-.341,6.348,6.348,0,1,0,5.133,2.66l0,0,60.368-60.687h33.293l19.977,19.978,71.244,71.241a1.925,1.925,0,0,0,1.373.57h50.839l11.381,11a1.968,1.968,0,0,0,1.353.545h138.092l78.489,78.494a1.933,1.933,0,0,0,1.367.569h179.984Zm-661.361-135,.031.016Zm-19.993-.46a4.757,4.757,0,1,1-4.756,4.756A4.764,4.764,0,0,1,2342.35,342.3Zm5.99-.286c.066.078.133.156.2.237C2348.473,342.168,2348.406,342.09,2348.34,342.012Z"/><path class="d" d="M3028.089,466.347a1.972,1.972,0,0,0,1.378.572l186.265-.039v-3.89l-185.461.037-11.1-11.112a1.96,1.96,0,0,0-1.379-.57H2837.81l-78.493-78.488a1.932,1.932,0,0,0-1.373-.572H2619.866L2480.985,233.41a1.944,1.944,0,0,0-1.372-.569h-95.566a1.955,1.955,0,0,0-1.378.569l-86.638,86.637H2090.458l-56.043-32.617a6.31,6.31,0,1,0-6.166,4.976,6.267,6.267,0,0,0,4.193-1.624h0l56.511,32.894a1.99,1.99,0,0,0,.981.263h206.9a1.957,1.957,0,0,0,1.376-.569l86.638-86.637h93.957l138.87,138.873a1.952,1.952,0,0,0,1.379.569H2757.14l78.493,78.491a1.938,1.938,0,0,0,1.373.571h179.978ZM2034.414,287.434a6.071,6.071,0,0,1-.307.989A6.234,6.234,0,0,0,2034.414,287.434Zm-1.23,2.554c-.045.056-.09.111-.136.165C2033.094,290.1,2033.139,290.044,2033.184,289.988Zm.632-.975c-.062.116-.118.233-.187.344C2033.7,289.246,2033.755,289.129,2033.816,289.013Z"/><path class="d" d="M3033.075,455.532a1.945,1.945,0,0,0,1.378.57h181.3v-3.89h-180.5l-11.464-11.465a1.941,1.941,0,0,0-1.379-.571H2842.441l-78.488-78.489a1.962,1.962,0,0,0-1.378-.571H2624.492L2485.613,222.24a1.941,1.941,0,0,0-1.375-.566H2379.417a1.945,1.945,0,0,0-1.373.566l-86.638,86.64H2090.694l-60.762-35.636a1.948,1.948,0,0,0-.984-.269h-18.033a7.871,7.871,0,1,0,0,3.892h17.506l60.761,35.633a1.919,1.919,0,0,0,.984.267H2292.21a1.953,1.953,0,0,0,1.378-.569l86.635-86.638h103.211L2622.31,364.436a1.936,1.936,0,0,0,1.373.569h138.082l78.493,78.491a1.94,1.94,0,0,0,1.374.569H3021.61Zm-1025-180.61a4.757,4.757,0,1,1-4.757-4.759A4.763,4.763,0,0,1,2008.074,274.922Zm3.114,0a6.925,6.925,0,0,1-.124,1.222,6.083,6.083,0,0,0,0-2.444A6.925,6.925,0,0,1,2011.188,274.922Z"/><path class="d" d="M3041.9,432.765a1.948,1.948,0,0,0,1.373.572h172.482v-3.89H3044.085l-11.036-11.042a1.961,1.961,0,0,0-1.379-.569H2851.692L2773.2,339.345a1.949,1.949,0,0,0-1.379-.568H2646.19L2507.316,199.9a1.942,1.942,0,0,0-1.375-.568H2370.163a1.944,1.944,0,0,0-1.376.568l-86.637,86.638H2091.161l-78.739-46.046a7.775,7.775,0,0,0,.337-2.151,7.934,7.934,0,1,0-1.524,4.612,7.456,7.456,0,0,1-.752.911l79.169,46.3a1.965,1.965,0,0,0,.981.263h192.321a1.952,1.952,0,0,0,1.378-.568l86.638-86.638h134.164l138.873,138.873a1.955,1.955,0,0,0,1.379.572h125.635l78.489,78.488a1.957,1.957,0,0,0,1.373.572h179.983ZM2009.647,238.341a4.758,4.758,0,1,1-4.756-4.759A4.764,4.764,0,0,1,2009.647,238.341Zm2.142,3.7c-.067.13-.134.26-.209.385C2011.657,242.305,2011.72,242.173,2011.789,242.044Z"/><path class="d" d="M3048.027,423.093a1.947,1.947,0,0,0,1.378.572h166.327v-3.89H3050.215l-12.546-12.54a1.924,1.924,0,0,0-1.368-.568h-164.42l-78.494-78.491a1.932,1.932,0,0,0-1.373-.569h-141.2L2511.941,188.731a1.951,1.951,0,0,0-1.372-.572H2365.535a1.948,1.948,0,0,0-1.373.572l-86.638,86.635H2096.842a6.315,6.315,0,1,0,0,3.892h181.488a1.942,1.942,0,0,0,1.373-.569l86.638-86.638h143.42l138.876,138.873a1.926,1.926,0,0,0,1.373.572h141.2l78.488,78.488a1.935,1.935,0,0,0,1.373.572h164.421ZM2097.075,276.268a5.248,5.248,0,0,1,0,2.089,5.248,5.248,0,0,0,0-2.089Z"/><path class="d" d="M3038.317,444.976a1.935,1.935,0,0,0,1.378.569h176.037v-3.887H3040.5l-12.081-12.083a1.955,1.955,0,0,0-1.373-.569H2847.067l-78.494-78.491a1.945,1.945,0,0,0-1.373-.569H2641.564l-106.98-106.98a7.778,7.778,0,0,0,1.125-3.991,7.868,7.868,0,1,0-7.868,7.87,7.777,7.777,0,0,0,4-1.128h0l107.544,107.549a1.963,1.963,0,0,0,1.379.572h125.631l78.493,78.491a1.97,1.97,0,0,0,1.373.569h179.984ZM2527.841,243.731a4.758,4.758,0,1,1,4.759-4.756A4.761,4.761,0,0,1,2527.841,243.731Z"/><path class="d" d="M3049.708,590.628a1.924,1.924,0,0,0,1.373.572h164.677v-3.892H3051.885l-32.9-32.9a1.951,1.951,0,0,0-1.378-.572H2837.638l-78.493-78.487a1.78,1.78,0,0,0-.507-.363c-.407-.209-.4-.209-243.115-.209l-77.694-72.14a1.934,1.934,0,0,0-1.324-.519H2155.446a1.956,1.956,0,0,0-1.383.574l-19.657,19.849h-180.5a7.87,7.87,0,1,0,0,3.89h181.31a1.969,1.969,0,0,0,1.384-.575l19.653-19.849H2435.74l77.7,72.142a1.944,1.944,0,0,0,1.321.52h242.211l78.483,78.488a1.967,1.967,0,0,0,1.378.571h179.979ZM1951.066,424.485a4.758,4.758,0,1,1-4.756-4.759A4.764,4.764,0,0,1,1951.066,424.485Zm2.99-1.222a6.078,6.078,0,0,1,0,2.443,6.078,6.078,0,0,0,0-2.443Z"/><path class="d" d="M3043.386,600.1a1.948,1.948,0,0,0,1.378.569h170.994v-3.889H3045.563l-31.2-31.207a1.929,1.929,0,0,0-1.367-.567H2833.007l-78.06-78.062c-.386-1-1.65-1-4.516-1l-237.967,0L2435.5,413.811a1.952,1.952,0,0,0-1.329-.525h-272.1a1.955,1.955,0,0,0-1.381.575l-19.658,19.849h-114.4a6.313,6.313,0,1,0,0,3.889h115.219a1.948,1.948,0,0,0,1.381-.577l19.656-19.844H2433.4l76.961,72.135a1.955,1.955,0,0,0,1.331.524h240.641l78.493,78.491a1.924,1.924,0,0,0,1.373.569h179.979ZM2026.864,434.61a5.243,5.243,0,0,1,0,2.088,5.243,5.243,0,0,0,0-2.088Z"/><path class="d" d="M3004.366,608a1.95,1.95,0,0,0,1.378.575h209.988v-3.89H3006.549l-27.937-27.939a1.94,1.94,0,0,0-1.372-.569H2828.381l-78.493-78.49a1.943,1.943,0,0,0-1.373-.567H2509.407l-76.23-72.132a1.953,1.953,0,0,0-1.337-.532H2168.709a1.947,1.947,0,0,0-1.381.577l-19.658,19.846h-49.644a1.939,1.939,0,0,0-1.376.572l-21.919,21.917h-119a7.873,7.873,0,1,0,0,3.889h119.8a1.935,1.935,0,0,0,1.376-.572l21.919-21.916h49.654a1.935,1.935,0,0,0,1.378-.574l19.659-19.849h261.547l76.225,72.129a1.947,1.947,0,0,0,1.339.534h70.378l-51.962,51.957H2463l-72.56-72.1a1.946,1.946,0,0,0-1.368-.564h-27.317a1.941,1.941,0,0,0-1.373.566l-66.1,65.964h-31.849a1.95,1.95,0,0,0-1.376.569l-47.219,47.219a6.246,6.246,0,0,0-2.853-.71,6.315,6.315,0,1,0,6.315,6.314,6.233,6.233,0,0,0-.711-2.852l46.648-46.648H2289.9l-245.5,245.5a1.961,1.961,0,0,0-.569,1.379l0,29.131-41.111,41.855a1.956,1.956,0,0,0-.561,1.362v34.6a7.87,7.87,0,1,0,3.892,0V870.753l41.113-41.855a1.934,1.934,0,0,0,.556-1.357V798.41l247.759-247.762a1.878,1.878,0,0,0,.982-.491l66.094-65.961h25.712l72.56,72.1a1.944,1.944,0,0,0,1.37.566h15.743l-44.05,44.053-48.766,0-17.812-17.81a9.4,9.4,0,1,0-2.75,2.749h0l18.382,18.379a1.938,1.938,0,0,0,1.373.574h50.377a1.919,1.919,0,0,0,1.374-.574l47.372-47.368h39.69l-69.344,68.82-168.487-.027a1.966,1.966,0,0,0-1.384.575L2182.346,728.687v-.078h-31.215v1.947l-1.376-1.378-35.135,35.14h0a8.239,8.239,0,1,0,2.1,3.4h0l35.217-35.217h26.629l-71.834,72.458h-28.081a7.87,7.87,0,1,0,0,3.889h28.89a1.941,1.941,0,0,0,1.383-.574l177.183-178.736,168.48.021a1.934,1.934,0,0,0,1.371-.564l73.264-72.7v0l0,0,55.285-55.28h12.608l-138.711,137.6H2293.8a1.95,1.95,0,0,0-1.376.574l-212.3,212.3a1.959,1.959,0,0,0-.571,1.378V873.8l-32.609,32.61h0a6.245,6.245,0,0,0-2.855-.711,6.315,6.315,0,1,0,6.317,6.316,6.241,6.241,0,0,0-.713-2.856l29.86-29.862v29.179l-14.088,14.09a7.78,7.78,0,0,0-3.756-1,7.916,7.916,0,1,0,6.616,3.64l14.551-14.551a1.928,1.928,0,0,0,.569-1.373V853.666L2294.6,642.5H2459.21a1.943,1.943,0,0,0,1.368-.564l142.071-140.931h145.057l78.5,78.489a1.941,1.941,0,0,0,1.373.571h148.859Zm-942.66,316.678a4.759,4.759,0,1,1-4.759,4.761A4.768,4.768,0,0,1,2061.706,924.678Zm5.874-.424c.119.133.231.271.341.413C2067.812,924.525,2067.7,924.388,2067.58,924.254Zm8.229-117.35a4.757,4.757,0,1,1-4.756-4.751A4.762,4.762,0,0,1,2075.809,806.9Zm2.991-1.22a6.127,6.127,0,0,1,0,2.443,6.127,6.127,0,0,0,0-2.443Zm30.437-40.415a4.756,4.756,0,1,1-4.758,4.761A4.765,4.765,0,0,1,2109.237,765.269Zm5.893-.4c.1.115.2.23.29.351C2115.326,765.1,2115.23,764.982,2115.13,764.868Zm248.257-182.945A5.55,5.55,0,1,1,2365.01,578,5.55,5.55,0,0,1,2363.387,581.923ZM2004.106,907.392a4.759,4.759,0,1,1-4.757,4.756A4.762,4.762,0,0,1,2004.106,907.392Zm0-3.117a6.914,6.914,0,0,1,1.221.124,6.078,6.078,0,0,0-2.443,0A6.935,6.935,0,0,1,2004.106,904.275ZM1952.89,469.31a4.757,4.757,0,1,1-4.755-4.756A4.762,4.762,0,0,1,1952.89,469.31Zm2.991-1.222a6.132,6.132,0,0,1,0,2.444,6.132,6.132,0,0,0,0-2.444Z"/><path class="d" d="M3055.044,580.163a1.92,1.92,0,0,0,1.367.569h159.347v-3.889H3057.221l-33.606-33.6a1.935,1.935,0,0,0-1.373-.57H2842.263l-78.493-78.49a1.934,1.934,0,0,0-1.373-.569H2518.58l-78.428-72.15a1.944,1.944,0,0,0-1.316-.512h-297.8a1.947,1.947,0,0,0-1.381.574L2120,411.37h-30.888l-11.57-11.571a1.943,1.943,0,0,0-1.375-.567h-49.529a6.314,6.314,0,1,0,0,3.889h48.726l11.566,11.569a1.958,1.958,0,0,0,1.376.569h32.5a1.954,1.954,0,0,0,1.384-.577l19.655-19.847h296.234l78.428,72.148a1.954,1.954,0,0,0,1.318.514h243.77l78.488,78.488a1.948,1.948,0,0,0,1.378.572h179.974ZM2026.969,401.174a5.527,5.527,0,0,1-.105,1.045,5.243,5.243,0,0,0,0-2.088A5.514,5.514,0,0,1,2026.969,401.174Z"/><path class="d" d="M3064.639,559.725a1.939,1.939,0,0,0,1.373.568h149.72V556.4H3066.816L3031.31,520.9a1.934,1.934,0,0,0-1.367-.57H2859.3l-78.493-78.488a1.945,1.945,0,0,0-1.373-.569l-7.784,0-248.2,0-78.634-72.148a1.942,1.942,0,0,0-1.316-.514H2243.532L2227.7,352.776a1.944,1.944,0,0,0-1.375-.572H2088.188a1.951,1.951,0,0,0-1.376.572l-16.8,16.8h0a7.784,7.784,0,0,0-3.991-1.126,7.869,7.869,0,1,0,7.867,7.868,7.782,7.782,0,0,0-1.126-3.992h0l16.235-16.236h136.527l15.829,15.835a1.96,1.96,0,0,0,1.378.569h200.01l78.638,72.147a1.946,1.946,0,0,0,1.315.512l255.937,0,78.488,78.488a1.947,1.947,0,0,0,1.373.569h170.644Zm-998.621-188.16a4.758,4.758,0,1,1-4.759,4.756A4.762,4.762,0,0,1,2066.018,371.565Z"/><path class="d" d="M3060.922,570.249a1.957,1.957,0,0,0,1.378.57h153.432v-3.89H3063.1l-34.864-34.861a1.939,1.939,0,0,0-1.372-.572h-172.2l-78.488-78.488a1.952,1.952,0,0,0-1.373-.572H2521.639l-79.161-72.153a1.966,1.966,0,0,0-1.311-.506H2174.118L2162.244,367.6a1.944,1.944,0,0,0-1.395-.588h-29.944a7.871,7.871,0,1,0,0,3.889h29.127l11.875,12.175a1.938,1.938,0,0,0,1.391.587h267.115l79.161,72.153a1.934,1.934,0,0,0,1.311.509H2774l78.487,78.491a1.961,1.961,0,0,0,1.379.569h172.2ZM2128.066,368.96a4.759,4.759,0,1,1-4.759-4.759A4.764,4.764,0,0,1,2128.066,368.96Zm3.111,0a6.925,6.925,0,0,1-.123,1.222,6.132,6.132,0,0,0,0-2.444A6.934,6.934,0,0,1,2131.177,368.96Z"/><path class="d" d="M2179.155,640.113h0V617.731l77.859-77.856h27.578a1.957,1.957,0,0,0,1.376-.569l66.31-66.316,38.323.037,73.293,72.1a1.944,1.944,0,0,0,1.363.559h43.792a6.313,6.313,0,1,0,0-3.889h-42.995l-73.29-72.1a1.944,1.944,0,0,0-1.363-.559l-39.923-.036a1.932,1.932,0,0,0-1.375.569l-66.317,66.313h-27.575a1.942,1.942,0,0,0-1.376.572l-79,79a1.936,1.936,0,0,0-.569,1.373v23.186h0a7.868,7.868,0,1,0,3.888,0Zm-1.944,2.84a4.759,4.759,0,1,1-4.759,4.756A4.764,4.764,0,0,1,2177.211,642.953Zm331.5-99.212a5.506,5.506,0,0,1,.106-1.043,5.2,5.2,0,0,0,0,2.089A5.546,5.546,0,0,1,2508.712,543.741Zm-330.279,96.224a6.078,6.078,0,0,0-2.443,0,6.078,6.078,0,0,1,2.443,0Z"/><path class="d" d="M1947.456,289.391a7.871,7.871,0,1,0,7.6,9.815h71.974l61.7,35.642a1.951,1.951,0,0,0,.971.258h216.432a1.936,1.936,0,0,0,1.376-.569l86.637-86.638h80.034l54.9,54.863,0,0a6.53,6.53,0,1,0,3.216-2.28h0l-55.933-55.9a1.96,1.96,0,0,0-1.379-.572h-81.646a1.943,1.943,0,0,0-1.373.572l-86.638,86.637H2090.221l-61.7-35.641a1.942,1.942,0,0,0-.974-.261h-72.495A7.863,7.863,0,0,0,1947.456,289.391Zm7.746,9.092a6.083,6.083,0,0,0,0-2.444,6.083,6.083,0,0,1,0,2.444Zm-7.746-5.978a4.758,4.758,0,1,1-4.756,4.756A4.761,4.761,0,0,1,1947.456,292.505Z"/><path class="d" d="M2465.918,367.751h22.873l44.039,44.04a1.944,1.944,0,0,0,1.381.574h12.155a7.868,7.868,0,1,0,0-3.891h-11.349l-44.042-44.039a1.938,1.938,0,0,0-1.378-.572h-24.039a6.321,6.321,0,1,0,.362,3.889Zm83.287,42.664a4.759,4.759,0,1,1,4.75,4.759A4.761,4.761,0,0,1,2549.205,410.415Zm-3.112,0a6.925,6.925,0,0,1,.123-1.222,6.132,6.132,0,0,0,0,2.444A6.925,6.925,0,0,1,2546.093,410.415Zm-80.149-45.344-.008-.023Z"/><path class="d" d="M2130.76,210.783a6.267,6.267,0,0,0,4.181-1.613h0l43.009,25.14a1.919,1.919,0,0,0,.984.269H2246a7.869,7.869,0,1,0,0-3.889h-66.543l-42.536-24.869a6.115,6.115,0,0,1-.3.982,6.307,6.307,0,1,0-5.858,3.981Zm118.079,21.851a4.759,4.759,0,1,1,4.759,4.756A4.765,4.765,0,0,1,2248.839,232.634Zm-3.109,0a6.925,6.925,0,0,1,.124-1.222,6.083,6.083,0,0,0,0,2.444A6.915,6.915,0,0,1,2245.73,232.634Zm-109.419-25.211c-.057.1-.108.212-.17.313C2136.2,207.634,2136.255,207.528,2136.311,207.423Zm-.63.96c-.04.051-.081.1-.124.15C2135.6,208.484,2135.641,208.434,2135.681,208.383Z"/><path class="d" d="M2093.2,223.7a6.314,6.314,0,1,0,4.284,10.927l39.581,22.04a1.931,1.931,0,0,0,.944.245h67.536a7.87,7.87,0,1,0,0-3.887h-67.029l-39.127-21.79h0a6.3,6.3,0,0,0-6.189-7.535Zm115.184,31.267a4.757,4.757,0,1,1,4.757,4.759A4.762,4.762,0,0,1,2208.386,254.971Zm-3.111,0a6.821,6.821,0,0,1,.124-1.221,6.078,6.078,0,0,0,0,2.443A6.925,6.925,0,0,1,2205.275,254.971Zm-106.2-22.663a6.181,6.181,0,0,0,.211-.677A6.114,6.114,0,0,1,2099.07,232.308Zm-.474.946c.083-.138.158-.28.231-.424C2098.754,232.974,2098.68,233.117,2098.6,233.254Zm-.584.809c.07-.083.142-.164.207-.251C2098.153,233.9,2098.082,233.98,2098.012,234.063Z"/><path class="d" d="M2020.125,476.212a6.313,6.313,0,1,0,5.978,8.258h32.081l-44.108,44.106h0a9.4,9.4,0,1,0,2.75,2.75l46.858-46.856h14.72l8.408,8.41a1.957,1.957,0,0,0,1.376.569h35.059L2114.1,502.6h-34.363a1.957,1.957,0,0,0-1.376.567l-40.1,40.105a1.935,1.935,0,0,0-.57,1.373v16.66l-45.425,45.424a1.949,1.949,0,0,0-.569,1.374v61.184a6.314,6.314,0,1,0,3.891,0h0l0-60.375,45.423-45.425a1.944,1.944,0,0,0,.572-1.376v-16.66l38.962-38.962h13.031l-42.168,42.168a1.933,1.933,0,0,0-.569,1.376v16.826l-28.8,28.8a1.941,1.941,0,0,0-.571,1.373v17.337a7.871,7.871,0,1,0,3.892,0v-16.53l28.8-28.8a1.95,1.95,0,0,0,.571-1.378V550.839l44.348-44.348H2114.9a1.943,1.943,0,0,0,1.375-.571l12.47-12.47h8.923a1.94,1.94,0,0,0,1.383-.577l19.653-19.846h115.37l13.853,13.853a1.941,1.941,0,0,0,2.736.01l36.837-36.2H2426.4l14.725,14.2v26.08a1.943,1.943,0,0,0,.569,1.376l20.609,20.607a6.249,6.249,0,0,0-.791,3,6.374,6.374,0,1,0,3.608-5.684h0l-20.107-20.1v-26.1a1.939,1.939,0,0,0-.594-1.4l-15.885-15.325a1.959,1.959,0,0,0-1.352-.543h-100.47a1.93,1.93,0,0,0-1.362.556l-36.033,35.412-13.057-13.059a1.949,1.949,0,0,0-1.376-.57H2157.9a1.95,1.95,0,0,0-1.381.575l-19.659,19.848h-47.863l-8.41-8.41a1.948,1.948,0,0,0-1.376-.571H2026.1A6.292,6.292,0,0,0,2020.125,476.212Zm3.287,141a4.759,4.759,0,1,1-4.759,4.755A4.759,4.759,0,0,1,2023.412,617.21Zm0-3.112a6.914,6.914,0,0,1,1.221.124,6.078,6.078,0,0,0-2.443,0A6.925,6.925,0,0,1,2023.412,614.1Zm-29.771,54.854a5.535,5.535,0,0,1,1.045.105,5.248,5.248,0,0,0-2.089,0A5.6,5.6,0,0,1,1993.641,668.952Zm15.335-138.074a5.548,5.548,0,1,1-3.92,1.623A5.529,5.529,0,0,1,2008.976,530.878Zm17.464-48.352a6.21,6.21,0,0,0-.106-1.045,5.2,5.2,0,0,1,0,2.089A6.188,6.188,0,0,0,2026.44,482.526Z"/><path class="d" d="M2492.212,530.631h-23.1l-74.027-72.112a1.943,1.943,0,0,0-1.349-.55l-52.4-.154a1.933,1.933,0,0,0-1.381.569l-44.576,44.577v-.434h-65.771a6.311,6.311,0,1,0,0,3.89h62.314l-14.052,14.051H2214.9l-8.369-8.369h0a9.408,9.408,0,1,0-2.75,2.75h0l8.94,8.94a1.943,1.943,0,0,0,1.376.569h64.577a1.945,1.945,0,0,0,1.376-.569l62.085-62.082,50.8.148,74.032,72.114a1.928,1.928,0,0,0,1.355.551h23.89a6.313,6.313,0,1,0,0-3.887Zm-289.6-19.707a5.547,5.547,0,1,1,1.626-3.923A5.541,5.541,0,0,1,2202.61,510.924Zm27.233-7.5a5.248,5.248,0,0,1,0,2.089,5.248,5.248,0,0,0,0-2.089Zm262.138,28.1a5.253,5.253,0,0,0,0,2.09,5.527,5.527,0,0,1-.105-1.045A5.61,5.61,0,0,1,2491.981,531.529Z"/><path class="d" d="M2534.193,508.288H2506.35l-75.5-72.124a1.954,1.954,0,0,0-1.345-.536H2175.342a1.944,1.944,0,0,0-1.381.572l-28.856,29.029a6.248,6.248,0,0,0-2.836-.7,6.315,6.315,0,1,0,6.312,6.315,6.249,6.249,0,0,0-.719-2.869h0l6.234-6.27,34.478.055a1.957,1.957,0,0,0,1.394-.587l8.385-8.567H2281.6l5.831,5.83h0a8.124,8.124,0,1,0,2.908-2.592l-6.559-6.559a1.941,1.941,0,0,0-1.373-.569h-84.871a1.946,1.946,0,0,0-1.388.585l-8.385,8.567-29.8-.045,18.2-18.3h252.58l75.495,72.121a1.95,1.95,0,0,0,1.344.538h28.623a6.313,6.313,0,1,0,0-3.889Zm-240.211-50.273a4.759,4.759,0,1,1-4.758,4.758A4.765,4.765,0,0,1,2293.982,458.015Zm-6.35.151a7.633,7.633,0,0,1,.573-.695A8.1,8.1,0,0,0,2287.632,458.166Zm1.28-1.361c-.081.069-.167.13-.245.2C2288.746,456.936,2288.83,456.873,2288.912,456.805Zm245.049,52.383a5.243,5.243,0,0,0,0,2.088,5.243,5.243,0,0,1,0-2.088Z"/><path class="d" d="M2477.112,383.625h8.361l19.945,19.948v10.971a1.943,1.943,0,0,0,.572,1.376l13.769,13.77a1.946,1.946,0,0,0,1.374.569h72.656a1.945,1.945,0,0,0,1.373-.569l12.65-12.648h47.018l14,14a1.935,1.935,0,0,0,1.372.572h76.015a8.027,8.027,0,1,0-.311-1.172,7,7,0,0,1-.134-1.329,7.84,7.84,0,0,1,.14-1.388h-74.9l-14-14a1.96,1.96,0,0,0-1.378-.569H2607a1.936,1.936,0,0,0-1.373.569l-12.65,12.65h-71.041l-12.628-12.632V402.767a1.946,1.946,0,0,0-.572-1.376l-21.084-21.084a1.954,1.954,0,0,0-1.378-.572h-9.165a6.315,6.315,0,1,0,0,3.889Zm271.768,45.49a4.759,4.759,0,1,1,4.762,4.759A4.769,4.769,0,0,1,2748.88,429.115Zm-271.537-46.39a6.21,6.21,0,0,0,.106-1.045,6.315,6.315,0,0,0-.106-1.044,5.2,5.2,0,0,1,0,2.089Z"/></g></svg>