<svg xmlns="http://www.w3.org/2000/svg" width="1920" height="820" viewBox="0 0 1920 820"><defs><style>.\39 2e52a67-792f-4858-bcf7-9d5650a97cd8{fill:#eee;}.\34 f5a7f10-1ace-49ca-9512-3b53ac7d6e2a{fill:#e0e0e0;opacity:0.5;}</style></defs><title>Asset 3</title><g id="dfbe682e-f9b3-45bb-819c-19683fb7c75a" data-name="Layer 2"><g id="fc31a592-d7ed-47d6-b786-98028aaf84ae" data-name="Header/Background"><rect class="92e52a67-792f-4858-bcf7-9d5650a97cd8" width="1920" height="820"/><rect class="4f5a7f10-1ace-49ca-9512-3b53ac7d6e2a" x="459.75" y="530.25" width="62.5" height="62.5" rx="6.25" ry="6.25" transform="translate(982 1123) rotate(-180)"/><rect class="4f5a7f10-1ace-49ca-9512-3b53ac7d6e2a" x="428.5" y="647.75" width="62.5" height="62.5" rx="6.25" ry="6.25" transform="translate(919.5 1358) rotate(-180)"/><rect class="4f5a7f10-1ace-49ca-9512-3b53ac7d6e2a" x="334.75" y="337.75" width="62.5" height="62.5" rx="6.25" ry="6.25" transform="translate(732 738) rotate(-180)"/><rect class="4f5a7f10-1ace-49ca-9512-3b53ac7d6e2a" x="366" y="369" width="62.5" height="62.5" rx="6.25" ry="6.25" transform="translate(794.5 800.5) rotate(-180)"/><rect class="4f5a7f10-1ace-49ca-9512-3b53ac7d6e2a" x="147.25" y="672.75" width="62.5" height="62.5" rx="6.25" ry="6.25" transform="translate(357 1408) rotate(-180)"/><rect class="4f5a7f10-1ace-49ca-9512-3b53ac7d6e2a" x="116" y="467.75" width="62.5" height="62.5" rx="6.25" ry="6.25" transform="translate(294.5 998) rotate(-180)"/><rect class="4f5a7f10-1ace-49ca-9512-3b53ac7d6e2a" x="84.75" y="254" width="62.5" height="62.5" rx="6.25" ry="6.25" transform="translate(232 570.5) rotate(-180)"/><rect class="4f5a7f10-1ace-49ca-9512-3b53ac7d6e2a" x="241" y="610.25" width="62.5" height="62.5" rx="6.25" ry="6.25" transform="translate(544.5 1283) rotate(-180)"/><rect class="4f5a7f10-1ace-49ca-9512-3b53ac7d6e2a" x="1421.75" y="704" width="62.5" height="62.5" rx="6.25" ry="6.25" transform="translate(2906 1470.5) rotate(-180)"/><rect class="4f5a7f10-1ace-49ca-9512-3b53ac7d6e2a" x="987.25" y="467.75" width="62.5" height="62.5" rx="6.25" ry="6.25" transform="translate(2037 998) rotate(-180)"/><rect class="4f5a7f10-1ace-49ca-9512-3b53ac7d6e2a" x="1198" y="672.75" width="62.5" height="62.5" rx="6.25" ry="6.25" transform="translate(2458.5 1408) rotate(-180)"/><rect class="4f5a7f10-1ace-49ca-9512-3b53ac7d6e2a" x="1644.25" y="59.75" width="62.5" height="62.5" rx="6.25" ry="6.25" transform="translate(3351 182) rotate(-180)"/><rect class="4f5a7f10-1ace-49ca-9512-3b53ac7d6e2a" x="771" y="616.5" width="62.5" height="62.5" rx="6.25" ry="6.25" transform="translate(1604.5 1295.5) rotate(-180)"/><rect class="4f5a7f10-1ace-49ca-9512-3b53ac7d6e2a" x="1151.75" y="62.25" width="62.5" height="62.5" rx="6.25" ry="6.25" transform="translate(2366 187) rotate(-180)"/><rect class="4f5a7f10-1ace-49ca-9512-3b53ac7d6e2a" x="833.5" y="554" width="62.5" height="62.5" rx="6.25" ry="6.25" transform="translate(1729.5 1170.5) rotate(-180)"/><rect class="4f5a7f10-1ace-49ca-9512-3b53ac7d6e2a" x="1148.5" y="499" width="62.5" height="62.5" rx="6.25" ry="6.25" transform="translate(2359.5 1060.5) rotate(-180)"/><rect class="4f5a7f10-1ace-49ca-9512-3b53ac7d6e2a" x="1166.75" y="704" width="62.5" height="62.5" rx="6.25" ry="6.25" transform="translate(2396 1470.5) rotate(-180)"/><rect class="4f5a7f10-1ace-49ca-9512-3b53ac7d6e2a" x="1703.75" y="186.75" width="62.5" height="62.5" rx="6.25" ry="6.25" transform="translate(3470 436) rotate(-180)"/><rect class="4f5a7f10-1ace-49ca-9512-3b53ac7d6e2a" x="1735" y="218" width="62.5" height="62.5" rx="6.25" ry="6.25" transform="translate(3532.5 498.5) rotate(-180)"/><rect class="4f5a7f10-1ace-49ca-9512-3b53ac7d6e2a" x="1610" y="459.25" width="62.5" height="62.5" rx="6.25" ry="6.25" transform="translate(3282.5 981) rotate(-180)"/><rect class="4f5a7f10-1ace-49ca-9512-3b53ac7d6e2a" x="1480.25" y="145.25" width="62.5" height="62.5" rx="6.25" ry="6.25" transform="translate(3023 353) rotate(-180)"/><rect class="4f5a7f10-1ace-49ca-9512-3b53ac7d6e2a" x="1417.75" y="371.5" width="62.5" height="62.5" rx="6.25" ry="6.25" transform="translate(2898 805.5) rotate(-180)"/><rect class="4f5a7f10-1ace-49ca-9512-3b53ac7d6e2a" x="1795.5" y="309" width="62.5" height="62.5" rx="6.25" ry="6.25" transform="translate(3653.5 680.5) rotate(-180)"/><rect class="4f5a7f10-1ace-49ca-9512-3b53ac7d6e2a" x="241" y="99.75" width="62.5" height="62.5" rx="6.25" ry="6.25" transform="translate(544.5 262) rotate(-180)"/><rect class="4f5a7f10-1ace-49ca-9512-3b53ac7d6e2a" x="272.25" y="131" width="62.5" height="62.5" rx="6.25" ry="6.25" transform="translate(607 324.5) rotate(-180)"/></g></g></svg>