<svg xmlns="http://www.w3.org/2000/svg" width="1920.25" height="1320" viewBox="0 0 1920.25 1320"><defs><style>.\32 dddfc58-f02a-48a8-8bb4-9e904e5967be{fill:#37474f;}.\38 464b74d-22d7-42f0-ab44-17cd943e2493{fill:#455a64;opacity:0.5;}</style></defs><title>Asset 2</title><g id="814f845d-a282-4c58-8c41-d97aeda11d3c" data-name="Layer 2"><g id="0fedec46-9e2e-4825-a258-739fe68d0406" data-name="Header/Background"><g id="7deba3a0-3862-4f3e-b72e-2d20a5508a87" data-name="Header"><rect class="2dddfc58-f02a-48a8-8bb4-9e904e5967be" x="0.25" width="1920" height="1320"/><rect class="8464b74d-22d7-42f0-ab44-17cd943e2493" x="1262.75" y="276.25" width="62.5" height="62.5" rx="6.25" ry="6.25"/><rect class="8464b74d-22d7-42f0-ab44-17cd943e2493" x="1294" y="393.75" width="62.5" height="62.5" rx="6.25" ry="6.25"/><rect class="8464b74d-22d7-42f0-ab44-17cd943e2493" x="1387.75" y="83.75" width="62.5" height="62.5" rx="6.25" ry="6.25"/><rect class="8464b74d-22d7-42f0-ab44-17cd943e2493" x="1356.5" y="115" width="62.5" height="62.5" rx="6.25" ry="6.25"/><rect class="8464b74d-22d7-42f0-ab44-17cd943e2493" x="1575.25" y="418.75" width="62.5" height="62.5" rx="6.25" ry="6.25"/><rect class="8464b74d-22d7-42f0-ab44-17cd943e2493" x="1606.5" y="213.75" width="62.5" height="62.5" rx="6.25" ry="6.25"/><rect class="8464b74d-22d7-42f0-ab44-17cd943e2493" x="1637.75" width="62.5" height="62.5" rx="6.25" ry="6.25"/><rect class="8464b74d-22d7-42f0-ab44-17cd943e2493" x="1481.5" y="356.25" width="62.5" height="62.5" rx="6.25" ry="6.25"/><rect class="8464b74d-22d7-42f0-ab44-17cd943e2493" x="542.75" y="425" width="62.5" height="62.5" rx="6.25" ry="6.25"/><rect class="8464b74d-22d7-42f0-ab44-17cd943e2493" x="735.25" y="213.75" width="62.5" height="62.5" rx="6.25" ry="6.25"/><rect class="8464b74d-22d7-42f0-ab44-17cd943e2493" x="766.5" y="393.75" width="62.5" height="62.5" rx="6.25" ry="6.25"/><rect class="8464b74d-22d7-42f0-ab44-17cd943e2493" x="575.25" y="18.75" width="62.5" height="62.5" rx="6.25" ry="6.25"/><rect class="8464b74d-22d7-42f0-ab44-17cd943e2493" x="951.5" y="362.5" width="62.5" height="62.5" rx="6.25" ry="6.25"/><rect class="8464b74d-22d7-42f0-ab44-17cd943e2493" x="1067.75" y="21.25" width="62.5" height="62.5" rx="6.25" ry="6.25"/><rect class="8464b74d-22d7-42f0-ab44-17cd943e2493" x="889" y="300" width="62.5" height="62.5" rx="6.25" ry="6.25"/><rect class="8464b74d-22d7-42f0-ab44-17cd943e2493" x="574" y="245" width="62.5" height="62.5" rx="6.25" ry="6.25"/><rect class="8464b74d-22d7-42f0-ab44-17cd943e2493" x="797.75" y="425" width="62.5" height="62.5" rx="6.25" ry="6.25"/><rect class="8464b74d-22d7-42f0-ab44-17cd943e2493" x="91.75" y="122.75" width="62.5" height="62.5" rx="6.25" ry="6.25"/><rect class="8464b74d-22d7-42f0-ab44-17cd943e2493" x="60.5" y="154" width="62.5" height="62.5" rx="6.25" ry="6.25"/><rect class="8464b74d-22d7-42f0-ab44-17cd943e2493" x="185.5" y="395.25" width="62.5" height="62.5" rx="6.25" ry="6.25"/><rect class="8464b74d-22d7-42f0-ab44-17cd943e2493" x="315.25" y="81.25" width="62.5" height="62.5" rx="6.25" ry="6.25"/><rect class="8464b74d-22d7-42f0-ab44-17cd943e2493" x="377.75" y="307.5" width="62.5" height="62.5" rx="6.25" ry="6.25"/><rect class="8464b74d-22d7-42f0-ab44-17cd943e2493" y="245" width="62.5" height="62.5" rx="6.25" ry="6.25"/></g></g></g></svg>