<svg xmlns="http://www.w3.org/2000/svg" xmlns:xlink="http://www.w3.org/1999/xlink" width="2550" height="500" viewBox="0 0 2550 500"><defs><style>.a,.e{fill:none;}.b,.g{fill:#263238;}.c{opacity:0.25;}.d{clip-path:url(#a);}.e,.g{stroke:#00acc1;stroke-miterlimit:10;stroke-width:2px;}.f{fill:#00acc1;}</style><clipPath id="a"><rect class="a" width="2550" height="500"/></clipPath></defs><title>CyanNodes</title><rect class="b" width="2550" height="500"/><g class="c"><g class="d"><polyline class="e" points="-50 -195 191 -29 113 118 290 81 334 176"/><line class="e" x1="334" y1="176" x2="405" y2="182"/><line class="e" x1="334" y1="176" x2="347" y2="327"/><polyline class="e" points="334 173 280 275 515 232 363 469"/><polyline class="e" points="280 275 119 343 -87 253"/><line class="e" x1="119" y1="343" x2="-134" y2="411"/><polyline class="e" points="113 118 334 176 456 83 378 -140"/><polygon class="e" points="456 83 543 38 584 173 456 83"/><polyline class="e" points="584 173 683 129 738 31 892 -35"/><polyline class="e" points="456 83 515 232 504 335 363 469 198 430 119 343 -26 557"/><polyline class="e" points="280 275 363 469 440 528"/><polyline class="e" points="515 232 668 354 753 180 788 285 668 354 504 335 567 437 668 445 734 534"/><polyline class="e" points="738 31 804 77 753 180 683 129"/><polyline class="e" points="850 503 978 421 944 293 1113 147 945 101 753 180 867 366"/><polygon class="e" points="1416 354 1378 404 1269 391 1416 354"/><polyline class="e" points="1267 392 1118 486 978 421 1143 362 1113 147"/><path class="e" d="M1374-93l-65,66L1177-44,1389,61,1267,163s-149-14-154-16l-2-134"/><line class="e" x1="753" y1="180" x2="944" y2="293"/><polyline class="e" points="1512 554 1487 488 1378 404 1549 400 1668 296 1706 324 1778 263 1889 242"/><polyline class="e" points="1229 124 1267 163 1414 117"/><polyline class="e" points="1471 258 1334 279 1416 354 1143 362"/><polygon class="e" points="1518 143 1614 120 1686 204 1518 143"/><polygon class="e" points="1656 -55 1796 111 1923 165 1518 143 1656 -55"/><line class="e" x1="1389" y1="61" x2="1656" y2="-55"/><polyline class="e" points="2010 614 1880 426 1706 324 1701 450"/><polyline class="e" points="1706 324 1773 452 1880 426 2003 296 2069 230"/><polygon class="e" points="1923 165 2003 296 2097 305 2069 230 1923 165"/><polyline class="e" points="1796 111 1950 -75 2328 -1 2384 80 2493 36 2669 151"/><polyline class="e" points="2384 80 2178 114 1923 165 1686 204 1778 263"/><polyline class="e" points="1787 403 1773 452 1853 535"/><line class="e" x1="1778" y1="263" x2="1869" y2="329"/><polyline class="e" points="1950 -75 2080 76 2178 114 2262 66 2384 81 2322 212"/><polyline class="e" points="2241 227 2187 231 2178 114 2241.042 226.606 2340 327 2451 266 2384 81 2529 203 2670 150"/><polyline class="e" points="1923 165 2187 231 2313 441 2258 527"/><polyline class="e" points="1989 398 1880 425 2009 472 2173 458"/><polyline class="e" points="2079 418 2003 296 2177 395"/><polyline class="e" points="2597 567 2475 471 2451 266 2656 373"/><line class="e" x1="2340" y1="327" x2="2358" y2="387"/><line class="e" x1="2097" y1="305" x2="2187" y2="231"/><circle class="f" cx="113" cy="118" r="10"/><circle class="f" cx="1518" cy="143" r="10"/><circle class="f" cx="1701" cy="450" r="10"/><circle class="f" cx="1267" cy="392" r="10"/><circle class="f" cx="945" cy="101" r="10"/><circle class="f" cx="804" cy="77" r="10"/><circle class="f" cx="584" cy="173" r="10"/><circle class="f" cx="1111" cy="13" r="10"/><circle class="f" cx="850" cy="503" r="10"/><circle class="f" cx="567" cy="437" r="10"/><circle class="f" cx="198" cy="430" r="10"/><circle class="f" cx="543" cy="38" r="10"/><circle class="f" cx="1778" cy="263" r="10"/><circle class="f" cx="1267" cy="163" r="10"/><circle class="f" cx="2079" cy="418" r="10"/><circle class="f" cx="2340" cy="327" r="10"/><circle class="f" cx="1389" cy="61" r="10"/><circle class="f" cx="944" cy="293" r="10"/><circle class="f" cx="515" cy="232" r="10"/><circle class="f" cx="668" cy="445" r="10"/><circle class="f" cx="2475" cy="471" r="10"/><circle class="f" cx="2313" cy="441" r="10"/><circle class="f" cx="2493" cy="36" r="10"/><circle class="f" cx="2328" cy="-1" r="10"/><circle class="f" cx="2451" cy="266" r="10"/><circle class="f" cx="2241" cy="227" r="10"/><circle class="f" cx="2097" cy="305" r="10"/><circle class="f" cx="1118" cy="486" r="10"/><circle class="f" cx="347" cy="327" r="10"/><circle class="f" cx="1378" cy="404" r="10"/><circle class="f" cx="2529" cy="203" r="10"/><circle class="f" cx="788" cy="285" r="10"/><circle class="f" cx="504" cy="335" r="10"/><circle class="f" cx="978" cy="421" r="10"/><circle class="f" cx="1143" cy="362" r="10"/><circle class="f" cx="867" cy="366" r="10"/><circle class="f" cx="668" cy="354" r="10"/><circle class="f" cx="280" cy="275" r="10"/><circle class="f" cx="738" cy="31" r="10"/><circle class="f" cx="683" cy="129" r="10"/><circle class="f" cx="456" cy="83" r="10"/><circle class="f" cx="290" cy="81" r="10"/><circle class="f" cx="405" cy="182" r="10"/><circle class="f" cx="1796" cy="111" r="10"/><circle class="f" cx="1686" cy="204" r="10"/><circle class="f" cx="1614" cy="120" r="10"/><circle class="f" cx="2069" cy="230" r="10"/><circle class="f" cx="1989" cy="398" r="10"/><circle class="f" cx="1889" cy="242" r="10"/><circle class="f" cx="1549" cy="400" r="10"/><circle class="f" cx="1487" cy="488" r="10"/><circle class="f" cx="1773" cy="452" r="10"/><circle class="f" cx="1668" cy="296" r="10"/><circle class="f" cx="1414" cy="117" r="10"/><circle class="f" cx="1471" cy="258" r="10"/><circle class="f" cx="1334" cy="279" r="10"/><circle class="f" cx="1229" cy="124" r="10"/><circle class="f" cx="2262" cy="66" r="10"/><circle class="f" cx="2322" cy="212" r="10"/><circle class="f" cx="2080" cy="76" r="10"/><circle class="f" cx="2358" cy="387" r="10"/><circle class="f" cx="2173" cy="458" r="10"/><circle class="f" cx="2009" cy="472" r="10"/><circle class="f" cx="2177" cy="395" r="10"/><circle class="f" cx="1787" cy="403" r="10"/><circle class="f" cx="1869" cy="329" r="10"/><circle class="g" cx="363" cy="469" r="18"/><circle class="f" cx="363" cy="469" r="10"/><circle class="g" cx="334" cy="176" r="18"/><circle class="f" cx="334" cy="176" r="10"/><circle class="g" cx="1880" cy="425" r="18"/><circle class="f" cx="1880" cy="425" r="10"/><circle class="g" cx="1923" cy="165" r="18"/><circle class="f" cx="1923" cy="165" r="10"/><circle class="g" cx="2384" cy="81" r="18"/><circle class="f" cx="2384" cy="81" r="10"/><circle class="g" cx="2178" cy="114" r="18"/><circle class="f" cx="2178" cy="114" r="10"/><circle class="g" cx="1416" cy="354" r="18"/><circle class="f" cx="1416" cy="354" r="10"/><circle class="g" cx="119" cy="343" r="18"/><circle class="f" cx="119" cy="343" r="10"/><circle class="g" cx="1113" cy="147" r="18"/><circle class="f" cx="1113" cy="147" r="10"/><circle class="g" cx="753" cy="180" r="18"/><circle class="f" cx="753" cy="180" r="10"/><circle class="g" cx="1706" cy="324" r="18"/><circle class="f" cx="1706" cy="324" r="10"/><circle class="g" cx="2003" cy="296" r="18"/><circle class="f" cx="2003" cy="296" r="10"/><circle class="g" cx="2187" cy="231" r="18"/><circle class="f" cx="2187" cy="231" r="10"/></g></g></svg>