<svg xmlns="http://www.w3.org/2000/svg" width="826" height="456" viewBox="0 0 826 456"><defs><style>.cls-1{isolation:isolate;}.cls-2{opacity:0.25;mix-blend-mode:multiply;}.cls-3{fill:#00acc1;}.cls-4{fill:#303f9f;}.cls-5{fill:#fff;}.cls-6{fill:#f5f5f5;}.cls-7{fill:#616161;}.cls-8{fill:#1976d2;}</style></defs><title>elements-homepage-header</title><g class="cls-1"><g id="Layer_1" data-name="Layer 1"><g class="cls-2"><path d="M426.4356,139.4484v-4.87l-4.6532-.76a11.6748,11.6748,0,0,0-.9975-2.41l2.71-3.863-3.4454-3.4423-3.8141,2.742a11.5706,11.5706,0,0,0-2.4281-1.01l-.8118-4.63h-4.871l-.7524,4.6153a11.411,11.411,0,0,0-2.4306.9974L401.1351,124.1l-3.4428,3.4423,2.6755,3.826a11.6754,11.6754,0,0,0-1.0172,2.445l-4.5963.7647v4.87l4.5888.8117a11.5173,11.5173,0,0,0,1.0173,2.4475l-2.7127,3.7912,3.4429,3.4473,3.8314-2.6826a11.7488,11.7488,0,0,0,2.4355,1.0048l.77,4.6178h4.8685l.8217-4.63a11.6057,11.6057,0,0,0,2.4256-1.0147l3.8562,2.7049,3.4454-3.4473-2.7548-3.8234a11.5083,11.5083,0,0,0,.995-2.41ZM410.5949,141.48a4.4347,4.4347,0,1,1,4.4354-4.4347A4.44,4.44,0,0,1,410.5949,141.48Zm-62.951,166.1261v-4.87l-4.6532-.76a11.6722,11.6722,0,0,0-.9974-2.41l2.71-3.863-3.4453-3.4424-3.8142,2.742a11.5729,11.5729,0,0,0-2.428-1.01l-.8119-4.63h-4.871l-.7524,4.6154a11.4069,11.4069,0,0,0-2.43.9973l-3.8067-2.7172L318.9006,295.7l2.6756,3.8259a11.6779,11.6779,0,0,0-1.0173,2.445l-4.5962.7647v4.87l4.5888.8117a11.507,11.507,0,0,0,1.0173,2.4475l-2.7128,3.7913,3.4429,3.4472,3.8315-2.6825a11.7462,11.7462,0,0,0,2.4355,1.0047l.77,4.6178h4.8685l.8218-4.63a11.613,11.613,0,0,0,2.4256-1.0146l3.8562,2.7048,3.4453-3.4472-2.7548-3.8235a11.5021,11.5021,0,0,0,.995-2.41Zm-15.8406,2.0318a4.4347,4.4347,0,1,1,4.4354-4.4347A4.44,4.44,0,0,1,331.8033,309.638ZM686.6125,89.0412,659.5951,78.0041l5.1021,8.7839c-96.5048.293-166.9041,15.9861-228.341,36.07h0a29.4054,29.4054,0,0,0-54.6944,19.4754q-11.8563,4.4806-23.5488,8.9894c-71.2667,27.3451-138.5822,53.1735-234.6494,53.1791h-.0314v4.5262c95.5887,0,129.7983,33.0533,166.0163,68.0476,5.2141,5.038,10.4727,10.1186,15.96,15.1538v0a29.3994,29.3994,0,0,0,46.443,34.4756l0,0c4.52,2.5313,9.2672,4.9752,14.2933,7.3088,38.035,17.66,86.6925,26.37,148.6594,26.62l-5.1035,8.7884,27.0175-11.04-27.0175-11.0371,5.0891,8.7612c-78.04-.312-125.6489-13.8172-159.8377-32.7813h0A29.4,29.4,0,1,0,307.7764,288.26l0,0c-5.1879-4.7839-10.1969-9.6208-15.1834-14.4388C261.8612,244.127,232.54,215.81,167.3024,207.1768c74.5369-6.3968,132.0769-28.47,192.4321-51.6283q11.4867-4.4074,23.0886-8.8154a29.4159,29.4159,0,1,0,55.4246-19.7269h0C499.23,107.118,569.1032,91.6074,664.6863,91.3139l-5.0912,8.7671Zm-354.809,191.27a24.8924,24.8924,0,1,1-24.8924,24.8923A24.92,24.92,0,0,1,331.8035,280.311Zm78.7911-118.3735a24.8921,24.8921,0,1,1,24.8928-24.8919A24.92,24.92,0,0,1,410.5946,161.9375Z"/><path d="M782.85,32.4675H762.4831a22.6295,22.6295,0,1,1-45.2589,0H696.8577A11.3147,11.3147,0,0,0,685.543,43.7823v85.992a11.3147,11.3147,0,0,0,11.3147,11.3147H782.85a11.3147,11.3147,0,0,0,11.3147-11.3147V43.7823A11.3148,11.3148,0,0,0,782.85,32.4675Z"/><polygon points="766.699 112.77 765.18 112.77 763.711 121.944 768.476 121.944 768.681 120.66 765.435 120.66 766.699 112.77"/><polygon points="775.866 113.986 776.061 112.77 770.805 112.77 769.336 121.944 774.652 121.944 774.851 120.701 771.054 120.701 771.513 117.831 774.444 117.831 774.64 116.608 771.709 116.608 772.129 113.986 775.866 113.986"/><path d="M767.0944,107.9933l-9.9-9.9,9.9-9.9005-14.9922-14.992V92.9648l-8.2463-8.2463-2.9988,2.9988,10.3487,10.3758-10.3487,10.3757,2.9988,2.9988,8.2463-8.2464v19.7642ZM761.103,88.2276,756.32,93.0113l-.0037-9.5707ZM756.32,103.1751l4.7833,4.7835-4.787,4.7869Z"/><path d="M709.87,77.9154h14.4792a4.5259,4.5259,0,1,0,0-3.3944H709.87V59.2873a4.5259,4.5259,0,1,0-3.3944,0V118.46a1.6976,1.6976,0,0,0,1.6972,1.6972h16.1763a4.5259,4.5259,0,1,0,0-3.3944H709.87V99.0366h14.4793a4.5261,4.5261,0,1,0,0-3.3944H709.87Z"/><path d="M719.6768,157.707h6.6337a5.7245,5.7245,0,0,1,4.0743,1.38,3.4621,3.4621,0,0,1,1.0019,2.4937v.0444a3.7619,3.7619,0,0,1-2.4707,3.6064c1.8477.5567,3.3389,1.625,3.3389,3.7622v.045c0,2.6713-2.2481,4.2519-5.6543,4.2519h-6.9238Zm9.9287,4.1187c0-1.5361-1.2246-2.5376-3.45-2.5376h-4.7422v5.3652h4.6084c2.1152,0,3.584-.9575,3.584-2.7832Zm-3.2725,4.3857h-4.92v5.499h5.2314c2.36,0,3.8291-1.0463,3.8291-2.7827v-.0449C730.4736,167.1909,729.0488,166.2114,726.333,166.2114Z"/><path d="M735.7461,157.707h1.7588v13.959h8.7715v1.625h-10.53Z"/><path d="M749.5234,157.707h11.2647V159.31h-9.5059v5.3208h8.5039v1.603h-8.5039v5.4541h9.6172v1.603h-11.376Z"/><path d="M665.2686,192.2524v-.0444a7.8512,7.8512,0,0,1,7.8808-8.0591,8.1127,8.1127,0,0,1,6.0781,2.4712l-1.2021,1.2915a6.773,6.773,0,0,0-4.8984-2.1372,6.1093,6.1093,0,0,0-6.0323,6.3892v.0444a6.1491,6.1491,0,0,0,6.0323,6.4341,6.7673,6.7673,0,0,0,5.0322-2.2485l1.1572,1.1352a8.1141,8.1141,0,0,1-6.2334,2.7383A7.7731,7.7731,0,0,1,665.2686,192.2524Z"/><path d="M682.0957,183.7485H683.81v6.7452a4.3585,4.3585,0,0,1,3.94-2.2486c2.7832,0,4.4082,1.87,4.4082,4.6084V200h-1.7148v-6.7231c0-2.1373-1.1573-3.4732-3.1836-3.4732a3.3862,3.3862,0,0,0-3.45,3.6065V200h-1.7139Z"/><path d="M694.9375,196.6606v-.0444c0-2.4267,2.0039-3.7178,4.9209-3.7178a12.21,12.21,0,0,1,3.5391.49v-.4009c0-2.07-1.2686-3.1392-3.4278-3.1392a8.0218,8.0218,0,0,0-3.4961.8462l-.5117-1.4028a9.5094,9.5094,0,0,1,4.1856-.957,5.0489,5.0489,0,0,1,3.7177,1.269,4.542,4.542,0,0,1,1.18,3.3613V200h-1.6474v-1.7363a5.0423,5.0423,0,0,1-4.1631,1.9814C697.0977,200.2451,694.9375,199.0205,694.9375,196.6606Zm8.4824-.8906v-1.1128a11.9948,11.9948,0,0,0-3.3838-.49c-2.1591,0-3.3613.9351-3.3613,2.3823v.0445c0,1.4472,1.335,2.2929,2.8936,2.2929C701.6836,198.8867,703.42,197.5957,703.42,195.77Z"/><path d="M708.6934,188.49h1.7138v3.0054a4.928,4.928,0,0,1,4.6973-3.2056v1.8477h-.1338c-2.5156,0-4.5635,1.8032-4.5635,5.2764V200h-1.7138Z"/><path d="M716.2822,196.6606v-.0444c0-2.4267,2.0039-3.7178,4.9209-3.7178a12.21,12.21,0,0,1,3.5391.49v-.4009c0-2.07-1.2686-3.1392-3.4277-3.1392a8.0214,8.0214,0,0,0-3.4961.8462l-.5118-1.4028a9.51,9.51,0,0,1,4.1856-.957,5.0492,5.0492,0,0,1,3.7178,1.269,4.5419,4.5419,0,0,1,1.18,3.3613V200h-1.6474v-1.7363a5.0421,5.0421,0,0,1-4.1631,1.9814C718.4424,200.2451,716.2822,199.0205,716.2822,196.6606Zm8.4824-.8906v-1.1128a11.9946,11.9946,0,0,0-3.3837-.49c-2.1592,0-3.3614.9351-3.3614,2.3823v.0445c0,1.4472,1.335,2.2929,2.8936,2.2929C723.0283,198.8867,724.7646,197.5957,724.7646,195.77Z"/><path d="M729.3252,194.3008v-.0445a5.9946,5.9946,0,0,1,10.5078-3.9628l-1.1348,1.2021a4.65,4.65,0,0,0-3.4961-1.7363,4.2475,4.2475,0,0,0-4.1181,4.4526v.0444a4.3,4.3,0,0,0,4.23,4.4747,4.7465,4.7465,0,0,0,3.5176-1.7144l1.0908,1.0244a5.954,5.954,0,0,1-10.5967-3.74Z"/><path d="M743.3477,196.95v-6.9463h-1.6026V188.49h1.6026v-3.4731h1.7138V188.49h3.6514v1.5137h-3.6514v6.7236a1.7032,1.7032,0,0,0,1.9375,1.9146,3.6005,3.6005,0,0,0,1.669-.4009V199.71a4.3032,4.3032,0,0,1-2.07.49A2.93,2.93,0,0,1,743.3477,196.95Z"/><path d="M750.6924,194.2783v-.0444a5.6779,5.6779,0,0,1,5.5215-5.9888c3.4062,0,5.3652,2.7163,5.3652,6.0781a4.4164,4.4164,0,0,1-.0225.5562h-9.1279a4.02,4.02,0,0,0,4.0518,3.896,4.7621,4.7621,0,0,0,3.6289-1.625l1.0683.9575a5.9394,5.9394,0,0,1-4.7412,2.1592A5.7209,5.7209,0,0,1,750.6924,194.2783Zm9.15-.6675c-.1787-2.0927-1.3809-3.9184-3.6739-3.9184-2.0039,0-3.5175,1.67-3.74,3.9184Z"/><path d="M764.582,188.49h1.7139v3.0054a4.9279,4.9279,0,0,1,4.6973-3.2056v1.8477h-.1338c-2.5157,0-4.5635,1.8032-4.5635,5.2764V200H764.582Z"/><path d="M773.64,184.082h1.959v1.8926H773.64Zm.1114,4.4082h1.7138V200H773.751Z"/><path d="M778.4912,198.5308l.8682-1.2246a6.7289,6.7289,0,0,0,3.9853,1.4692c1.38,0,2.3819-.7124,2.3819-1.8252v-.0449c0-1.1573-1.3575-1.6026-2.8721-2.0259-1.8027-.5117-3.8066-1.1353-3.8066-3.25v-.0444c0-1.9815,1.6474-3.295,3.9179-3.295a7.87,7.87,0,0,1,4.1416,1.2691l-.7793,1.291a6.509,6.509,0,0,0-3.4062-1.1133c-1.3584,0-2.2266.7124-2.2266,1.67v.0445c0,1.0908,1.4248,1.5136,2.9609,1.9814,1.7813.5342,3.6954,1.2246,3.6954,3.2949v.0445c0,2.1816-1.8028,3.4507-4.0957,3.4507A7.9172,7.9172,0,0,1,778.4912,198.5308Z"/><path d="M790.9111,196.95v-6.9463h-1.6025V188.49h1.6025v-3.4731h1.7139V188.49h3.6514v1.5137H792.625v6.7236a1.7032,1.7032,0,0,0,1.9375,1.9146,3.6066,3.6066,0,0,0,1.67-.4009V199.71a4.31,4.31,0,0,1-2.0713.49A2.93,2.93,0,0,1,790.9111,196.95Z"/><path d="M799.3467,184.082h1.959v1.8926h-1.959Zm.1113,4.4082h1.7139V200H799.458Z"/><path d="M804.4434,194.3008v-.0445a5.9946,5.9946,0,0,1,10.5078-3.9628l-1.1348,1.2021a4.65,4.65,0,0,0-3.4961-1.7363,4.2475,4.2475,0,0,0-4.1182,4.4526v.0444a4.3,4.3,0,0,0,4.23,4.4747,4.7462,4.7462,0,0,0,3.5176-1.7144l1.0908,1.0244a5.9539,5.9539,0,0,1-10.5966-3.74Z"/><path d="M739.8537,12.101A20.3666,20.3666,0,1,0,760.22,32.4676,20.3666,20.3666,0,0,0,739.8537,12.101Z"/><path d="M733.3438,18.9234a.6377.6377,0,0,0-.0677.0169.5424.5424,0,0,0-.4229.5414v2.7066h1.0827V20.6489a.5688.5688,0,0,0,0-.0846V19.4817a.542.542,0,0,0-.5921-.5583Zm3.2481,0a.6377.6377,0,0,0-.0677.0169.5424.5424,0,0,0-.4229.5414v2.7066h1.0827V20.6489a.5688.5688,0,0,0,0-.0846V19.4817a.542.542,0,0,0-.5921-.5583Zm3.2481,0a.6377.6377,0,0,0-.0677.0169.5424.5424,0,0,0-.4229.5414v2.7066h1.0827V20.6489a.5688.5688,0,0,0,0-.0846V19.4817a.542.542,0,0,0-.5921-.5583Zm3.2481,0a.6377.6377,0,0,0-.0677.0169.5424.5424,0,0,0-.4229.5414v2.7066H743.68V20.6489a.5688.5688,0,0,0,0-.0846V19.4817a.542.542,0,0,0-.5921-.5583Zm3.2481,0a.6377.6377,0,0,0-.0677.0169.5424.5424,0,0,0-.4229.5414v2.7066h1.0827V20.6489a.5688.5688,0,0,0,0-.0846V19.4817a.542.542,0,0,0-.5921-.5583ZM731.9227,22.73a1.7843,1.7843,0,0,0-1.7763,1.7763V40.4412a1.7842,1.7842,0,0,0,1.7763,1.7762h15.936a1.7842,1.7842,0,0,0,1.7763-1.7762V24.5059a1.7843,1.7843,0,0,0-1.7763-1.7763Zm-5.1766,2.7067a.5466.5466,0,1,0,.1522,1.0826h2.7068V25.4363h-2.859Zm23.43,0v1.0826h2.7067a.5414.5414,0,1,0,0-1.0826Zm-23.43,3.2479a.5467.5467,0,0,0,.1522,1.0827h2.7068V28.6842h-2.859Zm8.2725,0h9.7443v7.5786h-9.7443Zm15.1578,0v1.0827h2.7067a.5414.5414,0,1,0,0-1.0827Zm-23.43,3.248a.5467.5467,0,0,0,.1522,1.0827h2.7068V31.9322h-2.859Zm23.43,0v1.0827h2.7067a.5414.5414,0,1,0,0-1.0827Zm-23.43,3.248a.5466.5466,0,1,0,.1522,1.0826h2.7068V35.18h-2.859Zm23.43,0v1.0826h2.7067a.5414.5414,0,1,0,0-1.0826Zm-23.43,3.2479a.5467.5467,0,0,0,.1522,1.0827h2.7068V38.4281h-2.859Zm23.43,0v1.0827h2.7067a.5414.5414,0,1,0,0-1.0827Zm-17.3232,4.3307v1.5225a.41.41,0,0,0,0,.1015v1.0826a.5414.5414,0,1,0,1.0827,0V44.3828a.41.41,0,0,0,0-.1015V42.7588Zm3.2481,0v1.5225a.3635.3635,0,0,0,0,.0676v1.1165a.5414.5414,0,1,0,1.0827,0V44.3828a.41.41,0,0,0,0-.1015V42.7588Zm3.2481,0v1.5225a.3635.3635,0,0,0,0,.0676v1.1165a.5414.5414,0,1,0,1.0827,0V44.3828a.41.41,0,0,0,0-.1015V42.7588Zm3.2481,0v1.5225a.3635.3635,0,0,0,0,.0676v1.1165a.5414.5414,0,1,0,1.0827,0V44.3828a.41.41,0,0,0,0-.1015V42.7588Zm3.2481,0v1.5225a.3635.3635,0,0,0,0,.0676v1.1165a.5414.5414,0,1,0,1.0827,0V44.3828a.41.41,0,0,0,0-.1015V42.7588Z"/><path d="M544.11,429.7871h11.1982v1.625h-9.4395v5.5664h8.4375v1.6026h-8.4375v6.79H544.11Z"/><path d="M558.2432,441.0078v-7.1465h1.7148v6.7237c0,2.1367,1.1572,3.4726,3.1826,3.4726a3.3988,3.3988,0,0,0,3.4512-3.6064v-6.59h1.6924v11.51h-1.6924v-2.0039a4.3842,4.3842,0,0,1-3.94,2.249C559.8682,445.6162,558.2432,443.7461,558.2432,441.0078Z"/><path d="M572.1328,433.8613h1.7139v2.0039a4.3581,4.3581,0,0,1,3.94-2.249c2.7832,0,4.4082,1.87,4.4082,4.6084v7.1465h-1.7148v-6.7236c0-2.1368-1.1573-3.4727-3.1836-3.4727a3.3861,3.3861,0,0,0-3.45,3.6064v6.59h-1.7139Z"/><path d="M585.13,439.6719v-.0449a5.9944,5.9944,0,0,1,10.5078-3.962l-1.1348,1.2022a4.6476,4.6476,0,0,0-3.4961-1.7373,4.2476,4.2476,0,0,0-4.1181,4.4531v.044a4.3,4.3,0,0,0,4.23,4.4755,4.7482,4.7482,0,0,0,3.5175-1.7148l1.0909,1.0244a5.9537,5.9537,0,0,1-10.5967-3.74Z"/><path d="M599.1523,442.3213V435.375H597.55v-1.5137h1.6025v-3.4726h1.7139v3.4726h3.6514v1.5137h-3.6514v6.7236a1.7029,1.7029,0,0,0,1.9375,1.9141,3.6059,3.6059,0,0,0,1.669-.4v1.47a4.309,4.309,0,0,1-2.07.4893A2.93,2.93,0,0,1,599.1523,442.3213Z"/><path d="M607.5879,429.4531h1.959v1.8926h-1.959Zm.1113,4.4082h1.7139v11.51h-1.7139Z"/><path d="M612.6846,439.6719v-.0449a6,6,0,0,1,12-.044v.044a5.9769,5.9769,0,0,1-6.0332,6.0117A5.8969,5.8969,0,0,1,612.6846,439.6719Zm10.2412,0v-.0449a4.3563,4.3563,0,0,0-4.2744-4.4971,4.2483,4.2483,0,0,0-4.208,4.4531v.044a4.3181,4.3181,0,0,0,4.2519,4.4755A4.2478,4.2478,0,0,0,622.9258,439.6719Z"/><path d="M627.7754,433.8613h1.7139v2.0039a4.358,4.358,0,0,1,3.94-2.249c2.7832,0,4.4082,1.87,4.4082,4.6084v7.1465H636.123v-6.7236c0-2.1368-1.1572-3.4727-3.1835-3.4727a3.3861,3.3861,0,0,0-3.45,3.6064v6.59h-1.7139Z"/><rect x="536.4287" y="304.5491" width="108.6214" height="108.6214" rx="11.3147" ry="11.3147"/><path d="M614.8154,378.319l.5926.1841.0494.3659a5.7886,5.7886,0,1,0,1.1764-4.3125l-.26.3322-.5792-.22a4.5343,4.5343,0,0,1-2.8916-4.2048v-28.248a8.4032,8.4032,0,0,0-8.394-8.3938,8.135,8.135,0,0,0-8.127,8.1244V375.643a4.513,4.513,0,0,1-9.026,0l-.0045-33.4282a8.403,8.403,0,0,0-8.394-8.3927,8.1314,8.1314,0,0,0-8.1225,8.1221v33.56a4.6562,4.6562,0,0,1-4.6516,4.6516H554.5314v3.7423H566.183a8.4033,8.4033,0,0,0,8.3941-8.3939V342.08a4.5158,4.5158,0,0,1,9.0316,0v33.6954a8.1314,8.1314,0,0,0,8.1224,8.1222,8.4038,8.4038,0,0,0,8.3952-8.3916V342.08a4.517,4.517,0,0,1,9.0339,0v28.5163A8.07,8.07,0,0,0,614.8154,378.319Z"/><path d="M54.6606,278.0586h1.6475L63.41,293.7539H61.5171l-1.8252-4.1182H51.21l-1.8482,4.1182H47.5586Zm4.3409,9.9736-3.54-7.9248L51.9,288.0322Z"/><path d="M66.1885,282.2441h1.7143V284.56a5.1755,5.1755,0,0,1,4.4077-2.5606,5.6147,5.6147,0,0,1,5.4991,5.9668v.0449a5.6348,5.6348,0,0,1-5.4991,5.9883,5.1906,5.1906,0,0,1-4.4077-2.4492v5.7666H66.1885Zm9.8623,5.7881v-.0439a4.1452,4.1452,0,0,0-4.0518-4.4531,4.2921,4.2921,0,0,0-4.1631,4.4306v.0449a4.2837,4.2837,0,0,0,4.1631,4.4522C74.2251,292.4629,76.0508,290.8154,76.0508,288.0322Z"/><path d="M80.9668,282.2441h1.7144V284.56a5.1752,5.1752,0,0,1,4.4077-2.5606,5.6147,5.6147,0,0,1,5.499,5.9668v.0449a5.6347,5.6347,0,0,1-5.499,5.9883,5.1905,5.1905,0,0,1-4.4077-2.4492v5.7666H80.9668Zm9.8623,5.7881v-.0439a4.1452,4.1452,0,0,0-4.0518-4.4531,4.292,4.292,0,0,0-4.163,4.4306v.0449a4.2836,4.2836,0,0,0,4.163,4.4522C89.0034,292.4629,90.8291,290.8154,90.8291,288.0322Z"/><path d="M34.7056,304.8789H41.34a5.7234,5.7234,0,0,1,4.0738,1.3809,3.4586,3.4586,0,0,1,1.0019,2.4931v.045a3.7617,3.7617,0,0,1-2.4712,3.6064c1.8477.5566,3.3394,1.625,3.3394,3.7617v.0449c0,2.6719-2.2485,4.252-5.6548,4.252H34.7056Zm9.9292,4.1191c0-1.5361-1.2246-2.538-3.4507-2.538H36.4419v5.3652H41.05c2.1147,0,3.5845-.957,3.5845-2.7832Zm-3.273,4.3858h-4.92v5.499h5.2319c2.36,0,3.8291-1.0469,3.8291-2.7832v-.0449C45.5029,314.3633,44.0781,313.3838,41.3618,313.3838Z"/><path d="M50.3076,316.1v-7.1465H52.022v6.7237c0,2.1367,1.1577,3.4726,3.1836,3.4726a3.399,3.399,0,0,0,3.4506-3.6064v-6.59h1.6919v11.51H58.6562V318.46a4.3852,4.3852,0,0,1-3.94,2.248C51.9331,320.708,50.3076,318.8379,50.3076,316.1Z"/><path d="M64.7974,317.4131v-6.9463H63.1943v-1.5137h1.6031v-3.4726h1.7143v3.4726h3.6509v1.5137H66.5117V317.19a1.7033,1.7033,0,0,0,1.9365,1.9151,3.5988,3.5988,0,0,0,1.67-.4014v1.47a4.3117,4.3117,0,0,1-2.07.4893A2.93,2.93,0,0,1,64.7974,317.4131Z"/><path d="M73.7891,317.4131v-6.9463H72.186v-1.5137h1.6031v-3.4726h1.7143v3.4726h3.6509v1.5137H75.5034V317.19a1.7033,1.7033,0,0,0,1.9365,1.9151,3.5988,3.5988,0,0,0,1.67-.4014v1.47a4.3117,4.3117,0,0,1-2.07.4893A2.93,2.93,0,0,1,73.7891,317.4131Z"/><path d="M81.1338,314.7637v-.044a6,6,0,0,1,12-.0449v.0449A5.9764,5.9764,0,0,1,87.1,320.7305,5.8963,5.8963,0,0,1,81.1338,314.7637Zm10.2407,0v-.044a4.355,4.355,0,0,0-4.2744-4.497,4.2476,4.2476,0,0,0-4.2075,4.4521v.0449a4.3182,4.3182,0,0,0,4.2519,4.4746A4.2471,4.2471,0,0,0,91.3745,314.7637Z"/><path d="M96.2241,308.9531h1.7144v2.0039a4.3581,4.3581,0,0,1,3.94-2.249c2.7827,0,4.4077,1.87,4.4077,4.6084v7.1465h-1.7138V313.74c0-2.1377-1.1578-3.4736-3.1836-3.4736a3.3865,3.3865,0,0,0-3.4507,3.6064v6.59H96.2241Z"/><rect x="15.951" y="152.9317" width="108.6214" height="108.6214" rx="11.3147" ry="11.3147"/><path id="Button" d="M100.38,180.0871H40.1433a6.0983,6.0983,0,0,0-6.0887,6.1078V228.29a6.0982,6.0982,0,0,0,6.0887,6.1078H100.38a6.0982,6.0982,0,0,0,6.0887-6.1078V186.1949A6.0983,6.0983,0,0,0,100.38,180.0871Zm-.0048,41.67a6.5178,6.5178,0,0,1-6.5074,6.5277H48.5955a6.5177,6.5177,0,0,1-6.5073-6.5277v-2.0841a5.7709,5.7709,0,0,0,5.5511,4.26H93.1449a2.9053,2.9053,0,0,0,2.8922-2.9011V193.4388a5.7812,5.7812,0,0,0-4.1356-5.5343h1.9664a6.5177,6.5177,0,0,1,6.5074,6.5278Z"/></g><path class="cls-3" d="M421.9841,134.9969v-4.87l-4.6532-.76a11.6748,11.6748,0,0,0-.9975-2.41l2.71-3.863-3.4453-3.4423-3.8141,2.742a11.5706,11.5706,0,0,0-2.4281-1.01l-.8118-4.63h-4.871l-.7524,4.6153a11.411,11.411,0,0,0-2.4306.9974l-3.8067-2.7173-3.4428,3.4423,2.6755,3.8259a11.6784,11.6784,0,0,0-1.0172,2.4451l-4.5963.7646v4.87l4.5888.8117a11.5173,11.5173,0,0,0,1.0173,2.4475l-2.7127,3.7912,3.4429,3.4473,3.8314-2.6826a11.7407,11.7407,0,0,0,2.4355,1.0047l.77,4.6179h4.8685l.8217-4.63a11.6057,11.6057,0,0,0,2.4256-1.0147l3.8562,2.7049,3.4454-3.4473-2.7548-3.8234a11.5083,11.5083,0,0,0,.995-2.41Zm-15.8407,2.0317a4.4347,4.4347,0,1,1,4.4354-4.4347A4.44,4.44,0,0,1,406.1434,137.0286Zm-62.951,166.1261v-4.87l-4.6532-.76a11.6714,11.6714,0,0,0-.9974-2.41l2.71-3.863-3.4453-3.4424-3.8142,2.742a11.5729,11.5729,0,0,0-2.428-1.01l-.8119-4.63h-4.871l-.7524,4.6154a11.4069,11.4069,0,0,0-2.4305.9973l-3.8067-2.7172-3.4429,3.4423,2.6756,3.8259a11.6726,11.6726,0,0,0-1.0173,2.445l-4.5962.7647v4.87l4.5888.8117a11.507,11.507,0,0,0,1.0173,2.4475l-2.7128,3.7913,3.4429,3.4472,3.8315-2.6825a11.7462,11.7462,0,0,0,2.4355,1.0047l.77,4.6178h4.8685l.8218-4.63A11.6152,11.6152,0,0,0,333,310.9476l3.8562,2.7048,3.4453-3.4472-2.7548-3.8235a11.5021,11.5021,0,0,0,.995-2.41Zm-15.8406,2.0318a4.4347,4.4347,0,1,1,4.4354-4.4347A4.44,4.44,0,0,1,327.3518,305.1865ZM682.161,84.59,655.1436,73.5526l5.1021,8.7839c-96.5048.293-166.9041,15.9861-228.341,36.07h0A29.4053,29.4053,0,0,0,377.21,137.8821q-11.8563,4.4806-23.5488,8.9894c-71.2667,27.3451-138.5822,53.1735-234.6494,53.1791h-.0314v4.5262c95.5887,0,129.7983,33.0533,166.0163,68.0476,5.2141,5.038,10.4727,10.1186,15.96,15.1538v0A29.3994,29.3994,0,0,0,347.4,322.2535l0,0c4.52,2.5313,9.2672,4.9752,14.2933,7.3088,38.035,17.66,86.6925,26.37,148.6594,26.62l-5.1035,8.7884,27.0175-11.04-27.0175-11.0372,5.0891,8.7613c-78.04-.312-125.6489-13.8172-159.8377-32.7813h0a29.4,29.4,0,1,0-47.1756-35.0654l0,0c-5.1879-4.7839-10.1969-9.6208-15.1834-14.4388-30.7321-29.6937-60.0529-58.0113-125.2909-66.6439,74.5369-6.3968,132.0769-28.47,192.4321-51.6283q11.4867-4.4075,23.0886-8.8154a29.4159,29.4159,0,1,0,55.4246-19.7269h0c60.9822-19.8883,130.8554-35.3989,226.4385-35.6925L655.1436,95.63ZM327.3519,275.86A24.8924,24.8924,0,1,1,302.46,300.7518,24.92,24.92,0,0,1,327.3519,275.86ZM406.1431,157.486a24.8921,24.8921,0,1,1,24.8928-24.8919A24.92,24.92,0,0,1,406.1431,157.486Z"/><path class="cls-4" d="M778.3982,28.016H758.0316a22.6295,22.6295,0,1,1-45.2589,0H692.4062a11.3147,11.3147,0,0,0-11.3147,11.3148v85.992a11.3147,11.3147,0,0,0,11.3147,11.3147h85.992a11.3147,11.3147,0,0,0,11.3147-11.3147V39.3308A11.3148,11.3148,0,0,0,778.3982,28.016Z"/><polygon class="cls-5" points="762.247 108.318 760.728 108.318 759.259 117.492 764.024 117.492 764.23 116.209 760.984 116.209 762.247 108.318"/><polygon class="cls-5" points="771.415 109.535 771.609 108.318 766.354 108.318 764.884 117.492 770.201 117.492 770.4 116.249 766.602 116.249 767.062 113.379 769.992 113.379 770.188 112.156 767.258 112.156 767.678 109.535 771.415 109.535"/><path class="cls-5" d="M762.6429,103.5418l-9.9-9.9,9.9-9.9-14.9922-14.992V88.5133l-8.2463-8.2463-2.9988,2.9988,10.3487,10.3758-10.3487,10.3757,2.9988,2.9988,8.2463-8.2464v19.7642Zm-5.9914-19.7657L751.8682,88.56l-.0037-9.5707Zm-4.7833,14.9475,4.7833,4.7835-4.787,4.7869Z"/><path class="cls-5" d="M705.4181,73.4639h14.4792a4.5259,4.5259,0,1,0,0-3.3944H705.4181V54.8358a4.5259,4.5259,0,1,0-3.3944,0V114.008a1.6976,1.6976,0,0,0,1.6972,1.6972h16.1763a4.5259,4.5259,0,1,0,0-3.3944H705.4181V94.5851h14.4793a4.5261,4.5261,0,1,0,0-3.3944H705.4181Z"/><path class="cls-6" d="M715.2256,153.2559h6.6338a5.7247,5.7247,0,0,1,4.0742,1.38,3.4621,3.4621,0,0,1,1.0019,2.4937v.0444a3.762,3.762,0,0,1-2.4707,3.6065c1.8477.5566,3.3389,1.625,3.3389,3.7622v.0449c0,2.6714-2.248,4.2519-5.6543,4.2519h-6.9238Zm9.9287,4.1186c0-1.5361-1.2246-2.5376-3.45-2.5376h-4.7422v5.3652H721.57c2.1152,0,3.584-.9575,3.584-2.7832Zm-3.2725,4.3858h-4.92v5.499h5.2315c2.36,0,3.8291-1.0464,3.8291-2.7827v-.045C726.0225,162.74,724.5977,161.76,721.8818,161.76Z"/><path class="cls-6" d="M731.2949,153.2559h1.7588v13.9589h8.7715v1.625h-10.53Z"/><path class="cls-6" d="M745.0723,153.2559h11.2646v1.603h-9.5058V160.18h8.5039v1.603h-8.5039v5.4541h9.6171v1.603H745.0723Z"/><path class="cls-6" d="M660.8174,187.8013v-.0445a7.8511,7.8511,0,0,1,7.8808-8.059,8.1129,8.1129,0,0,1,6.0782,2.4711l-1.2022,1.2915a6.773,6.773,0,0,0-4.8984-2.1372,6.1092,6.1092,0,0,0-6.0322,6.3892v.0444a6.149,6.149,0,0,0,6.0322,6.4341,6.7671,6.7671,0,0,0,5.0322-2.2485l1.1572,1.1352a8.1141,8.1141,0,0,1-6.2334,2.7383A7.7731,7.7731,0,0,1,660.8174,187.8013Z"/><path class="cls-6" d="M677.6445,179.2974h1.7139v6.7451a4.3585,4.3585,0,0,1,3.94-2.2486c2.7832,0,4.4082,1.87,4.4082,4.6084v7.1465h-1.7148v-6.7231c0-2.1372-1.1572-3.4732-3.1836-3.4732a3.3862,3.3862,0,0,0-3.45,3.6065v6.59h-1.7139Z"/><path class="cls-6" d="M690.4863,192.21v-.0445c0-2.4267,2.0039-3.7177,4.9209-3.7177a12.2128,12.2128,0,0,1,3.5391.49v-.4009c0-2.07-1.2686-3.1391-3.4277-3.1391a8.02,8.02,0,0,0-3.4961.8462l-.5118-1.4029a9.51,9.51,0,0,1,4.1856-.957,5.05,5.05,0,0,1,3.7178,1.269,4.542,4.542,0,0,1,1.18,3.3614v7.0351h-1.6474v-1.7363a5.0421,5.0421,0,0,1-4.1631,1.9814C692.6465,195.7939,690.4863,194.5693,690.4863,192.21Zm8.4824-.8907v-1.1127a11.9905,11.9905,0,0,0-3.3837-.49c-2.1592,0-3.3614.9351-3.3614,2.3823v.0445c0,1.4472,1.335,2.2929,2.8936,2.2929C697.2324,194.4355,698.9687,193.1445,698.9687,191.3188Z"/><path class="cls-6" d="M704.2422,184.0391h1.7139v3.0053a4.9277,4.9277,0,0,1,4.6972-3.2055v1.8476H710.52c-2.5156,0-4.5634,1.8032-4.5634,5.2764v4.5859h-1.7139Z"/><path class="cls-6" d="M711.8311,192.21v-.0445c0-2.4267,2.0039-3.7177,4.9209-3.7177a12.2126,12.2126,0,0,1,3.539.49v-.4009c0-2.07-1.2685-3.1391-3.4277-3.1391a8.02,8.02,0,0,0-3.4961.8462l-.5117-1.4029a9.5092,9.5092,0,0,1,4.1855-.957,5.05,5.05,0,0,1,3.7178,1.269,4.5421,4.5421,0,0,1,1.18,3.3614v7.0351H720.291v-1.7363a5.0421,5.0421,0,0,1-4.1631,1.9814C713.9912,195.7939,711.8311,194.5693,711.8311,192.21Zm8.4824-.8907v-1.1127a11.9913,11.9913,0,0,0-3.3838-.49c-2.1592,0-3.3613.9351-3.3613,2.3823v.0445c0,1.4472,1.3349,2.2929,2.8935,2.2929C718.5771,194.4355,720.3135,193.1445,720.3135,191.3188Z"/><path class="cls-6" d="M724.874,189.85v-.0444a5.9946,5.9946,0,0,1,10.5078-3.9629l-1.1347,1.2021a4.65,4.65,0,0,0-3.4961-1.7363,4.2476,4.2476,0,0,0-4.1182,4.4526v.0445a4.3,4.3,0,0,0,4.23,4.4746,4.7463,4.7463,0,0,0,3.5176-1.7144l1.0908,1.0244a5.954,5.954,0,0,1-10.5967-3.74Z"/><path class="cls-6" d="M738.8965,192.499v-6.9463h-1.6026v-1.5136h1.6026v-3.4732H740.61v3.4732h3.6513v1.5136H740.61v6.7237a1.7032,1.7032,0,0,0,1.9375,1.9145,3.6,3.6,0,0,0,1.6689-.4009v1.4693a4.3043,4.3043,0,0,1-2.07.49A2.93,2.93,0,0,1,738.8965,192.499Z"/><path class="cls-6" d="M746.2412,189.8271v-.0444a5.6779,5.6779,0,0,1,5.5215-5.9888c3.4062,0,5.3652,2.7164,5.3652,6.0782a4.4351,4.4351,0,0,1-.0224.5561h-9.128a4.02,4.02,0,0,0,4.0518,3.896,4.762,4.762,0,0,0,3.6289-1.625l1.0684.9575a5.9394,5.9394,0,0,1-4.7412,2.1592A5.7208,5.7208,0,0,1,746.2412,189.8271Zm9.15-.6674c-.1787-2.0928-1.3809-3.9185-3.6738-3.9185-2.0039,0-3.5176,1.67-3.74,3.9185Z"/><path class="cls-6" d="M760.1309,184.0391h1.7138v3.0053a4.9278,4.9278,0,0,1,4.6973-3.2055v1.8476h-.1338c-2.5156,0-4.5635,1.8032-4.5635,5.2764v4.5859h-1.7138Z"/><path class="cls-6" d="M769.1885,179.6309h1.959v1.8925h-1.959Zm.1113,4.4082h1.7139v11.51H769.3Z"/><path class="cls-6" d="M774.04,194.08l.8682-1.2246a6.7294,6.7294,0,0,0,3.9854,1.4692c1.38,0,2.3818-.7124,2.3818-1.8252v-.0449c0-1.1572-1.3574-1.6025-2.8721-2.0259-1.8027-.5117-3.8066-1.1352-3.8066-3.25v-.0444c0-1.9815,1.6474-3.2949,3.9179-3.2949a7.87,7.87,0,0,1,4.1416,1.269l-.7792,1.291a6.51,6.51,0,0,0-3.4063-1.1133c-1.3584,0-2.2266.7124-2.2266,1.67V187c0,1.0908,1.4248,1.5137,2.961,1.9814,1.7812.5342,3.6953,1.2247,3.6953,3.295v.0444c0,2.1816-1.8027,3.4507-4.0957,3.4507A7.9168,7.9168,0,0,1,774.04,194.08Z"/><path class="cls-6" d="M786.46,192.499v-6.9463h-1.6026v-1.5136H786.46v-3.4732h1.7138v3.4732h3.6514v1.5136h-3.6514v6.7237a1.7032,1.7032,0,0,0,1.9375,1.9145,3.6063,3.6063,0,0,0,1.67-.4009v1.4693a4.3106,4.3106,0,0,1-2.0712.49A2.93,2.93,0,0,1,786.46,192.499Z"/><path class="cls-6" d="M794.8955,179.6309h1.959v1.8925h-1.959Zm.1113,4.4082h1.7139v11.51h-1.7139Z"/><path class="cls-6" d="M799.9922,189.85v-.0444A5.9946,5.9946,0,0,1,810.5,185.8423l-1.1348,1.2021a4.65,4.65,0,0,0-3.4961-1.7363,4.2475,4.2475,0,0,0-4.1181,4.4526v.0445a4.3,4.3,0,0,0,4.23,4.4746,4.7461,4.7461,0,0,0,3.5175-1.7144l1.0909,1.0244a5.954,5.954,0,0,1-10.5967-3.74Z"/><path class="cls-3" d="M735.4022,7.65a20.3666,20.3666,0,1,0,20.3665,20.3666A20.3666,20.3666,0,0,0,735.4022,7.65Z"/><path class="cls-5" d="M728.8923,14.4719a.6377.6377,0,0,0-.0677.0169.5424.5424,0,0,0-.4229.5414v2.7066h1.0827V16.1974a.5688.5688,0,0,0,0-.0846V15.03a.542.542,0,0,0-.5921-.5583Zm3.2481,0a.6377.6377,0,0,0-.0677.0169.5424.5424,0,0,0-.4229.5414v2.7066h1.0827V16.1974a.5688.5688,0,0,0,0-.0846V15.03a.542.542,0,0,0-.5921-.5583Zm3.2481,0a.6377.6377,0,0,0-.0677.0169.5424.5424,0,0,0-.4229.5414v2.7066h1.0827V16.1974a.5688.5688,0,0,0,0-.0846V15.03a.542.542,0,0,0-.5921-.5583Zm3.2481,0a.6377.6377,0,0,0-.0677.0169.5424.5424,0,0,0-.4229.5414v2.7066h1.0827V16.1974a.5688.5688,0,0,0,0-.0846V15.03a.542.542,0,0,0-.5921-.5583Zm3.2481,0a.6377.6377,0,0,0-.0677.0169.5424.5424,0,0,0-.4229.5414v2.7066h1.0827V16.1974a.5688.5688,0,0,0,0-.0846V15.03a.542.542,0,0,0-.5921-.5583Zm-14.4135,3.8062a1.7843,1.7843,0,0,0-1.7763,1.7763V35.99a1.7842,1.7842,0,0,0,1.7763,1.7762h15.936a1.7842,1.7842,0,0,0,1.7763-1.7762V20.0544a1.7842,1.7842,0,0,0-1.7763-1.7763Zm-5.1766,2.7067a.5466.5466,0,1,0,.1522,1.0826h2.7068V20.9848h-2.859Zm23.43,0v1.0826h2.7067a.5414.5414,0,1,0,0-1.0826Zm-23.43,3.2479a.5467.5467,0,0,0,.1522,1.0827h2.7068V24.2327h-2.859Zm8.2725,0h9.7443v7.5786h-9.7443Zm15.1578,0v1.0827h2.7067a.5414.5414,0,1,0,0-1.0827Zm-23.43,3.248a.5467.5467,0,0,0,.1522,1.0827h2.7068V27.4807h-2.859Zm23.43,0v1.0827h2.7067a.5414.5414,0,1,0,0-1.0827Zm-23.43,3.248a.5466.5466,0,1,0,.1522,1.0826h2.7068V30.7287h-2.859Zm23.43,0v1.0826h2.7067a.5414.5414,0,1,0,0-1.0826Zm-23.43,3.2479a.5467.5467,0,0,0,.1522,1.0827h2.7068V33.9766h-2.859Zm23.43,0v1.0827h2.7067a.5414.5414,0,1,0,0-1.0827Zm-17.3232,4.3307V39.83a.41.41,0,0,0,0,.1015v1.0827a.5414.5414,0,1,0,1.0827,0V39.9312a.41.41,0,0,0,0-.1015V38.3073Zm3.2481,0V39.83a.3645.3645,0,0,0,0,.0677v1.1165a.5414.5414,0,1,0,1.0827,0V39.9312a.41.41,0,0,0,0-.1015V38.3073Zm3.2481,0V39.83a.3645.3645,0,0,0,0,.0677v1.1165a.5414.5414,0,1,0,1.0827,0V39.9312a.41.41,0,0,0,0-.1015V38.3073Zm3.2481,0V39.83a.3645.3645,0,0,0,0,.0677v1.1165a.5414.5414,0,1,0,1.0827,0V39.9312a.41.41,0,0,0,0-.1015V38.3073Zm3.2481,0V39.83a.3645.3645,0,0,0,0,.0677v1.1165a.5414.5414,0,1,0,1.0827,0V39.9312a.41.41,0,0,0,0-.1015V38.3073Z"/><path class="cls-6" d="M539.6592,425.3359h11.1982v1.625H541.418v5.5664h8.4375V434.13H541.418v6.79h-1.7588Z"/><path class="cls-6" d="M553.792,436.5566V429.41h1.7148v6.7236c0,2.1367,1.1573,3.4726,3.1827,3.4726A3.3988,3.3988,0,0,0,562.1406,436v-6.59h1.6924v11.51h-1.6924V438.916a4.3842,4.3842,0,0,1-3.94,2.249C555.417,441.165,553.792,439.2949,553.792,436.5566Z"/><path class="cls-6" d="M567.6816,429.41h1.7139v2.0039a4.358,4.358,0,0,1,3.94-2.2491c2.7832,0,4.4082,1.87,4.4082,4.6084V440.92h-1.7148v-6.7236c0-2.1367-1.1572-3.4727-3.1836-3.4727a3.3862,3.3862,0,0,0-3.45,3.6065v6.59h-1.7139Z"/><path class="cls-6" d="M580.6787,435.2207v-.0449a5.9943,5.9943,0,0,1,10.5078-3.9619l-1.1347,1.2021a4.6476,4.6476,0,0,0-3.4961-1.7373,4.2477,4.2477,0,0,0-4.1182,4.4531v.044a4.3,4.3,0,0,0,4.23,4.4756,4.7485,4.7485,0,0,0,3.5176-1.7149l1.0908,1.0244a5.9537,5.9537,0,0,1-10.5967-3.74Z"/><path class="cls-6" d="M594.7012,437.87v-6.9463h-1.6026V429.41h1.6026v-3.4727h1.7138V429.41h3.6514v1.5136H596.415v6.7237a1.7028,1.7028,0,0,0,1.9375,1.914,3.6056,3.6056,0,0,0,1.669-.4v1.47a4.31,4.31,0,0,1-2.07.4892A2.9294,2.9294,0,0,1,594.7012,437.87Z"/><path class="cls-6" d="M603.1367,425.002h1.959v1.8925h-1.959Zm.1113,4.4082h1.7139v11.51H603.248Z"/><path class="cls-6" d="M608.2334,435.2207v-.0449a6,6,0,0,1,12-.044v.044a5.9768,5.9768,0,0,1-6.0332,6.0117A5.8969,5.8969,0,0,1,608.2334,435.2207Zm10.2412,0v-.0449a4.3563,4.3563,0,0,0-4.2744-4.4971,4.2484,4.2484,0,0,0-4.208,4.4531v.044a4.3181,4.3181,0,0,0,4.2519,4.4756A4.2479,4.2479,0,0,0,618.4746,435.2207Z"/><path class="cls-6" d="M623.3242,429.41h1.7139v2.0039a4.358,4.358,0,0,1,3.94-2.2491c2.7832,0,4.4082,1.87,4.4082,4.6084V440.92h-1.7148v-6.7236c0-2.1367-1.1573-3.4727-3.1836-3.4727a3.3862,3.3862,0,0,0-3.45,3.6065v6.59h-1.7139Z"/><rect class="cls-7" x="531.9772" y="300.0976" width="108.6214" height="108.6214" rx="11.3147" ry="11.3147"/><path class="cls-6" d="M610.3639,373.8675l.5926.1841.0494.3659a5.7886,5.7886,0,1,0,1.1764-4.3125l-.26.3322-.5792-.22a4.5343,4.5343,0,0,1-2.8916-4.2048v-28.248a8.4033,8.4033,0,0,0-8.3941-8.3939,8.1351,8.1351,0,0,0-8.1269,8.1245v33.6965a4.513,4.513,0,0,1-9.026,0L582.9,337.7633a8.4031,8.4031,0,0,0-8.394-8.3928,8.1315,8.1315,0,0,0-8.1225,8.1222v33.56a4.6561,4.6561,0,0,1-4.6516,4.6515H550.08v3.7424h11.6516a8.4033,8.4033,0,0,0,8.3941-8.3939V337.6286a4.5158,4.5158,0,0,1,9.0316,0V371.324a8.1314,8.1314,0,0,0,8.1224,8.1222,8.4038,8.4038,0,0,0,8.3952-8.3916v-33.426a4.517,4.517,0,0,1,9.0339,0v28.5163A8.07,8.07,0,0,0,610.3639,373.8675Z"/><path class="cls-6" d="M50.209,273.6074h1.6474l7.1016,15.6953H57.0654L55.24,285.1836H46.7583L44.91,289.3027H43.1069Zm4.3408,9.9737L51.01,275.6553l-3.5621,7.9258Z"/><path class="cls-6" d="M61.7368,277.793h1.7144v2.3154a5.173,5.173,0,0,1,4.4077-2.56,5.6141,5.6141,0,0,1,5.499,5.9667v.044a5.6351,5.6351,0,0,1-5.499,5.9893,5.1928,5.1928,0,0,1-4.4077-2.4493v5.7657H61.7368Zm9.8623,5.7881v-.045a4.1443,4.1443,0,0,0-4.0517-4.4521,4.2921,4.2921,0,0,0-4.1631,4.4306v.044a4.2839,4.2839,0,0,0,4.1631,4.4531C69.7734,288.0117,71.5991,286.3643,71.5991,283.5811Z"/><path class="cls-6" d="M76.5151,277.793H78.23v2.3154a5.1733,5.1733,0,0,1,4.4077-2.56,5.6141,5.6141,0,0,1,5.499,5.9667v.044a5.6351,5.6351,0,0,1-5.499,5.9893,5.1928,5.1928,0,0,1-4.4077-2.4493v5.7657H76.5151Zm9.8623,5.7881v-.045a4.1443,4.1443,0,0,0-4.0517-4.4521,4.2921,4.2921,0,0,0-4.1631,4.4306v.044a4.2839,4.2839,0,0,0,4.1631,4.4531C84.5518,288.0117,86.3774,286.3643,86.3774,283.5811Z"/><path class="cls-6" d="M30.2539,300.4277h6.6343a5.7233,5.7233,0,0,1,4.0737,1.38,3.4613,3.4613,0,0,1,1.002,2.4942v.0439a3.7605,3.7605,0,0,1-2.4712,3.6064c1.8476.5567,3.3393,1.625,3.3393,3.7627v.045c0,2.6709-2.2485,4.2519-5.6548,4.2519H30.2539Zm9.9292,4.1182c0-1.5361-1.2246-2.5371-3.4507-2.5371H31.99v5.3652h4.6084c2.1148,0,3.5845-.958,3.5845-2.7832ZM36.91,308.9316H31.99v5.4991h5.232c2.36,0,3.8291-1.0459,3.8291-2.7823v-.0449C41.0513,309.9111,39.6265,308.9316,36.91,308.9316Z"/><path class="cls-6" d="M45.856,311.6484V304.502H47.57v6.7226c0,2.1377,1.1577,3.4736,3.1836,3.4736a3.399,3.399,0,0,0,3.4507-3.6064v-6.59h1.6919v11.51H54.2046v-2.0039a4.3842,4.3842,0,0,1-3.94,2.249C47.4814,316.2568,45.856,314.3867,45.856,311.6484Z"/><path class="cls-6" d="M60.3457,312.9619v-6.9463h-1.603V304.502h1.603v-3.4737H62.06v3.4737h3.6508v1.5136H62.06v6.7237a1.7025,1.7025,0,0,0,1.9365,1.914,3.608,3.608,0,0,0,1.67-.4v1.4688a4.3016,4.3016,0,0,1-2.07.49A2.93,2.93,0,0,1,60.3457,312.9619Z"/><path class="cls-6" d="M69.3374,312.9619v-6.9463h-1.603V304.502h1.603v-3.4737h1.7144v3.4737h3.6508v1.5136H71.0518v6.7237a1.7025,1.7025,0,0,0,1.9365,1.914,3.608,3.608,0,0,0,1.67-.4v1.4688a4.3016,4.3016,0,0,1-2.07.49A2.93,2.93,0,0,1,69.3374,312.9619Z"/><path class="cls-6" d="M76.6821,310.3125v-.0449a6,6,0,0,1,11.9995-.044v.044a5.9756,5.9756,0,0,1-6.0332,6.0107A5.8961,5.8961,0,0,1,76.6821,310.3125Zm10.2408,0v-.0449a4.3558,4.3558,0,0,0-4.2745-4.4971,4.2486,4.2486,0,0,0-4.2075,4.4531v.044a4.3176,4.3176,0,0,0,4.252,4.4746A4.2464,4.2464,0,0,0,86.9229,310.3125Z"/><path class="cls-6" d="M91.7725,304.502h1.7143v2.0029a4.3592,4.3592,0,0,1,3.94-2.2481c2.7828,0,4.4078,1.87,4.4078,4.6084v7.1465h-1.7139v-6.7236c0-2.1367-1.1577-3.4727-3.1836-3.4727a3.3866,3.3866,0,0,0-3.4507,3.6065v6.59H91.7725Z"/><rect class="cls-8" x="11.4995" y="148.4802" width="108.6214" height="108.6214" rx="11.3147" ry="11.3147"/><path id="Button-2" data-name="Button" class="cls-6" d="M95.9286,175.6356H35.6918a6.0983,6.0983,0,0,0-6.0887,6.1078v42.0951a6.0982,6.0982,0,0,0,6.0887,6.1078H95.9286a6.0982,6.0982,0,0,0,6.0887-6.1078V181.7434A6.0983,6.0983,0,0,0,95.9286,175.6356Zm-.0048,41.67a6.5178,6.5178,0,0,1-6.5074,6.5277H44.144a6.5177,6.5177,0,0,1-6.5073-6.5277v-2.0841a5.7709,5.7709,0,0,0,5.5511,4.26H88.6934a2.9053,2.9053,0,0,0,2.8922-2.9011V188.9873A5.7812,5.7812,0,0,0,87.45,183.453h1.9664a6.5177,6.5177,0,0,1,6.5074,6.5278Z"/></g></g></svg>