<svg xmlns="http://www.w3.org/2000/svg" xmlns:xlink="http://www.w3.org/1999/xlink" width="2550" height="1440" viewBox="0 0 2550 1440"><defs><style>.a{fill:none;}.b{fill:#e0f7fa;}.c{clip-path:url(#a);}.d{opacity:0.5;}.e{fill:#fff;}</style><clipPath id="a"><rect class="a" width="2550" height="1440"/></clipPath></defs><title>NewProductSunrise</title><rect class="b" width="2550" height="1440"/><g class="c"><g class="d"><path class="e" d="M48.693,1578.531,301.849,1831.2q-2.762-1.65-5.51-3.3-2.724-1.64-5.433-3.282-2.686-1.628-5.36-3.261-2.649-1.617-5.287-3.24L47.87,1579.119C48.146,1578.927,48.419,1578.727,48.693,1578.531Zm-1.849,1.287,209.212,223.145q2.451,1.56,4.914,3.116,2.484,1.571,4.978,3.135,2.514,1.58,5.042,3.154,2.548,1.588,5.109,3.174L47.7,1579.236C47.418,1579.433,47.131,1579.625,46.844,1579.818Zm-1.074.712L233.533,1788.4q2.287,1.5,4.583,3,2.313,1.509,4.636,3.015,2.34,1.517,4.691,3.031,2.368,1.525,4.747,3.047L46.67,1579.937Q46.222,1580.237,45.77,1580.53Zm-1.178.754,167.337,192.721.15.1.15.1.15.1.15.1q2.135,1.443,4.278,2.883,2.159,1.45,4.326,2.9t4.374,2.912q2.207,1.465,4.423,2.927L45.585,1580.649C45.254,1580.862,44.925,1581.076,44.592,1581.284Zm5.239-3.587L334.55,1850.273q3.086,1.759,6.189,3.513,3.135,1.772,6.289,3.538,3.186,1.785,6.392,3.565,3.24,1.8,6.5,3.59L50.641,1577.086C50.373,1577.292,50.1,1577.494,49.831,1577.7Zm.975-.735,314.416,290.422q3.356,1.832,6.734,3.657,3.414,1.846,6.853,3.686,3.475,1.861,6.975,3.716,3.54,1.875,7.1,3.744L51.616,1576.319C51.346,1576.534,51.078,1576.751,50.806,1576.962Zm.975-.774,346.9,309.025q3.671,1.91,7.368,3.812,3.741,1.924,7.51,3.843,3.813,1.943,7.655,3.876,3.889,1.958,7.808,3.908L52.611,1575.516Q52.2,1575.855,51.781,1576.188Zm-8.4,5.835,148.782,178.428q2,1.39,4.018,2.785t4.073,2.808q2.056,1.413,4.129,2.83t4.186,2.852L44.391,1581.406Q43.887,1581.718,43.379,1582.023Zm5.478-3.61,257.478,255.452q2.844,1.686,5.7,3.37,2.888,1.7,5.79,3.393,2.931,1.712,5.878,3.417,2.976,1.722,5.967,3.44l-280-269.666Q49.264,1578.119,48.857,1578.413Zm-11.25,6.724,84.3,124.013q1.668,1.279,3.346,2.559t3.381,2.574q1.7,1.293,3.416,2.589t3.455,2.6l-96.509-135.03Q38.3,1584.8,37.607,1585.137Zm-6.493,2.785,45.53,85.4q1.488,1.215,2.982,2.431t3,2.44q1.512,1.224,3.029,2.449t3.055,2.459l-55.491-96C32.524,1587.385,31.821,1587.657,31.114,1587.922Zm-2.962,1.044L62.6,1661.729q1.442,1.2,2.888,2.4t2.908,2.409q1.461,1.208,2.929,2.416t2.949,2.423l-43.616-83.289C29.826,1588.4,28.992,1588.691,28.152,1588.966Zm5.459-2.029,57.556,98.13q1.541,1.233,3.088,2.466t3.114,2.478q1.567,1.244,3.143,2.488t3.17,2.5L35.412,1586.16Q34.516,1586.56,33.611,1586.937Zm-13.482,4.18,15.577,47.76q1.366,1.184,2.737,2.366t2.75,2.368q1.38,1.187,2.765,2.371t2.78,2.375l-22.85-58.133Q22.019,1590.718,20.129,1591.117Zm4.434-1.071,24.409,60.213q1.4,1.191,2.807,2.381t2.824,2.385q1.417,1.2,2.841,2.391t2.858,2.395L27.6,1589.14Q26.09,1589.623,24.563,1590.046Zm11.182-4.037L106.228,1697q1.6,1.253,3.207,2.508t3.237,2.52q1.631,1.266,3.27,2.534t3.3,2.548L37.313,1585.279Q36.533,1585.654,35.745,1586.009Zm5-2.485,114.665,150.718q1.823,1.332,3.654,2.666t3.7,2.685q1.864,1.35,3.744,2.7t3.79,2.724L41.886,1582.891C41.507,1583.106,41.126,1583.315,40.743,1583.524Zm-1.486.787,99.026,137.252q1.742,1.3,3.494,2.611t3.533,2.628q1.782,1.322,3.573,2.644t3.614,2.662L40.505,1583.653Q39.884,1583.989,39.257,1584.311Zm2.848-1.546L173.344,1747.2q1.908,1.362,3.829,2.725t3.878,2.745q1.958,1.381,3.928,2.765t3.98,2.786L43.173,1582.148C42.819,1582.358,42.462,1582.561,42.105,1582.765Zm10.673-7.389L435.393,1903.81q4.043,1.994,8.115,3.977,4.125,2.01,8.283,4.01,4.211,2.028,8.458,4.046,4.3,2.044,8.643,4.082L53.633,1574.662C53.35,1574.9,53.064,1575.139,52.778,1575.376Zm5.587-5.126,636.494,438.966q7.4,2.411,14.9,4.786,7.637,2.419,15.376,4.8,7.884,2.427,15.875,4.816,8.144,2.433,16.4,4.825L59.455,1569.122Q58.915,1569.693,58.365,1570.25Zm-4.56,4.264,422.14,348.7q4.484,2.08,9,4.153,4.583,2.1,9.2,4.187,4.688,2.118,9.415,4.223,4.8,2.136,9.635,4.259l-458.52-366.3C54.392,1574,54.1,1574.26,53.805,1574.514Zm17-20.922,1611.923,530.445q28.626-4.359,57.783-9.538,30.188-5.37,60.921-11.664,31.845-6.531,64.252-14.1,33.606-7.861,67.781-16.9L73.03,1549.235Q71.992,1551.437,70.8,1553.592Zm2.692-5.364L1990.033,2016.16q33.189-9.627,66.847-20.418,34.849-11.184,70.161-23.668,36.586-12.947,73.617-27.344,38.4-14.943,77.2-31.505,3.881-1.659,7.743-3.337,3.878-1.683,7.748-3.386,3.887-1.708,7.78-3.433,3.909-1.729,7.839-3.474L75.874,1542.333Q74.815,1545.312,73.5,1548.228Zm2.851-7.272L2380.892,1866.53q46.989-22.554,94.167-47.539,49.2-26.082,98.449-54.881,51.39-30.081,102.621-63.191,53.489-34.605,106.551-72.572L78.556,1532.862A74.858,74.858,0,0,1,76.346,1540.956Zm1.641-42.134L3859.09-22.29a2372.644,2372.644,0,0,0,35.57-261.065,2261.126,2261.126,0,0,0,5.368-272.282A2145.941,2145.941,0,0,0,3870.574-833.5a2035.449,2035.449,0,0,0-67.848-276.449L71.1,1480.994A75.839,75.839,0,0,1,77.987,1498.822Zm.947,32.145,2791.876,31.25q57.532-44.927,113.926-93.974,58.967-51.343,116.253-107.2,59.9-58.475,117.432-121.834,60.143-66.321,117.074-137.864L80.166,1519.779A75.66,75.66,0,0,1,78.934,1530.967ZM30.98,1446.073,1419.421-2379.936a2498.889,2498.889,0,0,0-242.766,69.238q-114.437,38.958-223.527,88.051-104.564,46.952-203.28,102.193-94.485,52.773-182.943,112.186L14.578,1441.969A75.231,75.231,0,0,1,30.98,1446.073Zm38.031,31.3L3718.741-1327.11a1920.518,1920.518,0,0,0-141.409-257.063,1865.609,1865.609,0,0,0-180.182-232.908,1841.567,1841.567,0,0,0-214.731-201.341,1850.553,1850.553,0,0,0-243.01-164.052L55.276,1460.858A75.225,75.225,0,0,1,69.011,1477.372Zm-57.4-35.74L434.558-1914.633q-77.254,58.543-148.655,121-68.222,59.583-130.948,122.045Q95.02-1611.992,40.163-1550.355q-52.426,58.822-100.218,119.029L-1.387,1441.533A75.969,75.969,0,0,1,11.612,1441.632Zm40.374,16.428L2728.73-2285.208a2028.517,2028.517,0,0,0-275.737-90.34,2100.908,2100.908,0,0,0-280.476-50.217,2185.555,2185.555,0,0,0-277.84-12.7,2276.073,2276.073,0,0,0-268.971,20.81L34.5,1447.491A76.1,76.1,0,0,1,47.92,1455C49.32,1455.981,50.673,1457.005,51.986,1458.06Zm28.226,59.112L3427.439,977.981q58.584-83.092,111.741-171.853,55.446-92.76,103.944-191.122,50.492-102.639,92.288-210.537,43.4-112.362,76.162-229.271L78.739,1502.182A76.1,76.1,0,0,1,80.212,1517.172Zm-11.829,40.489L1440.726,2107.9q22.62-1.015,45.679-2.514,23.8-1.551,48.05-3.645,25.047-2.168,50.571-4.947,26.379-2.878,53.25-6.445l-1567.9-536Q69.428,1556.02,68.383,1557.661Zm-53.845,34.42,8.21,35.466q1.336,1.18,2.677,2.358t2.689,2.359q1.349,1.182,2.7,2.361t2.713,2.361l-14.238-45.693Q16.926,1591.764,14.538,1592.081Zm41.433-19.507,515.785,392.031q5.646,2.261,11.354,4.506,5.8,2.28,11.662,4.543,5.957,2.3,11.982,4.579,6.122,2.316,12.312,4.612L56.936,1571.662Q56.457,1572.123,55.971,1572.574Zm-1.106,1.009,466.218,369.893q5.007,2.172,10.064,4.33,5.131,2.19,10.314,4.368,5.26,2.209,10.575,4.406,5.4,2.231,10.848,4.446l-507.1-388.278C55.478,1573.029,55.173,1573.308,54.865,1573.583Zm2.268-2.112,572.026,415.085q6.433,2.348,12.942,4.67,6.618,2.361,13.317,4.7,6.815,2.376,13.713,4.726,7.02,2.391,14.129,4.752l-625.1-434.939C57.818,1570.8,57.476,1571.138,57.133,1571.471Zm7.209-8.059,1028.3,532.341q14.74,1.718,29.736,3.249,15.389,1.572,31.052,2.94,16.083,1.4,32.462,2.584,16.83,1.212,33.979,2.179L65.908,1561.309Q65.14,1562.377,64.342,1563.412Zm1.9-2.567L1248.1,2108.1q18.116.774,36.572,1.255,18.992.494,38.348.662,19.929.169,40.245-.022,20.931-.2,42.273-.808L68.007,1558.244c-.484.745-.977,1.487-1.491,2.221C66.426,1560.593,66.332,1560.718,66.242,1560.845Zm-3.6,4.687,902.907,511.485q12.127,2.172,24.462,4.23,12.629,2.106,25.472,4.086,13.155,2.027,26.536,3.912,13.713,1.932,27.659,3.7L64.046,1563.793C63.585,1564.382,63.114,1564.96,62.639,1565.532Zm-1.544,1.8,798.82,487.908q10.164,2.379,20.481,4.679,10.541,2.351,21.246,4.619,10.942,2.318,22.062,4.546,11.371,2.28,22.931,4.463L62.371,1565.85Q61.741,1566.6,61.1,1567.328Zm-1.416,1.554L770.891,2032.3q8.611,2.43,17.351,4.811,8.913,2.427,17.958,4.8,9.231,2.424,18.6,4.791,9.564,2.415,19.277,4.769L60.852,1567.6Q60.272,1568.25,59.679,1568.882Zm-113.718-99.909-354.674-400.4q2.2,4.344,4.407,8.639,2.176,4.239,4.354,8.432,2.151,4.139,4.3,8.234,2.125,4.043,4.253,8.045l336.526,368.1C-54.595,1469.665-54.32,1469.316-54.039,1468.973Zm1.086-1.292-377.41-443.189q1.421,2.988,2.846,5.96,1.414,2.946,2.832,5.877,1.407,2.907,2.818,5.8,1.4,2.867,2.8,5.719.858,1.742,1.715,3.475t1.706,3.442q.849,1.709,1.7,3.409t1.69,3.377l358.391,407.214Q-53.413,1468.217-52.953,1467.681Zm-6.3,8.477-237.768-215.8q1.692,2.55,3.384,5.08,1.677,2.51,3.353,5,1.661,2.469,3.322,4.919,1.647,2.43,3.291,4.841l223.763,197C-59.7,1476.847-59.476,1476.5-59.255,1476.158Zm8.724-11.168L-477.24,917.875q2.529,6.249,5.082,12.434,2.511,6.086,5.045,12.111,2.493,5.93,5.008,11.8,2.475,5.781,4.969,11.506l405.545,500.4C-51.241,1465.746-50.887,1465.367-50.531,1464.99Zm-1.26,1.368L-453.208,974.677q2.412,5.459,4.84,10.866,2.392,5.328,4.8,10.607,2.373,5.2,4.761,10.356,2.355,5.081,4.723,10.117L-52.767,1467.46C-52.445,1467.088-52.118,1466.723-51.791,1466.358Zm-5.031,6.234-292.391-295.487q1.928,3.261,3.856,6.492,1.906,3.2,3.813,6.363,1.885,3.133,3.771,6.238,1.866,3.072,3.73,6.116l276.522,271.25C-57.291,1473.237-57.056,1472.915-56.822,1472.592Zm.87-1.176L-368.181,1144.28q2.019,3.574,4.036,7.111,1.994,3.5,3.987,6.959,1.971,3.422,3.942,6.812,1.949,3.352,3.9,6.673L-56.681,1472.4Q-56.319,1471.9-55.952,1471.416ZM7.345,1592.7l2.7,23.536q1.313,1.179,2.628,2.357t2.636,2.356q1.322,1.179,2.647,2.356t2.656,2.356l-7.151-33.445Q10.418,1592.582,7.345,1592.7Zm-65-118.939-273.4-266.6q1.848,3,3.693,5.964,1.827,2.94,3.653,5.853,1.809,2.884,3.615,5.744,1.79,2.832,3.577,5.639L-58.33,1474.75C-58.108,1474.42-57.885,1474.09-57.657,1473.762Zm8.518-10.21L-502.31,852.618q2.622,7.206,5.281,14.337,2.613,7,5.257,13.939,2.6,6.813,5.229,13.556,2.585,6.629,5.2,13.188l431.035,557.116C-49.924,1464.347-49.533,1463.948-49.139,1463.552Zm-5.893,6.664-332.977-361.955q2.111,3.932,4.221,7.822,2.085,3.843,4.17,7.645,2.061,3.757,4.121,7.474,2.037,3.675,4.073,7.311L-55.8,1471.218C-55.547,1470.882-55.292,1470.546-55.032,1470.216Zm25.478-20.842L-611.2-128.093q-3.207,27.795-5.7,55.115Q-619.31-46.56-621.08-20.6q-1.717,25.125-2.863,49.819-1.111,23.913-1.71,47.416L-33.638,1451.588Q-31.626,1450.417-29.554,1449.374Zm6.26-2.792L-554.847-436.963q-8.952,35.754-16.651,70.954-7.426,33.911-13.74,67.279-6.1,32.171-11.2,63.814-4.935,30.534-8.989,60.557l576.8,1623.278Q-26,1447.647-23.294,1446.582Zm-24.279,15.437L-528.151,776.947q2.682,8.394,5.41,16.692,2.678,8.139,5.4,16.187,2.673,7.9,5.389,15.708,2.667,7.665,5.375,15.25L-48.893,1463.3Q-48.24,1462.651-47.573,1462.019Zm13.216-10.011L-626.282,112.874q-.209,21.888.009,43.4.209,20.871.8,41.386.572,19.917,1.486,39.5.888,19.025,2.085,37.734l584.34,1179.14Q-35.982,1452.979-34.357,1452.008Zm19.411-8.162-404-2278.886q-20,45.908-37.767,91.384-17.065,43.629-32.156,86.758-14.508,41.414-27.268,82.287-12.277,39.28-23.009,78L-22.069,1446.113Q-18.56,1444.8-14.946,1443.846ZM-208.813-1224.528q-35.417,54.364-67.362,108.969-30.589,52.219-58.075,104.416-26.34,49.956-49.916,99.7L-13.294,1443.427a76.494,76.494,0,0,1,9.658-1.682l-127.28-2779.457Q-171.8-1281.417-208.813-1224.528Zm163.039,2684.9-508.4-771.9q2.657,9.861,5.386,19.6,2.673,9.539,5.415,18.961,2.683,9.231,5.431,18.349,2.689,8.934,5.437,17.759l485.218,698.613Q-46.539,1461.052-45.774,1460.373Zm7.64-5.952-581.731-1150.6q1.346,17.486,2.955,34.7,1.563,16.75,3.364,33.238,1.751,16.05,3.717,31.849,1.912,15.385,4.019,30.531l565.1,1022.116Q-39.439,1455.307-38.134,1454.421Zm-5.543,4.156L-579.494,583.628q2.513,11.763,5.137,23.37,2.565,11.344,5.229,22.539,2.6,10.947,5.3,21.747,2.635,10.566,5.356,20.991l513.024,787.811Q-44.572,1459.318-43.677,1458.577Zm2.5-1.975-561.239-999q2.142,14.241,4.447,28.265,2.247,13.68,4.646,27.157,2.34,13.15,4.817,26.112,2.418,12.654,4.963,25.129l540.247,893.993C-42.6,1457.69-41.888,1457.142-41.174,1456.6Zm-17.291,18.346L-313.672,1234.83q1.766,2.757,3.532,5.491,1.749,2.711,3.5,5.4,1.732,2.662,3.463,5.3,1.715,2.618,3.428,5.213l240.628,219.719C-58.906,1475.618-58.688,1475.282-58.465,1474.948Zm-9.939,21.5-77.292-38.01q1.268,1.447,2.537,2.891t2.535,2.877q1.264,1.432,2.532,2.862t2.531,2.849l66.39,29.452C-68.938,1498.394-68.678,1497.421-68.4,1496.45Zm-2.833,19.715-26.7-5.243.793.839.794.837.793.837.793.836,1.639,1.722q.818.858,1.635,1.714t1.633,1.708l1.63,1.7,17.218,1.8Q-71.274,1519.549-71.237,1516.165Zm1.061-11.855-51.366-18.823q1.236,1.358,2.475,2.712t2.475,2.7q1.236,1.347,2.475,2.692t2.476,2.681l40.858,12.356Q-70.544,1506.466-70.176,1504.31Zm-.7,20.119-15.408-1.286q1.222,1.271,2.445,2.535l2.441,2.522q1.219,1.255,2.438,2.508t2.433,2.494l6.984-.251A76.1,76.1,0,0,1-70.874,1524.429Zm1.557-24.416-64.229-27.835q1.251,1.4,2.5,2.8t2.5,2.785q1.249,1.387,2.5,2.774t2.5,2.762l53.493,20.236Q-69.72,1501.768-69.317,1500.013Zm-1.564,9.578-38.79-11.193q1.219,1.316,2.444,2.629t2.446,2.62q1.223,1.307,2.448,2.612t2.45,2.6l28.669,6.1Q-71.142,1512.278-70.881,1509.591Zm1.774,25.265-5.46.346q1.228,1.255,2.458,2.5l2.455,2.491,2.452,2.478.69.694A75.965,75.965,0,0,1-69.107,1534.856Zm55.077,55.616-.721,3.065q1.276,1.189,2.555,2.376t2.559,2.373q1.281,1.185,2.564,2.367t2.569,2.364l.682-10.708A75.241,75.241,0,0,1-14.03,1590.472Zm12.02,2.014-.429,12.424q1.293,1.183,2.587,2.364t2.594,2.361q1.3,1.181,2.6,2.358t2.608,2.356l-2-21.608A75.906,75.906,0,0,1-2.01,1592.486Zm-17.857-3.737.538.506q1.269,1.189,2.537,2.376l.488-1.769Q-18.093,1589.352-19.867,1588.749Zm-47.62-95.307-90.513-49.2q1.286,1.5,2.572,2.991t2.568,2.974q1.281,1.48,2.564,2.958t2.562,2.941l79.479,39.806C-68.014,1495.087-67.756,1494.263-67.487,1493.442Zm5.877-13.374L-250.9,1326.709q1.511,2.076,3.021,4.14t3,4.087q1.489,2.024,2.978,4.037t2.959,3.988L-62.265,1481.27C-62.049,1480.868-61.833,1480.467-61.61,1480.068Zm1.57-2.663-221.016-193.382q1.626,2.372,3.251,4.724,1.611,2.335,3.221,4.652,1.6,2.3,3.194,4.583,1.584,2.265,3.166,4.515L-60.7,1478.48C-60.482,1478.12-60.26,1477.763-60.04,1477.405Zm-2.359,4.112-174.194-135.4q1.463,1.957,2.926,3.9t2.906,3.859q1.444,1.912,2.889,3.815t2.872,3.772L-63.065,1482.8Q-62.738,1482.158-62.4,1481.517Zm1.575-2.814L-265.7,1306.073q1.565,2.211,3.128,4.41,1.551,2.183,3.1,4.35,1.54,2.152,3.081,4.292,1.528,2.124,3.057,4.234l191.856,156.478C-61.262,1479.458-61.046,1479.08-60.824,1478.7Zm-2.377,4.364-159.513-118.611q1.421,1.854,2.841,3.7t2.827,3.66q1.407,1.815,2.813,3.623t2.8,3.586l147.555,105.429Q-63.546,1483.756-63.2,1483.067Zm-2.509,5.519-117.416-74.262q1.326,1.612,2.653,3.22t2.646,3.2q1.318,1.59,2.639,3.174t2.632,3.152l106.114,63.388Q-66.089,1489.518-65.71,1488.586Zm1.693-3.847-145.192-102.877q1.385,1.764,2.77,3.519t2.757,3.485q1.372,1.729,2.746,3.454t2.734,3.422L-64.71,1486.25Q-64.372,1485.492-64.017,1484.739Zm-2.569,6.115-103.879-61.293q1.3,1.551,2.608,3.1t2.6,3.077q1.3,1.53,2.6,3.057t2.591,3.038l92.733,51.155Q-66.977,1491.916-66.586,1490.854Zm1.735-4.288-131.177-88.114q1.353,1.683,2.707,3.36t2.7,3.331q1.342,1.656,2.688,3.305t2.679,3.279l119.694,76.508Q-65.218,1487.4-64.851,1486.566Z"/></g></g></svg>