<svg xmlns="http://www.w3.org/2000/svg" xmlns:xlink="http://www.w3.org/1999/xlink" width="1975.2" height="429.16" viewBox="0 0 1975.2 429.16"><defs><style>.b8a2409f-9668-436a-82d4-9e805249be43{fill:none;}.b29287f2-ea19-488e-bd87-971d22a66ce7{fill:#546e7a;}.a94fc298-be94-4696-a43a-0a67ae46e66f{clip-path:url(#551cfb8a-4f85-4abb-9ed5-6e1116fcce0d);}.df85dc9c-f0f2-4660-990b-7afff693df63{fill:#607d8b;}</style><clipPath id="551cfb8a-4f85-4abb-9ed5-6e1116fcce0d"><rect class="b8a2409f-9668-436a-82d4-9e805249be43" width="1920" height="400"/></clipPath></defs><title>Asset 2</title><g id="f057e1af-51c2-4544-aafd-9085108fd788" data-name="Layer 2"><g id="5d3ace37-71a3-412d-99c2-1b96e11393f7" data-name="Layer 1"><g id="6cd194ff-6d1e-475d-8d7a-986dd1d4c751" data-name="Intro"><rect class="b29287f2-ea19-488e-bd87-971d22a66ce7" width="1920" height="400"/><g class="a94fc298-be94-4696-a43a-0a67ae46e66f"><g id="6b48d16a-9f97-4df7-853a-1c63e4a87c79" data-name="surface1"><path class="df85dc9c-f0f2-4660-990b-7afff693df63" d="M1868.43,148.59c-26.52,0-49,15.87-59.75,38.29-5.74-3.95-12.39-6.83-19.86-6.83-18.94,0-34.06,15-35.11,33.68-19,6.83-32.73,24.51-32.73,45.76a49.13,49.13,0,0,0,49.09,49.1h159.85a45.37,45.37,0,0,0,45.28-45.29c0-23.13-17.76-41.52-40.2-44.17.08-1.23.32-2.38.32-3.65A67,67,0,0,0,1868.43,148.59Zm0,10.17a56.66,56.66,0,0,1,56.72,56.72,55.49,55.49,0,0,1-.48,7l-.79,5.72h6a35.12,35.12,0,0,1,0,70.23H1770.07a39,39,0,0,1-10.32-76.58l3.81-1-.16-4.13c0-.71,0-1.07,0-1.11a25.51,25.51,0,0,1,43.54-18l5.56,5.72,2.7-7.46A56.87,56.87,0,0,1,1868.43,158.76Z"/></g><g id="3c35136a-3957-4303-8e9f-15cf50c0ea42" data-name="surface1"><path class="df85dc9c-f0f2-4660-990b-7afff693df63" d="M1133.37,10.21a20,20,0,0,0-20,20V220a20,20,0,0,0,20,20h104.9V230h-104.9a9.91,9.91,0,0,1-10-10V30.19a9.91,9.91,0,0,1,10-10h139.87a9.91,9.91,0,0,1,10,10v45h10V30.19a20,20,0,0,0-20-20Zm4.06,20a5,5,0,0,0-4.06,5V200a5,5,0,0,0,5,5h99.9V195h-94.91V40.18h119.89v35h10v-40a5,5,0,0,0-5-5H1137.43Zm120.82,50a15.06,15.06,0,0,0-15,15V240a15.06,15.06,0,0,0,15,15h89.91a15.07,15.07,0,0,0,15-15V95.12a15.06,15.06,0,0,0-15-15Zm0,10h89.91a4.91,4.91,0,0,1,5,5V240a4.91,4.91,0,0,1-5,5h-89.91a4.91,4.91,0,0,1-5-5V95.12A4.9,4.9,0,0,1,1258.25,90.13Zm9,10a5,5,0,0,0-4,5V215a5,5,0,0,0,5,5h69.93a5,5,0,0,0,5-5V105.12a5,5,0,0,0-5-5H1267.3Zm5.94,10h59.94V210h-59.94ZM1203.3,210a7.5,7.5,0,1,0,7.5,7.49A7.5,7.5,0,0,0,1203.3,210Zm99.91,15a7.49,7.49,0,1,0,7.49,7.49A7.49,7.49,0,0,0,1303.21,225Z"/></g><g id="713e4fc7-22c1-47e7-b50d-6893efefdb86" data-name="surface1"><path class="df85dc9c-f0f2-4660-990b-7afff693df63" d="M155.13,214.21a5.61,5.61,0,0,0-.62.16,5,5,0,0,0-3.9,5v25h10v-14.2a5.08,5.08,0,0,0,0-.78v-10a5,5,0,0,0-1.56-3.81A5.06,5.06,0,0,0,155.13,214.21Zm30,0a5.61,5.61,0,0,0-.62.16,5,5,0,0,0-3.9,5v25h10v-14.2a5.08,5.08,0,0,0,0-.78v-10a5,5,0,0,0-1.56-3.81A5.06,5.06,0,0,0,185.1,214.21Zm30,0a6.25,6.25,0,0,0-.62.16,5,5,0,0,0-3.9,5v25h10v-14.2a5.08,5.08,0,0,0,0-.78v-10a5,5,0,0,0-1.56-3.81A5.06,5.06,0,0,0,215.07,214.21Zm30,0a6.25,6.25,0,0,0-.62.16,5,5,0,0,0-3.9,5v25h10v-14.2a5.08,5.08,0,0,0,0-.78v-10a5,5,0,0,0-1.56-3.81A5.06,5.06,0,0,0,245,214.21Zm30,0a5.8,5.8,0,0,0-.63.16,5,5,0,0,0-3.9,5v25h10v-14.2a5.08,5.08,0,0,0,0-.78v-10a5,5,0,0,0-1.56-3.81A5,5,0,0,0,275,214.21ZM142,249.34a16.53,16.53,0,0,0-16.39,16.39v147A16.54,16.54,0,0,0,142,429.16h147a16.53,16.53,0,0,0,16.39-16.39v-147a16.52,16.52,0,0,0-16.39-16.39Zm0,10h147a6.36,6.36,0,0,1,6.4,6.4v147a6.37,6.37,0,0,1-6.4,6.4H142a6.37,6.37,0,0,1-6.4-6.4v-147A6.36,6.36,0,0,1,142,259.33Zm-47.76,15a5,5,0,1,0,1.4,10h25v-10H94.26Zm216.19,0v10h25a5,5,0,1,0,0-10Zm-140.8,25a5,5,0,0,0-4.06,5v69.93a5,5,0,0,0,5,5H260.5a5,5,0,0,0,5-5V304.28a5,5,0,0,0-5-5H169.65Zm-75.39,5a5,5,0,1,0,1.4,10h25v-10H94.26Zm216.19,0v10h25a5,5,0,1,0,0-10Zm-134.87,5H255.5v59.94H175.58Zm-81.32,25a5,5,0,1,0,1.4,10h25v-10H94.26Zm216.19,0v10h25a5,5,0,1,0,0-10Zm-216.19,30a5,5,0,1,0,1.4,10h25v-10H94.26Zm216.19,0v10h25a5,5,0,1,0,0-10Zm0,30v10h25a5,5,0,1,0,0-10Z"/></g></g></g></g></g></svg>