<svg xmlns="http://www.w3.org/2000/svg" xmlns:xlink="http://www.w3.org/1999/xlink" width="1920" height="900" viewBox="0 0 1920 900"><defs><style>.a{fill:none;}.b{fill:#37474f;}.c{clip-path:url(#a);}.d{opacity:0.25;}.e{fill:#00acc1;}</style><clipPath id="a"><rect class="a" width="1920" height="900"/></clipPath></defs><title>AscendingLines</title><rect class="b" width="1920" height="900"/><g class="c"><g class="d"><path class="e" d="M1809.963,353.6l.012-32.2a4.81,4.81,0,1,0-5,.007l-.012,32.2a4.81,4.81,0,1,0,5-.007Zm-2.494-38.452a2.167,2.167,0,1,1-2.167,2.167A2.168,2.168,0,0,1,1807.469,315.143Z"/></g><g class="d"><path class="e" d="M927.063,641.1l.012-32.2a4.81,4.81,0,1,0-5,.007l-.012,32.2a4.81,4.81,0,1,0,5-.007Zm-2.493,6.262a2.167,2.167,0,1,1,2.167-2.167A2.167,2.167,0,0,1,924.57,647.357Z"/></g><g class="d"><path class="e" d="M907.449,441.1V258.9a4.81,4.81,0,1,0-5,0V441.1a4.81,4.81,0,1,0,5,0Zm-2.5-188.456a2.167,2.167,0,1,1-2.168,2.167A2.167,2.167,0,0,1,904.95,252.643Zm0,194.714a2.167,2.167,0,1,1,2.167-2.167A2.167,2.167,0,0,1,904.95,447.357Z"/></g><g class="d"><path class="e" d="M1064.409,495.1V412.9a4.81,4.81,0,1,0-5,0v82.2a4.81,4.81,0,1,0,5,0Zm-2.5-88.456a2.167,2.167,0,1,1-2.168,2.167A2.167,2.167,0,0,1,1061.91,406.643Zm0,94.714a2.167,2.167,0,1,1,2.167-2.167A2.167,2.167,0,0,1,1061.91,501.357Z"/></g><g class="d"><path class="e" d="M985.923,701.1l.012-32.2a4.81,4.81,0,1,0-5,.007l-.012,32.2a4.81,4.81,0,1,0,5-.007Zm-2.493-38.452a2.167,2.167,0,1,1-2.168,2.167A2.167,2.167,0,0,1,983.43,662.643Zm0,44.714a2.167,2.167,0,1,1,2.167-2.167A2.167,2.167,0,0,1,983.43,707.357Z"/></g><g class="d"><path class="e" d="M1005.549,361.1V278.9a4.81,4.81,0,1,0-5,0v82.2a4.81,4.81,0,1,0,5,0Zm-2.5,6.258a2.167,2.167,0,1,1,2.167-2.167A2.167,2.167,0,0,1,1003.05,367.357Z"/></g><g class="d"><path class="e" d="M966.309,641.1V458.9a4.81,4.81,0,1,0-5,0V641.1a4.81,4.81,0,1,0,5,0Zm-2.5,6.258a2.167,2.167,0,1,1,2.167-2.167A2.167,2.167,0,0,1,963.81,647.357Z"/></g><g class="d"><path class="e" d="M1790.349,628.6V446.4a4.81,4.81,0,1,0-5,0V628.6a4.81,4.81,0,1,0,5,0Zm-2.5,6.258a2.167,2.167,0,1,1,2.168-2.167A2.167,2.167,0,0,1,1787.849,634.857Z"/></g><g class="d"><path class="e" d="M1849.209,673.1V490.9a4.81,4.81,0,1,0-5,0V673.1a4.81,4.81,0,1,0,5,0Zm-2.5,6.258a2.167,2.167,0,1,1,2.168-2.167A2.167,2.167,0,0,1,1846.709,679.357Z"/></g><g class="d"><path class="e" d="M1868.823,299.1l.012-32.2a4.81,4.81,0,1,0-5,.007l-.012,32.2a4.81,4.81,0,1,0,5-.007Zm-2.494-38.452a2.167,2.167,0,1,1-2.167,2.167A2.168,2.168,0,0,1,1866.329,260.643Z"/></g><g class="d"><path class="e" d="M1829.589,357.1V274.9a4.81,4.81,0,1,0-5,0v82.2a4.81,4.81,0,1,0,5,0Zm-2.5-88.456a2.167,2.167,0,1,1-2.167,2.167A2.168,2.168,0,0,1,1827.089,268.643Zm0,94.714a2.167,2.167,0,1,1,2.168-2.167A2.167,2.167,0,0,1,1827.089,363.357Z"/></g><g class="d"><path class="e" d="M946.689,721.1V638.9a4.81,4.81,0,1,0-5,0v82.2a4.81,4.81,0,1,0,5,0Zm-2.5-88.456a2.167,2.167,0,1,1-2.168,2.167A2.167,2.167,0,0,1,944.19,632.643Zm0,94.714a2.167,2.167,0,1,1,2.167-2.167A2.167,2.167,0,0,1,944.19,727.357Z"/></g><g class="d"><path class="e" d="M1044.783,389.1l.012-32.2a4.81,4.81,0,1,0-5,.007l-.012,32.2a4.81,4.81,0,1,0,5-.007Zm-2.493-38.452a2.167,2.167,0,1,1-2.168,2.167A2.167,2.167,0,0,1,1042.29,350.643Z"/></g><g class="d"><path class="e" d="M1908.069,831.1V648.9a4.81,4.81,0,1,0-5,0V831.1a4.81,4.81,0,1,0,5,0Zm-2.5-188.456a2.167,2.167,0,1,1-2.167,2.167A2.168,2.168,0,0,1,1905.569,642.643Zm0,194.714a2.167,2.167,0,1,1,2.168-2.167A2.167,2.167,0,0,1,1905.569,837.357Z"/></g><g class="d"><path class="e" d="M1888.449,291.1V208.9a4.81,4.81,0,1,0-5,0v82.2a4.81,4.81,0,1,0,5,0Zm-2.5,6.258a2.167,2.167,0,1,1,2.168-2.167A2.167,2.167,0,0,1,1885.949,297.357Z"/></g><g class="d"><path class="e" d="M1319.469,771.1V588.9a4.81,4.81,0,1,0-5,0V771.1a4.81,4.81,0,1,0,5,0Zm-2.5-188.456a2.167,2.167,0,1,1-2.167,2.167A2.168,2.168,0,0,1,1316.969,582.643Zm0,194.714a2.167,2.167,0,1,1,2.168-2.167A2.167,2.167,0,0,1,1316.969,777.357Z"/></g><g class="d"><path class="e" d="M1084.029,673.1V490.9a4.81,4.81,0,1,0-5,0V673.1a4.81,4.81,0,1,0,5,0Zm-2.5,6.258a2.167,2.167,0,1,1,2.167-2.167A2.167,2.167,0,0,1,1081.53,679.357Z"/></g><g class="d"><path class="e" d="M1358.709,614.432v-82.2a4.811,4.811,0,1,0-5,0v82.2a4.81,4.81,0,1,0,5,0Zm-2.5-88.456a2.168,2.168,0,1,1-2.167,2.167A2.168,2.168,0,0,1,1356.209,525.976Zm0,94.715a2.168,2.168,0,1,1,2.168-2.168A2.168,2.168,0,0,1,1356.209,620.691Z"/></g><g class="d"><path class="e" d="M1594.149,341.1V258.9a4.81,4.81,0,1,0-5,0v82.2a4.81,4.81,0,1,0,5,0Zm-2.5-88.456a2.167,2.167,0,1,1-2.167,2.167A2.168,2.168,0,0,1,1591.649,252.643Zm0,94.714a2.167,2.167,0,1,1,2.168-2.167A2.167,2.167,0,0,1,1591.649,347.357Z"/></g><g class="d"><path class="e" d="M1633.383,476.1l.012-32.2a4.81,4.81,0,1,0-5,.007l-.012,32.2a4.81,4.81,0,1,0,5-.007Zm-2.494-38.452a2.167,2.167,0,1,1-2.167,2.167A2.168,2.168,0,0,1,1630.889,437.643Zm0,44.714a2.167,2.167,0,1,1,2.168-2.167A2.167,2.167,0,0,1,1630.889,482.357Z"/></g><g class="d"><path class="e" d="M1613.769,811.1V628.9a4.81,4.81,0,1,0-5,0V811.1a4.81,4.81,0,1,0,5,0Zm-2.5,6.258a2.167,2.167,0,1,1,2.168-2.167A2.167,2.167,0,0,1,1611.269,817.357Z"/></g><g class="d"><path class="e" d="M1339.083,497.1l.012-32.2a4.81,4.81,0,1,0-5,.007l-.012,32.2a4.81,4.81,0,1,0,5-.007Zm-2.494,6.262a2.167,2.167,0,1,1,2.168-2.167A2.167,2.167,0,0,1,1336.589,503.357Z"/></g><g class="d"><path class="e" d="M1299.849,559.1V476.9a4.81,4.81,0,1,0-5,0v82.2a4.81,4.81,0,1,0,5,0Zm-2.5-88.456a2.167,2.167,0,1,1-2.167,2.167A2.167,2.167,0,0,1,1297.349,470.643Zm0,94.714a2.167,2.167,0,1,1,2.168-2.167A2.167,2.167,0,0,1,1297.349,565.357Z"/></g><g class="d"><path class="e" d="M1554.909,771.1V588.9a4.81,4.81,0,1,0-5,0V771.1a4.81,4.81,0,1,0,5,0Zm-2.5-188.456a2.167,2.167,0,1,1-2.167,2.167A2.168,2.168,0,0,1,1552.409,582.643Zm0,194.714a2.167,2.167,0,1,1,2.168-2.167A2.167,2.167,0,0,1,1552.409,777.357Z"/></g><g class="d"><path class="e" d="M1378.329,391.1V208.9a4.81,4.81,0,1,0-5,0V391.1a4.81,4.81,0,1,0,5,0Zm-2.5,6.258A2.167,2.167,0,1,1,1378,395.19,2.167,2.167,0,0,1,1375.829,397.357Z"/></g><g class="d"><path class="e" d="M1456.8,567.1l.012-32.2a4.81,4.81,0,1,0-5,.007l-.012,32.2a4.81,4.81,0,1,0,5-.007Z"/></g><g class="d"><path class="e" d="M1496.049,695.1V512.9a4.81,4.81,0,1,0-5,0V695.1a4.81,4.81,0,1,0,5,0Zm-2.5,6.258a2.167,2.167,0,1,1,2.168-2.167A2.167,2.167,0,0,1,1493.549,701.357Z"/></g><g class="d"><path class="e" d="M1397.943,477.762l.012-32.2a4.811,4.811,0,1,0-5,.006l-.012,32.2a4.81,4.81,0,1,0,5-.007Zm-2.494-38.453a2.168,2.168,0,1,1-2.167,2.168A2.168,2.168,0,0,1,1395.449,439.309Zm0,44.715a2.168,2.168,0,1,1,2.168-2.167A2.167,2.167,0,0,1,1395.449,484.024Z"/></g><g class="d"><path class="e" d="M1515.663,359.1l.012-32.2a4.81,4.81,0,1,0-5,.007l-.012,32.2a4.81,4.81,0,1,0,5-.007Zm-2.494-38.452A2.167,2.167,0,1,1,1511,322.81,2.168,2.168,0,0,1,1513.169,320.643Zm0,44.714a2.167,2.167,0,1,1,2.168-2.167A2.167,2.167,0,0,1,1513.169,365.357Z"/></g><g class="d"><path class="e" d="M1476.429,477.1V394.9a4.81,4.81,0,1,0-5,0v82.2a4.81,4.81,0,1,0,5,0Zm-2.5-88.456a2.167,2.167,0,1,1-2.167,2.167A2.168,2.168,0,0,1,1473.929,388.643Zm0,94.714a2.167,2.167,0,1,1,2.168-2.167A2.167,2.167,0,0,1,1473.929,483.357Z"/></g><g class="d"><path class="e" d="M1417.569,751.1V668.9a4.81,4.81,0,1,0-5,0v82.2a4.81,4.81,0,1,0,5,0Zm-2.5-88.456a2.167,2.167,0,1,1-2.167,2.167A2.168,2.168,0,0,1,1415.069,662.643Zm0,94.714a2.167,2.167,0,1,1,2.168-2.167A2.167,2.167,0,0,1,1415.069,757.357Z"/></g><g class="d"><path class="e" d="M1535.289,291.1V208.9a4.81,4.81,0,1,0-5,0v82.2a4.81,4.81,0,1,0,5,0Zm-2.5-88.456a2.167,2.167,0,1,1-2.167,2.167A2.168,2.168,0,0,1,1532.789,202.643Zm0,94.714a2.167,2.167,0,1,1,2.168-2.167A2.167,2.167,0,0,1,1532.789,297.357Z"/></g><g class="d"><path class="e" d="M1437.189,821.1V638.9a4.81,4.81,0,1,0-5,0V821.1a4.81,4.81,0,1,0,5,0Zm-2.5-188.456a2.167,2.167,0,1,1-2.167,2.167A2.168,2.168,0,0,1,1434.689,632.643Zm0,194.714a2.167,2.167,0,1,1,2.168-2.167A2.167,2.167,0,0,1,1434.689,827.357Z"/></g><g class="d"><path class="e" d="M1574.523,408.6l.012-32.2a4.81,4.81,0,1,0-5,.007l-.012,32.2a4.81,4.81,0,1,0,5-.007Zm-2.494-38.452a2.167,2.167,0,1,1-2.167,2.167A2.168,2.168,0,0,1,1572.029,370.143Zm0,44.714a2.167,2.167,0,1,1,2.168-2.167A2.167,2.167,0,0,1,1572.029,414.857Z"/></g><g class="d"><path class="e" d="M1731.489,841.1V658.9a4.81,4.81,0,1,0-5,0V841.1a4.81,4.81,0,1,0,5,0Zm-2.5,6.258a2.167,2.167,0,1,1,2.168-2.167A2.167,2.167,0,0,1,1728.989,847.357Z"/></g><g class="d"><path class="e" d="M1142.889,644.432v-182.2a4.81,4.81,0,1,0-5,0v182.2a4.81,4.81,0,1,0,5,0Zm-2.5,6.259a2.168,2.168,0,1,1,2.167-2.168A2.168,2.168,0,0,1,1140.39,650.691Z"/></g><g class="d"><path class="e" d="M1751.1,416.1l.012-32.2a4.81,4.81,0,1,0-5,.007l-.012,32.2a4.81,4.81,0,1,0,5-.007Zm-2.494-38.452a2.167,2.167,0,1,1-2.167,2.167A2.168,2.168,0,0,1,1748.609,377.643Zm0,44.714a2.167,2.167,0,1,1,2.168-2.167A2.167,2.167,0,0,1,1748.609,422.357Z"/></g><g class="d"><path class="e" d="M1162.5,331.1l.012-32.2a4.81,4.81,0,1,0-5,.007l-.012,32.2a4.81,4.81,0,1,0,5-.007Zm-2.493-38.452a2.167,2.167,0,1,1-2.168,2.167A2.167,2.167,0,0,1,1160.01,292.643Zm0,44.714a2.167,2.167,0,1,1,2.167-2.167A2.167,2.167,0,0,1,1160.01,337.357Z"/></g><g class="d"><path class="e" d="M1182.129,437.765v-82.2a4.81,4.81,0,1,0-5,0v82.2a4.81,4.81,0,1,0,5,0Zm-2.5-88.456a2.168,2.168,0,1,1-2.168,2.168A2.167,2.167,0,0,1,1179.63,349.309Zm0,94.715a2.168,2.168,0,1,1,2.167-2.167A2.167,2.167,0,0,1,1179.63,444.024Z"/></g><g class="d"><path class="e" d="M1103.643,417.1l.012-32.2a4.81,4.81,0,1,0-5,.007l-.012,32.2a4.81,4.81,0,1,0,5-.007Zm-2.493-38.452a2.167,2.167,0,1,1-2.168,2.167A2.167,2.167,0,0,1,1101.15,378.643Zm0,44.714a2.167,2.167,0,1,1,2.167-2.167A2.167,2.167,0,0,1,1101.15,423.357Z"/></g><g class="d"><path class="e" d="M1280.223,503.1l.012-32.2a4.81,4.81,0,1,0-5,.007l-.012,32.2a4.81,4.81,0,1,0,5-.007Zm-2.494,6.262a2.167,2.167,0,1,1,2.168-2.167A2.167,2.167,0,0,1,1277.729,509.357Z"/></g><g class="d"><path class="e" d="M1770.729,291.1V208.9a4.81,4.81,0,1,0-5,0v82.2a4.81,4.81,0,1,0,5,0Zm-2.5-88.456a2.167,2.167,0,1,1-2.167,2.167A2.168,2.168,0,0,1,1768.229,202.643Zm0,94.714a2.167,2.167,0,1,1,2.168-2.167A2.167,2.167,0,0,1,1768.229,297.357Z"/></g><g class="d"><path class="e" d="M1123.269,711.1V628.9a4.81,4.81,0,1,0-5,0v82.2a4.81,4.81,0,1,0,5,0Zm-2.5-88.456a2.167,2.167,0,1,1-2.168,2.167A2.167,2.167,0,0,1,1120.77,622.643Zm0,94.714a2.167,2.167,0,1,1,2.167-2.167A2.167,2.167,0,0,1,1120.77,717.357Z"/></g><g class="d"><path class="e" d="M1240.989,615.1V532.9a4.81,4.81,0,1,0-5,0v82.2a4.81,4.81,0,1,0,5,0Zm-2.5-88.456a2.167,2.167,0,1,1-2.167,2.167A2.167,2.167,0,0,1,1238.489,526.643Zm0,94.714a2.167,2.167,0,1,1,2.168-2.167A2.167,2.167,0,0,1,1238.489,621.357Z"/></g><g class="d"><path class="e" d="M1711.869,491.1V408.9a4.81,4.81,0,1,0-5,0v82.2a4.81,4.81,0,1,0,5,0Zm-2.5,6.258a2.167,2.167,0,1,1,2.168-2.167A2.167,2.167,0,0,1,1709.369,497.357Z"/></g><g class="d"><path class="e" d="M1653.009,593.6V511.4a4.81,4.81,0,1,0-5,0v82.2a4.81,4.81,0,1,0,5,0Zm-2.5,6.258a2.167,2.167,0,1,1,2.168-2.167A2.167,2.167,0,0,1,1650.509,599.857Z"/></g><g class="d"><path class="e" d="M1672.629,791.1V608.9a4.81,4.81,0,1,0-5,0V791.1a4.81,4.81,0,1,0,5,0Zm-2.5-188.456a2.167,2.167,0,1,1-2.167,2.167A2.168,2.168,0,0,1,1670.129,602.643Zm0,194.714a2.167,2.167,0,1,1,2.168-2.167A2.167,2.167,0,0,1,1670.129,797.357Z"/></g><g class="d"><path class="e" d="M1260.609,491.1V308.9a4.81,4.81,0,1,0-5,0V491.1a4.81,4.81,0,1,0,5,0Zm-2.5,6.258a2.167,2.167,0,1,1,2.168-2.167A2.167,2.167,0,0,1,1258.109,497.357Z"/></g><g class="d"><path class="e" d="M1201.749,851.1V668.9a4.81,4.81,0,1,0-5,0V851.1a4.81,4.81,0,1,0,5,0Zm-2.5,6.258a2.167,2.167,0,1,1,2.167-2.167A2.167,2.167,0,0,1,1199.25,857.357Z"/></g><g class="d"><path class="e" d="M1692.243,566.1l.012-32.2a4.81,4.81,0,1,0-5,.007l-.012,32.2a4.81,4.81,0,1,0,5-.007Zm-2.494-38.452a2.167,2.167,0,1,1-2.167,2.167A2.168,2.168,0,0,1,1689.749,527.643Zm0,44.714a2.167,2.167,0,1,1,2.168-2.167A2.167,2.167,0,0,1,1689.749,572.357Z"/></g><g class="d"><path class="e" d="M1221.363,671.1l.012-32.2a4.81,4.81,0,1,0-5,.007l-.012,32.2a4.81,4.81,0,1,0,5-.007Zm-2.494,6.262a2.167,2.167,0,1,1,2.168-2.167A2.167,2.167,0,0,1,1218.869,677.357Z"/></g><g class="d"><path class="e" d="M1025.169,691.1V508.9a4.81,4.81,0,1,0-5,0V691.1a4.81,4.81,0,1,0,5,0Zm-2.5-188.456a2.167,2.167,0,1,1-2.168,2.167A2.167,2.167,0,0,1,1022.67,502.643Zm0,194.714a2.167,2.167,0,1,1,2.167-2.167A2.167,2.167,0,0,1,1022.67,697.357Z"/></g><g class="d"><path class="e" d="M887.829,631.1V548.9a4.81,4.81,0,1,0-5,0v82.2a4.81,4.81,0,1,0,5,0Zm-2.5,6.258a2.167,2.167,0,1,1,2.167-2.167A2.168,2.168,0,0,1,885.33,637.357Z"/></g><g class="d"><path class="e" d="M573.9,681.1l.013-32.2a4.81,4.81,0,1,0-5,.007l-.013,32.2a4.811,4.811,0,1,0,5-.007Zm-2.493-38.452a2.167,2.167,0,1,1-2.168,2.167A2.167,2.167,0,0,1,571.41,642.643Zm0,44.714a2.167,2.167,0,1,1,2.167-2.167A2.168,2.168,0,0,1,571.41,687.357Z"/></g><g class="d"><path class="e" d="M554.29,771.1V588.9a4.81,4.81,0,1,0-5,0V771.1a4.81,4.81,0,1,0,5,0Zm-2.5-188.456a2.167,2.167,0,1,1-2.168,2.167A2.167,2.167,0,0,1,551.79,582.643Zm0,194.714a2.167,2.167,0,1,1,2.167-2.167A2.168,2.168,0,0,1,551.79,777.357Z"/></g><g class="d"><path class="e" d="M534.669,691.1V608.9a4.809,4.809,0,1,0-5,0v82.2a4.811,4.811,0,1,0,5,0Zm-2.5-88.456A2.167,2.167,0,1,1,530,604.81,2.167,2.167,0,0,1,532.17,602.643Z"/></g><g class="d"><path class="e" d="M613.15,851.1V668.9a4.81,4.81,0,1,0-5,0V851.1a4.81,4.81,0,1,0,5,0Zm-2.5,6.258a2.167,2.167,0,1,1,2.167-2.167A2.168,2.168,0,0,1,610.65,857.357Z"/></g><g class="d"><path class="e" d="M593.529,431.1V348.9a4.809,4.809,0,1,0-5,0v82.2a4.811,4.811,0,1,0,5,0Zm-2.5-88.456a2.167,2.167,0,1,1-2.168,2.167A2.167,2.167,0,0,1,591.03,342.643Zm0,94.714a2.167,2.167,0,1,1,2.167-2.167A2.168,2.168,0,0,1,591.03,437.357Z"/></g><g class="d"><path class="e" d="M515.044,415.381l.012-32.2a4.811,4.811,0,1,0-5,.006l-.013,32.2a4.811,4.811,0,1,0,5-.007Zm-2.494,6.262a2.168,2.168,0,1,1,2.167-2.167A2.168,2.168,0,0,1,512.55,421.643Z"/></g><g class="d"><path class="e" d="M495.43,411.1V228.9a4.81,4.81,0,1,0-5,0V411.1a4.81,4.81,0,1,0,5,0Zm-2.5,6.258a2.167,2.167,0,1,1,2.167-2.167A2.168,2.168,0,0,1,492.93,417.357Z"/></g><g class="d"><path class="e" d="M416.949,507.765v-82.2a4.809,4.809,0,1,0-5,0v82.2a4.811,4.811,0,1,0,5,0Zm-2.5-88.456a2.168,2.168,0,1,1-2.168,2.168A2.167,2.167,0,0,1,414.45,419.309Zm0,94.715a2.168,2.168,0,1,1,2.167-2.167A2.168,2.168,0,0,1,414.45,514.024Z"/></g><g class="d"><path class="e" d="M397.324,416.81l.012-32.2a4.81,4.81,0,1,0-5,.007l-.013,32.2a4.812,4.812,0,1,0,5-.006Z"/></g><g class="d"><path class="e" d="M436.57,678.241v-182.2a4.81,4.81,0,1,0-5,0v182.2a4.81,4.81,0,1,0,5,0Zm-2.5,6.259a2.168,2.168,0,1,1,2.167-2.167A2.168,2.168,0,0,1,434.07,684.5Z"/></g><g class="d"><path class="e" d="M456.184,437.286l.012-32.2a4.81,4.81,0,1,0-5,.007l-.013,32.2a4.812,4.812,0,1,0,5-.006Zm-2.494,6.262a2.168,2.168,0,1,1,2.167-2.168A2.168,2.168,0,0,1,453.69,443.548Z"/></g><g class="d"><path class="e" d="M475.809,496.1V413.9a4.809,4.809,0,1,0-5,0v82.2a4.811,4.811,0,1,0,5,0Zm-2.5-88.456a2.167,2.167,0,1,1-2.168,2.167A2.167,2.167,0,0,1,473.31,407.643Zm0,94.714a2.167,2.167,0,1,1,2.167-2.167A2.168,2.168,0,0,1,473.31,502.357Z"/></g><g class="d"><path class="e" d="M809.343,681.1l.013-32.2a4.811,4.811,0,1,0-5,.007l-.013,32.2a4.81,4.81,0,1,0,5-.007Zm-2.493,6.262a2.167,2.167,0,1,1,2.167-2.167A2.168,2.168,0,0,1,806.85,687.357Z"/></g><g class="d"><path class="e" d="M770.109,564.432v-82.2a4.811,4.811,0,1,0-5,0v82.2a4.81,4.81,0,1,0,5,0Zm-2.5-88.456a2.168,2.168,0,1,1-2.168,2.167A2.167,2.167,0,0,1,767.61,475.976Zm0,94.715a2.168,2.168,0,1,1,2.167-2.168A2.168,2.168,0,0,1,767.61,570.691Z"/></g><g class="d"><path class="e" d="M828.969,291.1V208.9a4.81,4.81,0,1,0-5,0v82.2a4.81,4.81,0,1,0,5,0Zm-2.5-88.456a2.167,2.167,0,1,1-2.168,2.167A2.167,2.167,0,0,1,826.47,202.643Zm0,94.714a2.167,2.167,0,1,1,2.167-2.167A2.168,2.168,0,0,1,826.47,297.357Z"/></g><g class="d"><path class="e" d="M789.729,591.1V408.9a4.81,4.81,0,1,0-5,0V591.1a4.81,4.81,0,1,0,5,0Zm-2.5,6.258a2.167,2.167,0,1,1,2.167-2.167A2.168,2.168,0,0,1,787.23,597.357Z"/></g><g class="d"><path class="e" d="M848.589,851.1V668.9a4.81,4.81,0,1,0-5,0V851.1a4.81,4.81,0,1,0,5,0Zm-2.5-188.456a2.167,2.167,0,1,1-2.168,2.167A2.167,2.167,0,0,1,846.09,662.643Zm0,194.714a2.167,2.167,0,1,1,2.167-2.167A2.168,2.168,0,0,1,846.09,857.357Z"/></g><g class="d"><path class="e" d="M868.2,511.1l.013-32.2a4.811,4.811,0,1,0-5,.007l-.013,32.2a4.81,4.81,0,1,0,5-.007Zm-2.493-38.452a2.167,2.167,0,1,1-2.168,2.167A2.167,2.167,0,0,1,865.71,472.643Z"/></g><g class="d"><path class="e" d="M691.623,701.1l.013-32.2a4.81,4.81,0,1,0-5,.007l-.013,32.2a4.811,4.811,0,1,0,5-.007Zm-2.493-38.452a2.167,2.167,0,1,1-2.168,2.167A2.167,2.167,0,0,1,689.13,662.643Zm0,44.714a2.167,2.167,0,1,1,2.167-2.167A2.168,2.168,0,0,1,689.13,707.357Z"/></g><g class="d"><path class="e" d="M652.389,516.1V433.9a4.809,4.809,0,1,0-5,0v82.2a4.811,4.811,0,1,0,5,0Zm-2.5,6.258a2.167,2.167,0,1,1,2.167-2.167A2.168,2.168,0,0,1,649.89,522.357Z"/></g><g class="d"><path class="e" d="M672.01,683.6V501.4a4.81,4.81,0,1,0-5,0V683.6a4.81,4.81,0,1,0,5,0Zm-2.5-188.456a2.167,2.167,0,1,1-2.168,2.167A2.167,2.167,0,0,1,669.51,495.143Zm0,194.714a2.167,2.167,0,1,1,2.167-2.167A2.168,2.168,0,0,1,669.51,689.857Z"/></g><g class="d"><path class="e" d="M711.249,417.765v-82.2a4.809,4.809,0,1,0-5,0v82.2a4.811,4.811,0,1,0,5,0Zm-2.5,6.259a2.168,2.168,0,1,1,2.167-2.167A2.168,2.168,0,0,1,708.75,424.024Z"/></g><g class="d"><path class="e" d="M750.483,271.1l.013-32.2a4.811,4.811,0,1,0-5,.007l-.013,32.2a4.81,4.81,0,1,0,5-.007Zm-2.493-38.452a2.167,2.167,0,1,1-2.168,2.167A2.167,2.167,0,0,1,747.99,232.643Z"/></g><g class="d"><path class="e" d="M730.869,811.1V628.9a4.809,4.809,0,1,0-5,0V811.1a4.81,4.81,0,1,0,5,0Zm-2.5-188.456a2.167,2.167,0,1,1-2.168,2.167A2.167,2.167,0,0,1,728.37,622.643Zm0,194.714a2.167,2.167,0,1,1,2.167-2.167A2.168,2.168,0,0,1,728.37,817.357Z"/></g><g class="d"><path class="e" d="M632.763,448.6l.013-32.2a4.81,4.81,0,1,0-5,.007l-.013,32.2a4.811,4.811,0,1,0,5-.007Zm-2.493-38.452a2.167,2.167,0,1,1-2.168,2.167A2.167,2.167,0,0,1,630.27,410.143Zm0,44.714a2.167,2.167,0,1,1,2.167-2.167A2.168,2.168,0,0,1,630.27,454.857Z"/></g><g class="d"><path class="e" d="M122.65,528.241v-82.2a4.81,4.81,0,1,0-5,0v82.2a4.81,4.81,0,1,0,5,0Zm-2.5-88.456a2.168,2.168,0,1,1-2.168,2.168A2.168,2.168,0,0,1,120.15,439.785Zm0,94.715a2.168,2.168,0,1,1,2.167-2.167A2.168,2.168,0,0,1,120.15,534.5Z"/></g><g class="d"><path class="e" d="M63.79,509.67v-82.2a4.81,4.81,0,1,0-5,0v82.2a4.81,4.81,0,1,0,5,0Zm-2.5-88.456a2.168,2.168,0,1,1-2.168,2.167A2.167,2.167,0,0,1,61.29,421.214Z"/></g><g class="d"><path class="e" d="M4.93,562.527v-82.2a4.8,4.8,0,1,0-7.31-4.091A4.791,4.791,0,0,0-.07,480.33v82.2a4.8,4.8,0,1,0,7.31,4.092A4.794,4.794,0,0,0,4.93,562.527Zm-2.5,6.259A2.168,2.168,0,1,1,4.6,566.619,2.168,2.168,0,0,1,2.43,568.786Z"/></g><g class="d"><path class="e" d="M24.55,696.813v-182.2a4.81,4.81,0,1,0-5,0v182.2a4.81,4.81,0,1,0,5,0Zm-2.5-188.456a2.168,2.168,0,1,1-2.168,2.167A2.167,2.167,0,0,1,22.05,508.357Zm0,194.715a2.168,2.168,0,1,1,2.167-2.168A2.168,2.168,0,0,1,22.05,703.072Z"/></g><g class="d"><path class="e" d="M83.41,831.1V648.9a4.81,4.81,0,1,0-5,0V831.1a4.81,4.81,0,1,0,5,0Zm-2.5,6.258a2.167,2.167,0,1,1,2.167-2.167A2.168,2.168,0,0,1,80.91,837.357Z"/></g><g class="d"><path class="e" d="M103.024,604.667l.012-32.2a4.81,4.81,0,1,0-5,.007l-.012,32.2a4.811,4.811,0,1,0,5-.006Zm-2.494-38.453a2.168,2.168,0,1,1-2.168,2.167A2.167,2.167,0,0,1,100.53,566.214Zm0,44.715a2.168,2.168,0,1,1,2.167-2.168A2.168,2.168,0,0,1,100.53,610.929Z"/></g><g class="d"><path class="e" d="M377.71,831.1V648.9a4.81,4.81,0,1,0-5,0V831.1a4.81,4.81,0,1,0,5,0Zm-2.5-188.456a2.167,2.167,0,1,1-2.168,2.167A2.167,2.167,0,0,1,375.21,642.643Zm0,194.714a2.167,2.167,0,1,1,2.167-2.167A2.168,2.168,0,0,1,375.21,837.357Z"/></g><g class="d"><path class="e" d="M44.164,321.1l.012-32.2a4.81,4.81,0,1,0-5,.007l-.012,32.2a4.81,4.81,0,1,0,5-.007ZM41.67,282.643A2.167,2.167,0,1,1,39.5,284.81,2.167,2.167,0,0,1,41.67,282.643Zm0,44.714a2.167,2.167,0,1,1,2.167-2.167A2.168,2.168,0,0,1,41.67,327.357Z"/></g><g class="d"><path class="e" d="M299.229,291.1V208.9a4.809,4.809,0,1,0-5,0v82.2a4.811,4.811,0,1,0,5,0Zm-2.5-88.456a2.167,2.167,0,1,1-2.168,2.167A2.167,2.167,0,0,1,296.73,202.643Zm0,94.714a2.167,2.167,0,1,1,2.167-2.167A2.168,2.168,0,0,1,296.73,297.357Z"/></g><g class="d"><path class="e" d="M318.85,751.1V568.9a4.81,4.81,0,1,0-5,0V751.1a4.81,4.81,0,1,0,5,0Zm-2.5,6.258a2.167,2.167,0,1,1,2.167-2.167A2.168,2.168,0,0,1,316.35,757.357Z"/></g><g class="d"><path class="e" d="M142.27,491.1V308.9a4.81,4.81,0,1,0-5,0V491.1a4.81,4.81,0,1,0,5,0Zm-2.5,6.258a2.167,2.167,0,1,1,2.167-2.167A2.168,2.168,0,0,1,139.77,497.357Z"/></g><g class="d"><path class="e" d="M279.6,317.762l.012-32.2a4.811,4.811,0,1,0-5,.006l-.012,32.2a4.81,4.81,0,1,0,5-.007Zm-2.494-38.453a2.168,2.168,0,1,1-2.168,2.168A2.167,2.167,0,0,1,277.11,279.309Z"/></g><g class="d"><path class="e" d="M358.089,511.1V428.9a4.809,4.809,0,1,0-5,0v82.2a4.811,4.811,0,1,0,5,0Zm-2.5,6.258a2.167,2.167,0,1,1,2.167-2.167A2.168,2.168,0,0,1,355.59,517.357Z"/></g><g class="d"><path class="e" d="M338.464,291.1l.012-32.2a4.81,4.81,0,1,0-5,.007l-.013,32.2a4.811,4.811,0,1,0,5-.007Zm-2.494-38.452a2.167,2.167,0,1,1-2.168,2.167A2.167,2.167,0,0,1,335.97,252.643Z"/></g><g class="d"><path class="e" d="M259.99,851.1V668.9a4.81,4.81,0,1,0-5,0V851.1a4.81,4.81,0,1,0,5,0Zm-2.5-188.456a2.167,2.167,0,1,1-2.168,2.167A2.167,2.167,0,0,1,257.49,662.643Zm0,194.714a2.167,2.167,0,1,1,2.167-2.167A2.168,2.168,0,0,1,257.49,857.357Z"/></g><g class="d"><path class="e" d="M181.51,421.1V338.9a4.81,4.81,0,1,0-5,0v82.2a4.81,4.81,0,1,0,5,0Zm-2.5,6.258a2.167,2.167,0,1,1,2.167-2.167A2.168,2.168,0,0,1,179.01,427.357Z"/></g><g class="d"><path class="e" d="M161.884,661.1l.012-32.2a4.81,4.81,0,1,0-5,.007l-.012,32.2a4.81,4.81,0,1,0,5-.007Zm-2.494-38.452a2.167,2.167,0,1,1-2.168,2.167A2.167,2.167,0,0,1,159.39,622.643Zm0,44.714a2.167,2.167,0,1,1,2.167-2.167A2.168,2.168,0,0,1,159.39,667.357Z"/></g><g class="d"><path class="e" d="M220.744,344.429l.012-32.2a4.81,4.81,0,1,0-5,.007l-.012,32.2a4.811,4.811,0,1,0,5-.006Zm-2.494,6.262a2.168,2.168,0,1,1,2.167-2.168A2.168,2.168,0,0,1,218.25,350.691Z"/></g><g class="d"><path class="e" d="M240.369,497.765v-82.2a4.809,4.809,0,1,0-5,0v82.2a4.811,4.811,0,1,0,5,0Zm-2.5-88.456a2.168,2.168,0,1,1-2.168,2.168A2.167,2.167,0,0,1,237.87,409.309Zm0,94.715a2.168,2.168,0,1,1,2.167-2.167A2.168,2.168,0,0,1,237.87,504.024Z"/></g><g class="d"><path class="e" d="M201.13,674.432v-182.2a4.81,4.81,0,1,0-5,0v182.2a4.81,4.81,0,1,0,5,0Zm-2.5-188.456a2.168,2.168,0,1,1-2.168,2.167A2.167,2.167,0,0,1,198.63,485.976Zm0,194.715a2.168,2.168,0,1,1,2.167-2.168A2.168,2.168,0,0,1,198.63,680.691Z"/></g></g></svg>