<svg xmlns="http://www.w3.org/2000/svg" xmlns:xlink="http://www.w3.org/1999/xlink" width="1920" height="1000" viewBox="0 0 1920 1000"><defs><style>.a{fill:none;}.b{fill:#e0f7fa;}.c{clip-path:url(#a);}.d{opacity:0.5;}.e{fill:#fff;}</style><clipPath id="a"><rect class="a" width="1920" height="1000"/></clipPath></defs><title>RisingSunBackgroundCenter</title><rect class="b" width="1920" height="1000"/><g class="c"><g class="d"><path class="e" d="M1070,1305.129,2304.458,549.9q-12.97,23.236-26.3,45.551-12.84,21.513-25.968,42.177-12.658,19.938-25.546,39.1-12.438,18.5-25.057,36.286l-1130.4,595.608Q1070.65,1306.843,1070,1305.129Z"/><path class="e" d="M1067.747,1299.979,2429.24,277.348q-1.111,3.042-2.218,6.063t-2.21,6.009q-1.1,2.988-2.219,5.968t-2.242,5.939q-11.316,29.68-23.316,58.293-11.56,27.587-23.695,54.175-11.7,25.655-23.877,50.38-11.753,23.874-23.905,46.884L1069.7,1304.35Q1068.81,1302.112,1067.747,1299.979Z"/><path class="e" d="M1064.021,1293.572,2530.094-121.095q-7.163,48.585-16.424,95.668-8.84,45.055-19.449,88.633-10.139,41.729-21.768,82.027-11.125,38.616-23.5,75.867L1067.249,1299A56.557,56.557,0,0,0,1064.021,1293.572Z"/><path class="e" d="M1032.028,1270.482,1580.5-2105.8a1532.545,1532.545,0,0,1,185.217,107.846,1615.669,1615.669,0,0,1,165.9,129.381,1702.362,1702.362,0,0,1,144.665,145.32,1786.5,1786.5,0,0,1,122.794,155.813L1045.286,1276.076A57.1,57.1,0,0,0,1032.028,1270.482Z"/><path class="e" d="M1057.777,1285.858,2533.8-696.151q9.017,68.211,13.437,135.518,4.264,64.266,4.566,127.327.326,60.214-2.744,119.033-2.9,56.178-8.689,110.857L1063.192,1292.376A56.94,56.94,0,0,0,1057.777,1285.858Z"/><path class="e" d="M981.328,1280.684-598.5-823.07q14.136-78.906,34.923-157.763,21.759-82.263,50.973-163.551,30.507-84.648,69.223-167.121a1881.368,1881.368,0,0,1,89.475-167.7L992.13,1273.947A56.642,56.642,0,0,0,981.328,1280.684Z"/><path class="e" d="M1012.846,1268.52l-464.8-3467.7A1393.509,1393.509,0,0,1,764.007-2245,1386.643,1386.643,0,0,1,985.37-2255.99a1404.693,1404.693,0,0,1,220.389,24.229,1445.973,1445.973,0,0,1,213.193,57.863L1028.974,1269.719A56.614,56.614,0,0,0,1012.846,1268.52Z"/><path class="e" d="M972.742,1289.1-613.943-181.733q-7.571-57.352-12.051-116.537-4.645-61.918-5.62-125.58-.97-66.6,2.389-134.759,3.571-71.288,12.214-143.8L979.6,1282.114A57.109,57.109,0,0,0,972.742,1289.1Z"/><path class="e" d="M1005.826,1269.441a57.3,57.3,0,0,0-11.088,3.342L-266.444-1610.662a1713.764,1713.764,0,0,1,129.41-156.566,1645.709,1645.709,0,0,1,152.2-143.841,1581.681,1581.681,0,0,1,173.9-125.645,1527.3,1527.3,0,0,1,193.15-102.094l627.4,3407.647C1008.351,1269,1007.089,1269.2,1005.826,1269.441Z"/><path class="e" d="M1047.5,1277.426,2281.188-1438.416q46.213,78.757,84.343,161.169,36.617,78.957,65.761,160.1,27.954,77.619,49.149,156.261,20.319,75.139,34.634,150.407L1056.389,1284.469A57.292,57.292,0,0,0,1047.5,1277.426Z"/><path class="e" d="M1071.38,1309.238,2181.759,740.382Q2169.642,756.8,2157.4,772.6q-11.84,15.277-23.771,29.978-11.547,14.232-23.158,27.931-11.245,13.273-22.53,26.055L1072.132,1312.053Q1071.79,1310.628,1071.38,1309.238Z"/><path class="e" d="M1072.813,1315.3l898.965-339.75q-9.492,8.782-18.952,17.264-9.206,8.254-18.379,16.231-8.932,7.767-17.833,15.28-8.673,7.322-17.313,14.406L1073.133,1317.25C1073.039,1316.6,1072.93,1315.951,1072.813,1315.3Z"/><path class="e" d="M1072.673,1314.531c-.128-.662-.272-1.318-.422-1.97l997.98-436.272q-10.831,11.877-21.673,23.318-10.519,11.106-21.037,21.809-10.214,10.4-20.416,20.425-9.912,9.745-19.808,19.151l-914.561,353.886C1072.715,1314.762,1072.7,1314.646,1072.673,1314.531Z"/><path class="e" d="M961.319,1311.829-93.027,913.328q-12.414-12.618-24.787-25.727-12.773-13.536-25.485-27.608-13.134-14.54-26.184-29.663-13.489-15.639-26.871-31.912L962.257,1308.46Q961.737,1310.126,961.319,1311.829Z"/><path class="e" d="M962.5,1307.719-218.395,771.093q-14.135-17.9-28.1-36.542-14.461-19.318-28.7-39.445-14.763-20.874-29.253-42.631-15.03-22.583-29.721-46.13L964.019,1303.609Q963.179,1305.63,962.5,1307.719Z"/><path class="e" d="M960.591,1315.234,16.313,1014.991q-10.758-9.138-21.528-18.607-11.083-9.749-22.172-19.856-11.418-10.412-22.833-21.213-11.761-11.135-23.51-22.694l1034.9,379.818Q960.845,1313.825,960.591,1315.234Z"/><path class="e" d="M964.405,1302.7-358.267,566.645q-15.346-26.064-30.212-53.259-15.45-28.288-30.306-57.807-15.451-30.731-30.171-62.794-15.321-33.408-29.742-68.253L966.9,1297.656Q965.532,1300.112,964.405,1302.7Z"/><path class="e" d="M-600.3-94.39,971.681,1290.432a57.155,57.155,0,0,0-4.141,6.111L-501.888,265.728q-14.586-38.78-27.89-79.18-13.868-42.178-26.178-86.068Q-568.791,54.629-579.743,7-591.159-42.787-600.3-94.39Z"/></g></g></svg>