<svg xmlns="http://www.w3.org/2000/svg" xmlns:xlink="http://www.w3.org/1999/xlink" width="1920" height="1000" viewBox="0 0 1920 1000"><defs><style>.a{fill:none;}.b{fill:#e0f7fa;}.c{clip-path:url(#a);}.d{opacity:0.5;}.e{fill:#fff;}</style><clipPath id="a"><rect class="a" width="1920" height="1000"/></clipPath></defs><title>RisingSunBackground</title><rect class="b" width="1920" height="1000"/><g class="c"><g class="d"><path class="e" d="M53.534,1030.866l2809.7-1950.829a1532.556,1532.556,0,0,1,51.085,208.149A1615.683,1615.683,0,0,1,2936.491-502.6a1702.273,1702.273,0,0,1-4.041,205.012,1786.256,1786.256,0,0,1-26.783,196.567L58.72,1044.29A57.145,57.145,0,0,0,53.534,1030.866Z"/><path class="e" d="M60.36,1060.069,2511.431,745.014q-42.8,53.868-88.149,103.8-43.268,47.712-88.42,91.733-43.087,42.065-87.531,80.714-42.425,36.941-85.78,70.757L59.433,1068.493A56.962,56.962,0,0,0,60.36,1060.069Z"/><path class="e" d="M10.976,1001.483l415.87-2597.826q66.582-44.644,137.746-84.47,74.291-41.493,153.058-76.945,82.082-36.858,168.3-66.3a1881.43,1881.43,0,0,1,182.789-52.132L23.326,1004.573A56.641,56.641,0,0,0,10.976,1001.483Z"/><path class="e" d="M41.62,1015.705,2213.2-1727.51a1393.465,1393.465,0,0,1,182.972,123.521,1386.685,1386.685,0,0,1,161.68,151.6,1404.644,1404.644,0,0,1,135.666,175.367,1446.018,1446.018,0,0,1,106.473,193.553L51.961,1028.139A56.621,56.621,0,0,0,41.62,1015.705Z"/><path class="e" d="M-1.045,1001.154-45.218-1161.94q36-45.285,75.459-89.621,41.314-46.355,86.431-91.279,47.235-46.965,98.6-91.892,53.761-46.953,111.929-91.109L8.743,1001.229A57.148,57.148,0,0,0-1.045,1001.154Z"/><path class="e" d="M36.081,1011.3a57.285,57.285,0,0,0-10.107-5.655L1224.061-1904.588a1713.945,1713.945,0,0,1,202.519-15.669,1645.787,1645.787,0,0,1,209.2,9.563,1581.751,1581.751,0,0,1,211.181,37.811,1527.2,1527.2,0,0,1,207.614,68.021L39.143,1013.6Q37.66,1012.406,36.081,1011.3Z"/><path class="e" d="M59.286,1046.819,2869.891,47.679q-24.551,87.951-57.346,172.627-31.361,81.19-69.487,158.522-36.417,74.028-78.263,143.9-39.936,66.813-84.135,129.395L60.4,1058.106A57.259,57.259,0,0,0,59.286,1046.819Z"/></g></g></svg>