<svg xmlns="http://www.w3.org/2000/svg" width="500" height="92.18" viewBox="0 0 500 92.18"><defs><style>.a{fill:#37474f;}.b{fill:#00acc1;}</style></defs><title>AtmosphereLogoHorizontal_RGB</title><path class="a" d="M43.257,30.886h29.11v6.09H61.17v31.3H54.546v-31.3H43.257ZM95.972,48.567,84.593,30.886h-7V68.279h6.463V41.57l11.7,17.52h.213l11.806-17.627V68.279h6.57V30.886h-7Zm63.043.907v.107a19.159,19.159,0,0,1-19.606,19.338c-11.485,0-19.5-8.706-19.5-19.231v-.107a19.159,19.159,0,0,1,19.6-19.336C151,30.245,159.015,38.952,159.015,49.474Zm-6.892.107c0-7.263-5.288-13.3-12.714-13.3S126.8,42.211,126.8,49.474v.107c0,7.266,5.289,13.249,12.714,13.249s12.607-5.876,12.607-13.142Zm27.278-2.99c-7.211-1.709-8.92-2.992-8.92-5.877v-.106c0-2.457,2.243-4.434,6.089-4.434,3.419,0,6.784,1.336,10.15,3.847l3.526-4.969a20.732,20.732,0,0,0-13.569-4.7c-7.425,0-12.767,4.433-12.767,10.844V41.3c0,6.892,4.487,9.242,12.446,11.165,6.945,1.6,8.441,3.045,8.441,5.715v.107c0,2.778-2.564,4.7-6.624,4.7-4.595,0-8.226-1.763-11.806-4.861l-3.953,4.7a23.033,23.033,0,0,0,15.6,5.984c7.853,0,13.355-4.168,13.355-11.166v-.107C191.368,51.344,187.307,48.513,179.4,46.591Zm47.81-3.2v.107c0,8.386-6.731,12.766-14.958,12.766h-7.426v12.02h-6.57V30.886H213C221.761,30.886,227.211,35.854,227.211,43.386Zm-6.679.16c0-4.381-3.151-6.678-8.065-6.678h-7.64V50.33h7.64c4.968,0,8.065-2.778,8.065-6.677Zm35.127,2.885H239.894V30.886h-6.57V68.279h6.57V52.519h15.765v15.76h6.57V30.886h-6.57Zm22.322,5.929h16.673V46.484H277.981V36.761h19.077V30.886H271.411V68.279h25.914V62.4H277.981ZM324.5,54.123l10.1,14.156h-7.8l-9.188-13.036h-6.148V68.279h-6.57V30.886h14.588c4.7,0,8.386,1.388,10.792,3.739a11.309,11.309,0,0,1,3.1,8.066V42.8C333.37,48.941,329.685,52.626,324.5,54.123Zm-5.5-4.7c4.7,0,7.692-2.456,7.692-6.249v-.107c0-4.006-2.884-6.2-7.744-6.2h-7.485V49.421Zm27.82,2.939h16.673V46.484H346.82V36.761H365.9V30.886H340.249V68.279h25.914V62.4H346.82ZM28.291,23.576l19.529,44.7H40.875l-3.792-9.029H19.4L13.793,72.409a6.154,6.154,0,1,1-5.572-2.754L25.276,30.616ZM11.425,75.786a2.772,2.772,0,1,0-2.772,2.772A2.772,2.772,0,0,0,11.425,75.786Zm23.254-22.36L28.214,38.469,21.8,53.426Z" transform="translate(-2.5 -1.442)"/><path class="b" d="M482.991,23.7c0-12.762-12.183-22.26-25.2-22.26a23.758,23.758,0,0,0-20.512,10.922A20.19,20.19,0,0,0,424.987,8.62c-9.845,0-17.952,7.33-19.9,16.412-.372.016-.728.033-1.041.033a24.724,24.724,0,0,0-24.7,24.7c0,11.232,6.4,19.545,17.888,24l8.025-18.35a5.514,5.514,0,1,0-5.772-2.591l-5.33,12.211c-.274.1-13.355-7.614-6.982-22.681,2.513-5.941,11.75-13.448,23.513-10.615,0-.024.091-1.39.416-3.44,1.068-6.734,6.47-12.895,14.071-12.895a17.224,17.224,0,0,1,10.748,3.906,15.441,15.441,0,0,1,3.211,3.117s.918-1.989,1.843-3.616C444.007,13.487,450.407,8.4,457.793,8.4c10.206,0,20.079,8.211,18.374,21.787l.1.007c12.359,1.35,18.786,9.944,18.786,18.683,0,10.511-10.626,19.261-19.862,19.392-2.794.04-5.5.029-7.37.036l5.268-12.09a5.893,5.893,0,1,0-5.8-2.552l-9.512,21.805h15.936C491,75.465,502.5,61.594,502.5,48.658,502.5,38.238,496.985,27.768,482.991,23.7Zm-10.774,24.02a2.665,2.665,0,1,1-2.665,2.665A2.665,2.665,0,0,1,472.217,47.722Zm-13.453-12.5-17.6,40.251h-6.921L453.012,32.58a5.39,5.39,0,0,1-.768-2.723,5.471,5.471,0,1,1,6.52,5.365Zm-21.8,4.659a5.914,5.914,0,1,0-10.829,3.285L409.076,82.243a5.74,5.74,0,1,0,5.792,2.516L431.953,45.7A5.9,5.9,0,0,0,436.968,39.881ZM410.063,90.469a2.586,2.586,0,1,1,2.586-2.586A2.586,2.586,0,0,1,410.063,90.469Zm18.326-50.588a2.665,2.665,0,1,1,2.665,2.664A2.665,2.665,0,0,1,428.389,39.881Z" transform="translate(-2.5 -1.442)"/></svg>