<svg id="Layer_1" data-name="Layer 1" xmlns="http://www.w3.org/2000/svg" viewBox="0 0 181.52 71.39"><defs><style>.cls-1{fill:#1c2b39;}.cls-2{fill:#00b2ba;}</style></defs><title>Atmosphere_Logo_2C_Vertical_CMYK</title><polygon class="cls-1" points="20.34 48.94 25.98 48.94 25.98 64.57 29.28 64.57 29.28 48.94 34.87 48.94 34.87 45.9 20.34 45.9 20.34 48.94"/><polygon class="cls-1" points="46.66 54.73 40.98 45.9 37.48 45.9 37.48 64.57 40.71 64.57 40.71 51.24 46.55 59.98 46.66 59.98 52.55 51.18 52.55 64.57 55.83 64.57 55.83 45.9 52.34 45.9 46.66 54.73"/><path class="cls-1" d="M69.11,46.3A9.57,9.57,0,0,0,59.32,56V56A9.76,9.76,0,0,0,78.84,56V55.9A9.48,9.48,0,0,0,69.11,46.3ZM75.4,56a6.28,6.28,0,0,1-6.29,6.56A6.38,6.38,0,0,1,62.76,56V55.9a6.31,6.31,0,0,1,6.3-6.58A6.39,6.39,0,0,1,75.4,56Z" transform="translate(-0.72 -0.72)"/><path class="cls-1" d="M89,54.46c-3.6-.85-4.45-1.49-4.45-2.93v-.05c0-1.23,1.12-2.22,3-2.22a8.5,8.5,0,0,1,5.06,1.92l1.76-2.48a10.33,10.33,0,0,0-6.77-2.34c-3.71,0-6.37,2.21-6.37,5.41v0c0,3.44,2.24,4.62,6.21,5.57,3.46.8,4.21,1.52,4.21,2.86v0c0,1.39-1.28,2.35-3.3,2.35a8.64,8.64,0,0,1-5.9-2.43l-2,2.35a11.49,11.49,0,0,0,7.79,3C92.25,65.55,95,63.47,95,60v0C95,56.83,93,55.42,89,54.46Z" transform="translate(-0.72 -0.72)"/><path class="cls-1" d="M105.79,46.62H98.43V65.29h3.28v-6h3.71c4.1,0,7.46-2.19,7.46-6.37v-.06C112.88,49.1,110.16,46.62,105.79,46.62ZM109.55,53c0,1.94-1.55,3.33-4,3.33h-3.81V49.61h3.81c2.46,0,4,1.15,4,3.33Z" transform="translate(-0.72 -0.72)"/><polygon class="cls-1" points="126.36 53.66 118.49 53.66 118.49 45.9 115.21 45.9 115.21 64.57 118.49 64.57 118.49 56.7 126.36 56.7 126.36 64.57 129.64 64.57 129.64 45.9 126.36 45.9 126.36 53.66"/><polygon class="cls-1" points="137.5 56.62 145.83 56.62 145.83 53.69 137.5 53.69 137.5 48.84 147.03 48.84 147.03 45.9 134.22 45.9 134.22 64.57 147.16 64.57 147.16 61.63 137.5 61.63 137.5 56.62"/><path class="cls-1" d="M165.87,52.57v0a5.63,5.63,0,0,0-1.55-4,7.53,7.53,0,0,0-5.38-1.87h-7.28V65.29h3.28V58.78H158l4.59,6.51h3.89l-5-7.07A5.61,5.61,0,0,0,165.87,52.57Zm-10.93,3.3V49.61h3.73c2.43,0,3.87,1.09,3.87,3.09v.06c0,1.89-1.5,3.11-3.84,3.11Z" transform="translate(-0.72 -0.72)"/><polygon class="cls-1" points="171.86 61.63 171.86 56.62 180.19 56.62 180.19 53.69 171.86 53.69 171.86 48.84 181.39 48.84 181.39 45.9 168.58 45.9 168.58 64.57 181.52 64.57 181.52 61.63 171.86 61.63"/><path class="cls-1" d="M12.09,46.49,3.58,66a3.05,3.05,0,1,0,2.78,1.37l2.8-6.57H18l1.89,4.51h3.47L13.59,43ZM3.79,70.42A1.39,1.39,0,1,1,5.18,69,1.38,1.38,0,0,1,3.79,70.42Zm6.57-12.54,3.2-7.47,3.22,7.47Z" transform="translate(-0.72 -0.72)"/><path class="cls-2" d="M103.12,17.58a2.73,2.73,0,1,0-3.25-2.68,2.66,2.66,0,0,0,.38,1.37l-.18.42-9.18,21h3.45Z" transform="translate(-0.72 -0.72)"/><path class="cls-2" d="M92.25,19.91a3,3,0,1,0-5.41,1.64l-8.52,19.5a2.86,2.86,0,1,0,3.36,2.82,2.78,2.78,0,0,0-.47-1.56l8.53-19.5A2.94,2.94,0,0,0,92.25,19.91ZM78.82,45.16a1.29,1.29,0,1,1,1.29-1.29A1.29,1.29,0,0,1,78.82,45.16ZM88,19.91a1.33,1.33,0,1,1,1.33,1.33A1.33,1.33,0,0,1,88,19.91Z" transform="translate(-0.72 -0.72)"/><path class="cls-2" d="M72.42,36.82l4-9.16a2.75,2.75,0,1,0-2.88-1.29l-.22.5-2.44,5.59a8.56,8.56,0,0,1-4.14-5.87v0a.15.15,0,0,0,0-.07c0-.23-.07-.46-.09-.7a2.11,2.11,0,0,1,0-.26c0-.23,0-.46,0-.7,0,0,0-.08,0-.12v0A8.46,8.46,0,0,1,68,20.29a9.83,9.83,0,0,1,2.73-2.84,9.13,9.13,0,0,1,1.15-.71h0a9,9,0,0,1,3.51-1.08,10.47,10.47,0,0,1,3.76.19s.05-.69.21-1.72a7.33,7.33,0,0,1,7-6.43,8.61,8.61,0,0,1,5.37,2,7.74,7.74,0,0,1,1.6,1.55s.46-1,.92-1.8a10.16,10.16,0,0,1,8.39-5.2c5.09,0,10,4.1,9.17,10.88h0c6.17.67,9.38,5,9.38,9.33,0,5.24-5.3,9.61-9.91,9.67-1.4,0-2.75,0-3.68,0l2.63-6a2.94,2.94,0,1,0-2.9-1.28l-4.74,10.89h8c8.62,0,14.37-6.93,14.37-13.38,0-5.2-2.76-10.43-9.74-12.46,0-6.37-6.08-11.11-12.58-11.11A11.86,11.86,0,0,0,92.4,6.17,10.09,10.09,0,0,0,86.27,4.3a10.33,10.33,0,0,0-9.94,8.19l-.52,0A12.34,12.34,0,0,0,63.49,24.84C63.49,30.44,66.68,34.59,72.42,36.82Zm37.42-13a1.33,1.33,0,1,1-1.33,1.33A1.34,1.34,0,0,1,109.84,23.82Z" transform="translate(-0.72 -0.72)"/></svg>