<svg xmlns="http://www.w3.org/2000/svg" width="1620" height="90" viewBox="0 0 1620 90"><defs><style>.a{fill:#00acc1;}</style></defs><title>cloud-footer-complete</title><path class="a" d="M702.6,37.8a7.248,7.248,0,0,0-7,5.6H0v3.3H695.6a7.2,7.2,0,1,0,7-8.9Zm0,11.2a4,4,0,1,1,4-4h0A4.013,4.013,0,0,1,702.6,49Z"/><path class="a" d="M910.2,45a7.189,7.189,0,0,0,14.2,1.6H1620V43.3H924.4a7.236,7.236,0,0,0-8.691-5.4l-.009,0A7.381,7.381,0,0,0,910.2,45Zm3.2,0a4,4,0,1,1,4,4A4,4,0,0,1,913.4,45Z"/><path class="a" d="M850.511,21.978c0-12.252-11.758-21.441-24.306-21.441a22.853,22.853,0,0,0-19.762,10.572,19.593,19.593,0,0,0-11.857-3.656c-9.486,0-17.291,7.115-19.169,15.81h-.988a23.741,23.741,0,0,0-23.714,23.768v.044c0,10.869,6.126,18.873,17.193,23.121l7.707-17.686a5.329,5.329,0,1,0-6.225-4.249,3.579,3.579,0,0,0,.692,1.68L764.944,61.7c-.3.1-12.845-7.312-6.719-21.837,2.371-5.73,11.264-12.943,22.627-10.276,0,0,.1-1.383.395-3.359.988-6.521,6.225-12.45,13.537-12.45a16.711,16.711,0,0,1,10.375,3.755,17.47,17.47,0,0,1,3.063,2.964s.889-1.877,1.778-3.458C812.866,11.9,819.09,6.96,826.205,6.96c9.782,0,19.366,7.905,17.686,21.046h.1c11.857,1.285,18.082,9.585,18.082,17.984,0,10.177-10.276,18.575-19.169,18.674H835.79L840.828,53a5.694,5.694,0,1,0-6.436-4.839c0,.032.009.064.014.1a4.979,4.979,0,0,0,.889,2.273l-9.189,21.05h15.513c16.6,0,27.666-13.339,27.666-25.888C869.285,36.009,863.949,25.931,850.511,21.978ZM840.136,45.2a2.569,2.569,0,1,1-2.569,2.569h0A2.616,2.616,0,0,1,840.136,45.2ZM827.193,33.143,810.3,71.975h-6.62l18.082-41.4a4.891,4.891,0,0,1-.691-2.667,5.237,5.237,0,1,1,10.473-.143c0,.048,0,.095,0,.143a5.491,5.491,0,0,1-4.347,5.236ZM806.146,37.59a5.731,5.731,0,0,0-11.461-.152c0,.051,0,.1,0,.152a5.219,5.219,0,0,0,.988,3.162L779.37,78.5a5.458,5.458,0,0,0-4.47,6.294c.007.043.015.086.023.129a5.6,5.6,0,0,0,6.423,4.545,5.457,5.457,0,0,0,4.469-6.293c-.007-.043-.015-.086-.023-.129a5.329,5.329,0,0,0-.79-2.075l16.4-37.646A5.746,5.746,0,0,0,806.146,37.59ZM780.259,86.4a2.47,2.47,0,1,1,2.47-2.47h0a2.446,2.446,0,0,1-2.422,2.47Zm17.686-48.81a2.569,2.569,0,1,1,2.569,2.569h0a2.492,2.492,0,0,1-2.569-2.413Q797.942,37.668,797.945,37.59Z"/></svg>