<svg xmlns="http://www.w3.org/2000/svg" height="45" viewBox="0 0 180 33.18"><defs><style>.cls-1{fill:#fff;}</style></defs><title>Asset 2</title><g id="Layer_2" data-name="Layer 2"><g id="Layer_1-2" data-name="Layer 1"><polygon class="cls-1" points="14.67 12.79 18.74 12.79 18.74 24.06 21.12 24.06 21.12 12.79 25.15 12.79 25.15 10.6 14.67 10.6 14.67 12.79"/><polygon class="cls-1" points="33.65 16.96 29.55 10.6 27.04 10.6 27.04 24.06 29.36 24.06 29.36 14.45 33.57 20.75 33.65 20.75 37.9 14.41 37.9 24.06 40.27 24.06 40.27 10.6 37.75 10.6 33.65 16.96"/><path class="cls-1" d="M49.33,10.37a6.89,6.89,0,0,0-7.06,7v0a6.83,6.83,0,0,0,7,6.92,6.9,6.9,0,0,0,7.06-7v0A6.83,6.83,0,0,0,49.33,10.37Zm4.53,7a4.53,4.53,0,0,1-4.53,4.73,4.59,4.59,0,0,1-4.58-4.77v0a4.55,4.55,0,0,1,4.54-4.75,4.61,4.61,0,0,1,4.57,4.79Z"/><path class="cls-1" d="M63.68,16.25c-2.59-.61-3.21-1.07-3.21-2.11v0c0-.88.81-1.6,2.2-1.6a6.07,6.07,0,0,1,3.65,1.39l1.27-1.79a7.45,7.45,0,0,0-4.89-1.69c-2.67,0-4.59,1.59-4.59,3.9v0c0,2.48,1.61,3.33,4.48,4,2.5.58,3,1.1,3,2.06v0c0,1-.93,1.7-2.39,1.7A6.27,6.27,0,0,1,59,20.41L57.57,22.1a8.29,8.29,0,0,0,5.61,2.15c2.83,0,4.81-1.5,4.81-4v0C68,18,66.53,17,63.68,16.25Z"/><path class="cls-1" d="M75.78,10.6H70.47V24.06h2.37V19.73h2.67c3,0,5.39-1.57,5.39-4.59v0C80.9,12.39,78.93,10.6,75.78,10.6Zm2.71,4.6c0,1.4-1.11,2.4-2.9,2.4H72.84V12.75h2.75c1.77,0,2.9.83,2.9,2.41Z"/><polygon class="cls-1" points="91.14 16.2 85.46 16.2 85.46 10.6 83.1 10.6 83.1 24.06 85.46 24.06 85.46 18.39 91.14 18.39 91.14 24.06 93.5 24.06 93.5 10.6 91.14 10.6 91.14 16.2"/><polygon class="cls-1" points="99.17 18.33 105.18 18.33 105.18 16.21 99.17 16.21 99.17 12.71 106.04 12.71 106.04 10.6 96.81 10.6 96.81 24.06 106.14 24.06 106.14 21.95 99.17 21.95 99.17 18.33"/><path class="cls-1" d="M119.11,14.89v0A4.07,4.07,0,0,0,118,12a5.42,5.42,0,0,0-3.89-1.35h-5.25V24.06h2.37V19.37h2.21l3.31,4.69h2.81L115.92,19A4,4,0,0,0,119.11,14.89Zm-7.88,2.38V12.75h2.69c1.75,0,2.79.79,2.79,2.23v0c0,1.37-1.08,2.25-2.77,2.25Z"/><polygon class="cls-1" points="123.95 18.33 129.96 18.33 129.96 16.21 123.95 16.21 123.95 12.71 130.82 12.71 130.82 10.6 121.59 10.6 121.59 24.06 130.92 24.06 130.92 21.95 123.95 21.95 123.95 18.33"/><path class="cls-1" d="M8.2,10.5,2.06,24.56a2.21,2.21,0,1,0,2.37,2.2,2.18,2.18,0,0,0-.36-1.21l2-4.74h6.37l1.37,3.25h2.5L9.28,8Zm-6,17.26a1,1,0,1,1,0-2,1,1,0,0,1,0,2Zm4.73-9,2.31-5.38,2.32,5.38Z"/><path class="cls-1" d="M165.85,10.23a2,2,0,0,0-3.94,0,2,2,0,0,0,.27,1l-.13.32-6.62,15.12h2.49l6.34-14.49A2,2,0,0,0,165.85,10.23Z"/><path class="cls-1" d="M156.41,13.84a2.13,2.13,0,0,0-4.26,0,2.08,2.08,0,0,0,.36,1.18l-6.14,14.07a2.06,2.06,0,1,0,2.42,2,2.09,2.09,0,0,0-.34-1.13l6.15-14.06A2.12,2.12,0,0,0,156.41,13.84Zm-9.69,18.21a.93.93,0,0,1,0-1.86.93.93,0,1,1,0,1.86Zm6.6-18.21a1,1,0,1,1,1,1A1,1,0,0,1,153.32,13.84Z"/><path class="cls-1" d="M173,8c0-4.59-4.39-8-9.07-8a8.56,8.56,0,0,0-7.39,3.93,7.3,7.3,0,0,0-4.42-1.35,7.45,7.45,0,0,0-7.17,5.91h-.37a8.9,8.9,0,0,0-8.89,8.89c0,4.05,2.3,7,6.44,8.65L145,19.43a2,2,0,1,0-2.35-1.93,1.93,1.93,0,0,0,.28,1l-.16.36-1.76,4a6.21,6.21,0,0,1-3-4.23v0a.09.09,0,0,1,0-.05c0-.16-.05-.33-.07-.5s0-.13,0-.19,0-.33,0-.51v-.1a6.09,6.09,0,0,1,1-3.18,7.45,7.45,0,0,1,2.79-2.56h0a6.58,6.58,0,0,1,2.53-.78,7.47,7.47,0,0,1,2.72.14s0-.5.15-1.24A5.28,5.28,0,0,1,152.16,5,6.19,6.19,0,0,1,156,6.43a5.6,5.6,0,0,1,1.16,1.12s.33-.71.66-1.3a7.36,7.36,0,0,1,6.06-3.75,6.65,6.65,0,0,1,6.61,7.85h0c4.45.49,6.76,3.58,6.76,6.73,0,3.78-3.83,6.93-7.15,7h-2.65l1.89-4.35a2.13,2.13,0,1,0-2.44-2.1,2.08,2.08,0,0,0,.36,1.18l-3.43,7.85h5.74A10.14,10.14,0,0,0,180,17C180,13.25,178,9.48,173,8Zm-3.88,8.65a1,1,0,1,1-1,1A1,1,0,0,1,169.1,16.66Z"/></g></g></svg>