<svg id="f4032946-1c5c-47b0-beda-6c7248370175" data-name="Layer 2" xmlns="http://www.w3.org/2000/svg" width="500" height="92.2" viewBox="0 0 500 92.2"><defs><style>.b8a647a5-6ce8-4a54-8210-211668bc80ef{fill:#323e48;}.bf8a2ae8-1036-489e-bcd1-e2644d97c154{fill:#00ACC1;}</style></defs><title>nav-logo-dark</title><path class="b8a647a5-6ce8-4a54-8210-211668bc80ef" d="M40.76,29.45H69.87v6.09H58.67V66.85H52.05V35.54H40.76ZM93.47,47.13,82.09,29.45h-7v37.4h6.46V40.14l11.7,17.52h.21L105.28,40V66.85h6.57V29.45h-7Zm63,.91v.11a19.16,19.16,0,0,1-19.6,19.34c-11.49,0-19.5-8.71-19.5-19.23v-.11a19.55,19.55,0,0,1,39.1-.11Zm-6.89.11c0-7.27-5.29-13.3-12.71-13.3S124.3,40.78,124.3,48v.11c0,7.27,5.29,13.25,12.72,13.25s12.6-5.88,12.6-13.14Zm27.28-3c-7.21-1.71-8.92-3-8.92-5.88v-.11c0-2.45,2.24-4.43,6.09-4.43,3.42,0,6.78,1.33,10.15,3.85l3.53-5a20.71,20.71,0,0,0-13.57-4.7c-7.43,0-12.77,4.43-12.77,10.84v.11c0,6.89,4.49,9.24,12.45,11.17,6.94,1.6,8.44,3,8.44,5.71v.11c0,2.78-2.57,4.7-6.63,4.7-4.59,0-8.22-1.76-11.8-4.86l-4,4.7a23,23,0,0,0,15.6,6c7.86,0,13.36-4.17,13.36-11.17v-.11C188.87,49.91,184.81,47.08,176.9,45.16ZM224.71,42v.11c0,8.39-6.73,12.77-15,12.77h-7.42v12h-6.57V29.45H210.5C219.26,29.45,224.71,34.42,224.71,42Zm-6.68.16c0-4.38-3.15-6.68-8.06-6.68h-7.64V48.9H210c5,0,8.06-2.78,8.06-6.68ZM253.16,45H237.39V29.45h-6.57v37.4h6.57V51.09h15.77V66.85h6.57V29.45h-6.57Zm22.32,5.93h16.67V45.05H275.48V35.33h19.08V29.45H268.91v37.4h25.91V61H275.48ZM322,52.69l10.1,14.16h-7.8l-9.19-13H309v13h-6.57V29.45H317c4.7,0,8.39,1.39,10.79,3.74a11.3,11.3,0,0,1,3.1,8.07v.11C330.87,47.51,327.18,51.19,322,52.69ZM316.5,48c4.7,0,7.69-2.46,7.69-6.25v-.11c0-4-2.88-6.2-7.74-6.2H309V48Zm27.82,2.94H361V45.05H344.32V35.33H363.4V29.45H337.75v37.4h25.91V61H344.32ZM25.79,22.14,45.32,66.85H38.38l-3.8-9H16.9L11.29,71a6.15,6.15,0,1,1-5.57-2.75L22.78,29.18ZM8.93,74.36a2.78,2.78,0,1,0-2.78,2.77A2.78,2.78,0,0,0,8.93,74.36ZM32.18,52,25.71,37,19.3,52Z"/><path class="bf8a2ae8-1036-489e-bcd1-e2644d97c154" d="M480.49,22.26C480.49,9.5,468.31,0,455.29,0a23.77,23.77,0,0,0-20.51,10.92,20.18,20.18,0,0,0-12.29-3.74,20.68,20.68,0,0,0-19.9,16.41c-.37,0-.73,0-1,0a24.73,24.73,0,0,0-24.7,24.7c0,11.23,6.41,19.55,17.89,24l8-18.36A5.52,5.52,0,1,0,397,51.39L391.66,63.6c-.27.1-13.35-7.61-7-22.68,2.51-5.94,11.75-13.45,23.51-10.62,0,0,.09-1.39.42-3.44,1.07-6.74,6.47-12.9,14.07-12.9a17.2,17.2,0,0,1,10.75,3.91A15.41,15.41,0,0,1,436.64,21s.92-2,1.84-3.62c3-5.32,9.43-10.41,16.81-10.41,10.21,0,20.08,8.21,18.38,21.79h.1c12.36,1.36,18.79,10,18.79,18.69,0,10.52-10.63,19.27-19.87,19.4-2.79,0-5.5,0-7.37,0l5.27-12.09a5.89,5.89,0,1,0-5.8-2.55L455.28,74h15.94C488.5,74,500,60.17,500,47.23,500,36.8,494.48,26.33,480.49,22.26Zm-10.77,24A2.67,2.67,0,1,1,467.05,49,2.66,2.66,0,0,1,469.72,46.29Zm-13.46-12.5-17.6,40.26h-6.92l18.77-42.91a5.35,5.35,0,0,1-.77-2.72,5.48,5.48,0,1,1,6.52,5.37Zm-21.79,4.66a5.92,5.92,0,1,0-10.83,3.28L406.58,80.82a5.73,5.73,0,1,0,5.79,2.51l17.08-39.06A5.89,5.89,0,0,0,434.47,38.45Zm-26.91,50.6a2.59,2.59,0,1,1,2.59-2.59A2.58,2.58,0,0,1,407.56,89.05Zm18.33-50.6a2.67,2.67,0,1,1,2.66,2.66A2.66,2.66,0,0,1,425.89,38.45Z"/></svg>