<svg id="ba802e05-9f56-4ad0-b5a9-a675b195f835" data-name="Layer 1" xmlns="http://www.w3.org/2000/svg" width="500.03" height="92.2" viewBox="0 0 500.03 92.2"><defs><style>.a7397223-eb55-4c5d-a7ce-f60c4d9642ad{fill:#fff;}.a999f0db-56e4-4587-8a98-0d0da46edfe6{fill:#00ACC1;}</style></defs><title>nav-logo</title><g id="bc3914cf-ff84-4e3a-b9e6-7b32744f242b" data-name="Layer 2"><g id="e0c0c3af-7db0-4b6b-b8dc-9b26dc8d8c3f" data-name="Layer 1-2"><path class="a7397223-eb55-4c5d-a7ce-f60c4d9642ad" d="M40.8,29.5H69.9v6.1H58.7V66.9H52V35.5H40.8ZM93.5,47.1,82.1,29.5h-7V66.9h6.5V40.1L93.3,57.6h.2L105.3,40V66.8h6.6V29.5h-7Zm63,.9v.1a19.12,19.12,0,0,1-19,19.3h-.6c-11.5,0-19.5-8.7-19.5-19.2v-.1a19.12,19.12,0,0,1,19-19.3h.6c11.5,0,19.5,8.7,19.5,19.2Zm-6.9.1c0-7.3-5.3-13.3-12.7-13.3S124.3,40.7,124.3,48v.1c0,7.3,5.3,13.2,12.7,13.2s12.6-5.9,12.6-13.1Zm27.3-2.9c-7.2-1.7-8.9-3-8.9-5.9v-.1c0-2.5,2.2-4.4,6.1-4.4a16.74,16.74,0,0,1,10.1,3.8l3.5-5a20.84,20.84,0,0,0-13.6-4.7c-7.4,0-12.8,4.4-12.8,10.8v.1c0,6.9,4.5,9.2,12.4,11.2,6.9,1.6,8.4,3,8.4,5.7v.1c0,2.8-2.6,4.7-6.6,4.7-4.6,0-8.2-1.8-11.8-4.9l-4,4.7a23.07,23.07,0,0,0,15.6,6c7.9,0,13.4-4.2,13.4-11.2V56c.2-6.1-3.9-8.9-11.8-10.8ZM224.7,42v.1c0,8.4-6.7,12.8-15,12.8h-7.4v12h-6.6V29.5h14.7c8.9,0,14.3,4.9,14.3,12.5Zm-6.7.1c0-4.4-3.2-6.7-8.1-6.7h-7.6V48.9h7.6c5,0,8.1-2.8,8.1-6.7ZM253.2,45H237.4V29.5h-6.6V66.9h6.6V51.1h15.8V66.9h6.6V29.5h-6.6Zm22.3,5.9h16.7V45H275.5V35.3h19.1V29.4H269V66.8h25.9V61H275.6V50.9ZM322,52.7l10.1,14.2h-7.8l-9.2-13H309v13h-6.6V29.5H317c4.7,0,8.4,1.4,10.8,3.7a11.15,11.15,0,0,1,3.1,8.1v.1c0,6.1-3.7,9.8-8.9,11.3ZM316.5,48c4.7,0,7.7-2.5,7.7-6.2v-.1c0-4-2.9-6.2-7.7-6.2H309V48Zm27.8,2.9H361V45H344.3V35.3h19.1V29.4H337.7V66.8h25.9V61H344.3ZM25.8,22.1,45.3,66.8H38.4l-3.8-9H16.9L11.3,71a6.05,6.05,0,0,1-1.8,8.5A6.05,6.05,0,0,1,1,77.7a6.05,6.05,0,0,1,1.8-8.5,6.3,6.3,0,0,1,3-1l17.1-39ZM8.9,74.4a2.8,2.8,0,0,0-2.8-2.8,2.73,2.73,0,0,0-2.8,2.8,2.8,2.8,0,0,0,5.6,0ZM32.2,52,25.7,37,19.3,52Z" transform="translate(0.03)"/></g></g><path class="a999f0db-56e4-4587-8a98-0d0da46edfe6" d="M480.5,22.26C480.5,9.5,468.32,0,455.31,0a23.74,23.74,0,0,0-20.5,10.92,20.18,20.18,0,0,0-12.29-3.74c-9.84,0-17.95,7.33-19.89,16.41-.37,0-.73,0-1,0a24.72,24.72,0,0,0-24.69,24.7c0,11.23,6.4,19.55,17.88,24l8-18.36A5.5,5.5,0,1,0,397,51.39L391.7,63.6c-.27.1-13.35-7.61-7-22.68,2.51-5.94,11.74-13.45,23.5-10.62,0,0,.09-1.39.42-3.44,1.06-6.74,6.46-12.9,14.06-12.9a17.15,17.15,0,0,1,10.74,3.91A15.07,15.07,0,0,1,436.66,21s.92-2,1.85-3.62c3-5.32,9.42-10.41,16.8-10.41,10.2,0,20.07,8.21,18.37,21.79h.1c12.35,1.36,18.78,10,18.78,18.69,0,10.52-10.62,19.27-19.86,19.4-2.79,0-5.49,0-7.36,0l5.26-12.09a5.89,5.89,0,1,0-5.79-2.55L455.3,74h15.93C488.5,74,500,60.17,500,47.23,500,36.8,494.49,26.33,480.5,22.26Zm-10.77,24A2.67,2.67,0,1,1,467.07,49,2.66,2.66,0,0,1,469.73,46.29Zm-13.45-12.5L438.69,74.05h-6.92l18.76-42.91a5.35,5.35,0,0,1-.77-2.72,5.47,5.47,0,1,1,6.52,5.37Zm-21.79,4.66a5.91,5.91,0,1,0-10.82,3.28L406.61,80.82a5.74,5.74,0,1,0,5.79,2.51l17.08-39.06A5.88,5.88,0,0,0,434.49,38.45ZM407.6,89.05a2.59,2.59,0,1,1,2.58-2.59A2.59,2.59,0,0,1,407.6,89.05Zm18.32-50.6a2.67,2.67,0,1,1,2.66,2.66A2.66,2.66,0,0,1,425.92,38.45Z" transform="translate(0.03)"/></svg>