<svg xmlns="http://www.w3.org/2000/svg" width="413.04" height="500" viewBox="0 0 413.04 500"><title>Asset 1</title><path d="M-353.48-240c-138,0-191.32,89.12-195.65,173.91V6.6c-7.6,8.71-10.87,19.83-10.87,34,0,25,16.18,45.52,40.08,50.95C-491.64,165.44-444.77,260-364.35,260c43.48,0,77.19-28.28,103.26-65.22h-28.19c-23.9,29.34-48.91,43.48-76.09,43.48-52.18,0-96.93-52.31-138.24-161l-2-6.46-6.46-1c-14.13,0-26.15-12.9-26.15-29.21a39.51,39.51,0,0,1,3.06-16l35.66,17A10.8,10.8,0,0,0-489,41a10.85,10.85,0,0,0,5.06-9.26V-46c7.51-.51,27.3-1.27,60.12-9.17,34.52-8.28,74.35-23.1,101.9-49.59,29.17,38.43,66.87,53.33,77.11,56.73V31.74A10.84,10.84,0,0,0-239.73,41a10.8,10.8,0,0,0,10.57.59l17-8.49v36a25.24,25.24,0,0,1-5.44.68l-6.45,1-2.38,6.46a683.07,683.07,0,0,1-32.61,73c13-2.17,25.26-7.56,34-17.33,6.54-14.14,11.89-28.4,17.32-41.44a43.23,43.23,0,0,0,6.46-2.38V97c0,36.64-28.58,65.21-65.22,65.21H-312a32.73,32.73,0,0,0-30.57-21.74h-21.74A32.79,32.79,0,0,0-397,173a32.78,32.78,0,0,0,32.61,32.61h21.74A32.71,32.71,0,0,0-312,183.91h45.52A86.79,86.79,0,0,0-179.57,97V86.09A32.78,32.78,0,0,0-147,53.48V10a32.78,32.78,0,0,0-32.61-32.61V-66.09c-4.33-95.66-57.53-150-147.75-152.17L-349.06-240Zm-4.41,21.74,21.74,21.74h4.41C-223-196.52-203.47-115-201.3-66.09v43.48h-1a10.81,10.81,0,0,0-9.85,10.87V8.64L-223,14.08v-69.3a10.85,10.85,0,0,0-7.82-10.53s-54.17-17-80.84-60.46a10.92,10.92,0,0,0-10.19-5.09,10.82,10.82,0,0,0-7.47,4.07c-21.66,26-62.88,42.25-99.19,51a403.79,403.79,0,0,1-66.91,10.19,10.88,10.88,0,0,0-10.19,10.87V14.42L-528.41,3.55V-66.09C-521.87-175.89-437.25-217.16-357.89-218.26ZM-190.43-.87h10.86A10.84,10.84,0,0,1-168.7,10V53.48a10.84,10.84,0,0,1-10.87,10.87h-8.83a11.18,11.18,0,0,0-2-.34V16.79a11.33,11.33,0,0,0,0-3.39Zm-173.92,163h21.74A10.84,10.84,0,0,1-331.74,173a10.84,10.84,0,0,1-10.87,10.87h-21.74A10.84,10.84,0,0,1-375.22,173,10.84,10.84,0,0,1-364.35,162.17Z" transform="translate(560 240)" fill="#00acc1"/></svg>