<svg xmlns="http://www.w3.org/2000/svg" width="688.52" height="482.86" viewBox="0 0 688.52 482.86"><defs><style>.\36 52da859-a271-4415-b9d2-98e43390e316,.b99b0b5a-248d-42ee-b96e-200812a75f09,.d4ccb844-a1de-410d-b152-167c0fa54a38{fill:none;stroke:#4dd0e1;stroke-linecap:round;stroke-miterlimit:10;stroke-width:3px;}.b99b0b5a-248d-42ee-b96e-200812a75f09{stroke-dasharray:14.85 14.85;}.\36 52da859-a271-4415-b9d2-98e43390e316{stroke-dasharray:15.5 15.5;}.c957378c-d521-48a9-a223-c9a56da6db98{fill:#00bcd4;}</style></defs><title>Asset 2</title><g id="3e38981c-c5c1-44a2-bca8-6ae08b4774d3" data-name="Layer 2"><g id="b910d09b-b12f-4d6d-9021-027bd0903573" data-name="Page Top"><g id="c4d182f7-779d-45a3-aa52-f4136313f50a" data-name="Body"><line class="d4ccb844-a1de-410d-b152-167c0fa54a38" x1="233.65" y1="146.51" x2="227.5" y2="150.06"/><line class="b99b0b5a-248d-42ee-b96e-200812a75f09" x1="214.64" y1="157.49" x2="118.16" y2="213.19"/><line class="d4ccb844-a1de-410d-b152-167c0fa54a38" x1="111.73" y1="216.9" x2="105.59" y2="220.45"/><line class="d4ccb844-a1de-410d-b152-167c0fa54a38" x1="337.99" y1="162.04" x2="337.99" y2="169.14"/><line class="652da859-a271-4415-b9d2-98e43390e316" x1="337.99" y1="184.64" x2="337.99" y2="300.87"/><line class="d4ccb844-a1de-410d-b152-167c0fa54a38" x1="337.99" y1="308.62" x2="337.99" y2="315.71"/><line class="d4ccb844-a1de-410d-b152-167c0fa54a38" x1="442.34" y1="146.51" x2="448.48" y2="150.06"/><line class="b99b0b5a-248d-42ee-b96e-200812a75f09" x1="461.34" y1="157.49" x2="557.82" y2="213.19"/><line class="d4ccb844-a1de-410d-b152-167c0fa54a38" x1="564.25" y1="216.9" x2="570.39" y2="220.45"/><path class="c957378c-d521-48a9-a223-c9a56da6db98" d="M424.6,41.66C424.6,17.78,401.79,0,377.43,0c-15.95,0-30,7.29-38.39,20.44-7.23-5.07-14.45-7-23-7-18.42,0-33.6,13.72-37.23,30.72-.7,0-1.37.06-2,.06a46.28,46.28,0,0,0-46.23,46.23c0,21,12,36.58,33.48,44.92l15-34.34a10.24,10.24,0,1,0-12.26-10,10.11,10.11,0,0,0,1.46,5.19l-10,22.85c-.51.19-25-14.25-13.07-42.45,4.7-11.12,22-25.17,44-19.87,0,0,.17-2.6.78-6.44,2-12.6,12.11-24.13,26.34-24.13a32.27,32.27,0,0,1,20.12,7.31,28.82,28.82,0,0,1,6,5.83s1.71-3.72,3.44-6.77c5.67-10,17.65-19.48,31.47-19.48,19.1,0,37.58,15.37,34.39,40.78h.2c23.13,2.53,35.16,18.61,35.16,35,0,19.67-19.89,36.05-37.18,36.3-5.23.07-10.3,0-13.79.06l9.86-22.63a11,11,0,1,0-10.85-4.77l-17.81,40.81h29.83c32.34,0,53.87-26,53.87-50.17C461.11,68.87,450.79,49.27,424.6,41.66Zm-20.17,45a5,5,0,1,1-5,5A5,5,0,0,1,404.43,86.62ZM379.25,63.23l-32.94,75.34h-13l35.13-80.29a10.08,10.08,0,0,1-1.44-5.1,10.25,10.25,0,1,1,12.21,10ZM338.45,72a11.07,11.07,0,1,0-20.27,6.15l-31.94,73.14A10.75,10.75,0,1,0,297.08,156l32-73.1A11.05,11.05,0,0,0,338.45,72Zm-50.36,94.68a4.84,4.84,0,1,1,4.84-4.84A4.84,4.84,0,0,1,288.09,166.63ZM322.39,72a5,5,0,1,1,5,5A5,5,0,0,1,322.39,72Z" transform="translate(-7.87)"/><g id="f5f1cb64-f366-4b37-a2b0-1d9f70fafd23" data-name="surface1"><path class="c957378c-d521-48a9-a223-c9a56da6db98" d="M646.63,227.39A23.56,23.56,0,0,0,625.45,241a12.19,12.19,0,0,0-19.5,9.52,17.3,17.3,0,0,0,5.81,33.64h56.68a16.09,16.09,0,0,0,16.06-16.06,15.88,15.88,0,0,0-14.26-15.66c0-.44.11-.85.11-1.3A23.76,23.76,0,0,0,646.63,227.39Zm0,3.6a20.1,20.1,0,0,1,20.12,20.12,21.1,21.1,0,0,1-.17,2.48l-.28,2h2.14a12.45,12.45,0,0,1,0,24.9H611.76a13.83,13.83,0,0,1-3.67-27.16l1.36-.33-.06-1.47c0-.25,0-.38,0-.39a9,9,0,0,1,15.44-6.37l2,2,1-2.65A20.17,20.17,0,0,1,646.63,231Z" transform="translate(-7.87)"/></g><g id="eeb4eb4d-6a26-4cef-8393-1e7e5935080a" data-name="surface1"><path class="c957378c-d521-48a9-a223-c9a56da6db98" d="M308.66,342.94a7.11,7.11,0,0,0-7.09,7.08v67.31a7.11,7.11,0,0,0,7.09,7.09h37.2v-3.54h-37.2a3.52,3.52,0,0,1-3.54-3.55V350a3.51,3.51,0,0,1,3.54-3.54h49.6A3.51,3.51,0,0,1,361.8,350V366h3.54V350a7.11,7.11,0,0,0-7.08-7.08ZM310.1,350a1.78,1.78,0,0,0-1.44,1.77v58.46a1.78,1.78,0,0,0,1.77,1.77h35.43v-3.54H312.2V353.56h42.52V366h3.54V351.79a1.78,1.78,0,0,0-1.77-1.77H310.1Zm42.84,17.72a5.34,5.34,0,0,0-5.31,5.31v51.37a5.34,5.34,0,0,0,5.31,5.31h31.89a5.34,5.34,0,0,0,5.31-5.31V373.05a5.34,5.34,0,0,0-5.31-5.31Zm0,3.54h31.89a1.74,1.74,0,0,1,1.77,1.77v51.37a1.74,1.74,0,0,1-1.77,1.77H352.94a1.74,1.74,0,0,1-1.77-1.77V373.05A1.74,1.74,0,0,1,352.94,371.28Zm3.21,3.54a1.76,1.76,0,0,0-1.43,1.77v39a1.77,1.77,0,0,0,1.77,1.77h24.8a1.77,1.77,0,0,0,1.77-1.77v-39a1.78,1.78,0,0,0-1.77-1.77H356.15Zm2.11,3.54h21.25v35.43H358.26Zm-24.8,35.43a2.66,2.66,0,1,0,2.66,2.66A2.66,2.66,0,0,0,333.46,413.79Zm35.43,5.31a2.66,2.66,0,1,0,2.65,2.66A2.66,2.66,0,0,0,368.89,419.1Z" transform="translate(-7.87)"/></g><g id="3638f1cf-952c-4729-a54a-6c66b6c8d255" data-name="surface1"><path class="c957378c-d521-48a9-a223-c9a56da6db98" d="M31,211.44l-.23.05a1.78,1.78,0,0,0-1.38,1.78v8.85h3.54v-5a1.22,1.22,0,0,0,0-.27v-3.54A1.77,1.77,0,0,0,31,211.44Zm10.62,0-.22.05A1.78,1.78,0,0,0,40,213.27v8.85h3.54v-5a1.22,1.22,0,0,0,0-.27v-3.54a1.77,1.77,0,0,0-1.94-1.83Zm10.63,0-.22.05a1.78,1.78,0,0,0-1.38,1.78v8.85h3.54v-5a1.22,1.22,0,0,0,0-.27v-3.54a1.77,1.77,0,0,0-1.94-1.83Zm10.63,0-.22.05a1.79,1.79,0,0,0-1.39,1.78v8.85h3.55v-8.85a1.79,1.79,0,0,0-1.94-1.83Zm10.63,0-.22.05a1.78,1.78,0,0,0-1.39,1.78v8.85h3.55v-8.85a1.79,1.79,0,0,0-1.94-1.83ZM26.35,223.89a5.87,5.87,0,0,0-5.82,5.82v52.14a5.86,5.86,0,0,0,5.82,5.81H78.49a5.85,5.85,0,0,0,5.81-5.81V229.71a5.86,5.86,0,0,0-5.81-5.82Zm0,3.55H78.49a2.26,2.26,0,0,1,2.27,2.27v52.14a2.26,2.26,0,0,1-2.27,2.27H26.35a2.26,2.26,0,0,1-2.27-2.27V229.71A2.26,2.26,0,0,1,26.35,227.44ZM9.41,232.75a1.79,1.79,0,1,0,.5,3.54h8.85v-3.54H9.41Zm76.66,0v3.54h8.86a1.77,1.77,0,0,0,1.56-2.66,1.79,1.79,0,0,0-1.56-.88Zm-49.93,8.86a1.77,1.77,0,0,0-1.44,1.77v24.8A1.78,1.78,0,0,0,36.48,270H68.36a1.77,1.77,0,0,0,1.77-1.77v-24.8a1.77,1.77,0,0,0-1.77-1.77H36.14ZM9.41,243.38a1.79,1.79,0,1,0,.5,3.54h8.85v-3.54H9.41Zm76.66,0v3.54h8.86a1.77,1.77,0,1,0,0-3.54Zm-47.82,1.77H66.59v21.26H38.25ZM9.41,254a1.79,1.79,0,1,0,.5,3.54h8.85V254H9.41Zm76.66,0v3.54h8.86a1.77,1.77,0,1,0,0-3.54ZM9.41,264.63a1.79,1.79,0,1,0,.5,3.55h8.85v-3.55H9.41Zm76.66,0v3.55h8.86a1.81,1.81,0,0,0,1.56-.88,1.79,1.79,0,0,0,0-1.79,1.81,1.81,0,0,0-1.56-.88ZM9.41,275.26a1.79,1.79,0,1,0,.5,3.55h8.85v-3.55H9.41Zm76.66,0v3.55h8.86a1.81,1.81,0,0,0,1.56-.88,1.79,1.79,0,0,0,0-1.79,1.81,1.81,0,0,0-1.56-.88ZM29.39,289.43v5a1.82,1.82,0,0,0,0,.33v3.54a1.79,1.79,0,0,0,.88,1.56,1.77,1.77,0,0,0,2.66-1.56v-3.54a.91.91,0,0,0,0-.33v-5Zm10.63,0v5a.81.81,0,0,0,0,.22v3.65a1.77,1.77,0,1,0,3.54,0v-3.54a1.82,1.82,0,0,0,0-.33v-5Zm10.63,0v5a.81.81,0,0,0,0,.22v3.65a1.77,1.77,0,0,0,2.66,1.56,1.79,1.79,0,0,0,.88-1.56v-3.54a1.82,1.82,0,0,0,0-.33v-5Zm10.62,0v8.86a1.81,1.81,0,0,0,.88,1.56,1.79,1.79,0,0,0,1.79,0,1.81,1.81,0,0,0,.88-1.56v-3.54a1.82,1.82,0,0,0,0-.33v-5Zm10.63,0v8.86a1.81,1.81,0,0,0,.88,1.56,1.79,1.79,0,0,0,1.79,0,1.81,1.81,0,0,0,.88-1.56v-3.54a1.82,1.82,0,0,0,0-.33v-5Z" transform="translate(-7.87)"/></g><path class="c957378c-d521-48a9-a223-c9a56da6db98" d="M23.3,316.19H28c4,0,6.7,2.72,6.7,6.27v0c0,3.55-2.74,6.31-6.7,6.31H23.3Zm2.21,2v8.57H28a4.1,4.1,0,0,0,4.37-4.25v0A4.13,4.13,0,0,0,28,318.21Z" transform="translate(-7.87)"/><path class="c957378c-d521-48a9-a223-c9a56da6db98" d="M36.6,324.08v0a4.72,4.72,0,0,1,4.65-5c3,0,4.55,2.38,4.55,5.11,0,.2,0,.4,0,.62h-7a2.65,2.65,0,0,0,2.74,2.41,3.46,3.46,0,0,0,2.57-1.13l1.28,1.13A4.8,4.8,0,0,1,41.48,329,4.75,4.75,0,0,1,36.6,324.08Zm7-.7a2.47,2.47,0,0,0-2.41-2.51,2.58,2.58,0,0,0-2.47,2.51Z" transform="translate(-7.87)"/><path class="c957378c-d521-48a9-a223-c9a56da6db98" d="M46.65,319.29H49l2.55,7,2.58-7H56.4l-3.88,9.58h-2Z" transform="translate(-7.87)"/><path class="c957378c-d521-48a9-a223-c9a56da6db98" d="M58.29,315.76h2.34v2.07H58.29Zm.09,3.53h2.18v9.51H58.38Z" transform="translate(-7.87)"/><path class="c957378c-d521-48a9-a223-c9a56da6db98" d="M62.88,324.1v0a4.91,4.91,0,0,1,4.95-5,4.8,4.8,0,0,1,3.8,1.64l-1.37,1.46A3.18,3.18,0,0,0,67.81,321a2.87,2.87,0,0,0-2.75,3v0a2.87,2.87,0,0,0,2.84,3,3.29,3.29,0,0,0,2.47-1.17l1.32,1.3a5,5,0,0,1-8.81-3.13Z" transform="translate(-7.87)"/><path class="c957378c-d521-48a9-a223-c9a56da6db98" d="M72.89,324.08v0a4.72,4.72,0,0,1,4.64-5c3,0,4.56,2.38,4.56,5.11,0,.2,0,.4,0,.62h-7a2.64,2.64,0,0,0,2.73,2.41,3.48,3.48,0,0,0,2.58-1.13l1.28,1.13A4.8,4.8,0,0,1,77.77,329,4.74,4.74,0,0,1,72.89,324.08Zm7-.7a2.47,2.47,0,0,0-2.41-2.51,2.58,2.58,0,0,0-2.47,2.51Z" transform="translate(-7.87)"/><path class="c957378c-d521-48a9-a223-c9a56da6db98" d="M11.46,337.79h9.39v2H13.68v3.44H20v2H13.68v5.14H11.46Z" transform="translate(-7.87)"/><path class="c957378c-d521-48a9-a223-c9a56da6db98" d="M23.06,337.36H25.4v2.07H23.06Zm.09,3.53h2.17v9.51H23.15Z" transform="translate(-7.87)"/><path class="c957378c-d521-48a9-a223-c9a56da6db98" d="M28.17,340.89h2.18V343a3.37,3.37,0,0,1,3.36-2.32V343h-.12c-1.91,0-3.24,1.25-3.24,3.77v3.62H28.17Z" transform="translate(-7.87)"/><path class="c957378c-d521-48a9-a223-c9a56da6db98" d="M35.6,340.89h2.18v1.44a3.4,3.4,0,0,1,2.9-1.64,3,3,0,0,1,2.84,1.68,3.84,3.84,0,0,1,3.21-1.68c2.07,0,3.33,1.32,3.33,3.64v6.07H47.88V345c0-1.51-.7-2.32-1.92-2.32s-2,.83-2,2.36v5.37H41.74V345c0-1.48-.72-2.31-1.93-2.31a2.08,2.08,0,0,0-2,2.36v5.37H35.6Z" transform="translate(-7.87)"/><path class="c957378c-d521-48a9-a223-c9a56da6db98" d="M51.64,340.89h2.23l1.91,6.52,2.11-6.56h1.87l2.11,6.56,1.94-6.52H66l-3.12,9.58h-2L58.81,344l-2.15,6.5H54.72Z" transform="translate(-7.87)"/><path class="c957378c-d521-48a9-a223-c9a56da6db98" d="M66.94,347.66v0c0-2.05,1.6-3.06,3.93-3.06a7.75,7.75,0,0,1,2.55.4v-.24c0-1.35-.83-2.07-2.36-2.07a6.66,6.66,0,0,0-2.72.6l-.57-1.71a8.06,8.06,0,0,1,3.58-.78,4.23,4.23,0,0,1,3.15,1.07,3.94,3.94,0,0,1,1,2.93v5.64H73.4v-1.19a3.84,3.84,0,0,1-3.09,1.38C68.52,350.59,66.94,349.57,66.94,347.66Zm6.52-.68v-.65A6,6,0,0,0,71.3,346c-1.41,0-2.24.59-2.24,1.58v0c0,.92.81,1.44,1.86,1.44C72.36,349,73.46,348.18,73.46,347Z" transform="translate(-7.87)"/><path class="c957378c-d521-48a9-a223-c9a56da6db98" d="M78.14,340.89h2.17V343a3.39,3.39,0,0,1,3.37-2.32V343h-.12c-1.91,0-3.25,1.25-3.25,3.77v3.62H78.14Z" transform="translate(-7.87)"/><path class="c957378c-d521-48a9-a223-c9a56da6db98" d="M84.72,345.68v0a4.72,4.72,0,0,1,4.65-4.95c3,0,4.55,2.38,4.55,5.11,0,.2,0,.4,0,.62h-7a2.66,2.66,0,0,0,2.74,2.41,3.46,3.46,0,0,0,2.57-1.13l1.28,1.13a4.8,4.8,0,0,1-3.89,1.78A4.75,4.75,0,0,1,84.72,345.68Zm7-.7a2.47,2.47,0,0,0-2.41-2.51A2.58,2.58,0,0,0,86.88,345Z" transform="translate(-7.87)"/><path class="c957378c-d521-48a9-a223-c9a56da6db98" d="M306,456.55l1.34-1.59a5.8,5.8,0,0,0,4,1.64c1.36,0,2.23-.65,2.23-1.58v0c0-.9-.51-1.39-2.85-1.93-2.68-.64-4.19-1.44-4.19-3.76v0c0-2.16,1.8-3.65,4.3-3.65a7,7,0,0,1,4.58,1.58l-1.19,1.68a5.72,5.72,0,0,0-3.42-1.3c-1.3,0-2.06.67-2.06,1.5v0c0,1,.58,1.41,3,2,2.66.65,4,1.61,4,3.69v0c0,2.36-1.85,3.76-4.5,3.76A7.79,7.79,0,0,1,306,456.55Z" transform="translate(-7.87)"/><path class="c957378c-d521-48a9-a223-c9a56da6db98" d="M317.63,453.68v0a5.07,5.07,0,0,1,10.13,0v0a5.07,5.07,0,0,1-10.13,0Zm7.95,0v0a2.93,2.93,0,0,0-2.91-3.06,2.85,2.85,0,0,0-2.86,3v0a2.93,2.93,0,0,0,2.89,3A2.85,2.85,0,0,0,325.58,453.68Z" transform="translate(-7.87)"/><path class="c957378c-d521-48a9-a223-c9a56da6db98" d="M330.46,450.75h-1.21v-1.82h1.21v-.7a3.17,3.17,0,0,1,.78-2.34,2.84,2.84,0,0,1,2.14-.76,5.93,5.93,0,0,1,1.76.25v1.84a3.92,3.92,0,0,0-1.28-.23c-.82,0-1.26.45-1.26,1.44V449h2.52v1.8h-2.48v7.63h-2.18Z" transform="translate(-7.87)"/><path class="c957378c-d521-48a9-a223-c9a56da6db98" d="M337.19,455.75v-5H336v-1.87h1.2v-2.61h2.18v2.61h2.56v1.87h-2.56v4.66a1,1,0,0,0,1.17,1.19,3,3,0,0,0,1.35-.32v1.78a3.72,3.72,0,0,1-2,.49C338.33,458.55,337.19,457.84,337.19,455.75Z" transform="translate(-7.87)"/><path class="c957378c-d521-48a9-a223-c9a56da6db98" d="M343.35,448.88h2.23l1.91,6.51,2.11-6.55h1.87l2.11,6.55,1.94-6.51h2.2l-3.12,9.58h-2l-2.13-6.5-2.14,6.5h-1.94Z" transform="translate(-7.87)"/><path class="c957378c-d521-48a9-a223-c9a56da6db98" d="M358.65,455.65v0c0-2.05,1.6-3.06,3.92-3.06a7.77,7.77,0,0,1,2.56.4v-.24c0-1.35-.83-2.07-2.36-2.07a6.66,6.66,0,0,0-2.72.6l-.57-1.72a8.21,8.21,0,0,1,3.58-.77,4.28,4.28,0,0,1,3.15,1.06,4,4,0,0,1,1,2.94v5.63h-2.13V457.2a3.87,3.87,0,0,1-3.09,1.38C360.23,458.58,358.65,457.56,358.65,455.65Zm6.52-.69v-.65a6.21,6.21,0,0,0-2.16-.37c-1.41,0-2.24.59-2.24,1.58v0c0,.91.81,1.44,1.86,1.44C364.07,457,365.17,456.17,365.17,455Z" transform="translate(-7.87)"/><path class="c957378c-d521-48a9-a223-c9a56da6db98" d="M369.85,448.88H372V451a3.37,3.37,0,0,1,3.37-2.32V451h-.13c-1.9,0-3.24,1.24-3.24,3.76v3.62h-2.17Z" transform="translate(-7.87)"/><path class="c957378c-d521-48a9-a223-c9a56da6db98" d="M376.43,453.67v0a4.72,4.72,0,0,1,4.65-4.95c3,0,4.55,2.38,4.55,5.11,0,.2,0,.4,0,.61h-7a2.66,2.66,0,0,0,2.74,2.42,3.44,3.44,0,0,0,2.57-1.14l1.28,1.14a4.8,4.8,0,0,1-3.89,1.78A4.75,4.75,0,0,1,376.43,453.67Zm7-.71a2.46,2.46,0,0,0-2.41-2.5,2.58,2.58,0,0,0-2.47,2.5Z" transform="translate(-7.87)"/><path class="c957378c-d521-48a9-a223-c9a56da6db98" d="M295,467.29H297L302.56,480h-2.35l-1.27-3h-6l-1.3,3h-2.27Zm3.17,7.69-2.18-5-2.16,5Z" transform="translate(-7.87)"/><path class="c957378c-d521-48a9-a223-c9a56da6db98" d="M304.46,470.48h2.18v1.58a3.8,3.8,0,0,1,3.24-1.78c2.23,0,4.41,1.76,4.41,4.93v0c0,3.15-2.16,4.93-4.41,4.93a3.87,3.87,0,0,1-3.24-1.67v4.35h-2.18Zm7.62,4.77v0a2.82,2.82,0,0,0-2.72-3,2.87,2.87,0,0,0-2.78,3v0a2.87,2.87,0,0,0,2.78,3A2.79,2.79,0,0,0,312.08,475.25Z" transform="translate(-7.87)"/><path class="c957378c-d521-48a9-a223-c9a56da6db98" d="M316.54,470.48h2.18v1.58a3.8,3.8,0,0,1,3.24-1.78c2.23,0,4.41,1.76,4.41,4.93v0c0,3.15-2.16,4.93-4.41,4.93a3.87,3.87,0,0,1-3.24-1.67v4.35h-2.18Zm7.61,4.77v0a2.81,2.81,0,0,0-2.71-3,2.87,2.87,0,0,0-2.78,3v0a2.87,2.87,0,0,0,2.78,3A2.78,2.78,0,0,0,324.15,475.25Z" transform="translate(-7.87)"/><path class="c957378c-d521-48a9-a223-c9a56da6db98" d="M328.74,466.84h2.18V480h-2.18Z" transform="translate(-7.87)"/><path class="c957378c-d521-48a9-a223-c9a56da6db98" d="M333.8,467h2.34V469H333.8Zm.09,3.53h2.18V480h-2.18Z" transform="translate(-7.87)"/><path class="c957378c-d521-48a9-a223-c9a56da6db98" d="M338.39,475.28v0a4.91,4.91,0,0,1,4.95-5,4.82,4.82,0,0,1,3.8,1.64l-1.37,1.46a3.16,3.16,0,0,0-2.45-1.19,2.87,2.87,0,0,0-2.75,3v0a2.87,2.87,0,0,0,2.84,3,3.35,3.35,0,0,0,2.47-1.17l1.31,1.3a5,5,0,0,1-8.8-3.14Z" transform="translate(-7.87)"/><path class="c957378c-d521-48a9-a223-c9a56da6db98" d="M348.56,477.25v0c0-2,1.6-3.06,3.92-3.06a7.77,7.77,0,0,1,2.56.4v-.24c0-1.35-.83-2.07-2.36-2.07a6.66,6.66,0,0,0-2.72.6l-.57-1.71a8.06,8.06,0,0,1,3.58-.78,4.28,4.28,0,0,1,3.15,1.06,4,4,0,0,1,1,2.94V480H355V478.8a3.87,3.87,0,0,1-3.09,1.38C350.14,480.18,348.56,479.16,348.56,477.25Zm6.52-.69v-.65a6.21,6.21,0,0,0-2.16-.37c-1.41,0-2.24.59-2.24,1.58v0c0,.91.81,1.44,1.86,1.44C354,478.6,355.08,477.77,355.08,476.56Z" transform="translate(-7.87)"/><path class="c957378c-d521-48a9-a223-c9a56da6db98" d="M360.11,477.35v-5h-1.2v-1.87h1.2v-2.61h2.18v2.61h2.56v1.87h-2.56V477a1,1,0,0,0,1.17,1.19,3,3,0,0,0,1.35-.32v1.78a3.72,3.72,0,0,1-2,.49C361.25,480.15,360.11,479.44,360.11,477.35Z" transform="translate(-7.87)"/><path class="c957378c-d521-48a9-a223-c9a56da6db98" d="M367.1,467h2.34V469H367.1Zm.09,3.53h2.18V480h-2.18Z" transform="translate(-7.87)"/><path class="c957378c-d521-48a9-a223-c9a56da6db98" d="M371.69,475.28v0a5.07,5.07,0,0,1,10.14,0v0a5,5,0,0,1-5.1,4.95A4.91,4.91,0,0,1,371.69,475.28Zm8,0v0a2.94,2.94,0,0,0-2.92-3.06,2.85,2.85,0,0,0-2.86,3v0a2.93,2.93,0,0,0,2.9,3A2.86,2.86,0,0,0,379.65,475.28Z" transform="translate(-7.87)"/><path class="c957378c-d521-48a9-a223-c9a56da6db98" d="M384,470.48h2.18v1.46a3.42,3.42,0,0,1,3-1.66c2.14,0,3.38,1.44,3.38,3.64V480h-2.18v-5.4c0-1.47-.74-2.32-2-2.32a2.11,2.11,0,0,0-2.14,2.36V480H384Z" transform="translate(-7.87)"/><path class="c957378c-d521-48a9-a223-c9a56da6db98" d="M394.42,478.74l1-1.48a5.34,5.34,0,0,0,3.11,1.18c.94,0,1.48-.4,1.48-1v0c0-.74-1-1-2.13-1.33-1.4-.4-3-1-3-2.79v0c0-1.8,1.5-2.9,3.39-2.9a6.59,6.59,0,0,1,3.49,1.09l-.87,1.54a5.57,5.57,0,0,0-2.68-.9c-.84,0-1.33.4-1.33.94v0c0,.7,1,1,2.14,1.35,1.39.43,3,1.06,3,2.77v0c0,2-1.54,3-3.52,3A6.68,6.68,0,0,1,394.42,478.74Z" transform="translate(-7.87)"/><path class="c957378c-d521-48a9-a223-c9a56da6db98" d="M613.74,306.59v0a6.37,6.37,0,0,1,6.49-6.52,6.59,6.59,0,0,1,4.94,2l-1.42,1.64a5,5,0,0,0-3.53-1.57,4.24,4.24,0,0,0-4.16,4.45v0a4.24,4.24,0,0,0,4.16,4.46,4.92,4.92,0,0,0,3.62-1.62l1.42,1.44a6.51,6.51,0,0,1-5.11,2.23A6.33,6.33,0,0,1,613.74,306.59Z" transform="translate(-7.87)"/><path class="c957378c-d521-48a9-a223-c9a56da6db98" d="M627.45,299.71h2.18v13.15h-2.18Z" transform="translate(-7.87)"/><path class="c957378c-d521-48a9-a223-c9a56da6db98" d="M632,308.16v0a5.07,5.07,0,0,1,10.14,0v0a5,5,0,0,1-5.1,4.95A4.91,4.91,0,0,1,632,308.16Zm8,0v0a2.94,2.94,0,0,0-2.92-3.06,2.86,2.86,0,0,0-2.86,3v0a2.93,2.93,0,0,0,2.9,3A2.85,2.85,0,0,0,639.91,308.16Z" transform="translate(-7.87)"/><path class="c957378c-d521-48a9-a223-c9a56da6db98" d="M644.19,309.4v-6h2.18v5.4c0,1.48.74,2.31,2,2.31a2.11,2.11,0,0,0,2.15-2.34v-5.37h2.19v9.51h-2.19v-1.48a3.44,3.44,0,0,1-3,1.68C645.43,313.06,644.19,311.61,644.19,309.4Z" transform="translate(-7.87)"/><path class="c957378c-d521-48a9-a223-c9a56da6db98" d="M655,308.12v0c0-3.16,2.15-4.94,4.41-4.94a3.91,3.91,0,0,1,3.25,1.68v-5.12h2.17v13.15h-2.17v-1.59a3.84,3.84,0,0,1-3.25,1.79C657.15,313.06,655,311.27,655,308.12Zm7.69,0v0a2.86,2.86,0,0,0-2.75-3,2.79,2.79,0,0,0-2.74,3v0a2.82,2.82,0,0,0,2.74,3A2.86,2.86,0,0,0,662.66,308.12Z" transform="translate(-7.87)"/><path class="c957378c-d521-48a9-a223-c9a56da6db98" d="M583,328.19v0a6.37,6.37,0,0,1,6.5-6.52,6.56,6.56,0,0,1,4.93,2L593,325.24a5,5,0,0,0-3.53-1.57,4.25,4.25,0,0,0-4.16,4.45v0a4.25,4.25,0,0,0,4.16,4.46,4.92,4.92,0,0,0,3.62-1.62l1.42,1.44a6.48,6.48,0,0,1-5.11,2.23A6.34,6.34,0,0,1,583,328.19Z" transform="translate(-7.87)"/><path class="c957378c-d521-48a9-a223-c9a56da6db98" d="M595.91,329.76v0a5.07,5.07,0,0,1,10.13,0v0a5,5,0,0,1-5.09,4.95A4.91,4.91,0,0,1,595.91,329.76Zm8,0v0a2.94,2.94,0,0,0-2.91-3.06,2.86,2.86,0,0,0-2.87,3v0a2.93,2.93,0,0,0,2.9,3A2.84,2.84,0,0,0,603.86,329.76Z" transform="translate(-7.87)"/><path class="c957378c-d521-48a9-a223-c9a56da6db98" d="M608.25,325h2.18v1.46a3.47,3.47,0,0,1,3-1.66c2.15,0,3.39,1.44,3.39,3.64v6.07h-2.18v-5.4c0-1.48-.74-2.33-2-2.33a2.12,2.12,0,0,0-2.15,2.36v5.37h-2.18Z" transform="translate(-7.87)"/><path class="c957378c-d521-48a9-a223-c9a56da6db98" d="M619.41,325h2.18v1.46a3.47,3.47,0,0,1,3-1.66c2.15,0,3.39,1.44,3.39,3.64v6.07h-2.18v-5.4c0-1.48-.74-2.33-2-2.33a2.12,2.12,0,0,0-2.15,2.36v5.37h-2.18Z" transform="translate(-7.87)"/><path class="c957378c-d521-48a9-a223-c9a56da6db98" d="M630.05,329.74v0a4.73,4.73,0,0,1,4.65-4.95c3,0,4.55,2.38,4.55,5.12,0,.19,0,.39,0,.61h-7a2.65,2.65,0,0,0,2.74,2.41,3.46,3.46,0,0,0,2.57-1.13l1.28,1.13a4.8,4.8,0,0,1-3.89,1.78A4.75,4.75,0,0,1,630.05,329.74Zm7-.7a2.47,2.47,0,0,0-2.41-2.51,2.58,2.58,0,0,0-2.47,2.51Z" transform="translate(-7.87)"/><path class="c957378c-d521-48a9-a223-c9a56da6db98" d="M640.92,329.76v0a4.91,4.91,0,0,1,5-5,4.79,4.79,0,0,1,3.79,1.64l-1.36,1.46a3.21,3.21,0,0,0-2.45-1.19,2.87,2.87,0,0,0-2.76,3v0a2.88,2.88,0,0,0,2.85,3,3.29,3.29,0,0,0,2.46-1.17l1.32,1.3a5,5,0,0,1-8.81-3.13Z" transform="translate(-7.87)"/><path class="c957378c-d521-48a9-a223-c9a56da6db98" d="M652.17,331.83v-5H651V325h1.2v-2.61h2.18V325h2.56v1.87h-2.56v4.67a1,1,0,0,0,1.17,1.18,2.86,2.86,0,0,0,1.35-.32v1.78a3.72,3.72,0,0,1-2,.49C653.31,334.62,652.17,333.92,652.17,331.83Z" transform="translate(-7.87)"/><path class="c957378c-d521-48a9-a223-c9a56da6db98" d="M659.16,321.42h2.34v2.07h-2.34Zm.09,3.53h2.18v9.51h-2.18Z" transform="translate(-7.87)"/><path class="c957378c-d521-48a9-a223-c9a56da6db98" d="M663.37,325h2.34l2.56,7,2.57-7h2.29l-3.89,9.58h-2Z" transform="translate(-7.87)"/><path class="c957378c-d521-48a9-a223-c9a56da6db98" d="M675,321.42h2.34v2.07H675Zm.09,3.53h2.17v9.51h-2.17Z" transform="translate(-7.87)"/><path class="c957378c-d521-48a9-a223-c9a56da6db98" d="M680.58,331.83v-5h-1.21V325h1.21v-2.61h2.18V325h2.55v1.87h-2.55v4.67a1,1,0,0,0,1.17,1.18,2.89,2.89,0,0,0,1.35-.32v1.78a3.75,3.75,0,0,1-2,.49C681.71,334.62,680.58,333.92,680.58,331.83Z" transform="translate(-7.87)"/><path class="c957378c-d521-48a9-a223-c9a56da6db98" d="M694.12,325h2.26l-3.78,9.78c-.75,1.94-1.6,2.66-3.13,2.66a4.5,4.5,0,0,1-2.25-.57l.74-1.62a2.74,2.74,0,0,0,1.28.36c.61,0,1-.27,1.35-1.08l-4-9.53H689l2.68,7.06Z" transform="translate(-7.87)"/></g></g></g></svg>