<svg xmlns="http://www.w3.org/2000/svg" width="48" height="48" viewBox="0 0 48 48"><defs><style>.ef11269f-d653-497a-b217-2544a63f7be3{fill:#616161;}</style></defs><title>Asset 3</title><g id="d2283457-0b8f-4046-88c5-0e406ed78720" data-name="Layer 2"><g id="033f62e3-86c5-49f9-81e6-b8f35ba4a0b3" data-name="Page Top"><g id="b2a44c56-221f-4fba-adc0-275d977e1c9c" data-name="Intro"><path class="ef11269f-d653-497a-b217-2544a63f7be3" d="M24,0A24,24,0,1,0,48,24,24,24,0,0,0,24,0ZM37.54,41A21.69,21.69,0,0,1,7.05,10.46l.8-1L38.54,40.15ZM41,37.54l-.8,1L9.46,7.85l1-.8A21.69,21.69,0,0,1,41,37.54Zm1.59-13.66-7.87,4.49a1.13,1.13,0,0,1-1.12-2l6.14-3.51-6.14-3.51A1.12,1.12,0,0,1,33,18.2a1.14,1.14,0,0,1,1.71-.78l7.87,4.49a1.14,1.14,0,0,1,.58,1A1.15,1.15,0,0,1,42.54,23.88Zm-13-11.8-3.67,9L24.14,19.3l3.3-8.06a1.14,1.14,0,0,1,.81-.71l.14,0a1.12,1.12,0,0,1,1,.45A1.15,1.15,0,0,1,29.55,12.08ZM17.33,36l4-9.78,1.74,1.74L19.44,36.8A1.14,1.14,0,1,1,17.33,36ZM14.45,19.38,8.31,22.89l6.14,3.51a1.13,1.13,0,0,1-1.12,2L5.46,23.88a1.15,1.15,0,0,1-.58-1,1.14,1.14,0,0,1,.58-1l7.39-4.22,1.66,1.66Z"/></g></g></g></svg>