<svg xmlns="http://www.w3.org/2000/svg" width="80" height="80" viewBox="0 0 80 80"><defs><style>.\33 bad148d-9f18-4147-99f5-1219a29497ae{fill:#00acc1;}</style></defs><title>Asset 11</title><g id="636e47f3-fac4-4907-ad44-1ebd753ddd2f" data-name="Layer 2"><g id="7c6bf654-c83c-44c8-92aa-63343a6e29dc" data-name="Page Mid"><g id="1c5fdaca-c0fc-4004-8f18-3f9a0b56cdf3" data-name="Cloud Tab"><g id="84bc7f37-15c7-42f6-9ca6-9600a3c23c5d" data-name="Cloud Mid"><path id="50bae8d0-85f8-4b8c-9528-2182955dccce" data-name="surface1" class="3bad148d-9f18-4147-99f5-1219a29497ae" d="M73.33,0A3.33,3.33,0,0,0,70,3.33a3.27,3.27,0,0,0,.31,1.36L57,23.33h-.31a3.43,3.43,0,0,0-1.83.52L43.33,18.12a3.33,3.33,0,0,0-6.66.21,3,3,0,0,0,0,.52L24.53,28.54a3.36,3.36,0,0,0-1.2-.21,3.32,3.32,0,0,0-3.28,2.82L8.7,35.73A3.32,3.32,0,1,0,10,38.8L21.3,34.27a3.3,3.3,0,0,0,5.37-2.6,3,3,0,0,0-.06-.52L38.8,21.46a3.48,3.48,0,0,0,3-.31l11.51,5.73A3.34,3.34,0,0,0,60,26.67a3.27,3.27,0,0,0-.31-1.36L73,6.67h.31a3.34,3.34,0,1,0,0-6.67ZM66.67,21.67V80H80V21.67ZM70,25h6.67V76.67H70ZM33.33,36.67V80H46.67V36.67ZM36.67,40h6.66V76.67H36.67ZM50,45V80H63.33V45Zm3.33,3.33H60V76.67H53.33ZM16.67,50V80H30V50ZM20,53.33h6.67V76.67H20ZM0,56.67V80H13.33V56.67ZM3.33,60H10V76.67H3.33Z"/></g></g></g></g></svg>