<svg xmlns="http://www.w3.org/2000/svg" width="89.5" height="70" viewBox="0 0 89.5 70"><defs><style>.\38 b8c5feb-ab3d-47a3-8153-0e2b85577f5b{fill:#00acc1;}</style></defs><title>Asset 9</title><g id="a034a54a-c656-458b-af2d-8b3efc4b5ddd" data-name="Layer 2"><g id="b3bc152c-25ae-4ffd-8be0-2f07546103a9" data-name="Page Mid"><g id="585a2050-e46e-4eb5-a3c3-c499bef5fd3c" data-name="App Tab"><g id="57488148-f93c-46e7-99ed-5b8d8d167cc8" data-name="App Mid"><path id="8d928b64-1c62-42db-8743-7d3b07b98466" data-name="surface1" class="8b8c5feb-ab3d-47a3-8153-0e2b85577f5b" d="M44.75,0a7.8,7.8,0,0,0-7.5,5.83H2A2,2,0,0,0,.26,8.76,2,2,0,0,0,2,9.72H37.25a7.74,7.74,0,0,0,15,0H87.53a2,2,0,0,0,1.71-1,2,2,0,0,0,0-2,2,2,0,0,0-1.71-1H52.25A7.8,7.8,0,0,0,44.75,0Zm0,3.89A3.83,3.83,0,0,1,48.61,7.6V8a3.87,3.87,0,0,1-7.73,0,2,2,0,0,0,0-.35A3.84,3.84,0,0,1,44.75,3.89ZM72,27.22a7.8,7.8,0,0,0-7.5,5.84H2A2,2,0,0,0,.26,34a2,2,0,0,0,0,2,2,2,0,0,0,1.71,1h62.5a7.74,7.74,0,0,0,15,0h8.06a2,2,0,0,0,1.71-1,2,2,0,0,0,0-2,2,2,0,0,0-1.71-1H79.47A7.8,7.8,0,0,0,72,27.22Zm0,3.89a3.85,3.85,0,0,1,3.87,3.72,2,2,0,0,0,0,.35,3.87,3.87,0,0,1-7.74,0,2,2,0,0,0,0-.35A3.85,3.85,0,0,1,72,31.11ZM23.36,54.44a7.8,7.8,0,0,0-7.5,5.84H2a2,2,0,0,0-1.71,1A2,2,0,0,0,2,64.17H15.86a7.74,7.74,0,0,0,15,0H87.53a2,2,0,0,0,1.71-1,2,2,0,0,0,0-2,2,2,0,0,0-1.71-1H30.86A7.8,7.8,0,0,0,23.36,54.44Zm0,3.89a3.86,3.86,0,0,1,3.87,3.72,2,2,0,0,0,0,.35,3.87,3.87,0,0,1-7.74,0,2.16,2.16,0,0,0,0-.36A3.85,3.85,0,0,1,23.36,58.33Z"/></g></g></g></g></svg>