<svg xmlns="http://www.w3.org/2000/svg" width="43.83" height="48" viewBox="0 0 43.83 48"><defs><style>.ca61fb4a-3f1c-4d8f-accb-0d23800940a9{fill:#616161;}</style></defs><title>Asset 7</title><g id="e7c4e3ba-2080-4100-aa36-f1c875c8ffc7" data-name="Layer 2"><g id="6f0f8e18-2996-4af4-b2d2-4747bd47d382" data-name="Page Top"><g id="2a650dbb-7dd0-4202-bb54-0b63466e7ebe" data-name="Intro"><path id="2ab4aa14-a57e-49fa-b7b6-594a83089566" data-name="surface1" class="ca61fb4a-3f1c-4d8f-accb-0d23800940a9" d="M18.11,0C12.43,0,8.77,2.63,7.63,5.45,3.15,6.4,0,11.3,0,16.7a16.7,16.7,0,0,0,1.76,6.9A6.93,6.93,0,0,0,0,28.17c0,2.7,1.77,5.31,4.92,6.75A6,6,0,0,0,5.32,41a7.39,7.39,0,0,0,5.49,2.66A6.16,6.16,0,0,0,14,47.25a10.32,10.32,0,0,0,4.09.75,4.77,4.77,0,0,0,3.8-1.87A4.83,4.83,0,0,0,25.7,48h0a10.1,10.1,0,0,0,4.05-.74A6.29,6.29,0,0,0,33,43.77a10.6,10.6,0,0,0,4.86-1.12,5.67,5.67,0,0,0,2.87-5.09A6.41,6.41,0,0,0,40,34.89a6.69,6.69,0,0,0,3-2.58,8.42,8.42,0,0,0,.9-4.14,6,6,0,0,0-1.94-4.35,17.18,17.18,0,0,0,1.94-7.14c-.1-6.09-4.2-10.37-8.65-11.25C34.19,2.82,31.37,0,25.71,0A4.45,4.45,0,0,0,22,1.49l-.12.17a1.77,1.77,0,0,0-.12-.17A4.44,4.44,0,0,0,18.11,0Zm0,2.09c1.13,0,1.65.18,2,.68s.72,1.62.72,3.69v5.89a.91.91,0,0,0,0,.33v4H17.74V11.48H13.37a3.13,3.13,0,1,0,0,2.09h2.28v5.21h5.22v8.35h-7.3v6.46a3.13,3.13,0,1,0,2.08,0V29.22h5.22v7.13a.92.92,0,0,0,0,.33v6.45a2.6,2.6,0,0,1-2.76,2.78,8.66,8.66,0,0,1-3.26-.57,3.79,3.79,0,0,1-2.36-2.81l-.2-.79h-.81a5.66,5.66,0,0,1-4.49-2c-.87-1.17-1.1-2.69.17-4.81l.66-1.11-1.23-.42c-3.18-1.06-4.5-3.2-4.5-5.27a4.94,4.94,0,0,1,1.6-3.73L4.1,24H7.5a3.13,3.13,0,1,0,0-2.09H3.27A13.58,13.58,0,0,1,2.09,16.7c0-4.8,3-9,6.38-9.4l.69-.09.19-.66C9.82,4.9,12.77,2.09,18.11,2.09Zm7.6,0c5.35,0,7.18,2.54,7.72,4.46l.19.66.69.09c3.52.43,7.34,4,7.43,9.41a16.47,16.47,0,0,1-2,6.84l-.31.66.51.52c1.09,1.1,1.79,1.69,1.79,3.44a6.52,6.52,0,0,1-.64,3.14,4,4,0,0,1-1.45,1.47V28.17H30.26V24.85a3.13,3.13,0,1,0-2.09,0v5.41h9.39v4a1.08,1.08,0,0,0,.14.68h0a7.43,7.43,0,0,1,.91,2.58,3.3,3.3,0,0,1-1.81,3.27,9.53,9.53,0,0,1-4.45.91h-.82l-.19.79a3.83,3.83,0,0,1-2.42,2.81,8.27,8.27,0,0,1-3.2.57A2.6,2.6,0,0,1,23,43.13V37.56h4.37a3.13,3.13,0,1,0,0-2.08H23V28.35A1,1,0,0,0,23,28V17.91a.92.92,0,0,0,0-.33v-4H31.5a3.14,3.14,0,1,0,0-2.09H23v-5c0-2.07.33-3.19.72-3.69S24.58,2.09,25.71,2.09ZM10.43,11.48a1,1,0,0,1,1,1,.24.24,0,0,0,0,.12,1,1,0,1,1-1-1.1Zm24,0a1,1,0,1,1-1,1.1.24.24,0,0,0,0-.12A1,1,0,0,1,34.43,11.48Zm-5.21,9.39a1,1,0,0,1,1,1,1,1,0,0,1-1,1h-.12a1,1,0,0,1-1-1A1,1,0,0,1,29.22,20.87Zm-18.79,1A1,1,0,1,1,9.4,23a.24.24,0,0,0,0-.12A1,1,0,0,1,10.43,21.91ZM30.26,35.48a1,1,0,1,1-1,1.1v-.12A1,1,0,0,1,30.26,35.48Zm-15.71,0h.12a1,1,0,1,1-.12,0Z"/></g></g></g></svg>