<svg xmlns="http://www.w3.org/2000/svg" width="22" height="22" viewBox="0 0 22 22"><defs><style>.a{fill:#9e9e9e;}</style></defs><title>Embedded</title><path class="a" d="M5.726,0a.492.492,0,0,0-.055.014.44.44,0,0,0-.342.439v2.2h.877V1.4a.4.4,0,0,0,0-.069V.455A.439.439,0,0,0,5.726,0ZM8.358,0A.442.442,0,0,0,8.3.016.44.44,0,0,0,7.96.455v2.2h.877V1.4a.4.4,0,0,0,0-.069V.455A.439.439,0,0,0,8.358,0Zm2.631,0a.442.442,0,0,0-.055.014.44.44,0,0,0-.343.439v2.2h.878V1.4c0-.022,0-.046,0-.069V.455A.439.439,0,0,0,10.989,0ZM13.62,0a.492.492,0,0,0-.055.014.44.44,0,0,0-.342.439v2.2H14.1V1.4a.4.4,0,0,0,0-.069V.455A.439.439,0,0,0,13.62,0Zm2.632,0A.442.442,0,0,0,16.2.016a.44.44,0,0,0-.343.439v2.2h.877V1.4a.4.4,0,0,0,0-.069V.455A.439.439,0,0,0,16.252,0ZM4.575,3.093A1.446,1.446,0,0,0,3.136,4.535v12.94a1.447,1.447,0,0,0,1.439,1.442h12.91a1.447,1.447,0,0,0,1.439-1.442V4.535a1.446,1.446,0,0,0-1.439-1.442ZM.381,5.291a.444.444,0,0,0,.124.879H2.7V5.291H.381Zm18.982,0V6.17h2.192a.44.44,0,1,0,0-.879ZM.381,7.928a.444.444,0,0,0,.124.879H2.7V7.928H.381Zm6.7,0h7.894v6.154H7.083Zm12.28,0v.879h2.192a.44.44,0,1,0,0-.879ZM.381,10.565a.444.444,0,0,0,.124.879H2.7v-.879H.381Zm18.982,0v.879h2.192a.44.44,0,1,0,0-.879ZM.381,13.2a.444.444,0,0,0,.124.879H2.7V13.2H.381Zm18.982,0v.879h2.192a.44.44,0,1,0,0-.879ZM.381,15.84a.444.444,0,0,0,.124.879H2.7V15.84H.381Zm18.982,0v.879h2.192a.44.44,0,1,0,0-.879ZM5.329,19.357v1.236a.282.282,0,0,0,0,.082v.879a.439.439,0,1,0,.877,0v-.879a.375.375,0,0,0,0-.082V19.357Zm2.631,0v1.236a.253.253,0,0,0,0,.055v.906a.439.439,0,1,0,.877,0v-.879a.282.282,0,0,0,0-.082V19.357Zm2.631,0v1.236a.5.5,0,0,0,0,.055v.906a.439.439,0,1,0,.878,0v-.879a.375.375,0,0,0,0-.082V19.357Zm2.632,0v1.236a.253.253,0,0,0,0,.055v.906a.439.439,0,1,0,.877,0v-.879a.375.375,0,0,0,0-.082V19.357Zm2.631,0v1.236a.253.253,0,0,0,0,.055v.906a.439.439,0,1,0,.877,0v-.879a.282.282,0,0,0,0-.082V19.357Z"/></svg>