<svg xmlns="http://www.w3.org/2000/svg" width="80" height="80" viewBox="0 0 80 80"><defs><style>.\37 b4370fa-dd3e-41e4-b583-5359ac684916{fill:#00acc1;}</style></defs><title>Asset 7</title><g id="a672455b-523b-4d6f-9309-8d170352eef6" data-name="Layer 2"><g id="5890998a-34ad-4ecb-929f-e3402f09be4b" data-name="Page Mid"><g id="a8b2f5fc-4232-4c2a-bf44-a67893cdb883" data-name="Embedded Tab"><g id="900e9d89-4ea6-46bf-bbaa-362cb0e61dec" data-name="Embedded Mid"><path id="af817867-1a2b-49b3-87a1-db6ca4492fc2" data-name="surface1" class="7b4370fa-dd3e-41e4-b583-5359ac684916" d="M9.52,0A9.56,9.56,0,0,0,0,9.52v61A9.56,9.56,0,0,0,9.52,80h61A9.56,9.56,0,0,0,80,70.48v-61A9.56,9.56,0,0,0,70.48,0Zm0,3.81h61a5.69,5.69,0,0,1,5.71,5.71v61a5.69,5.69,0,0,1-5.71,5.71h-61a5.69,5.69,0,0,1-5.71-5.71v-61A5.69,5.69,0,0,1,9.52,3.81ZM40,7.62A32.38,32.38,0,1,0,72.38,40,32.42,32.42,0,0,0,40,7.62Zm0,1.9A30.48,30.48,0,1,1,9.52,40,30.5,30.5,0,0,1,40,9.52Zm0,3.81A26.67,26.67,0,1,0,66.67,40,26.72,26.72,0,0,0,40,13.33Zm0,3.81A22.86,22.86,0,1,1,17.14,40,22.87,22.87,0,0,1,40,17.14Zm0,4.76A18.1,18.1,0,1,0,58.1,40,18.15,18.15,0,0,0,40,21.9Zm0,5.72A12.38,12.38,0,1,1,27.62,40,12.36,12.36,0,0,1,40,27.62Zm0,6.67A5.71,5.71,0,1,0,45.71,40,5.71,5.71,0,0,0,40,34.29Z"/></g></g></g></g></svg>