<svg xmlns="http://www.w3.org/2000/svg" width="48" height="45.95" viewBox="0 0 48 45.95"><defs><style>.\37 d5f37ee-4a28-402f-a5f8-139231f9f2ac{fill:#616161;}</style></defs><title>Asset 4</title><g id="d1eeaca6-9715-475e-9c6f-eb6261a69b22" data-name="Layer 2"><g id="9c7d5eaf-edb9-4d4a-ab64-f339ac040ff4" data-name="Page Top"><g id="a0483e55-bf8b-4c71-a0f8-afa347a494e6" data-name="Intro"><g id="b493922b-e6f2-4a28-b138-03a6ccfbe696" data-name="surface1"><path class="7d5f37ee-4a28-402f-a5f8-139231f9f2ac" d="M23.9,0l-.13,0a1,1,0,0,0-.81,1V22.54l-7.6-7.6a1,1,0,0,0-1-.29,1,1,0,0,0-.81.73,1,1,0,0,0,.29,1.06l9.39,9.39a1,1,0,0,0,1.5,0l9.39-9.39a1.06,1.06,0,0,0-1.5-1.5L25,22.54V1.08a1,1,0,0,0-.32-.79A1.08,1.08,0,0,0,23.9,0ZM8,5.25A1.94,1.94,0,0,0,6.1,6.85h0v.07L.13,32.74a2,2,0,0,0-.13.69V43.86A2.11,2.11,0,0,0,2.09,46H45.91A2.11,2.11,0,0,0,48,43.86V33.43a2.05,2.05,0,0,0-.16-.75v-.07l0,0L41.93,6.92V6.85h0A1.94,1.94,0,0,0,40,5.25H28.17V7.34H39.88l5.48,24H2.58l5.54-24H19.83V5.25ZM2.09,33.43H45.91V43.86H2.09Zm37.56,3.13a2.09,2.09,0,1,0,2.09,2.09A2.09,2.09,0,0,0,39.65,36.56Z"/></g></g></g></g></svg>