<svg xmlns="http://www.w3.org/2000/svg" width="600" height="500" viewBox="0 0 600 500"><defs><style>.a{fill:#fff;}.b{fill:#37474f;}</style></defs><title>IntegratedSolutions</title><path class="a" d="M391.084,175.041a2.133,2.133,0,0,1-1.07-.287l-5.2-3a2.143,2.143,0,0,1,2.143-3.712l5.2,3a2.143,2.143,0,0,1-1.073,4Z"/><path class="a" d="M479.414,226.039a2.134,2.134,0,0,1-1.07-.288L467.3,219.376a2.143,2.143,0,0,1,2.143-3.711l11.041,6.374a2.144,2.144,0,0,1-1.073,4Zm-22.083-12.75a2.133,2.133,0,0,1-1.07-.287l-11.04-6.375a2.142,2.142,0,1,1,2.142-3.711L458.4,209.29a2.143,2.143,0,0,1-1.073,4ZM435.249,200.54a2.13,2.13,0,0,1-1.07-.287l-11.042-6.375a2.143,2.143,0,0,1,2.143-3.712l11.042,6.375a2.143,2.143,0,0,1-1.073,4Zm-22.083-12.749a2.128,2.128,0,0,1-1.069-.288l-11.042-6.375a2.143,2.143,0,0,1,2.143-3.711l11.041,6.375a2.143,2.143,0,0,1-1.073,4Z"/><path class="a" d="M495.651,235.414a2.128,2.128,0,0,1-1.069-.288l-5.2-3a2.143,2.143,0,0,1,2.143-3.712l5.2,3a2.144,2.144,0,0,1-1.073,4Z"/><path class="b" d="M389.371,174.184a1.267,1.267,0,0,1-.642-.173l-5.2-3a1.285,1.285,0,0,1,1.286-2.226l5.2,3a1.286,1.286,0,0,1-.643,2.4Z"/><path class="b" d="M477.7,225.181a1.276,1.276,0,0,1-.642-.172l-11.042-6.375a1.286,1.286,0,0,1,1.286-2.227l11.041,6.375a1.286,1.286,0,0,1-.643,2.4Zm-22.083-12.749a1.267,1.267,0,0,1-.642-.173l-11.041-6.374a1.286,1.286,0,1,1,1.286-2.227l11.04,6.375a1.286,1.286,0,0,1-.643,2.4Zm-22.083-12.749a1.282,1.282,0,0,1-.642-.173l-11.041-6.375a1.285,1.285,0,1,1,1.285-2.226l11.042,6.375a1.286,1.286,0,0,1-.644,2.4Zm-22.082-12.75a1.276,1.276,0,0,1-.642-.172l-11.042-6.375a1.286,1.286,0,0,1,1.286-2.227l11.042,6.375a1.286,1.286,0,0,1-.644,2.4Z"/><path class="b" d="M493.938,234.556a1.276,1.276,0,0,1-.642-.172l-5.2-3a1.286,1.286,0,0,1,1.286-2.227l5.2,3a1.286,1.286,0,0,1-.644,2.4Z"/><path class="a" d="M528.091,307.762v-.028a4.961,4.961,0,0,1,5.056-5.071,5.113,5.113,0,0,1,3.839,1.527l-1.107,1.275a3.9,3.9,0,0,0-2.745-1.219,3.3,3.3,0,0,0-3.236,3.46v.028a3.3,3.3,0,0,0,3.236,3.474,3.83,3.83,0,0,0,2.815-1.261l1.107,1.121a5.058,5.058,0,0,1-3.978,1.737A4.933,4.933,0,0,1,528.091,307.762Z"/><path class="a" d="M538.76,302.411h1.694v10.226H538.76Z"/><path class="a" d="M542.259,308.98v-.027a3.945,3.945,0,0,1,7.887-.028v.028a3.868,3.868,0,0,1-3.965,3.852A3.825,3.825,0,0,1,542.259,308.98Zm6.191,0v-.027a2.286,2.286,0,0,0-2.269-2.382,2.22,2.22,0,0,0-2.227,2.354v.028a2.28,2.28,0,0,0,2.255,2.367A2.218,2.218,0,0,0,548.45,308.98Z"/><path class="a" d="M551.779,309.947V305.24h1.7v4.2c0,1.149.574,1.793,1.582,1.793a1.634,1.634,0,0,0,1.667-1.821V305.24h1.709v7.4h-1.709v-1.149a2.661,2.661,0,0,1-2.311,1.3A2.54,2.54,0,0,1,551.779,309.947Z"/><path class="a" d="M560.165,308.953v-.028a3.53,3.53,0,0,1,3.432-3.838,3.024,3.024,0,0,1,2.521,1.3v-3.979h1.695v10.226h-1.695V311.4a2.958,2.958,0,0,1-2.521,1.387A3.546,3.546,0,0,1,560.165,308.953Zm5.981,0v-.028A2.219,2.219,0,0,0,564,306.558a2.167,2.167,0,0,0-2.129,2.367v.028A2.2,2.2,0,0,0,564,311.32,2.228,2.228,0,0,0,566.146,308.953Z"/><path class="a" d="M504.2,324.562v-.028a4.962,4.962,0,0,1,5.057-5.071,5.116,5.116,0,0,1,3.839,1.527l-1.108,1.275a3.9,3.9,0,0,0-2.745-1.219,3.3,3.3,0,0,0-3.235,3.46v.028a3.3,3.3,0,0,0,3.235,3.474,3.832,3.832,0,0,0,2.816-1.261l1.106,1.12a5.053,5.053,0,0,1-3.977,1.737A4.932,4.932,0,0,1,504.2,324.562Z"/><path class="a" d="M514.225,325.78v-.027a3.944,3.944,0,0,1,7.886-.028v.028a3.866,3.866,0,0,1-3.965,3.851A3.824,3.824,0,0,1,514.225,325.78Zm6.191,0v-.027a2.286,2.286,0,0,0-2.27-2.382,2.22,2.22,0,0,0-2.226,2.354v.028a2.279,2.279,0,0,0,2.255,2.367A2.218,2.218,0,0,0,520.416,325.78Z"/><path class="a" d="M523.829,322.041h1.7v1.134a2.679,2.679,0,0,1,2.311-1.288,2.535,2.535,0,0,1,2.634,2.829v4.721h-1.7v-4.2c0-1.148-.574-1.806-1.582-1.806a1.645,1.645,0,0,0-1.667,1.835v4.174h-1.7Z"/><path class="a" d="M532.509,322.041H534.2v1.134a2.678,2.678,0,0,1,2.311-1.288,2.534,2.534,0,0,1,2.633,2.829v4.721h-1.7v-4.2c0-1.148-.574-1.806-1.582-1.806a1.645,1.645,0,0,0-1.667,1.835v4.174h-1.695Z"/><path class="a" d="M540.782,325.767v-.029a3.67,3.67,0,0,1,3.614-3.851c2.354,0,3.544,1.848,3.544,3.977,0,.155-.014.309-.028.477h-5.434a2.063,2.063,0,0,0,2.128,1.877,2.682,2.682,0,0,0,2-.883l1,.883a3.739,3.739,0,0,1-3.026,1.386A3.69,3.69,0,0,1,540.782,325.767Zm5.478-.546a1.922,1.922,0,0,0-1.877-1.948,2,2,0,0,0-1.92,1.948Z"/><path class="a" d="M549.238,325.78v-.027a3.817,3.817,0,0,1,3.853-3.866,3.731,3.731,0,0,1,2.955,1.274l-1.065,1.135a2.479,2.479,0,0,0-1.9-.925,2.231,2.231,0,0,0-2.142,2.354v.028a2.238,2.238,0,0,0,2.212,2.367,2.585,2.585,0,0,0,1.919-.911l1.023,1.009a3.879,3.879,0,0,1-6.85-2.438Z"/><path class="a" d="M557.989,327.392V323.5h-.938v-1.456h.938V320.01h1.695v2.031h1.989V323.5h-1.989v3.628a.808.808,0,0,0,.911.925,2.277,2.277,0,0,0,1.05-.252v1.387a2.93,2.93,0,0,1-1.527.378A1.9,1.9,0,0,1,557.989,327.392Z"/><path class="a" d="M563.421,319.3h1.821v1.611h-1.821Zm.07,2.746h1.7v7.4h-1.7Z"/><path class="a" d="M566.7,322.041h1.822l1.988,5.435,2-5.435h1.778l-3.025,7.451h-1.527Z"/><path class="a" d="M575.755,319.3h1.821v1.611h-1.821Zm.07,2.746h1.695v7.4h-1.695Z"/><path class="a" d="M580.081,327.392V323.5h-.938v-1.456h.938V320.01h1.694v2.031h1.99V323.5h-1.99v3.628a.808.808,0,0,0,.912.925,2.276,2.276,0,0,0,1.049-.252v1.387a2.929,2.929,0,0,1-1.526.378A1.9,1.9,0,0,1,580.081,327.392Z"/><path class="a" d="M590.611,322.041h1.765l-2.941,7.605c-.588,1.513-1.247,2.074-2.438,2.074a3.487,3.487,0,0,1-1.751-.449l.574-1.26a2.093,2.093,0,0,0,1,.28c.476,0,.771-.21,1.051-.841l-3.082-7.409h1.821l2.087,5.49Z"/><path class="a" d="M578.159,263.431c.013-.319.026-.632.026-.938a21.894,21.894,0,0,0-41.54-9.7,11.678,11.678,0,0,0-18.081,8.964,16.119,16.119,0,0,0,5.513,31.265h52.364a14.846,14.846,0,0,0,1.718-29.591Z"/><path class="b" d="M553.2,237.479a21.779,21.779,0,0,0-19.579,12.554,11.465,11.465,0,0,0-6.509-2.24A11.588,11.588,0,0,0,515.6,258.837a16,16,0,0,0,5.363,31.1h52.384a14.87,14.87,0,0,0,14.84-14.847,14.691,14.691,0,0,0-13.174-14.481c.026-.4.1-.782.1-1.2A21.96,21.96,0,0,0,553.2,237.479Zm0,3.334a18.575,18.575,0,0,1,18.59,18.6,18.279,18.279,0,0,1-.157,2.292l-.26,1.875h1.979a11.513,11.513,0,0,1,0,23.025H520.965a12.787,12.787,0,0,1-3.385-25.109l1.25-.312-.052-1.355c-.007-.234,0-.351,0-.364a8.358,8.358,0,0,1,14.268-5.887l1.822,1.876.885-2.449A18.639,18.639,0,0,1,553.2,240.813Z"/><path class="a" d="M296.45,193.067a2.142,2.142,0,0,1-2.143-2.142v-6a2.143,2.143,0,0,1,4.286,0v6A2.142,2.142,0,0,1,296.45,193.067Z"/><path class="a" d="M296.45,301.9a2.142,2.142,0,0,1-2.143-2.143V288.874a2.143,2.143,0,0,1,4.286,0v10.883A2.142,2.142,0,0,1,296.45,301.9Zm0-21.766a2.142,2.142,0,0,1-2.143-2.143V267.108a2.143,2.143,0,0,1,4.286,0v10.883A2.142,2.142,0,0,1,296.45,280.134Zm0-21.766a2.143,2.143,0,0,1-2.143-2.143V245.341a2.143,2.143,0,0,1,4.286,0v10.884A2.143,2.143,0,0,1,296.45,258.368Zm0-21.767a2.142,2.142,0,0,1-2.143-2.143V223.575a2.143,2.143,0,0,1,4.286,0v10.883A2.142,2.142,0,0,1,296.45,236.6Zm0-21.767a2.142,2.142,0,0,1-2.143-2.143V201.808a2.143,2.143,0,0,1,4.286,0v10.883A2.142,2.142,0,0,1,296.45,214.834Z"/><path class="a" d="M296.45,318.784a2.142,2.142,0,0,1-2.143-2.142v-6a2.143,2.143,0,0,1,4.286,0v6A2.142,2.142,0,0,1,296.45,318.784Z"/><path class="b" d="M294.736,190.5a1.286,1.286,0,0,1-1.286-1.286v-6a1.286,1.286,0,0,1,2.571,0v6A1.285,1.285,0,0,1,294.736,190.5Z"/><path class="b" d="M294.736,299.329a1.286,1.286,0,0,1-1.286-1.286V287.16a1.286,1.286,0,1,1,2.571,0v10.883A1.285,1.285,0,0,1,294.736,299.329Zm0-21.766a1.286,1.286,0,0,1-1.286-1.286V265.394a1.286,1.286,0,1,1,2.571,0v10.883A1.285,1.285,0,0,1,294.736,277.563Zm0-21.767a1.286,1.286,0,0,1-1.286-1.286V243.627a1.286,1.286,0,1,1,2.571,0V254.51A1.285,1.285,0,0,1,294.736,255.8Zm0-21.767a1.285,1.285,0,0,1-1.286-1.285V221.86a1.286,1.286,0,0,1,2.571,0v10.884A1.285,1.285,0,0,1,294.736,234.029Zm0-21.766a1.286,1.286,0,0,1-1.286-1.286V200.094a1.286,1.286,0,1,1,2.571,0v10.883A1.285,1.285,0,0,1,294.736,212.263Z"/><path class="b" d="M294.736,316.213a1.286,1.286,0,0,1-1.286-1.286v-6a1.286,1.286,0,0,1,2.571,0v6A1.285,1.285,0,0,1,294.736,316.213Z"/><path class="a" d="M265.47,436.179l1.036-1.233a4.54,4.54,0,0,0,3.1,1.275c1.065,0,1.737-.5,1.737-1.233v-.028c0-.7-.392-1.078-2.213-1.5-2.087-.5-3.264-1.12-3.264-2.928v-.027c0-1.682,1.4-2.844,3.348-2.844a5.438,5.438,0,0,1,3.558,1.233l-.925,1.3a4.453,4.453,0,0,0-2.661-1.009c-1.009,0-1.6.519-1.6,1.164v.028c0,.756.448,1.092,2.339,1.54,2.074.5,3.138,1.247,3.138,2.872v.028c0,1.835-1.443,2.927-3.5,2.927A6.042,6.042,0,0,1,265.47,436.179Z"/><path class="a" d="M274.486,433.951v-.027a3.944,3.944,0,0,1,7.886-.028v.028a3.867,3.867,0,0,1-3.964,3.851A3.825,3.825,0,0,1,274.486,433.951Zm6.191,0v-.027a2.286,2.286,0,0,0-2.269-2.382,2.219,2.219,0,0,0-2.227,2.354v.028a2.28,2.28,0,0,0,2.255,2.367A2.218,2.218,0,0,0,280.677,433.951Z"/><path class="a" d="M284.468,431.668h-.938v-1.414h.938v-.547a2.5,2.5,0,0,1,.6-1.821,2.243,2.243,0,0,1,1.667-.588,4.535,4.535,0,0,1,1.373.2v1.429a2.977,2.977,0,0,0-.994-.183c-.645,0-.981.351-.981,1.121v.407H288.1v1.4h-1.933v5.939h-1.695Z"/><path class="a" d="M289.7,435.563v-3.895h-.939v-1.457h.939v-2.03H291.4v2.03h1.989v1.457H291.4V435.3a.807.807,0,0,0,.91.925,2.281,2.281,0,0,0,1.051-.252v1.386a2.923,2.923,0,0,1-1.527.378A1.9,1.9,0,0,1,289.7,435.563Z"/><path class="a" d="M294.491,430.211h1.737l1.485,5.071,1.639-5.1h1.457l1.639,5.1,1.513-5.071h1.709l-2.424,7.452H301.72l-1.654-5.057-1.667,5.057h-1.512Z"/><path class="a" d="M306.392,435.479v-.029c0-1.6,1.247-2.381,3.053-2.381a6.193,6.193,0,0,1,1.99.308V433.2c0-1.05-.645-1.611-1.835-1.611a5.152,5.152,0,0,0-2.116.463l-.448-1.331a6.311,6.311,0,0,1,2.787-.6,3.312,3.312,0,0,1,2.451.826,3.07,3.07,0,0,1,.8,2.284v4.384H311.42v-.924a3.005,3.005,0,0,1-2.409,1.079A2.362,2.362,0,0,1,306.392,435.479Zm5.071-.533v-.505a4.708,4.708,0,0,0-1.682-.294c-1.093,0-1.736.462-1.736,1.233v.028c0,.715.63,1.121,1.442,1.121C310.608,436.529,311.463,435.885,311.463,434.946Z"/><path class="a" d="M315.1,430.211H316.8v1.667a2.622,2.622,0,0,1,2.619-1.807v1.793h-.1c-1.485,0-2.521.967-2.521,2.928v2.815H315.1Z"/><path class="a" d="M320.225,433.938v-.029a3.67,3.67,0,0,1,3.614-3.851c2.353,0,3.544,1.848,3.544,3.977,0,.154-.015.309-.029.477H321.92a2.064,2.064,0,0,0,2.129,1.877,2.684,2.684,0,0,0,2-.883l1,.883a3.743,3.743,0,0,1-3.026,1.386A3.69,3.69,0,0,1,320.225,433.938Zm5.477-.546a1.921,1.921,0,0,0-1.878-1.948,2,2,0,0,0-1.919,1.948Z"/><path class="a" d="M256.855,444.532h1.6l4.314,9.875h-1.821l-1-2.367h-4.636l-1.009,2.367h-1.764Zm2.466,5.981-1.7-3.922-1.681,3.922Z"/><path class="a" d="M264.246,447.012h1.694v1.232a2.963,2.963,0,0,1,2.522-1.387,3.538,3.538,0,0,1,3.432,3.838v.029a3.538,3.538,0,0,1-3.432,3.838,3.024,3.024,0,0,1-2.522-1.3v3.389h-1.694Zm5.925,3.712V450.7a2.19,2.19,0,0,0-2.115-2.367A2.23,2.23,0,0,0,265.9,450.7v.029a2.231,2.231,0,0,0,2.158,2.367A2.166,2.166,0,0,0,270.171,450.724Z"/><path class="a" d="M273.64,447.012h1.694v1.232a2.963,2.963,0,0,1,2.522-1.387,3.538,3.538,0,0,1,3.432,3.838v.029a3.538,3.538,0,0,1-3.432,3.838,3.025,3.025,0,0,1-2.522-1.3v3.389H273.64Zm5.925,3.712V450.7a2.19,2.19,0,0,0-2.115-2.367,2.23,2.23,0,0,0-2.158,2.367v.029a2.231,2.231,0,0,0,2.158,2.367A2.166,2.166,0,0,0,279.565,450.724Z"/><path class="a" d="M283.132,444.182h1.695v10.225h-1.695Z"/><path class="a" d="M287.066,444.266h1.821v1.611h-1.821Zm.07,2.746h1.695v7.395h-1.695Z"/><path class="a" d="M290.635,450.751v-.027a3.818,3.818,0,0,1,3.852-3.867,3.734,3.734,0,0,1,2.956,1.275l-1.065,1.135a2.479,2.479,0,0,0-1.9-.925,2.23,2.23,0,0,0-2.143,2.353v.029a2.238,2.238,0,0,0,2.212,2.367,2.585,2.585,0,0,0,1.919-.911l1.023,1.008a3.878,3.878,0,0,1-6.85-2.437Z"/><path class="a" d="M298.545,452.278v-.028c0-1.6,1.247-2.381,3.055-2.381a6.182,6.182,0,0,1,1.989.308V450c0-1.051-.645-1.611-1.835-1.611a5.14,5.14,0,0,0-2.116.463l-.448-1.331a6.3,6.3,0,0,1,2.788-.6,3.315,3.315,0,0,1,2.451.826,3.068,3.068,0,0,1,.8,2.283v4.385h-1.654v-.925a3,3,0,0,1-2.409,1.08A2.363,2.363,0,0,1,298.545,452.278Zm5.072-.532v-.5a4.7,4.7,0,0,0-1.681-.294c-1.093,0-1.738.462-1.738,1.233v.028c0,.715.631,1.121,1.444,1.121C302.763,453.329,303.617,452.685,303.617,451.746Z"/><path class="a" d="M307.534,452.362v-3.894H306.6v-1.456h.938V444.98h1.695v2.032h1.989v1.456h-1.989V452.1a.808.808,0,0,0,.911.925,2.27,2.27,0,0,0,1.049-.252v1.386a2.914,2.914,0,0,1-1.526.378A1.9,1.9,0,0,1,307.534,452.362Z"/><path class="a" d="M312.966,444.266h1.821v1.611h-1.821Zm.07,2.746h1.694v7.395h-1.694Z"/><path class="a" d="M316.535,450.751v-.027a3.945,3.945,0,0,1,7.887-.029v.029a3.868,3.868,0,0,1-3.965,3.851A3.825,3.825,0,0,1,316.535,450.751Zm6.192,0v-.027a2.287,2.287,0,0,0-2.27-2.382,2.22,2.22,0,0,0-2.227,2.353v.029a2.28,2.28,0,0,0,2.255,2.367A2.22,2.22,0,0,0,322.727,450.751Z"/><path class="a" d="M326.14,447.012h1.695v1.134a2.678,2.678,0,0,1,2.311-1.289,2.535,2.535,0,0,1,2.633,2.83v4.72h-1.695v-4.2c0-1.148-.574-1.807-1.582-1.807a1.645,1.645,0,0,0-1.667,1.835v4.174H326.14Z"/><path class="a" d="M334.217,453.44l.757-1.148a4.178,4.178,0,0,0,2.422.91c.729,0,1.15-.307,1.15-.8v-.028c0-.574-.785-.771-1.653-1.036-1.093-.309-2.312-.757-2.312-2.172v-.027a2.359,2.359,0,0,1,2.634-2.256,5.126,5.126,0,0,1,2.718.841l-.673,1.2a4.287,4.287,0,0,0-2.087-.7c-.658,0-1.037.309-1.037.729v.028c0,.546.8.771,1.667,1.051,1.079.336,2.3.826,2.3,2.157v.028c0,1.555-1.2,2.325-2.747,2.325A5.2,5.2,0,0,1,334.217,453.44Z"/><path class="a" d="M266.889,341.687a5.99,5.99,0,0,0-5.925,6.045v57.432a5.991,5.991,0,0,0,5.925,6.046h31.1V399.119H268.37V349.244h38.51v12.091h7.406v-13.6a5.99,5.99,0,0,0-5.925-6.045Zm37.029,21.159a4.5,4.5,0,0,0-4.444,4.534v43.83a4.5,4.5,0,0,0,4.444,4.534h26.66a4.5,4.5,0,0,0,4.444-4.534V367.38a4.5,4.5,0,0,0-4.444-4.534Zm2.962,7.557h20.736v33.25H306.88Zm-19.255,31.739a2.267,2.267,0,1,1-2.222,2.267A2.245,2.245,0,0,1,287.625,402.142Zm29.623,4.534a2.267,2.267,0,1,1-2.222,2.267A2.246,2.246,0,0,1,317.248,406.676Z"/><path class="b" d="M263.8,338.6a6.005,6.005,0,0,0-5.924,6.046v57.432a6,6,0,0,0,5.924,6.045h31.1V405.1H263.8a2.969,2.969,0,0,1-2.962-3.022V344.647a2.969,2.969,0,0,1,2.962-3.023h41.472a2.969,2.969,0,0,1,2.963,3.023v13.6H311.2v-13.6a6.005,6.005,0,0,0-5.925-6.046Zm1.2,6.046a1.5,1.5,0,0,0-1.2,1.511v49.875a1.5,1.5,0,0,0,1.481,1.512h29.623v-3.023H266.766V347.669h35.547v10.58h2.962V346.158a1.5,1.5,0,0,0-1.481-1.511H265.007Zm35.825,15.113a4.514,4.514,0,0,0-4.444,4.534v43.83a4.513,4.513,0,0,0,4.444,4.534h26.66a4.513,4.513,0,0,0,4.444-4.534v-43.83a4.514,4.514,0,0,0-4.444-4.534Zm0,3.023h26.66a1.471,1.471,0,0,1,1.482,1.511v43.83a1.471,1.471,0,0,1-1.482,1.512h-26.66a1.471,1.471,0,0,1-1.481-1.512v-43.83A1.47,1.47,0,0,1,300.832,362.783Zm2.684,3.023a1.5,1.5,0,0,0-1.2,1.511v33.25a1.5,1.5,0,0,0,1.481,1.512H324.53a1.5,1.5,0,0,0,1.481-1.512v-33.25a1.5,1.5,0,0,0-1.481-1.511H303.516Zm1.759,3.023h17.774v30.227H305.275Zm-20.736,30.227a2.267,2.267,0,1,0,2.222,2.267A2.245,2.245,0,0,0,284.539,399.056Zm29.623,4.534a2.267,2.267,0,1,0,2.222,2.267A2.246,2.246,0,0,0,314.162,403.59Z"/><path class="a" d="M201.817,176.756a2.143,2.143,0,0,1-1.074-4l5.2-3a2.143,2.143,0,1,1,2.143,3.711l-5.2,3A2.131,2.131,0,0,1,201.817,176.756Z"/><path class="a" d="M113.487,227.753a2.143,2.143,0,0,1-1.074-4l11.041-6.375a2.143,2.143,0,1,1,2.143,3.712l-11.041,6.374A2.131,2.131,0,0,1,113.487,227.753ZM135.569,215a2.143,2.143,0,0,1-1.073-4l11.041-6.375a2.143,2.143,0,0,1,2.143,3.712l-11.042,6.374A2.131,2.131,0,0,1,135.569,215Zm22.083-12.75a2.143,2.143,0,0,1-1.074-4l11.041-6.375a2.143,2.143,0,1,1,2.143,3.712l-11.041,6.375A2.129,2.129,0,0,1,157.652,202.254Zm22.083-12.749a2.143,2.143,0,0,1-1.074-4l11.041-6.375a2.143,2.143,0,0,1,2.143,3.712L180.8,189.217A2.131,2.131,0,0,1,179.735,189.505Z"/><path class="a" d="M97.249,237.128a2.143,2.143,0,0,1-1.073-4l5.2-3a2.143,2.143,0,0,1,2.143,3.711l-5.2,3A2.137,2.137,0,0,1,97.249,237.128Z"/><path class="b" d="M200.1,174.184a1.286,1.286,0,0,1-.644-2.4l5.2-3a1.285,1.285,0,1,1,1.285,2.226l-5.2,3A1.266,1.266,0,0,1,200.1,174.184Z"/><path class="b" d="M111.772,225.181a1.286,1.286,0,0,1-.644-2.4l11.041-6.375a1.286,1.286,0,1,1,1.285,2.227l-11.041,6.375A1.275,1.275,0,0,1,111.772,225.181Zm22.082-12.749a1.286,1.286,0,0,1-.644-2.4l11.041-6.375a1.286,1.286,0,1,1,1.286,2.227L134.5,212.259A1.272,1.272,0,0,1,133.854,212.432Zm22.083-12.749a1.286,1.286,0,0,1-.644-2.4l11.041-6.375a1.285,1.285,0,1,1,1.285,2.226l-11.041,6.375A1.276,1.276,0,0,1,155.937,199.683Zm22.082-12.75a1.286,1.286,0,0,1-.644-2.4l11.041-6.375a1.286,1.286,0,1,1,1.286,2.227l-11.041,6.375A1.279,1.279,0,0,1,178.019,186.933Z"/><path class="b" d="M95.534,234.556a1.286,1.286,0,0,1-.644-2.4l5.2-3a1.286,1.286,0,0,1,1.286,2.227l-5.2,3A1.281,1.281,0,0,1,95.534,234.556Z"/><path class="a" d="M22.267,316.434h3.655a4.887,4.887,0,0,1,5.211,4.875v.028a4.909,4.909,0,0,1-5.211,4.9H22.267ZM23.989,318v6.667h1.933a3.2,3.2,0,0,0,3.4-3.306v-.027a3.218,3.218,0,0,0-3.4-3.334Z"/><path class="a" d="M32.612,322.569v-.028a3.671,3.671,0,0,1,3.614-3.852c2.353,0,3.544,1.849,3.544,3.978,0,.154-.014.309-.028.477H34.307a2.064,2.064,0,0,0,2.129,1.877,2.682,2.682,0,0,0,2-.883l.995.883a3.743,3.743,0,0,1-3.026,1.386A3.69,3.69,0,0,1,32.612,322.569Zm5.477-.546a1.92,1.92,0,0,0-1.877-1.947,2,2,0,0,0-1.919,1.947Z"/><path class="a" d="M40.424,318.844h1.821l1.989,5.434,2-5.434h1.779L44.99,326.3H43.463Z"/><path class="a" d="M49.482,316.1H51.3v1.611H49.482Zm.07,2.746h1.7v7.395h-1.7Z"/><path class="a" d="M53.051,322.583v-.027a3.818,3.818,0,0,1,3.852-3.867,3.734,3.734,0,0,1,2.956,1.275L58.794,321.1a2.479,2.479,0,0,0-1.9-.925,2.23,2.23,0,0,0-2.143,2.353v.029a2.238,2.238,0,0,0,2.212,2.367,2.585,2.585,0,0,0,1.919-.911l1.023,1.009a3.878,3.878,0,0,1-6.85-2.438Z"/><path class="a" d="M60.835,322.569v-.028a3.671,3.671,0,0,1,3.615-3.852c2.353,0,3.544,1.849,3.544,3.978,0,.154-.015.309-.029.477H62.531a2.063,2.063,0,0,0,2.129,1.877,2.685,2.685,0,0,0,2-.883l.994.883a3.741,3.741,0,0,1-3.025,1.386A3.69,3.69,0,0,1,60.835,322.569Zm5.478-.546a1.921,1.921,0,0,0-1.877-1.947,2,2,0,0,0-1.919,1.947Z"/><path class="a" d="M13.062,333.233h7.3v1.57H14.785v2.676h4.944v1.568H14.785v3.992H13.062Z"/><path class="a" d="M22.078,332.9H23.9v1.612H22.078Zm.07,2.746h1.7v7.4h-1.7Z"/><path class="a" d="M26.054,335.643h1.7v1.667a2.621,2.621,0,0,1,2.619-1.807V337.3h-.1c-1.485,0-2.521.967-2.521,2.928v2.815h-1.7Z"/><path class="a" d="M31.835,335.643h1.7v1.121a2.651,2.651,0,0,1,2.256-1.275,2.346,2.346,0,0,1,2.213,1.3,2.974,2.974,0,0,1,2.493-1.3c1.611,0,2.591,1.023,2.591,2.829v4.721H41.389v-4.2c0-1.177-.547-1.807-1.5-1.807-.925,0-1.583.644-1.583,1.835v4.174h-1.7v-4.216c0-1.149-.56-1.793-1.5-1.793a1.616,1.616,0,0,0-1.583,1.835v4.174h-1.7Z"/><path class="a" d="M44.309,335.643h1.737l1.485,5.071,1.639-5.1h1.456l1.639,5.1,1.513-5.071h1.709L53.064,343.1H51.537l-1.653-5.057L48.217,343.1H46.705Z"/><path class="a" d="M56.209,340.91v-.028c0-1.6,1.247-2.381,3.054-2.381a6.186,6.186,0,0,1,1.989.308v-.182c0-1.051-.645-1.611-1.835-1.611a5.132,5.132,0,0,0-2.115.463l-.448-1.332a6.309,6.309,0,0,1,2.787-.6,3.313,3.313,0,0,1,2.451.826,3.066,3.066,0,0,1,.8,2.283v4.385H61.238v-.925a3.005,3.005,0,0,1-2.409,1.079A2.363,2.363,0,0,1,56.209,340.91Zm5.071-.532v-.5a4.7,4.7,0,0,0-1.681-.294c-1.093,0-1.737.462-1.737,1.233v.028c0,.715.63,1.121,1.443,1.121C60.425,341.961,61.28,341.316,61.28,340.378Z"/><path class="a" d="M64.917,335.643h1.695v1.667a2.622,2.622,0,0,1,2.619-1.807V337.3h-.1c-1.485,0-2.521.967-2.521,2.928v2.815H64.917Z"/><path class="a" d="M70.041,339.369v-.028a3.671,3.671,0,0,1,3.614-3.852c2.353,0,3.544,1.849,3.544,3.978,0,.154-.014.308-.029.476H71.736a2.063,2.063,0,0,0,2.129,1.877,2.684,2.684,0,0,0,2-.882l.994.882a3.739,3.739,0,0,1-3.025,1.387A3.69,3.69,0,0,1,70.041,339.369Zm5.477-.546a1.92,1.92,0,0,0-1.877-1.947,2,2,0,0,0-1.919,1.947Z"/><path class="a" d="M28.615,229.771c-.063.012-.126.029-.184.046a1.482,1.482,0,0,0-1.153,1.48v7.4H30.23v-4.207a1.5,1.5,0,0,0,0-.232V231.3a1.479,1.479,0,0,0-1.615-1.526Zm8.858,0c-.063.012-.127.029-.184.046a1.482,1.482,0,0,0-1.154,1.48v7.4h2.953v-4.207a1.5,1.5,0,0,0,0-.232V231.3a1.481,1.481,0,0,0-1.615-1.526Zm8.858,0c-.064.012-.127.029-.185.046a1.483,1.483,0,0,0-1.153,1.48v7.4h2.953v-4.207a1.8,1.8,0,0,0,0-.232V231.3a1.481,1.481,0,0,0-1.615-1.526Zm8.858,0c-.064.012-.127.029-.185.046a1.482,1.482,0,0,0-1.153,1.48v7.4H56.8v-4.207a1.5,1.5,0,0,0,0-.232V231.3a1.479,1.479,0,0,0-1.614-1.526Zm8.857,0c-.063.012-.126.029-.184.046a1.482,1.482,0,0,0-1.153,1.48v7.4h2.952v-4.207a1.5,1.5,0,0,0,0-.232V231.3a1.479,1.479,0,0,0-1.615-1.526Zm-39.306,10.4A4.872,4.872,0,0,0,19.9,245.03v43.558a4.872,4.872,0,0,0,4.844,4.856H68.2a4.872,4.872,0,0,0,4.845-4.856V245.03a4.872,4.872,0,0,0-4.845-4.855Zm-14.117,7.4a1.494,1.494,0,0,0,.415,2.96H18.42v-2.96h-7.8Zm63.9,0v2.96H81.9a1.48,1.48,0,1,0,0-2.96Zm-63.9,8.879a1.494,1.494,0,0,0,.415,2.959H18.42v-2.959h-7.8Zm22.56,0H59.756v20.715H33.183Zm41.336,0v2.959H81.9a1.48,1.48,0,1,0,0-2.959Zm-63.9,8.878a1.494,1.494,0,0,0,.415,2.959H18.42V265.33h-7.8Zm63.9,0v2.959H81.9a1.48,1.48,0,1,0,0-2.959Zm-63.9,8.878a1.494,1.494,0,0,0,.415,2.959H18.42v-2.959h-7.8Zm63.9,0v2.959H81.9a1.48,1.48,0,1,0,0-2.959Zm-63.9,8.878a1.494,1.494,0,0,0,.415,2.959H18.42v-2.959h-7.8Zm63.9,0v2.959H81.9a1.48,1.48,0,1,0,0-2.959ZM27.278,294.923v4.162a1.07,1.07,0,0,0,0,.277v2.96a1.476,1.476,0,1,0,2.952,0v-2.96a1.07,1.07,0,0,0,0-.277v-4.162Zm8.857,0v4.162a.953.953,0,0,0,0,.185v3.052a1.477,1.477,0,1,0,2.953,0v-2.96a1.167,1.167,0,0,0,0-.277v-4.162Zm8.858,0v4.162a.953.953,0,0,0,0,.185v3.052a1.477,1.477,0,1,0,2.953,0v-2.96a1.167,1.167,0,0,0,0-.277v-4.162Zm8.858,0v4.162a.953.953,0,0,0,0,.185v3.052a1.476,1.476,0,1,0,2.952,0v-2.96a1.07,1.07,0,0,0,0-.277v-4.162Zm8.858,0v4.162a.953.953,0,0,0,0,.185v3.052a1.476,1.476,0,1,0,2.952,0v-2.96a1.07,1.07,0,0,0,0-.277v-4.162Z"/><path class="b" d="M25.53,226.685a1.666,1.666,0,0,0-.185.047,1.48,1.48,0,0,0-1.153,1.479v7.4h2.952V231.4a1.484,1.484,0,0,0,0-.231v-2.96a1.479,1.479,0,0,0-1.614-1.526Zm8.857,0a1.706,1.706,0,0,0-.184.047,1.48,1.48,0,0,0-1.153,1.479v7.4H36V231.4a1.484,1.484,0,0,0,0-.231v-2.96a1.479,1.479,0,0,0-1.615-1.526Zm8.858,0a1.648,1.648,0,0,0-.184.047,1.481,1.481,0,0,0-1.154,1.479v7.4H44.86V231.4a1.485,1.485,0,0,0,0-.231v-2.96a1.479,1.479,0,0,0-1.615-1.526Zm8.858,0a1.666,1.666,0,0,0-.185.047,1.482,1.482,0,0,0-1.153,1.479v7.4h2.953V231.4a1.781,1.781,0,0,0,0-.231v-2.96a1.481,1.481,0,0,0-1.615-1.526Zm8.858,0a1.666,1.666,0,0,0-.185.047,1.48,1.48,0,0,0-1.153,1.479v7.4h2.952V231.4a1.484,1.484,0,0,0,0-.231v-2.96a1.479,1.479,0,0,0-1.614-1.526Zm-39.307,10.4a4.891,4.891,0,0,0-4.844,4.856V285.5a4.89,4.89,0,0,0,4.844,4.855H65.113a4.89,4.89,0,0,0,4.844-4.855V241.945a4.891,4.891,0,0,0-4.844-4.856Zm0,2.96H65.113a1.884,1.884,0,0,1,1.891,1.9V285.5a1.883,1.883,0,0,1-1.891,1.9H21.654a1.883,1.883,0,0,1-1.891-1.9V241.945A1.884,1.884,0,0,1,21.654,240.049ZM7.537,244.488a1.494,1.494,0,0,0,.416,2.959h7.381v-2.959h-7.8Zm63.9,0v2.959h7.382a1.48,1.48,0,1,0,0-2.959Zm-41.613,7.4a1.478,1.478,0,0,0-1.2,1.48v20.715a1.481,1.481,0,0,0,1.476,1.48H56.67a1.482,1.482,0,0,0,1.477-1.48V253.366a1.482,1.482,0,0,0-1.477-1.48H29.82Zm-22.283,1.48a1.494,1.494,0,0,0,.416,2.959h7.381v-2.959h-7.8Zm63.9,0v2.959h7.382a1.482,1.482,0,0,0,1.3-.734,1.48,1.48,0,0,0-1.3-2.225Zm-39.86,1.48H55.194V272.6H31.573Zm-24.036,7.4a1.494,1.494,0,0,0,.416,2.959h7.381v-2.959h-7.8Zm63.9,0V265.2h7.382a1.482,1.482,0,0,0,1.3-.734,1.48,1.48,0,0,0-1.3-2.225Zm-63.9,8.878a1.494,1.494,0,0,0,.416,2.959h7.381v-2.959h-7.8Zm63.9,0v2.959h7.382a1.482,1.482,0,0,0,1.3-.734,1.48,1.48,0,0,0-1.3-2.225ZM7.537,280a1.494,1.494,0,0,0,.416,2.959h7.381V280h-7.8Zm63.9,0v2.959h7.382a1.482,1.482,0,0,0,1.3-.734,1.48,1.48,0,0,0-1.3-2.225ZM24.192,291.838V296a1.078,1.078,0,0,0,0,.278v2.959a1.476,1.476,0,1,0,2.952,0v-2.959a1.078,1.078,0,0,0,0-.278v-4.161Zm8.858,0V296a.953.953,0,0,0,0,.185v3.052a1.476,1.476,0,1,0,2.952,0v-2.959A1.078,1.078,0,0,0,36,296v-4.161Zm8.857,0V296a1.143,1.143,0,0,0,0,.185v3.052a1.477,1.477,0,1,0,2.953,0v-2.959a1.175,1.175,0,0,0,0-.278v-4.161Zm8.858,0V296a.953.953,0,0,0,0,.185v3.052a1.477,1.477,0,1,0,2.953,0v-2.959a1.175,1.175,0,0,0,0-.278v-4.161Zm8.858,0V296a.953.953,0,0,0,0,.185v3.052a1.476,1.476,0,1,0,2.952,0v-2.959a1.078,1.078,0,0,0,0-.278v-4.161Z"/><path class="b" d="M349.063,166.93H323.5a2.143,2.143,0,0,1-1.964-3l14.822-33.98a11.64,11.64,0,1,1,13.223,5.824l-6.7,15.372c2.5,0,5.5-.009,8.52-.052,13.477-.192,29.753-13.157,29.753-28.969,0-12.315-8.715-25.692-28.182-27.839l-.119-.008a2.143,2.143,0,0,1-1.986-2.405c1.452-11.567-2.7-19.045-6.435-23.281a27.823,27.823,0,0,0-20.917-9.263c-11.211,0-20.689,7.844-25.108,15.619-1.42,2.5-2.86,5.608-2.874,5.639a2.143,2.143,0,0,1-3.736.279,24.088,24.088,0,0,0-4.682-4.49,25.478,25.478,0,0,0-15.924-5.81c-11.465,0-18.97,9.5-20.458,18.88-.5,3.141-.64,5.237-.646,5.325a2.145,2.145,0,0,1-2.64,1.942c-17.687-4.261-31.489,6.9-35.248,15.782-7.747,18.316,3.767,29.1,8.255,32.426l7.151-16.38a10.77,10.77,0,0,1-1.017-4.529,10.921,10.921,0,1,1,14.2,10.415l-12.458,28.486a2.143,2.143,0,0,1-2.738,1.139c-19.389-7.524-30.067-21.908-30.067-40.5a41.813,41.813,0,0,1,41.735-41.764C241.314,66.4,255.2,55.4,270.878,55.4a34.419,34.419,0,0,1,19.141,5.193c7.631-10.647,19.717-16.708,33.493-16.708a46.073,46.073,0,0,1,29.43,10.688c8.035,6.826,12.646,15.853,13.1,25.569,19.658,6.3,31.336,21.755,31.336,41.636C397.38,143.584,377.965,166.93,349.063,166.93Zm-22.294-4.285h22.294c26.338,0,44.032-21.131,44.032-40.866,0-8.82-2.9-30.178-29.754-37.98a2.143,2.143,0,0,1-1.545-2.058c0-20.08-19.8-33.569-38.284-33.569-13.045,0-24.382,6.026-31.1,16.533a2.142,2.142,0,0,1-3.035.6,30.325,30.325,0,0,0-18.5-5.618c-14.225,0-26.769,10.361-29.824,24.636a2.142,2.142,0,0,1-2,1.692l-.114,0c-.589.026-1.151.05-1.65.05a37.524,37.524,0,0,0-37.484,37.479c0,16.335,8.782,28.654,25.43,35.736l12.038-27.528a2.144,2.144,0,0,1,1.543-1.242,6.634,6.634,0,1,0-7.945-6.5,6.522,6.522,0,0,0,.949,3.354,2.139,2.139,0,0,1,.12,1.948l-8.552,19.591a2.141,2.141,0,0,1-1.224,1.154c-2.477.91-8.3-5.159-8.55-5.418-5.089-5.337-12.551-16.828-5.364-33.816,4.154-9.821,18.847-22.088,37.795-18.778.105-.895.251-2,.452-3.272C248.27,77.6,257.32,66.281,271.188,66.281A29.663,29.663,0,0,1,289.753,73a39.672,39.672,0,0,1,3.305,2.869c.485-.96,1.049-2.037,1.62-3.041,5.033-8.853,15.9-17.786,28.834-17.786a32.11,32.11,0,0,1,24.131,10.714c4.083,4.627,8.6,12.558,7.689,24.515,20.667,3.105,30.105,18.489,30.105,31.853,0,18.455-18.265,33.03-33.977,33.255-3.324.047-6.606.05-9.243.052l-2.6,0h-.007a2.143,2.143,0,0,1-1.965-3l8.452-19.395a2.146,2.146,0,0,1,1.648-1.264A7.277,7.277,0,0,0,354,124.552a7.345,7.345,0,1,0-13.459,4.064,2.144,2.144,0,0,1,.181,2.045Zm-29.935,4.3h-11.1a2.143,2.143,0,0,1-1.963-3l29.7-67.877a10.5,10.5,0,0,1-1-4.449,10.921,10.921,0,1,1,14.146,10.428L298.8,165.658A2.144,2.144,0,0,1,296.834,166.942Zm-7.827-4.285h6.426l27.673-63.292a2.142,2.142,0,0,1,1.554-1.245,6.632,6.632,0,1,0-7.908-6.505,6.5,6.5,0,0,0,.941,3.29,2.142,2.142,0,0,1,.112,1.938Zm-42.072,33.4a11.339,11.339,0,0,1-3.116-22.244l26.505-60.7a11.64,11.64,0,1,1,13.25,5.794l-26.533,60.653a11.332,11.332,0,0,1-10.106,16.5Zm33.678-95.709a7.341,7.341,0,0,0-6.105,11.424,2.141,2.141,0,0,1,.183,2.05L247.315,176.52a2.141,2.141,0,0,1-1.6,1.253,7.066,7.066,0,1,0,7.129,3.094,2.143,2.143,0,0,1-.168-2.028l27.411-62.658a2.144,2.144,0,0,1,1.638-1.259,7.326,7.326,0,0,0-1.116-14.57Zm66.04,19.925a4.276,4.276,0,1,1-4.275,4.276A4.276,4.276,0,0,1,346.653,120.277Zm-99.718,68.582a4.149,4.149,0,1,1,4.149-4.149A4.15,4.15,0,0,1,246.935,188.859Zm29.4-81.162a4.275,4.275,0,1,1,4.275,4.275A4.275,4.275,0,0,1,276.338,107.7Z"/><path class="a" d="M359.653,77.455c0-20.474-19.547-35.712-40.427-35.712-13.67,0-25.7,6.251-32.908,17.522a32.4,32.4,0,0,0-19.725-6.007c-15.8,0-28.8,11.76-31.92,26.331-.6.026-1.167.053-1.67.053a39.666,39.666,0,0,0-39.626,39.621c0,18.021,10.274,31.357,28.7,38.507l12.875-29.44a8.845,8.845,0,1,0-9.26-4.157l-8.553,19.591c-.438.161-21.426-12.217-11.2-36.389,4.033-9.532,18.852-21.575,37.723-17.031,0-.037.147-2.229.668-5.518,1.713-10.8,10.38-20.688,22.574-20.688A27.628,27.628,0,0,1,284.147,70.4a24.776,24.776,0,0,1,5.152,5s1.472-3.191,2.956-5.8c4.854-8.538,15.122-16.7,26.971-16.7,16.373,0,32.213,13.173,29.478,34.954l.166.011c19.828,2.167,30.138,15.953,30.138,29.974,0,16.864-17.046,30.9-31.865,31.112-4.482.064-8.825.047-11.824.057l8.452-19.4a9.454,9.454,0,1,0-9.3-4.095L319.21,160.5h25.567c27.718,0,46.175-22.254,46.175-43.008C390.952,100.776,382.1,83.978,359.653,77.455Zm-17.286,38.537a4.275,4.275,0,1,1-4.275,4.275A4.275,4.275,0,0,1,342.367,115.992ZM320.784,95.938l-28.236,64.576h-11.1L311.556,91.7a8.641,8.641,0,0,1-1.232-4.369,8.778,8.778,0,1,1,10.46,8.608Zm-34.969,7.474a9.488,9.488,0,1,0-17.373,5.271l-27.376,62.693a9.209,9.209,0,1,0,9.292,4.036l27.411-62.658A9.464,9.464,0,0,0,285.815,103.412ZM242.65,184.573a4.149,4.149,0,1,1,4.148-4.149A4.148,4.148,0,0,1,242.65,184.573Zm29.4-81.161a4.275,4.275,0,1,1,4.275,4.275A4.275,4.275,0,0,1,272.052,103.412Z"/></svg>