<svg xmlns="http://www.w3.org/2000/svg" width="1885.29" height="453.98" viewBox="0 0 1885.29 453.98"><defs><style>.\39 07f85aa-4d2b-472e-83a5-86c8892eacb0{fill:#607d8b;}</style></defs><title>Intro</title><g id="8a4f7cec-fc5a-489e-a285-681ac267fe1c" data-name="Layer 2"><g id="eccdd198-a87d-4a25-89f9-122869bb68ab" data-name="Page Top"><g id="8f6e0568-922a-48ee-bb3e-393b87598572" data-name="Intro"><g id="c14f4371-b3cb-4b9b-9285-addc0a6be0cd" data-name="surface1"><path class="907f85aa-4d2b-472e-83a5-86c8892eacb0" d="M1778.51,138.38c-26.51,0-49,15.87-59.74,38.29-5.74-3.95-12.39-6.83-19.86-6.83-19,0-34.06,15-35.11,33.68-19,6.84-32.73,24.51-32.73,45.76a49.13,49.13,0,0,0,49.09,49.1H1840a45.37,45.37,0,0,0,45.29-45.28c0-23.14-17.76-41.53-40.2-44.17.08-1.24.31-2.39.31-3.66A67,67,0,0,0,1778.51,138.38Zm0,10.17a56.67,56.67,0,0,1,56.73,56.72,55.49,55.49,0,0,1-.48,7L1834,218h6a35.12,35.12,0,1,1,0,70.23H1680.16a39,39,0,0,1-10.33-76.58l3.82-1-.16-4.13c0-.71,0-1.07,0-1.11a25.5,25.5,0,0,1,43.53-18l5.56,5.72,2.71-7.47A56.85,56.85,0,0,1,1778.51,148.55Z"/></g><g id="93889b1e-e92b-445d-8dba-419efac1972f" data-name="surface1"><path class="907f85aa-4d2b-472e-83a5-86c8892eacb0" d="M1043.46,0a20.05,20.05,0,0,0-20,20V209.79a20,20,0,0,0,20,20h104.9v-10h-104.9a9.91,9.91,0,0,1-10-10V20a9.91,9.91,0,0,1,10-10h139.86a9.91,9.91,0,0,1,10,10v45h10V20a20,20,0,0,0-20-20Zm4.06,20a5,5,0,0,0-4.06,5V189.81a5,5,0,0,0,5,5h99.9v-10h-94.91V30h119.88v35h10V25a5,5,0,0,0-5-5H1047.52Zm120.82,50a15.07,15.07,0,0,0-15,15V229.77a15.07,15.07,0,0,0,15,15h89.91a15.06,15.06,0,0,0,15-15V84.92a15.06,15.06,0,0,0-15-15Zm0,10h89.91a4.91,4.91,0,0,1,5,5V229.77a4.91,4.91,0,0,1-5,5h-89.91a4.91,4.91,0,0,1-5-5V84.92A4.91,4.91,0,0,1,1168.34,79.92Zm9.05,10a5,5,0,0,0-4.06,5V204.8a5,5,0,0,0,5,5h69.93a5,5,0,0,0,5-5V94.91a5,5,0,0,0-5-5h-70.87Zm5.93,10h59.94v99.9h-59.94Zm-69.93,99.9a7.5,7.5,0,1,0,7.49,7.5A7.49,7.49,0,0,0,1113.39,199.8Zm99.9,15a7.49,7.49,0,1,0,7.5,7.49A7.49,7.49,0,0,0,1213.29,214.79Z"/></g><g id="74256e2d-61df-45f9-b8df-f0648607965f" data-name="surface1"><path class="907f85aa-4d2b-472e-83a5-86c8892eacb0" d="M65.22,204a4,4,0,0,0-.62.15,5,5,0,0,0-3.91,5v25h10v-14.2a5.08,5.08,0,0,0,0-.78v-10A5,5,0,0,0,65.22,204Zm30,0a4,4,0,0,0-.62.15,5,5,0,0,0-3.91,5v25h10v-14.2a5.08,5.08,0,0,0,0-.78v-10A5,5,0,0,0,95.19,204Zm30,0a4,4,0,0,0-.62.15,5,5,0,0,0-3.91,5v25h10v-14.2a5.08,5.08,0,0,0,0-.78v-10a5,5,0,0,0-5.46-5.15Zm30,0a4,4,0,0,0-.62.15,5,5,0,0,0-3.91,5v25h10v-14.2a5.08,5.08,0,0,0,0-.78v-10a5,5,0,0,0-5.46-5.15Zm30,0a4,4,0,0,0-.62.15,5,5,0,0,0-3.91,5v25h10v-14.2a5.08,5.08,0,0,0,0-.78v-10A5,5,0,0,0,185.1,204Zm-133,35.12a16.52,16.52,0,0,0-16.39,16.39v147A16.53,16.53,0,0,0,52.11,419h147a16.53,16.53,0,0,0,16.39-16.39v-147a16.52,16.52,0,0,0-16.39-16.39Zm0,10h147a6.37,6.37,0,0,1,6.4,6.4v147a6.37,6.37,0,0,1-6.4,6.4h-147a6.37,6.37,0,0,1-6.4-6.4v-147A6.37,6.37,0,0,1,52.11,249.12Zm-47.77,15a5,5,0,1,0,1.41,10h25v-10H4.34Zm216.2,0v10h25a5,5,0,1,0,0-10Zm-140.8,25a5,5,0,0,0-4.06,5V364a5,5,0,0,0,5,5h89.91a5,5,0,0,0,5-5V294.07a5,5,0,0,0-5-5H79.74Zm-75.4,5a5,5,0,0,0,1.41,10h25v-10H4.34Zm216.2,0v10h25a5,5,0,1,0,0-10Zm-134.87,5h79.92V359H85.67ZM4.34,324a5,5,0,1,0,1.41,10h25V324H4.34Zm216.2,0v10h25a5,5,0,1,0,0-10ZM4.34,354a5,5,0,1,0,1.41,10h25V354H4.34Zm216.2,0v10h25a5,5,0,1,0,0-10ZM4.34,384a5,5,0,1,0,1.41,10h25V384H4.34Zm216.2,0v10h25a5,5,0,1,0,0-10Zm-159.85,40V438a3.7,3.7,0,0,0,0,.94v10a5,5,0,1,0,10,0v-10a3.7,3.7,0,0,0,0-.94V423.94Zm30,0V438a3.32,3.32,0,0,0,0,.63v10.3a5,5,0,1,0,10,0v-10a3.7,3.7,0,0,0,0-.94V423.94Zm30,0V438a3.32,3.32,0,0,0,0,.63v10.3a5,5,0,1,0,10,0v-10a3.7,3.7,0,0,0,0-.94V423.94Zm30,0V438a3.32,3.32,0,0,0,0,.63v10.3a5,5,0,1,0,10,0v-10a3.7,3.7,0,0,0,0-.94V423.94Zm30,0V438c0,.22,0,.41,0,.63v10.3a5,5,0,1,0,10,0v-10a3.7,3.7,0,0,0,0-.94V423.94Z"/></g></g></g></g></svg>