<svg xmlns="http://www.w3.org/2000/svg" width="85.71" height="72" viewBox="0 0 85.71 72"><defs><style>.e111dd21-3c99-4e99-b939-f2343c67fe40{fill:#00acc1;}</style></defs><title>Asset 10</title><g id="5f746e47-18f2-489d-a6c9-bbd95b9c847c" data-name="Layer 2"><g id="225d84c3-e0c3-431b-80c0-a284a41f10ab" data-name="Page Mid"><g id="0126ecea-3b7a-4527-86c9-fb03a286e73d" data-name="App Tab"><g id="7d98f57f-5a75-4a84-a75f-690b5a7f973b" data-name="App Mid"><g id="f67f06e1-73ae-48be-b7dc-f7022b1c1d9d" data-name="surface1"><path class="e111dd21-3c99-4e99-b939-f2343c67fe40" d="M13.71,0A6.85,6.85,0,0,0,6.86,6.86V22.29h3.43V6.86a3.25,3.25,0,0,1,3.42-3.43H72a3.25,3.25,0,0,1,3.43,3.43V32.57h3.43V6.86A6.86,6.86,0,0,0,72,0Zm1.4,6.86a1.71,1.71,0,0,0-1.4,1.71V22.29h3.43v-12H68.57V32.57H72v-24a1.72,1.72,0,0,0-1.71-1.71H15.11ZM3.43,24A3.49,3.49,0,0,0,1,25a3.49,3.49,0,0,0-1,2.47V68.57A3.49,3.49,0,0,0,1,71a3.49,3.49,0,0,0,2.47,1H36a3.3,3.3,0,0,0,3.43-3.43V27.43A3.3,3.3,0,0,0,36,24Zm0,3.43H36V68.57H3.43Zm3.11,1.71a1.73,1.73,0,0,0-1.4,1.72V61.71a1.72,1.72,0,0,0,1.72,1.72H32.57a1.72,1.72,0,0,0,1.72-1.72V30.86a1.72,1.72,0,0,0-1.72-1.72h-26Zm2,3.43H30.86V60H8.57Zm54.86,1.72A3.29,3.29,0,0,0,60,37.71V68.57A3.29,3.29,0,0,0,63.43,72H82.29a3.29,3.29,0,0,0,3.42-3.43V37.71a3.29,3.29,0,0,0-3.42-3.42Zm0,3.42H82.29V68.57H63.43Zm3.11,1.72a1.72,1.72,0,0,0-1.4,1.71V61.71a1.72,1.72,0,0,0,1.72,1.72h12a1.72,1.72,0,0,0,1.71-1.72V41.14a1.72,1.72,0,0,0-1.71-1.71H66.54Zm2,3.43h8.57V60H68.57ZM41.14,48v3.43H58.29V48Zm8.57,5.14v8.57h8.58V58.29H53.14V56.57h5.15V53.14ZM41.14,63.43v3.43H58.29V63.43Zm-21.43.86A1.71,1.71,0,1,0,21.43,66,1.72,1.72,0,0,0,19.71,64.29Zm53.15,0A1.71,1.71,0,1,0,74.57,66,1.72,1.72,0,0,0,72.86,64.29Z"/></g></g></g></g></g></svg>