<svg xmlns="http://www.w3.org/2000/svg" width="47.39" height="48" viewBox="0 0 47.39 48"><defs><style>.\35 8acba02-6133-4eb1-a4fd-eb8928e7de46{fill:#616161;}</style></defs><title>Asset 6</title><g id="3c7ee0eb-e68f-4c16-88fc-77d0b535cf19" data-name="Layer 2"><g id="c1af25e0-568d-44aa-83a9-cd570ec188df" data-name="Page Top"><g id="b9fde2d4-2ed3-4e0c-98cc-f0eb43d45989" data-name="Intro"><path class="58acba02-6133-4eb1-a4fd-eb8928e7de46" d="M31.1,0l-.81.32L27.38,1.46l-.81.32.19.84.62,3.1c-.31.31-.63.66-1,1l-3.08-.68-.84-.19-.32.77L20.91,9.57l-.32.78.71.48L24,12.61a12.85,12.85,0,0,0,0,1.52l-2.72,1.68-.74.45.32.81L21.94,20l.33.81.84-.19,3.1-.62a9.28,9.28,0,0,0,1,1l-.71,3.1-.2.84.81.36,2.91,1.23.78.32.48-.71,1.78-2.65a12.85,12.85,0,0,0,1.52,0l1.68,2.75.45.71.81-.29,3.72-1.49-.19-.84L40.38,21a8.84,8.84,0,0,0,1.06-1.06l3.14.8.87.23.33-.81L47,17.2l.35-.81-.77-.48L43.9,14.26a12.85,12.85,0,0,0,0-1.52l2.72-1.68.74-.45L47,9.8,45.9,6.89l-.32-.81-.87.19L41.54,7a9.2,9.2,0,0,0-1-1l.68-3.1.2-.85-.78-.32L37.69.42,36.88.1,36.4.84,34.75,3.46a9.74,9.74,0,0,0-1.52,0L31.55.74Zm-.88,2.55L31.74,5l.39.62.71-.16a7,7,0,0,1,2.36,0l.65.06L36.2,5l1.49-2.36,1.3.55L38.34,6l-.16.68.58.39A6.92,6.92,0,0,1,40.38,8.7l.38.58.68-.16,2.85-.65.52,1.3-2.49,1.48-.55.36.06.65a10,10,0,0,1,0,2.45l-.06.65.55.36,2.45,1.51-.51,1.23-2.88-.71-.71-.16-.39.58a6.56,6.56,0,0,1-1.62,1.62l-.55.39.13.68.65,3.07-1.3.48L36.11,22l-.36-.55-.65.06a10,10,0,0,1-2.45,0L32,21.41l-.32.51-1.59,2.4-1.32-.59L29.38,21l.16-.64L29,19.89a7.07,7.07,0,0,1-1.61-1.62L27,17.72l-.68.13-2.78.58L23,17.14l2.46-1.52.58-.36L26,14.62a10.12,10.12,0,0,1,0-2.46l.09-.62-.55-.35L23.14,9.6l.55-1.32,2.81.64.62.13.39-.48c.59-.69,1.19-1.29,1.71-1.81l.39-.39-.1-.52-.58-2.78ZM34,8.21a5.18,5.18,0,1,0,5.18,5.18A5.19,5.19,0,0,0,34,8.21Zm0,2.07a3.11,3.11,0,1,1-3.1,3.11A3.09,3.09,0,0,1,34,10.28ZM11.93,19l-.13.87-.51,3.36A9.81,9.81,0,0,0,9.67,24L6.11,21.39,2.49,25l.48.71,2,2.85a11.72,11.72,0,0,0-.71,1.65l-3.4.61L0,31V36l.84.16,3.4.61A9.36,9.36,0,0,0,5,38.43l-2,2.75-.55.71L6,45.51,6.69,45l2.85-2a12.25,12.25,0,0,0,1.65.71l.52,3.37.12.87h5.08l.13-.84.65-3.4a8.56,8.56,0,0,0,1.61-.71l3.56,2.59L26.48,42,26,41.31l-2.07-2.88a13.31,13.31,0,0,0,.71-1.62l3.49-.61L29,36V31l-4.36-.65a10,10,0,0,0-.68-1.61L26,25.85l.48-.71-.58-.62L23.51,22l-.62-.64-.74.51L19.3,24a13.19,13.19,0,0,0-1.61-.71l-.52-3.36L17,19Zm1.78,2.07h1.55l.58,3.68.59.2a12,12,0,0,1,2.49,1l.58.36.55-.39,2.59-1.88,1.16,1.23L21.92,28l-.42.55.39.58a7.76,7.76,0,0,1,1,2.4l.17.68.67.09,3.17.49v1.58l-3.17.55-.61.1-.19.58a12.52,12.52,0,0,1-1,2.49l-.39.58.42.55,1.88,2.62-1.16,1.13-2.59-1.87-.55-.39-.58.36a8.28,8.28,0,0,1-2.4,1l-.64.16-.13.68-.55,3.07H13.61L13,42.24l-.58-.19A12,12,0,0,1,10,41l-.58-.36-.55.39L6.21,42.83,5.08,41.69,6.92,39.2l.45-.58L7,38a8,8,0,0,1-1-2.36L5.82,35l-.68-.13-3.07-.55V32.71l3.07-.55L5.76,32,6,31.48A12,12,0,0,1,7,29l.36-.59L7,27.85,5.17,25.24,6.34,24.1,8.92,26l.55.39.59-.36a7.85,7.85,0,0,1,2.39-1l.68-.16.1-.68Zm.6,6.77a5.18,5.18,0,1,0,5.18,5.18A5.2,5.2,0,0,0,14.31,27.87Zm0,2.07a3.11,3.11,0,1,1-3.1,3.11A3.11,3.11,0,0,1,14.31,29.94Z"/></g></g></g></svg>