<svg xmlns="http://www.w3.org/2000/svg" width="88.65" height="70" viewBox="0 0 88.65 70"><defs><style>.fb571996-52c2-4d37-a369-e40cb3981902{fill:#00acc1;}</style></defs><title>Asset 12</title><g id="ba4f34f4-d628-4106-bacb-0782e605d651" data-name="Layer 2"><g id="2e75de9b-d775-4183-8a90-0a51c9ec7ed4" data-name="Page Mid"><g id="de0164f4-81f4-4d59-95d7-46c644256050" data-name="Cloud Tab"><g id="ab7314e6-f9e9-4e48-8fb5-75cdcdfe9f86" data-name="Cloud Mid"><path id="f9b5ec22-5b8b-4807-acb7-6ec15a5c4c9c" data-name="surface1" class="fb571996-52c2-4d37-a369-e40cb3981902" d="M51.42,0A23.18,23.18,0,0,0,30.58,13.35,12.18,12.18,0,0,0,23.66,11,12.33,12.33,0,0,0,11.41,22.72a17,17,0,0,0,5.71,33.07H31.91a1.77,1.77,0,1,0,0-3.54H17.12a13.6,13.6,0,0,1-3.6-26.71,1.76,1.76,0,0,0,1.27-1.77v-.39A8.9,8.9,0,0,1,30,17.12a1.76,1.76,0,0,0,1.6.46,1.74,1.74,0,0,0,1.28-1.07,19.78,19.78,0,0,1,38.34,6.82A20.09,20.09,0,0,1,71,25.76a1.81,1.81,0,0,0,.41,1.38,1.83,1.83,0,0,0,1.31.62h.11a12.25,12.25,0,0,1,0,24.49H56.73a1.77,1.77,0,1,0,0,3.54H72.86A15.82,15.82,0,0,0,88.65,40a15.62,15.62,0,0,0-14-15.4c0-.43.11-.83.11-1.27A23.36,23.36,0,0,0,51.42,0Zm-7.1,30.25-1.27,1.22-8.87,8.86a1.81,1.81,0,0,0,0,2.55,1.79,1.79,0,0,0,2.55,0l5.82-5.81V68.2a1.78,1.78,0,0,0,2.67,1.56,1.8,1.8,0,0,0,.88-1.56V37.07l5.81,5.81a1.8,1.8,0,1,0,2.55-2.55L45.6,31.47Z"/></g></g></g></g></svg>