<svg xmlns="http://www.w3.org/2000/svg" width="214" height="92" viewBox="0 0 214 92"><defs><style>.a{fill:none;}.b{fill:#252f3e;}.c{fill:#f90;}</style></defs><title>AmazonWebServicesLogo</title><rect class="a" width="214" height="92"/><path class="b" d="M121.872,39.922V22.906h1.2l.12,1.344a8.327,8.327,0,0,1,2.148-1.3,5.852,5.852,0,0,1,2.148-.408,4.462,4.462,0,0,1,3.672,1.668,7.092,7.092,0,0,1,1.344,4.572,7.263,7.263,0,0,1-1.416,4.7,4.651,4.651,0,0,1-3.816,1.752,5.908,5.908,0,0,1-4.032-1.632v6.312Zm5.352-16.128a6.515,6.515,0,0,0-3.984,1.536v7.032a7.521,7.521,0,0,0,1.92,1.236,5,5,0,0,0,1.968.4,3.52,3.52,0,0,0,2.964-1.284,6.177,6.177,0,0,0,1-3.828Q131.088,23.794,127.224,23.794Zm15.552,11.184-.12-1.392a6.818,6.818,0,0,1-4.32,1.656,3.6,3.6,0,0,1-2.628-.948,3.374,3.374,0,0,1-.972-2.532,3.413,3.413,0,0,1,1.2-2.76,4.916,4.916,0,0,1,3.264-1.008,11.877,11.877,0,0,1,3.432.552V26.53a2.732,2.732,0,0,0-.7-2.1,3.376,3.376,0,0,0-2.3-.636,12.4,12.4,0,0,0-4.1.768V23.434a10.153,10.153,0,0,1,2.064-.648,11.044,11.044,0,0,1,2.256-.24,4.678,4.678,0,0,1,3.132.888A3.374,3.374,0,0,1,144,26.122v8.856Zm-4.248-.984a5.921,5.921,0,0,0,1.968-.372,10.877,10.877,0,0,0,2.136-1.044v-3a12,12,0,0,0-3.12-.432q-3.362,0-3.36,2.592a2.222,2.222,0,0,0,.6,1.68A2.469,2.469,0,0,0,138.528,33.994Zm9.048.984V22.906h1.2l.144,1.752a6,6,0,0,1,1.789-1.428,4.537,4.537,0,0,1,1.98-.42,8.1,8.1,0,0,1,.983.072v1.224q-.624-.048-1.128-.048a4.48,4.48,0,0,0-1.956.408,5.2,5.2,0,0,0-1.643,1.32v9.192Zm14.76-.264a6.46,6.46,0,0,1-2.424.408,2.9,2.9,0,0,1-2.16-.756,3,3,0,0,1-.744-2.2V24.106h-2.256v-.96l2.3-.216.192-3.528h1.128v3.5h3.84v1.2h-3.84V32.1a1.893,1.893,0,0,0,.42,1.392,1.974,1.974,0,0,0,1.4.408,8.852,8.852,0,0,0,2.136-.288Zm10.991.264V26.77a3.482,3.482,0,0,0-.6-2.268,2.387,2.387,0,0,0-1.92-.708,8.281,8.281,0,0,0-4.68,1.536v9.648h-1.368V22.906h1.2L166.1,24.3a9.889,9.889,0,0,1,2.472-1.3,7.6,7.6,0,0,1,2.52-.456,3.624,3.624,0,0,1,2.676.924,3.694,3.694,0,0,1,.924,2.724v8.784Zm5.712-5.808a5.519,5.519,0,0,0,1.1,3.72,4.269,4.269,0,0,0,3.336,1.2,9.673,9.673,0,0,0,3.96-.84v1.128a8.134,8.134,0,0,1-4.056.96,5.45,5.45,0,0,1-4.3-1.62,7.045,7.045,0,0,1-1.44-4.812,6.922,6.922,0,0,1,1.452-4.692,5.106,5.106,0,0,1,4.068-1.668,4.354,4.354,0,0,1,3.348,1.248,5.051,5.051,0,0,1,1.164,3.576,9.4,9.4,0,0,1-.144,1.8Zm4.008-5.4q-3.792,0-4.008,4.3h7.3c.016-.224.024-.487.024-.792a3.672,3.672,0,0,0-.84-2.616A3.245,3.245,0,0,0,183.047,23.77Zm7.536,11.208V22.906h1.2l.144,1.752a6,6,0,0,1,1.788-1.428,4.537,4.537,0,0,1,1.98-.42,8.118,8.118,0,0,1,.984.072v1.224q-.624-.048-1.128-.048a4.477,4.477,0,0,0-1.956.408,5.192,5.192,0,0,0-1.643,1.32v9.192Zm-60.143,27V53.77a3.484,3.484,0,0,0-.6-2.268,2.387,2.387,0,0,0-1.92-.707,8.287,8.287,0,0,0-4.68,1.535v9.649h-1.368V49.906h1.2l.144,1.393a9.893,9.893,0,0,1,2.472-1.3,7.594,7.594,0,0,1,2.52-.455,3.62,3.62,0,0,1,2.676.924,3.689,3.689,0,0,1,.924,2.722v8.786Zm5.712-5.809a5.519,5.519,0,0,0,1.1,3.721,4.275,4.275,0,0,0,3.336,1.2,9.656,9.656,0,0,0,3.96-.84v1.129a8.147,8.147,0,0,1-4.056.959,5.448,5.448,0,0,1-4.3-1.619,7.049,7.049,0,0,1-1.44-4.813,6.918,6.918,0,0,1,1.452-4.691,5.1,5.1,0,0,1,4.068-1.668,4.356,4.356,0,0,1,3.348,1.248,5.048,5.048,0,0,1,1.164,3.574,9.411,9.411,0,0,1-.144,1.8Zm4.008-5.4q-3.793,0-4.008,4.3h7.3c.015-.224.024-.488.024-.793a3.674,3.674,0,0,0-.84-2.615A3.245,3.245,0,0,0,140.16,50.77Zm13.679,10.945a6.478,6.478,0,0,1-2.424.406,2.9,2.9,0,0,1-2.16-.756,3,3,0,0,1-.744-2.2V51.105h-2.256v-.959l2.3-.216.192-3.528h1.128v3.5h3.84v1.2h-3.84V59.1a1.891,1.891,0,0,0,.42,1.392,1.976,1.976,0,0,0,1.4.408,8.752,8.752,0,0,0,2.136-.289Zm12.409.264-3-10.538-2.977,10.538h-1.487l-4.1-12.073h1.464L159.5,60.4l3-10.489h1.609l2.975,10.561,3.433-10.561h1.416l-4.2,12.073Zm12.671.359a5.141,5.141,0,0,1-4.1-1.692,6.979,6.979,0,0,1-1.463-4.716,6.925,6.925,0,0,1,1.463-4.7,5.853,5.853,0,0,1,8.208,0,6.926,6.926,0,0,1,1.464,4.7,6.98,6.98,0,0,1-1.464,4.716A5.14,5.14,0,0,1,178.919,62.338Zm0-1.248q4.153,0,4.152-5.16,0-5.136-4.152-5.135t-4.151,5.135Q174.768,61.092,178.919,61.09Zm8.568.889V49.906h1.2l.144,1.752a6,6,0,0,1,1.788-1.428,4.537,4.537,0,0,1,1.98-.419,7.92,7.92,0,0,1,.984.072v1.222q-.624-.047-1.128-.046a4.448,4.448,0,0,0-1.956.408,5.187,5.187,0,0,0-1.644,1.318v9.194Zm8.136,0V44.218h1.368V55.281l5.976-5.375h1.872l-6.408,5.711,6.816,6.362h-1.968l-6.288-5.905v5.905Z"/><path class="b" d="M34.448,38.612a9.1,9.1,0,0,0,.33,2.673,16.274,16.274,0,0,0,.961,2.162,1.31,1.31,0,0,1,.211.691,1.191,1.191,0,0,1-.571.9L33.487,46.3a1.435,1.435,0,0,1-.781.271,1.384,1.384,0,0,1-.9-.421,9.232,9.232,0,0,1-1.081-1.411c-.3-.511-.6-1.082-.931-1.772a11.1,11.1,0,0,1-8.83,4.144,8.232,8.232,0,0,1-6.007-2.162,7.719,7.719,0,0,1-2.222-5.767A7.73,7.73,0,0,1,15.467,33a10.925,10.925,0,0,1,7.358-2.343,23.823,23.823,0,0,1,3.184.24c1.111.15,2.252.391,3.453.661V29.362c0-2.283-.48-3.875-1.411-4.806-.961-.931-2.583-1.381-4.9-1.381a13.674,13.674,0,0,0-3.243.39,23.918,23.918,0,0,0-3.244,1.021,8.658,8.658,0,0,1-1.051.391,1.839,1.839,0,0,1-.481.09c-.42,0-.63-.3-.63-.931V22.664a1.9,1.9,0,0,1,.21-1.051,2.243,2.243,0,0,1,.841-.631,17.29,17.29,0,0,1,3.784-1.351,18.183,18.183,0,0,1,4.685-.571c3.574,0,6.187.811,7.869,2.433,1.652,1.622,2.493,4.084,2.493,7.388v9.731ZM22.254,43.177a9.721,9.721,0,0,0,3.094-.541A6.69,6.69,0,0,0,28.2,40.714a4.771,4.771,0,0,0,1.021-1.922,10.8,10.8,0,0,0,.3-2.613V34.918a24.874,24.874,0,0,0-2.763-.511,22.653,22.653,0,0,0-2.823-.18,6.924,6.924,0,0,0-4.475,1.2,4.186,4.186,0,0,0-1.471,3.454A4.192,4.192,0,0,0,19.1,42.066,4.168,4.168,0,0,0,22.254,43.177ZM46.371,46.42a1.678,1.678,0,0,1-1.141-.3,2.449,2.449,0,0,1-.631-1.171L37.541,21.733a5.271,5.271,0,0,1-.27-1.2.659.659,0,0,1,.721-.751h2.943a1.664,1.664,0,0,1,1.171.3,2.449,2.449,0,0,1,.6,1.172l5.046,19.882,4.685-19.882a2.1,2.1,0,0,1,.571-1.172,2.065,2.065,0,0,1,1.2-.3h2.4a1.809,1.809,0,0,1,1.2.3,2.025,2.025,0,0,1,.57,1.172L63.13,41.375l5.2-20.122a2.577,2.577,0,0,1,.6-1.172,1.961,1.961,0,0,1,1.171-.3h2.794a.667.667,0,0,1,.75.751,2.991,2.991,0,0,1-.06.48,4.274,4.274,0,0,1-.21.751L66.133,44.979A2.292,2.292,0,0,1,65.5,46.15a1.92,1.92,0,0,1-1.141.3H61.778a1.808,1.808,0,0,1-1.2-.3,2.127,2.127,0,0,1-.571-1.2L55.351,25.577,50.726,44.919a2.337,2.337,0,0,1-.571,1.2,1.861,1.861,0,0,1-1.2.3Zm38.593.811a19.9,19.9,0,0,1-4.625-.54,13.662,13.662,0,0,1-3.454-1.2,2.16,2.16,0,0,1-.931-.841,2.118,2.118,0,0,1-.18-.84V42.276c0-.631.24-.931.691-.931a1.7,1.7,0,0,1,.54.09c.18.06.451.18.751.3a16.274,16.274,0,0,0,3.3,1.051,17.975,17.975,0,0,0,3.574.361,8.113,8.113,0,0,0,4.385-.991A3.234,3.234,0,0,0,90.58,39.3a2.925,2.925,0,0,0-.811-2.1,7.54,7.54,0,0,0-3.033-1.562l-4.355-1.351a9.165,9.165,0,0,1-4.805-3.063,7.16,7.16,0,0,1-1.5-4.355,6.679,6.679,0,0,1,.811-3.334,7.73,7.73,0,0,1,2.162-2.463,9.544,9.544,0,0,1,3.124-1.561A13.069,13.069,0,0,1,85.955,19a15.08,15.08,0,0,1,2.012.12c.691.09,1.322.21,1.953.331.6.15,1.171.3,1.711.48a6.505,6.505,0,0,1,1.262.541,2.6,2.6,0,0,1,.9.75,1.623,1.623,0,0,1,.27.992v1.411c0,.631-.24.961-.691.961a3.13,3.13,0,0,1-1.141-.36,13.737,13.737,0,0,0-5.766-1.171,7.761,7.761,0,0,0-3.995.84,2.9,2.9,0,0,0-1.411,2.673,2.837,2.837,0,0,0,.9,2.133,8.984,8.984,0,0,0,3.3,1.652L89.529,31.7a9.135,9.135,0,0,1,4.655,2.883,6.8,6.8,0,0,1,1.382,4.2,7.717,7.717,0,0,1-.781,3.484,8.085,8.085,0,0,1-2.192,2.643A9.7,9.7,0,0,1,89.259,46.6,14.3,14.3,0,0,1,84.964,47.231Z"/><path class="c" d="M90.64,61.828C80.759,69.126,66.4,73,54.06,73A66.177,66.177,0,0,1,9.4,55.971c-.931-.841-.09-1.982,1.021-1.321a90.069,90.069,0,0,0,44.69,11.863A89.188,89.188,0,0,0,89.2,59.545C90.851,58.794,92.262,60.626,90.64,61.828Zm4.115-4.686c-1.262-1.621-8.349-.78-11.563-.39-.961.12-1.111-.721-.24-1.352,5.646-3.964,14.926-2.823,16.008-1.5,1.081,1.351-.3,10.632-5.587,15.077-.811.69-1.591.33-1.231-.571C93.343,65.432,96.016,58.734,94.755,57.142Z"/></svg>