<svg xmlns="http://www.w3.org/2000/svg" width="214" height="92" viewBox="0 0 214 92"><defs><style>.a{fill:none;}.b{fill:#455a64;}</style></defs><title>AMSLogo</title><rect class="a" width="214" height="92"/><path class="b" d="M97.433,26c-6.518,0-10.154,4.185-10.978,5.9V27.168H78.016V64.834H87V44.457a13.512,13.512,0,0,1,1.441-6.518,7.013,7.013,0,0,1,6.449-3.5,6.638,6.638,0,0,1,6.175,3.5,13.712,13.712,0,0,1,1.168,6.243V64.834h8.987V44.182a11.908,11.908,0,0,1,1.3-6.311,7.052,7.052,0,0,1,6.517-3.431c3.154,0,4.939,1.235,5.9,3.087,1.3,1.989,1.509,4.6,1.509,7V64.834h8.987V44.182c0-7.753-.686-10.841-4.116-14.408a14.736,14.736,0,0,0-19.622-.068,15.551,15.551,0,0,0-2.745,3.566,17.421,17.421,0,0,0-2.264-3.429A12.232,12.232,0,0,0,97.433,26ZM141.9,27.175a1.317,1.317,0,1,0,1.316,1.318A1.317,1.317,0,0,0,141.9,27.175Zm2.98.041c-.544,0-.951.4-1.207,1.207q.329,1.428,1.427,1.428c.8-.256,1.211-.659,1.211-1.208v-.22c0-.677-.407-1.079-1.211-1.207Zm3.183,0q-.858,0-1.213,1.208,0,1.1,1.319,1.425,1.152,0,1.317-1.425,0-1.015-1.208-1.208Zm9.506,0q-.821,0-1.206,1.207c.224.952.695,1.428,1.428,1.428.8-.256,1.211-.659,1.211-1.208v-.22c0-.677-.407-1.079-1.211-1.207Zm3.185,0q-.852,0-1.209,1.208c0,.732.445,1.207,1.318,1.425.769,0,1.212-.474,1.318-1.425,0-.677-.4-1.08-1.2-1.208Zm3.178,0c-.548,0-.951.4-1.2,1.207q.321,1.428,1.421,1.428,1.209-.384,1.208-1.208v-.22q0-1.015-1.208-1.207Zm3.183,0q-.823,0-1.207,1.207.327,1.428,1.426,1.428c.809-.256,1.208-.659,1.208-1.208v-.22c0-.677-.4-1.079-1.208-1.207Zm3.068,0q-.822,0-1.207,1.207.328,1.428,1.427,1.428c.809-.256,1.207-.659,1.207-1.208v-.22c0-.677-.4-1.079-1.207-1.207Zm3.179,0q-.852,0-1.2,1.208c0,.732.44,1.207,1.313,1.425q1.154,0,1.317-1.425c0-.677-.4-1.08-1.2-1.208Zm3.182,0q-.82,0-1.206,1.207.327,1.428,1.426,1.428,1.208-.384,1.207-1.208v-.22q0-1.015-1.207-1.207Zm3.178,0q-.82,0-1.207,1.207.328,1.428,1.428,1.428c.808-.256,1.207-.659,1.207-1.208v-.22c0-.677-.4-1.079-1.207-1.207ZM141.693,30.4c-.543,0-.945.4-1.2,1.207,0,.783.465,1.258,1.416,1.423q1.207-.386,1.208-1.208v-.215q0-1.016-1.208-1.207Zm3.184,0c-.544,0-.951.4-1.207,1.207.219.947.694,1.423,1.427,1.423.8-.257,1.211-.659,1.211-1.208v-.215c0-.677-.407-1.079-1.211-1.207Zm12.689,0q-.821,0-1.206,1.207c.224.947.695,1.423,1.428,1.423.8-.257,1.211-.659,1.211-1.208v-.215c0-.677-.407-1.079-1.211-1.207Zm6.363,0c-.548,0-.951.4-1.2,1.207,0,.783.47,1.258,1.421,1.423q1.209-.386,1.208-1.208v-.215q0-1.016-1.208-1.207Zm3.183,0q-.823,0-1.207,1.207c.218.947.694,1.423,1.426,1.423.809-.257,1.208-.659,1.208-1.208v-.215c0-.677-.4-1.079-1.208-1.207Zm3.068,0q-.822,0-1.207,1.207c.219.947.694,1.423,1.427,1.423.809-.257,1.207-.659,1.207-1.208v-.215c0-.677-.4-1.079-1.207-1.207Zm6.361,0q-.82,0-1.206,1.207,0,1.175,1.426,1.423,1.208-.386,1.207-1.208v-.215q0-1.016-1.207-1.207Zm3.178,0q-.82,0-1.207,1.207c.219.947.695,1.423,1.428,1.423.808-.257,1.207-.659,1.207-1.208v-.215c0-.677-.4-1.079-1.207-1.207Zm-31.659,0c-.554,0-.951.4-1.213,1.207,0,.781.482,1.257,1.428,1.421q1.016,0,1.208-1.421,0-1.015-1.208-1.207Zm12.691,0q-.823,0-1.209,1.207c0,.781.476,1.257,1.433,1.421q1.008,0,1.2-1.421c0-.677-.4-1.08-1.2-1.207h-.224Zm12.608,0c-.549,0-.952.4-1.2,1.207,0,.781.473,1.257,1.428,1.421q1.008,0,1.2-1.421c0-.677-.4-1.08-1.2-1.207h-.224Zm-31.446,3.177c-.951.129-1.416.53-1.416,1.207a1.454,1.454,0,0,0,1.2,1.428q1.429-.219,1.428-1.208v-.22Q143.121,33.769,141.913,33.577Zm3.184,0q-1.428.194-1.427,1.207a1.46,1.46,0,0,0,1.207,1.428c.951-.146,1.431-.55,1.431-1.208v-.22C146.308,34.107,145.9,33.706,145.1,33.577Zm12.691,0q-1.428.194-1.428,1.207a1.461,1.461,0,0,0,1.206,1.428c.952-.146,1.433-.55,1.433-1.208v-.22C159,34.107,158.592,33.706,157.788,33.577Zm6.36,0c-.951.129-1.421.53-1.421,1.207a1.455,1.455,0,0,0,1.2,1.428q1.427-.219,1.427-1.208v-.22Q165.356,33.769,164.148,33.577Zm3.183,0q-1.427.194-1.426,1.207a1.46,1.46,0,0,0,1.207,1.428c.947-.146,1.427-.55,1.427-1.208v-.22C168.539,34.107,168.14,33.706,167.331,33.577Zm3.069,0q-1.428.194-1.427,1.207a1.461,1.461,0,0,0,1.207,1.428c.947-.146,1.427-.55,1.427-1.208v-.22C171.607,34.107,171.209,33.706,170.4,33.577Zm6.361,0q-1.428.194-1.426,1.207a1.46,1.46,0,0,0,1.206,1.428q1.428-.219,1.427-1.208v-.22q0-1.015-1.207-1.207Zm3.179,0q-1.428.194-1.428,1.207a1.461,1.461,0,0,0,1.207,1.428q1.428-.219,1.428-1.208v-.22C181.147,34.107,180.748,33.706,179.94,33.577Zm-31.665,0c-.946.128-1.428.531-1.428,1.208.188.951.587,1.426,1.213,1.426.859,0,1.33-.475,1.423-1.426q0-1.016-1.208-1.208Zm12.7,0c-.957.128-1.433.531-1.433,1.209q.278,1.425,1.209,1.425,1.289,0,1.427-1.425C162.178,34.108,161.775,33.705,160.975,33.577Zm12.608,0c-.955.128-1.428.531-1.428,1.209q.27,1.425,1.2,1.425,1.29,0,1.426-1.425C174.785,34.108,174.382,33.705,173.583,33.577ZM63.813,27.168v5.488C62.167,29.637,57.982,26,51.121,26c-10.566,0-19.142,8.1-19.142,19.967C31.979,56.6,39.045,66,51.121,66c5.283,0,10.291-2.2,12.692-6.587v5.421H72.8V27.168ZM62.442,51.592A10.666,10.666,0,0,1,52.424,57.63c-8.095,0-11.458-6.793-11.458-11.458V46.1c0-5.831,4.117-11.732,11.39-11.732a11.051,11.051,0,0,1,10.5,6.656,11.725,11.725,0,0,1,1.029,5.282A12.938,12.938,0,0,1,62.442,51.592ZM141.913,36.76c-.951.129-1.416.53-1.416,1.207.141.947.575,1.423,1.306,1.423q1.318-.275,1.318-1.207v-.216Q143.121,36.951,141.913,36.76Zm3.075,0q-1.017,0-1.318,1.313.384,1.317,1.318,1.317c.878-.183,1.32-.585,1.32-1.207v-.216c0-.677-.407-1.078-1.211-1.207Zm3.287,0c-.946.128-1.428.531-1.428,1.208.152.946.587,1.421,1.319,1.421q1.152,0,1.317-1.421Q149.483,36.952,148.275,36.76Zm9.4,0q-1.014,0-1.317,1.313.385,1.317,1.317,1.317c.878-.183,1.322-.585,1.322-1.207v-.216c0-.677-.407-1.078-1.211-1.207Zm3.3,0c-.957.128-1.433.531-1.433,1.208q.22,1.419,1.318,1.421c.769,0,1.212-.475,1.318-1.421C162.178,37.291,161.775,36.888,160.975,36.76Zm3.173,0c-.951.129-1.421.53-1.421,1.207.141.947.58,1.423,1.311,1.423q1.318-.275,1.318-1.207v-.216Q165.356,36.951,164.148,36.76Zm9.435,0c-.955.128-1.428.531-1.428,1.208q.215,1.419,1.313,1.421,1.154,0,1.317-1.421C174.785,37.291,174.382,36.888,173.583,36.76Zm3.178,0q-1.428.194-1.426,1.207c.146.947.589,1.423,1.321,1.423q1.311-.275,1.312-1.207v-.216Q177.968,36.951,176.761,36.76Zm3.069,0c-.672,0-1.116.439-1.318,1.313q.386,1.317,1.318,1.317,1.317-.275,1.317-1.207v-.216c0-.677-.4-1.078-1.207-1.207ZM141.8,39.939q-.932,0-1.306,1.207.212,1.427,1.306,1.427,1.318-.276,1.318-1.208v-.219q0-1.016-1.208-1.207Zm3.185,0q-1.017,0-1.318,1.316,0,1.017,1.318,1.318c.878-.184,1.32-.586,1.32-1.208v-.219c0-.677-.407-1.079-1.211-1.207Zm3.287,0c-.947.128-1.427.53-1.427,1.207.152.951.585,1.427,1.317,1.427.882-.184,1.317-.586,1.317-1.208v-.219Q149.182,39.937,148.275,39.939Zm9.4,0q-1.014,0-1.317,1.316,0,1.017,1.317,1.318c.878-.184,1.322-.586,1.322-1.208v-.219c0-.677-.407-1.079-1.211-1.207Zm3.3,0c-.955.128-1.43.53-1.43,1.207q.219,1.427,1.316,1.427,1.317-.276,1.317-1.208v-.219Q161.877,39.937,160.974,39.939Zm3.064,0q-.933,0-1.311,1.207c.141.951.58,1.427,1.311,1.427q1.318-.276,1.318-1.208v-.219q0-1.016-1.208-1.207Zm9.546,0c-.957.128-1.428.53-1.428,1.207q.213,1.427,1.313,1.427,1.317-.276,1.316-1.208v-.219c-.2-.806-.6-1.207-1.2-1.207Zm3.072,0c-.627,0-1.065.4-1.321,1.207.146.951.589,1.427,1.321,1.427q1.311-.276,1.312-1.208v-.219q0-1.016-1.207-1.207Zm3.174,0c-.672,0-1.116.438-1.318,1.316q0,1.017,1.318,1.318,1.317-.276,1.317-1.208v-.219c0-.677-.4-1.079-1.207-1.207ZM141.8,43.122q-.932,0-1.306,1.2a1.453,1.453,0,0,0,1.088,1.428c1.028-.092,1.536-.494,1.536-1.208v-.22Q143.121,43.4,141.8,43.122Zm3.185,0q-1.017,0-1.318,1.311,0,.852,1.1,1.319c1.025-.092,1.541-.494,1.541-1.208v-.22C146.308,43.669,145.866,43.267,144.988,43.122Zm3.177,0c-.622,0-1.056.4-1.317,1.2a1.462,1.462,0,0,0,1.1,1.428q1.536-.138,1.536-1.208v-.22C149.482,43.706,149.047,43.3,148.165,43.122Zm9.512,0q-1.014,0-1.317,1.311,0,.852,1.1,1.319c1.024-.092,1.541-.494,1.541-1.208v-.22C159,43.669,158.555,43.267,157.677,43.122Zm3.183,0q-.933,0-1.316,1.2a1.461,1.461,0,0,0,1.1,1.428q1.536-.138,1.536-1.208v-.22Q162.177,43.4,160.86,43.122Zm3.178,0q-.933,0-1.311,1.2a1.463,1.463,0,0,0,1.091,1.428q1.539-.138,1.538-1.208v-.22Q165.356,43.4,164.038,43.122Zm9.431,0q-.934,0-1.313,1.2a1.458,1.458,0,0,0,1.092,1.428q1.538-.138,1.537-1.208v-.22q0-.927-1.316-1.2Zm3.187,0c-.627,0-1.065.4-1.321,1.2a1.462,1.462,0,0,0,1.1,1.428q1.537-.138,1.537-1.208v-.22q0-.927-1.312-1.2Zm3.174,0c-.672,0-1.116.438-1.318,1.311q0,.852,1.1,1.319,1.537-.138,1.537-1.208v-.22Q181.147,43.342,179.83,43.122ZM141.8,46.3q-.932,0-1.306,1.207a1.452,1.452,0,0,0,1.088,1.427c1.028-.09,1.536-.493,1.536-1.207v-.22Q143.121,46.574,141.8,46.3Zm3.185,0q-1.017,0-1.318,1.316,0,.852,1.1,1.318c1.025,0,1.541-.4,1.541-1.207v-.22C146.308,46.885,145.866,46.483,144.988,46.3Zm3.177,0c-.622,0-1.056.4-1.317,1.207a1.461,1.461,0,0,0,1.1,1.427q1.536-.135,1.536-1.207v-.22C149.482,46.885,149.047,46.483,148.165,46.3Zm9.512,0q-1.014,0-1.317,1.316,0,.852,1.1,1.318c1.024,0,1.541-.4,1.541-1.207v-.22C159,46.885,158.555,46.483,157.677,46.3Zm3.183,0q-.933,0-1.316,1.207a1.46,1.46,0,0,0,1.1,1.427q1.536-.135,1.536-1.207v-.22Q162.177,46.574,160.86,46.3Zm3.178,0q-.933,0-1.311,1.207a1.461,1.461,0,0,0,1.091,1.427q1.539-.135,1.538-1.207v-.22Q165.356,46.574,164.038,46.3Zm9.431,0q-.934,0-1.313,1.207a1.457,1.457,0,0,0,1.092,1.427q1.538-.135,1.537-1.207v-.22q0-.933-1.316-1.207Zm3.187,0q-.941,0-1.321,1.207a1.46,1.46,0,0,0,1.1,1.427q1.537-.135,1.537-1.207v-.22q0-.933-1.312-1.207Zm3.174,0c-.672,0-1.116.438-1.318,1.316q0,.852,1.1,1.318,1.537,0,1.537-1.207v-.22Q181.147,46.574,179.83,46.3Zm-37.917,3.182c-.951.183-1.416.585-1.416,1.2q.212,1.427,1.306,1.428h.11q1.017,0,1.208-1.208v-.22C143.121,50.119,142.718,49.72,141.913,49.482Zm3.184,0q-1.428.248-1.427,1.314,0,1.039,1.318,1.317h.109c.676,0,1.083-.4,1.211-1.208v-.22C146.308,50.119,145.9,49.72,145.1,49.482Zm3.177,0c-.946.183-1.426.585-1.426,1.2,0,.86.48,1.335,1.426,1.428q1.208-.3,1.208-1.208v-.22C149.482,50.119,149.079,49.72,148.274,49.482Zm9.514,0q-1.428.248-1.428,1.314,0,1.039,1.317,1.317h.111q1.012,0,1.211-1.208v-.22C159,50.119,158.592,49.72,157.788,49.482Zm3.186,0c-.955.183-1.43.585-1.43,1.2,0,.86.475,1.335,1.43,1.428.8-.2,1.2-.6,1.2-1.208v-.22C162.177,50.119,161.774,49.72,160.974,49.482Zm3.174,0c-.951.183-1.421.585-1.421,1.2.141.951.58,1.428,1.311,1.428h.11q1.016,0,1.208-1.208v-.22C165.356,50.119,164.954,49.72,164.148,49.482Zm9.436,0c-.957.183-1.428.585-1.428,1.2,0,.86.471,1.335,1.428,1.428.8-.2,1.2-.6,1.2-1.208v-.22C174.785,50.119,174.382,49.72,173.584,49.482Zm3.177,0q-1.428.275-1.426,1.2c.146.951.589,1.428,1.321,1.428h.1c.677,0,1.074-.4,1.207-1.208v-.22C177.968,50.119,177.565,49.72,176.761,49.482Zm3.179,0q-1.428.248-1.428,1.314,0,1.039,1.318,1.317h.11q1.014,0,1.207-1.208v-.22C181.147,50.119,180.748,49.72,179.94,49.482ZM141.913,52.66c-.951.184-1.416.586-1.416,1.208,0,.86.465,1.335,1.416,1.428q1.017,0,1.208-1.208v-.22Q143.121,53.018,141.913,52.66Zm3.184,0q-1.1,0-1.427,1.318,0,1.042,1.318,1.318h.109c.676,0,1.083-.4,1.211-1.208v-.22C146.308,53.3,145.9,52.9,145.1,52.66Zm3.288,0q-1.536.194-1.537,1.209c0,.859.48,1.334,1.426,1.425q1.015,0,1.208-1.206A1.433,1.433,0,0,0,148.385,52.66Zm9.4,0c-.733,0-1.2.439-1.428,1.318q0,1.042,1.317,1.318h.111q1.012,0,1.211-1.208v-.22C159,53.3,158.592,52.9,157.788,52.66Zm3.292,0q-1.536.194-1.536,1.209c0,.859.475,1.334,1.43,1.425.672,0,1.076-.4,1.2-1.206A1.432,1.432,0,0,0,161.08,52.66Zm3.068,0c-.951.184-1.421.586-1.421,1.208,0,.86.47,1.335,1.421,1.428q1.016,0,1.208-1.208v-.22Q165.356,53.018,164.148,52.66Zm9.54,0c-1.024.129-1.532.531-1.532,1.209,0,.859.471,1.334,1.428,1.425.67,0,1.073-.4,1.2-1.206a1.432,1.432,0,0,0-1.1-1.428Zm3.073,0q-1.428.276-1.426,1.208,0,1.29,1.426,1.428c.677,0,1.074-.4,1.207-1.208v-.22Q177.968,53.018,176.761,52.66Zm3.179,0q-1.1,0-1.428,1.318,0,1.042,1.318,1.318h.11q1.014,0,1.207-1.208v-.22C181.147,53.3,180.748,52.9,179.94,52.66Zm-38.027,3.183a1.442,1.442,0,0,0-1.416,1.2c0,.859.465,1.335,1.416,1.426q1.017,0,1.208-1.207v-.219Q143.121,56.228,141.913,55.843Zm3.184,0c-.787,0-1.262.477-1.427,1.423q0,1.015,1.427,1.207c.676,0,1.083-.4,1.211-1.207v-.219C146.308,56.5,145.9,56.1,145.1,55.843Zm12.691,0c-.787,0-1.259.477-1.428,1.423q0,1.015,1.428,1.207,1.012,0,1.211-1.207v-.219C159,56.5,158.592,56.1,157.788,55.843Zm6.36,0a1.449,1.449,0,0,0-1.421,1.2c0,.859.47,1.335,1.421,1.426q1.016,0,1.208-1.207v-.219Q165.356,56.228,164.148,55.843Zm12.613,0a1.455,1.455,0,0,0-1.426,1.2q0,1.288,1.426,1.426c.677,0,1.074-.4,1.207-1.207v-.219Q177.968,56.228,176.761,55.843Zm3.179,0c-.782,0-1.263.477-1.428,1.423q0,1.015,1.428,1.207,1.014,0,1.207-1.207v-.219C181.147,56.5,180.748,56.1,179.94,55.843Zm-31.665,0c-.946.178-1.428.58-1.428,1.2,0,.859.482,1.333,1.428,1.425q1.016,0,1.208-1.208c-.128-.945-.531-1.421-1.208-1.421Zm3.182,0c-.95.178-1.422.58-1.422,1.2,0,.859.472,1.333,1.422,1.425q1.017,0,1.208-1.208C152.538,56.32,152.135,55.844,151.457,55.844Zm3.07,0c-.951.178-1.424.58-1.424,1.2,0,.859.473,1.333,1.424,1.425q1.016,0,1.206-1.208C155.6,56.32,155.2,55.844,154.527,55.844Zm6.448,0c-.957.178-1.433.58-1.433,1.2,0,.859.476,1.333,1.433,1.425q1.008,0,1.2-1.208C162.049,56.32,161.647,55.844,160.975,55.844Zm12.608,0c-.955.178-1.428.58-1.428,1.2,0,.859.473,1.333,1.428,1.425q1.008,0,1.2-1.208C174.657,56.32,174.255,55.844,173.583,55.844Zm-31.67,3.177c-.78,0-1.257.477-1.416,1.428.251.806.653,1.208,1.2,1.208h.22q1.017,0,1.208-1.208v-.22C143.121,59.68,142.718,59.279,141.913,59.021Zm3.184,0q-1.428.331-1.427,1.428c.256.806.663,1.208,1.207,1.208h.22c.676,0,1.083-.4,1.211-1.208v-.22C146.308,59.68,145.9,59.279,145.1,59.021Zm12.691,0q-1.428.331-1.428,1.428.385,1.209,1.206,1.208h.222q1.012,0,1.211-1.208v-.22C159,59.68,158.592,59.279,157.788,59.021Zm6.36,0c-.785,0-1.263.477-1.421,1.428.251.806.654,1.208,1.2,1.208h.219q1.016,0,1.208-1.208v-.22C165.356,59.68,164.954,59.279,164.148,59.021Zm12.613,0q-1.179,0-1.426,1.428.384,1.209,1.206,1.208h.22c.677,0,1.074-.4,1.207-1.208v-.22C177.968,59.68,177.566,59.279,176.761,59.021Zm3.179,0q-1.428.331-1.428,1.428.386,1.209,1.207,1.208h.221q1.014,0,1.207-1.208v-.22C181.147,59.68,180.748,59.279,179.94,59.021Zm-31.665,0a1.467,1.467,0,0,0-1.428,1.208c.152.95.55,1.426,1.213,1.426h.215q1.016,0,1.208-1.208Q149.291,59.022,148.275,59.022Zm3.182,0a1.457,1.457,0,0,0-1.422,1.208q.213,1.425,1.2,1.426h.219q1.017,0,1.208-1.208Q152.475,59.022,151.457,59.022Zm3.07,0A1.457,1.457,0,0,0,153.1,60.23q.214,1.425,1.2,1.426h.221q1.016,0,1.206-1.208Q155.541,59.022,154.527,59.022Zm6.448,0a1.464,1.464,0,0,0-1.433,1.208q.22,1.425,1.209,1.426h.224q1.008,0,1.2-1.208Q161.985,59.022,160.975,59.022Zm12.608,0a1.455,1.455,0,0,0-1.428,1.208q.215,1.425,1.2,1.426h.224q1.008,0,1.2-1.208Q174.593,59.022,173.583,59.022ZM145.1,62.2c-.636,0-1.116.44-1.427,1.313q.3,1.317,1.207,1.318h.111a1.167,1.167,0,0,0,1.32-1.318v-.11C146.308,62.859,145.9,62.457,145.1,62.2Zm12.691,0c-.636,0-1.116.44-1.428,1.313q.3,1.317,1.206,1.318h.111A1.168,1.168,0,0,0,159,63.517v-.11C159,62.859,158.592,62.457,157.788,62.2Zm18.973,0c-.952.221-1.426.691-1.426,1.423q.384,1.208,1.206,1.208h.22c.677,0,1.074-.4,1.207-1.208v-.22Q177.968,62.585,176.761,62.2Zm3.179,0c-.641,0-1.116.44-1.428,1.313q.3,1.317,1.207,1.318h.111a1.165,1.165,0,0,0,1.317-1.318v-.11C181.147,62.859,180.748,62.457,179.94,62.2Zm-31.775,0c-.878.252-1.317.692-1.317,1.314.187.878.585,1.316,1.212,1.316h.215q1.016,0,1.207-1.207C149.373,62.676,148.933,62.2,148.165,62.2Zm3.183,0c-.879.252-1.312.692-1.312,1.314.177.878.58,1.316,1.2,1.316h.22q1.014,0,1.207-1.207C152.556,62.676,152.12,62.2,151.348,62.2Zm3.068,0c-.879.252-1.311.692-1.311,1.314.177.878.579,1.316,1.2,1.316h.221q1.016,0,1.208-1.207C155.624,62.676,155.189,62.2,154.416,62.2Zm6.444,0c-.873.252-1.316.692-1.316,1.314q.273,1.317,1.207,1.316h.223c.672,0,1.076-.4,1.2-1.207C162.072,62.676,161.628,62.2,160.86,62.2Zm12.609,0c-.874.252-1.313.692-1.313,1.314q.267,1.317,1.2,1.316h.226c.67,0,1.073-.4,1.2-1.207-.109-.951-.549-1.423-1.316-1.423Z"/></svg>