<svg xmlns="http://www.w3.org/2000/svg" width="214" height="92" viewBox="0 0 214 92"><defs><style>.a{fill:none;}.b{fill:#00979d;}</style></defs><title>ArduinoLogo</title><rect class="a" width="214" height="92"/><path class="b" d="M150.833,36.789c0-11.472-9.681-20.789-21.548-20.789a20.246,20.246,0,0,0-3.308.243c-9.226,1.3-15.417,7.951-18.877,13.05-3.46-5.1-9.651-11.745-18.877-13.05A24.232,24.232,0,0,0,84.915,16c-11.9,0-21.548,9.317-21.548,20.789s9.681,20.789,21.548,20.789a20.859,20.859,0,0,0,3.338-.243c9.226-1.335,15.418-7.981,18.877-13.08,3.46,5.1,9.651,11.745,18.877,13.08a24.323,24.323,0,0,0,3.339.243c11.806,0,21.487-9.317,21.487-20.789M87.161,50.052a14.4,14.4,0,0,1-2.276.151c-7.831,0-14.173-6.039-14.173-13.414,0-7.405,6.373-13.414,14.2-13.414a19.119,19.119,0,0,1,2.276.152c8.71,1.244,14.021,9.833,15.842,13.262-1.851,3.46-7.192,12.018-15.872,13.263m24.006-13.263c1.79-3.429,7.132-12.018,15.842-13.262a19.119,19.119,0,0,1,2.276-.152c7.83,0,14.173,6.039,14.173,13.414,0,7.405-6.373,13.414-14.173,13.414a19.117,19.117,0,0,1-2.276-.151c-8.71-1.245-14.052-9.833-15.842-13.263M78.936,34.756H91.9v4.158H78.936Zm51.776,4.188h4.37V34.756h-4.37V30.385h-4.189v4.371h-4.37v4.188h4.37v4.37h4.189ZM69.437,63.769,65.674,75.818h3.035l.606-2.458h3.46l.668,2.458H76.6L72.775,63.769Zm.455,7.254,1.093-4.4,1.183,4.4ZM87.98,67.775c0-2.306-1.244-4.036-4.583-4.036H78.542V75.788h2.974V71.964h1.517l1.821,3.824h3.521l-2.337-4.4a3.833,3.833,0,0,0,1.942-3.612M83.094,69.6H81.516V66.2h1.517c1.4,0,1.76.547,1.76,1.609,0,1.335-.667,1.79-1.7,1.79m11.229-5.827H90.378V75.818h3.945c5.1,0,5.979-3.278,5.979-6.131.03-3.793-1.457-5.918-5.979-5.918m.182,9.56H93.382V66.2h.88c2.671,0,2.914,1.245,2.914,3.612-.03,2.033-.213,3.52-2.671,3.52m14.659-2.215c0,1.821-.516,2.428-1.852,2.428-1.122,0-1.82-.456-1.82-2.459V63.739h-2.975V71.63c0,3.642,2.641,4.34,4.674,4.34,2.124,0,4.856-.759,4.856-4.31V63.739h-2.853l-.03,7.375Zm5.523-4.886h3.1v7.1h-3.1v2.489h9.226V73.329h-3.126v-7.1h3.126V63.769h-9.226Zm18.847,4.764-3.915-7.223h-3.247V75.818h2.822l-.03-7.709,4.127,7.709h3V63.769h-2.762Zm9.8-7.374c-3.642,0-5.038,2.67-5.038,6.312,0,3.976,1.578,6.07,5.068,6.07,3.885,0,5.159-2.731,5.159-6.191-.03-4.613-1.79-6.191-5.189-6.191m0,9.954c-1.73,0-1.882-1.214-1.882-3.642,0-2.944.273-3.884,1.882-3.884,1.76,0,2,.819,2,3.763-.031,2.762-.273,3.763-2,3.763m3.4-54.021a1.9,1.9,0,1,1,3.793,0,1.892,1.892,0,0,1-1.912,1.942A1.924,1.924,0,0,1,146.736,19.551Zm3.46,0a1.6,1.6,0,0,0-1.579-1.639,1.523,1.523,0,0,0-1.547,1.639,1.558,1.558,0,0,0,1.547,1.639A1.531,1.531,0,0,0,150.2,19.551Zm-2.489-1.214h.941c.728,0,1,.3,1,.819a.693.693,0,0,1-.455.7l.455.911h-.667l-.334-.82h-.334v.82h-.607V18.337Zm.88,1.183c.273,0,.425-.091.425-.394,0-.273-.091-.364-.425-.364h-.3v.789Z"/></svg>