<svg xmlns="http://www.w3.org/2000/svg" width="214" height="92" viewBox="0 0 214 92"><defs><style>.a{fill:none;}.b{fill:#9e9e9e;}.c{fill:#df0420;}</style></defs><title>BoschLogo</title><rect class="a" width="214" height="92"/><path class="b" d="M36.719,26a20,20,0,1,0,20,20.006v-.012A20,20,0,0,0,36.719,26Zm.011,37.5a17.5,17.5,0,1,1,17.5-17.493A17.5,17.5,0,0,1,36.73,63.5Zm8.146-29.342L42.9,32.749v7.6H30.96v-7.47l-1.923,1.247c-.286.166-6.388,4.185-6.388,11.7s6.079,11.94,6.337,12.123L30.96,59.36V51.787H42.9v7.418l1.917-1.219c.258-.166,6.394-4.19,6.394-11.706S45.133,34.34,44.876,34.157Zm-16.417,19.9a12.591,12.591,0,0,1-3.32-8.226,11.481,11.481,0,0,1,3.32-7.95ZM42.9,49.291H30.96V42.84H42.9Zm2.495,4.94V38.072a12.59,12.59,0,0,1,3.32,8.208A11.479,11.479,0,0,1,45.4,54.231Z"/><path class="c" d="M113.261,32.365c-7.126,0-11.917,5.472-11.917,13.612s4.791,13.612,11.917,13.612,11.918-5.472,11.918-13.612S120.388,32.365,113.261,32.365Zm0,21.282c-3.509,0-5.759-3.028-5.759-7.67s2.261-7.636,5.759-7.636,5.8,2.994,5.8,7.636S116.765,53.647,113.256,53.647Zm14.985-13.176c0-4.843,3.841-8.1,9.565-8.1a12.121,12.121,0,0,1,9.342,3.938l-3.841,3.812a7.612,7.612,0,0,0-5.386-2.381c-1.654,0-3.372.824-3.372,2.622s2.044,2.375,4.145,2.816l.921.177c4.287.9,8.14,2.176,8.14,7.825,0,5.547-5.026,8.409-9.989,8.409-5.81,0-8.586-2.267-10.692-4.745l3.944-3.87a8.418,8.418,0,0,0,6.674,3.3c2.227,0,3.72-1.122,3.72-2.782,0-1.866-1.551-2.393-4.842-3.085l-.922-.195c-3.406-.71-7.412-2.633-7.412-7.75m22.329,5.283c0-6.68,3.732-13.417,12.072-13.417,4.259,0,7.31,1.7,9.88,5.489l-5.008,3.332a5.245,5.245,0,0,0-4.826-2.862c-2.936,0-5.913,2.57-5.913,7.481,0,5.375,3.166,7.825,6.108,7.825,2.438,0,3.646-1.133,4.791-2.959l5.049,3.434c-2.5,3.555-4.883,5.489-10.144,5.489-7.086,0-12.02-5.632-12.02-13.737m40.3-12.8h6.577V58.965h-6.577V48.776a.177.177,0,0,0-.177-.177h-7.974a.177.177,0,0,0-.177.177V58.965h-6.537V33.023h6.56v9.5a.177.177,0,0,0,.177.177h7.951a.177.177,0,0,0,.177-.177v-9.5M98.757,51.8c0,4.431-4.082,7.339-8.2,7.339H77.114V32.875H89.426c4.74,0,8.169,2.369,8.169,7.223a5.726,5.726,0,0,1-3.589,5.37A6.507,6.507,0,0,1,98.779,51.8M90.926,40.808a2.37,2.37,0,0,0-2.243-2.49,2.221,2.221,0,0,0-.258,0H83.611v4.894h4.67A2.467,2.467,0,0,0,90.9,40.905c0-.032,0-.064,0-.1M91.75,51.06c0-1.517-1.145-2.564-3.469-2.564h-4.7v5.151H88.4c1.963,0,3.348-.7,3.348-2.6m56.188.149c0,5.787-5.237,8.586-10.166,8.586-5.724,0-8.626-2.175-10.939-4.934l4.2-4.116a8.279,8.279,0,0,0,6.663,3.383c2.118,0,3.543-1.047,3.543-2.6,0-1.672-1.259-2.187-4.7-2.914l-.922-.2c-4.144-.87-7.55-3.222-7.55-7.922,0-5.151,4.2-8.271,9.731-8.271a12.316,12.316,0,0,1,9.594,4.116L143.3,40.362a7.5,7.5,0,0,0-5.392-2.45c-1.5,0-3.2.7-3.2,2.45,0,1.591,1.769,2.169,4.007,2.639l.927.194c3.749.79,8.283,1.941,8.283,8.014m25.026,2.845c-2.7,3.881-5.2,5.724-10.4,5.724-7.4,0-12.17-6.136-12.17-13.944,0-7.441,4.316-13.6,12.25-13.6,4.35,0,7.47,1.717,10.131,5.724l-5.323,3.5a5.12,5.12,0,0,0-4.774-2.954c-2.925,0-5.724,2.616-5.724,7.3,0,5.249,3.039,7.653,5.93,7.653,2.507,0,3.658-1.242,4.74-3.028l5.335,3.618m24.665,5.089H190.68V48.776h-7.974V59.143h-6.892V32.852h6.892V42.52h7.974V32.852h6.932Z"/></svg>