<svg xmlns="http://www.w3.org/2000/svg" width="214" height="92" viewBox="0 0 214 92"><defs><style>.a{fill:none;}.b{fill:#ed1c24;}.c{fill:#231f20;}</style></defs><title>Digi-KeyLogo</title><rect class="a" width="214" height="92"/><path class="b" d="M107,15.231a130.552,130.552,0,0,1,26.943,2.716,90.252,90.252,0,0,1,21.629,7.276c5.891,2.945,10.655,6.452,13.776,10.142,2.934,3.468,4.421,7.046,4.421,10.635s-1.487,7.167-4.421,10.635c-3.121,3.69-7.885,7.2-13.776,10.142a90.252,90.252,0,0,1-21.629,7.276A130.552,130.552,0,0,1,107,76.769a130.569,130.569,0,0,1-26.944-2.716,90.244,90.244,0,0,1-21.628-7.276c-5.891-2.945-10.655-6.452-13.776-10.142C41.718,53.167,40.231,49.589,40.231,46s1.487-7.167,4.421-10.635c3.121-3.69,7.885-7.2,13.775-10.142a90.267,90.267,0,0,1,21.629-7.276A130.569,130.569,0,0,1,107,15.231M107,10C67.235,10,35,26.118,35,46s32.235,36,72,36,72-16.118,72-36-32.235-36-72-36Z"/><polygon class="b" points="95.748 36.031 92.07 54.254 97.505 54.254 101.183 36.031 95.748 36.031"/><polygon class="b" points="71.668 36.031 67.99 54.254 73.425 54.254 77.103 36.031 71.668 36.031"/><polygon class="b" points="101.997 42.522 100.79 48.504 106.227 48.504 107.434 42.522 101.997 42.522"/><path class="b" d="M153.679,36.031l-2.933,14.551h-3.532l2.934-14.551h-5.436l-3.2,15.86a2.528,2.528,0,0,0-.05.485,1.885,1.885,0,0,0,.408,1.2,1.922,1.922,0,0,0,1.51.675h6.627l-1.291,6.406h-3.531l.872-4.33h-5.44l-.889,4.4a2.348,2.348,0,0,0-.049.485,1.869,1.869,0,0,0,.408,1.2,1.9,1.9,0,0,0,1.509.665h9.575a3.205,3.205,0,0,0,2.99-2.491l4.958-24.565Z"/><path class="c" d="M84.691,49.89l1.93-9.573H84.5L82.573,49.89Zm.378-8.88h.706L84.124,49.2h-.706Z"/><path class="b" d="M81.711,36.031a3.2,3.2,0,0,0-2.989,2.494l-2.7,13.366a2.452,2.452,0,0,0-.051.485,1.885,1.885,0,0,0,.408,1.2,1.923,1.923,0,0,0,1.51.675h6.626l-1.292,6.408H79.695l.873-4.331h-5.44c-.268,1.324-.889,4.4-.889,4.4a2.348,2.348,0,0,0-.049.485,1.869,1.869,0,0,0,.408,1.2,1.9,1.9,0,0,0,1.509.665H85.68A3.2,3.2,0,0,0,88.669,60.6l4.96-24.565Zm3.547,14.551H81.727l2.208-10.957h3.532Z"/><path class="c" d="M152.545,34.647,149.612,49.2h-.706l2.933-14.551h-8.26l-.366,1.814a3.214,3.214,0,0,0-.4-.646h0a3.266,3.266,0,0,0-2.553-1.171h-9.578A4.68,4.68,0,0,0,126.32,38.3l-2.631,13.026-3.072-8.515,11.174-13.066H121.756L118.1,34.13l.885-4.386h-8.26l-2.3,11.394h-6.86l2.3-11.394h-8.26l-.99,4.9h-12.9A4.477,4.477,0,0,0,78.5,36.1l1.283-6.354h-8.26L71.17,31.5a3.157,3.157,0,0,0-.377-.59v0a3.311,3.311,0,0,0-2.59-1.167H55l-5.227,25.9H63.392a4.5,4.5,0,0,0,3.2-1.481l-.3,1.481h7.557l-.971,4.808a3.7,3.7,0,0,0-.079.773,3.2,3.2,0,0,0,3.3,3.251H85.68a4.584,4.584,0,0,0,4.346-3.6l1.056-5.231h7.556L99.8,49.888h6.859l-1.16,5.751h8.26l1.028-5.1,1.738,5.1h8.721l-.175-.487a3.436,3.436,0,0,0,1.786.487h9.571a4.571,4.571,0,0,0,3.807-2.231,3.191,3.191,0,0,0,.567,1.054,3.085,3.085,0,0,0,.5.484h-1.818l-1.111,5.5a3.7,3.7,0,0,0-.079.772,3.2,3.2,0,0,0,3.3,3.251h9.575a4.585,4.585,0,0,0,4.347-3.6l5.293-26.223ZM96.171,30.436h6.848l-.85,4.211H95.321Zm-24.08,0h6.848l-.85,4.211H71.241Zm-8.7,24.511H50.622L55.57,30.436H68.2a2.59,2.59,0,0,1,2.054.913v0a2.529,2.529,0,0,1,.557,1.62,3.119,3.119,0,0,1-.065.62L67.062,51.869A3.946,3.946,0,0,1,63.392,54.947Zm3.752,0L71.1,35.339h6.847L73.992,54.946Zm7.777-1.106a3.259,3.259,0,0,0,.394.622,3.091,3.091,0,0,0,.5.484H74.7Zm14.427,6.893a3.872,3.872,0,0,1-3.668,3.046H76.107A2.506,2.506,0,0,1,73.5,61.22a2.952,2.952,0,0,1,.065-.63l1-4.951h6.852l-.873,4.331h2.118l1.013-5.023h-5.78a2.627,2.627,0,0,1-2.043-.925,2.578,2.578,0,0,1-.567-1.647,3.16,3.16,0,0,1,.064-.619l2.7-13.368a3.877,3.877,0,0,1,3.668-3.049H94.475ZM82.12,55.639h.706l-.733,3.638h-.707Zm15.951-.693H91.224l3.958-19.607h6.847Zm1.873-5.75,1.487-7.366h6.849L106.794,49.2Zm17.075,5.75-2.4-7.051-1.424,7.051h-6.847l4.947-24.51h6.848l-1.259,6.238,5.2-6.238h8.207l-10.459,12.23,4.43,12.28ZM140.64,49.2h-8.962l-.14.693H140.5L140.1,51.9a3.874,3.874,0,0,1-3.67,3.049h-9.571a2.583,2.583,0,0,1-2.045-.916,2.673,2.673,0,0,1-.5-2.266L127,38.436a3.96,3.96,0,0,1,3.68-3.1h9.578a2.54,2.54,0,0,1,2.016.916h0a2.674,2.674,0,0,1,.58,1.692,3.139,3.139,0,0,1-.064.62s-1.711,8.448-2.036,10.076Zm14.2,11.536a3.872,3.872,0,0,1-3.668,3.046h-9.575a2.506,2.506,0,0,1-2.61-2.559,3.023,3.023,0,0,1,.064-.629l1-4.952H146.9l-.873,4.33h2.119l1.012-5.022h-5.781a2.627,2.627,0,0,1-2.044-.925,2.583,2.583,0,0,1-.566-1.647,3.156,3.156,0,0,1,.063-.619l3.315-16.417h6.848L148.06,49.89h2.119l2.933-14.551h6.851Zm-7.23-5.094h.707l-.734,3.637h-.706Z"/><polygon class="b" points="96.738 31.129 96.167 33.954 101.603 33.954 102.173 31.129 96.738 31.129"/><polygon class="b" points="72.658 31.129 72.087 33.954 77.523 33.954 78.093 31.129 72.658 31.129"/><path class="b" d="M140.256,36.029h-9.578a3.282,3.282,0,0,0-3,2.544L124.986,51.9a1.991,1.991,0,0,0,.36,1.69,1.906,1.906,0,0,0,1.51.664h9.571a3.205,3.205,0,0,0,2.991-2.494l.239-1.178h-8.965l.419-2.078h8.962c.325-1.628,2.036-10.075,2.036-10.075a2.466,2.466,0,0,0,.05-.485,1.967,1.967,0,0,0-.423-1.255A1.865,1.865,0,0,0,140.256,36.029Zm-4.889,8.879h-3.531l1.065-5.283h3.531Z"/><path class="c" d="M134.8,44.216l.785-3.9h-2.118l-.786,3.9Zm-.766-3.206h.706l-.507,2.513h-.706Z"/><polygon class="b" points="128.785 31.129 122.405 31.129 115.66 39.218 117.293 31.129 111.858 31.129 107.19 54.254 112.625 54.254 114.443 45.247 117.514 54.254 123.274 54.254 119.042 42.522 128.785 31.129"/><path class="c" d="M60.613,49.89l2.9-14.4H61.4l-2.9,14.4Zm1.35-13.7h.706L60.046,49.2H59.34Z"/><path class="b" d="M68.2,31.129H56.137L51.468,54.254H63.392a3.267,3.267,0,0,0,2.992-2.522l3.687-18.28a2.429,2.429,0,0,0,.051-.481,1.841,1.841,0,0,0-.4-1.183A1.912,1.912,0,0,0,68.2,31.129ZM61.18,50.582H57.648L60.83,34.8h3.531Z"/><path class="c" d="M92.734,64.472l1.222-5.762h3.1l-.239,1.152H95.07l-.231,1.06h1.69l-.246,1.153h-1.69l-.261,1.245h1.836l-.246,1.152Z"/><path class="c" d="M96.506,64.472l1.221-5.762h1.352L98.1,63.32h1.651l-.246,1.152Z"/><path class="c" d="M99.985,64.472l1.222-5.762h3.1l-.238,1.152h-1.744l-.231,1.06h1.69l-.246,1.153h-1.69l-.261,1.245h1.836l-.245,1.152Z"/><path class="c" d="M106.837,60.723l.077-.369c.107-.492-.015-.745-.269-.745-.422-.008-.576.223-.653.6l-.614,2.85c-.069.323.023.515.376.515.461,0,.6-.476.676-.83l.108-.522h1.352l-.146.707a2.1,2.1,0,0,1-2.313,1.682c-1.244,0-1.59-.661-1.336-1.836l.5-2.366a2.031,2.031,0,0,1,2.205-1.836c1.152,0,1.744.492,1.491,1.667l-.1.484Z"/><path class="c" d="M108.98,58.71h3.5l-.239,1.152h-1.09l-.984,4.61h-1.352l.983-4.61h-1.06Z"/><path class="c" d="M113.144,64.472h-1.353l1.222-5.762h1.975c1.106,0,1.567.445,1.321,1.591a1.6,1.6,0,0,1-.991,1.313v.015a.619.619,0,0,1,.507.746c-.061.461-.261,1.451-.261,1.821a.427.427,0,0,0,.085.2l-.016.077h-1.475a1.171,1.171,0,0,1-.008-.33c.085-.507.215-.984.254-1.337s-.023-.584-.331-.607h-.445Zm.706-3.312h.461c.392,0,.562-.36.63-.714.147-.683-.13-.714-.791-.7Z"/><path class="c" d="M120.026,62.636c-.276,1.3-.875,1.974-2.243,1.974s-1.7-.676-1.42-1.974l.5-2.343a2.06,2.06,0,0,1,2.2-1.721c1.183,0,1.691.614,1.46,1.721Zm-.875-2.251c.077-.354.138-.776-.307-.776s-.576.422-.654.776l-.5,2.366c-.077.33-.122.822.315.822s.569-.492.645-.822Z"/><path class="c" d="M122.123,61.245l-.015.016-.56,3.211h-1.284l1.222-5.762h1.39l.361,3.219h.023l.554-3.219H125.1l-1.222,5.762h-1.383Z"/><path class="c" d="M124.558,64.472l1.222-5.762h1.352l-1.222,5.762Z"/><path class="c" d="M129.667,60.723l.077-.369c.107-.492-.015-.745-.269-.745-.423-.008-.577.223-.654.6l-.614,2.85c-.069.323.023.515.376.515.462,0,.6-.476.677-.83l.108-.522h1.351l-.146.707a2.1,2.1,0,0,1-2.312,1.682c-1.244,0-1.59-.661-1.337-1.836l.5-2.366a2.03,2.03,0,0,1,2.2-1.836c1.152,0,1.743.492,1.49,1.667l-.1.484Z"/><path class="c" d="M132.355,62.544l-.085.407c-.069.33-.022.622.408.622a.646.646,0,0,0,.576-.576c.1-.484-.261-.668-.568-.884a2.861,2.861,0,0,1-.861-.752,1.464,1.464,0,0,1-.146-1.153,1.941,1.941,0,0,1,2.044-1.636c1.175,0,1.613.784,1.321,1.867H133.8c.054-.339.169-.8-.269-.83a.512.512,0,0,0-.553.384.567.567,0,0,0,.254.707,7.09,7.09,0,0,1,1.091.814,1.46,1.46,0,0,1,.208,1.376,2.007,2.007,0,0,1-2.106,1.72c-1.236,0-1.614-.691-1.452-1.452l.131-.614Z"/><path class="c" d="M162.953,36.334a1.238,1.238,0,1,1,1.24,1.315A1.253,1.253,0,0,1,162.953,36.334Zm1.24,1.577a1.574,1.574,0,1,0-1.547-1.577A1.545,1.545,0,0,0,164.193,37.911Zm-.322-1.453h.3l.463.788h.3l-.5-.8a.464.464,0,0,0,.455-.5c0-.358-.205-.517-.62-.517H163.6v1.816h.266Zm0-.232v-.563h.362c.185,0,.382.042.382.267,0,.279-.2.3-.427.3Z"/></svg>