<svg xmlns="http://www.w3.org/2000/svg" width="214" height="92" viewBox="0 0 214 92"><defs><style>.a{fill:none;}.b{fill:red;}</style></defs><title>EspressifLogo</title><rect class="a" width="214" height="92"/><path class="b" d="M184.422,41.056a3.767,3.767,0,0,1,.3-1.382,5.04,5.04,0,0,1,1.012-1.379,6.144,6.144,0,0,1,4.451-1.641,8.3,8.3,0,0,1,5.77,2.56.5.5,0,0,1-.719.694,7.292,7.292,0,0,0-5.067-2.255,5.2,5.2,0,0,0-3.74,1.36,4.02,4.02,0,0,0-.8,1.077,2.866,2.866,0,0,0-.216,1.045v4.081h9.6a.5.5,0,1,1,0,1h-9.6v8.633a.5.5,0,0,1-1,0V46.215h-1.9a.5.5,0,1,1,0-1h1.9Zm-7.2,13.786V37.158a.506.506,0,0,0-1.011,0V54.842a.506.506,0,0,0,1.011,0Zm-13.655-9.511c-3.649-.469-5.825-1.933-5.825-3.933a2.91,2.91,0,0,1,.947-2.067,6.982,6.982,0,0,1,4.952-1.662,7.765,7.765,0,0,1,4.48,1.339.508.508,0,1,0,.607-.814,8.789,8.789,0,0,0-5.077-1.541,7.949,7.949,0,0,0-5.677,1.956,3.9,3.9,0,0,0-1.248,2.789c0,2.52,2.427,4.343,6.513,4.915l.027,0c4.627.547,6.328,1.655,6.284,4.06A3.416,3.416,0,0,1,168.32,52.8a6.761,6.761,0,0,1-5.106,1.5,9.8,9.8,0,0,1-5.532-1.931.508.508,0,0,0-.647.783,10.777,10.777,0,0,0,6.095,2.16c.262.022.521.032.778.032a7.559,7.559,0,0,0,5.093-1.8,4.414,4.414,0,0,0,1.567-3.156C170.634,46.75,167.266,45.786,163.569,45.331Zm-17.754,0c-3.649-.469-5.825-1.933-5.825-3.933a2.906,2.906,0,0,1,.947-2.067,6.982,6.982,0,0,1,4.952-1.662,7.765,7.765,0,0,1,4.48,1.339.508.508,0,1,0,.607-.814,8.789,8.789,0,0,0-5.077-1.541,7.949,7.949,0,0,0-5.677,1.956,3.9,3.9,0,0,0-1.248,2.789c0,2.52,2.427,4.343,6.513,4.915l.027,0c4.627.547,6.328,1.655,6.284,4.06a3.416,3.416,0,0,1-1.232,2.422,6.761,6.761,0,0,1-5.106,1.5,9.8,9.8,0,0,1-5.532-1.931.508.508,0,1,0-.647.783,10.777,10.777,0,0,0,6.095,2.16c.262.022.521.032.778.032a7.559,7.559,0,0,0,5.093-1.8,4.414,4.414,0,0,0,1.567-3.156C152.88,46.75,149.512,45.786,145.815,45.331ZM133.783,46a.511.511,0,0,0-.511-.511H122.7c.225-4.354,3.307-7.814,7.063-7.814a6.144,6.144,0,0,1,3.031.8.511.511,0,0,0,.5-.892,7.159,7.159,0,0,0-3.53-.931c-4.317,0-7.856,3.919-8.086,8.836H119.73a.511.511,0,0,0,0,1.022h1.951c.23,4.917,3.769,8.836,8.086,8.836a7.162,7.162,0,0,0,3.532-.932.511.511,0,1,0-.5-.892,6.15,6.15,0,0,1-3.033.8c-3.756,0-6.838-3.46-7.063-7.814h10.568A.511.511,0,0,0,133.783,46Zm-29.685.192v7.4a1.833,1.833,0,0,1-1.1,1.723.514.514,0,0,1-.686-.075.46.46,0,0,1,.011-.682,2.158,2.158,0,0,0,.768-1.8V36.592h7.326a4.935,4.935,0,0,1,4.937,4.8,4.83,4.83,0,0,1-2.476,4.138c-.634.449-.711.521-.072.989a6.178,6.178,0,0,1,2.371,4.936c.046.67,0,1.346.017,2.018.012.463.13.845.737.754.376-.056.7.046.7.494,0,.411-.345.56-.672.647a1.4,1.4,0,0,1-1.671-1.147,8.513,8.513,0,0,1-.07-1.508,12.873,12.873,0,0,0-.193-2.381,4.721,4.721,0,0,0-3.713-3.856,10.39,10.39,0,0,0-2.011-.284Zm0-1.011h6.316a3.791,3.791,0,1,0,0-7.578H104.1ZM84.666,36.653H92.75a4.819,4.819,0,1,1,0,9.637H85.676v8.552a.5.5,0,1,1-1.01,0Zm11.991,4.8a3.9,3.9,0,0,0-3.907-3.79H85.676V45.28H92.75A3.92,3.92,0,0,0,96.657,41.453ZM72.286,45.331c-3.649-.469-5.825-1.933-5.825-3.933a2.91,2.91,0,0,1,.947-2.067,6.982,6.982,0,0,1,4.952-1.662,7.765,7.765,0,0,1,4.48,1.339.508.508,0,1,0,.607-.814,8.789,8.789,0,0,0-5.077-1.541,7.949,7.949,0,0,0-5.677,1.956A3.9,3.9,0,0,0,65.445,41.4c0,2.52,2.427,4.343,6.513,4.915l.027,0c4.627.547,6.328,1.655,6.284,4.06A3.416,3.416,0,0,1,77.037,52.8a6.761,6.761,0,0,1-5.106,1.5A9.8,9.8,0,0,1,66.4,52.372a.508.508,0,1,0-.647.783,10.777,10.777,0,0,0,6.095,2.16c.262.022.521.032.778.032a7.559,7.559,0,0,0,5.093-1.8A4.414,4.414,0,0,0,79.285,50.4C79.351,46.75,75.983,45.786,72.286,45.331ZM60.23,46a.511.511,0,0,0-.511-.511H49.151c.225-4.354,3.307-7.814,7.063-7.814a6.141,6.141,0,0,1,3.031.8.511.511,0,1,0,.5-.892,7.156,7.156,0,0,0-3.53-.931c-4.317,0-7.855,3.919-8.086,8.836H46.177a.511.511,0,1,0,0,1.022h1.951c.231,4.917,3.769,8.836,8.086,8.836a7.165,7.165,0,0,0,3.533-.932.511.511,0,0,0-.5-.892,6.153,6.153,0,0,1-3.034.8c-3.756,0-6.838-3.46-7.063-7.814H59.719A.511.511,0,0,0,60.23,46ZM30.091,57.985a17.8,17.8,0,0,0,1.942-.028,13.009,13.009,0,0,0,7.449-3.2c.184-.161.389-.351.457-.421l.123-.128-.334-.335-.335-.335-.3.278a12.015,12.015,0,0,1-7.365,3.208,15.6,15.6,0,0,1-2.176-.043,12.076,12.076,0,0,1-10.536-9.948A10.324,10.324,0,0,1,18.855,45a10.827,10.827,0,0,1,.29-2.675,12.193,12.193,0,0,1,2.926-5.533,2.718,2.718,0,0,0,.265-.3,4.937,4.937,0,0,0-.657-.644,1.17,1.17,0,0,0-.251.227,13.031,13.031,0,0,0-3.485,7.77,16.452,16.452,0,0,0,0,2.318,13.19,13.19,0,0,0,1.681,5.336,15.332,15.332,0,0,0,1.132,1.653A15.645,15.645,0,0,0,22.4,54.852a13,13,0,0,0,7.69,3.133Zm-.661-2.1c.2.028.386.052.42.053.077,0,.145-.1.407-.617a7.22,7.22,0,0,0-5.9-10.441c-.489-.036-.637-.077-.781-.217a.564.564,0,0,1-.21-.511.524.524,0,0,1,.076-.351c.2-.339.479-.406,1.3-.311a8.665,8.665,0,0,1,7.634,7.556,11.881,11.881,0,0,1,.015,1.958,9.494,9.494,0,0,1-.415,1.862.762.762,0,0,0-.063.252c.01.01.35.143.755.3l.737.277.269-.069a10.392,10.392,0,0,0,1.848-.681,10.366,10.366,0,0,0,.311-1.77,16.34,16.34,0,0,0-.013-2.3,12.333,12.333,0,0,0-1.216-4.2,12.071,12.071,0,0,0-9.435-6.609,8.456,8.456,0,0,0-1.86,0,4.176,4.176,0,0,0-3.095,2.509,6.586,6.586,0,0,0-.285,1.826,3.707,3.707,0,0,0,.447,1.666,4.011,4.011,0,0,0,1.8,1.781,4.066,4.066,0,0,0,1.743.454,3.988,3.988,0,0,1,1.149.222,3.812,3.812,0,0,1,2.454,2.923,4.514,4.514,0,0,1,0,1.261,4.056,4.056,0,0,1-.7,1.628c-.139.189-.169.246-.142.272l.537.473.5.441.31.085a11.846,11.846,0,0,0,1.385.279ZM23.487,53.96a2.628,2.628,0,0,0,.819-.044,1.921,1.921,0,0,0,1.181-.977,1.886,1.886,0,0,0-1.04-2.627,1.41,1.41,0,0,0-.554-.1,1.709,1.709,0,0,0-.95.191,1.943,1.943,0,0,0-.977,1.236,2.284,2.284,0,0,0,.01.917,1.893,1.893,0,0,0,1.511,1.4Zm14.345-1.681c.3.008.711.014.908.013H39.1l.189-.219A8.691,8.691,0,0,0,40.6,50.053c0-.041-.032-.28-.071-.531A16.929,16.929,0,0,0,26.008,35.29l-.226-.03-.228.128c-.323.182-.762.461-1.073.683a7.863,7.863,0,0,0-.875.713c-.009.02-.01.434,0,.919l.013.883.634.03a13.26,13.26,0,0,1,2.216.261A13.485,13.485,0,0,1,37.156,50.356c.058.452.109,1.155.119,1.618l.006.29.551.015ZM41.1,46.064l.025.061.325-.11c.179-.06.344-.121.367-.135s.041-.145.041-.834a10.1,10.1,0,0,0-.321-2.733,11.015,11.015,0,0,0-6.588-7.53,11.2,11.2,0,0,0-4.4-.775c-.588.025-.526-.009-.658.363a3.382,3.382,0,0,0-.114.353,1.244,1.244,0,0,0,.352.165,18.34,18.34,0,0,1,9.509,8,19.87,19.87,0,0,1,1.309,2.771c.07.19.138.372.152.405Z"/></svg>