<svg xmlns="http://www.w3.org/2000/svg" width="214" height="92" viewBox="0 0 214 92"><defs><style>.a{fill:none;}.b{fill:#133768;}.c{fill:#60636b;}</style></defs><title>ExarLogo</title><rect class="a" width="214" height="92"/><path class="b" d="M116.624,34.485h8.413v23.03h-5.862V52.144h-9.459l4.113-5.326h5.346V38.234L106.369,54.7l2.2,2.815H101.1l-6.333-8.107-6.333,8.107H65.083V36.628a2.142,2.142,0,0,1,2.142-2.143H81.686v5.356H70.439v3.481h9.64v5.356h-9.64v3.481h14.71l5.883-7.53L83.107,34.485h7.468l4.191,5.365,4.191-5.365h7.468L98.5,44.629l4.25,5.44,10.907-14.126A3.751,3.751,0,0,1,116.624,34.485Zm28.153,14a5.343,5.343,0,0,0,2.248-4.355V34.485h-16.6a2.142,2.142,0,0,0-2.142,2.143V57.515h5.891V49.481h4.178l4.463,8.034H149.8Zm-3.108-5.427a1.606,1.606,0,0,1-1.606,1.607h-5.892v-4.82h7.5Z"/><path class="b" d="M139.175,72.452c9.638-1.794,19.2-4.367,27.988-8.8,4.905-2.473,9.41-5.5,12.638-10.082a20.921,20.921,0,0,0,1.216-1.939,16.069,16.069,0,0,0,2.111-8.093,14.25,14.25,0,0,0-2.535-7.676,26.7,26.7,0,0,0-7.013-6.524,39.077,39.077,0,0,0-9.112-4.469,109.642,109.642,0,0,0-21.185-5.354A149.233,149.233,0,0,0,121.314,18c-7.4,0-14.785.415-22.155,1-5.83.466-11.65,1.1-17.428,2.009a129.673,129.673,0,0,0-29.208,7.77,58.789,58.789,0,0,0-12.3,6.733c-3.518,2.567-6.846,5.647-8.472,9.785,5.9-7.591,14.06-11.822,22.816-14.788,31.014-10.506,63.537-10.592,87.154-6.828,8.674,1.382,24.3,6.439,31.181,12.243a16.275,16.275,0,0,1,4.848,6.439c1.667,4.339.273,8.835-2.722,12.217a34.336,34.336,0,0,1-6.255,5.295,62.5,62.5,0,0,1-7.267,4.279c-9.691,4.918-20.27,7.241-30.747,9.645C133.573,73.405,136.377,72.973,139.175,72.452Z"/><path class="c" d="M34.322,45.108a11.11,11.11,0,0,0-1.357,9.514c1.326,3.968,5.167,6.765,8.613,8.82,6.269,3.739,13.261,5.636,20.349,7.089,20.284,4.156,40.723,4.255,61.213,2,5.083-.56,11.537-1.856,16.591-2.673-2.053-.067-5.066.045-6.762.156-6.718.442-13.477.827-20.209.966a212.766,212.766,0,0,1-35.777-2.072A162.626,162.626,0,0,1,60.3,65.6a58.638,58.638,0,0,1-15.261-6.023c-8.266-4.884-10.609-11.433-4.182-20.537A26.977,26.977,0,0,0,34.322,45.108Z"/></svg>