<svg xmlns="http://www.w3.org/2000/svg" width="214" height="92" viewBox="0 0 214 92"><defs><style>.a{fill:none;}.b{fill:#eb3426;}</style></defs><title>HoneywellLogo</title><rect class="a" width="214" height="92"/><path class="b" d="M29.981,34.255v10.16h6.141V34.255h7.271l.012,24.851-7.283.05V48.2l-6.141.012V59.106l-7.387.05V34.205Zm45.282,8.367-.4-1.394H68.291V59.144h6.772V46.208l.4-.6a4,4,0,0,1,3.486-1.2,1.788,1.788,0,0,1,.9,1.3l0,13.4h7.075s.071-10.023,0-12.443a6.949,6.949,0,0,0-1.294-3.941C83.131,39.634,77.852,40.331,75.263,42.622Zm33.128-1.444L115.4,58.857l.1,1.494c-.8,1.2-1.3,3.287-2.988,3.387a15.394,15.394,0,0,0-.034-2.59,2.953,2.953,0,0,0-2.954-1.793c-1.095.1-1.792,1.1-2.291,1.992a3.6,3.6,0,0,0,1,3.586,3.93,3.93,0,0,0,3.586,1.195,7.469,7.469,0,0,0,4.78-2.689l8.915-22.1,5.925,17.813,5.257-.05L139.9,48.5l3.017,10.608h5.146l4.586-17.928-2.391.05-2.921,9.412-3.055-9.412H138.6l-2.689,9.263-3.287-9.313h-9.76L119.284,49.4,115.9,41.228Zm.534,10.292H96.377c0,2.843,0,4.523.8,5.1.7,1.046,2.689,1.3,4.382,1.1a4.946,4.946,0,0,0,3.885-3.6c1.021.02,1.643-.012,2.889,0a4.192,4.192,0,0,1-1.2,2.9c-2.988,2.788-7.37,3.386-11.453,2.49a8.708,8.708,0,0,1-6.474-7.37c-.5-4.084.6-8.168,4.283-10.459,4.282-1.992,10.755-1.693,13.644,2.59A12.7,12.7,0,0,1,108.925,51.47Zm-7.734-2.822-.02-4.332c-.2-1.5-1.707-1.893-3.1-1.694-2.315.921-1.494,4.183-1.594,6.076A46.989,46.989,0,0,0,101.191,48.648Zm72.1,2.822H160.74c0,2.843,0,4.523.8,5.1.7,1.046,2.689,1.3,4.382,1.1a4.944,4.944,0,0,0,3.884-3.6c1.022.02,1.644-.012,2.889,0a4.188,4.188,0,0,1-1.2,2.9c-2.987,2.788-7.369,3.386-11.453,2.49a8.706,8.706,0,0,1-6.473-7.37c-.5-4.084.6-8.168,4.282-10.459,4.283-1.992,10.756-1.693,13.644,2.59A12.7,12.7,0,0,1,173.288,51.47Zm-7.735-2.822-.02-4.332c-.2-1.5-1.706-1.893-3.1-1.694-2.316.921-1.494,4.183-1.594,6.076A46.969,46.969,0,0,0,165.553,48.648Zm16.371,10.458v-24.9H175.2v24.9Zm9.482,0v-24.9h-6.723v24.9ZM65.89,50.183A9.876,9.876,0,0,1,63.042,57.4a10.538,10.538,0,0,1-7.188,2.525,10.843,10.843,0,0,1-6.416-1.754,9.925,9.925,0,0,1-3.619-7.984A10.063,10.063,0,0,1,49.007,42.7a10.278,10.278,0,0,1,6.847-2.253,10.694,10.694,0,0,1,6.6,1.975A9.882,9.882,0,0,1,65.89,50.183Zm-7.732-5.3a2.272,2.272,0,0,0-4.544,0V55.4a2.272,2.272,0,1,0,4.544,0Z"/></svg>