<svg xmlns="http://www.w3.org/2000/svg" width="214" height="92" viewBox="0 0 214 92"><defs><style>.a{fill:none;}.b{fill:#0071c5;}</style></defs><title>IntelLogo</title><rect class="a" width="214" height="92"/><path class="b" d="M104.727,69.486c-17.979,1.658-36.718-.954-39.343-15C64.1,47.555,67.26,40.211,71.446,35.645V33.208c-7.54,6.613-11.627,14.98-9.273,24.865C65.18,70.751,81.258,77.93,105.806,75.546c9.717-.942,22.425-4.066,31.265-8.922V59.731C129.048,64.512,115.78,68.46,104.727,69.486Zm47.362-36.443c-4.265-20.821-44.691-22.14-70.75-6.278v1.752c26.03-13.382,62.951-13.3,66.312,5.879,1.128,6.344-2.446,12.954-8.83,16.76v4.977C146.5,53.316,154.379,44.2,152.089,33.043ZM135.617,55.948c-3.524-.342-4.714-2.482-4.714-4.942V30.011h4.714Zm-56.128.387c-3.532-.336-4.725-2.473-4.725-4.942l0-13.716h4.723ZM79.474,30.65v4.468H74.766V30.65Zm28.245,25.468a5.034,5.034,0,0,1-5.43-5.264V32.641h4.673v5.036h3.519v3.774h-3.519v9.114a1.45,1.45,0,0,0,1.616,1.658h1.9v3.9h-2.762m8.6-7.759a3.882,3.882,0,0,0,4.141,4.148,5.28,5.28,0,0,0,4.292-1.757l2.887,2.751a9.233,9.233,0,0,1-7.214,2.94c-4.472,0-8.756-2.44-8.756-9.556,0-6.083,3.744-9.521,8.653-9.521,4.99,0,7.858,4.025,7.858,9.309v1.686H116.318m3.8-7.13a3.586,3.586,0,0,0-3.349,1.935,4.805,4.805,0,0,0-.449,2.009h7.2C123.428,43.164,122.517,41.229,120.116,41.229Zm-31.8.222V56.145H83.637V37.677l9.655,0c4.1,0,5.5,2.9,5.5,5.52V56.145H94.12V43.228c0-1.1-.57-1.777-1.94-1.777Zm52.376-7.689a1.876,1.876,0,0,1,0-3.751,1.876,1.876,0,1,1,0,3.751Zm0-3.438a1.559,1.559,0,1,0,1.567,1.563A1.576,1.576,0,0,0,140.689,30.324Zm.832,2.687h-.351a.078.078,0,0,1-.071-.047l-.474-.806a.142.142,0,0,0-.067-.037h-.217v.8a.083.083,0,0,1-.079.087h-.316a.086.086,0,0,1-.079-.087V30.9c0-.118.04-.167.143-.182s.41-.027.575-.027c.585,0,.928.172.928.715v.039a.568.568,0,0,1-.422.6l.494.84a.16.16,0,0,1,.012.06A.066.066,0,0,1,141.521,33.011Zm-.454-1.607c0-.227-.141-.3-.442-.3h-.3v.642c.047,0,.259.01.3.01.3,0,.442-.1.442-.315Z"/></svg>