<svg xmlns="http://www.w3.org/2000/svg" width="214" height="92" viewBox="0 0 214 92"><defs><style>.a{fill:none;}.b{fill:#ec1b24;}</style></defs><title>MicrochipLogo</title><rect class="a" width="214" height="92"/><path d="M82.785,38.952a2.209,2.209,0,0,0-2.163,1.738L78.866,52.943H82.7l1.028-8.423,3.848,6.774a3.012,3.012,0,0,0,4.575,0l3.83-6.632,1.047,8.281H101L99.082,40.69a2.857,2.857,0,0,0-4.859-.443l-4.274,7.377-4.592-7.377A3.076,3.076,0,0,0,82.785,38.952Zm59.05,3.334c-1.471,0-3.085,1.188-3.085,2.518v5.6a2.669,2.669,0,0,0,2.8,2.518H150.1c1.312,0,2.943-1.047,2.943-2.518v-5.32a3.225,3.225,0,0,0-3.262-2.8h-7.945Zm1.933,2.8h4.575a1.175,1.175,0,0,1,1.188,1.188V49.22c0,.709-.461.886-1.046.886h-5.16c-.6,0-1.029-.159-1.029-.886V46.276A1.357,1.357,0,0,1,143.768,45.088Zm-32.309-2.66c-1.614,0-3.245,1.472-3.245,2.518v5.728a2.915,2.915,0,0,0,2.8,2.234h8.99a1.524,1.524,0,0,0,1.774-1.649V50.088h-8.991c-.887.142-1.33-.6-1.33-1.471V46.861c0-.745.585-1.614,1.33-1.614h8.849V43.776c0-.887-.568-1.33-1.614-1.33h-8.565Zm12.094,0v10.48h3.085l.16-2.66h5.728a1.111,1.111,0,0,1,1.188,1.029v1.649H136.8V50.408a1.693,1.693,0,0,0-1.33-1.614s1.33-.6,1.472-1.614V44.662a2.717,2.717,0,0,0-2.057-2.216H123.553Zm3.263,2.66h6.313a.975.975,0,0,1,.744.886v.887c0,.443-.283.745-.886.745h-6.349Zm31.1-2.66c-1.614,0-3.245,1.33-3.245,2.518v5.728a2.891,2.891,0,0,0,2.8,2.234l8.99.142a1.7,1.7,0,0,0,1.756-1.791V50.23h-8.973a1.289,1.289,0,0,1-1.33-1.471v-1.9c0-.745.585-1.614,1.33-1.614H168.1V43.776c0-.887-.6-1.33-1.614-1.33h-8.565Zm12.111,0v10.48h3.405V49.06h6.331v3.848h3.546V42.428h-3.546v3.688h-6.331V42.428Zm-67.26.177V52.926h3.387V42.605Zm82.457,0V52.926h3.387V42.605Zm5.586,0V52.926h3.263v-2.66H202.2a2.828,2.828,0,0,0,2.358-2.5V45.247a2.719,2.719,0,0,0-2.642-2.642h-11.1Zm3.121,2.483h6.632a.843.843,0,0,1,.745.886v.887a.855.855,0,0,1-.869.9h-6.348Z"/><path class="b" d="M52.056,30.236l15.5,24.471a24.693,24.693,0,0,0,1.312-6.632L51.311,20.358A32.712,32.712,0,0,0,39.235,18C23.807,18,9.444,29.845,9.444,46.018a27.714,27.714,0,0,0,1.028,7.2l8.707-11.934,6.065,9.292a3.616,3.616,0,0,1,0,4.114l-7.678,10.6A30.341,30.341,0,0,0,39.253,74a30.82,30.82,0,0,0,20.5-7.661L41.593,37.914l5.6-7.678C49.555,27.132,52.056,30.236,52.056,30.236ZM47.339,54.707l-5.16,7.518c-2.66,4.132-5.019,0-5.019,0L21.68,37.754l5.3-7.359c2.8-3.263,5.16,0,5.16,0Z"/></svg>