<svg xmlns="http://www.w3.org/2000/svg" width="214" height="92" viewBox="0 0 214 92"><defs><style>.a{fill:none;}.b{fill:#e61c24;}</style></defs><title>MikroElektronikaLogo</title><rect class="a" width="214" height="92"/><path class="b" d="M8.026,29.077a2.053,2.053,0,0,1,2.051-2.051H43.923a2.053,2.053,0,0,1,2.051,2.051V62.923a2.053,2.053,0,0,1-2.051,2.051H10.077a2.053,2.053,0,0,1-2.051-2.051V29.077M7,29.077V62.923A3.08,3.08,0,0,0,10.077,66H43.923A3.08,3.08,0,0,0,47,62.923V29.077A3.08,3.08,0,0,0,43.923,26H10.077A3.08,3.08,0,0,0,7,29.077Zm23.309,6.611a12.86,12.86,0,0,0-.242,3.321v2.342h2.85V39.009a11.756,11.756,0,0,0-.266-3.212,1.05,1.05,0,0,0-1.086-.724Q30.55,35.073,30.309,35.688ZM19.3,32.737a.326.326,0,0,0-.182-.333,2.362,2.362,0,0,0-.785-.081H14.037a3.1,3.1,0,0,0-.9.077.318.318,0,0,0-.187.33.331.331,0,0,0,.187.336,2.837,2.837,0,0,0,.9.084h4.2a2.73,2.73,0,0,0,.859-.084A.323.323,0,0,0,19.3,32.737ZM9.051,29.077V62.923a1.026,1.026,0,0,0,1.026,1.026H43.923a1.026,1.026,0,0,0,1.026-1.026V29.077a1.026,1.026,0,0,0-1.026-1.026H10.077A1.026,1.026,0,0,0,9.051,29.077Zm5.89,6.906a5.833,5.833,0,0,1-2.026-.28,2.33,2.33,0,0,1-1.171-1.01,3.559,3.559,0,0,1-.441-1.865,4.287,4.287,0,0,1,.283-1.637,2.649,2.649,0,0,1,.74-1.055,2.61,2.61,0,0,1,.94-.508,5.839,5.839,0,0,1,1.472-.137h2.279a9.648,9.648,0,0,1,1.841.126,2.585,2.585,0,0,1,1.093.54,2.437,2.437,0,0,1,.75,1.062,4.229,4.229,0,0,1,.242,1.49c0,.212-.019.4-.035.587-.131.225-.279.438-.391.677a10.534,10.534,0,0,0-.542,1.433,2.483,2.483,0,0,1-.873.423,7.569,7.569,0,0,1-1.777.154Zm-3.47,4.984V38.134l1.223.113A2.108,2.108,0,0,1,11.3,36.459h3.274a2.379,2.379,0,0,0,.21,1.143.885.885,0,0,0,.585.448,10.524,10.524,0,0,0,1.729.084h2.338a25.75,25.75,0,0,0-.152,2.833Zm0,6.461V44.6l2.717,0-2.717-.884v-2.38l3.705,1.149,4.109-1.1v2.652l-2.566.559,2.566,0v2.833Zm0,3.69V48.2H12.95v2.917Zm2.047,0V48.2h5.767v2.182c0,.253,0,.495.007.735ZM11.471,62.46V59.523l.885.051a2.335,2.335,0,0,1-.79-.824,2.228,2.228,0,0,1-.263-1.09,2.13,2.13,0,0,1,1.053-1.877,2.621,2.621,0,0,1-.79-.847,2.322,2.322,0,0,1,.087-2.3A1.548,1.548,0,0,1,12.512,52a6.9,6.9,0,0,1,1.651-.14h5.148a24.566,24.566,0,0,0,.243,2.886H14.71a7.288,7.288,0,0,0-1.475.085.37.37,0,0,0-.285.394.386.386,0,0,0,.281.408,6.66,6.66,0,0,0,1.479.092h5.028c.029.127.058.254.09.373a9.65,9.65,0,0,0,1.1,2.513H14.864a10.259,10.259,0,0,0-1.64.07.351.351,0,0,0-.274.386.452.452,0,0,0,.145.339.541.541,0,0,0,.35.155c.137.01.431.014.879.014H21.6c.089.115.169.234.263.346a9.55,9.55,0,0,0,3.63,2.54ZM37.88,30.955a8.567,8.567,0,0,1,3.743,4.13A19.377,19.377,0,0,1,42.7,42.317v4.251H30.067V53.5a7.723,7.723,0,0,0,.314,2.8,1.225,1.225,0,0,0,1.208.627,1.466,1.466,0,0,0,1.485-.833,9.1,9.1,0,0,0,.374-3.224V48.644H42.7v2.367a21.1,21.1,0,0,1-.374,4.564,9.3,9.3,0,0,1-1.751,3.4A8.515,8.515,0,0,1,37.083,61.7a13.509,13.509,0,0,1-5.3.906,15.345,15.345,0,0,1-5.458-.894,8.479,8.479,0,0,1-5.506-5.88,22.148,22.148,0,0,1-.507-5.446V41.037a15.894,15.894,0,0,1,1.135-6.629,7.806,7.806,0,0,1,3.719-3.719A13.1,13.1,0,0,1,31.106,29.4,13.285,13.285,0,0,1,37.88,30.955Zm29.285,5.91v18h-4.3l-.006-12.154L61.153,54.868H58.106L56.3,42.992,56.3,54.868H52v-18h6.36q.282,1.623.582,3.827l.7,4.58,1.129-8.407Zm6.013,0v2.347H68.552V36.865Zm0,3.247V54.868H68.552V40.112Zm10.9,0-1.823,5.876,2.368,8.88H80.3l-1.4-6.432,0,6.432H74.4v-18H78.9l0,7.557,1.4-4.31Zm5.068,0-.178,1.94A3.342,3.342,0,0,1,91.8,39.845v5.193a3.754,3.754,0,0,0-1.812.334,1.4,1.4,0,0,0-.712.927,16.686,16.686,0,0,0-.133,2.742v5.827H84.651V40.112Zm13.707,5.182v3.614a15.3,15.3,0,0,1-.2,2.919,4.12,4.12,0,0,1-.857,1.735,3.844,3.844,0,0,1-1.685,1.188,6.679,6.679,0,0,1-2.362.385,8.45,8.45,0,0,1-2.524-.328,3.444,3.444,0,0,1-1.608-.991,3.893,3.893,0,0,1-.816-1.6,12.083,12.083,0,0,1-.245-2.818V45.616A9.259,9.259,0,0,1,93,42.4a3.683,3.683,0,0,1,1.6-1.857,5.639,5.639,0,0,1,2.958-.7,6.768,6.768,0,0,1,2.595.45,4.192,4.192,0,0,1,1.675,1.174,4.148,4.148,0,0,1,.807,1.49A9.342,9.342,0,0,1,102.851,45.294Zm-4.493-1.112a4.914,4.914,0,0,0-.122-1.428.5.5,0,0,0-.522-.3.527.527,0,0,0-.534.3,4.491,4.491,0,0,0-.134,1.428v6.661a4.308,4.308,0,0,0,.134,1.362.607.607,0,0,0,1.051.027,3.78,3.78,0,0,0,.127-1.245Zm5.992-7.317h7.806v3.6H109.03v3.414h2.926v3.425H109.03v3.958h3.437v3.6H104.35Zm13.841,0v18h-4.626v-18Zm11.672,10.886h-5.815v3.192a3.525,3.525,0,0,0,.144,1.289.562.562,0,0,0,.556.29.678.678,0,0,0,.685-.383,4.247,4.247,0,0,0,.171-1.486V48.708h4.259V49.8a9.683,9.683,0,0,1-.173,2.1,4.274,4.274,0,0,1-.806,1.568,3.926,3.926,0,0,1-1.606,1.251,6.242,6.242,0,0,1-2.441.417,7.074,7.074,0,0,1-2.513-.412,3.909,3.909,0,0,1-2.535-2.708,10.162,10.162,0,0,1-.234-2.507v-4.3a7.328,7.328,0,0,1,.523-3.052,3.584,3.584,0,0,1,1.712-1.712,6.033,6.033,0,0,1,2.736-.6,6.125,6.125,0,0,1,3.118.717,3.949,3.949,0,0,1,1.725,1.9,8.92,8.92,0,0,1,.494,3.329Zm-4.5-2.4V44.271a5.446,5.446,0,0,0-.123-1.479.483.483,0,0,0-.5-.334c-.311,0-.5.1-.578.283a5.884,5.884,0,0,0-.111,1.53V45.35Zm15.53-5.238-1.823,5.876,2.368,8.88h-4.319l-1.4-6.432-.006,6.432h-4.493v-18h4.493l.006,7.557,1.4-4.31Zm5.836-1.968v2.324h1.212V42.8h-1.212v7.9a4.271,4.271,0,0,0,.15,1.623q.151.168,1.251.167v2.38h-1.812a13.121,13.121,0,0,1-2.191-.127,2.348,2.348,0,0,1-1.156-.591,1.949,1.949,0,0,1-.623-1.055,18.843,18.843,0,0,1-.122-2.8V42.8h-.967V40.468h.967V38.144Zm6.58,1.968-.178,1.94a3.344,3.344,0,0,1,2.835-2.207v5.193a3.757,3.757,0,0,0-1.812.334,1.4,1.4,0,0,0-.712.927,16.686,16.686,0,0,0-.133,2.742v5.827h-4.492V40.112Zm13.707,5.182v3.614a15.3,15.3,0,0,1-.2,2.919,4.129,4.129,0,0,1-.856,1.735,3.853,3.853,0,0,1-1.686,1.188,6.671,6.671,0,0,1-2.362.385,8.45,8.45,0,0,1-2.524-.328,3.449,3.449,0,0,1-1.608-.991,3.917,3.917,0,0,1-.816-1.6,11.974,11.974,0,0,1-.245-2.818V45.616a9.235,9.235,0,0,1,.445-3.213,3.7,3.7,0,0,1,1.6-1.857,5.637,5.637,0,0,1,2.958-.7,6.766,6.766,0,0,1,2.6.45,4.077,4.077,0,0,1,2.481,2.664A9.342,9.342,0,0,1,167.013,45.294Zm-4.492-1.112a4.9,4.9,0,0,0-.123-1.428.5.5,0,0,0-.522-.3.527.527,0,0,0-.534.3,4.5,4.5,0,0,0-.133,1.428v6.661a4.318,4.318,0,0,0,.133,1.362.608.608,0,0,0,1.052.027,3.809,3.809,0,0,0,.127-1.245Zm10.428-4.07-.078,1.36a3.381,3.381,0,0,1,1.195-1.22,3.2,3.2,0,0,1,1.63-.407,3.084,3.084,0,0,1,1.89.545,2.428,2.428,0,0,1,.945,1.373,12.556,12.556,0,0,1,.211,2.764V54.868H174.25V44.649a9.485,9.485,0,0,0-.1-1.857c-.067-.222-.253-.334-.556-.334a.554.554,0,0,0-.6.385,9.645,9.645,0,0,0-.123,2.051v9.974h-4.492V40.112Zm11.85-3.247v2.347h-4.625V36.865Zm0,3.247V54.868h-4.625V40.112Zm11.172,0-1.823,5.876,2.368,8.88H192.2l-1.4-6.432-.007,6.432H186.3v-18h4.492l.007,7.557,1.4-4.31Zm5.113,5.716H196.87v-.99a7,7,0,0,1,.394-2.64,3.675,3.675,0,0,1,1.585-1.641,7.4,7.4,0,0,1,6.528.094,3.142,3.142,0,0,1,1.389,1.979A30.971,30.971,0,0,1,207,47.462v7.406h-4.37V53.552a2.739,2.739,0,0,1-2.613,1.583,3.8,3.8,0,0,1-2.162-.661q-.987-.663-.985-2.9V50.364a3.555,3.555,0,0,1,.523-2.257,7.368,7.368,0,0,1,2.591-1.4,7.386,7.386,0,0,0,2.368-1.167,3.125,3.125,0,0,0,.156-1.224,4.1,4.1,0,0,0-.173-1.507.593.593,0,0,0-.572-.35q-.456,0-.567.3a5.911,5.911,0,0,0-.112,1.528Zm1.424,2.023a3.31,3.31,0,0,0-1.25,1.324,5.2,5.2,0,0,0-.174,1.534,4.433,4.433,0,0,0,.151,1.479.585.585,0,0,0,.594.334.548.548,0,0,0,.55-.263,4.168,4.168,0,0,0,.129-1.372Z"/></svg>