<svg xmlns="http://www.w3.org/2000/svg" width="214" height="92" viewBox="0 0 214 92"><defs><style>.a{fill:none;}.b{fill:#5b6770;}.c{fill:#f5002f;}</style></defs><title>MurataLogo</title><rect class="a" width="214" height="92"/><path class="b" d="M173,68.372c0-1.765-2.454-1.7-2.454-2.756,0-.379.361-.576.818-.576a2.72,2.72,0,0,1,1.326.395l.017-.929a2.914,2.914,0,0,0-1.4-.319,1.637,1.637,0,0,0-1.852,1.558,1.463,1.463,0,0,0,.371,1.017c.689.775,2.067.921,2.067,1.731,0,.474-.5.654-.939.654a2.257,2.257,0,0,1-1.283-.43l-.422.766A3.032,3.032,0,0,0,171,70c1.119,0,2-.629,2-1.628m-5.253,1.094-.284-.749a2.875,2.875,0,0,1-1.4.378,2.03,2.03,0,0,1,.078-4.055,2.681,2.681,0,0,1,1.438.4l.009-.947a3.143,3.143,0,0,0-1.473-.31,2.907,2.907,0,0,0-3.074,2.945A2.709,2.709,0,0,0,165.9,70a3.478,3.478,0,0,0,1.843-.534m-6.58-5.228h-1.042v5.676h1.042Zm-3.186,5.676V64.238h-1.034V67.4c0,.25,0,.577.018.827h-.018a7.4,7.4,0,0,0-.559-.793l-2.472-3.2h-1.059v5.676H153.9V66.572c0-.267-.009-.568-.026-.758h.017c.155.242.319.457.56.776l2.566,3.324ZM149.865,67.1a1.81,1.81,0,1,1-1.791-2.041,1.811,1.811,0,0,1,1.791,2.041m1.111-.016a2.927,2.927,0,0,0-.715-2.016A3.092,3.092,0,0,0,146,65.013a2.966,2.966,0,0,0-.819,2.119,2.845,2.845,0,0,0,.9,2.17,2.917,2.917,0,0,0,4.9-2.221m-8.6-1.12a.915.915,0,0,1-.939.921h-.525V65.117h.517a.831.831,0,0,1,.947.844m1.7,3.953a13.614,13.614,0,0,0-1.7-2.575V67.33a1.625,1.625,0,0,0,1.051-1.49c0-.869-.551-1.6-2.024-1.6h-1.533v5.676h1.042V67.675h.483c.215.068.611.775,1.489,2.239Zm-5.787-5.676h-4.5v.87h1.645v4.806h1.051V65.108h1.55Zm-5.839,5.228-.284-.749a2.875,2.875,0,0,1-1.4.378,2.03,2.03,0,0,1,.077-4.055,2.681,2.681,0,0,1,1.438.4l.009-.947a3.143,3.143,0,0,0-1.473-.31,2.907,2.907,0,0,0-3.074,2.945A2.709,2.709,0,0,0,130.6,70a3.478,3.478,0,0,0,1.843-.534m-6.356.448v-.87H123.97V67.451H125.8v-.87H123.97V65.108H125.8l.284-.87h-3.16v5.676Zm-4.8,0v-.879h-2.032v-4.8h-1.042v5.676Zm-4.995,0v-.87h-2.118V67.451h1.834v-.87h-1.834V65.108h1.834l.284-.87h-3.16v5.676Zm-8.689,0V64.238h-1.033V67.4c0,.25,0,.577.017.827h-.017a7.587,7.587,0,0,0-.56-.793l-2.472-3.2h-1.059v5.676h1.042V66.572c0-.267-.009-.568-.026-.758h.017c.155.242.319.457.56.776l2.567,3.324Zm-7.268-5.676H99.3v5.676h1.042Zm-7.76,1.723a.914.914,0,0,1-.938.921h-.526V65.117h.517a.831.831,0,0,1,.947.844m1.7,3.953a13.614,13.614,0,0,0-1.7-2.575V67.33a1.625,1.625,0,0,0,1.051-1.49c0-.869-.551-1.6-2.024-1.6H90.073v5.676h1.042V67.675H91.6c.215.068.611.775,1.49,2.239ZM87.085,67.1a1.81,1.81,0,1,1-1.791-2.041A1.811,1.811,0,0,1,87.085,67.1m1.111-.016a2.927,2.927,0,0,0-.715-2.016,3.093,3.093,0,0,0-4.263-.052,2.969,2.969,0,0,0-.818,2.119,2.845,2.845,0,0,0,.9,2.17,2.917,2.917,0,0,0,4.9-2.221m-6.7-2.843H77v.87h1.645v4.806H79.7V65.108h1.55Zm-7.062,3.4H73.057l.491-1.317a4.56,4.56,0,0,0,.207-.689h.008a6.04,6.04,0,0,0,.215.706Zm2,2.274-2.282-5.7h-.758l-2.2,5.7h1.025l.525-1.421h2.024l.56,1.421Zm-5.519-5.667H69.846l-1.352,3.229c-.155.362-.267.681-.37.982h-.018c-.1-.31-.232-.663-.361-1.007l-1.232-3.2H65.376l2.3,5.7h.749ZM63.163,67.1a1.81,1.81,0,1,1-1.791-2.041A1.811,1.811,0,0,1,63.163,67.1m1.111-.016a2.927,2.927,0,0,0-.715-2.016,3.093,3.093,0,0,0-4.263-.052,2.969,2.969,0,0,0-.818,2.119,2.845,2.845,0,0,0,.9,2.17,2.917,2.917,0,0,0,4.9-2.221M56.6,69.914V64.238H55.567V67.4c0,.25,0,.577.018.827h-.018a7.552,7.552,0,0,0-.559-.793l-2.472-3.2H51.477v5.676h1.042V66.572c0-.267-.009-.568-.026-.758h.017c.155.242.319.457.56.776l2.566,3.324Zm-7.269,0V64.238H48.3V67.4c0,.25,0,.577.017.827H48.3a7.587,7.587,0,0,0-.56-.793l-2.471-3.2h-1.06v5.676H45.25V66.572c0-.267-.008-.568-.025-.758h.017c.155.242.318.457.56.776l2.566,3.324Zm-7.268-5.676H41.022v5.676h1.042Z"/><path class="c" d="M169.334,40.758c0,.061-.645,2.3-.645,2.3l-2,6.968a1.915,1.915,0,0,1-1.834,1.358l-.839,0a1.26,1.26,0,0,1-1.253-1.285,1.578,1.578,0,0,1,.031-.3l2.177-7.653a2.722,2.722,0,0,1,2.63-2.02l1.087-.005a.641.641,0,0,1,.641.641m-34.907-.008c-.053.2-.846,3-.846,3L131.8,49.99a1.918,1.918,0,0,1-1.85,1.4l-.838,0a1.26,1.26,0,0,1-1.253-1.285,1.6,1.6,0,0,1,.027-.283l2.182-7.679a2.723,2.723,0,0,1,2.633-2.025h1.087c.355,0,.736.3.641.637m-18-12.3,0,1.144a8.045,8.045,0,0,1-2.949,6.221,7.947,7.947,0,0,1-4.886,1.678v-.008l-.6.008-1.375,0a.641.641,0,0,1-.639-.641l3.349-11.771a.637.637,0,0,1,.626-.507l2.59,0V24.6h.007a3.856,3.856,0,0,1,3.877,3.855m60.142,10.417a.623.623,0,0,0,.049-.252.639.639,0,0,0-.641-.636l-.535,0-10.218-.015a8.644,8.644,0,0,0-8.643,8.644,8.457,8.457,0,0,0,1.14,4.3.636.636,0,0,1-.545.972l-3.59,0v0a2.719,2.719,0,0,1-2.479-2.709,3.026,3.026,0,0,1,.039-.459c.9-3.2,2.658-9.339,2.658-9.339l.253-.908A.525.525,0,0,1,154.6,38l3.133-.008a.646.646,0,0,0,.593-.387s.3-1.026.3-1.1a.64.64,0,0,0-.641-.637l-2.326.008a.638.638,0,0,1-.641-.641c0-.084,1.438-5.1,1.438-5.1s.179-.6.179-.689a.635.635,0,0,0-.639-.635l-5.35.011a.648.648,0,0,0-.606.425h0l-1.77,6.146a.637.637,0,0,1-.621.481l-2.991-.008a.639.639,0,0,0-.612.455s-.281,1-.281,1.028a.638.638,0,0,0,.641.641l2.293,0a.632.632,0,0,1,.633.633c0,.041-1.74,6.141-2.721,9.573a8.874,8.874,0,0,0-.181,1.017,2.647,2.647,0,0,0,.5,1.688.628.628,0,0,1-.446.993h-4.839a1.335,1.335,0,0,1-1.343-1.278,1.138,1.138,0,0,1,.07-.31l1.724-6.027,1.429-4.992s.152-.568.152-.648a.639.639,0,0,0-.637-.637l-.911,0-9.838-.019A8.65,8.65,0,0,0,122.8,50.944a1.639,1.639,0,0,1,.061.3.593.593,0,0,1-.6.628l-4.234.009a1.285,1.285,0,0,1-1.282-1.282,1.253,1.253,0,0,1,.044-.324l.056-.226h.018l1.831-6.314a3.84,3.84,0,0,0,.192-1.071c0-2.373-1.6-2.18-2.075-2.818,0,0-.326-.285.373-.532a9.517,9.517,0,0,0,5.7-5.349,9.167,9.167,0,0,0,.757-3.646,8.3,8.3,0,0,0-7.583-8.265A8.387,8.387,0,0,0,115.18,22l-2.638,0v.011L100.718,22l-.009,0-1.994,0a.644.644,0,0,0-.631.525l-.378,1.416a.64.64,0,0,0,.642.638l2.947-.01a.643.643,0,0,1,.59.391.629.629,0,0,1,.049.241c0,.033-1.826,6.416-3.639,12.747h0c-1.8,6.276-3.587,12.516-3.587,12.516a1.916,1.916,0,0,1-1.849,1.4l-1.539.01a1.255,1.255,0,0,1-1.281-1.282c.038-.583,3.367-11.926,3.367-11.974a.641.641,0,0,0-.642-.636H87.434a.637.637,0,0,0-.63.528L83.4,50.324a1.605,1.605,0,0,1-1.438,1.065l-.7,0A1.176,1.176,0,0,1,80.209,50.1a1.845,1.845,0,0,1,.03-.34l.07-.293.743-2.45L82.7,41.282a2.758,2.758,0,0,0,.061-.568,2.721,2.721,0,0,0-2.721-2.722,2.69,2.69,0,0,0-1.176.269L73,40.958a.511.511,0,0,0-.354.568,3.558,3.558,0,0,0,.233.7c.116.16.317.332.52.269.334-.112,1.349-.589,1.608-.62a.621.621,0,0,1,.641.643c0,.069-.249.986-.249.986L73.975,48.5a4.758,4.758,0,0,0-.088.687,2.65,2.65,0,0,0,.5,1.688.625.625,0,0,1,.119.368.639.639,0,0,1-.641.64l-4.507,0a1.283,1.283,0,0,1-1.28-1.282,1.261,1.261,0,0,1,.046-.339l2.507-8.682a3.14,3.14,0,0,0,.138-.856A2.72,2.72,0,0,0,68.053,38a2.653,2.653,0,0,0-1.168.265l-4.367,2.045-.82.385a.793.793,0,0,1-.309.08.659.659,0,0,1-.634-.528A2.772,2.772,0,0,0,58.071,38a2.673,2.673,0,0,0-1.172.265l-4.657,2.186-.52.244a.812.812,0,0,1-.311.08.642.642,0,0,1-.632-.513A2.773,2.773,0,0,0,48.094,38a2.614,2.614,0,0,0-1.174.269l-.031.007-6.682,3.1a.61.61,0,0,0-.377.582,2.073,2.073,0,0,0,.215.583.642.642,0,0,0,.58.368.669.669,0,0,0,.276-.063l1.886-.9a.628.628,0,0,1,.281-.065.644.644,0,0,1,.639.643c0,.206-2.262,7.953-2.262,7.953a1.918,1.918,0,0,1-1.851,1.409l-1.382-.011a.639.639,0,0,0-.612.454s-.236.8-.268,1.019a.586.586,0,0,0,.639.64h7.488l0-.006,1.141,0a.649.649,0,0,0,.607-.425h0l2.886-10.018a.685.685,0,0,1,.33-.471l1.524-.721.829-.391a.675.675,0,0,1,.271-.058.641.641,0,0,1,.642.638.524.524,0,0,1-.023.154c-.839,3.106-3.045,10.632-3.045,10.671a.641.641,0,0,0,.642.636H56.6a.636.636,0,0,0,.63-.528l2.92-10.132a.68.68,0,0,1,.257-.269l1.7-.8.657-.311a.673.673,0,0,1,.273-.058c.351,0,.7.292.638.638-.064.369-2.834,10.138-2.834,10.138s-.179.6-.179.688a.635.635,0,0,0,.639.635l3.233-.007H98.192a3.746,3.746,0,0,0,3.647-2.643l2.779-9.725a.64.64,0,0,1,.616-.471h5.135a1.281,1.281,0,0,1,1.282,1.28,1.375,1.375,0,0,1-.025.244l-1.85,6.387a3.848,3.848,0,0,0,3.688,4.922h3.119l-1.02,0,59.21,0c1.329,0,1.589-.221,1.648-.509,0,0,.253-.921.253-.961a.639.639,0,0,0-.64-.643l-1.458.008a1.337,1.337,0,0,1-1.342-1.282,1.283,1.283,0,0,1,.069-.313l2.075-7.251,1.033-3.608Z"/></svg>