<svg xmlns="http://www.w3.org/2000/svg" width="214" height="92" viewBox="0 0 214 92"><defs><style>.a{fill:none;}.b{fill:#0055a5;}.c{fill:#76bd43;}.d{fill:#757575;}</style></defs><title>NimbeLinkLogo</title><rect class="a" width="214" height="92"/><path class="b" d="M76.112,47.652,66.433,34.241v12.9a1.077,1.077,0,0,1-1.055,1.056A1.066,1.066,0,0,1,64.3,47.137V32.207a1.4,1.4,0,0,1,1.391-1.39,1.368,1.368,0,0,1,1.132.567l9.55,13.1V31.873a1.077,1.077,0,0,1,1.055-1.056,1.066,1.066,0,0,1,1.081,1.056V46.88a1.326,1.326,0,0,1-2.394.772Zm6.383-15.8a1.3,1.3,0,1,1,2.6,0,1.3,1.3,0,0,1-2.6,0Zm.334,15.393V36.506a.966.966,0,0,1,1.931,0V47.24a.966.966,0,0,1-1.931,0Zm24.208-8.134V47.24a1.071,1.071,0,0,1-1.115.953,1.043,1.043,0,0,1-1.086-.953V39.647a2.318,2.318,0,0,0-2.61-2.574,5.124,5.124,0,0,0-3.756,1.905V47.24a1.042,1.042,0,0,1-1.085.953,1.071,1.071,0,0,1-1.115-.953V39.647a2.306,2.306,0,0,0-2.612-2.574A5.108,5.108,0,0,0,89.932,39V47.24a1.111,1.111,0,0,1-2.2,0V36.506a1.111,1.111,0,0,1,2.2,0v.953a6.363,6.363,0,0,1,4.577-2.111c2.171,0,3.4,1.03,3.814,2.316a6.184,6.184,0,0,1,4.753-2.316C105.658,35.348,107.037,36.609,107.037,39.106Zm15.779,2.532c0,4.2-2.452,6.773-5.923,6.773a5.69,5.69,0,0,1-4.489-2.249v1.045a1.034,1.034,0,0,1-2.066,0V31.117a1.034,1.034,0,0,1,2.066,0v6.024a5.523,5.523,0,0,1,4.489-2.3C120.364,34.838,122.816,37.516,122.816,41.638Zm-2.149,0c0-2.864-1.6-5.006-4.3-5.006A4.979,4.979,0,0,0,112.4,38.72v5.863a4.936,4.936,0,0,0,3.966,2.035C119.069,46.618,120.667,44.5,120.667,41.638Zm10.171-6.29a5.893,5.893,0,0,1,5.972,6.178c0,.617-.412.978-1.133.978h-8.932a4.382,4.382,0,0,0,4.479,4.3,5.365,5.365,0,0,0,3.347-1.184.845.845,0,0,1,.437-.1.78.78,0,0,1,.8.772.8.8,0,0,1-.335.643,7.042,7.042,0,0,1-4.427,1.468,6.165,6.165,0,0,1-6.332-6.539A6.217,6.217,0,0,1,130.838,35.348Zm-4.093,5.74h8.161a4.031,4.031,0,0,0-4.093-4.144A4.149,4.149,0,0,0,126.745,41.088Z"/><path class="b" d="M46.755,57.616,29.843,35.89V55.735a4.114,4.114,0,0,1-4.079,3.927,3.989,3.989,0,0,1-3.981-3.927V27.143c0-2.82,1.57-5.143,4.447-5.143a5.131,5.131,0,0,1,4.2,2.157L46.706,44.888V25.927A4.117,4.117,0,0,1,50.871,22,3.942,3.942,0,0,1,54.8,25.927V54.851c0,2.654-1.461,4.811-4.116,4.811A4.752,4.752,0,0,1,46.755,57.616Z"/><path class="c" d="M34.106,25.8A4.206,4.206,0,0,1,38.265,22a4.156,4.156,0,0,1,4.067,4.247V36.274Zm23.5,36.727H42.332V54.991l-8.25-10.6V65.453C34.082,68.385,35.65,70,38.44,70H57.609a3.742,3.742,0,0,0,0-7.478Z"/><path class="c" d="M138.964,46.133V32.568A1.941,1.941,0,0,1,141,30.74a1.906,1.906,0,0,1,1.981,1.828v12.3h6.426a1.615,1.615,0,1,1,0,3.218h-8.322C139.728,48.09,138.964,47.4,138.964,46.133ZM152.5,31.01a2.155,2.155,0,1,1,2.151,2.035A2.112,2.112,0,0,1,152.5,31.01Zm.367,15.554V36.685a1.8,1.8,0,0,1,3.6,0v9.879a1.777,1.777,0,0,1-1.812,1.713A1.752,1.752,0,0,1,152.865,46.564Zm18.1-7.6v7.6a1.668,1.668,0,1,1-3.334,0V40.272c0-1.793-.918-2.409-2.336-2.409a3.591,3.591,0,0,0-2.887,1.526v7.175a1.668,1.668,0,1,1-3.335,0V36.685a1.692,1.692,0,0,1,1.655-1.739,1.718,1.718,0,0,1,1.705,1.739v.108a5.854,5.854,0,0,1,4.411-1.955C169.63,34.838,170.969,36.444,170.969,38.961Zm14.125,7.6a1.638,1.638,0,0,1-1.654,1.713,1.591,1.591,0,0,1-1.286-.589l-3.728-4.551-1.575,1.5v1.927a1.708,1.708,0,0,1-1.68,1.713,1.686,1.686,0,0,1-1.654-1.713V31.76a1.668,1.668,0,1,1,3.334,0v9.1l5.25-5.434a1.512,1.512,0,0,1,1.1-.455,1.568,1.568,0,0,1,1.549,1.58,1.641,1.641,0,0,1-.447,1.124L180.868,41.1l3.885,4.417A1.6,1.6,0,0,1,185.094,46.564Zm5.44-11.841a.415.415,0,0,1,.088.25.41.41,0,0,1-.413.393.436.436,0,0,1-.341-.167l-.675-.921h-.472v.685a.418.418,0,0,1-.836,0v-2.3a.388.388,0,0,1,.442-.421h1.181a1.021,1.021,0,0,1,1.128,1.028.948.948,0,0,1-.554.893ZM188.721,33.6h.661a.351.351,0,1,0,0-.694h-.661Zm.54,3.156a2.957,2.957,0,1,1,2.956-2.956A2.959,2.959,0,0,1,189.261,36.758Zm0-5.565A2.609,2.609,0,1,0,191.87,33.8,2.612,2.612,0,0,0,189.261,31.193Z"/><path class="d" d="M64.243,60.763a3.2,3.2,0,0,0,.5.3,4.2,4.2,0,0,0,1.143.355,3.533,3.533,0,0,0,.557.046,2.56,2.56,0,0,0,1.545-.385,1.3,1.3,0,0,0,.512-1.107,1.445,1.445,0,0,0-.12-.609,1.5,1.5,0,0,0-.373-.485,3.8,3.8,0,0,0-.64-.449q-.386-.223-.911-.5-.584-.306-1-.578a3.648,3.648,0,0,1-.678-.556,1.889,1.889,0,0,1-.386-.615,2.145,2.145,0,0,1-.123-.752,1.937,1.937,0,0,1,.234-.954,2.248,2.248,0,0,1,.633-.718,2.979,2.979,0,0,1,.934-.456,3.985,3.985,0,0,1,1.142-.159,4.857,4.857,0,0,1,1.792.288v.9a3.82,3.82,0,0,0-1.886-.447,2.97,2.97,0,0,0-.763.095,2.04,2.04,0,0,0-.627.278,1.382,1.382,0,0,0-.424.455,1.265,1.265,0,0,0-.155.634,1.517,1.517,0,0,0,.1.589,1.4,1.4,0,0,0,.336.468,3.147,3.147,0,0,0,.607.437c.251.146.559.311.922.5a10.91,10.91,0,0,1,.994.572,3.824,3.824,0,0,1,.7.58,2.129,2.129,0,0,1,.421.643,1.959,1.959,0,0,1,.139.754,2.215,2.215,0,0,1-.221,1.012,1.993,1.993,0,0,1-.621.725,2.878,2.878,0,0,1-.949.434,4.679,4.679,0,0,1-1.209.147,4.766,4.766,0,0,1-.513-.034c-.2-.023-.4-.055-.6-.1a5.552,5.552,0,0,1-.579-.152,2.128,2.128,0,0,1-.447-.193Zm14.841,1.284V58.366A4.359,4.359,0,0,0,79,57.415a1.621,1.621,0,0,0-.276-.632,1.058,1.058,0,0,0-.474-.355,1.933,1.933,0,0,0-.687-.11,1.451,1.451,0,0,0-.671.162,1.768,1.768,0,0,0-.554.446,2.169,2.169,0,0,0-.374.67,2.5,2.5,0,0,0-.136.831v3.62h-.81v-3.76q0-1.97-1.564-1.969a1.475,1.475,0,0,0-.671.156,1.676,1.676,0,0,0-.541.437,2.094,2.094,0,0,0-.361.675,2.8,2.8,0,0,0-.129.872v3.589h-.811V55.786h.811V56.8h.025a2.182,2.182,0,0,1,1.994-1.162,2.047,2.047,0,0,1,.646.1,1.92,1.92,0,0,1,.544.281,1.888,1.888,0,0,1,.415.431,1.915,1.915,0,0,1,.262.551,2.537,2.537,0,0,1,.89-1.015,2.25,2.25,0,0,1,1.238-.349q2.133,0,2.133,2.544v3.864Zm6.3,0V60.934h-.025a2.305,2.305,0,0,1-2.1,1.26,2.6,2.6,0,0,1-.845-.129,1.815,1.815,0,0,1-.639-.363,1.582,1.582,0,0,1-.405-.566,1.8,1.8,0,0,1-.143-.728,1.758,1.758,0,0,1,.544-1.354,2.983,2.983,0,0,1,1.646-.657l1.969-.275q0-1.8-1.45-1.8a3.232,3.232,0,0,0-2.1.8v-.856a2.768,2.768,0,0,1,.459-.254,4.539,4.539,0,0,1,.541-.2,4.677,4.677,0,0,1,.585-.128A3.838,3.838,0,0,1,84,55.639a2.148,2.148,0,0,1,1.637.587,2.464,2.464,0,0,1,.553,1.749v4.072Zm-1.671-3.039a5.293,5.293,0,0,0-.747.153,1.571,1.571,0,0,0-.513.247.932.932,0,0,0-.3.386,1.462,1.462,0,0,0-.1.565,1.156,1.156,0,0,0,.093.465,1.037,1.037,0,0,0,.265.37,1.22,1.22,0,0,0,.424.241,1.723,1.723,0,0,0,.567.086,1.937,1.937,0,0,0,.791-.159,1.884,1.884,0,0,0,.624-.44,2.033,2.033,0,0,0,.411-.673,2.355,2.355,0,0,0,.149-.85v-.617Zm7.452-2.421a1.235,1.235,0,0,0-.734-.2,1.291,1.291,0,0,0-.57.12,1.434,1.434,0,0,0-.433.32,1.917,1.917,0,0,0-.317.468,3.207,3.207,0,0,0-.209.553,3.9,3.9,0,0,0-.114.581,4.785,4.785,0,0,0-.035.557v3.063h-.8V55.786h.8v1.339h.026a2.767,2.767,0,0,1,.288-.615,1.945,1.945,0,0,1,.4-.458,1.689,1.689,0,0,1,.5-.284,1.624,1.624,0,0,1,.566-.1,2.3,2.3,0,0,1,.351.024,1.38,1.38,0,0,1,.282.074Zm4.142,5.387a2.071,2.071,0,0,1-.911.2q-1.57,0-1.57-1.748V56.471h-1.14v-.685h1.14V54.209l.81-.257v1.834h1.671v.685H93.636V60.3a1.522,1.522,0,0,0,.216.917.858.858,0,0,0,.727.282,1.346,1.346,0,0,0,.728-.22Zm1.515.2a.6.6,0,0,1-.43-.171.554.554,0,0,1-.177-.416.565.565,0,0,1,.174-.422.593.593,0,0,1,.433-.171.627.627,0,0,1,.238.046.668.668,0,0,1,.193.122.575.575,0,0,1,.132.187.559.559,0,0,1,.051.238.53.53,0,0,1-.051.23.617.617,0,0,1-.132.186.6.6,0,0,1-.193.125A.608.608,0,0,1,96.822,62.169Zm5.313-1.406a3.155,3.155,0,0,0,.5.3,4.2,4.2,0,0,0,1.143.355,3.524,3.524,0,0,0,.557.046,2.554,2.554,0,0,0,1.544-.385,1.3,1.3,0,0,0,.513-1.107,1.445,1.445,0,0,0-.12-.609,1.5,1.5,0,0,0-.374-.485,3.784,3.784,0,0,0-.639-.449c-.257-.149-.562-.318-.911-.5q-.583-.306-1-.578a3.639,3.639,0,0,1-.677-.556,1.872,1.872,0,0,1-.386-.615,2.144,2.144,0,0,1-.124-.752,1.938,1.938,0,0,1,.235-.954,2.248,2.248,0,0,1,.633-.718,2.984,2.984,0,0,1,.933-.456,4,4,0,0,1,1.143-.159,4.852,4.852,0,0,1,1.791.288v.9a3.818,3.818,0,0,0-1.886-.447,2.976,2.976,0,0,0-.763.095,2.044,2.044,0,0,0-.626.278,1.372,1.372,0,0,0-.424.455,1.255,1.255,0,0,0-.156.634,1.516,1.516,0,0,0,.1.589,1.394,1.394,0,0,0,.335.468,3.189,3.189,0,0,0,.608.437c.251.146.558.311.921.5a10.775,10.775,0,0,1,.994.572,3.867,3.867,0,0,1,.706.58,2.129,2.129,0,0,1,.421.643,1.959,1.959,0,0,1,.139.754,2.215,2.215,0,0,1-.221,1.012,1.993,1.993,0,0,1-.621.725,2.887,2.887,0,0,1-.949.434,4.693,4.693,0,0,1-1.21.147,4.765,4.765,0,0,1-.512-.034c-.2-.023-.4-.055-.6-.1a5.687,5.687,0,0,1-.579-.152,2.118,2.118,0,0,1-.446-.193Zm7.092-6.561a.577.577,0,0,1-.406-.159.524.524,0,0,1-.17-.4.513.513,0,0,1,.17-.4.587.587,0,0,1,.406-.155.638.638,0,0,1,.227.04.545.545,0,0,1,.187.113.562.562,0,0,1,.127.173.517.517,0,0,1,.047.224.565.565,0,0,1-.044.22.532.532,0,0,1-.126.18.589.589,0,0,1-.418.162Zm-.4,7.845V55.786h.81v6.261Zm10.852,0V58.366a4.366,4.366,0,0,0-.088-.951,1.635,1.635,0,0,0-.275-.632,1.071,1.071,0,0,0-.475-.355,1.937,1.937,0,0,0-.687-.11,1.448,1.448,0,0,0-.671.162,1.757,1.757,0,0,0-.554.446,2.169,2.169,0,0,0-.374.67,2.472,2.472,0,0,0-.136.831v3.62h-.81v-3.76q0-1.97-1.564-1.969a1.475,1.475,0,0,0-.671.156,1.665,1.665,0,0,0-.541.437,2.094,2.094,0,0,0-.361.675,2.8,2.8,0,0,0-.13.872v3.589h-.81V55.786h.81V56.8h.026a2.182,2.182,0,0,1,1.994-1.162,2.04,2.04,0,0,1,.645.1,1.913,1.913,0,0,1,.545.281,1.9,1.9,0,0,1,.677.982,2.537,2.537,0,0,1,.89-1.015,2.246,2.246,0,0,1,1.237-.349q2.133,0,2.133,2.544v3.864Zm3.376-1.009v3.889h-.81V55.786h.81v1.2h.026a2.52,2.52,0,0,1,.965-1,2.9,2.9,0,0,1,2.475-.127,2.284,2.284,0,0,1,.829.614,2.745,2.745,0,0,1,.519.966,4.224,4.224,0,0,1,.181,1.278,4.669,4.669,0,0,1-.2,1.415,3.235,3.235,0,0,1-.582,1.1,2.647,2.647,0,0,1-.922.712,2.836,2.836,0,0,1-1.218.254,2.218,2.218,0,0,1-2.044-1.156Zm0-1.6a2.176,2.176,0,0,0,.148.8,2.089,2.089,0,0,0,.416.66,1.929,1.929,0,0,0,.642.449,2.053,2.053,0,0,0,.832.165,1.863,1.863,0,0,0,1.548-.764,2.729,2.729,0,0,0,.425-.887,4.256,4.256,0,0,0,.148-1.161,3.339,3.339,0,0,0-.139-.994,2.231,2.231,0,0,0-.4-.755,1.7,1.7,0,0,0-.62-.477,1.951,1.951,0,0,0-.814-.165,2.218,2.218,0,0,0-.911.18,2.067,2.067,0,0,0-.69.492,2.148,2.148,0,0,0-.437.731,2.6,2.6,0,0,0-.152.89Zm6.434,2.6V52.778h.81v9.269Zm3.091-2.99a3.394,3.394,0,0,0,.158,1.033,2.163,2.163,0,0,0,.437.777,1.868,1.868,0,0,0,.693.486,2.4,2.4,0,0,0,.921.168,3.369,3.369,0,0,0,2.07-.74v.771a3.87,3.87,0,0,1-2.253.642,3.079,3.079,0,0,1-1.184-.22,2.445,2.445,0,0,1-.905-.639,2.874,2.874,0,0,1-.576-1.031,4.394,4.394,0,0,1-.2-1.394,3.72,3.72,0,0,1,.222-1.3,3.182,3.182,0,0,1,.614-1.037,2.828,2.828,0,0,1,.93-.684,2.782,2.782,0,0,1,1.178-.248,2.743,2.743,0,0,1,1.107.211,2.185,2.185,0,0,1,.808.6,2.7,2.7,0,0,1,.5.954,4.29,4.29,0,0,1,.172,1.26v.391Zm3.849-.685a2.327,2.327,0,0,0-.482-1.516,1.6,1.6,0,0,0-1.284-.538,2.027,2.027,0,0,0-.763.141,1.815,1.815,0,0,0-.618.406,2.189,2.189,0,0,0-.439.648,3.156,3.156,0,0,0-.244.859Zm2.6,3.8A.6.6,0,0,1,138.6,62a.557.557,0,0,1-.177-.416.569.569,0,0,1,.174-.422.594.594,0,0,1,.433-.171.627.627,0,0,1,.238.046.681.681,0,0,1,.193.122.593.593,0,0,1,.133.187.574.574,0,0,1,.05.238.544.544,0,0,1-.05.23.638.638,0,0,1-.133.186.619.619,0,0,1-.431.171Zm11.77-.446a5.743,5.743,0,0,1-2.4.477,4.517,4.517,0,0,1-1.747-.327,3.887,3.887,0,0,1-1.339-.908,4.032,4.032,0,0,1-.855-1.382,4.949,4.949,0,0,1-.3-1.749,5.281,5.281,0,0,1,.32-1.855,4.364,4.364,0,0,1,.915-1.492,4.23,4.23,0,0,1,1.44-.994,4.8,4.8,0,0,1,1.9-.361,5.861,5.861,0,0,1,2.07.343v.868a4.726,4.726,0,0,0-2.083-.471,3.925,3.925,0,0,0-1.563.294,3.231,3.231,0,0,0-1.152.816,3.6,3.6,0,0,0-.716,1.235,4.741,4.741,0,0,0-.247,1.556,4.5,4.5,0,0,0,.222,1.427,3.413,3.413,0,0,0,.655,1.172,3.09,3.09,0,0,0,1.08.794,3.585,3.585,0,0,0,1.5.294,4.8,4.8,0,0,0,2.3-.532Zm2-2.666a3.394,3.394,0,0,0,.158,1.033,2.163,2.163,0,0,0,.437.777,1.876,1.876,0,0,0,.693.486,2.4,2.4,0,0,0,.921.168,3.369,3.369,0,0,0,2.07-.74v.771a3.868,3.868,0,0,1-2.253.642,3.079,3.079,0,0,1-1.184-.22,2.445,2.445,0,0,1-.905-.639,2.874,2.874,0,0,1-.576-1.031,4.394,4.394,0,0,1-.2-1.394,3.72,3.72,0,0,1,.222-1.3,3.182,3.182,0,0,1,.614-1.037,2.828,2.828,0,0,1,.93-.684,2.785,2.785,0,0,1,1.178-.248,2.743,2.743,0,0,1,1.107.211,2.185,2.185,0,0,1,.808.6,2.7,2.7,0,0,1,.5.954,4.29,4.29,0,0,1,.172,1.26v.391Zm3.849-.685a2.327,2.327,0,0,0-.482-1.516,1.6,1.6,0,0,0-1.284-.538,2.027,2.027,0,0,0-.763.141,1.824,1.824,0,0,0-.618.406,2.189,2.189,0,0,0-.439.648,3.156,3.156,0,0,0-.244.859Zm2.23,3.675V52.778h.809v9.269Zm2.705,0V52.778h.81v9.269Zm6.946,0V60.983H168.5a2.176,2.176,0,0,1-2.045,1.211q-2.311,0-2.31-2.727V55.786h.81V59.32a2.715,2.715,0,0,0,.415,1.663,1.5,1.5,0,0,0,1.269.538,1.836,1.836,0,0,0,.763-.156,1.729,1.729,0,0,0,.595-.44,2.05,2.05,0,0,0,.389-.682,2.667,2.667,0,0,0,.139-.88V55.786h.811v6.261Zm2.705,0V52.778h.81v9.269Zm6.439,0V60.934h-.025a2.305,2.305,0,0,1-2.1,1.26,2.6,2.6,0,0,1-.845-.129,1.815,1.815,0,0,1-.639-.363,1.606,1.606,0,0,1-.405-.566,1.819,1.819,0,0,1-.143-.728,1.759,1.759,0,0,1,.545-1.354A2.98,2.98,0,0,1,175.7,58.4l1.969-.275q0-1.8-1.449-1.8a3.233,3.233,0,0,0-2.1.8v-.856a2.768,2.768,0,0,1,.459-.254,4.6,4.6,0,0,1,.541-.2,4.654,4.654,0,0,1,.586-.128,3.815,3.815,0,0,1,.585-.046,2.148,2.148,0,0,1,1.637.587,2.464,2.464,0,0,1,.554,1.749v4.072ZM176,59.008a5.293,5.293,0,0,0-.747.153,1.566,1.566,0,0,0-.512.247.926.926,0,0,0-.3.386,1.482,1.482,0,0,0-.095.565,1.156,1.156,0,0,0,.092.465,1.039,1.039,0,0,0,.266.37,1.211,1.211,0,0,0,.424.241,1.713,1.713,0,0,0,.566.086,1.945,1.945,0,0,0,.792-.159,1.89,1.89,0,0,0,.623-.44,2.033,2.033,0,0,0,.411-.673,2.355,2.355,0,0,0,.149-.85v-.617Zm7.453-2.421a1.237,1.237,0,0,0-.734-.2,1.291,1.291,0,0,0-.57.12,1.438,1.438,0,0,0-.434.32,1.972,1.972,0,0,0-.316.468,3.291,3.291,0,0,0-.209.553,3.9,3.9,0,0,0-.114.581,4.785,4.785,0,0,0-.035.557v3.063h-.8V55.786h.8v1.339h.026a2.723,2.723,0,0,1,.288-.615,1.945,1.945,0,0,1,.4-.458,1.7,1.7,0,0,1,.5-.284,1.633,1.633,0,0,1,.567-.1,2.327,2.327,0,0,1,.352.024,1.388,1.388,0,0,1,.281.074Zm.281,5.582a.6.6,0,0,1-.43-.171.554.554,0,0,1-.178-.416.569.569,0,0,1,.174-.422.6.6,0,0,1,.434-.171.631.631,0,0,1,.238.046.676.676,0,0,1,.192.122.6.6,0,0,1,.134.187.574.574,0,0,1,.05.238.544.544,0,0,1-.05.23.641.641,0,0,1-.134.186.614.614,0,0,1-.43.171Z"/></svg>