<svg xmlns="http://www.w3.org/2000/svg" width="214" height="92" viewBox="0 0 214 92"><defs><style>.a{fill:none;}.b{fill:#7dafdc;}.c{fill:#91823c;}.d{fill:#7d963c;}.e{fill:#c8d200;}.f{fill:#fab400;}.g{fill:#fff;}</style></defs><title>NXPSemiconductorsLogo</title><rect class="a" width="214" height="92"/><path class="b" d="M159.2,10H54.8a6,6,0,0,0-6,6V76a6,6,0,0,0,6,6H159.2a6,6,0,0,0,6-6V16A6,6,0,0,0,159.2,10ZM164,76a4.8,4.8,0,0,1-4.8,4.8H54.8A4.8,4.8,0,0,1,50,76V26.8h96a18,18,0,0,1,18,18Z"/><polygon class="b" points="116.46 36.696 114.537 36.696 107.447 48.067 100.357 36.696 98.428 36.696 98.429 70.904 100.357 70.904 107.447 59.534 114.537 70.904 116.479 70.904 116.459 70.876 116.46 36.696"/><polygon class="c" points="98.428 36.696 87.914 36.696 98.415 53.8 87.914 70.904 98.429 70.904 98.428 36.696"/><polygon class="d" points="126.98 36.696 116.46 36.696 116.459 70.876 116.479 70.904 126.979 70.902 116.479 53.8 126.98 36.696"/><path class="e" d="M141.97,36.7H126.98l-10.5,17.1,10.5,17.1h0l0-7.556h17.743c7.448,0,9.678-5.846,9.678-10.938v-4.02C154.4,41.693,151.98,36.7,141.97,36.7Zm2.623,13.8c0,2.028-.949,4.361-3.416,4.361H126.993V45.182h13.282c3.179,0,4.318,1.321,4.318,3.631Z"/><polygon class="f" points="98.415 53.8 87.914 36.696 87.909 36.696 87.908 57.368 70.115 36.696 59.6 36.696 59.6 70.904 70.124 70.902 70.12 50.233 87.914 70.904 98.415 53.8"/><path class="g" d="M71.936,15.26h2.649c1.572,0,2.551.866,2.551,2.181v.019c0,1.462-1.208,2.227-2.686,2.227H73.116v2.1h-1.18Zm2.553,3.393c.891,0,1.448-.486,1.448-1.165v-.019c0-.764-.566-1.165-1.448-1.165H73.116v2.349Zm3.725-1.79h1.161v1.109a1.8,1.8,0,0,1,1.8-1.2v1.193H81.1c-1.017,0-1.728.644-1.728,1.948v1.874H78.214Zm3.515,2.488v-.019a2.7,2.7,0,0,1,5.4-.019v.019A2.613,2.613,0,0,1,84.414,21.9,2.584,2.584,0,0,1,81.729,19.351Zm4.241,0v-.019a1.543,1.543,0,0,0-1.556-1.584,1.5,1.5,0,0,0-1.524,1.565v.019a1.536,1.536,0,0,0,1.544,1.575A1.5,1.5,0,0,0,85.97,19.351Zm1.576-2.488h1.247l1.362,3.616,1.373-3.616h1.217l-2.072,4.958H89.628Zm5.626,2.479v-.019a2.473,2.473,0,0,1,2.475-2.563,2.406,2.406,0,0,1,2.428,2.647c0,.1-.011.2-.02.317H94.332a1.4,1.4,0,0,0,1.459,1.249,1.865,1.865,0,0,0,1.372-.587l.681.587a2.59,2.59,0,0,1-2.072.922A2.491,2.491,0,0,1,93.172,19.342Zm3.751-.364a1.3,1.3,0,0,0-1.285-1.3,1.351,1.351,0,0,0-1.315,1.3Zm2.325-2.115h1.161v.755a1.848,1.848,0,0,1,1.584-.858,1.709,1.709,0,0,1,1.8,1.883v3.141h-1.161v-2.8c0-.764-.393-1.2-1.084-1.2a1.109,1.109,0,0,0-1.142,1.221v2.778H99.248Zm8.966-1.6h2.648c1.573,0,2.553.866,2.553,2.181v.019c0,1.462-1.21,2.227-2.687,2.227h-1.334v2.1h-1.18Zm2.552,3.393c.892,0,1.449-.486,1.449-1.165v-.019c0-.764-.566-1.165-1.449-1.165h-1.372v2.349Zm3.3,1.714v-.019c0-1.061.853-1.584,2.092-1.584a4.335,4.335,0,0,1,1.361.205v-.121c0-.7-.44-1.072-1.256-1.072a3.629,3.629,0,0,0-1.45.308L114.5,17.2a4.44,4.44,0,0,1,1.911-.4,2.309,2.309,0,0,1,1.678.55,2.008,2.008,0,0,1,.547,1.52v2.917h-1.132v-.615a2.086,2.086,0,0,1-1.65.717A1.6,1.6,0,0,1,114.062,20.367Zm3.473-.354v-.335a3.28,3.28,0,0,0-1.152-.2c-.749,0-1.189.307-1.189.819v.019c0,.476.431.747.988.747C116.949,21.067,117.535,20.638,117.535,20.013Zm2.5-3.15h1.162v1.109a1.8,1.8,0,0,1,1.794-1.2v1.193h-.067c-1.017,0-1.727.644-1.727,1.948v1.874h-1.162Zm4.206,3.56V17.832h-.643v-.969h.643V15.512H125.4v1.351h1.362v.969H125.4v2.414a.545.545,0,0,0,.624.616,1.594,1.594,0,0,0,.719-.169v.923a2.058,2.058,0,0,1-1.046.252A1.281,1.281,0,0,1,124.237,20.423Zm3.7-3.56H129.1v.755a1.845,1.845,0,0,1,1.583-.858,1.709,1.709,0,0,1,1.8,1.883v3.141h-1.161v-2.8c0-.764-.392-1.2-1.084-1.2a1.108,1.108,0,0,0-1.141,1.221v2.778h-1.162Zm5.675,2.479v-.019a2.473,2.473,0,0,1,2.475-2.563,2.406,2.406,0,0,1,2.428,2.647c0,.1-.011.2-.02.317h-3.723a1.4,1.4,0,0,0,1.459,1.249,1.865,1.865,0,0,0,1.372-.587l.681.587a2.592,2.592,0,0,1-2.072.922A2.491,2.491,0,0,1,133.616,19.342Zm3.751-.364a1.3,1.3,0,0,0-1.286-1.3,1.353,1.353,0,0,0-1.315,1.3Zm2.325-2.115h1.161v1.109a1.8,1.8,0,0,1,1.794-1.2v1.193h-.067c-1.017,0-1.727.644-1.727,1.948v1.874h-1.161Z"/></svg>