<svg xmlns="http://www.w3.org/2000/svg" width="214" height="92" viewBox="0 0 214 92"><defs><style>.a{fill:none;}.b{fill:#2d7372;}.c{fill:#424242;}</style></defs><title>SemtechLogo</title><rect class="a" width="214" height="92"/><path class="b" d="M21.282,32.255c.143-.57.713-1.994,4.131-5.127C27.122,25.561,31.68,23.139,32.82,22H44.926V44.22a7.636,7.636,0,0,0-5.7-6.125c-3.988-1.424-9.685-1.424-13.246-1.852-1.994-.142-5.555-.712-4.7-3.988M33.247,54.047c4.985-5.27,3.418-10.54-4.273-11.109-2.849-.285-6.694-.712-8.546-.855-.427,0-3.988,0-5.27-1.994V70H15.3c4.131-2.564,16.238-14.243,17.947-15.953M30.826,22H15.3V36.528a25.863,25.863,0,0,1,5.128-7.264A43.985,43.985,0,0,1,30.826,22M44.784,47.923a27.459,27.459,0,0,1-4.273,10.113A66.37,66.37,0,0,1,29.686,70H44.642Z"/><path class="c" d="M58.269,48.2c.085,1.526,1.1,1.866,3.646,1.866,3.138,0,3.646-.679,3.646-1.272,0-.764-1.272-1.018-3.391-1.357L59.541,47.1c-3.053-.34-6.191-1.1-6.191-3.392,0-2.884,4.156-3.986,8.4-3.986,6.7,0,8.649,1.357,8.819,3.731H65.392c-.17-1.187-1.7-1.357-3.307-1.357-2.375,0-3.392.509-3.392,1.188,0,.763,1.7,1.017,3.646,1.272l2.459.339c3.392.424,6.106,1.187,6.106,3.477,0,3.307-5.173,3.9-9.328,3.9-7.462.17-8.65-1.95-8.65-4.07ZM72.6,52.1H88.627V49.642H77.942V47.267h9.922V44.808H77.942V42.6h10.43V40.144H72.6Zm18.062,0h4.155V42.349H94.9l5.6,9.752h5.088l5.6-9.752h.085V52.1h4.579V40.144h-7.292l-5.258,8.9-5-8.9H90.662Zm34,0h5.343V42.6h7.038V40.144h-19.5V42.6h7.123ZM139,52.1h16.027V49.642H144.34V47.267h9.921V44.808H144.34V42.6h10.43V40.144H139Zm38.33-8.141c-.085-3.138-4.749-4.24-9.583-4.24-6.784,0-11.193,1.866-11.193,6.275s4.579,6.275,10.261,6.275,10.26-.848,10.515-4.324H171.56c-.169,1.526-2.035,1.95-4.155,1.95-3.731,0-5.173-1.781-5.173-3.9s1.781-3.731,5.343-3.731c2.035,0,3.816.424,4.07,1.781Zm1.441,8.141h5.343V47.352h9.073V52.1h5.342V40.144h-5.342v4.749h-9.073V40.144h-5.343Z"/></svg>