<svg xmlns="http://www.w3.org/2000/svg" xmlns:xlink="http://www.w3.org/1999/xlink" width="214" height="92" viewBox="0 0 214 92"><defs><style>.a{fill:none;}.b{fill:#230066;}.c{fill:url(#a);}</style><linearGradient id="a" x1="39.594" y1="38.474" x2="87.595" y2="38.474" gradientTransform="matrix(1, 0, 0, -1, -8.03, 84.47)" gradientUnits="userSpaceOnUse"><stop offset="0" stop-color="#00dbff"/><stop offset="1" stop-color="#8024ff"/></linearGradient></defs><title>SigfoxLogo</title><rect class="a" width="214" height="92"/><path class="b" d="M103.05,50.836a4.52,4.52,0,0,0,1.779-.243.948.948,0,0,0,.521-.952,1.165,1.165,0,0,0-.674-.963,12.828,12.828,0,0,0-2.05-.923,20.374,20.374,0,0,1-1.943-.827A5.709,5.709,0,0,1,99.2,45.9a4.157,4.157,0,0,1-.952-1.427,5.283,5.283,0,0,1-.34-1.994,4.306,4.306,0,0,1,1.7-3.585,7.356,7.356,0,0,1,4.627-1.32,14.784,14.784,0,0,1,2.832.261,13.18,13.18,0,0,1,2.147.566l-.8,3.551a16.84,16.84,0,0,0-1.733-.492,9.461,9.461,0,0,0-2.1-.216q-2.146,0-2.146,1.2a1.239,1.239,0,0,0,.09.493,1.043,1.043,0,0,0,.368.414,5.2,5.2,0,0,0,.754.43q.476.232,1.212.51a18.792,18.792,0,0,1,2.481,1.1,5.93,5.93,0,0,1,1.546,1.166,3.614,3.614,0,0,1,.8,1.394,6.136,6.136,0,0,1,.233,1.773,4.084,4.084,0,0,1-1.79,3.607,9.106,9.106,0,0,1-5.109,1.224,14.354,14.354,0,0,1-5.545-.98l.765-3.7a15,15,0,0,0,2.4.719A11.591,11.591,0,0,0,103.05,50.836Zm14.613-17.49a2.506,2.506,0,0,1-.81,1.949,2.908,2.908,0,0,1-3.829,0,2.818,2.818,0,0,1,0-3.954,2.905,2.905,0,0,1,3.829,0A2.508,2.508,0,0,1,117.663,33.346Zm-.43,20.77h-4.565V38h4.565Zm17.586-2.022q0,3.965-2,5.868t-6.23,1.914a16.852,16.852,0,0,1-2.94-.261,18.27,18.27,0,0,1-2.724-.691l.816-3.806a12.756,12.756,0,0,0,4.944.918,3.725,3.725,0,0,0,2.775-.855,3.076,3.076,0,0,0,.81-2.2v-.566a7.31,7.31,0,0,1-1.518.5,8.009,8.009,0,0,1-1.7.17,6.457,6.457,0,0,1-5.1-1.977,8.12,8.12,0,0,1-1.779-5.528,9.084,9.084,0,0,1,.567-3.234,6.865,6.865,0,0,1,1.563-2.52,7.187,7.187,0,0,1,2.588-1.609,9.946,9.946,0,0,1,3.461-.566q.826,0,1.7.079t1.733.2q.855.125,1.637.289t1.393.351ZM124.8,45.535q0,3.828,3.092,3.829a4.568,4.568,0,0,0,1.32-.182,4.985,4.985,0,0,0,1.042-.43V41.463q-.34-.063-.8-.108T128.4,41.31a3.143,3.143,0,0,0-2.7,1.2A4.945,4.945,0,0,0,124.8,45.535Zm20.679-15.191a10.047,10.047,0,0,1,2.356.261,11.513,11.513,0,0,1,1.654.5l-.884,3.619a5.97,5.97,0,0,0-1.331-.413,7.079,7.079,0,0,0-1.331-.136,3.717,3.717,0,0,0-1.393.232,2.149,2.149,0,0,0-.89.629,2.415,2.415,0,0,0-.458.951,4.914,4.914,0,0,0-.136,1.2v.8h5.664v3.8h-5.664V54.116H138.5V37.124a6.871,6.871,0,0,1,1.761-4.962A6.877,6.877,0,0,1,145.479,30.344Zm20.157,15.684a10.464,10.464,0,0,1-.566,3.477,7.541,7.541,0,0,1-1.558,2.7,7.153,7.153,0,0,1-2.5,1.733,8.932,8.932,0,0,1-6.514.006,7.156,7.156,0,0,1-2.5-1.733,7.937,7.937,0,0,1-1.625-2.7,9.968,9.968,0,0,1-.567-3.478,9.652,9.652,0,0,1,.595-3.46,7.851,7.851,0,0,1,1.654-2.668,7.43,7.43,0,0,1,2.509-1.7,8.367,8.367,0,0,1,6.366-.034,7.258,7.258,0,0,1,2.5,1.7,7.807,7.807,0,0,1,1.626,2.668A9.844,9.844,0,0,1,165.636,46.028Zm-4.655,0a5.741,5.741,0,0,0-.867-3.325,2.753,2.753,0,0,0-2.407-1.212,2.792,2.792,0,0,0-2.419,1.212,5.663,5.663,0,0,0-.838,3.325,5.812,5.812,0,0,0,.855,3.353,2.769,2.769,0,0,0,2.419,1.24,2.734,2.734,0,0,0,2.39-1.24A5.9,5.9,0,0,0,160.981,46.028ZM176.806,46l2.888-4.106,2.742-3.9H177.5l-3.166,4.531L171.17,38h-4.933l2.741,3.9L171.867,46l-2.889,4.107-2.741,3.879h4.933l3.166-4.531,3.166,4.531h4.934l-2.742-3.9Z"/><path class="b" d="M88.137,23.236c-3.919-3.891-15.9,1.7-27.668,12.625q1.349,1.247,2.685,2.577a83.94,83.94,0,0,1,11.231,13.7C86.036,39.984,92.147,27.269,88.137,23.236Z"/><path class="b" d="M57.784,38.415C45.216,50.984,38.42,64.577,42.611,68.763h0c2.8,2.8,9.781.7,17.858-4.747V35.861Q59.126,37.079,57.784,38.415Z"/><path class="c" d="M63.154,38.415q-1.337-1.336-2.685-2.554C48.705,24.935,36.692,19.345,32.8,23.236h0c-4.027,4.027,2.1,16.748,13.752,28.886A84.028,84.028,0,0,1,57.784,38.415q1.338-1.336,2.685-2.577V64.016c8.077,5.443,15.06,7.528,17.858,4.747C82.519,64.577,75.722,50.984,63.154,38.415Z"/></svg>