<svg xmlns="http://www.w3.org/2000/svg" xmlns:xlink="http://www.w3.org/1999/xlink" width="214" height="92" viewBox="0 0 214 92"><defs><style>.a{fill:none;}.b{fill:#d9e9f6;}.c{fill:#fff;}.d{fill:#002052;}.e{fill:#39a9dc;}.f{fill:url(#a);}.g{fill:url(#b);}.h{fill:url(#c);}.i{fill:url(#d);}.j{fill:url(#e);}.k{fill:url(#f);}.l{opacity:0.1;}</style><linearGradient id="a" x1="76.013" y1="25.246" x2="75.043" y2="58.224" gradientUnits="userSpaceOnUse"><stop offset="0" stop-color="#549fbe"/><stop offset="0.136" stop-color="#004f67"/><stop offset="0.361" stop-color="#1683b3"/><stop offset="0.445" stop-color="#549fbe"/><stop offset="0.54" stop-color="#1683b3"/><stop offset="0.644" stop-color="#004f67"/><stop offset="0.711" stop-color="#286686"/></linearGradient><radialGradient id="b" cx="214.05" cy="40.272" r="38.284" gradientTransform="translate(-118.515 -9.366) scale(0.938 0.925)" gradientUnits="userSpaceOnUse"><stop offset="0" stop-color="#549fbe"/><stop offset="0.387" stop-color="#1683b3"/><stop offset="0.994" stop-color="#174e67"/></radialGradient><linearGradient id="c" x1="96.699" y1="34.726" x2="83.513" y2="58.927" gradientUnits="userSpaceOnUse"><stop offset="0" stop-color="#549fbe"/><stop offset="0.23" stop-color="#004f67"/><stop offset="0.361" stop-color="#1683b3"/><stop offset="0.445" stop-color="#549fbe"/><stop offset="0.54" stop-color="#1683b3"/><stop offset="0.644" stop-color="#004f67"/><stop offset="0.711" stop-color="#286686"/></linearGradient><radialGradient id="d" cx="216.992" cy="40.274" r="35.929" xlink:href="#b"/><linearGradient id="e" x1="74.984" y1="35.403" x2="74.1" y2="55.904" xlink:href="#a"/><radialGradient id="f" cx="217.085" cy="40.274" r="35.93" xlink:href="#b"/></defs><title>STMicroelectronicsLogo</title><rect class="a" width="214" height="92"/><path class="b" d="M30.87,23.9V81.172A.83.83,0,0,0,31.7,82H103.63a13.892,13.892,0,0,0,13.876-13.877V10H44.766A13.912,13.912,0,0,0,30.87,23.9Z"/><path class="c" d="M102.663,25.3l-39.817,0v0a7.872,7.872,0,0,0-7.221,4.7L45.558,54.248a.917.917,0,0,0-.078.368.933.933,0,0,0,.937.926l40.142,0,.421-.029a7.851,7.851,0,0,0,6.555-4.774l9.992-24.149a.9.9,0,0,0,.071-.358.932.932,0,0,0-.935-.927"/><path class="d" d="M62.734,64.666a1.639,1.639,0,0,1,0-3.277,1.625,1.625,0,0,1,1.6,1.645,1.6,1.6,0,0,1-1.6,1.632m1.572-3.035a1.9,1.9,0,0,0-1.572-.772,2.169,2.169,0,1,0,0,4.336,1.913,1.913,0,0,0,1.572-.768V65.1h.581V60.971h-.581Zm4.759,1.523a1.437,1.437,0,0,1-.416,1.2,1.127,1.127,0,0,1-.842.32,1.175,1.175,0,0,1-.923-.376,1.648,1.648,0,0,1-.284-1.054V60.971h-.581V63.25a2.08,2.08,0,0,0,.364,1.33,1.75,1.75,0,0,0,1.424.622A1.407,1.407,0,0,0,69.1,64.53V65.1h.552v-4.13h-.582Zm3.394,1.511a1.639,1.639,0,1,1,1.586-1.632,1.608,1.608,0,0,1-1.586,1.632m1.556-3.019a1.886,1.886,0,0,0-1.556-.788,2.168,2.168,0,0,0,0,4.336,1.815,1.815,0,0,0,1.556-.787v.273a1.376,1.376,0,0,1-1.444,1.489,1.553,1.553,0,0,1-1.5-1.009l-.007-.02h-.612l.011.039a2.2,2.2,0,0,0,3.755.755,2.343,2.343,0,0,0,.378-1.507V60.97h-.582Zm5.863-.781a1.6,1.6,0,0,0-1.37.746,1.6,1.6,0,0,0-1.371-.746,1.359,1.359,0,0,0-1.079.5v-.4h-.582V65.1h.582V62.713a1.553,1.553,0,0,1,.182-.835,1.074,1.074,0,0,1,1.8,0,1.553,1.553,0,0,1,.182.835V65.1H78.8V62.713a1.544,1.544,0,0,1,.182-.835,1.074,1.074,0,0,1,1.8,0,1.553,1.553,0,0,1,.182.835V65.1h.581V62.652a1.635,1.635,0,0,0-1.661-1.787m2.947,1.858a1.572,1.572,0,0,1,3.107,0Zm1.542-1.862a2.192,2.192,0,0,0-2.145,2.175,2.151,2.151,0,0,0,4.185.711l.014-.041h-.614l-.007.02a1.509,1.509,0,0,1-1.432.941,1.594,1.594,0,0,1-1.547-1.415h3.7l0-.028a2.183,2.183,0,0,0-.316-1.3,2.148,2.148,0,0,0-1.845-1.058m4.76,0a1.506,1.506,0,0,0-1.236.58v-.476H87.31V65.1h.581V62.831a1.467,1.467,0,0,1,.371-1.1,1.266,1.266,0,0,1,1.731,0,1.507,1.507,0,0,1,.378,1.1V65.1h.581V62.832a1.984,1.984,0,0,0-.515-1.46,1.714,1.714,0,0,0-1.31-.507m3.9-1.337h-.582v1.441h-.856v.53h.856v3.6h.582V61.5h.976v-.53h-.976Zm1.911,3.193a1.572,1.572,0,0,1,3.108,0Zm1.543-1.861a2.191,2.191,0,0,0-2.145,2.175,2.151,2.151,0,0,0,4.185.71l.014-.04h-.615l-.007.019a1.508,1.508,0,0,1-1.431.941,1.593,1.593,0,0,1-1.547-1.414h3.705l0-.028a2.186,2.186,0,0,0-.317-1.306,2.143,2.143,0,0,0-1.844-1.057m4.957,3.808a1.638,1.638,0,1,1,0-3.276,1.625,1.625,0,0,1,1.6,1.646,1.6,1.6,0,0,1-1.6,1.63m1.572-5.138v2.094a1.977,1.977,0,0,0-1.572-.761,2.168,2.168,0,1,0,0,4.335,1.953,1.953,0,0,0,1.572-.768V65.1h.581V59.53Z"/><path class="e" d="M48.47,60.218h-.554v-.831h.554Zm-2.44-.688H44.823v.522h.655V64.58h-.7V65.1h1.9V64.58H46.03ZM48.6,60.969H47.4v.522h.656V64.58H47.38V65.1h1.878V64.58H48.6Zm2.278-1.175a1.394,1.394,0,0,0-.39,1.147v.03h-.655v.537H50.5V64.58h-.663V65.1H51.72V64.58h-.671V61.508h.671v-.537h-.671v-.089a.828.828,0,0,1,.264-.744.92.92,0,0,1,.527-.187l.028,0v-.5l-.032,0a1.462,1.462,0,0,0-.957.342m5.275,3.012a1.589,1.589,0,0,0-1.6-1.321,1.572,1.572,0,0,0-1.507,1.321Zm-1.589-1.838A2.1,2.1,0,0,1,56.692,63.1v.182H53.05a1.557,1.557,0,0,0,2.886.645l.009-.016h.6l-.02.043a2.112,2.112,0,1,1-1.956-2.981m4.012,4.244a.716.716,0,1,0-.716-.716.716.716,0,0,0,.716.716"/><path class="f" d="M102.663,25.819l-39.817,0,0,0A7.356,7.356,0,0,0,56.1,30.206l-7.86,18.933a.4.4,0,0,0-.033.159.414.414,0,0,0,.417.411H66.607a1.217,1.217,0,0,0,.837-2.212l-6.6-6.178a6.712,6.712,0,0,1,5.225-11.29h35.2a.418.418,0,0,0,.394-.277l1.393-3.365a.407.407,0,0,0,.03-.157A.413.413,0,0,0,102.663,25.819Z"/><path class="g" d="M66.066,29.407h35.077l1.262-3.046-38.6,0v0H62.88a6.789,6.789,0,0,0-6.251,4.071L48.888,49.085H66.607a.728.728,0,0,0,.72-.365.8.8,0,0,0-.289-.84l-6.614-6.189a7.341,7.341,0,0,1-1.373-7.939A7.177,7.177,0,0,1,66.066,29.407Z"/><path class="h" d="M98.7,35.455l-6.759.007a1.091,1.091,0,0,0-1.011.67l-7.573,18.3a.4.4,0,0,0-.047.189.414.414,0,0,0,.415.41h2.524v0a7.377,7.377,0,0,0,6.81-4.488l.009.006,6.019-14.529a.423.423,0,0,0,.03-.151A.413.413,0,0,0,98.7,35.455Z"/><path class="i" d="M85.29,54.489h.922a6.786,6.786,0,0,0,6.224-4.014l6-14.476-6.5.006a.5.5,0,0,0-.464.306L83.946,54.5h1.346Z"/><path class="j" d="M85.41,35.866a.414.414,0,0,0-.417-.411H65.83a1.285,1.285,0,0,0-.848,2.291l6.332,5.892a6.9,6.9,0,0,1,2.014,5.743,7.307,7.307,0,0,1-3.985,5.454h0a.1.1,0,0,0,.045.2h7.385a1.089,1.089,0,0,0,1.012-.669l7.6-18.351A.4.4,0,0,0,85.41,35.866Z"/><path class="k" d="M71.006,54.5a8.333,8.333,0,0,0,2.905-5.061,7.423,7.423,0,0,0-2.194-6.26l-6.329-5.892a.725.725,0,0,1-.274-.8A.809.809,0,0,1,65.83,36h18.9L77.2,54.188a.5.5,0,0,1-.466.307H71.006Z"/><g class="l"><path class="c" d="M85.412,35.865a.376.376,0,0,1-.031.149L81.827,44.6a79,79,0,0,1-8.223.426c-.4,0-.808-.005-1.211-.01a6.924,6.924,0,0,0-1.078-1.378l-6.332-5.892a1.284,1.284,0,0,1,.847-2.29H84.993A.417.417,0,0,1,85.412,35.865Z"/><path class="c" d="M99.11,35.865a.4.4,0,0,1-.031.154l-2.114,5.105a54.822,54.822,0,0,1-9.175,2.582l3.137-7.573a1.088,1.088,0,0,1,1.012-.669l6.757-.01A.412.412,0,0,1,99.11,35.865Z"/><path class="c" d="M103.079,26.231a.385.385,0,0,1-.03.154l-1.391,3.365a.421.421,0,0,1-.4.277H66.065a6.714,6.714,0,0,0-5.226,11.29L64.2,44.459a60.6,60.6,0,0,1-12.8-2.908L56.1,30.206a7.356,7.356,0,0,1,6.746-4.381v0h39.817A.411.411,0,0,1,103.079,26.231Z"/></g><path class="e" d="M119.948,69.112a15.066,15.066,0,0,1-7.376,12.121.412.412,0,0,0,.212.767h55.624A14.722,14.722,0,0,0,183.13,67.278V11.661A1.657,1.657,0,0,0,181.473,10H119.991Z"/><path class="c" d="M145.216,61.769a4.327,4.327,0,0,0-1.341.884q-.318-.59-.595-1.188a20.733,20.733,0,0,1-1.033-2.657,16.645,16.645,0,0,1-.661-3.508,12.013,12.013,0,0,1,.059-2.718,9.272,9.272,0,0,1,8.9-7.886h.049a8.993,8.993,0,0,1,2.054.112,8.135,8.135,0,0,1,3.086,1.33,8.887,8.887,0,0,1,2.49,2.706,9.747,9.747,0,0,1,1.3,3.8,8.105,8.105,0,0,1,.043.931c0,.068,0,.137,0,.206a13.074,13.074,0,0,0-1.6-.447,8.478,8.478,0,0,0-.23-1.513,7.892,7.892,0,0,0-1.653-3.188,6.653,6.653,0,0,0-2.935-2.019,6.808,6.808,0,0,0-2.958-.28,8.315,8.315,0,0,0-3.263,1.034,7.174,7.174,0,0,0-3.512,4.569,10.31,10.31,0,0,0-.146,3.958,16.117,16.117,0,0,0,1.212,4.346C144.7,60.748,144.942,61.256,145.216,61.769Zm8.308-5.686c.36.011.711.031,1.057.062a16.543,16.543,0,0,1,5.119,1.222,9.605,9.605,0,0,1,3.559,2.376,7.237,7.237,0,0,1,1.71,3.213,7.992,7.992,0,0,1-.5,5.076,6.506,6.506,0,0,1-5.632,4.122,7.522,7.522,0,0,1-4.351-.82,15.871,15.871,0,0,1-1.209,1.185,9.6,9.6,0,0,0,2.713,1.059,9.32,9.32,0,0,0,3.464.126,8.363,8.363,0,0,0,3.3-1.213,7.09,7.09,0,0,0,1.869-1.622,9.6,9.6,0,0,0,1.833-8.635,8.567,8.567,0,0,0-2.81-4.366,13.367,13.367,0,0,0-4.654-2.489,18.556,18.556,0,0,0-4.892-.88q-.317-.017-.632-.024a4.227,4.227,0,0,1,.113.961A4.322,4.322,0,0,1,153.524,56.083ZM144,56.627l.008,0,0-.009Zm9.8,10.319a15.333,15.333,0,0,1-5.349,4.972,7.492,7.492,0,0,1-5.071.86A7.8,7.8,0,0,1,138.79,70a6.561,6.561,0,0,1-1.7-4.563,7.11,7.11,0,0,1,.45-2.27,7.842,7.842,0,0,1,3.077-3.853c-.156-.509-.292-1.039-.413-1.61a9.426,9.426,0,0,0-4,4.535,8.279,8.279,0,0,0-.551,4.9,8.6,8.6,0,0,0,2.021,4.006,9.207,9.207,0,0,0,6,3.3,8.864,8.864,0,0,0,4.884-.809,15.329,15.329,0,0,0,5.086-3.91,20.477,20.477,0,0,0,2.082-2.832,4.265,4.265,0,0,1-1.427-.71C154.133,66.444,153.968,66.7,153.8,66.946ZM152.275,54.51a3.008,3.008,0,0,0-.106-.293c-.042-.1-.09-.2-.141-.289a3.131,3.131,0,0,0-2.743-1.622c-.1,0-.2.006-.3.015-.071.007-.141.018-.211.03a3.129,3.129,0,0,0-2.532,2.349,3.077,3.077,0,0,0-.077.472c-.007.088-.013.175-.013.264,0,.048,0,.095.007.142a3.024,3.024,0,0,0,.413,1.42,3.174,3.174,0,0,0,.263.387,3.129,3.129,0,0,0,5.336-.743,3.039,3.039,0,0,0,.1-.3,2.932,2.932,0,0,0,.075-.3,3.18,3.18,0,0,0,.061-.614A3.117,3.117,0,0,0,152.275,54.51Zm6.893,6.121a3.106,3.106,0,0,0-.38-.345,3.288,3.288,0,0,0-.355-.239,3.132,3.132,0,0,0-1.024-.366,3.09,3.09,0,0,0-.388-.041c-.047,0-.093-.007-.141-.007-.1,0-.2.006-.3.015a3.129,3.129,0,0,0-2.107,5.117c.066.079.136.154.209.226s.146.138.224.2a3.121,3.121,0,0,0,1.381.644c.1.019.2.034.31.043s.187.014.282.014l.043,0a3.125,3.125,0,0,0,2.245-5.26Zm-10.281,2.724c-.01-.008-.018-.018-.028-.026a3.077,3.077,0,0,0-2.49-.682,3.051,3.051,0,0,0-.305.063c-.1.026-.194.056-.288.091a3.123,3.123,0,0,0-1.267.869,2.843,2.843,0,0,0-.194.244c-.064.089-.123.18-.178.275a3.122,3.122,0,0,0,3.492,4.576,2.958,2.958,0,0,0,.476-.16,3.228,3.228,0,0,0,1.176-.89,3.271,3.271,0,0,0,.228-.321,3.122,3.122,0,0,0-.622-4.039Z"/><path class="c" d="M129.233,21.89h.785l-.417-1.063h-2.494L126.7,21.89h.766v.994h-2.892V21.751h.756l2.066-4.829h-.785V15.789h2.375l2.484,5.962h.755v1.133h-2.991Zm-.864-4.541h-.01l-.9,2.435h1.808Zm9.354,4.4h.685v1.133h-1.8v-.656a1.937,1.937,0,0,1-1.6.795,1.907,1.907,0,0,1-1.47-.676,2.2,2.2,0,0,1-.467-1.54v-2.1h-.686V17.578h1.9V20.45a1.714,1.714,0,0,0,.209.993,1.033,1.033,0,0,0,.894.457,1.167,1.167,0,0,0,.894-.437,1.667,1.667,0,0,0,.229-1.043V18.711h-.686V17.578h1.9Zm3.064,0h.963v1.133h-2.176V18.711h-.834V17.578h.834V15.789h1.213v1.789h.9v1.133h-.9Zm3.28-3.378a1.754,1.754,0,0,1,1.59-.915,1.83,1.83,0,0,1,1.5.776,2.555,2.555,0,0,1,.437,1.689v1.828h.685v1.133H145.7V21.751h.685v-1.5a2.022,2.022,0,0,0-.178-1.112,1.1,1.1,0,0,0-.964-.487,1.149,1.149,0,0,0-.914.427,1.489,1.489,0,0,0-.259,1.063v1.61h.686v1.133H142.17V21.751h.685V16.922h-.685V15.789h1.9Zm4.415,1.838a2.782,2.782,0,1,1,2.772,2.812A2.8,2.8,0,0,1,148.482,20.211Zm4.372.02a1.59,1.59,0,1,0-1.6,1.6A1.6,1.6,0,0,0,152.854,20.231Zm3.252-1.749a1.766,1.766,0,0,1,1.59-.964V18.76a1.609,1.609,0,0,0-1.043.388,1.482,1.482,0,0,0-.457,1.262v1.341h.685v1.133H154.3V21.751h.685v-3.04H154.3V17.578h1.808Zm3.9,3.269h.686v1.133H158.1V21.751h.695v-3.04H158.1V17.578H160Zm0-4.68h-1.212V15.789H160Zm5.2.507v1.093l-2.553,3.08h1.629v-.586h1.063v1.719h-4.332V21.91l2.693-3.2h-1.51v.625h-1.064V17.578Zm5.686,3.746a2.724,2.724,0,0,1-2.5,1.7,2.8,2.8,0,0,1-.03-5.6,2.843,2.843,0,0,1,1.987.854,2.774,2.774,0,0,1,.746,1.988l-.04.427h-4.292a1.637,1.637,0,0,0,1.589,1.272,1.476,1.476,0,0,0,1.282-.636Zm-.924-1.57a1.7,1.7,0,0,0-1.669-1.252,1.642,1.642,0,0,0-1.55,1.252Zm5.825,2.335a2.006,2.006,0,0,1-1.738.874,2.738,2.738,0,0,1-.01-5.475,2.207,2.207,0,0,1,1.748.865V16.922h-.694V15.789H177v5.962h.685v1.133h-1.9Zm.03-1.878a1.6,1.6,0,0,0-1.589-1.59,1.615,1.615,0,1,0,1.589,1.59Zm-46.636,5.718a4.384,4.384,0,0,1,2.969.7,3.378,3.378,0,0,1,1.178,2.625,3.456,3.456,0,0,1-1.133,2.625,4.227,4.227,0,0,1-2.909.746h-1.775v4.341h-1.238V25.929Zm-1.67,5.609h1.76a3.427,3.427,0,0,0,2.043-.463,2.363,2.363,0,0,0-.015-3.594,3.449,3.449,0,0,0-2.058-.463h-1.73Zm14.869,5.43h-1.1V35.311A3.559,3.559,0,0,1,138,37.192a4.237,4.237,0,0,1,0-8.473,3.523,3.523,0,0,1,3.281,1.909V28.943h1.1Zm-7.458-4a3.134,3.134,0,0,0,3.222,3.192,3,3,0,0,0,2.894-1.954,3.07,3.07,0,0,0,.268-1.268,2.863,2.863,0,0,0-.253-1.283,3.1,3.1,0,0,0-2.939-1.924,3.146,3.146,0,0,0-3.192,3.222Zm9.6-4.027h1.044v1.312a2.732,2.732,0,0,1,2.566-1.536v1.089h-.1c-1.551,0-2.416.969-2.416,2.789v4.371h-1.089Zm5.83.879h-1.581v-.879h1.581V25.929h1.089v3.014h1.76v.879h-1.76v7.146h-1.089Zm4.056-.879h1.044c0,.447,0,.895-.015,1.432a3.006,3.006,0,0,1,2.984-1.656c2.491.03,3.371,1.73,3.371,3.684v4.565h-1.089V32.627c0-1.73-.776-2.909-2.581-2.879a2.435,2.435,0,0,0-2.61,2.685v4.535h-1.1Zm10.006,4.326a3.057,3.057,0,0,0,3.133,2.968,2.97,2.97,0,0,0,2.76-1.656h1.148a4.253,4.253,0,0,1-1.626,1.954,4.2,4.2,0,0,1-2.282.657,4.237,4.237,0,0,1-.015-8.473,4.114,4.114,0,0,1,4.192,4.55Zm6.221-.881a3.129,3.129,0,0,0-6.206,0Zm2.652-3.445h1.044v1.312a2.732,2.732,0,0,1,2.566-1.536v1.089h-.1c-1.552,0-2.417.969-2.417,2.789v4.371h-1.089Z"/></svg>