<svg xmlns="http://www.w3.org/2000/svg" width="214" height="92" viewBox="0 0 214 92"><defs><style>.a{fill:none;}.b{fill:#e98300;}</style></defs><title>TEConnectivityLogo</title><rect class="a" width="214" height="92"/><path class="b" d="M97.543,31.792H64.236a4.9,4.9,0,0,1,0-9.792H97.543a4.9,4.9,0,0,1,0,9.792ZM95.9,51.41a4.9,4.9,0,0,0-4.892-4.9H57.7a4.9,4.9,0,0,0,0,9.792H91.006A4.9,4.9,0,0,0,95.9,51.41ZM43,39.111a4.9,4.9,0,0,0,4.881,4.913H81.2a4.9,4.9,0,0,0,0-9.792H47.892A4.885,4.885,0,0,0,43,39.111Zm68.982-16.84-2.074,7.68h10.3L113.2,56.007h8.871l6.966-26.056h10.3l2.029-7.68H111.982Zm31.955,0L134.92,56.007h27.051l1.973-7.466h-18.35l1.657-6.133h16.388l1.86-6.81H149.077l1.611-5.884h18.294L171,22.282H143.948ZM104.825,68.577a2.712,2.712,0,0,0,1.961-.836l-.744-.949a1.708,1.708,0,0,1-1.127.509,1,1,0,0,1-1.011-1,.974.974,0,0,1,.008-.132,1.714,1.714,0,0,1,1.476-1.8,1.215,1.215,0,0,1,1.127.677l1.127-.79a2.252,2.252,0,0,0-2.107-1.13,3.058,3.058,0,0,0-3.155,2.957c0,.042,0,.084,0,.126a2.257,2.257,0,0,0,2.176,2.335,2.2,2.2,0,0,0,.281-.008Zm5.308,0a3.046,3.046,0,0,0,2.976-2.982,2.249,2.249,0,0,0-2.468-2.371,3.046,3.046,0,0,0-2.976,2.981,2.252,2.252,0,0,0,2.48,2.338Zm.068-1.254a1.06,1.06,0,0,1-1.127-.989,1.09,1.09,0,0,1,0-.14,1.682,1.682,0,0,1,1.477-1.694,1.06,1.06,0,0,1,1.127.989,1.09,1.09,0,0,1,0,.14,1.682,1.682,0,0,1-1.466,1.672Zm3.111,1.13h1.465l.778-2.971a1.128,1.128,0,0,1,1.127-1.027.606.606,0,0,1,.71.632,2.07,2.07,0,0,1-.067.463l-.755,2.835h1.465l.744-2.767a4.209,4.209,0,0,0,.169-.983,1.4,1.4,0,0,0-1.38-1.418,1.306,1.306,0,0,0-.153.007,2.129,2.129,0,0,0-1.4.632l.135-.632h-1.465Zm5.951,0h1.454l.823-2.971a1.128,1.128,0,0,1,1.127-1.027.609.609,0,0,1,.7.5.67.67,0,0,1,.008.134,2.063,2.063,0,0,1-.068.463l-.755,2.835h1.454l.744-2.767a4.266,4.266,0,0,0,.169-.938,1.4,1.4,0,0,0-1.33-1.465,1.343,1.343,0,0,0-.237.009,2.123,2.123,0,0,0-1.409.632l.158-.632h-1.465Zm7.643-2.067h3.528a3.211,3.211,0,0,0,.259-1.13,1.942,1.942,0,0,0-1.84-2.037,1.841,1.841,0,0,0-.257,0,3.09,3.09,0,0,0-3.054,3.083,2.154,2.154,0,0,0,2.378,2.259,3,3,0,0,0,1.972-.678l-.665-.9a1.894,1.894,0,0,1-1.127.407,1.026,1.026,0,0,1-1.171-.857.984.984,0,0,1-.012-.171Zm.135-.9a1.555,1.555,0,0,1,1.443-1.129.733.733,0,0,1,.837.612.779.779,0,0,1,.008.145,1.126,1.126,0,0,1,0,.338h-2.254Zm6.763,3.095a2.711,2.711,0,0,0,1.938-.836L135,66.792a1.7,1.7,0,0,1-1.127.509,1,1,0,0,1-1.01-1,.973.973,0,0,1,.007-.132,1.716,1.716,0,0,1,1.477-1.8,1.227,1.227,0,0,1,1.127.677l1.127-.79a2.253,2.253,0,0,0-2.108-1.13,3.058,3.058,0,0,0-3.032,3.038,2.257,2.257,0,0,0,2.138,2.37c.061,0,.123,0,.184,0Zm4.418,0a2.575,2.575,0,0,0,1.06-.215l.338-1.242a1.932,1.932,0,0,1-.744.169.314.314,0,0,1-.414-.167.308.308,0,0,1-.014-.2,1.067,1.067,0,0,1,0-.226l.574-2.169h1.206l.339-1.253h-1.173l.35-1.322H138.29l-.35,1.277h-.62l-.338,1.253h.62l-.62,2.383a2.592,2.592,0,0,0-.09.644,1.128,1.128,0,0,0,1.221,1.027.862.862,0,0,0,.087-.011Zm2.176-.09h1.431l1.386-5.263H141.75Zm1.431-5.783h1.533l.361-1.3H142.19Zm2.818,5.76h1.319l3.381-5.195H147.78l-2.04,3.388-.236-3.388h-1.421Zm4.272,0h1.465l1.409-5.24h-1.454Zm1.5-5.726h1.555l.35-1.3h-1.477Zm3.212,5.816a2.558,2.558,0,0,0,1.06-.214l.338-1.243a1.969,1.969,0,0,1-.755.17.317.317,0,0,1-.385-.227.347.347,0,0,1-.01-.078,1.219,1.219,0,0,1,0-.226l.575-2.168h1.206L156,63.314h-1.206l.35-1.322h-1.454l-.271,1.232h-.62l-.338,1.253h.643l-.62,2.338a2.606,2.606,0,0,0-.1.644,1.127,1.127,0,0,0,1.182,1.071.876.876,0,0,0,.1-.01Zm3,1.446a2.389,2.389,0,0,0,2.107-1.446l3.2-5.33h-1.578l-1.927,3.5-.237-3.5h-1.488l.632,5.2a.62.62,0,0,1-.564.316,1.014,1.014,0,0,1-.564-.2l-.777,1.061A1.955,1.955,0,0,0,156.629,70Z"/></svg>